<svg xmlns="http://www.w3.org/2000/svg" xmlns:xlink="http://www.w3.org/1999/xlink" width="1921.3" height="238.38" viewBox="0 0 1921.3 238.38">
  <defs>
    <linearGradient id="linear-gradient" x1="0.5" y1="0.126" x2="0.5" y2="1.574" gradientUnits="objectBoundingBox">
      <stop offset="0" stop-color="#cae6ee"/>
      <stop offset="0.744" stop-color="#effafa"/>
    </linearGradient>
  </defs>
  <g id="Group_601" data-name="Group 601" transform="translate(-9.35 -476.12)">
    <path id="Path_316" data-name="Path 316" d="M789.49,589.04V532.58H778.52c-12.28,0-22.23,9.31-22.23,20.8v35.66h-5.53V494.45l-55.33.49v72.14H681.6V476.12H651.17v30.09c0,9.37-8.11,16.96-18.12,16.96H617.97V504.35H587.54v84.69h0c-7.64,0-13.83-5.8-13.83-12.94V563.95h-33.2V526.3H518.38v21.96H507.31V507.48h-8.3v-6.27h-49.8V607.86H410.48V494.94H366.22v12.55H352.39v94.1h-24.9V579.63h-16.6V525.95l-35.96.36v47.2c0,8.58-7.43,15.53-16.6,15.53h0V532.58h-33.2v56.46H219.6V520.8c0-14.31-12.4-25.9-27.69-25.89h0c-15.27.02-27.63,11.6-27.63,25.89v46.28H150.45V476.12H120.02v47.05H86.82V504.35H56.38v84.69H42.55V563.95H9.35V714.5H806.09V589.04Z" fill="url(#linear-gradient)"/>
    <path id="Path_327" data-name="Path 327" d="M1577.04,589.04V532.58h-10.97c-12.28,0-22.23,9.31-22.23,20.8v35.66h-5.53V494.45l-55.33.49v72.14h-13.83V476.12h-30.43v30.09c0,9.37-8.11,16.96-18.12,16.96h-15.08V504.35h-30.43v84.69h0c-7.64,0-13.83-5.8-13.83-12.94V563.95h-33.2V526.3h-22.13v21.96h-11.07V507.48h-8.3v-6.27h-49.8V607.86h-38.73V494.94h-44.26v12.55h-13.83v94.1h-24.9V579.63h-16.6V525.95l-35.96.36v47.2c0,8.58-7.43,15.53-16.6,15.53h0V532.58h-33.2v56.46h-5.53V520.8c0-14.31-12.4-25.9-27.69-25.89h0c-15.27.02-27.63,11.6-27.63,25.89v46.28H938V476.12H907.57v47.05h-33.2V504.35H843.94v84.69H830.1V563.95H796.9V714.5h796.74V589.04Z" fill="url(#linear-gradient)"/>
    <path id="Path_328" data-name="Path 328" d="M1914.05,589.04V532.58h-10.97c-12.28,0-22.23,9.31-22.23,20.8v35.66h-5.53V494.45l-55.33.49v72.14h-13.83V476.12h-30.43v30.09c0,9.37-8.11,16.96-18.12,16.96h-15.08V504.35H1712.1v84.69h0c-7.64,0-13.83-5.8-13.83-12.94V563.95h-33.2V526.3h-22.13v21.96h-11.07V507.48h-8.3v-6.27h-49.8V607.86h-38.73V494.94h-44.26v12.55h-13.83v94.1h-24.9V579.63h-16.6V525.95l-35.96.36v47.2c0,8.58-7.43,15.53-16.6,15.53h0V532.58h-33.2v56.46h-5.53V520.8c0-14.31-12.4-25.9-27.69-25.89h0c-15.27.02-27.63,11.6-27.63,25.89v46.28H1275V476.12h-30.43v47.05h-33.2V504.35h-30.43v84.69h-13.83V563.95h-33.2V714.5h796.74V589.04Z" fill="url(#linear-gradient)"/>
  </g>
</svg>
