<svg id="Group_229" data-name="Group 229" xmlns="http://www.w3.org/2000/svg" width="1681.73" height="167.178" viewBox="0 0 1681.73 167.178">
  <path id="Path_374" data-name="Path 374" d="M288.01,965.47l64.15,1.08s-2.17-28.24-31.6-28.73C288.49,937.27,288.01,965.47,288.01,965.47Z" transform="translate(-228.96 -887.852)" fill="#d2c5bd"/>
  <path id="Path_375" data-name="Path 375" d="M1106.81,1031.51l64.15,1.08s-2.17-28.24-31.6-28.73C1107.29,1003.32,1106.81,1031.51,1106.81,1031.51Z" transform="translate(-159.96 -1003.852)" fill="#d2c5bd"/>
  <path id="Path_376" data-name="Path 376" d="M149.96,1028.4l37.47.63s-1.27-16.5-18.46-16.79C150.23,1011.93,149.96,1028.4,149.96,1028.4Z" transform="translate(-149.96 -861.852)" fill="#d2c5bd"/>
  <path id="Path_377" data-name="Path 377" d="M926.27,969.57l37.47.63s-1.27-16.5-18.46-16.79C926.54,953.09,926.27,969.57,926.27,969.57Z" transform="translate(-79.96 -844.852)" fill="#d2c5bd"/>
  <path id="Path_378" data-name="Path 378" d="M1767.54,983.49l64.15,1.08s-2.17-28.24-31.6-28.73C1768.02,955.29,1767.54,983.49,1767.54,983.49Z" transform="translate(-149.96 -861.852)" fill="#d2c5bd"/>
  <path id="Path_379" data-name="Path 379" d="M1605.22,1020.01l37.47.63s-1.27-16.5-18.46-16.79C1605.5,1003.54,1605.22,1020.01,1605.22,1020.01Z" transform="translate(-237.96 -861.852)" fill="#d2c5bd"/>
</svg>
