<svg id="Group_233" data-name="Group 233" xmlns="http://www.w3.org/2000/svg" width="117.102" height="294.245" viewBox="0 0 117.102 294.245">
  <path id="Path_380" data-name="Path 380" d="M1890.65,721.72c-14.64,1.12-47.71,1.7-53.47,1.04,21.16-31.38,13.36-73.47-4.23-106.98,1.78-2.39,4.35-4.32,6.13-6.71,5.2,14.55,16.81,26.77,18.84,42.08,1.06,1.43,1.04-6.84,1.07-10.72.05-7.08-1.56-14.09-1.48-21.17s2.25-14.71,8.04-18.79c-.83-.24,0-.26.71.23a25.379,25.379,0,0,0,12.47,4.32c-6.31,17.41-6.38,35.8-3.18,54.04s9.58,35.71,16.57,52.85C1893.39,715.03,1893.65,720.22,1890.65,721.72Z" transform="translate(-1794.471 -430.645)" fill="#7a5335"/>
  <g id="Group_231" data-name="Group 231">
    <path id="Path_381" data-name="Path 381" d="M1901.4,587.31a35.526,35.526,0,0,1,.88,36.4c-2.99,5.08-7.59,9.44-13.18,10.52s-12.06-1.96-13.84-7.62c-5.75,8.2-19.18,8.39-25.14.37-2.64,7.83-14.89,9.04-18.88,1.86-7.05,5.77-19.37-2.08-17.74-11.3-5.18,2.43-11.23-2.88-12.14-8.75s1.61-11.67,4.07-17.04c-5.93-9.44-3.93-23.43,4.38-30.63a40.6,40.6,0,0,1-.62-33.36c-2.63-15.63,5.72-32.58,19.4-39.36-3.91-12.89.13-28.03,9.85-36.92-2.17-6.02,3.85-13.33,9.84-11.96-.87-3.94,2.07-8.31,5.89-8.79,10.18-1.27,15.83,16.4,13.22,26.8,8.64,3.1,14.18,13.61,12.08,22.93,10.24,3.55,14.68,18.78,8.09,27.73,6.63,6.17,7.84,17.76,2.63,25.29,9.13,5.63,11.41,20.48,4.42,28.83,10.49,1.89,15.82,17.56,8.83,25.98-.64.77-1.41,1.78-.98,2.7S1902.32,587.67,1901.4,587.31Z" transform="translate(-1794.471 -430.645)" fill="#326330"/>
    <path id="Path_382" data-name="Path 382" d="M1815.02,579.93a40.6,40.6,0,0,1-.62-33.36c-2.63-15.63,5.72-32.58,19.4-39.36-3.91-12.89.13-28.03,9.85-36.92-2.17-6.02,3.85-13.33,9.84-11.96-.87-3.94,2.07-8.31,5.89-8.79,3.24-.4,6.01,1.11,8.21,3.69.49-10.32-4.94-23.63-13.82-22.52-3.82.48-6.76,4.85-5.89,8.79-5.99-1.37-12.01,5.95-9.84,11.96-9.73,8.89-13.77,24.03-9.85,36.92-13.68,6.79-22.03,23.73-19.4,39.36a40.6,40.6,0,0,0,.62,33.36c-8.31,7.2-10.31,21.19-4.38,30.63-2.46,5.36-4.98,11.16-4.07,17.04a11.737,11.737,0,0,0,6.79,8.81,70.832,70.832,0,0,1,2.89-7.02C1804.71,601.12,1806.71,587.13,1815.02,579.93Z" transform="translate(-1794.471 -430.645)" fill="#3a763b"/>
    <path id="Path_383" data-name="Path 383" d="M1836.47,601.25c-1.48-4.51-9.41-10.47-8.94-11.31A13.508,13.508,0,0,0,1816.49,579a13.073,13.073,0,0,0-12.72,6.67c.05.32.09.64.12.95a12.4,12.4,0,0,1,8.11-1.87,13.5,13.5,0,0,1,11.04,10.94c-.47.85,7.45,6.8,8.93,11.31a15.1,15.1,0,0,1-2.22,13.53,11.5,11.5,0,0,1-.28,8.4c4.24-3,6.7-9.07,4.77-14.15A15.1,15.1,0,0,0,1836.47,601.25Z" transform="translate(-1794.471 -430.645)" fill="#558e2f"/>
    <path id="Path_384" data-name="Path 384" d="M1906.03,590.56a1.907,1.907,0,0,0-.24.41c.23.93.26,1.65-.01,1.21a1.192,1.192,0,0,1,.01-1.21,8.292,8.292,0,0,0-.41-1.25c-.33-.43-.65-.86-1-1.28.39.12.73.65,1,1.28.21.28.44.55.65.84a8.554,8.554,0,0,1,1.04-1.13c9.21-8.56,2.19-24.49-11.64-26.41,9.2-8.49,6.21-23.56-5.81-29.3,1.25.6,4.41-9.21,4.42-10.15.13-10.06-9.46-24.35-24.12-22.29-8.54,1.2-15.63,7.35-16.51,14.32-9.2.84-15.42,10.57-11.15,17.21a10.872,10.872,0,0,0,.85,18.3c-9,8.13-10.27,21.21-2.96,30.38-7.63,7.74-10.64,18.33-7.94,27.99,1.07,3.83,3.16,7.68,7.07,10.02s9.94,2.62,13.36-.17c1.89,1.83,3.89,3.72,6.6,4.65s6.35.57,7.92-1.45c7.56,7.71,23.66,8.47,32.29,1.54a31.77,31.77,0,0,0,7.66-.94A29.105,29.105,0,0,0,1906.03,590.56Z" transform="translate(-1794.471 -430.645)" fill="#4c833d"/>
    <g id="Group_230" data-name="Group 230" transform="translate(0 128.518)">
      <path id="Path_385" data-name="Path 385" d="M1830.34,631.61c-2.91,5.05-11.6,3.1-12.43-2.8-3.5,4.41-10.3,2.28-14.42-1.45a27.14,27.14,0,0,1-8.84-16.45c-.81-6.44,1.2-13.39,5.73-17.63a14.134,14.134,0,0,1-4.43-13.21c.96-4.83,5.57-9.12,9.99-10.27,2.95-7,10.32-11.46,17.36-10.51s13.17,7.25,14.45,14.82c-.62,1.15,9.75,9.21,11.69,15.33a21.02,21.02,0,0,1-2.91,18.33c3.51,9.55-4.01,21.68-13.48,21.73-.71,0-1.64-.19-1.71-.96C1831.26,627.79,1830.99,631.3,1830.34,631.61Z" transform="translate(-1794.471 -559.163)" fill="#66a242"/>
      <path id="Path_386" data-name="Path 386" d="M1837.2,620.12c-.07-.76-.34,2.75-.99,3.05-2.91,5.05-11.6,3.1-12.43-2.8-3.5,4.41-10.3,2.28-14.42-1.45a27.14,27.14,0,0,1-8.84-16.45c-.82-6.44,1.2-13.39,5.73-17.63a14.108,14.108,0,0,1-4.45-13.04,13.922,13.922,0,0,0-5.85,8.28,14.157,14.157,0,0,0,4.43,13.21c-4.53,4.24-6.55,11.19-5.73,17.63a27.242,27.242,0,0,0,8.84,16.45c4.12,3.73,10.92,5.86,14.42,1.45.83,5.89,9.52,7.84,12.43,2.8.65-.3.91-3.82.99-3.05s1.01.96,1.71.96c6.1-.04,11.37-5.09,13.42-11.23a12.47,12.47,0,0,1-7.55,2.79C1838.21,621.08,1837.28,620.88,1837.2,620.12Z" transform="translate(-1794.471 -559.163)" fill="#79ad57"/>
    </g>
    <path id="Path_387" data-name="Path 387" d="M1887.89,530.37c-.01.95-3.17,10.75-4.42,10.15,12.02,5.73,15.02,20.81,5.81,29.3,10.29,1.43,16.81,10.62,15.67,18.75a2.9,2.9,0,0,1,.75,1.14c.22.28.45.56.65.85a8.554,8.554,0,0,1,1.04-1.13c9.21-8.56,2.19-24.49-11.64-26.41,9.2-8.49,6.21-23.56-5.81-29.3,1.25.6,4.41-9.21,4.42-10.15.13-10.06-9.46-24.35-24.12-22.29-6.68.94-12.46,4.92-15.09,9.94a21.946,21.946,0,0,1,8.6-3.14C1878.43,506.02,1888.02,520.31,1887.89,530.37Z" transform="translate(-1794.471 -430.645)" fill="#639653"/>
  </g>
  <g id="Group_232" data-name="Group 232" transform="translate(35.646 273.322)">
    <path id="Path_388" data-name="Path 388" d="M1875.06,711.12c-2.47-1.21-7.65,3.76-7.65,3.76s-2.94-6.68-5.9.79c0,0,.5-11.57-4.74-11.26s-6.9,11.53-6.9,11.53-2.49-5.21-5.24-4.03-.42,5.22-.42,5.22-5.21-3.16-6.28-2.71,2.83,5.08,2.83,5.08-7.82-5.62-10.14-3.7c-1.87,1.54,2.08,7.67,2.08,7.67s17.98.93,18.7.97,22.94-1.35,22.78-1.91S1877.69,712.41,1875.06,711.12Z" transform="translate(-1830.117 -703.967)" fill="#719f57"/>
    <path id="Path_389" data-name="Path 389" d="M1879.3,724.83s3.51-9.11-3.18-2.32c0,0,3.58-7.76-2.33-3.47l-2.09,1s5.68-14.33.25-15.95-10.06,13.49-10.06,13.49-.89-6.57-2.94-5.8-1.83,7.12-1.83,7.12-2.22-2.71-2.77-1.99.5,3.82.5,3.82-2.66-2.74-3.33-2.19,0,2.86,0,2.86-8.7-9.52-12.25-8.56,5.65,10,5.65,10-7.59-4.79-9.98-3.61.83,3.74.83,3.74-6.76-1.68-3.99,1.92Z" transform="translate(-1830.117 -703.967)" fill="#5a8751"/>
  </g>
</svg>
