<svg id="Group_223" data-name="Group 223" xmlns="http://www.w3.org/2000/svg" width="1942.48" height="189.907" viewBox="0 0 1942.48 189.907">
  <path id="Path_357" data-name="Path 357" d="M427.27,708.88c37.07,3.56,74.18,8.95,111.38,7.3a297.755,297.755,0,0,0,122.57-32.85c-25.32-1-50.62-2.65-75.89-5.13-99.28-9.73-197.2-31.92-296.79-37.83S84.61,646.3,0,699.15c.8,14.3,1.32,29.26,1.79,44.34.05,1.63.1,3.27.15,4.9A1144.6,1144.6,0,0,1,427.27,708.88Z" transform="translate(0 -627.433)" fill="#95b53c"/>
  <g id="Group_220" data-name="Group 220" transform="translate(1.95 0.054)">
    <path id="Path_358" data-name="Path 358" d="M1030.67,754.94c89.99-.54,177.44-27.39,263.96-52.12,58.83-16.81,118.96-32.89,180.12-31.19,74.84,2.07,146.24,30.54,220.09,42.86,64.51,10.76,137.67,6.01,188.19-32.75-32.58-10.3-67.01-21.98-92.18-26.73-59.71-11.26-119.62-22.53-180.28-26.15-67.94-4.04-136.05,1.58-203.88,7.19q-183.075,15.165-366.14,30.32l-26.06,2.16c-66.2,5.48-132.61,10.96-199.01,13.86C872.3,733.33,953.3,755.41,1030.67,754.94Z" transform="translate(-1.95 -627.487)" fill="#95b53c"/>
    <path id="Path_359" data-name="Path 359" d="M1883.04,681.74c-50.53,38.76-123.68,43.51-188.19,32.75-73.85-12.32-145.25-40.79-220.09-42.86-61.16-1.69-121.29,14.38-180.12,31.19-86.52,24.73-173.97,51.57-263.96,52.12-77.37.47-158.37-21.61-215.19-72.55-51.45,2.25-102.9,2.96-154.26.93a297.6,297.6,0,0,1-122.57,32.85c-37.21,1.65-74.31-3.74-111.38-7.3A1144.38,1144.38,0,0,0,1.95,748.39c.63,20.81,1.21,41.75,2.31,61.46,1.27,0,.88,7.49,2.15,7.49H1928.98c1.54-20.28,1.81-40.62,3.35-60.9l10.15-58.42C1925.68,694.86,1904.77,688.6,1883.04,681.74Z" transform="translate(-1.95 -627.487)" fill="#9dc24a"/>
  </g>
  <g id="Group_221" data-name="Group 221" transform="translate(213.822 29.554)">
    <path id="Path_360" data-name="Path 360" d="M294.837,681.061c.718,2.53-.376,7.052,3.034,8.069,3.06.906,3.906-2.359,5.693-4.154,1.376,7.71,12.916,2.068,6.189-4.325,1.684,1,5.069,3.744,7.454,2.317,3.026-1.8.017-5.325-2.171-6.864,3.146.991,7.4-.256,4.924-4.231-1.6-2.564-7.24-2.821-9.847-2.539,5.607-1.077-3.334-13.283-7.308-2.607,1.171-6.838-12.711-6.992-6.582.359-2.9-.513-6.411-3.094-9.317-1.564-4.9,2.581.53,5.3,3.607,5.693-8.309-.274-8.975,8.65-.3,7.573-3.411-.154-4.248,4.71-1.718,6.154,2.923,1.667,6.77-1.051,7.112-3.881" transform="translate(-283.988 -661.585)" fill="#f9fcf0"/>
    <path id="Path_361" data-name="Path 361" d="M310.381,676.646c-.427,2.154-3.436,3.376-6.719,2.718s-5.6-2.932-5.171-5.086,3.436-3.376,6.719-2.718S310.809,674.492,310.381,676.646Z" transform="translate(-286.086 -663.007)" fill="#eaea44"/>
  </g>
  <g id="Group_275" data-name="Group 275" transform="translate(1769.822 60.554)">
    <path id="Path_360-2" data-name="Path 360" d="M293.232,678.18c.612,2.156-.32,6.009,2.586,6.875,2.607.772,3.328-2.01,4.851-3.54,1.173,6.569,11,1.762,5.273-3.685,1.435.852,4.319,3.19,6.351,1.974,2.578-1.537.015-4.537-1.85-5.848,2.68.845,6.307-.219,4.2-3.605-1.362-2.185-6.169-2.4-8.39-2.163,4.778-.918-2.84-11.318-6.227-2.221,1-5.827-10.83-5.958-5.608.306-2.469-.437-5.462-2.637-7.939-1.333-4.173,2.2.452,4.516,3.074,4.851-7.079-.233-7.647,7.371-.255,6.453-2.906-.131-3.62,4.013-1.464,5.244,2.491,1.42,5.768-.9,6.06-3.307" transform="translate(-283.988 -661.585)" fill="#f9fcf0"/>
    <path id="Path_361-2" data-name="Path 361" d="M308.615,675.867c-.364,1.835-2.928,2.877-5.725,2.316s-4.77-2.5-4.406-4.333,2.928-2.877,5.725-2.316S308.979,674.031,308.615,675.867Z" transform="translate(-287.914 -664.246)" fill="#eaea44"/>
  </g>
  <g id="Group_222" data-name="Group 222" transform="translate(587.615 91.473)">
    <path id="Path_362" data-name="Path 362" d="M587.149,725.2c.422,1.492-.226,4.151,1.785,4.744,1.8.532,2.3-1.388,3.344-2.445.807,4.536,7.6,1.217,3.638-2.549.99.587,2.983,2.2,4.383,1.363,1.779-1.064.006-3.13-1.278-4.041,1.846.581,4.353-.153,2.9-2.494-.941-1.51-4.255-1.657-5.8-1.492,3.3-.63-1.962-7.813-4.3-1.534.691-4.023-7.477-4.114-3.876.214-1.706-.3-3.772-1.816-5.484-.917-2.879,1.516.312,3.118,2.121,3.35-4.885-.159-5.276,5.086-.177,4.457-2.005-.092-2.5,2.769-1.009,3.619,1.718.978,3.986-.617,4.188-2.28" transform="translate(-580.746 -713.722)" fill="#f9fcf0"/>
    <path id="Path_363" data-name="Path 363" d="M599.681,724.9c-.251,1.266-2.024,1.987-3.955,1.6s-3.3-1.724-3.044-2.99,2.024-1.987,3.955-1.6S599.938,723.638,599.681,724.9Z" transform="translate(-585.373 -716.866)" fill="#eaea44"/>
  </g>
  <g id="Group_273" data-name="Group 273" transform="translate(952.149 74.876)">
    <path id="Path_362-2" data-name="Path 362" d="M586.833,724.629c.4,1.418-.215,3.946,1.7,4.51,1.709.506,2.185-1.319,3.179-2.325.767,4.312,7.224,1.156,3.458-2.423.941.558,2.836,2.092,4.167,1.3,1.691-1.011.006-2.975-1.215-3.841,1.755.552,4.138-.145,2.755-2.371-.9-1.435-4.045-1.575-5.509-1.418,3.132-.6-1.865-7.427-4.091-1.459.657-3.824-7.107-3.911-3.684.2-1.621-.285-3.586-1.726-5.213-.872-2.737,1.441.3,2.964,2.017,3.185-4.643-.151-5.015,4.835-.169,4.237-1.906-.087-2.377,2.633-.959,3.44,1.633.93,3.789-.587,3.981-2.168" transform="translate(-580.746 -713.722)" fill="#f9fcf0"/>
    <path id="Path_363-2" data-name="Path 363" d="M599.334,724.751c-.238,1.2-1.924,1.889-3.76,1.523s-3.132-1.639-2.894-2.842,1.924-1.889,3.76-1.523S599.578,723.548,599.334,724.751Z" transform="translate(-585.733 -717.11)" fill="#eaea44"/>
  </g>
  <g id="Group_270" data-name="Group 270" transform="translate(394.045 40.571)">
    <path id="Path_362-3" data-name="Path 362" d="M583.931,719.43c.21.742-.113,2.065.888,2.36.894.265,1.143-.69,1.663-1.216.4,2.256,3.78.605,1.81-1.268.493.292,1.484,1.095,2.18.678.885-.529,0-1.557-.636-2.01.918.289,2.165-.076,1.442-1.241-.468-.751-2.117-.824-2.883-.742,1.639-.313-.976-3.886-2.141-.763.344-2-3.719-2.047-1.928.106-.848-.149-1.876-.9-2.728-.456-1.432.754.155,1.551,1.055,1.667-2.43-.079-2.624,2.53-.088,2.217a.984.984,0,0,0-.5,1.8,1.522,1.522,0,0,0,2.083-1.134" transform="translate(-580.746 -713.722)" fill="#f9fcf0"/>
    <path id="Path_363-3" data-name="Path 363" d="M596.148,723.349c-.125.63-1.007.988-1.968.8s-1.639-.858-1.514-1.487,1.007-.988,1.968-.8S596.276,722.719,596.148,723.349Z" transform="translate(-589.031 -719.351)" fill="#eaea44"/>
  </g>
  <g id="Group_271" data-name="Group 271" transform="translate(714.465 74.379)">
    <path id="Path_362-4" data-name="Path 362" d="M584.867,721.107c.271.96-.146,2.672,1.149,3.053,1.157.342,1.48-.893,2.152-1.574.519,2.92,4.891.783,2.341-1.641.637.378,1.92,1.417,2.821.878,1.145-.685,0-2.015-.822-2.6,1.188.374,2.8-.1,1.865-1.606-.606-.972-2.739-1.066-3.73-.96,2.121-.405-1.263-5.029-2.77-.988.445-2.589-4.812-2.648-2.495.138-1.1-.193-2.428-1.169-3.529-.59-1.853.976.2,2.007,1.365,2.156-3.144-.1-3.4,3.274-.114,2.869a1.273,1.273,0,0,0-.649,2.329,1.97,1.97,0,0,0,2.7-1.468" transform="translate(-580.746 -713.722)" fill="#f9fcf0"/>
    <path id="Path_363-4" data-name="Path 363" d="M597.176,723.8c-.161.815-1.3,1.279-2.546,1.031s-2.121-1.11-1.96-1.924,1.3-1.279,2.546-1.031S597.341,722.987,597.176,723.8Z" transform="translate(-587.967 -718.628)" fill="#eaea44"/>
  </g>
  <g id="Group_274" data-name="Group 274" transform="translate(1546.313)">
    <path id="Path_362-5" data-name="Path 362" d="M586.736,724.455c.395,1.4-.212,3.883,1.67,4.438,1.682.5,2.15-1.3,3.128-2.287.755,4.243,7.108,1.138,3.4-2.385.926.549,2.791,2.059,4.1,1.275,1.664-.995.006-2.928-1.2-3.78,1.727.543,4.072-.143,2.711-2.333-.881-1.412-3.98-1.549-5.421-1.4,3.082-.589-1.836-7.308-4.026-1.435.646-3.763-6.994-3.848-3.626.2-1.6-.28-3.528-1.7-5.13-.858-2.693,1.418.292,2.916,1.984,3.134-4.569-.149-4.935,4.758-.166,4.169-1.876-.086-2.339,2.59-.944,3.385,1.607.915,3.729-.578,3.917-2.133" transform="translate(-580.746 -713.722)" fill="#f9fcf0"/>
    <path id="Path_363-5" data-name="Path 363" d="M599.227,724.7c-.235,1.184-1.893,1.859-3.7,1.5s-3.082-1.613-2.848-2.8,1.893-1.859,3.7-1.5S599.467,723.52,599.227,724.7Z" transform="translate(-585.843 -717.185)" fill="#eaea44"/>
  </g>
</svg>
