<svg xmlns="http://www.w3.org/2000/svg" width="1900.327" height="69.377" viewBox="0 0 1900.327 69.377">
  <g id="Group_602" data-name="Group 602" transform="translate(-11.245 -734.612)">
    <g id="Group_224" data-name="Group 224" transform="translate(11.245 734.612)">
      <path id="Path_364" data-name="Path 364" d="M160.33,771.42c-8.18-4-25.37,12.47-25.37,12.47s-9.74-22.17-19.58,2.61c0,0,1.65-38.38-15.72-37.36s-22.89,38.25-22.89,38.25S68.5,770.1,59.4,774.01s-1.38,17.33-1.38,17.33-17.28-10.47-20.84-8.98,9.38,16.85,9.38,16.85-25.92-18.62-33.64-12.27c-6.22,5.12,6.89,25.44,6.89,25.44s59.65,3.07,62.03,3.22,76.1-4.47,75.55-6.33S169.06,775.69,160.33,771.42Z" transform="translate(-11.245 -747.673)" fill="#89a546"/>
      <path id="Path_365" data-name="Path 365" d="M174.38,816.88s11.64-30.21-10.54-7.7c0,0,11.89-25.74-7.72-11.51L149.19,801s18.85-47.52.83-52.92-33.37,44.75-33.37,44.75-2.94-21.81-9.74-19.23-6.07,23.62-6.07,23.62-7.35-8.98-9.19-6.61,1.65,12.66,1.65,12.66-8.82-9.08-11.03-7.27,0,9.47,0,9.47-28.86-31.58-40.63-28.4,18.75,33.16,18.75,33.16S35.2,794.33,27.3,798.27s2.76,12.42,2.76,12.42-22.43-5.58-13.24,6.36Z" transform="translate(-11.245 -747.673)" fill="#43932f"/>
    </g>
    <g id="Group_225" data-name="Group 225" transform="translate(1766.077 743.133)">
      <path id="Path_366" data-name="Path 366" d="M1896.6,777.1c-7.16-3.5-22.21,10.92-22.21,10.92s-8.53-19.4-17.14,2.28c0,0,1.45-33.6-13.76-32.7s-20.04,33.49-20.04,33.49-7.24-15.14-15.21-11.71-1.21,15.17-1.21,15.17-15.13-9.16-18.25-7.86,8.21,14.75,8.21,14.75-22.69-16.31-29.45-10.74c-5.44,4.48,6.04,22.27,6.04,22.27s52.22,2.69,54.31,2.82,66.62-3.91,66.14-5.55S1904.25,780.84,1896.6,777.1Z" transform="translate(-1766.077 -756.315)" fill="#89a546"/>
      <path id="Path_367" data-name="Path 367" d="M1908.9,816.9s10.19-26.45-9.23-6.74c0,0,10.41-22.54-6.76-10.07l-6.07,2.91s16.5-41.6.73-46.33-29.21,39.17-29.21,39.17-2.58-19.09-8.53-16.84-5.31,20.68-5.31,20.68-6.44-7.86-8.05-5.78,1.45,11.09,1.45,11.09-7.73-7.95-9.66-6.36,0,8.29,0,8.29-25.27-27.65-35.57-24.86,16.42,29.03,16.42,29.03-22.05-13.92-28.97-10.47,2.41,10.87,2.41,10.87-19.64-4.88-11.59,5.57Z" transform="translate(-1766.077 -756.315)" fill="#43932f"/>
    </g>
    <g id="Group_226" data-name="Group 226" transform="translate(180.251 745.9)">
      <path id="Path_368" data-name="Path 368" d="M387.87,778.96c-6.83-3.34-21.19,10.41-21.19,10.41s-8.14-18.5-16.35,2.18c0,0,1.38-32.04-13.13-31.19s-19.11,31.93-19.11,31.93-6.91-14.44-14.51-11.17-1.15,14.47-1.15,14.47-14.43-8.74-17.4-7.49,7.83,14.07,7.83,14.07-21.65-15.55-28.09-10.24c-5.19,4.28,5.76,21.24,5.76,21.24s49.81,2.56,51.8,2.68,63.55-3.73,63.09-5.29S395.16,782.52,387.87,778.96Z" transform="translate(-180.251 -759.12)" fill="#89a546"/>
      <path id="Path_369" data-name="Path 369" d="M313.67,816.91s9.72-25.23-8.8-6.43c0,0,9.93-21.5-6.45-9.61l-5.79,2.78s15.74-39.68.7-44.19-27.86,37.36-27.86,37.36-2.46-18.21-8.14-16.06-5.07,19.73-5.07,19.73-6.14-7.49-7.68-5.52,1.38,10.58,1.38,10.58-7.37-7.59-9.21-6.07,0,7.91,0,7.91-24.1-26.37-33.93-23.71,15.66,27.69,15.66,27.69-21.03-13.28-27.63-9.99,2.3,10.37,2.3,10.37-18.73-4.66-11.05,5.31Z" transform="translate(-180.251 -759.12)" fill="#43932f"/>
    </g>
    <g id="Group_228" data-name="Group 228" transform="translate(963.733 743.113)">
      <path id="Path_372" data-name="Path 372" d="M1094.33,777.08c-7.17-3.5-22.22,10.93-22.22,10.93s-8.53-19.41-17.15,2.28c0,0,1.45-33.62-13.77-32.72s-20.05,33.51-20.05,33.51-7.25-15.15-15.22-11.72-1.21,15.18-1.21,15.18-15.14-9.17-18.25-7.86,8.21,14.76,8.21,14.76-22.71-16.31-29.47-10.74c-5.45,4.49,6.04,22.28,6.04,22.28s52.25,2.69,54.33,2.82,66.66-3.92,66.17-5.55C1091.27,808.61,1101.98,780.82,1094.33,777.08Z" transform="translate(-963.733 -756.294)" fill="#8faf35"/>
      <path id="Path_373" data-name="Path 373" d="M1106.64,816.9s10.2-26.46-9.23-6.74c0,0,10.41-22.55-6.76-10.08l-6.07,2.92s16.51-41.63.73-46.35-29.23,39.19-29.23,39.19-2.58-19.1-8.53-16.84-5.31,20.69-5.31,20.69-6.44-7.86-8.05-5.79,1.45,11.09,1.45,11.09-7.73-7.96-9.66-6.37,0,8.3,0,8.3-25.28-27.66-35.59-24.87,16.43,29.05,16.43,29.05-22.06-13.93-28.99-10.48,2.42,10.88,2.42,10.88-19.65-4.89-11.59,5.57Z" transform="translate(-963.733 -756.294)" fill="#43932f"/>
    </g>
  </g>
</svg>
