<svg id="Group_219" data-name="Group 219" xmlns="http://www.w3.org/2000/svg" width="412.552" height="518.666" viewBox="0 0 412.552 518.666">
  <g id="Group_216" data-name="Group 216" transform="translate(20.473)">
    <path id="Path_343" data-name="Path 343" d="M1720.67,341.37c4.87,20.49-13.36,39.31-32.11,48.89-23.36,11.93-55.03,15.46-73.32-3.34-22.14,19.07-57.36,20.88-81.33,4.16a40.305,40.305,0,0,1-59.92-32.71c19.2-16.62,47.37-25.36,72.28-30.29,34.92-6.9,70.37-13.84,105.87-11.09a195.864,195.864,0,0,1,43.43,8.37c8.09,2.53,16.01,5.59,23.98,8.49C1720.13,334.05,1720.09,341.16,1720.67,341.37Z" transform="translate(-1403.075 -208.416)" fill="#2d5f32"/>
    <path id="Path_344" data-name="Path 344" d="M1720.34,340.17c-4.4,13.83-17.75,25.69-31.39,32.66-23.36,11.93-55.03,15.46-73.32-3.34-22.14,19.07-57.36,20.88-81.33,4.16a40.117,40.117,0,0,1-56.29-18.53c-1.38,1.05-2.72,2.13-4.02,3.26a40.305,40.305,0,0,0,59.92,32.71c23.97,16.72,59.19,14.91,81.33-4.16,18.28,18.8,49.96,15.27,73.32,3.34,18.75-9.58,36.98-28.4,32.11-48.89C1720.53,341.32,1720.42,340.85,1720.34,340.17Z" transform="translate(-1403.075 -208.416)" fill="#1b4826"/>
    <path id="Path_345" data-name="Path 345" d="M1536.26,702.12c18.05,11.34,37.1,22.69,58.32,24.71s45.16-8.2,52-28.39c4.32-12.75,1.23-26.67-1.78-39.79a2427.994,2427.994,0,0,1-51.5-323.67c.31,3.42-41.31-1.1-44.55,2.1-7.21,7.11,2.56,34.58,3.83,43.31a830.485,830.485,0,0,1-16.32,321.73Z" transform="translate(-1403.075 -208.416)" fill="#7a5335"/>
    <path id="Path_346" data-name="Path 346" d="M1764.84,318.23c7.94-3.04,16.07-6.19,22.41-11.85,26.71-23.88-21.09-61.02-42.46-43.58-4.89-12.02-19.09-19.4-31.74-16.51-7.53-14.02-26.59-20.47-41.09-13.89-30.54-30.36-84.88-32.16-117.37-3.9-2.67,2.32-5.37,4.9-8.82,5.67-3.74.83-7.55-.63-11.29-1.48a35.875,35.875,0,0,0-34.78,11.89,52.862,52.862,0,0,0-54.26-6.34c-22.03,10.39-42.73,29.4-42.36,54.9.42,28.93,18.59,58.35,46.32,69.87a119.565,119.565,0,0,0,20.11,5.9c14.04,3.12,28.47,5.49,42.77,4.01s28.63-7.21,38.06-18.07c22.39,15.32,55.22,12.99,75.22-5.34,12.31,13.62,31.49,12.48,47.56,3.59,1.64-.91,3.34-1.94,5.21-1.87a9.981,9.981,0,0,1,4.41,1.7c17.5,10.06,39.26,14.7,58.1,7.44S1770.51,337.6,1764.84,318.23Z" transform="translate(-1403.075 -208.416)" fill="#457b3b"/>
    <path id="Path_347" data-name="Path 347" d="M1444.93,261.64a52.813,52.813,0,0,1,54.26,6.34,35.853,35.853,0,0,1,34.78-11.89c3.74.84,7.55,2.31,11.29,1.48,3.45-.77,6.15-3.35,8.82-5.67,32.49-28.26,86.83-26.45,117.37,3.9,14.49-6.58,33.56-.13,41.09,13.89,12.65-2.89,26.85,4.5,31.74,16.51,13.66-11.15,38.1.01,46.99,15.75,17.05-23.72-26.38-55.55-46.47-39.15-4.89-12.02-26.62-33.43-39.27-30.53-7.53-14.02-19.07-6.45-33.56.13-30.54-30.36-84.88-32.16-117.37-3.9-2.67,2.32-5.37,4.9-8.82,5.67-3.74.83-7.55-.63-11.29-1.48a35.875,35.875,0,0,0-34.78,11.89,52.862,52.862,0,0,0-54.26-6.34c-22.03,10.39-42.73,29.4-42.36,54.9a71.955,71.955,0,0,0,1.02,11.04C1409.24,284.87,1426.62,270.28,1444.93,261.64Z" transform="translate(-1403.075 -208.416)" fill="#5a8751"/>
  </g>
  <path id="Path_348" data-name="Path 348" d="M1383.17,336.57a44.586,44.586,0,0,0,11.26,37.19c-5.21,2.6-6.66,9.86-4.39,15.22s7.26,9.06,12.37,11.84a69.7,69.7,0,0,0,101.97-48.81c.33-1.81-66.86-34.15-73.56-37.8C1407.64,301.54,1388.21,306.24,1383.17,336.57Z" transform="translate(-1382.603 -208.416)" fill="#457b3b"/>
  <path id="Path_349" data-name="Path 349" d="M1569.12,453.74c-1.86-.05-2.38-3.28-.63-3.91a130.1,130.1,0,0,1-69.9-45.6c-2.12,4.42-3.43,6.59-7.31,9.59a970.866,970.866,0,0,0,70.09,74.34C1566.43,476.15,1567.78,466.7,1569.12,453.74Z" transform="translate(-1382.603 -208.416)" fill="#7a5335"/>
  <path id="Path_350" data-name="Path 350" d="M1594.02,521.09c1.86.03,2.52-3.17.81-3.88a130.149,130.149,0,0,0,71.86-42.46c1.92,4.51,3.14,6.74,6.88,9.9a973,973,0,0,1-73.31,71.16C1595.71,543.6,1594.78,534.11,1594.02,521.09Z" transform="translate(-1382.603 -208.416)" fill="#7a5335"/>
  <g id="Group_217" data-name="Group 217" transform="translate(1.442 145.396)">
    <path id="Path_351" data-name="Path 351" d="M1507.8,408.73c7.85-1.6,14.01-9.02,14.53-17.02.9-14.05-11.33-19.91-22.69-21.93-.59-.11-.78-.84-.89-1.42-1.34-7-8.88-11.44-16-11.61s-13.23,2.92-19.6,6.11c-3.79-3.07-7.69-6.19-12.3-7.8-5.35-1.86-11.29-1.5-16.71.15-13.08,3.99-23.92,15.42-26.13,28.91.56.31,1.04-.88.42-1.05a23.574,23.574,0,0,0-22.02,33.98c2.13,4.31,6.3,8.23,11.09,7.82,6.4,11.95,17.25,18.83,30.73,20.23a42.447,42.447,0,0,0,36.21-14.66c5.27,7.21,19.9,6.49,27.37,4.11,5.23-1.66,8.26-3.79,11.23-8.58C1504,424.39,1508.24,408.64,1507.8,408.73Z" transform="translate(-1384.045 -353.812)" fill="#5f9643"/>
    <path id="Path_352" data-name="Path 352" d="M1507.96,400.8c.44-.09-3.8,15.66-4.77,17.23-2.96,4.79-6,6.93-11.23,8.58-7.47,2.37-22.1,3.1-27.37-4.11a42.409,42.409,0,0,1-36.21,14.66c-13.48-1.39-24.33-8.28-30.73-20.23-4.79.41-8.96-3.5-11.09-7.82a23.063,23.063,0,0,1-2.18-7.76,23.936,23.936,0,0,0,2.04,14.1c2.13,4.31,6.3,8.23,11.09,7.82,6.4,11.95,17.25,18.83,30.73,20.23a42.447,42.447,0,0,0,36.21-14.66c5.27,7.21,19.9,6.49,27.37,4.11,5.23-1.66,8.26-3.79,11.23-8.58.97-1.57,5.21-17.32,4.77-17.23,7.85-1.6,14.01-9.02,14.53-17.02a21.269,21.269,0,0,0-.16-4.12C1520.79,393.11,1515.08,399.35,1507.96,400.8Z" transform="translate(-1384.045 -353.812)" fill="#4b7936"/>
    <path id="Path_353" data-name="Path 353" d="M1407.9,396.54c2.58-13.03,13.18-23.98,25.91-27.87,5.42-1.65,11.36-2.01,16.71-.15,4.61,1.6,8.5,4.73,12.3,7.8,6.37-3.2,12.48-6.28,19.6-6.11s14.66,4.61,16,11.61c.11.59.3,1.32.89,1.42,8.99,1.6,18.5,5.63,21.64,14.19a18.17,18.17,0,0,0,1.35-5.72c.9-14.05-11.33-19.91-22.69-21.93-.59-.11-.78-.84-.89-1.42-1.34-7-8.88-11.44-16-11.61s-13.23,2.92-19.6,6.11c-3.79-3.07-7.69-6.19-12.3-7.8-5.35-1.86-11.29-1.5-16.71.15-12.74,3.88-23.33,14.83-25.91,27.87.07,0,.14-.01.21-.01.62.17.14,1.36-.42,1.05.06-.35.14-.7.21-1.04a23.456,23.456,0,0,0-23.34,29.72,23.133,23.133,0,0,1,2.59-5.54A24.073,24.073,0,0,1,1407.9,396.54Z" transform="translate(-1384.045 -353.812)" fill="#719f57"/>
  </g>
  <g id="Group_218" data-name="Group 218" transform="translate(200.251 187.285)">
    <path id="Path_354" data-name="Path 354" d="M1736.49,427.67q5.04.81,10.08,1.61c4.29-5.93,2.53-14.82-2.51-20.11s-12.52-7.52-19.76-8.11c-7.57-.61-16.46,1.12-20,7.9-3.43-3.4-7.02-6.9-11.57-8.47s-10.33-.61-12.91,3.49a23.7,23.7,0,0,0-22.7-6.52c-7.99,2.08-17.07,9.33-19.19,17.38-.61.37.7,1.13.98.46s-.32-1.35-.87-1.8a34.4,34.4,0,0,0-36.21-4.14,35.045,35.045,0,0,0-18.97,31.42c.28,14.01,3.78,31.38,17.39,34.07,3.63,11.09,15.66,18.68,27.12,17.11,3.43,14.24,19.79,22.54,34.13,20.32s26.3-12.65,34.48-24.75c6.15,10.65,24.36,10.29,30.1-.59,13.8,6.81,32.79-4.02,34.15-19.47,3.58,2.33,6.73-3.66,6.75-7.96C1767.04,445.89,1749.76,430.14,1736.49,427.67Z" transform="translate(-1582.854 -395.701)" fill="#4d833d"/>
    <path id="Path_355" data-name="Path 355" d="M1735.57,426.62q5.04.81,10.08,1.61c4.29-5.93,2.53-14.82-2.51-20.11s-12.52-7.52-19.76-8.11c-7.57-.61-16.46,1.12-20,7.9-3.43-3.4-7.02-6.9-11.57-8.47s-10.33-.61-12.91,3.49a23.7,23.7,0,0,0-22.7-6.52c-7.61,1.98-16.21,8.66-18.83,16.26.47.44.87,1.02.63,1.59-.28.66-1.59-.09-.98-.46.1-.38.23-.75.36-1.12-.08-.08-.16-.15-.24-.22a34.4,34.4,0,0,0-36.21-4.14,34.871,34.871,0,0,0-17.14,19.96,32.525,32.525,0,0,1,4.59-2.8,34.383,34.383,0,0,1,36.21,4.14c.08.07.16.14.24.22,2.62-7.6,11.22-14.28,18.83-16.26a23.691,23.691,0,0,1,22.7,6.52c2.57-4.1,8.36-5.06,12.91-3.49s8.14,5.07,11.57,8.47c3.54-6.78,12.43-8.51,20-7.9,7.25.59,14.72,2.82,19.76,8.11s6.8,14.19,2.51,20.11q-5.04-.81-10.08-1.61c13.27,2.47,30.55,18.22,30.51,31.84a12.211,12.211,0,0,1-1.05,4.69,22.3,22.3,0,0,0,6.86-13.9c3.58,2.33,6.74-3.66,6.75-7.96C1766.12,444.84,1748.84,429.09,1735.57,426.62Z" transform="translate(-1582.854 -395.701)" fill="#579741"/>
    <path id="Path_356" data-name="Path 356" d="M1760.24,458.12c-1.36,15.46-20.35,26.29-34.15,19.47-5.74,10.88-23.95,11.24-30.1.59-8.18,12.1-20.14,22.53-34.48,24.75s-30.7-6.08-34.13-20.32c-11.46,1.57-23.49-6.02-27.12-17.11-11.55-2.28-15.82-15.14-17.02-27.54a32.306,32.306,0,0,0-.37,5.47c.28,14.01,3.78,31.38,17.39,34.07,3.63,11.09,15.66,18.68,27.12,17.11,3.43,14.24,19.79,22.54,34.13,20.32s26.3-12.65,34.48-24.75c6.15,10.65,24.36,10.29,30.1-.59,13.8,6.81,32.79-4.02,34.15-19.47,3.58,2.33,6.74-3.66,6.75-7.96a19.711,19.711,0,0,0-1.29-6.8C1764.45,457.86,1762.43,459.54,1760.24,458.12Z" transform="translate(-1582.854 -395.701)" fill="#1b4826"/>
  </g>
</svg>
