<svg id="Group_215" data-name="Group 215" xmlns="http://www.w3.org/2000/svg" width="166.574" height="209.408" viewBox="0 0 166.574 209.408">
  <g id="Group_212" data-name="Group 212" transform="translate(8.278)">
    <path id="Path_329" data-name="Path 329" d="M486.93,548.1c1.97,8.27-5.39,15.87-12.96,19.74-9.43,4.82-22.22,6.24-29.6-1.35-8.94,7.7-23.16,8.43-32.83,1.68a16.283,16.283,0,0,1-24.2-13.21c7.75-6.71,19.12-10.24,29.18-12.23,14.1-2.79,28.41-5.59,42.74-4.48a79.419,79.419,0,0,1,17.54,3.38c3.27,1.02,6.46,2.26,9.68,3.43C486.71,545.15,486.69,548.02,486.93,548.1Z" transform="translate(-358.708 -494.413)" fill="#2d5f32"/>
    <path id="Path_330" data-name="Path 330" d="M486.79,547.62c-1.78,5.58-7.17,10.37-12.67,13.18-9.43,4.82-22.22,6.24-29.6-1.35-8.94,7.7-23.16,8.43-32.83,1.68a16.2,16.2,0,0,1-22.73-7.49c-.56.43-1.1.86-1.62,1.32a16.283,16.283,0,0,0,24.2,13.21c9.68,6.75,23.9,6.02,32.83-1.68,7.38,7.59,20.17,6.16,29.6,1.35,7.57-3.87,14.93-11.47,12.96-19.74C486.87,548.08,486.83,547.89,486.79,547.62Z" transform="translate(-358.708 -494.413)" fill="#1b4826"/>
    <path id="Path_331" data-name="Path 331" d="M412.47,693.75c7.29,4.58,14.98,9.16,23.54,9.97s18.23-3.31,20.99-11.46c1.74-5.15.5-10.77-.72-16.07a979.509,979.509,0,0,1-20.79-130.67c.13,1.38-16.68-.44-17.99.85-2.91,2.87,1.03,13.96,1.55,17.49a334.53,334.53,0,0,1,3.46,43.46A333.485,333.485,0,0,1,412.47,693.75Z" transform="translate(-358.708 -494.413)" fill="#7a5335"/>
    <path id="Path_332" data-name="Path 332" d="M504.76,538.76c3.21-1.23,6.49-2.5,9.05-4.79,10.79-9.64-8.51-24.64-17.14-17.59a11.531,11.531,0,0,0-12.81-6.67,13.3,13.3,0,0,0-16.59-5.61c-12.33-12.26-34.27-12.99-47.38-1.58a8.691,8.691,0,0,1-3.56,2.29c-1.51.34-3.05-.26-4.56-.6a14.476,14.476,0,0,0-14.04,4.8,21.351,21.351,0,0,0-21.91-2.56c-8.89,4.2-17.25,11.87-17.1,22.17.17,11.68,7.5,23.56,18.7,28.21a48.478,48.478,0,0,0,8.12,2.38c5.67,1.26,11.49,2.22,17.27,1.62s11.56-2.91,15.37-7.3a25.264,25.264,0,0,0,30.37-2.15c4.97,5.5,12.71,5.04,19.2,1.45a4.148,4.148,0,0,1,2.1-.75,3.993,3.993,0,0,1,1.78.69c7.07,4.06,15.85,5.94,23.46,3C502.67,552.84,507.05,546.58,504.76,538.76Z" transform="translate(-358.708 -494.413)" fill="#457b3b"/>
    <path id="Path_333" data-name="Path 333" d="M375.6,515.91a21.351,21.351,0,0,1,21.91,2.56,14.454,14.454,0,0,1,14.04-4.8c1.51.34,3.05.93,4.56.6a8.691,8.691,0,0,0,3.56-2.29c13.12-11.41,35.05-10.68,47.38,1.58a13.288,13.288,0,0,1,16.59,5.61,11.513,11.513,0,0,1,12.81,6.67c5.52-4.5,15.38,0,18.97,6.36,6.88-9.57-10.65-22.43-18.76-15.8-1.97-4.85-10.75-13.5-15.85-12.33-3.04-5.66-7.7-2.6-13.55.05-12.33-12.26-34.27-12.99-47.38-1.58a8.691,8.691,0,0,1-3.56,2.29c-1.51.34-3.05-.26-4.56-.6a14.476,14.476,0,0,0-14.04,4.8,21.351,21.351,0,0,0-21.91-2.56c-8.89,4.2-17.25,11.87-17.1,22.17a29.121,29.121,0,0,0,.41,4.46C361.19,525.29,368.21,519.4,375.6,515.91Z" transform="translate(-358.708 -494.413)" fill="#5a8751"/>
  </g>
  <path id="Path_334" data-name="Path 334" d="M350.66,546.16a17.965,17.965,0,0,0,4.55,15.01c-2.1,1.05-2.69,3.98-1.77,6.14a10.626,10.626,0,0,0,4.99,4.78,28.133,28.133,0,0,0,41.16-19.7c.13-.73-26.99-13.79-29.7-15.26C360.55,532.02,352.7,533.92,350.66,546.16Z" transform="translate(-350.43 -494.413)" fill="#457b3b"/>
  <path id="Path_335" data-name="Path 335" d="M425.74,593.47a.857.857,0,0,1-.26-1.58,52.49,52.49,0,0,1-28.22-18.41,8.86,8.86,0,0,1-2.95,3.87,393.286,393.286,0,0,0,28.3,30.01C424.65,602.51,425.2,598.7,425.74,593.47Z" transform="translate(-350.43 -494.413)" fill="#7a5335"/>
  <path id="Path_336" data-name="Path 336" d="M435.79,620.66a.859.859,0,0,0,.33-1.57,52.551,52.551,0,0,0,29.01-17.14,8.885,8.885,0,0,0,2.78,4,391.5,391.5,0,0,1-29.6,28.73C436.47,629.75,436.1,625.91,435.79,620.66Z" transform="translate(-350.43 -494.413)" fill="#7a5335"/>
  <g id="Group_213" data-name="Group 213" transform="translate(0.587 58.702)">
    <path id="Path_337" data-name="Path 337" d="M400.98,575.3a7.646,7.646,0,0,0,5.86-6.87c.36-5.67-4.57-8.04-9.16-8.86-.24-.04-.31-.34-.36-.57-.54-2.83-3.58-4.62-6.46-4.69s-5.34,1.18-7.91,2.47a17.092,17.092,0,0,0-4.97-3.15,10.933,10.933,0,0,0-6.74.06,15.239,15.239,0,0,0-10.55,11.67c.23.12.42-.36.17-.42a9.521,9.521,0,0,0-8.89,13.72c.86,1.74,2.54,3.32,4.48,3.16a15.311,15.311,0,0,0,12.41,8.17,17.147,17.147,0,0,0,14.62-5.92c2.13,2.91,8.04,2.62,11.05,1.66a7.218,7.218,0,0,0,4.53-3.47A46.877,46.877,0,0,0,400.98,575.3Z" transform="translate(-351.017 -553.115)" fill="#5f9643"/>
    <path id="Path_338" data-name="Path 338" d="M401.05,572.1a45.846,45.846,0,0,1-1.93,6.96,7.277,7.277,0,0,1-4.53,3.47c-3.02.96-8.92,1.25-11.05-1.66a17.136,17.136,0,0,1-14.62,5.92,15.3,15.3,0,0,1-12.41-8.17c-1.93.17-3.62-1.41-4.48-3.16a9.5,9.5,0,0,1-.88-3.13,9.6,9.6,0,0,0,.82,5.69c.86,1.74,2.54,3.32,4.48,3.16a15.311,15.311,0,0,0,12.41,8.17,17.147,17.147,0,0,0,14.62-5.92c2.13,2.91,8.04,2.62,11.05,1.66a7.218,7.218,0,0,0,4.53-3.47,47.613,47.613,0,0,0,1.93-6.96,7.646,7.646,0,0,0,5.86-6.87,7.505,7.505,0,0,0-.07-1.66A7.641,7.641,0,0,1,401.05,572.1Z" transform="translate(-351.017 -553.115)" fill="#4b7936"/>
    <path id="Path_339" data-name="Path 339" d="M360.65,570.37a15.3,15.3,0,0,1,10.46-11.25,10.934,10.934,0,0,1,6.74-.06,17.36,17.36,0,0,1,4.97,3.15c2.57-1.29,5.04-2.54,7.91-2.47s5.92,1.86,6.46,4.69c.05.24.12.53.36.57,3.63.65,7.47,2.27,8.74,5.73a7.282,7.282,0,0,0,.54-2.31c.36-5.67-4.57-8.04-9.16-8.86-.24-.04-.31-.34-.36-.57-.54-2.83-3.58-4.62-6.46-4.69s-5.34,1.18-7.91,2.47a17.092,17.092,0,0,0-4.97-3.15,10.933,10.933,0,0,0-6.74.06,15.3,15.3,0,0,0-10.46,11.25h.08c.25.07.06.55-.17.42.02-.14.06-.28.09-.42a9.473,9.473,0,0,0-9.43,12,9.345,9.345,0,0,1,1.05-2.24A9.739,9.739,0,0,1,360.65,570.37Z" transform="translate(-351.017 -553.115)" fill="#719f57"/>
  </g>
  <g id="Group_214" data-name="Group 214" transform="translate(80.856 75.63)">
    <path id="Path_340" data-name="Path 340" d="M493.31,582.94c1.36.22,2.71.43,4.07.65,1.73-2.39,1.02-5.98-1.01-8.12s-5.05-3.04-7.98-3.27c-3.05-.25-6.64.45-8.07,3.19a13.1,13.1,0,0,0-4.67-3.42c-1.84-.63-4.17-.25-5.21,1.41a9.561,9.561,0,0,0-9.17-2.63c-3.22.84-6.89,3.77-7.75,7.02-.25.15.28.45.4.19s-.13-.55-.35-.73a13.886,13.886,0,0,0-14.62-1.67,14.17,14.17,0,0,0-7.66,12.69c.11,5.66,1.52,12.67,7.02,13.75a10.428,10.428,0,0,0,10.95,6.91c1.38,5.75,7.99,9.1,13.78,8.2s10.62-5.11,13.92-9.99c2.48,4.3,9.84,4.16,12.15-.24,5.57,2.75,13.24-1.62,13.79-7.86,1.45.94,2.72-1.48,2.72-3.21C505.64,590.3,498.67,583.94,493.31,582.94Z" transform="translate(-431.286 -570.043)" fill="#4d833d"/>
    <path id="Path_341" data-name="Path 341" d="M492.94,582.52c1.36.22,2.71.43,4.07.65,1.73-2.39,1.02-5.98-1.01-8.12s-5.05-3.04-7.98-3.27c-3.05-.25-6.64.45-8.07,3.19a13.1,13.1,0,0,0-4.67-3.42c-1.84-.64-4.17-.25-5.21,1.41a9.561,9.561,0,0,0-9.17-2.63c-3.07.8-6.55,3.5-7.6,6.56.19.18.35.41.25.64-.11.27-.64-.04-.4-.19.04-.15.09-.3.14-.45-.03-.03-.07-.06-.1-.09a13.886,13.886,0,0,0-14.62-1.67,14.1,14.1,0,0,0-6.92,8.06,12.542,12.542,0,0,1,1.85-1.13,13.888,13.888,0,0,1,14.62,1.67c.03.03.07.06.1.09,1.06-3.07,4.53-5.76,7.6-6.56a9.574,9.574,0,0,1,9.17,2.63c1.04-1.66,3.38-2.04,5.21-1.41a13.136,13.136,0,0,1,4.67,3.42c1.43-2.74,5.02-3.44,8.07-3.19,2.93.24,5.94,1.14,7.98,3.27s2.75,5.73,1.01,8.12c-1.36-.22-2.71-.43-4.07-.65,5.36,1,12.33,7.35,12.32,12.86a4.766,4.766,0,0,1-.43,1.89,8.991,8.991,0,0,0,2.77-5.61c1.45.94,2.72-1.48,2.72-3.21C505.27,589.87,498.3,583.51,492.94,582.52Z" transform="translate(-431.286 -570.043)" fill="#579741"/>
    <path id="Path_342" data-name="Path 342" d="M502.9,595.24c-.55,6.24-8.21,10.61-13.79,7.86-2.32,4.39-9.67,4.54-12.15.24-3.3,4.89-8.13,9.1-13.92,9.99s-12.4-2.46-13.78-8.2a10.428,10.428,0,0,1-10.95-6.91c-4.66-.92-6.39-6.11-6.87-11.12a12.568,12.568,0,0,0-.15,2.21c.11,5.66,1.52,12.67,7.02,13.75a10.428,10.428,0,0,0,10.95,6.91c1.38,5.75,7.99,9.1,13.78,8.2s10.62-5.11,13.92-9.99c2.48,4.3,9.84,4.16,12.15-.24,5.57,2.75,13.24-1.62,13.79-7.86,1.45.94,2.72-1.48,2.72-3.21a8.2,8.2,0,0,0-.52-2.75C504.6,595.13,503.78,595.81,502.9,595.24Z" transform="translate(-431.286 -570.043)" fill="#1b4826"/>
  </g>
</svg>
