<svg id="Group_117" data-name="Group 117" xmlns="http://www.w3.org/2000/svg" width="28.708" height="21.715" viewBox="0 0 28.708 21.715">
  <path id="Path_157" data-name="Path 157" d="M.59,12.507c-.023-.033-.046-.065-.07-.093s-.056-.07-.079-.107-.046-.079-.07-.116-.042-.065-.06-.1-.042-.084-.06-.121S.218,11.9.2,11.861s-.033-.084-.046-.126-.028-.074-.042-.116a1.065,1.065,0,0,1-.033-.13C.07,11.452.06,11.41.051,11.373s-.019-.1-.023-.153l-.014-.1a2.393,2.393,0,0,1,0-.516l.014-.1c.009-.051.014-.1.023-.153s.019-.079.028-.116a1.331,1.331,0,0,1,.033-.13c.014-.037.028-.079.042-.116S.181,9.909.2,9.867A1.117,1.117,0,0,1,.251,9.76a.977.977,0,0,1,.06-.121c.019-.033.037-.065.06-.1s.046-.079.07-.116a.908.908,0,0,1,.079-.107c.023-.033.046-.065.07-.093C.646,9.156.7,9.09.762,9.03L9.023.765a2.6,2.6,0,0,1,3.672,3.672L8.869,8.263H26.11a2.6,2.6,0,0,1,0,5.2H8.869l3.826,3.826a2.6,2.6,0,1,1-3.672,3.672L.762,12.7C.7,12.637.646,12.572.59,12.507Z" transform="translate(0 -0.005)" fill="#0372ac"/>
</svg>
