<svg xmlns="http://www.w3.org/2000/svg" width="37.529" height="32.948" viewBox="0 0 37.529 32.948">
  <g id="Group_381" data-name="Group 381" transform="translate(-22)">
    <path id="Path_736" data-name="Path 736" d="M496.52,32.955a13.1,13.1,0,0,1-9.311-3.56,10.006,10.006,0,0,0-7.111-2.828h-8.019A1.25,1.25,0,0,1,470.7,25.5a1.253,1.253,0,0,1,1.379-1.065h8.013A13.089,13.089,0,0,1,489.4,28.1a10.265,10.265,0,0,0,8.128,2.681c4.17-.351,7.491-2.943,7.9-6.17.4-3.121-1.861-5.993-5.624-7.142l-3.24-.99,3.24-.99c3.762-1.15,6.02-4.022,5.624-7.142-.414-3.227-3.74-5.824-7.9-6.17A10.257,10.257,0,0,0,489.4,4.86a13.079,13.079,0,0,1-9.306,3.667h-8.013A1.25,1.25,0,0,1,470.7,7.461,1.253,1.253,0,0,1,472.079,6.4h8.013A10,10,0,0,0,487.2,3.568,13.392,13.392,0,0,1,497.819.061c5.457.457,9.811,3.853,10.351,8.079.431,3.36-1.5,6.5-4.946,8.341,3.447,1.842,5.377,4.981,4.946,8.341-.54,4.226-4.894,7.622-10.351,8.079C497.388,32.937,496.951,32.955,496.52,32.955Z" transform="translate(-448.7 -0.007)" fill="#543205"/>
  </g>
</svg>
