<svg id="body" xmlns="http://www.w3.org/2000/svg" xmlns:xlink="http://www.w3.org/1999/xlink" viewBox="0 0 633.85699 929.28908"><defs><style>.cls-1,.cls-21{fill:none;}.cls-2{fill:url(#未命名漸層_58);}.cls-3{fill:#ebdad0;}.cls-4{fill:#fef7f1;}.cls-5{clip-path:url(#clip-path);}.cls-6{fill:#f9ede7;}.cls-7{fill:#fff;}.cls-8{fill:#fdefe4;}.cls-9{fill:#d8c3b9;}.cls-10{fill:#6d4d30;}.cls-11{fill:#ae805e;}.cls-12{fill:#0f0606;}.cls-13{fill:#1f0806;}.cls-14{fill:#cbac98;}.cls-15{fill:#edd4c6;}.cls-16{fill:#e0bdac;}.cls-17{fill:#f6e5da;}.cls-18{fill:#e1c5b9;}.cls-19{fill:#2e261e;}.cls-20{fill:#231815;}.cls-21{stroke:#a3a2a2;stroke-linecap:round;stroke-linejoin:round;stroke-width:0.25px;}.cls-22{fill:#ebd7cb;}.cls-23{fill:#dfcdc4;}</style><radialGradient id="未命名漸層_58" cx="359.34158" cy="785.08735" fx="327.0798093518863" fy="772.9416538980508" r="474.22482" gradientTransform="translate(0 391.42929) scale(1 0.50142)" gradientUnits="userSpaceOnUse"><stop offset="0" stop-color="#9f9e9f"/><stop offset="0.99577" stop-color="#f6f7f5" stop-opacity="0"/></radialGradient><clipPath id="clip-path"><path class="cls-1" d="M505.95218,821.24724c-11.35924-28.97575-1.89329-61.20282,4.10863-91.68406A399.096,399.096,0,0,0,494.89928,520.772c-4.02574-11.41784-8.607-22.7928-10.091-34.785-.97046-7.8447-.5979-15.85377-2.293-23.57937-2.99286-13.64462-9.21821-22.77041-19.98574-31.90715a2248.14065,2248.14065,0,0,1-225.62118,16.838c-32.8607.79372-62.31812,6.324-92.25528-6.975-12.55934,11.27111-26.077,24.54555-26.21229,41.23209-.04455,5.48119,1.41734,10.88425,1.50977,16.365.19223,11.41069-5.46928,21.996-9.53527,32.69062-5.84494,15.37354-8.52741,31.71611-10.47835,48.00985a577.73837,577.73837,0,0,0,22.521,241.383c-8.75824,12.90879-19.16488,26.09056-21.00123,41.48626-1.83636,15.39593,5.26871,32.9305,20.06864,38.40788,7.98834,2.95641,16.934,2.05407,25.22086.035,24.83854-6.05194,47.91266-23.51028,54.74831-47.67683.18271-.646.34826-1.303.50215-1.9638,14.19893-17.91785,17.42833-44.66563,17.73752-66.61017.42926-30.45193-3.70462-61.9901,6.83184-90.56424a92.57955,92.57955,0,0,1,31.56866-41.62156c22.03482-13.04028,48.7059-18.64105,74.16164-14.79255-3.93855.117-7.86519.27442-11.75753.444,35.92622,1.80943,69.65091,26.60176,82.09639,60.35194,10.53593,28.57292,6.40252,60.10911,6.83177,90.55962.36984,26.23608,7.3003,53.502,25.2902,74.25715,17.54095,20.23717,54.293,45.93769,80.97627,27.988q1.04886-.70557,1.98676-1.43853C541.128,870.62942,513.39478,840.23394,505.95218,821.24724Z"/></clipPath></defs><title>bull</title><ellipse class="cls-2" cx="312.59573" cy="806.64129" rx="312.59573" ry="122.64779"/><path class="cls-3" d="M476.02125,495.11961c34.2441,50.76023,46.23249,113.19691,35.74129,171.68628,12.75409-3.40968,26.61271,3.75908,33.988,13.6417,11.20484,15.01418,10.77377,34.66663,6.72563,52.335-9.55626,41.709-37.70182,81.359-76.81052,105.78808,0,0-331.37177,6.19668-337.10146,1.10944-36.09457-32.04734-60.28061-74.58043-67.93959-119.47721-2.01826-11.831-2.82922-24.3511,2.41819-35.366s18.124-19.92716,31.39173-18.10476c-8.22972-51.19737,1.56843-104.5799,27.67311-150.76934,46.32025,10.06742,96.87951,19.07718,144.43768,22.07743s96.58985-1.431,139.8301-19.33518c18.19849-7.53529,35.08983-17.32314,51.91073-27.07594,2.38988-1.38567,5.53245-2.78481,7.89709-1.36515S477.65811,497.2004,476.02125,495.11961Z"/><path class="cls-4" d="M505.95218,821.24724c-11.35924-28.97575-1.89329-61.20282,4.10863-91.68406A399.096,399.096,0,0,0,494.89928,520.772c-4.02574-11.41784-8.607-22.7928-10.091-34.785-.97046-7.8447-.5979-15.85377-2.293-23.57937-2.99286-13.64462-9.21821-22.77041-19.98574-31.90715a2248.14065,2248.14065,0,0,1-225.62118,16.838c-32.8607.79372-62.31812,6.324-92.25528-6.975-12.55934,11.27111-26.077,24.54555-26.21229,41.23209-.04455,5.48119,1.41734,10.88425,1.50977,16.365.19223,11.41069-5.46928,21.996-9.53527,32.69062-5.84494,15.37354-8.52741,31.71611-10.47835,48.00985a577.73837,577.73837,0,0,0,22.521,241.383c-8.75824,12.90879-19.16488,26.09056-21.00123,41.48626-1.83636,15.39593,5.26871,32.9305,20.06864,38.40788,7.98834,2.95641,16.934,2.05407,25.22086.035,24.83854-6.05194,47.91266-23.51028,54.74831-47.67683.18271-.646.34826-1.303.50215-1.9638,14.19893-17.91785,17.42833-44.66563,17.73752-66.61017.42926-30.45193-3.70462-61.9901,6.83184-90.56424a92.57955,92.57955,0,0,1,31.56866-41.62156c22.03482-13.04028,48.7059-18.64105,74.16164-14.79255-3.93855.117-7.86519.27442-11.75753.444,35.92622,1.80943,69.65091,26.60176,82.09639,60.35194,10.53593,28.57292,6.40252,60.10911,6.83177,90.55962.36984,26.23608,7.3003,53.502,25.2902,74.25715,17.54095,20.23717,54.293,45.93769,80.97627,27.988q1.04886-.70557,1.98676-1.43853C541.128,870.62942,513.39478,840.23394,505.95218,821.24724Z"/><g class="cls-5"><path class="cls-6" d="M158.01948,671.59624a76.21894,76.21894,0,0,0-24.10783,30.52429,140.19753,140.19753,0,0,1,9.19525-48.89322l-15.69618,20.434a399.18682,399.18682,0,0,1,15.72174-87.12779,101.14848,101.14848,0,0,0-20.91189,36.60867,232.08561,232.08561,0,0,1,48.15615-109.2766l-26.476,15.482L178.07281,458.484c9.88754-20.50409,19.79444-44.88692,9.20107-65.03541-55.31343,23.71235-89.881,81.792-100.8355,140.96844s-1.94158,120.05223,8.1299,179.38531c4.31394,25.41431,6.39527,54.23845,15.57947,77.96742C139.69657,767.99948,124.91847,696.389,158.01948,671.59624Z"/><path class="cls-6" d="M461.4226,671.59624a76.21894,76.21894,0,0,1,24.10783,30.52429,140.19753,140.19753,0,0,0-9.19525-48.89322l15.69618,20.434a399.18682,399.18682,0,0,0-15.72174-87.12779,101.14848,101.14848,0,0,1,20.91189,36.60867,232.08561,232.08561,0,0,0-48.15615-109.2766l26.476,15.482L441.36927,458.484c-9.88754-20.50409-19.79444-44.88692-9.20107-65.03541,55.31343,23.71235,89.881,81.792,100.8355,140.96844s1.94158,120.05223-8.1299,179.38531c-4.31394,25.41431-6.39527,54.23845-15.57947,77.96742C479.74551,767.99948,494.52361,696.389,461.4226,671.59624Z"/></g><path class="cls-7" d="M388.42566,666.83868a15.53992,15.53992,0,0,1-2.4719-2.32111c-.08647.01239-.17389.02787-.26036.0405Q387.05941,665.69825,388.42566,666.83868Z"/><path class="cls-7" d="M272.19082,674.19791c-.31873-.57741-.6608-1.14149-.98166-1.71772C269.51382,671.89491,270.51573,672.75627,272.19082,674.19791Z"/><path class="cls-7" d="M158.74874,829.05717q1.083-.57206,2.16627-1.14436A6.73633,6.73633,0,0,0,158.74874,829.05717Z"/><path class="cls-7" d="M160.38428,812.75009c-1.30872-.88923-2.935-.18652-4.21225.90281a19.20263,19.20263,0,0,0,2.34779,1.29419C158.88737,816.959,162.076,813.89993,160.38428,812.75009Z"/><path class="cls-8" d="M498.87739,439.89786c2.04125-16.26611-.59718-32.69832-2.18649-49.01515-1.63657-16.802-4.07246-33.73007-2.98224-50.64934,1.10519-17.15165,7.51069-30.63295,14.23053-46.04127,6.16928-14.146,9.99786-30.70771,11.90892-46.01715,2.49281-19.96974-.53252-40.17624-.58479-60.30093-.03056-11.79749.96246-23.57088,1.95422-35.32671q2.06411-24.45677,4.128-48.91369c1.60993-19.08012,3.20041-38.50031-.8723-57.2101C520.4,27.71364,510.72611,8.99251,493.57569.47731A104.58777,104.58777,0,0,0,415.93324,45.2977c-19.85136,29.20705-23.70722,65.66641-44.57449,94.15635a2.33432,2.33432,0,0,1-1.77417,2.52989q-3.882-3.67857-7.76377-7.35709a17.75418,17.75418,0,0,1-5.88982,5.57293q-3.63513-3.78239-7.27054-7.56469c.20139,4.2284-7.1226,5.85081-8.7259,1.93307q-1.58319,1.31149-3.16613,2.623a14.6754,14.6754,0,0,1-2.81787-5.19819q-2.509,1.76494-5.01745,3.52976a5.24131,5.24131,0,0,1-.204-7.431q-6.50058,3.85472-13.00147,7.70961,1.90507-5.88659,3.81015-11.77317-5.27667,4.5693-10.55286,9.13882.39189-5.04684.78382-10.0938c-4.98073,2.65747-9.73491,4.726-13.39069,9.02816,1.30857.297-.02286,2.58761-1.2532,2.05288s-1.47462-2.14253-1.54338-3.48244a19.14661,19.14661,0,0,0-10.3774,5.99444,19.808,19.808,0,0,1,.41864-9.47925,29.35912,29.35912,0,0,0-11.62507,6.828,5.0987,5.0987,0,0,1-1.56252-6.93938,9.36864,9.36864,0,0,0-5.94483,7.59876A38.96785,38.96785,0,0,0,247.06665,138.56q-3.06445-1.23474-6.12937-2.46959c-1.41932,4.23-10.00427,14.36881-11.10229,10.04445a241.26882,241.26882,0,0,0-49.79081-96.45232c-10.39963-12.23679-22.20891-23.5599-36.30833-31.24727-14.09964-7.68753-32.81118-15.62868-47.53161-9.21014-9.69872,4.229-16.58446,13.14722-21.47315,22.5306C54.18577,71.19142,63.17259,119.017,74.70564,161.962c2.40438,8.95329,4.91851,18.03055,4.7845,27.30011-.11393,7.87007-2.135,15.56878-3.41049,23.33565-1.70247,10.36432,5.30082,49.66678,11.02837,58.47075,13.22268,46.0433,21.67651,59.43542,19.74463,94.68718-2.643,48.22791,1.401,80.267,27.84587,121.19517,11.77606,18.22561,25.66337,35.42,43.73409,47.75327,26.86082,18.33249,61.80919,34.9043,93.23582,26.54093,8.692-2.31308,20.27015-2.15063,27.46317,3.24943a9.99619,9.99619,0,0,1,13.344-2.17575,75.4678,75.4678,0,0,1,17.15938-2.64663q2.98266,2.9543,5.96486,5.90837c3.76482-3.98394,7.72528-8.09969,12.87727-9.97123s11.84749-.72162,14.58732,4.02587q3.1379-2.42894,6.2753-4.858,2.93691,1.76049,5.87359,3.52094c9.89916-8.90377,27.84017-20.985,40.96941-18.77357,6.8032,1.14595,13.33919,3.87426,20.2292,4.22422,12.98721.65939,25.17079-7.42793,32.87771-17.90187s11.74094-23.12759,15.64956-35.53011q3.2105-10.18545,6.4205-20.371C494.46756,460.08423,497.59012,450.15714,498.87739,439.89786Z"/><path class="cls-3" d="M458.0393,311.45172c2.22511-.19687,3.31162,2.64914,3.4834,4.87633,1.01495,13.15921-4.15109,25.88544-8.17031,38.45688s-6.87865,26.60482-1.51406,38.66368l-45.90141-63.45376c-6.907-9.54817-15.15159-19.92092-26.85-21.34244,7.93668,2.01406,14.98034,2.43114,23.13753,3.14356,4.72823.41294,9.49878.608,14.13156,1.63946,4.44511.98971,8.69055,2.73425,13.11631,3.8072a45.0107,45.0107,0,0,0,24.80455-1.0774C456.84484,315.30091,458.94418,314.0057,458.0393,311.45172Z"/><path class="cls-9" d="M460.67193,319.1607c.57009.26081.72081.98849.77943,1.61267a30.50352,30.50352,0,0,1-2.86785,15.9877,13.09832,13.09832,0,0,0-1.88-3.623,23.59668,23.59668,0,0,0-1.5671,5.505,28.78425,28.78425,0,0,0-2.98917-8.95387l-3.17995,3.99924a5.69363,5.69363,0,0,0-.96089-2.34647l-3.651,4.22423-1.86658-4.63516c-.12278-.30489-.27988-.64352-.59145-.74819s-2.06991.01216-1.859.26427l1.09093-.04865-1.28727,2.16311-1.62571-2.03278-.60694,2.64671a8.035,8.035,0,0,0-4.13646-4.759,14.64408,14.64408,0,0,1-1.24683,5.04217l-1.47967-2.54237-1.58239,2.5053c-.83062-1.40739-2.06125-3.24065-2.89186-4.648a.90758.90758,0,0,1-1.10619.71443,1.55176,1.55176,0,0,0-1.48329-1.76506,1.49066,1.49066,0,0,0-1.33111,1.8477,4.43064,4.43064,0,0,0-1.7606-1.76949,1.53,1.53,0,0,0-2.08282.78783,10.25984,10.25984,0,0,1-1.74009-2.85284,3.03671,3.03671,0,0,0-2.10073,2.40044c-.68016-.37411-.96842-1.18989-1.49623-1.75908s-1.696-.72114-1.91319.02412c-.10418.35757.08575.74185.02667,1.10957a1.14684,1.14684,0,0,1-1.3627.78761,3.23663,3.23663,0,0,1-1.48342-.89335,74.7396,74.7396,0,0,1-9.1975-9.81521c6.25348,3.94765,14.18959,3.44079,21.58462,3.38055l34.85341-.28394C457.16342,320.67475,459.7268,320.30544,460.67193,319.1607Z"/><path class="cls-10" d="M461.45746,321.1722a7.88059,7.88059,0,0,0,.18124-2.25c-.00432-1.31423.08344-2.632.07934-3.94882-.00943-3.02725-.09421-6.05522-.30194-9.07569a78.88966,78.88966,0,0,0-3.07474-17.73708,55.451,55.451,0,0,0-3.32366-8.39712c-2.8124-5.66665-6.90689-11.02436-12.7556-14.025-8.42613-4.32294-19.18893-2.9449-27.58164,1.4705s-14.82739,11.45517-20.6442,18.64321-11.27176,14.74274-18.42811,20.7767c7.28989,5.35244,15.23118,10.80563,24.22927,12.87822,8.32387,1.91729,16.95516,2.28967,25.52156,2.65357l6.25257.26561,25.49058,1.08285a5.15522,5.15522,0,0,0,3.71242-1.22657A2.60092,2.60092,0,0,0,461.45746,321.1722Z"/><path class="cls-11" d="M392.66066,314.68652a117.59773,117.59773,0,0,1,2.22252-19.083l-.001.00113c1.30785-5.95584,2.76088-12.92926,6.28645-17.88116.42951-.60329.89318-1.18017,1.3634-1.75146a111.64,111.64,0,0,0-8.50226,9.51212c-5.81668,7.188-11.27156,14.74264-18.42812,20.77661,6.10983,4.48618,12.68706,9.01606,19.95111,11.594A9.27964,9.27964,0,0,1,392.66066,314.68652Z"/><path class="cls-12" d="M452.89534,315.856c6.93841-8.42859,7.058-22.97577,4.08375-32.39269-3.39416-10.74612-13.479-19.99843-25.25642-20.34643a30.53934,30.53934,0,0,0-8.44769,1.03746,39.48131,39.48131,0,0,0-21.66825,14.34506c-6.39025,8.54734-8.58946,26.0742-8.9398,36.5552.35548,4.58153,11.565,4.9222,19.35485,6.1042,10.02792,1.5216,23.0747,3.8374,33.228.13973A17.57316,17.57316,0,0,0,452.89534,315.856Z"/><path class="cls-13" d="M455.37955,280.081c-.116-.24366-.22051-.49088-.34074-.73323-2.81263-5.66659-6.907-11.0243-12.75577-14.025a25.59953,25.59953,0,0,0-12.90654-2.58236,35.44489,35.44489,0,0,0-14.675,4.0529,49.49361,49.49361,0,0,0-10.09624,7.2107,36.43,36.43,0,0,0-3.43,4.08759c-3.52556,4.9519-4.97883,11.92527-6.28644,17.88111.108.16686,4.13591-9.32381,7.30561-13.16224,5.3528-6.48166,12.0461-12.22523,20.11954-14.5667,8.07364-2.34145,17.6747-.65436,23.18613,5.69391,3.45907,3.98432,6.17621,8.4577,9.20829,12.75259,2.40052,3.40024,4.71891,6.71477,5.81536,11.15477C460.61672,292.25369,457.76216,285.08386,455.37955,280.081Z"/><circle class="cls-7" cx="421.90361" cy="280.69167" r="4.47516"/><circle class="cls-7" cx="430.39736" cy="275.48231" r="1.85442"/><path class="cls-14" d="M466.12754,300.49608l-3.1448-16.28873c-1.71934-8.90545-3.69453-18.32712-9.92058-24.92254-10.16923-10.77253-28.45532-9.71567-40.90976-1.694s-20.45787,21.21252-28.02933,33.94568l-8.88613,14.94408c8.59287-6.09124,13.60338-14.61773,19.78955-23.14251s12.81139-17.134,21.91728-22.42766,21.35194-6.53521,29.84588-.30676c5.533,4.05727,8.67446,10.54879,11.27789,16.89687A205.37289,205.37289,0,0,1,466.12754,300.49608Z"/><path class="cls-15" d="M399.87924,514.43768c-12.7326,14.36908-30.70158,23.14306-49.0663,28.74011-43.0209,13.11155-94.29189,8.571-126.531-22.78745,12.68366-15.06325,27.6975-32.17566,44.41558-42.58155a95.21419,95.21419,0,0,1,73.29551-11.183C366.58286,473.00792,387.56239,492.21861,399.87924,514.43768Z"/><path class="cls-16" d="M340.28419,516.82032c6.72159-1.51266,13.37529-3.67051,19.23959-7.28651,5.3187-3.27953,9.84923-7.66734,14.33343-12.01849q.66415-.64482,1.3288-1.28941a83.64,83.64,0,0,0-29.69115-14.85747,95.21437,95.21437,0,0,0-73.29575,11.183,114.33219,114.33219,0,0,0-14.63844,11.01C282.25647,517.912,312.3666,523.10385,340.28419,516.82032Z"/><path class="cls-17" d="M478.91289,449.946a506.60935,506.60935,0,0,0-41.3825-89.29895c-10.65663-18.133-23.14339-36.26286-41.53324-46.46979-22.14957-12.29368-49.01468-11.11231-74.30173-9.59481l-50.09827,3.00643c-10.42517.62562-20.96305,1.27076-30.9585,4.29838-22.08515,6.68959-39.18919,24.27306-52.54154,43.09378a245.21547,245.21547,0,0,0-44.87858,140.09451c-.04186,13.99159,11.70262,26.01592,19.36781,37.72109,7.45483,11.38392,17.17646,22.3479,30.27307,26.04209,15.97722,4.50674,33.15144-3.02295,45.72987-13.85648s22.01287-24.81315,33.6049-36.69622,29.72186-21.1668,43.22429-21.81464c22.15739-1.0631,49.41235,12.50542,67.54164,29.30163,14.92734,13.82971,27.72537,32.69367,47.72963,36.424,22.05051,4.11194,43.6683-13.68471,50.80412-34.95S479.422,451.401,478.91289,449.946Z"/><path class="cls-3" d="M167.80967,404.14421c4.60624-34.35755,40.57667-58.00122,56.47226-88.80691,6.73677-13.05587-.85284-9.64113-2.177-14.31963a84.43105,84.43105,0,0,1-37.19481,7.07354c-6.14459-.24084-13.07666-15.12675-19.18335-14.39715-22.24089,2.65789-14.95925,34.72956-12.17862,49.99151,1.77122,9.72164,7.36642,22.614,9.13763,32.3356C164.11321,383.856,168.86131,396.30013,167.80967,404.14421Z"/><path class="cls-18" d="M255.18548,384.86639a31.04333,31.04333,0,0,0-1.221,10.25564c.42319,26.45414,15.83176,52.164,38.96174,65.00946a49.03839,49.03839,0,0,0,16.0495,5.89556c21.40865,3.35678,41.05191-12.773,53.65563-30.40094,11.782-16.47869,20.38952-38.56732,11.21173-56.62638C357.42977,346.70343,267.22229,348.44475,255.18548,384.86639Z"/><path class="cls-19" d="M262.58378,388.0746a27.27165,27.27165,0,0,0-1.07267,9.00962,67.9023,67.9023,0,0,0,34.228,57.111,43.08006,43.08006,0,0,0,14.09953,5.17927c18.80757,2.94894,36.06423-11.22111,47.13664-26.70731,10.35054-14.47659,17.91225-33.88151,9.84954-49.74646C352.40571,354.54833,273.15816,356.07809,262.58378,388.0746Z"/><path class="cls-20" d="M264.34206,415.20046a86.808,86.808,0,0,1,15.1843-1.33068c6.10178.00336,13.63142,1.81082,15.03163,7.74977.7955,3.37408-.90175,6.94455-3.43488,9.31109s-7.42137,3.79072-10.61282,5.14419c-1.25575.53256-2.66713,1.07114-3.94367.59054a5.228,5.228,0,0,1-2.009-1.672c-4.91439-5.81732-7.31833-12.40614-10.28136-19.42133"/><path class="cls-20" d="M367.70878,412.12638a97.99463,97.99463,0,0,0-16.13314-1.39136c-6.09876.19178-13.569,2.23088-14.78516,8.21024-.69093,3.397,1.11577,6.91339,3.72076,9.20058s7.53489,3.55976,10.7666,4.814c1.2716.49353,3.73441,2.05593,4.693,1.08551a16.0943,16.0943,0,0,0,1.488-2.06113c4.73242-5.9663,7.58219-12.38519,10.32719-19.48853"/><path class="cls-21" d="M165.72673,463.52823s34.83946-24.01153,74.88517-27.56414"/><path class="cls-21" d="M163.52545,500.69583s42.11762-42.17226,81.20163-51.59145"/><path class="cls-21" d="M187.641,520.89552s20.85538-42.86781,59.24559-58.62064"/><path class="cls-21" d="M471.71936,449.48013s-35.56428-22.92429-75.7006-25.23866"/><path class="cls-21" d="M475.06727,486.562s-43.39975-40.85163-82.756-49.05946"/><path class="cls-21" d="M451.587,507.49674s-22.16912-42.20338-61.02745-56.76326"/><circle class="cls-9" cx="253.92509" cy="416.21583" r="1.20352"/><circle class="cls-9" cx="255.12861" cy="428.19359" r="1.20352"/><circle class="cls-9" cx="236.23441" cy="443.48985" r="1.20352"/><circle class="cls-9" cx="244.65903" cy="431.80414" r="1.20352"/><circle class="cls-9" cx="243.45551" cy="421.57341" r="1.20352"/><circle class="cls-9" cx="237.43793" cy="428.19359" r="1.20352"/><circle class="cls-9" cx="259.92902" cy="438.67579" r="1.20352"/><circle class="cls-9" cx="247.51069" cy="441.08282" r="1.20352"/><circle class="cls-9" cx="239.84496" cy="456.00708" r="1.20352"/><circle class="cls-9" cx="262.33606" cy="448.36961" r="1.20352"/><circle class="cls-9" cx="252.72158" cy="452.34151" r="1.20352"/><circle class="cls-9" cx="377.57939" cy="450.92527" r="1.20352"/><circle class="cls-9" cx="376.96426" cy="435.49427" r="1.20352"/><circle class="cls-9" cx="392.86304" cy="424.85477" r="1.20352"/><circle class="cls-9" cx="386.84546" cy="435.33697" r="1.20352"/><circle class="cls-9" cx="388.04897" cy="445.56769" r="1.20352"/><circle class="cls-9" cx="394.06656" cy="438.94752" r="1.20352"/><circle class="cls-9" cx="369.16843" cy="443.22864" r="1.20352"/><circle class="cls-9" cx="382.21925" cy="423.65125" r="1.20352"/><circle class="cls-9" cx="391.65952" cy="411.13403" r="1.20352"/><circle class="cls-9" cx="376.96426" cy="407.86893" r="1.20352"/><circle class="cls-9" cx="384.62628" cy="414.23783" r="1.20352"/><path class="cls-9" d="M161.86621,358.06889l3.7267-5.19526a8.024,8.024,0,0,0,3.0194,3.22659,9.41614,9.41614,0,0,1,2.73227-4.71973l1.51842,2.15785a12.17682,12.17682,0,0,0,1.25157-4.22062,4.91662,4.91662,0,0,1,3.11807,2.55872,9.2489,9.2489,0,0,1,7.5283-8.65485,3.56591,3.56591,0,0,0-.27748,3.42349l9.54708-9.28927a5.78674,5.78674,0,0,1,.496,3.967,39.5092,39.5092,0,0,1,5.38007-8.19154l1.46934,2.4798c1.60806-6.1982,7.08213-10.44855,11.68713-14.898s8.87177-10.67077,7.07724-16.81757c-14.6916-3.53128-29.16364,5.93391-44.15081,7.85691-3.93043.50431-7.93812.48786-11.79677,1.38977C144.19726,317.81594,155.93189,345.68383,161.86621,358.06889Z"/><path class="cls-22" d="M178.87915,428.92239l5.77542,4.32667,19.10976-38.75938c7.02162-14.24159,14.13686-28.62857,24.43236-40.94718s24.22629-22.56164,40.45777-25.70681c-28.44317,7.26318-43.77039,35.74045-55.67662,61.31138q-13.0554,28.039-26.11082,56.07807l-8.80718-6.1012c.11713.08114-29.48659,52.98195-32.48263,56.99C148.14336,472.57974,164.00762,447.42805,178.87915,428.92239Z"/><path class="cls-22" d="M351.69952,324.50018a58.92243,58.92243,0,0,0-33.85209-1.7793c-3.38972.83439-6.73452,1.97732-10.21632,2.22934a68.0471,68.0471,0,0,1-8.03559-.26876,50.27538,50.27538,0,0,0-20.94519,3.54316c6.30821-2.069,11.01295-1.59565,17.5499-.437a55.37547,55.37547,0,0,0,7.882,1.27354c4.56616.141,8.94379-1.60729,13.328-2.89108C328.30626,322.9795,340.61906,322.02518,351.69952,324.50018Z"/><path class="cls-22" d="M472.64,435.337c-12.01427-21.08985-24.18533-39.33985-40.76924-57.06267s-38.25385-31.79383-62.36429-34.58873c22.886,7.34219,42.9788,20.763,59.75987,37.96969l-4.56908-.80713C442.2401,395.75066,451.587,402.5525,462.41,422.44774,463.65844,424.74262,466.33828,428.59031,472.64,435.337Z"/><path class="cls-3" d="M214.34381,148.537c1.05542-.203,2.29041.74419,2.03992,1.78936s-2.23132.94977-2.15313-.12215c.72374-9.92116-5.25543-18.93857-10.88643-27.13887-22.97888-33.46366-46.063-69.4727-82.13849-88.08469-6.04693-3.11971-13.74187-5.58247-19.30117-1.65917-3.15328,2.22532-4.7668,5.99192-6.22932,9.56351-8.2321,20.10342-16.57865,40.70767-17.54,62.41-.90046,20.32789,4.74357,40.317,10.48707,59.83744,3.95924,13.45621,8.72132,27.93046,20.26865,35.89316,1.05454.72718.84546.2238,2.11485.052a28.81933,28.81933,0,0,0,3.104-9.97814l3.191,2.296,1.93284-9.04544a7.39743,7.39743,0,0,1,4.72065,4.89144,37.26211,37.26211,0,0,1,4.127-10.7329,5.87512,5.87512,0,0,0,6.35528,3.36014,19.76324,19.76324,0,0,0-2.34469-16.77986,44.36265,44.36265,0,0,1,9.684,9.17295,9.3689,9.3689,0,0,1,3.03577-6.40566,14.91508,14.91508,0,0,1,5.25661,5.047l2.715-5.09325a4.83179,4.83179,0,0,0,4.64754,2.39313l-2.537-6.22087c5.0508,1.1751,8.60274,2.53011,12.04153,6.41162a20.48229,20.48229,0,0,0,1.21328-8.97l4.14006,3.55838a3.39036,3.39036,0,0,1,4.69818-1.1384,48.97933,48.97933,0,0,0-12.88357-22.79139l19.078,15.02442.20327-4.62158L187.629,155.944a3.59838,3.59838,0,0,0,2.42161-3.13473l3.37153,1.96308.51812-10.03631a19.58042,19.58042,0,0,1,6.573,7.46186,4.72107,4.72107,0,0,0,.75928-4.52377l4.29857,5.86139a9.55428,9.55428,0,0,1,3.54735-3.93034C210.83894,150.51325,212.6233,147.62887,214.34381,148.537Z"/><path class="cls-3" d="M501.27741,189.65516a4.37683,4.37683,0,0,0,.96982,5.03353c5.52426-25.89182-4.42015-53.07681.27668-79.13144,2.44064-13.53891,8.78469-26.37416,9.24924-40.12345.7013-20.75624-14.67713-39.02311-27.04087-55.71a1.00922,1.00922,0,0,0,1.77075.00841,1.00923,1.00923,0,0,0-1.26485-1.23928c-26.38453,11.47992-52.91554,29.18383-61.55526,56.6299a224.21548,224.21548,0,0,1-36.686,70.0168c4.27885-1.9943,8.39981-3.19154,12.67867-5.18584a8.71393,8.71393,0,0,0,.51191,8.26544,2.7891,2.7891,0,0,0,3.27046-3.12279,12.78263,12.78263,0,0,1,2.5776,8.05342l2.41717-3.32091a7.60339,7.60339,0,0,0,1.55951,5.17825,14.7461,14.7461,0,0,0,6.71093-8.75919,51.5106,51.5106,0,0,1,5.21539,15.14367,12.3577,12.3577,0,0,0,2.90488-6.36857l3.08747,8.27985a3.49621,3.49621,0,0,1,2.39788-3.09938,9.98417,9.98417,0,0,0,2.09789,5.05881,42.64242,42.64242,0,0,0,5.20367-12.799c3.066,7.65455,6.81126,14.40633,7.17537,22.644a20.48643,20.48643,0,0,1,4.1982-7.21529,14.4539,14.4539,0,0,1,3.83478,8.55348l4.58482-7.2531a20.61907,20.61907,0,0,0,1.54682,8.404,30.94565,30.94565,0,0,0,3.74727-9.3246,40.47006,40.47006,0,0,1,5.42092,16.53142c2.943-3.28359,5.32914-5.85527,6.217-10.1744a53.93672,53.93672,0,0,1,2.837,12.07029,17.63666,17.63666,0,0,0,3.76184-8.21822,25.12823,25.12823,0,0,0,3.57031,10.7719,23.53665,23.53665,0,0,0,6.2257-12.03943l2.07131,12.40644a19.80079,19.80079,0,0,0,2.97189-7.58833l5.558,13.479A48.93249,48.93249,0,0,0,501.27741,189.65516Z"/><path class="cls-3" d="M151.38121,342.93628a109.23156,109.23156,0,0,1-30.984-81.45763c2.71386,14.68672,5.78757,28.243,11.06906,42.21338l.53882-4.09281,3.51814,9.89039,2.16359-4.00218c2.53428,14.03508,5.49019,28.93032,15.32256,39.26136C151.43439,343.04289,149.37079,340.06349,151.38121,342.93628Z"/><path class="cls-3" d="M461.975,320.47147a109.23156,109.23156,0,0,0,18.775-85.10494c-.5433,14.92546-1.60744,28.78508-4.79538,43.37623l-1.12986-3.9705-2.03837,10.29768-2.724-3.64391c-.46066,14.2546-1.213,29.42165-9.43387,41.076C461.93788,320.58469,463.545,317.33623,461.975,320.47147Z"/><path class="cls-10" d="M168.30738,343.68555c5.95479-.01288,11.41551-3.43735,15.66515-7.60872s13.225-11.27844,17.36755-15.55617c4.79885-4.95544,7.16112-3.652,11.61648-7.93609,1.97288-1.897,5.07556-3.44061,6.85421-5.52086,5.66943-6.63084,1.27477-2.779-.78247-4.58421-8.41225-2.01452-14.8442-9.25684-22.92292-12.34852s-17.40608-4.71752-25.20914-.98439c-8.921,4.268-17.20105,16.91576-17.34678,26.89272C153.4419,323.40288,159.7876,343.704,168.30738,343.68555Z"/><path class="cls-13" d="M222.64251,302.92759c-2.506-2.30969-9.68595-4.863-16.99108-11.104-9.06356-7.7432-19.06166-15.00584-30.87036-13.37487-12.363,1.70752-21.95559,13.169-23.88213,25.49982s2.72733,24.9922,10.15914,35.01645c-9.44649-12.74508-3.12494-42.31729,11.5071-48.89031C189.43551,282.49625,206.16631,304.26943,222.64251,302.92759Z"/><path class="cls-12" d="M212.53067,311.59407c-1.45518,4.28158-5.57369,5.48456-9.04446,7.66444-4.21956,2.65017-7.80939,6.86521-11.839,9.99555-18.88617,14.67019-37.28392-12.04852-31.46834-29.60778,2.83215-8.55125,11.16593-15.34343,20.17243-15.17611a26.92839,26.92839,0,0,1,9.32791,2.11808C199.03393,290.28921,215.84343,301.838,212.53067,311.59407Z"/><circle class="cls-7" cx="191.59516" cy="293.69406" r="3.94129"/><circle class="cls-7" cx="180.19259" cy="291.82362" r="1.72192"/><path class="cls-14" d="M196.5846,279.20663c-3.80155-2.458-10.79157-6.14675-15.163-7.323-11.08007-2.98143-23.29227,2.51968-30.36427,11.55537s-9.60644,20.94374-9.41682,32.41635c.07641,4.62322,1.52878,13.5056,3.6012,17.639.08209-14.1839-.90179-32.16486,6.31057-44.37845,2.90215-4.91457,6.97281-9.28248,12.13584-11.71532,6.537-3.08029,14.19519-2.71507,21.22808-1.05384,12.90239,3.04767,37.72635,26.58086,37.72635,26.58086S202.93436,283.31218,196.5846,279.20663Z"/><path class="cls-23" d="M135.96265,70.24925c4.63745,8.62031,5.2225,20.15892,7.06242,29.7728a23.75086,23.75086,0,0,0-9.22441-8.00144,33.83391,33.83391,0,0,1,6.21583,10.7387,3.858,3.858,0,0,1-5.45785-.33563c.03669,1.66651,1.5841,2.8385,2.9476,3.79657,1.36447.95832,2.8447,2.2849,2.65461,3.94093a1.9474,1.9474,0,0,1-2.1982,1.42831,13.82178,13.82178,0,0,1,3.33874,6.31254,19.1609,19.1609,0,0,1-11.46738-1.23035,42.74956,42.74956,0,0,1,12.29825,20.42309q-4.90662-3.46988-9.81421-6.93927,3.66747,6.9108,7.334,13.82137a11.61156,11.61156,0,0,1-7.73608.36422c6.727,7.46166,9.3035,17.23229,10.22108,27.421a9.31355,9.31355,0,0,1,2.56885-4.07266,14.91173,14.91173,0,0,1,5.25632,5.04693q1.35779-2.54656,2.7151-5.09339a4.83153,4.83153,0,0,0,4.64746,2.39329l-2.53692-6.22083c5.051,1.17509,8.60268,2.53,12.04147,6.41164a20.47847,20.47847,0,0,0,1.21343-8.97024q2.06956,1.77942,4.14008,3.55836a3.39035,3.39035,0,0,1,4.698-1.1384A48.97561,48.97561,0,0,0,163.997,140.88539q9.53956,7.51216,19.07864,15.02457.10149-2.31075.203-4.62174,2.12244,2.24465,4.24441,4.48881a3.59863,3.59863,0,0,0,2.42163-3.13459q1.31921.76823,2.63841,1.53621a159.65651,159.65651,0,0,0-6.02431-18.59055A150.4924,150.4924,0,0,0,135.96265,70.24925Z"/><path class="cls-23" d="M459.07675,161.47036a10.528,10.528,0,0,1-.29347-8.68367,15.05523,15.05523,0,0,1-3.0205,5.45284,94.21449,94.21449,0,0,1,.65651-20.30708,5.42576,5.42576,0,0,1-4.85947,3.1627q-.03573-6.94761-.07-13.895a6.72147,6.72147,0,0,1-3.39162,3.14818,64.5387,64.5387,0,0,1,1.646-17.212,3.94859,3.94859,0,0,1-3.383,3.36518,61.10028,61.10028,0,0,1,1.8828-12.38735l-7.36352,7.94523a225.48139,225.48139,0,0,1-1.27489-24.046q-3.84684,11.52015-7.69368,23.04054c-.26251.78656-.63173,1.68008-1.4283,1.91091a1.02947,1.02947,0,0,1-1.16961-.84493q-.42091,1.08123-.84231,2.16246l-.90328-3.5131q-1.99381,3.12077-3.98858,6.24107-.4931-4.36494-.98666-8.73012c-3.4769,14.57816-12.35495,28.34736-16.7723,42.66849a12.51613,12.51613,0,0,1,.18485,2.42616q1.20843-1.66044,2.41734-3.32088a7.603,7.603,0,0,0,1.55932,5.17819,14.743,14.743,0,0,0,6.71083-8.75918,51.50882,51.50882,0,0,1,5.21535,15.14366,12.3594,12.3594,0,0,0,2.9052-6.36852q1.54359,4.13984,3.08719,8.27991a3.49585,3.49585,0,0,1,2.39781-3.09933,9.99053,9.99053,0,0,0,2.09767,5.05884,42.62988,42.62988,0,0,0,5.20391-12.799c3.06575,7.65437,6.81135,14.40617,7.17534,22.64392a20.486,20.486,0,0,1,4.1982-7.21536,14.455,14.455,0,0,1,3.83516,8.55361q2.29181-3.62673,4.58457-7.25322a20.62371,20.62371,0,0,0,1.54693,8.404,30.84315,30.84315,0,0,0,3.03193-7.01859q.34659-5.39187.69271-10.78325A3.51111,3.51111,0,0,1,459.07675,161.47036Z"/><path class="cls-4" d="M383.14481,234.29763c-.70356.08924-.524,1.321.16049,1.50667a2.34668,2.34668,0,0,0,1.9217-.70716,148.69382,148.69382,0,0,0,40.83116-49.338l-9.63943,5.91074a14.85161,14.85161,0,0,1,1.22985-6.73878,3.43591,3.43591,0,0,1-3.68034,1.91286c-.05316-3.67078-2.333-7.08977-2.38618-10.76055a69.48107,69.48107,0,0,0-14.34777,16.92507,12.71437,12.71437,0,0,0-2.17983-11.13039l-9.50143,8.8562a89.753,89.753,0,0,0-.12625-12.63952,50.36717,50.36717,0,0,0-9.73519,7.59414,24.50854,24.50854,0,0,1,3.614-15.5233c-5.144,5.03477-11.82139,7.80927-16.96537,12.844a36.96791,36.96791,0,0,1-2.97959-25.324,60.40875,60.40875,0,0,0-17.5051,18.68182,10.70071,10.70071,0,0,0-1.41964-9.26179,30.85,30.85,0,0,0-8.76134,14.92022l-4.37592-9.04248a25.88387,25.88387,0,0,0-6.11,8.63658l-2.84449-8.48125a17.57353,17.57353,0,0,0-7.06919,7.21054c-2.71147-4.253-5.60635-8.49964-3.96115-13.2676a45.363,45.363,0,0,0-12.85822,14.97838,23.44058,23.44058,0,0,1-4.54784-9.66232l-6.06617,9.11433a79.6093,79.6093,0,0,1-2.70942-16.41556,88.60459,88.60459,0,0,0-7.54626,15.52908l-3.19882-6.40129a15.83438,15.83438,0,0,0-4.32806,10.12247l-4.52026-8.00272a23.83866,23.83866,0,0,0-3.64572,9.04734c-1.68766-5.19529-5.97139-9.12138-9.18312-13.54q-4.43976,8.355-8.11529,17.08705L232.99334,181.63a18.90026,18.90026,0,0,0-1.35425,9.34274,29.62257,29.62257,0,0,1-10.37391-9.46193,13.94881,13.94881,0,0,0-.21891,12.36911c-5.57355-5.15337-11.65964-6.21057-19.02107-8.0629A70.87062,70.87062,0,0,1,208.174,199.2558q-7.918-5.18553-15.48567-10.88127a15.34145,15.34145,0,0,0-1.82575,8.41014,4.922,4.922,0,0,0-4.61137-.96851l-.42968,4.64974-4.66465-2.01327c1.35135,1.308-.09147,3.83106-1.95373,4.09358s-3.60677-.88407-5.09411-2.03506l-.86532,9.04089c-3.36562-2.09251-6.42477-2.34772-9.79039-4.44023A107.60811,107.60811,0,0,0,194.469,243.89846l-1.94954-2.637c-4.20065-5.682-2.25852-12.78456.93826-19.08626l6.11125,5.42311a11.833,11.833,0,0,1-2.09382-9.78964l5.6648,2.57155.508-9.61585a7.692,7.692,0,0,1,8.44312.93905c1.565,1.35352,3.75065.63418,5.45457,1.80806a5.03542,5.03542,0,1,1,9.106-4.30139l2.86333-5.87486,5.24086,2.46306c-.05035-3.27072,5.2592-4.81847,6.97423-2.033l2.40924-3.38956a7.74924,7.74924,0,0,1,3.82375,3.92709c1.675-4.07208,6.48961-6.634,9.40241-9.936l5.50991,12.00192a18.09669,18.09669,0,0,1,1.81053-6.37064c.4773-.9599,1.19343-1.97978,2.26028-2.08487,1.27446-.12553,2.23585,1.1,2.86093,2.2177a33.40966,33.40966,0,0,1,3.04982,7.43677,24.45206,24.45206,0,0,1,6.17867-9.54059,18.485,18.485,0,0,1,6.96479,10.843,28.848,28.848,0,0,1,4.34306-7.95908,29.49333,29.49333,0,0,1,3.21635,11.64361,25.08881,25.08881,0,0,1,10.01869-14.57737c.74948,1.86594,2.831,2.63,3.58047,4.496a41.77753,41.77753,0,0,1,14.70673-12.70746,10.28208,10.28208,0,0,1,1.78443,7.96748,18.03885,18.03885,0,0,1,6.2843-7.38927l3.06519,8.89109a25.45147,25.45147,0,0,1,12.55686-13.30988l2.94215,11.64662,5.01021-5.62257a3.14678,3.14678,0,0,1,1.91077-1.28017c1.37442-.11188,2.18681,1.47064,2.61662,2.78091l3.14,9.57234a9.21256,9.21256,0,0,1,6.52129-7.57334l1.91779,8.76715a41.19819,41.19819,0,0,1,7.15364-6.13608,10.05725,10.05725,0,0,1-1.5956,12.28747c4.55879-3.758,10.74585-6.04057,15.30464-9.79854l-.27022,9.50351a7.30324,7.30324,0,0,1,5.45867-5.24672,9.56246,9.56246,0,0,1-.52668,6.43772l5.31446-5.13635a128.286,128.286,0,0,0-18.828,28.69566C380.46616,233.68771,382.63779,235.83942,383.14481,234.29763Z"/></svg>