<svg xmlns="http://www.w3.org/2000/svg" xmlns:xlink="http://www.w3.org/1999/xlink" viewBox="0 0 752.03712 904.11356"><defs><style>.cls-1{fill:url(#未命名漸層_58);}.cls-2{fill:#1a1a1a;}.cls-3{fill:#94673d;}.cls-4{fill:#070001;}.cls-5{fill:#313434;}.cls-6{fill:#a87e53;}.cls-7{fill:#333;}.cls-8{fill:#1b1d1d;}.cls-9{fill:#262727;}.cls-10,.cls-14{fill:none;}.cls-11{fill:#c59d82;}.cls-12{fill:#2e180a;}.cls-13{fill:#5e432a;}.cls-14{stroke:#414041;stroke-linecap:round;stroke-linejoin:round;stroke-width:0.25px;}.cls-15{fill:#8b603c;}.cls-16{fill:#202224;}.cls-17{fill:#343535;}.cls-18{fill:#515359;}.cls-19{fill:#1a1b1b;}.cls-20{fill:url(#未命名漸層_31);}.cls-21{fill:#f7f7f7;}.cls-22{fill:#141515;}.cls-23{fill:url(#未命名漸層_31-2);}</style><radialGradient id="未命名漸層_58" cx="359.34158" cy="759.91183" fx="327.0798093518872" fy="747.7661351740094" r="474.22482" gradientTransform="translate(0 378.87726) scale(1 0.50142)" gradientUnits="userSpaceOnUse"><stop offset="0" stop-color="#9f9e9f"/><stop offset="0.99577" stop-color="#f6f7f5" stop-opacity="0"/></radialGradient><linearGradient id="未命名漸層_31" x1="-0.08155" y1="-60.92233" x2="-28.90836" y2="-20.22828" gradientTransform="translate(230.23713 224.29535) rotate(-24.00251)" gradientUnits="userSpaceOnUse"><stop offset="0.07143" stop-color="#060d28"/><stop offset="0.51534" stop-color="#08365f"/><stop offset="1" stop-color="#030720"/></linearGradient><linearGradient id="未命名漸層_31-2" x1="643.179" y1="261.16431" x2="614.35219" y2="301.85836" gradientTransform="matrix(-0.85614, -0.51674, -0.51674, 0.85614, 1055.37255, 275.19202)" xlink:href="#未命名漸層_31"/></defs><title>chila</title><g id="tail"><ellipse class="cls-1" cx="312.59573" cy="781.46577" rx="312.59573" ry="122.64779"/><path class="cls-2" d="M751.53233,599.37136l.02129-.12651c2.81837-16.81848-7.01456-32.80489-20.90071-13.06087q2.79994-3.5849,5.91281-6.90158C666.21144,654.24335,597.75907,713.47859,492.20578,732.079c-34.46691,6.07368-69.56935,7.41451-104.54214,8.74194l-73.39856,2.78592c75.468,38.08288,165.04319,50.15527,245.30373,23.62284a324.20592,324.20592,0,0,0,118.7083-70.76425c22.63282-21.11823,46.76587-42.63477,63.52581-68.95751C746.1185,620.73,749.79852,609.62911,751.53233,599.37136Z"/></g><g id="body"><path class="cls-2" d="M319.47633,768.323c.90289-.9662.58937-2.33537-.09039-3.5699-.39778.58349-.84875,1.12461-1.23523,1.71681C316.33975,765.91463,318.18225,769.70672,319.47633,768.323Z"/><path class="cls-3" d="M319.38594,764.75306c.67976,1.23453.99328,2.6037.09039,3.5699-1.29408,1.38376-3.13658-2.40833-1.32562-1.85309.38648-.5922.83745-1.13332,1.23523-1.71681a9.42523,9.42523,0,0,0-1.01634-1.48238c-31.38226-37.45535-84.23193-53.96957-132.37038-45.57736-30.1522,5.25659-58.14557,19.55384-81.37357,39.5876a236.42415,236.42415,0,0,0,36.52,47.13764c5.66119,5.63883,333.08739-1.22982,333.08739-1.22982,24.81207-17.38629,45.12192-41.74549,59.007-69.181-23.43089-14.10472-49.45042-23.52457-76.65858-26.08519C405.80732,703.14375,348.06,722.66346,319.38594,764.75306Z"/><path class="cls-4" d="M543.48348,627.92118c-7.28714-10.954-20.98114-18.9-33.583-15.12058,10.36582-64.8311-1.47955-134.03754-35.31628-190.30129,1.61748,2.30642,2.49684-3.80857.16005-5.382-2.33631-1.5737-5.44134-.02283-7.80308,1.513-16.62014,10.81044-33.31043,21.65948-51.29244,30.01168-42.72535,19.84546-91.17308,24.75722-138.1648,21.43164-46.99219-3.32558-96.9496-13.31222-142.71832-24.47124a284.50058,284.50058,0,0,0-27.34326,167.11636c-13.11027-2.02-25.83358,7.85863-31.01837,20.06789-5.1848,12.209-4.38359,26.08684-2.38951,39.2004a238.52822,238.52822,0,0,0,30.61118,85.29394c23.228-20.03376,51.22137-34.331,81.37357-39.5876,48.13845-8.39221,100.98812,8.122,132.37038,45.57736a9.42523,9.42523,0,0,1,1.01634,1.48238c28.67406-42.0896,86.42138-61.60931,137.19553-56.83053,27.20816,2.56062,53.22769,11.98047,76.65858,26.08519a191.93582,191.93582,0,0,0,16.889-48.077C554.12892,666.3465,554.555,644.56345,543.48348,627.92118Z"/><path class="cls-4" d="M83.5304,542.51519a75.79084,75.79084,0,0,0,27.53382-11.03282L91.93829,566.75761a27.413,27.413,0,0,0,15.88433-10.86413,185.26271,185.26271,0,0,1-29.80881,44.98585,100.5365,100.5365,0,0,0,29.60267-22.07779c-2.8568,13.3029-9.39366,25.408-18.31563,33.91715,10.49081-1.5025,19.156-11.4549,23.60431-23.047s5.34857-24.67363,5.66406-37.44835c.34067-13.79441,19.10593-65.43465,7.58677-72.21965C121.40857,490.36156,95.01377,540.429,83.5304,542.51519Z"/><path class="cls-4" d="M536.49511,528.80467a75.79059,75.79059,0,0,1-27.53382-11.03282l19.12593,35.27524A27.413,27.413,0,0,1,512.20288,542.183a185.26325,185.26325,0,0,0,29.80881,44.98586A100.5368,100.5368,0,0,1,512.409,565.091c2.8568,13.30291,9.39366,25.408,18.31563,33.91715-10.49081-1.5025-19.156-11.4549-23.60431-23.047s-5.34857-24.67363-5.66406-37.44834c-.34067-13.79442-19.10594-65.43466-7.58678-72.21966C498.61694,476.651,525.01173,526.71852,536.49511,528.80467Z"/><path class="cls-4" d="M302.50075,741.15329a122.22314,122.22314,0,0,1-10.91242,17.44425l-2.14805-12.26305a24.46207,24.46207,0,0,0-7.93237,8.485,80.4348,80.4348,0,0,0-1.6697-19.48622L260.385,755.95041a27.99362,27.99362,0,0,0-6.45147-20.34694,41.27811,41.27811,0,0,0-10.45908,8.73193,20.40487,20.40487,0,0,0-2.4683-9.6315c-4.0472.72724-7.49729,3.42411-8.63719,6.7515l-3.31939-11.3312a15.30428,15.30428,0,0,0-8.20653,7.028,36.88925,36.88925,0,0,0-2.78967-13.82759,83.77843,83.77843,0,0,1-18.34,26.7166,23.38177,23.38177,0,0,0-6.99352-13.81536,8.63117,8.63117,0,0,0-4.929,5.48568c-.89281-2.05062-4.59311-2.23923-6.60706-.85114s-2.75458,3.65517-3.386,5.77261l-3.76182-7.55267a22.24345,22.24345,0,0,0-8.332,7.06572,19.68341,19.68341,0,0,0-5.06213-9.49066,93.33061,93.33061,0,0,0-13.10339,18.12348,16.21561,16.21561,0,0,0-4.73375-7.74417,78.30673,78.30673,0,0,0-10.40222,11.7364,9.49881,9.49881,0,0,0-4.54553-8.18645q-6.74443,8.56435-13.48886,17.1287a18.91308,18.91308,0,0,0-7.08368-10.68552c2.05617-14.49484,15.94676-27.51653,31.144-34.69951,49.66208-23.47278,116.89817-19.62093,159.93466,11.6895,1.06977.77829,2.21134,1.72928,2.17911,2.91463S303.24389,742.1631,302.50075,741.15329Z"/><path class="cls-4" d="M531.789,730.36857a122.22321,122.22321,0,0,1-10.91243,17.44425l-2.148-12.26305a24.462,24.462,0,0,0-7.93236,8.485,80.4353,80.4353,0,0,0-1.6697-19.48622l-19.45325,20.61716a27.99358,27.99358,0,0,0-6.45148-20.34694,41.27841,41.27841,0,0,0-10.45907,8.73192,20.40494,20.40494,0,0,0-2.4683-9.63149c-4.0472.72724-7.49729,3.42411-8.63719,6.7515l-3.3194-11.33121a15.30435,15.30435,0,0,0-8.20652,7.028,36.88925,36.88925,0,0,0-2.78967-13.82759,83.77843,83.77843,0,0,1-18.34,26.7166,23.38173,23.38173,0,0,0-6.99353-13.81536,8.63115,8.63115,0,0,0-4.929,5.48568c-.89281-2.05062-4.59312-2.23923-6.60706-.85114s-2.75458,3.65517-3.38605,5.77261l-3.76182-7.55267a22.24356,22.24356,0,0,0-8.332,7.06572,19.68339,19.68339,0,0,0-5.06212-9.49066,93.33061,93.33061,0,0,0-13.10339,18.12348,16.21561,16.21561,0,0,0-4.73375-7.74417,78.30778,78.30778,0,0,0-10.40223,11.73639,9.49876,9.49876,0,0,0-4.54553-8.18644l-13.48885,17.1287a18.91313,18.91313,0,0,0-7.08368-10.68552c2.05617-14.49484,15.94676-27.51653,31.144-34.69951,49.66208-23.47278,116.89817-19.62093,159.93466,11.6895,1.06976.77829,2.21134,1.72928,2.17911,2.91463S532.53211,731.37838,531.789,730.36857Z"/><path class="cls-5" d="M443.45889,347.63217c.25266.44449.49971.89834.75237,1.34377a1.67705,1.67705,0,0,0,.99567-1.10515C445.44274,346.68516,442.86,346.58129,443.45889,347.63217Z"/><path class="cls-6" d="M504.0674,603.32615C493.26477,563.083,493.91981,520.8719,491.00393,479.2569c-18.35249-30.68324-49.92753-53.63695-85.3692-57.848-42.475-5.04572-87.80971,19.0721-104.16338,58.59471-11.832-31.20354-40.54915-55.4009-73.30889-61.767-41.14243-7.99529-82.57122,11.82169-111.85734,42.75947a305.60482,305.60482,0,0,0,.76734,87.07044c7.21672,45.91678,24.77,93.21477,10.4882,137.44715a97.68563,97.68563,0,0,0,17.36992-24.65028,326.6798,326.6798,0,0,1-3.73,80.34875A45.48569,45.48569,0,0,0,156.75882,722.171a116.62193,116.62193,0,0,1-7.15122,49.076,35.33524,35.33524,0,0,0,10.87562-12.71911c1.90525,14.42035-.28448,38.06158-6.24538,51.329-4.43533,9.87188-11.00212,19.15055-12.15369,29.91213-3.96923,37.0928,50.55139,24.61614,69.40649,20.69477,3.14795-.65411,6.367-1.3363,9.107-3.01883,2.99636-1.84161,5.18234-4.73691,7.09695-7.68742,12.25121-18.87465,16.00368-51.75107,10.05026-73.45178,3.07684,6.49618,5.95529,8.69151,11.23121,13.57441a160.416,160.416,0,0,0-15.86332-79.16125,66.14477,66.14477,0,0,1,19.72434,17.97069,220.54894,220.54894,0,0,0-14.7722-73.95177,56.22732,56.22732,0,0,1,8.64847,6.776q-3.54006-20.87113-7.0801-41.74134c-.83285-4.91471-1.06118-11.17694,3.322-13.55194,4.01262-2.17382,8.77012.64849,12.67231,3.01414,16.80471,10.19063,37.23837,13.0644,56.84106,11.6598,19.60269-1.40367,38.67011-6.80779,57.57658-12.1829a5.4084,5.4084,0,0,0,2.37313-1.414c2.45923,19.82353.04118,40.65864-7.69771,59.07382l11.80765-10.2187q-7.74543,26.81286-15.489,53.62572a47.48516,47.48516,0,0,0,13.48269-11.8797,160.44681,160.44681,0,0,1-13.20944,57.89755,56.49733,56.49733,0,0,0,21.24965-25.1949,245.0862,245.0862,0,0,0,2.85413,94.86267c1.718,7.48973,3.859,15.05057,8.18038,21.4084,17.64916,25.9608,53.2461,19.31923,78.95747,13.35389,8.47814-1.967,13.07466-11.85257,11.70843-20.44956-1.36624-8.59606-6.367-16.09258-10.12887-23.94189-13.00919-27.146-11.23682-58.73882-9.18373-88.76982a61.75256,61.75256,0,0,0,19.96577,18.797,169.64412,169.64412,0,0,1-9.6984-53.43108,61.16843,61.16843,0,0,0,25.92855,8.93669,127.56787,127.56787,0,0,1-19.78049-61.64722,78.61518,78.61518,0,0,1,17.26324,20.88564,503.16272,503.16272,0,0,0-8.48564-67.80557C496.07959,595.79314,499.76094,598.26078,504.0674,603.32615Z"/><path class="cls-7" d="M228.16246,418.23665c32.75974,6.3661,61.47691,30.56346,73.30889,61.767,16.35367-39.52261,61.68839-63.64043,104.16338-58.59471,35.44167,4.211,67.01671,27.16472,85.3692,57.848-.1909-2.71937-.34811-5.4453-.57457-8.15906-3.64018-43.728-24.50617-83.95243-46.2181-122.1219a5.24251,5.24251,0,0,1-1.94268.54088,1433.75818,1433.75818,0,0,1-231.80543,1.46824c-18.126-1.35594-36.32505-2.91308-53.90271-7.5405-21.3526,35.85248-34.83342,76.18266-40.25532,117.55156C145.59124,430.05834,187.02,410.24136,228.16246,418.23665Z"/><path class="cls-7" d="M272.93473,426.39085l2.79951-2.71555a67.03773,67.03773,0,0,1-16.65732,37.117,31.38758,31.38758,0,0,0-1.06368-23.72746,4.38935,4.38935,0,0,0-2.41922-2.63926c-1.3012-.36783-2.6224.43534-3.70213,1.24935a44.079,44.079,0,0,0-11.55925,13.04379l-.18562-15.84233a12.69525,12.69525,0,0,0-10.71663,8.13379l-1.15667-13.25666a44.275,44.275,0,0,0-12.04518,13.331,48.46176,48.46176,0,0,0,.9336-17.78153l-27.438,23.52982a21.98028,21.98028,0,0,0-2.25394-20.29542A131.62035,131.62035,0,0,0,174.955,442.083l-.13856-15.37165L154.569,447.78955l2.136-9.6732a98.65359,98.65359,0,0,1-22.52614,20.37778,55.49393,55.49393,0,0,0,5.2-20.678c17.22606-16.981,41.46318-30.67241,65.646-31.20365s48.14069,6.8378,69.22254,18.69729a1.19528,1.19528,0,0,0,.995-1.9434C274.52206,422.70064,272.66447,425.44791,272.93473,426.39085Z"/><path class="cls-7" d="M332.30965,438.07151l-2.79952-2.71555a67.03775,67.03775,0,0,0,16.65733,37.117,31.38753,31.38753,0,0,1,1.06367-23.72746,4.3894,4.3894,0,0,1,2.41922-2.63926c1.3012-.36782,2.62241.43534,3.70213,1.24936a44.07873,44.07873,0,0,1,11.55925,13.04379l.18562-15.84233A12.69529,12.69529,0,0,1,375.814,452.6908l1.15666-13.25666a44.27513,44.27513,0,0,1,12.04519,13.331,48.46153,48.46153,0,0,1-.93361-17.78153l27.438,23.52982a21.98021,21.98021,0,0,1,2.25394-20.29541,131.62118,131.62118,0,0,1,12.51521,15.54565L430.428,438.392l20.24744,21.07818-2.136-9.67321a98.65287,98.65287,0,0,0,22.52613,20.37778,55.49426,55.49426,0,0,1-5.2-20.678c-17.226-16.981-41.46318-30.67242-65.646-31.20365s-48.1407,6.8378-69.22254,18.69729a1.19528,1.19528,0,0,1-.995-1.9434C330.72232,434.38129,332.5799,437.12857,332.30965,438.07151Z"/><path class="cls-4" d="M522.41026,113.1515c-2.46282-13.22051-11.30156-26.129-24.12689-28.96807a29.62838,29.62838,0,0,1,15.81975,3.32872A70.59194,70.59194,0,0,0,489.924,65.589a19.25167,19.25167,0,0,1,17.536,3.06243c1.28606-8.48561-4.1229-16.57476-10.78482-21.775-12.19809-9.52116-35.84862-3.05215-35.84862-3.05215q11.44926-8.91261,22.89821-17.8249A53.72423,53.72423,0,0,0,427.067,28.28663c2.14495-5.88537,4.16845-7.90415,9.88465-12.15568-10.02855.64625-15.99583,6.28869-24.813,10.84792a12.3849,12.3849,0,0,1,5.71165-9.0079,82.61328,82.61328,0,0,1-21.38324,4.62713q2.96331-9.04948,5.92691-18.099A44.32555,44.32555,0,0,1,368.2006,20.74905c-13.66357-.10465-26.41178-6.62816-39.73167-9.75475-20.11874-4.72243-48.71888-2.50806-66.61435,8.03869a77.87212,77.87212,0,0,0-36.98591-9.64855c5.57632,4.40386,1.73812,6.71007,4.35638,8.788a71.397,71.397,0,0,1-22.31256-3.68127,42.77851,42.77851,0,0,0,8.98143,9.10539C196.26853,26.51544,182.28618.71944,162.468,0a89.71986,89.71986,0,0,1,25.474,25.65835,251.73516,251.73516,0,0,0-46.32255-6.04669Q147.17487,25.90019,152.73,32.1884a49.17484,49.17484,0,0,1-33.28531-4.77164c1.712,3.57819-1.11179,8.03309-4.758,9.41061-3.64594,1.37783-7.68991.58115-11.494-.23078l-2.68687,5.06408c1.0875-1.32831-.11051-3.77065-1.79854-3.666-8.15078,1.95618-16.5159,4.00736-23.40765,8.88177-6.89174,4.87473-12.07087,13.28934-10.78452,21.775a19.25139,19.25139,0,0,1,17.536-3.06243,70.59019,70.59019,0,0,0-24.17941,21.9232,29.62838,29.62838,0,0,1,15.81975-3.32872C60.86606,87.02255,52.02732,99.931,49.56451,113.1515s.16273,26.81661,2.7822,40.005c1.91026,9.61709,7.19444,21.82291,16.64068,20.26507-3.7689-9.7968.05344-21.93472,8.49264-27.86307.01336.12147.01093.24106.02489.36284,11.15249,3.35083,22.92614,22.37261,14.04034,30.055a59.08292,59.08292,0,0,1-25.936,13.00841A38.78011,38.78011,0,0,0,88.9437,200.24288a63.00077,63.00077,0,0,0-17.7804,3.82921,27.25419,27.25419,0,0,0,18.24947,7.07259q-7.58107,4.0452-15.16184,8.08977a23.52528,23.52528,0,0,0,19.2644,8.95185l-18.01478,8.08478a23.15026,23.15026,0,0,0,20.21164,4.809,41.51423,41.51423,0,0,1-32.7276,19.6674,53.36469,53.36469,0,0,0,38.33663,8.42395Q93.349,272.955,85.3773,276.73892a49.48921,49.48921,0,0,0,21.1352,6.10494q-9.22917,6.12922-18.45835,12.25907a21.16818,21.16818,0,0,0,21.73177,3.79184q-6.90844,6.33992-13.81658,12.68015a47.37242,47.37242,0,0,0,21.30582.118,58.30422,58.30422,0,0,0-13.19663,12.872,80.03314,80.03314,0,0,0,27.72728-3.06866q-4.49754,4.14237-8.9957,8.28411a19.84306,19.84306,0,0,0,19.01909-2.3296q-7.092,7.42514-14.18455,14.8506a27.48684,27.48684,0,0,0,28.27468-4.81088q-6.41478,6.8935-12.83018,13.787a24.65561,24.65561,0,0,0,17.16166-7.10342,37.15915,37.15915,0,0,0-7.79131,17.34371,32.72389,32.72389,0,0,0,16.25723-4.46331l-5.27537,10.77287q5.01807-1.615,10.03584-3.22968-4.03806,7.04767-8.0761,14.096a52.926,52.926,0,0,0,14.23222-3.90395q-1.904,4.062-3.80838,8.124c2.526.109,9.38586-1.11786,11.05613.34693,30.76421,22.5626,71.30146,33.603,109.0995,34.86467,33.472,1.11746,33.472,1.11746,52.25795-4.70842,22.63833-7.02058,48.72283-21.32927,66.79256-37.51877a1.83675,1.83675,0,0,1-1.78457-1.343c-.42443-2.08294,1.40143-3.86409,3.04148-5.16718l15.3525-12.19772q-6.903.94882-13.806,1.897a116.13478,116.13478,0,0,0,44.25078-20.48526q-8.14122,2.90578-16.28213,5.81156a250.05708,250.05708,0,0,0,38.42225-30.48325,15.0232,15.0232,0,0,1-15.52556.58894,109.36382,109.36382,0,0,0,29.333-27.38126,24.12663,24.12663,0,0,1-14.86613,3.0942q12.13144-15.039,24.26259-30.07805a22.50833,22.50833,0,0,1-15.91842,1.72976q5.88335-6.30955,11.767-12.61879a40.25739,40.25739,0,0,1-18.13592,1.9705,107.48037,107.48037,0,0,1,20.06621-25.74679,19.86494,19.86494,0,0,1-13.71457,1.91912,37.86244,37.86244,0,0,1,15.87682-16.94133q-7.908-.13735-15.8164-.275a37.39691,37.39691,0,0,1,10.49943-15.97928,14.38,14.38,0,0,1-14.14143-.8356q6.78366-8.40013,13.56763-16.80025-6.14292-2.44281-12.28613-4.885c-5.4961-8.49713-4.01908-20.27814,2.51989-27.84686.61054.30957,1.2232.61416,1.80916.97482,9.15175,5.63278,13.38273,18.41788,9.46506,28.60212,9.446,1.55784,14.73013-10.648,16.64038-20.26507C522.24752,139.96811,524.87307,126.372,522.41026,113.1515Z"/><path class="cls-8" d="M335.067,236.69694l-1.25184-8.24155s-.36678-.34934-1.02085-.92589l.58182.07626q.07647-2.73207.153-5.46467a1.08637,1.08637,0,0,1-1.34076,1.12952,1.20191,1.20191,0,0,1-.4023-1.78889,2.23587,2.23587,0,0,1-1.82884,1.606,3.55827,3.55827,0,0,1-.41051-3.18361,3.7354,3.7354,0,0,1-2.98041,2.71556l-.02851-.02071a15.82046,15.82046,0,0,1,.858-9.28118q-2.15141,2.94-4.30256,5.88005a10.88051,10.88051,0,0,1-.97277-5.43008,2.5248,2.5248,0,0,1-2.90406,1.91521q-.11091-1.97025-.22205-3.94022a8.81208,8.81208,0,0,1-3.12417,3.50439,5.70164,5.70164,0,0,1-1.25257-4.21957,3.04241,3.04241,0,0,1-2.3923,2.02343q-1.01952-3.38777-2.03905-6.77527a10.89141,10.89141,0,0,1-3.835,4.92192q-1.1993-3.37323-2.39834-6.74619-1.50192,2.2399-3.00408,4.47929-1.7944-2.019-3.58833-4.03823-1.31128,2.12709-2.62257,4.25444-.30734-.04089-.61613-.07889l-2.62691-2.85786a6.5944,6.5944,0,0,1-1.12693,2.54076c-.506-.02359-1.01022-.05137-1.52053-.05923q-1.86-3.12282-3.71952-6.24616-1.23989,3.28125-2.48,6.56222c-.80195.09461-1.60945.23272-2.41743.37266q-.96444-.92222-1.92887-1.8447-1.08476,1.37664-2.16952,2.753c-.28753.07784-.57361.13838-.86138.2225q-1.308-1.31886-2.6158-2.63773a23.967,23.967,0,0,1-2.581,4.52882c-.20489.0878-.41027.18607-.61517.27753q-1.49685-1.74027-2.99345-3.47975a18.28307,18.28307,0,0,0-.82031,5.39024c-.38007.211-.7599.41223-1.13973.6363q-1.79839-1.05391-3.59727-2.10808a11.6227,11.6227,0,0,0-1.50071,5.52127c-.21094.15908-.42139.341-.63232.50449q-.83359-.63212-1.6672-1.26475-.0203,1.31376-.04107,2.62724c-.122.10195-.245.189-.36678.29247q-2.13039-.9804-4.26076-1.96027a4.48912,4.48912,0,0,1,.24476,3.8684,15.9757,15.9757,0,0,0-7.33323-1.58788c1.6568,2.21318,3.064,4.48637,4.672,6.2307-.34092.37869-.68548.71257-1.0252,1.10515l8.4993,40.04838,6.90966,12.49179,52.54141-.86693,19.807-16.2399Z"/><path class="cls-8" d="M314.61755,211.02752a3.123,3.123,0,0,0,.19861-1.12716A5.44442,5.44442,0,0,0,314.61755,211.02752Z"/><path class="cls-9" d="M109.04386,108.28177c6.48577-10.18581,8.93234-22.70453,18.03693-31.05472,11.31744-10.37968,31.92722-10.47977,43.365-.2106l-17.23951,5.409a20.38587,20.38587,0,0,0,13.27344,7.97944,22.99637,22.99637,0,0,1-15.60919,4.97128,22.88837,22.88837,0,0,0,13.35338,8.21942l-20.34388.36787a21.46769,21.46769,0,0,0,16.0573,9.42776,109.483,109.483,0,0,1-25.25676,5.18339c1.54657,5.75059,6.645,10.58758,12.88019,12.21963a111.364,111.364,0,0,1-25.10139-3.33061,23.5857,23.5857,0,0,1-4.47922,27.44972,30.21078,30.21078,0,0,0-10.7667-23.67033,21.96146,21.96146,0,0,1-3.5636,26.1013c1.20384-6.83967-6.11191-12.28491-12.92611-15.33536-5.989-2.681-10.74979-4.44168-13.949-9.56839C88.84509,125.721,101.48234,120.15707,109.04386,108.28177Z"/><path class="cls-9" d="M450.68872,104.50239c-6.48576-10.18582-8.93234-22.70453-18.03693-31.05473-11.31743-10.37967-31.92721-10.47976-43.365-.21059l17.2395,5.409a20.38584,20.38584,0,0,1-13.27344,7.97943,22.99634,22.99634,0,0,0,15.60919,4.97128,22.88824,22.88824,0,0,1-13.35338,8.21942l20.34389.36787a21.46768,21.46768,0,0,1-16.05731,9.42776,109.48244,109.48244,0,0,0,25.25676,5.18339c-1.54657,5.7506-6.645,10.58758-12.88019,12.21963a111.3639,111.3639,0,0,0,25.10139-3.3306,23.58572,23.58572,0,0,0,4.47922,27.44972,30.21084,30.21084,0,0,1,10.7667-23.67034,21.96146,21.96146,0,0,0,3.56361,26.1013c-1.20385-6.83967,6.1119-12.2849,12.92611-15.33535,5.98895-2.681,10.74978-4.44169,13.949-9.5684C470.8875,121.94164,458.25024,116.37768,450.68872,104.50239Z"/><path class="cls-10" d="M524.93876,218.49a23.82684,23.82684,0,0,1-9.68407-13.77281c-4.47583,6.84279-16.03043,7.19454-20.9142.63669,6.73034,13.87191.485,32.57759-13.22922,39.62362l2.79127,7.449a32.91614,32.91614,0,0,1-19.24045,7.13707l4.82966,10.72038a51.17153,51.17153,0,0,1-15.81244,3.55243l7.306,9.30545a55.64619,55.64619,0,0,1-40.547,5.65206l4.14723,16.42378a35.85265,35.85265,0,0,1-29.11007-14.69415c-15.17613,33.17066-56.45212,51.83888-91.38326,41.33063-1.54326-.46426-3.39679-1.44515-3.22429-3.04747s3.46579-.37405,2.11282.50154h-4.24805c-1.353-.87559,1.94032-2.10386,2.11282-.50154s-1.681,2.58321-3.22429,3.04747c-34.93114,10.50825-76.20714-8.16-91.38326-41.33063a35.85266,35.85266,0,0,1-29.11007,14.69415l4.14723-16.42378a55.64619,55.64619,0,0,1-40.547-5.65206l7.306-9.30545a51.17153,51.17153,0,0,1-15.81243-3.55243l4.82966-10.72038a32.91614,32.91614,0,0,1-19.24045-7.13707l2.79127-7.449c-13.71426-7.046-19.95956-25.75171-13.22922-39.62362-4.88377,6.55785-16.43837,6.2061-20.9142-.63669A23.82684,23.82684,0,0,1,76.77467,218.49"/><path class="cls-11" d="M467.52223,241.72055c5.98929,12.66349.43166,29.73979-11.77282,36.17191q1.24212,3.40014,2.484,6.80027c-4.83485,3.96892-13.58219,6.28968-19.77053,6.51517q2.14886,4.89348,4.2979,9.78654a44.57026,44.57026,0,0,1-14.07163,3.24317q3.251,4.24734,6.5017,8.49468a48.42948,48.42948,0,0,1-36.08276,5.15986q1.84524,7.49643,3.69048,14.99308A31.651,31.651,0,0,1,376.89352,319.471c-13.50492,30.28075-45.24227,30.8104-76.32736,21.21835a11.41382,11.41382,0,0,0-5.76085,0c-31.08509,9.59205-79.30561,2.75368-92.81053-27.52706a31.65091,31.65091,0,0,1-25.90506,13.4142q1.84523-7.49676,3.69047-14.99308a48.42967,48.42967,0,0,1-36.08276-5.15985q3.251-4.24735,6.5017-8.49469a44.57,44.57,0,0,1-14.07163-3.24317q2.14916-4.89317,4.29811-9.78654a28.85377,28.85377,0,0,1-17.12218-6.51517q1.24212-3.40014,2.484-6.80027c-12.20447-6.43212-17.7621-23.50842-11.77281-36.17191-4.34593,5.98651-10.51336,3.53349-20.64282,8.93455a41.4437,41.4437,0,0,1-30.43158,16.38971,53.36364,53.36364,0,0,0,38.33669,8.4239q-7.97244,3.78356-15.944,7.56754a49.4895,49.4895,0,0,0,21.13523,6.10486q-9.229,6.12927-18.45825,12.2592a21.16846,21.16846,0,0,0,21.73175,3.79184q-6.9087,6.3397-13.81657,12.68006a47.37454,47.37454,0,0,0,21.30575.11812,58.30206,58.30206,0,0,0-13.19657,12.872,80.03347,80.03347,0,0,0,27.72713-3.06867q-4.49748,4.14244-8.99558,8.284a19.84279,19.84279,0,0,0,19.01911-2.32958q-7.09212,7.4251-14.18468,14.85063a27.48743,27.48743,0,0,0,28.27477-4.81085q-6.41475,6.89353-12.83014,13.78708a24.65706,24.65706,0,0,0,17.1616-7.10344,37.15678,37.15678,0,0,0-7.79121,17.34354,32.72467,32.72467,0,0,0,16.25717-4.46316q-2.63775,5.38632-5.27552,10.77285,5.01816-1.615,10.03591-3.22983-4.03812,7.04781-8.076,14.09606a52.93079,52.93079,0,0,0,14.2323-3.90394q-1.90407,4.06208-3.80856,8.124c2.526.10909,5.33564-.978,10.27586.34706,18.49437,24.67171,24.3076,48.52535,110.84841,48.52535,82.76951,0,100.01229-39.69845,118.08189-55.88784a1.83687,1.83687,0,0,1-1.78452-1.34305c-.42432-2.083,1.40152-3.86414,3.04152-5.16717q7.67607-6.09894,15.35255-12.19767-6.903.94888-13.80609,1.89689A116.1325,116.1325,0,0,0,462.041,338.59071q-8.14139,2.90568-16.28214,5.81158a250.05414,250.05414,0,0,0,38.42226-30.4834,15.02337,15.02337,0,0,1-15.52558.58912,109.36175,109.36175,0,0,0,29.33293-27.38138,24.12684,24.12684,0,0,1-14.86614,3.09428q12.13169-15.039,24.26275-30.078a22.50952,22.50952,0,0,1-15.91844,1.72971q5.88336-6.30971,11.76694-12.61874a40.258,40.258,0,0,1-18.13587,1.97047,107.47283,107.47283,0,0,1,20.06616-25.74677,19.86448,19.86448,0,0,1-13.71464,1.919,37.76742,37.76742,0,0,1,2.99286-5.207C491.14636,221.29152,471.86816,247.70706,467.52223,241.72055Z"/><path class="cls-12" d="M282.14832,400.89437c28.42951,8.98786,38.67763-8.69006,50.41077-29.31114-9.77279.0625-19.73928.09421-29.04343-3.16163-4.4299-1.55017-8.76367-3.85323-13.41611-3.93887-5.25605-.09675-10.16069,2.64545-14.80934,5.31754-4.67892,2.68949-10.33288,5.02409-14.09505,8.86695-2.31469,2.36432,7.84215,12.70441,9.365,14.14525C274.49281,396.53332,278.21015,399.64934,282.14832,400.89437Z"/><path class="cls-6" d="M387.02476,297.88169c-14.68689-23.708-39.09785-41.17539-51.20956-66.79508a24.0867,24.0867,0,0,1-2.043-5.79716,12.05311,12.05311,0,0,0-6.26385,8.93994,15.93528,15.93528,0,0,0,4.26232,13.39647,19.7091,19.7091,0,0,0-6.80595,1.821c1.853,2.632,2.61575,5.07712,6.163,8.12443-7.59129,1.5398-9.27322-1.40357-13.39789-1.30458.8452,1.99918,8.72168,10.18583,11.77913,14.3065-3.15644.49473-7.464-1.74721-8.97153-2.26739a19.16343,19.16343,0,0,1-7.42441-5.22538c2.0958,2.67774,3.888,10.6049,5.06086,13.88319-7.90524-5.74956-18.33713-10.18512-26.84575-9.95013-12.83128.35378-23.96272,9.93128-26.389,10.83163,1.56125-3.59011,5.98526-9.5115,3.03623-9.25553-3.12627.27152-7.36879-1.65294-10.03687-3.44847q2.62613-1.93741,5.25366-3.87507a12.55212,12.55212,0,0,1-8.65852-3.06664,16.02853,16.02853,0,0,0,8.00565-5.03918,7.117,7.117,0,0,1-6.96953-3.13428c1.029,1.52708,3.60615-1.83607,4.095-2.6412,4.1539-6.84131-7.52907-12.4636-9.97276-19.39989-.54823.80655-1.235,1.81722-2.05338,3.02115-11.352,16.69763-46.77948,68.70909-52.71194,76.237-7.08313,8.98708-28.93213,59.491,20.20949,79.08819,0,0,42.35548,23.29216,78.8162-10.42058,0,0,47.23628,32.71022,77.06472,15.74919,26.89152-15.2911,33.54009-48.34305,24.35131-76.191A82.24965,82.24965,0,0,0,387.02476,297.88169Z"/><circle class="cls-13" cx="253.4541" cy="305.7226" r="1.52044"/><circle class="cls-13" cx="254.97454" cy="320.85447" r="1.52044"/><circle class="cls-13" cx="231.1049" cy="340.17874" r="1.52044"/><circle class="cls-13" cx="241.74799" cy="325.4158" r="1.52044"/><circle class="cls-13" cx="240.22755" cy="312.491" r="1.52044"/><circle class="cls-13" cx="232.62534" cy="320.85447" r="1.52044"/><circle class="cls-13" cx="261.03905" cy="334.09697" r="1.52044"/><circle class="cls-13" cx="245.35058" cy="337.13785" r="1.52044"/><circle class="cls-13" cx="235.66622" cy="355.99215" r="1.52044"/><circle class="cls-13" cx="264.07994" cy="346.34348" r="1.52044"/><circle class="cls-13" cx="251.93366" cy="351.36131" r="1.52044"/><circle class="cls-13" cx="330.89303" cy="352.07101" r="1.52044"/><circle class="cls-13" cx="330.11591" cy="332.57653" r="1.52044"/><circle class="cls-13" cx="350.20135" cy="319.13531" r="1.52044"/><circle class="cls-13" cx="342.59914" cy="332.37781" r="1.52044"/><circle class="cls-13" cx="344.11958" cy="345.30261" r="1.52044"/><circle class="cls-13" cx="351.72179" cy="336.93914" r="1.52044"/><circle class="cls-13" cx="320.26719" cy="342.34761" r="1.52044"/><circle class="cls-13" cx="336.75471" cy="317.61487" r="1.52044"/><circle class="cls-13" cx="348.68091" cy="301.80146" r="1.52044"/><circle class="cls-13" cx="330.11591" cy="297.67657" r="1.52044"/><circle class="cls-13" cx="339.79559" cy="305.7226" r="1.52044"/><path class="cls-14" d="M152.26138,348.00864s29.396-19.59735,62.87484-22.047"/><path class="cls-14" d="M149.94439,379.01042s35.70651-34.66539,68.45806-42.02529"/><path class="cls-14" d="M169.81734,396.18547s17.96424-35.5202,50.21822-48.17683"/><path class="cls-14" d="M427.74217,348.00864s-29.396-19.59735-62.87485-22.047"/><path class="cls-14" d="M430.05916,379.01042S394.35265,344.345,361.6011,336.98513"/><path class="cls-14" d="M410.18621,396.18547S392.222,360.66527,359.968,348.00864"/><path class="cls-15" d="M332.50555,306.05c-11.92436-25.99122-64.362-10.86168-64.38793-10.857-16.117,2.79412-17.05794,18.78912-9.12013,29.26673,1.11017,1.46492,2.27588,2.9506,3.493,4.428a75.615,75.615,0,0,0,13.22917,12.94008c5.57421,4.08594,11.74945,6.83257,18.44111,6.78689a26.41379,26.41379,0,0,0,11.62022-2.894C319.14871,339.11822,338.97818,320.15757,332.50555,306.05Z"/><path class="cls-16" d="M328.96794,307.30379c-10.83-23.60648-58.45633-9.865-58.47991-9.86086-14.6379,2.53761-15.49261,17.065-8.28308,26.58126,1.008,1.33046,2.067,2.67982,3.17226,4.02157a8.82056,8.82056,0,1,1,12.01507,11.75276c5.06318,3.71112,10.67136,6.20574,16.74939,6.16424a23.99047,23.99047,0,0,0,10.55371-2.62848C316.83645,337.33779,334.84654,320.11684,328.96794,307.30379Z"/><path class="cls-4" d="M282.079,332.03588a8.82142,8.82142,0,0,0-16.70174-3.99012,68.66672,68.66672,0,0,0,12.01507,11.75276A8.80938,8.80938,0,0,0,282.079,332.03588Z"/><path class="cls-4" d="M305.93961,331.7125a8.8469,8.8469,0,0,1,9.47288-8.173,8.36813,8.36813,0,0,1,7.35531,5.14447c-3.84163,4.02156-8.04678,8.1885-12.72457,11.1146A8.80936,8.80936,0,0,1,305.93961,331.7125Z"/><path class="cls-8" d="M231.92419,158.58572c.37835.77678,1.37417-.3943,1.331-1.25724-.44065-8.80178-6.02365-16.80931-13.3327-21.73306a37.05593,37.05593,0,0,0-57.32266,25.06184c3.77537-7.57937,10.31556-12.99876,17.92388-16.71544a32.75781,32.75781,0,0,0-11.13519,18.74506,43.57539,43.57539,0,0,1,60.82734-2.62788l2.25081-1.88691C232.60215,157.57109,232.40371,158.19891,231.92419,158.58572Z"/><line class="cls-6" x1="232.00305" y1="141.77121" x2="232.00305" y2="141.77123"/><line class="cls-6" x1="204.97234" y1="141.77123" x2="204.97234" y2="141.77121"/><path class="cls-6" d="M210.04941,144.41493s-1.71839,3.58908,2.43651,4.97433a68.10725,68.10725,0,0,1,11.34367,5.33941,59.08439,59.08439,0,0,1,6.32674,3.978c1.67584,1.23472,4.35785,5.66992,6.88014,5.06107,2.08091-.50232,1.46868-3.58587,1.722-5.168C240.22755,149.425,221.919,124.66877,210.04941,144.41493Z"/><path class="cls-17" d="M195.05418,150.34322c-9.18034,3.0091-16.61394,9.81233-22.96654,17.09091s-11.97166,15.252-19.13449,21.73488c7.26063.90632,13.48836,5.37365,19.69542,9.248s13.35474,7.39112,20.55467,6.0876c-5.24126-3.39178-10.72685-8.01253-10.98534-14.25017a18.37513,18.37513,0,0,1,1.59683-7.316,67.54623,67.54623,0,0,1,12.25594-20.13927c2.02568-2.29776,8.41313-6.92851,8.85844-9.99925C205.62267,148.01728,197.78054,149.44958,195.05418,150.34322Z"/><path class="cls-18" d="M235.3224,164.97634a28.76957,28.76957,0,0,0-14.6419-13.33151,43.2122,43.2122,0,0,0-11.867-2.6313c17.74527,4.36857,30.91022,36.0519,22.29857,48.96871a25.11009,25.11009,0,0,1-7.73926,7.43816c6.90758-3.77779,13.48057-8.31423,15.53238-16.41207C240.95032,180.936,239.22927,172.08779,235.3224,164.97634Z"/><path class="cls-4" d="M208.81348,149.01353a16.49563,16.49563,0,0,0-8.68929.14656c-.21938.06389-.43386.0593-.65353.13265-14.33142,4.78574-23.44268,13.02279-27.69311,24.71376a28.0309,28.0309,0,0,0-1.08931,3.94052,22.08082,22.08082,0,0,0,2.43917,15.88355c8.17878,14.19844,31.46684,20.52093,47.27221,13.176.99049-.518,1.98443-1.04552,2.97317-1.58621a25.11009,25.11009,0,0,0,7.73926-7.43816C239.7237,185.06543,226.55875,153.3821,208.81348,149.01353Z"/><path class="cls-19" d="M226.08492,193.38774c-.98853.5408-1.98277,1.06834-2.97285,1.58626-15.806,7.34476-39.0937,1.02232-47.27228-13.17605a21.77506,21.77506,0,0,1-2.87144-10.38677c-.40768.90169-.83669,1.78907-1.18093,2.73625a28.06782,28.06782,0,0,0-1.0894,3.94057,22.08225,22.08225,0,0,0,2.43933,15.8837c8.1791,14.19837,31.46683,20.52081,47.27227,13.17579.99061-.51792,1.98433-1.04546,2.97285-1.586a25.11262,25.11262,0,0,0,7.7397-7.43836c2.09352-3.14081,2.87977-7.40092,2.64577-12.09861A25.111,25.111,0,0,1,226.08492,193.38774Z"/><path class="cls-20" d="M231.63817,195.408a25.11326,25.11326,0,0,1-7.73926,7.43816c-.98874.54069-1.98322,1.06848-2.97317,1.58621-15.80537,7.34489-39.09343,1.0224-47.27221-13.176a21.93308,21.93308,0,0,1-2.64975-14.08393c-.07037.30169-.19106.61614-.25276.91559a22.08073,22.08073,0,0,0,2.43917,15.88355c8.17877,14.19843,31.46683,20.52092,47.2722,13.176.98995-.51773,1.98444-1.04553,2.97318-1.58622a25.11356,25.11356,0,0,0,7.73926-7.43815,17.08881,17.08881,0,0,0,2.494-7.62658A15.39078,15.39078,0,0,1,231.63817,195.408Z"/><circle class="cls-21" cx="201.75473" cy="163.47959" r="3.32055"/><circle class="cls-22" cx="198.03122" cy="186.17693" r="5.61349"/><path class="cls-17" d="M378.63685,147.37228c9.18034,3.0091,16.61394,9.81233,22.96654,17.09092s11.97166,15.252,19.13448,21.73487c-7.26063.90632-13.48835,5.37366-19.69542,9.248s-13.35474,7.39111-20.55467,6.08759c5.24127-3.39177,10.72686-8.01252,10.98534-14.25017a18.37528,18.37528,0,0,0-1.59682-7.316,67.54615,67.54615,0,0,0-12.25594-20.13928c-2.02569-2.29775-8.41313-6.92851-8.85844-9.99925C368.06836,145.04634,375.91048,146.47864,378.63685,147.37228Z"/><path class="cls-18" d="M340.51226,159.05345a28.76956,28.76956,0,0,1,16.17967-11.41632,43.21219,43.21219,0,0,1,12.10148-1.142c-18.14959,2.13815-35.13557,31.948-28.18924,45.83151a25.11031,25.11031,0,0,0,6.7589,8.339c-6.38676-4.60387-12.34758-9.91913-13.38112-18.20868C332.95187,174.19362,335.75506,165.62654,340.51226,159.05345Z"/><path class="cls-4" d="M368.79341,146.49518a16.4956,16.4956,0,0,1,8.60431,1.22114c.20978.09056.42317.11255.63208.21254,13.62871,6.52311,21.65016,15.82475,24.42058,27.952a28.03029,28.03029,0,0,1,.5931,4.04506,22.08071,22.08071,0,0,1-4.38675,15.4594c-9.87359,13.07671-33.76521,16.46756-48.53972,7.22252-.91875-.63661-1.83974-1.28316-2.75394-1.94209a25.11031,25.11031,0,0,1-6.7589-8.339C333.65784,178.44315,350.64382,148.63333,368.79341,146.49518Z"/><path class="cls-19" d="M346.16142,188.38988c.914.659,1.83526,1.30558,2.75361,1.94209,14.77511,9.245,38.66641,5.85415,48.53979-7.22251a21.775,21.775,0,0,0,4.13522-9.95139c.29291.94521.60876,1.87888.83309,2.86139a28.06621,28.06621,0,0,1,.59319,4.04512,22.08222,22.08222,0,0,1-4.38692,15.45954c-9.8739,13.0766-33.7652,16.46744-48.53976,7.22225-.91886-.63657-1.83963-1.28307-2.75364-1.94183a25.11266,25.11266,0,0,1-6.75931-8.3393c-1.68859-3.37582-1.9414-7.70049-1.12764-12.33308A25.1109,25.1109,0,0,0,346.16142,188.38988Z"/><path class="cls-23" d="M340.40078,189.70713a25.11345,25.11345,0,0,0,6.7589,8.339c.9142.65893,1.8357,1.30578,2.75394,1.94208,14.77451,9.24505,38.66613,5.8542,48.53972-7.22251a21.933,21.933,0,0,0,4.37293-13.64755c.03247.30808.11331.63505.13747.93983a22.08078,22.08078,0,0,1-4.38675,15.4594c-9.87359,13.07671-33.76522,16.46756-48.53972,7.22251-.91825-.6363-1.83974-1.28315-2.75394-1.94208a25.11345,25.11345,0,0,1-6.7589-8.339,17.08873,17.08873,0,0,1-1.53071-7.87666A15.39088,15.39088,0,0,0,340.40078,189.70713Z"/><circle class="cls-21" cx="374.007" cy="161.72381" r="2.73227"/><circle class="cls-22" cx="381.73135" cy="184.73167" r="5.61349"/><path class="cls-8" d="M342.91263,155.37008c-.34323.79293-1.39043-.33244-1.38587-1.19646.04658-8.81268,5.26588-17.06188,12.34742-22.30757a37.05592,37.05592,0,0,1,58.38612,22.47317c-4.11056-7.403-10.88657-12.52443-18.6535-15.89713a32.75781,32.75781,0,0,1,11.96237,18.22832,43.57538,43.57538,0,0,0-60.884.09508l-2.333-1.78436C342.19,154.38679,342.41629,155.00511,342.91263,155.37008Z"/><path class="cls-6" d="M362.90682,141.84373s1.87717,3.50865-2.21162,5.07833a68.10685,68.10685,0,0,0-11.09353,5.84138,59.08506,59.08506,0,0,0-6.1425,4.25693c-1.61895,1.30843-4.09993,5.85914-6.64692,5.3637-2.10129-.40876-2.02652-3.4853-1.9514-5.08579C335.2316,149.39858,348.68091,122.79418,362.90682,141.84373Z"/></g></svg>