<svg id="圖層_1" data-name="圖層 1" xmlns="http://www.w3.org/2000/svg" xmlns:xlink="http://www.w3.org/1999/xlink" viewBox="0 0 1921.3 238.39"><defs><linearGradient id="未命名漸層_54" x1="960.65" y1="30.08" x2="960.65" y2="375.22" gradientUnits="userSpaceOnUse"><stop offset="0" stop-color="#cae6ee"/><stop offset="0.74" stop-color="#effafa"/></linearGradient></defs><title>city</title><path d="M1904.7,112.92V56.46h-11c-12.28,0-22.23,9.31-22.23,20.8v35.66H1866V18.33l-55.33.49V91h-13.83V0h-30.43V30.09c0,9.37-8.12,17-18.13,17h-15.07V28.23h-30.43v84.69c-7.64,0-13.84-5.8-13.84-12.94V87.83h-33.19V50.19h-22.13v22h-11.07V31.37h-8.3V25.09h-49.8V56.46h-7.69c-12.28,0-22.23,9.31-22.23,20.8v35.66H1529V18.33l-55.33.49V31.37h-6V91h-7.79V0h-30.44V30.09c0,9.37-8.11,17-18.12,17h-15.07V28.23h-30.43V56.46h-25.41V87.83h-5.53V44.68c0-14.31-12.4-25.9-27.7-25.89h0a28.05,28.05,0,0,0-23.69,12.58h-6.2V25.09h-11.57V0h-30.43V25.09h-7.8v22H1202V28.23h-13.33V18.82h-44.26V31.37H1130.6V87.83h-6v37.64H1105.7v-22h-16.6V49.83l-36,.36v47.2c0,8.57-7.43,15.53-16.6,15.53V56.46h-33.2v56.46h-5.53V44.68c0-14.31-12.41-25.9-27.7-25.89h0c-15.26,0-27.63,11.6-27.63,25.89V91H928.65V0H898.22V47.05H865V28.23H834.59v84.69H820.76V87.83h-33.2v25.09h-7.42V56.46h-11c-12.28,0-22.23,9.31-22.23,20.8v35.66h-5.53V18.33l-55.33.49V91H672.25V0H641.82V30.09c0,9.37-8.12,17-18.12,17H608.62V28.23H578.19v84.69c-7.64,0-13.83-5.8-13.83-12.94V87.83h-33.2V50.19H509v22H498V31.37h-8.3V25.09H439.87V131.74H401.13V18.82H356.87V31.37H343v94.1h-24.9v-22h-16.6V49.83l-36,.36v47.2c0,8.57-7.43,15.53-16.6,15.53V56.46h-33.2v56.46h-5.53V44.68c0-14.31-12.4-25.9-27.69-25.89h0c-15.27,0-27.64,11.6-27.64,25.89V91H141.09V0H110.66V47.05H77.46V28.23H47v84.69H33.2V87.83H0V238.39H1921.3V112.92Z" style="fill:url(#未命名漸層_54)"/></svg>