<svg id="Group_165" data-name="Group 165" xmlns="http://www.w3.org/2000/svg" xmlns:xlink="http://www.w3.org/1999/xlink" width="155.019" height="155.019" viewBox="0 0 155.019 155.019">
  <defs>
    <linearGradient id="linear-gradient" y1="0.5" x2="1" y2="0.5" gradientUnits="objectBoundingBox">
      <stop offset="0.043" stop-color="#ba532b"/>
      <stop offset="1" stop-color="#c77151"/>
    </linearGradient>
    <linearGradient id="linear-gradient-2" x1="0" y1="0.5" x2="1" y2="0.5" xlink:href="#linear-gradient"/>
    <linearGradient id="linear-gradient-3" x1="0.001" y1="0.499" x2="1" y2="0.499" xlink:href="#linear-gradient"/>
    <linearGradient id="linear-gradient-4" x1="-0.001" y1="0.499" x2="0.999" y2="0.499" xlink:href="#linear-gradient"/>
    <linearGradient id="linear-gradient-5" x1="0" y1="0.499" x2="1" y2="0.499" xlink:href="#linear-gradient"/>
    <linearGradient id="linear-gradient-6" x1="0.001" y1="0.498" x2="1.001" y2="0.498" xlink:href="#linear-gradient"/>
    <linearGradient id="linear-gradient-7" x1="-0.002" y1="0.499" x2="0.998" y2="0.499" xlink:href="#linear-gradient"/>
    <linearGradient id="linear-gradient-8" x1="0" y1="0.5" x2="1" y2="0.5" xlink:href="#linear-gradient"/>
    <linearGradient id="linear-gradient-9" x1="0.002" y1="0.499" x2="1.002" y2="0.499" xlink:href="#linear-gradient"/>
    <linearGradient id="linear-gradient-10" x1="-0.001" y1="0.498" x2="0.999" y2="0.498" xlink:href="#linear-gradient"/>
    <linearGradient id="linear-gradient-11" x1="0" y1="0.499" x2="1" y2="0.499" xlink:href="#linear-gradient"/>
    <linearGradient id="linear-gradient-12" x1="0.001" y1="0.499" x2="1.001" y2="0.499" xlink:href="#linear-gradient"/>
    <linearGradient id="linear-gradient-13" x1="0" y1="0.499" x2="0.999" y2="0.499" xlink:href="#linear-gradient"/>
    <linearGradient id="linear-gradient-14" x1="0" y1="0.5" x2="1" y2="0.5" xlink:href="#linear-gradient"/>
  </defs>
  <circle id="Ellipse_161" data-name="Ellipse 161" cx="64.43" cy="64.43" r="64.43" transform="translate(0 125.407) rotate(-76.714)" fill="#dbd0bc"/>
  <circle id="Ellipse_162" data-name="Ellipse 162" cx="64.43" cy="64.43" r="64.43" transform="translate(13.029 4.553)" fill="url(#linear-gradient)"/>
  <g id="Group_164" data-name="Group 164" transform="translate(12.452 3.928)">
    <circle id="Ellipse_163" data-name="Ellipse 163" cx="56.69" cy="56.69" r="56.69" transform="translate(0 111.917) rotate(-80.782)" fill="#f9f7f6"/>
    <g id="Group_162" data-name="Group 162" transform="translate(8.777 8.825)">
      <g id="Group_150" data-name="Group 150" transform="translate(55.62)">
        <path id="Path_192" data-name="Path 192" d="M1550.71,299.05a.606.606,0,0,1-.61-.61v-5.99a.61.61,0,1,1,1.22,0v5.99A.612.612,0,0,1,1550.71,299.05Z" transform="translate(-1550.1 -291.84)" fill="url(#linear-gradient-2)"/>
      </g>
      <g id="Group_151" data-name="Group 151" transform="translate(27.807 7.457)">
        <path id="Path_193" data-name="Path 193" d="M1525.9,305.7a.616.616,0,0,1-.53-.3l-3-5.19a.607.607,0,1,1,1.05-.61l3,5.19a.606.606,0,0,1-.22.83A.673.673,0,0,1,1525.9,305.7Z" transform="translate(-1522.287 -299.297)" fill="url(#linear-gradient-3)"/>
      </g>
      <g id="Group_152" data-name="Group 152" transform="translate(7.457 27.817)">
        <path id="Path_194" data-name="Path 194" d="M1507.73,323.86a.642.642,0,0,1-.3-.08l-5.19-2.99a.607.607,0,0,1,.61-1.05l5.19,2.99a.606.606,0,0,1,.22.83A.628.628,0,0,1,1507.73,323.86Z" transform="translate(-1501.937 -319.657)" fill="url(#linear-gradient-4)"/>
      </g>
      <g id="Group_153" data-name="Group 153" transform="translate(0 55.62)">
        <path id="Path_195" data-name="Path 195" d="M1501.08,348.68h-5.99a.61.61,0,1,1,0-1.22h5.99a.61.61,0,0,1,0,1.22Z" transform="translate(-1494.48 -347.46)" fill="url(#linear-gradient-5)"/>
      </g>
      <g id="Group_154" data-name="Group 154" transform="translate(7.447 80.447)">
        <path id="Path_196" data-name="Path 196" d="M1502.54,376.49a.616.616,0,0,1-.53-.3.606.606,0,0,1,.22-.83l5.19-2.99a.607.607,0,0,1,.61,1.05l-5.19,2.99A.611.611,0,0,1,1502.54,376.49Z" transform="translate(-1501.927 -372.287)" fill="url(#linear-gradient-6)"/>
      </g>
      <g id="Group_155" data-name="Group 155" transform="translate(27.817 98.607)">
        <path id="Path_197" data-name="Path 197" d="M1522.9,396.85a.642.642,0,0,1-.3-.08.606.606,0,0,1-.22-.83l3-5.19a.607.607,0,1,1,1.05.61l-3,5.19A.616.616,0,0,1,1522.9,396.85Z" transform="translate(-1522.297 -390.447)" fill="url(#linear-gradient-7)"/>
      </g>
      <g id="Group_156" data-name="Group 156" transform="translate(55.62 105.25)">
        <path id="Path_198" data-name="Path 198" d="M1550.71,404.3a.606.606,0,0,1-.61-.61V397.7a.61.61,0,1,1,1.22,0v5.99A.606.606,0,0,1,1550.71,404.3Z" transform="translate(-1550.1 -397.09)" fill="url(#linear-gradient-8)"/>
      </g>
      <g id="Group_157" data-name="Group 157" transform="translate(80.427 98.607)">
        <path id="Path_199" data-name="Path 199" d="M1578.52,396.85a.616.616,0,0,1-.53-.3l-3-5.19a.607.607,0,1,1,1.05-.61l3,5.19a.606.606,0,0,1-.22.83A.641.641,0,0,1,1578.52,396.85Z" transform="translate(-1574.907 -390.447)" fill="url(#linear-gradient-9)"/>
      </g>
      <g id="Group_158" data-name="Group 158" transform="translate(98.607 80.447)">
        <path id="Path_200" data-name="Path 200" d="M1598.88,376.49a.642.642,0,0,1-.3-.08l-5.19-2.99a.607.607,0,0,1,.61-1.05l5.19,2.99a.606.606,0,0,1,.22.83A.628.628,0,0,1,1598.88,376.49Z" transform="translate(-1593.087 -372.287)" fill="url(#linear-gradient-10)"/>
      </g>
      <g id="Group_159" data-name="Group 159" transform="translate(105.25 55.62)">
        <path id="Path_201" data-name="Path 201" d="M1606.33,348.68h-5.99a.61.61,0,1,1,0-1.22h5.99a.61.61,0,0,1,0,1.22Z" transform="translate(-1599.73 -347.46)" fill="url(#linear-gradient-11)"/>
      </g>
      <g id="Group_160" data-name="Group 160" transform="translate(98.597 27.817)">
        <path id="Path_202" data-name="Path 202" d="M1593.69,323.86a.616.616,0,0,1-.53-.3.606.606,0,0,1,.22-.83l5.19-2.99a.607.607,0,0,1,.61,1.05l-5.19,2.99A.52.52,0,0,1,1593.69,323.86Z" transform="translate(-1593.077 -319.657)" fill="url(#linear-gradient-12)"/>
      </g>
      <g id="Group_161" data-name="Group 161" transform="translate(80.437 7.457)">
        <path id="Path_203" data-name="Path 203" d="M1575.52,305.7a.642.642,0,0,1-.3-.08.606.606,0,0,1-.22-.83l3-5.19a.607.607,0,1,1,1.05.61l-3,5.19A.6.6,0,0,1,1575.52,305.7Z" transform="translate(-1574.917 -299.297)" fill="url(#linear-gradient-13)"/>
      </g>
    </g>
    <g id="Group_163" data-name="Group 163" transform="translate(63.187 31.845)">
      <path id="Path_204" data-name="Path 204" d="M1561.69,368.29a1.81,1.81,0,0,1-1.58-.92l-11.22-19.53V316.69a1.825,1.825,0,1,1,3.65,0v30.18l10.74,18.69a1.828,1.828,0,0,1-.67,2.49A1.942,1.942,0,0,1,1561.69,368.29Z" transform="translate(-1548.89 -314.86)" fill="url(#linear-gradient-14)"/>
    </g>
    <circle id="Ellipse_164" data-name="Ellipse 164" cx="2.85" cy="2.85" r="2.85" transform="translate(62.157 62.205)" fill="#cd8865"/>
  </g>
</svg>
