<svg xmlns="http://www.w3.org/2000/svg" viewBox="0 0 1915.78 308.39"><title>cloud_ind</title><g style="isolation:isolate"><g id="圖層_1" data-name="圖層 1"><path d="M1409.92,272.87c-114.74,10.28-235.12,32-342.51-.43-41.16-12.43-78-32.34-119.79-43.53C875.39,209.56,796,218,719.86,212.05a579.47,579.47,0,0,1-134.09-26.37c-38.34-12.48-74.71-29-115-37.09-56.91-11.41-117.63-5.22-175.23-14.41-35.88-5.72-69.72-17.29-105.28-24.09-37.94-7.26-77.27-9-116.32-10.69L0,96.18v84.19l7.8-.06C115,179.76,222,188.18,328.56,196.93c134.54,11,269,22.64,403,37.1,38.51,4.15,77,8.55,115.08,14.5,67.42,10.55,133.34,26,199.14,41.32,35.61,8.32,71.64,16.7,108.83,18.26,46.24,1.94,91.93-6.73,137.29-13.83a2074.72,2074.72,0,0,1,383.5-23.81A1661.88,1661.88,0,0,0,1409.92,272.87Z" style="fill:#e7fffd;opacity:0.51;mix-blend-mode:overlay"/><path d="M1915.78,5.39a2723.91,2723.91,0,0,0-353.29.7l14,9.17c3.26,6.37-4.5,12.62-10.93,15.14-91.81,36-192.17,36.63-290.12,36.79-174.23.27-348.67.53-522.41-13.41-70.95-5.7-142.76-13.72-212.86-.83l963.12,42.23c200.2,8.78,219-85.87,412.5,53.22Z" style="fill:#e7fffd;opacity:0.51;mix-blend-mode:overlay"/></g></g></svg>