<svg xmlns="http://www.w3.org/2000/svg" width="145.583" height="60.776" viewBox="0 0 145.583 60.776">
  <g id="Group_228" data-name="Group 228" transform="translate(-963.733 -756.294)">
    <path id="Path_372" data-name="Path 372" d="M1094.33,777.08c-7.17-3.5-22.22,10.93-22.22,10.93s-8.53-19.41-17.15,2.28c0,0,1.45-33.62-13.77-32.72s-20.05,33.51-20.05,33.51-7.25-15.15-15.22-11.72-1.21,15.18-1.21,15.18-15.14-9.17-18.25-7.86,8.21,14.76,8.21,14.76-22.71-16.31-29.47-10.74c-5.45,4.49,6.04,22.28,6.04,22.28s52.25,2.69,54.33,2.82,66.66-3.92,66.17-5.55C1091.27,808.61,1101.98,780.82,1094.33,777.08Z" fill="#8faf35"/>
    <path id="Path_373" data-name="Path 373" d="M1106.64,816.9s10.2-26.46-9.23-6.74c0,0,10.41-22.55-6.76-10.08l-6.07,2.92s16.51-41.63.73-46.35-29.23,39.19-29.23,39.19-2.58-19.1-8.53-16.84-5.31,20.69-5.31,20.69-6.44-7.86-8.05-5.79,1.45,11.09,1.45,11.09-7.73-7.96-9.66-6.37,0,8.3,0,8.3-25.28-27.66-35.59-24.87,16.43,29.05,16.43,29.05-22.06-13.93-28.99-10.48,2.42,10.88,2.42,10.88-19.65-4.89-11.59,5.57Z" fill="#43932f"/>
  </g>
</svg>
