<svg xmlns="http://www.w3.org/2000/svg" width="250.236" height="459.196" viewBox="0 0 250.236 459.196">
  <g id="Group_608" data-name="Group 608" transform="translate(-1650.336 -320.664)">
    <g id="Group_225" data-name="Group 225" transform="translate(-11 -43)">
      <path id="Path_366" data-name="Path 366" d="M1896.6,777.1c-7.16-3.5-22.21,10.92-22.21,10.92s-8.53-19.4-17.14,2.28c0,0,1.45-33.6-13.76-32.7s-20.04,33.49-20.04,33.49-7.24-15.14-15.21-11.71-1.21,15.17-1.21,15.17-15.13-9.16-18.25-7.86,8.21,14.75,8.21,14.75-22.69-16.31-29.45-10.74c-5.44,4.48,6.04,22.27,6.04,22.27s52.22,2.69,54.31,2.82,66.62-3.91,66.14-5.55S1904.25,780.84,1896.6,777.1Z" fill="#89a546"/>
      <path id="Path_367" data-name="Path 367" d="M1908.9,816.9s10.19-26.45-9.23-6.74c0,0,10.41-22.54-6.76-10.07l-6.07,2.91s16.5-41.6.73-46.33-29.21,39.17-29.21,39.17-2.58-19.09-8.53-16.84-5.31,20.68-5.31,20.68-6.44-7.86-8.05-5.78,1.45,11.09,1.45,11.09-7.73-7.95-9.66-6.36,0,8.29,0,8.29-25.27-27.65-35.57-24.86,16.42,29.03,16.42,29.03-22.05-13.92-28.97-10.47,2.41,10.87,2.41,10.87-19.64-4.88-11.59,5.57Z" fill="#43932f"/>
    </g>
    <g id="Group_241" data-name="Group 241" transform="translate(1650.336 320.664)">
      <g id="Group_237" data-name="Group 237" transform="translate(1.924 35.56)">
        <g id="Group_236" data-name="Group 236">
          <path id="Path_406" data-name="Path 406" d="M1047.016,369.754c0,12.714-7.338,23.017-16.388,23.017s-16.388-10.3-16.388-23.017l16.692-7.034Z" transform="translate(-1014.24 -362.72)" fill="#fff"/>
        </g>
        <path id="Path_407" data-name="Path 407" d="M1044.235,368.539l-13.3-5.819-16.692,7.034c0,9.308,3.931,17.318,9.584,20.945a11.846,11.846,0,0,0,3.416.506C1036.06,391.205,1043.315,381.281,1044.235,368.539Z" transform="translate(-1014.24 -362.72)" fill="#b7ac8f"/>
      </g>
      <g id="Group_239" data-name="Group 239" transform="translate(109.513 36.085)">
        <g id="Group_238" data-name="Group 238">
          <path id="Path_408" data-name="Path 408" d="M1163.876,370.324c0,12.714-7.338,23.017-16.388,23.017s-16.388-10.3-16.388-23.017l16.692-7.034Z" transform="translate(-1131.1 -363.29)" fill="#fff"/>
        </g>
        <path id="Path_409" data-name="Path 409" d="M1161.1,369.109l-13.3-5.819-16.692,7.034c0,9.308,3.931,17.318,9.584,20.945a11.846,11.846,0,0,0,3.416.506C1152.92,391.775,1160.175,381.851,1161.1,369.109Z" transform="translate(-1131.1 -363.29)" fill="#b7ac8f"/>
      </g>
      <g id="Group_240" data-name="Group 240" transform="translate(0)">
        <path id="Path_410" data-name="Path 410" d="M1139.092,353.7h-1.04a48.584,48.584,0,0,0-3.434-11.5,36.607,36.607,0,0,0-7.411-11.011,24.86,24.86,0,0,0-9.943-6.15,20.224,20.224,0,0,0-10.928-.35,24.492,24.492,0,0,0-10.275,5.542c-.773.718-1.51,1.51-2.265,2.265-.709.829-1.4,1.7-2.09,2.578-.635.939-1.252,1.915-1.878,2.882l-1.648,3.149c-.958,2.035-2.385,6.27-2.385,6.27h-2.55s-3.066-8.369-5.533-11.932l-2.035-2.661c-.737-.783-1.473-1.584-2.228-2.339-.792-.672-1.584-1.353-2.4-1.979-.847-.543-1.676-1.132-2.523-1.63a20.923,20.923,0,0,0-21.516.488,29.98,29.98,0,0,0-8.94,8.663,43.288,43.288,0,0,0-5.809,12.77c-.405,1.445-.727,2.919-1,4.41h-1.427l-17.677,14.528s12.429-3.876,18.238-4.566a14.058,14.058,0,0,1,1.491-.1c4.769,0,18.413,4.668,18.413,4.668l-17.916-14.528h-.562c.3-1.381.654-2.734,1.068-4.051a40.6,40.6,0,0,1,5.975-12.024,27.635,27.635,0,0,1,8.709-7.89,19.192,19.192,0,0,1,20.107.5,30.752,30.752,0,0,1,8.461,7.955,42.082,42.082,0,0,1,5.957,11.711c.47,1.427.875,2.9,1.234,4.4l-2.044,392.618h6.242l-1.694-390.869a47.86,47.86,0,0,1,4.2-12.65,36.95,36.95,0,0,1,7.246-10.044,22.956,22.956,0,0,1,9.391-5.671,19.068,19.068,0,0,1,10.293-.12,23.154,23.154,0,0,1,9.612,5.45,34.04,34.04,0,0,1,7.476,10.229,45.74,45.74,0,0,1,3.683,10.984h-1.2l-17.677,14.528s14.961-4.668,19.73-4.668S1157,368.218,1157,368.218Z" transform="translate(-1012.15 -324.096)" fill="#3a2523"/>
        <path id="Path_411" data-name="Path 411" d="M1095.279,783.958h-10.984l-1.915-62.228h14.758Z" transform="translate(-1017.721 -355.641)" fill="#222438"/>
        <path id="Path_412" data-name="Path 412" d="M1100.706,754.14l-2.845,63.268h-16.8l-2.919-63.268Z" transform="translate(-1017.385 -358.212)" fill="#514168"/>
        <path id="Path_413" data-name="Path 413" d="M1097.262,817.408h-16.2l-2.919-63.268h17.207c-2.274,20.706-5.064,49.569-3.526,54.853C1093.221,813.818,1095.541,816.239,1097.262,817.408Z" transform="translate(-1017.385 -358.212)" fill="#2d2835"/>
      </g>
    </g>
  </g>
</svg>
