<svg xmlns="http://www.w3.org/2000/svg" width="157.293" height="459.196" viewBox="0 0 157.293 459.196">
  <g id="Group_607" data-name="Group 607" transform="translate(-96.077 -320.664)">
    <g id="Group_543" data-name="Group 543" transform="translate(-1670 -43)">
      <path id="Path_366" data-name="Path 366" d="M1896.6,777.1c-7.16-3.5-22.21,10.92-22.21,10.92s-8.53-19.4-17.14,2.28c0,0,1.45-33.6-13.76-32.7s-20.04,33.49-20.04,33.49-7.24-15.14-15.21-11.71-1.21,15.17-1.21,15.17-15.13-9.16-18.25-7.86,8.21,14.75,8.21,14.75-22.69-16.31-29.45-10.74c-5.44,4.48,6.04,22.27,6.04,22.27s52.22,2.69,54.31,2.82,66.62-3.91,66.14-5.55S1904.25,780.84,1896.6,777.1Z" fill="#89a546"/>
      <path id="Path_367" data-name="Path 367" d="M1908.9,816.9s10.19-26.45-9.23-6.74c0,0,10.41-22.54-6.76-10.07l-6.07,2.91s16.5-41.6.73-46.33-29.21,39.17-29.21,39.17-2.58-19.09-8.53-16.84-5.31,20.68-5.31,20.68-6.44-7.86-8.05-5.78,1.45,11.09,1.45,11.09-7.73-7.95-9.66-6.36,0,8.29,0,8.29-25.27-27.65-35.57-24.86,16.42,29.03,16.42,29.03-22.05-13.92-28.97-10.47,2.41,10.87,2.41,10.87-19.64-4.88-11.59,5.57Z" fill="#43932f"/>
    </g>
    <g id="Group_247" data-name="Group 247" transform="translate(108.53 320.664)">
      <g id="Group_243" data-name="Group 243" transform="translate(1.933 35.56)">
        <g id="Group_242" data-name="Group 242">
          <path id="Path_414" data-name="Path 414" d="M154.406,369.754c0,12.714-7.338,23.017-16.388,23.017s-16.388-10.3-16.388-23.017l16.692-7.034Z" transform="translate(-121.63 -362.72)" fill="#fff"/>
        </g>
        <path id="Path_415" data-name="Path 415" d="M151.625,368.539l-13.3-5.819-16.692,7.034c0,9.308,3.931,17.318,9.584,20.945a11.847,11.847,0,0,0,3.416.506C143.441,391.205,150.7,381.281,151.625,368.539Z" transform="translate(-121.63 -362.72)" fill="#b7ac8f"/>
      </g>
      <g id="Group_245" data-name="Group 245" transform="translate(109.523 36.085)">
        <g id="Group_244" data-name="Group 244" transform="translate(0)">
          <path id="Path_416" data-name="Path 416" d="M271.266,370.324c0,12.714-7.338,23.017-16.388,23.017s-16.388-10.3-16.388-23.017l16.692-7.034Z" transform="translate(-238.49 -363.29)" fill="#fff"/>
        </g>
        <path id="Path_417" data-name="Path 417" d="M268.485,369.109l-13.3-5.819-16.692,7.034c0,9.308,3.931,17.318,9.584,20.945a11.847,11.847,0,0,0,3.416.506C260.3,391.775,267.555,381.851,268.485,369.109Z" transform="translate(-238.49 -363.29)" fill="#b7ac8f"/>
      </g>
      <g id="Group_246" data-name="Group 246" transform="translate(0)">
        <path id="Path_418" data-name="Path 418" d="M246.481,353.7h-1.04A48.169,48.169,0,0,0,242,342.2a36.609,36.609,0,0,0-7.411-11.011,24.861,24.861,0,0,0-9.943-6.15,20.224,20.224,0,0,0-10.928-.35,24.492,24.492,0,0,0-10.275,5.542c-.773.718-1.51,1.51-2.265,2.265-.709.829-1.4,1.7-2.09,2.578-.635.939-1.252,1.915-1.878,2.882l-1.648,3.149c-.957,2.035-2.385,6.27-2.385,6.27h-2.55s-3.066-8.369-5.533-11.932l-2.035-2.661c-.737-.783-1.473-1.584-2.228-2.339-.792-.672-1.584-1.353-2.4-1.979-.847-.543-1.676-1.132-2.523-1.63a20.924,20.924,0,0,0-21.516.488,29.98,29.98,0,0,0-8.94,8.663,43.287,43.287,0,0,0-5.809,12.77c-.405,1.445-.727,2.919-1,4.41h-1.427L119.53,367.693s12.429-3.876,18.238-4.566a14.057,14.057,0,0,1,1.491-.1c4.769,0,18.413,4.668,18.413,4.668l-17.916-14.528H139.2c.3-1.381.654-2.734,1.068-4.051a40.6,40.6,0,0,1,5.975-12.024,27.635,27.635,0,0,1,8.71-7.89,19.193,19.193,0,0,1,20.107.5,30.753,30.753,0,0,1,8.461,7.955,42.084,42.084,0,0,1,5.957,11.711c.47,1.427.875,2.9,1.234,4.4l-2.044,392.618h6.242l-1.694-390.869a47.863,47.863,0,0,1,4.2-12.65,36.948,36.948,0,0,1,7.246-10.044,22.955,22.955,0,0,1,9.391-5.671,19.068,19.068,0,0,1,10.293-.12,23.066,23.066,0,0,1,9.6,5.45,34.038,34.038,0,0,1,7.476,10.229A45.738,45.738,0,0,1,245.1,353.69h-1.2l-17.677,14.528s14.961-4.668,19.73-4.668,18.413,4.668,18.413,4.668Z" transform="translate(-119.53 -324.096)" fill="#3a2523"/>
        <path id="Path_419" data-name="Path 419" d="M202.659,783.958H191.685L189.77,721.73h14.758Z" transform="translate(-125.102 -355.641)" fill="#222438"/>
        <path id="Path_420" data-name="Path 420" d="M208.1,754.14l-2.845,63.268h-16.8L185.53,754.14Z" transform="translate(-124.766 -358.212)" fill="#514168"/>
        <path id="Path_421" data-name="Path 421" d="M204.642,817.408h-16.2L185.52,754.14h17.207c-2.274,20.706-5.064,49.569-3.526,54.853C200.61,813.818,202.93,816.239,204.642,817.408Z" transform="translate(-124.765 -358.212)" fill="#2d2835"/>
      </g>
    </g>
  </g>
</svg>
