<svg xmlns="http://www.w3.org/2000/svg" width="1915.78" height="308.395" viewBox="0 0 1915.78 308.395">
  <g id="Group_605" data-name="Group 605" transform="translate(-0.23 -137.301)">
    <path id="XMLID_2_" d="M1421.15,410.17c-114.74,10.27-235.12,32-342.51-.44-41.16-12.43-78.02-32.34-119.79-43.52-72.23-19.35-151.58-10.96-227.76-16.86A579.468,579.468,0,0,1,597,322.98c-38.34-12.48-74.71-29.01-115.03-37.09-56.91-11.41-117.63-5.22-175.23-14.4-35.88-5.72-69.72-17.29-105.28-24.09-37.94-7.26-77.27-8.99-116.32-10.69q-36.96-1.605-73.91-3.22v84.19c2.6-.03,5.21-.05,7.8-.06,107.22-.55,214.14,7.87,320.75,16.62,134.54,11.05,269.03,22.64,403.02,37.1,38.5,4.15,76.98,8.55,115.08,14.5,67.42,10.54,133.34,25.94,199.14,41.32,35.61,8.32,71.65,16.7,108.84,18.26,46.23,1.94,91.93-6.73,137.28-13.83a2074.774,2074.774,0,0,1,383.51-23.81A1659.643,1659.643,0,0,0,1421.15,410.17Z" transform="translate(-11)" fill="#fff" opacity="0.802"/>
    <path id="XMLID_1_" d="M1927.01,142.69a2723.908,2723.908,0,0,0-353.29.7q6.99,4.59,13.99,9.17c3.26,6.37-4.5,12.62-10.93,15.14-91.81,36.04-192.17,36.63-290.12,36.78-174.23.27-348.68.54-522.41-13.41-70.95-5.69-142.76-13.72-212.87-.83l963.12,42.24c200.2,8.78,219.01-85.87,412.5,53.22Z" transform="translate(-11)" fill="#fff" opacity="0.802"/>
  </g>
</svg>
