<svg xmlns="http://www.w3.org/2000/svg" xmlns:xlink="http://www.w3.org/1999/xlink" width="199.036" height="221.55" viewBox="0 0 199.036 221.55">
  <defs>
    <clipPath id="clip-path">
      <path id="Path_1448" data-name="Path 1448" d="M47.513,56.92c1.541-2.78-.3-6.163-2.1-8.783Q36.911,35.653,28.39,23.184c-3.78-5.543-8.434-11.611-15.1-12.214a2.769,2.769,0,0,0-1.954.365,3.21,3.21,0,0,0-.937,2.224c-.6,4.32-1.207,8.625-1.811,12.945Q6.725,39.846,4.851,53.2c-.445,3.224-.905,6.544-.111,9.72,1.017,4.114,3.987,7.417,6.846,10.546a6.177,6.177,0,0,1,2.065-3.463A3.482,3.482,0,0,0,14.7,72.882a10.1,10.1,0,0,1,1.541-2.922,5.275,5.275,0,0,0,1.112,1.97A32.454,32.454,0,0,1,20.973,65.5,4.791,4.791,0,0,0,22.4,68.673a2.292,2.292,0,0,1,.826-1.795c-.238-.222-.349.476-.016.492.334.032.588-.286.889-.429s.794.191.556.429a24.186,24.186,0,0,1,5.114-8.942,9.228,9.228,0,0,0-.524,5.877c.429-.619.858-1.223,1.287-1.842a2.074,2.074,0,0,1,.079,1.35A1.552,1.552,0,0,1,31.2,62.8c.349-.206.921.079.81.461a1.616,1.616,0,0,1,.476-1.175c.349-.254,1.017.064.858.461a45.652,45.652,0,0,1,3.605-5.67c-.064,1.128-.127,2.255-.191,3.367l2.017-2.351c.016.7.016,1.4.032,2.112a8.3,8.3,0,0,1,2.478-2.4c-.079.619-.159,1.255-.238,1.874l2.859-3.907a6.993,6.993,0,0,0,1.048,2.478,6.366,6.366,0,0,1,.476-2.176,2.111,2.111,0,0,0,2.255,1.445C47.545,57.524,47.7,56.761,47.513,56.92Z" transform="translate(-4.308 -10.942)"/>
    </clipPath>
    <clipPath id="clip-path-2">
      <path id="Path_1450" data-name="Path 1450" d="M111.972,82.132A151.227,151.227,0,0,0,105.38,4.94C97.82,12.357,90.1,20,85.733,29.638c-3.526,7.767-5.162,17.154-12.1,22.109,2.065-.683,3.177-.651,5-1.811-.286.921-.572,1.858-.874,2.78a3.5,3.5,0,0,0,2.843-.334c.064.969.127,1.954.191,2.922a4.966,4.966,0,0,0,3.653-2.97,6.153,6.153,0,0,1,1.4,6.036,2.726,2.726,0,0,0,1.382-1.318c.445.778.874,1.572,1.318,2.351l2.144-2.478c.4,1.636.794,3.272,1.207,4.908l1.477-.858a2.91,2.91,0,0,1,.413,2.367c.1-.731,1.35-.619,1.62.064a2.564,2.564,0,0,1-.445,2.081A3.841,3.841,0,0,0,97.6,62.4a10.842,10.842,0,0,1,.731,7.37c.651-.762,1.287-1.525,1.938-2.3a3.318,3.318,0,0,1,.572,2.8c.842-1.048,1.7-2.081,2.541-3.129a14.619,14.619,0,0,1,.826,7.91c.4-.635.81-1.271,1.207-1.906a8.474,8.474,0,0,1,.492,3.145,5.408,5.408,0,0,0,1.509-4.193,7.035,7.035,0,0,1,.6,6.21,3.138,3.138,0,0,0,1.287-1.287,28.623,28.623,0,0,1,1.763,4.765C111.082,81.925,111.94,82,111.972,82.132Z" transform="translate(-73.63 -4.94)"/>
    </clipPath>
  </defs>
  <g id="Group_752" data-name="Group 752" transform="translate(-1126.41 -4470.802)">
    <g id="Group_750" data-name="Group 750" transform="translate(1126.41 4635.23)">
      <path id="Path_1151" data-name="Path 1151" d="M3.969,22.158a.707.707,0,0,0,.23.318c.106.071.3.035.318-.088a27.056,27.056,0,0,0,.636-3.375c0-.035-2.209-.23-2.4-.212A9.891,9.891,0,0,0,3.969,22.158Z" transform="translate(2.117 14.428)" fill="#231815"/>
      <path id="Path_1152" data-name="Path 1152" d="M12.809,22.158a.707.707,0,0,0,.23.318c.106.071.3.035.318-.088a27.056,27.056,0,0,0,.636-3.375c0-.035-2.209-.23-2.4-.212A9.891,9.891,0,0,0,12.809,22.158Z" transform="translate(8.897 14.428)" fill="#231815"/>
      <path id="Path_1153" data-name="Path 1153" d="M22.879,22.158a.707.707,0,0,0,.23.318c.106.071.3.035.318-.088a27.056,27.056,0,0,0,.636-3.375c0-.035-2.209-.23-2.4-.212A9.891,9.891,0,0,0,22.879,22.158Z" transform="translate(16.62 14.428)" fill="#231815"/>
      <path id="Path_1154" data-name="Path 1154" d="M44.39,24.477c-.954-7.9-3.34-16.362-9.807-20.992A20.865,20.865,0,0,0,20.465.11,33.67,33.67,0,0,0,9.686,3.026C1.117,6.984-1.18,19.653.516,27.993A7.115,7.115,0,0,0,4.35,33.241c2.633,1.113,5.778-.159,7.7-2.279a10.579,10.579,0,0,0,1.2-1.608,10.966,10.966,0,0,0,2.721,2.986A10.024,10.024,0,0,0,21.9,34.407a11,11,0,0,0,6.555-2.456A12.2,12.2,0,0,0,31.774,28.1,12.393,12.393,0,0,0,34.3,31.916c2.05,2.032,5.513,2.951,7.863,1.272C44.743,31.368,44.778,27.6,44.39,24.477Z" transform="translate(0.004 0.006)" fill="#efeeed"/>
    </g>
    <g id="Group_751" data-name="Group 751" transform="translate(1280.871 4638.157)">
      <path id="Path_1151-2" data-name="Path 1151" d="M3.969,22.158a.707.707,0,0,0,.23.318c.106.071.3.035.318-.088a27.056,27.056,0,0,0,.636-3.375c0-.035-2.209-.23-2.4-.212A9.891,9.891,0,0,0,3.969,22.158Z" transform="translate(2.117 14.428)" fill="#231815"/>
      <path id="Path_1152-2" data-name="Path 1152" d="M12.809,22.158a.707.707,0,0,0,.23.318c.106.071.3.035.318-.088a27.056,27.056,0,0,0,.636-3.375c0-.035-2.209-.23-2.4-.212A9.891,9.891,0,0,0,12.809,22.158Z" transform="translate(8.897 14.428)" fill="#231815"/>
      <path id="Path_1153-2" data-name="Path 1153" d="M22.879,22.158a.707.707,0,0,0,.23.318c.106.071.3.035.318-.088a27.056,27.056,0,0,0,.636-3.375c0-.035-2.209-.23-2.4-.212A9.891,9.891,0,0,0,22.879,22.158Z" transform="translate(16.62 14.428)" fill="#231815"/>
      <path id="Path_1154-2" data-name="Path 1154" d="M44.39,24.477c-.954-7.9-3.34-16.362-9.807-20.992A20.865,20.865,0,0,0,20.465.11,33.67,33.67,0,0,0,9.686,3.026C1.117,6.984-1.18,19.653.516,27.993A7.115,7.115,0,0,0,4.35,33.241c2.633,1.113,5.778-.159,7.7-2.279a10.579,10.579,0,0,0,1.2-1.608,10.966,10.966,0,0,0,2.721,2.986A10.024,10.024,0,0,0,21.9,34.407a11,11,0,0,0,6.555-2.456A12.2,12.2,0,0,0,31.774,28.1,12.393,12.393,0,0,0,34.3,31.916c2.05,2.032,5.513,2.951,7.863,1.272C44.743,31.368,44.778,27.6,44.39,24.477Z" transform="translate(0.004 0.006)" fill="#efeeed"/>
    </g>
    <g id="Group_749" data-name="Group 749" transform="translate(1134.928 4471.064)">
      <path id="Path_1418" data-name="Path 1418" d="M167.754,128.348A13.645,13.645,0,0,0,165.9,123.5c.858.445,1.588-.953,1.223-1.842s-1.207-1.572-1.366-2.51c-.159-.953,1.287-1.906,1.684-1.032a14.95,14.95,0,0,0-4.479-12.976c.588-.254-.969-1.461-.381-1.715q1.358-10.245,2.732-20.473A126.962,126.962,0,0,0,166.9,63.338c-.175-7.608-1.715-15.121-3.24-22.57q-2.716-13.27-5.448-26.525c-.794-3.875-1.668-7.894-4.1-11.007s-8.386-4.686-10.61-1.429c-2.033,2.986-5.241,4.924-8.148,7.084a51.78,51.78,0,0,0-19.965,32.846c-.889,5.464-1.922,12.373-7.259,13.818a.734.734,0,0,0-.111-.111l.476-1.668a6.7,6.7,0,0,0-1.334.826,5.361,5.361,0,0,1,.048-3.129,10.3,10.3,0,0,0-3.637,1.985c.111-.365.238-.715.349-1.08a9.982,9.982,0,0,0-2.875,1.842,7.081,7.081,0,0,1,.731-1.842c-1.318.953-2.589,1.97-3.812,3.034.016-.54.032-1.1.048-1.636a7.807,7.807,0,0,0-2.16,1.715,1.482,1.482,0,0,0-.4-.858l-.381,1.1c-.127-.318-.254-.651-.381-.969-.349.413-.683.826-1.032,1.239a1.342,1.342,0,0,1-.381-1.1,4.089,4.089,0,0,0-1.62,2.033,1.706,1.706,0,0,1-.445-.874,2.917,2.917,0,0,0-.921,1.1,2.59,2.59,0,0,1-.985-1.207c-.318.429-.635.858-.969,1.271a1.831,1.831,0,0,0-.492-.6,1.838,1.838,0,0,0-.349.619c-.127-.191-.254-.4-.365-.588a.862.862,0,0,0-.191.651,1.772,1.772,0,0,1-.445-.635.965.965,0,0,1-.27.619c-.334-.858-.667-1.731-1-2.589a7.089,7.089,0,0,1-1.318,3.526.482.482,0,0,0-.191-.54,1.4,1.4,0,0,1-.127.715,1.016,1.016,0,0,0-.381-.858c-.127.254-.254.508-.365.747a1.817,1.817,0,0,0-.27-.858,3.062,3.062,0,0,0-.508.953,3.27,3.27,0,0,1-.349-1.731A12.031,12.031,0,0,0,79.46,59.3c-.064-.381-.127-.747-.175-1.128-.222.334-.445.667-.651,1a6.73,6.73,0,0,1-.079-1.382,2.456,2.456,0,0,0-1.144,1.017c-.54-.381-1.048-.747-1.112-1.4.032-.048.079-.1.111-.143A10.551,10.551,0,0,0,75,58.891l-.461-.461-.286.429a1.615,1.615,0,0,0-.6-.619.8.8,0,0,0-.143.524c-.143-.159-.3-.318-.445-.492a4.583,4.583,0,0,1-.064.461c-.222-.27-.429-.556-.651-.826-.064.159-.127.318-.175.476-.222-.254-.445-.508-.667-.778l-.238,1.239a7.013,7.013,0,0,1-2.287-4.352,6.339,6.339,0,0,0-1.541,2.462L67.008,56c-.143.349-.3.7-.445,1.064a2.445,2.445,0,0,1-.318-1.525,7.135,7.135,0,0,0-.905,1.541,4.438,4.438,0,0,1-.826-2.065,9.613,9.613,0,0,0-.874,2.081c-.27-.238-.524-.476-.794-.731a1.026,1.026,0,0,1-.238.921,2.317,2.317,0,0,1-.667-.985c-.127.238-.238.492-.365.731a3.357,3.357,0,0,1-1.032-2,7.687,7.687,0,0,1-.445,2.255c-.556-.492-.842-.762-.222-.54A208.288,208.288,0,0,0,31.509,17.4C28.555,14.18,25.426,11,21.551,8.97,9,2.411,5.858,20.041,4.683,28.348,3.063,39.625,3.492,51.172.458,62.163c-2.081,7.529,3.574,14.8,5.257,22.427,1.128,5.146.413,10.515.921,15.772.461,4.892,2.271,11.245,6.385,13.882.524-.445,1.175-.731,1.715-.365.683.461-.6,1.715-.762.889a9.144,9.144,0,0,1-.953-.524,3.38,3.38,0,0,0-.413.413,10.405,10.405,0,0,0-2.3,7.846c1.255-.667,2.51-1.334,3.764-1.985a2.638,2.638,0,0,1,.889-.461c-.286.159-.588.318-.889.461a3.291,3.291,0,0,0-1.017,3.987c.905-.286,1.827-.572,2.732-.858q-1.572,3.407-3.161,6.83c.429,3.224.858,6.464,1.287,9.689-.651,1.842-1.3,3.669-1.954,5.511,1.461,1.747,2.907,3.51,4.368,5.257-.206,1.3-.4,2.6-.6,3.923,2.049,1.032,2.748,4.844,1.461,6.75l3.431,8.2c-.842,1.636-1.668,3.288-2.51,4.924.858-.222,1.715-.445,2.573-.683a3.447,3.447,0,0,0-.667,3.717,2.67,2.67,0,0,1,2.668-.778c-.556,1.271-1.112,2.557-1.668,3.828,1.779.238,2.16,3.256.492,3.923a18.816,18.816,0,0,1,7.957,16.217c-.048-.683,1.08-.842,1.541-.334a4.184,4.184,0,0,1,.635,1.938c.6,2.494,3.24,3.828,5.607,4.844l19.774,8.529a7.981,7.981,0,0,1,6.115,2.859c.016-.826.032-1.668.048-2.494a8.3,8.3,0,0,0,5.766,2.351c.191-.683.381-1.366.556-2.065a32.906,32.906,0,0,0,9.307,3.24c-.6-.858-1.191-1.731-1.795-2.589.635,1.318,4.94,3.288,6.321,3.78a3.909,3.909,0,0,0,1.588-2.4c.81,2.446,6.067-2.811,6.385-.238,1.906-.191,3.812-.4,5.718-.588.715.413,1.445.826,2.16,1.223.143-.842.3-1.684.445-2.525,1.144-.191,2.287-.4,3.447-.588a1.331,1.331,0,0,0,.921-1.207c-.127-.032-.254-.079-.365-.111.254-.159.349-.064.365.111,2.017.667,5.559,1.4,7.274,2.3a4.8,4.8,0,0,0,1.334-3.764l7.814,1.1c.111-.985.222-1.969.334-2.97l6.687-.762a2.945,2.945,0,0,1,1.35-2.8c2.875.334,5.75.651,8.624.985.206-1.557.4-3.129.6-4.686,1.827.524,3.605-2.033,2.478-3.574a4.981,4.981,0,0,1,3.034.365,10.185,10.185,0,0,1,1.4-4.828l2.859,1.525a4.157,4.157,0,0,1-1.223-2.668c.079-1,1.366-1.858,2.1-1.175.1-1.239.206-2.494.3-3.733a1.986,1.986,0,0,0,2.224.635c.921-1.207,1.842-2.4,2.764-3.605.889.619,1.763,1.255,2.652,1.874a12.892,12.892,0,0,0-.461-6.5.408.408,0,0,1-.143-.477c.064.159.1.318.143.477a1.063,1.063,0,0,0,1.445-.3c.365-.7.159-1.588.461-2.319.286-.731,1.668-.969,1.684-.175a24.347,24.347,0,0,1-.477-5.48,7.954,7.954,0,0,1-2.382.715,1.874,1.874,0,0,1,2.446-1.954q-.048.619-.048,1.239c2.271-.937,5.13-2.478,6.528-2.525-.921-2-1.842-3.987-2.764-5.988a2.648,2.648,0,0,0,2.684-.747c-.794-1.7-1.572-3.4-2.367-5.083.81.619,1.636,1.239,2.446,1.842-1-2.541-1.985-5.083-2.986-7.608.953.556,1.89,1.112,2.843,1.668a15.938,15.938,0,0,1-.048-13.246c-.858-1.588-1.715-3.177-2.589-4.765a3.178,3.178,0,0,0,2.748.7c-.635-1.541-1.255-3.081-1.89-4.638,1.048,1.112,3.081-.254,3.1-1.795.016-1.525-1.144-2.78-2.208-3.875C165.737,128.189,166.738,128.284,167.754,128.348Z" transform="translate(0 0)" fill="#fff" stroke="#ebebeb" stroke-width="0.5"/>
      <g id="Group_736" data-name="Group 736" transform="translate(17.85 161.273)">
        <path id="Path_1419" data-name="Path 1419" d="M152.472,114.326c2.271-.937,5.083-2.51,6.48-2.557-.921-2-1.827-4.13-2.748-6.115a2.648,2.648,0,0,0,2.684-.747c-.27-.572-.54-1.159-.81-1.731-.286.143-.572.286-.842.429a5.805,5.805,0,0,0-1.255-2.049,5.441,5.441,0,0,1-.508,2.954.943.943,0,0,1-.127.064,6.105,6.105,0,0,0-.143-1.7,16.7,16.7,0,0,1-1.112,2.112,4.025,4.025,0,0,0-.635-2c-.206.556-.413,1.1-.619,1.652a1.5,1.5,0,0,1-.4.667.518.518,0,0,1-.715,0,1.052,1.052,0,0,1-.191.524.533.533,0,0,0-.349-.476,1.516,1.516,0,0,1-.54,1.207c-.222-.27-.572-.175-.842-.381a.669.669,0,0,1-.191.651,1.28,1.28,0,0,1-.6-.3.994.994,0,0,0-.254.667l-.731-.778a1.9,1.9,0,0,1-.81,1.715c-.6-.953-1.207-1.922-1.827-2.875a5.732,5.732,0,0,1-.461,3.7l-.477-.715c-.159.27-.318.524-.476.794l-.334-.762a3.253,3.253,0,0,0-.667.937,19.958,19.958,0,0,0-1.938-2.843,11.894,11.894,0,0,1-1,4.86,2.01,2.01,0,0,1-.81-.778c-.016.238-.016.492-.032.731l-1.445-1.445a7.733,7.733,0,0,1-.6,1.954,2.947,2.947,0,0,0-1-1.636,6.8,6.8,0,0,1-.381,2.112c-.175-.143-.349-.286-.524-.445a.836.836,0,0,1-.206.429.891.891,0,0,0-.334-.6l-.286.81a2.2,2.2,0,0,0-.683-.842,3.209,3.209,0,0,1-.874,1.525,5.905,5.905,0,0,0-1.017-3.971c-.413,1.064-.842,2.128-1.255,3.192-.1-.3-.175-.6-.27-.905a.366.366,0,0,0-.318.445c-.206-.318-.413-.635-.619-.969-.079.318-.159.635-.254.953a3.457,3.457,0,0,0-.778-1.286,4.956,4.956,0,0,1-.746,1.795,15.919,15.919,0,0,0-1.652-7.5.461.461,0,0,1-.238-.143,21.126,21.126,0,0,1,.874,7.179l-.524-1.144a9.644,9.644,0,0,0-.334,1.636,5.523,5.523,0,0,1-.635-2.112,3.271,3.271,0,0,0-.445,1.541,6.013,6.013,0,0,1-.619-3.891,8.2,8.2,0,0,0-1.985,3.256,2.664,2.664,0,0,0-.858-1.652c-.079.27-.143.556-.222.826a4.16,4.16,0,0,1-.461-1.287c-.175.413-.365.826-.54,1.239-.7-2.907-1.4-5.8-2.1-8.7a31.01,31.01,0,0,1-1.017,5.114,8.779,8.779,0,0,1-1.747,3.605l.81.762c-14.184,9.085-34.45,5.559-52.557,7.481a21.972,21.972,0,0,1-13.644-3.05,4.928,4.928,0,0,1-2.033,3.955c-1.954-3.129-3.891-6.242-5.845-9.371-.175-2.3-.715-4.622-.127-6.83a13.284,13.284,0,0,0-2.081,3.32c-.1.032-.191.079-.286.111a5.635,5.635,0,0,1-.238-1.7,12.06,12.06,0,0,0-1.715,2.3c-.1-.365-.175-.715-.27-1.08a2.352,2.352,0,0,0-.667,1.191,3.289,3.289,0,0,1,.588-2.446,10.708,10.708,0,0,0-3.383,3.574c-.048-.365-.111-.731-.159-1.1-.3.556-.6,1.1-.889,1.652a7.789,7.789,0,0,1,.079-2.351,4.7,4.7,0,0,0-1.271,1.477.814.814,0,0,1-.1.715,2.468,2.468,0,0,1-.889-.445,1.03,1.03,0,0,1-.127.651,5.547,5.547,0,0,1-1.112-.905c-.206.238.254.651.048.889-.159.175-.445-.048-.572-.238a17.287,17.287,0,0,1-1.35-1.906c.032.762.048,1.509.079,2.271a3.663,3.663,0,0,1-1.223-1.144,4.147,4.147,0,0,1-.191,1.652,2.826,2.826,0,0,1-.318-1.4.231.231,0,0,0-.238-.222,3.716,3.716,0,0,0-.953,1.874,2.614,2.614,0,0,1-.413-1.239c-.127.334-.254.651-.381.985a4.441,4.441,0,0,1-.588-2.017,3.365,3.365,0,0,0-.365,2.112,2.178,2.178,0,0,1-.667-.461l-.191.381c-.27-.238-.524-.492-.794-.731a.97.97,0,0,1,.079.81,9.208,9.208,0,0,1-1.287-1.318c-.111.3-.222.588-.334.889a2.449,2.449,0,0,1-1.191-1.144c-.016.3-.032.588-.048.889a3.561,3.561,0,0,1-1.779-2.033,9.4,9.4,0,0,1-.111,1.763,1.524,1.524,0,0,1-.826-1.017,1.36,1.36,0,0,1-.365.524,2.767,2.767,0,0,1-.556-1.017l-.349.4a2.362,2.362,0,0,1-.572-.794c-.032.206-.079.413-.111.619l-1.366-1.318c.1.206.191.429.286.635-.016-.016-.032-.016-.048-.032.413,1,.842,2.017,1.255,3.018-.842,1.636-1.668,3.288-2.51,4.924.858-.222,1.715-.445,2.573-.683a3.447,3.447,0,0,0-.667,3.717,2.67,2.67,0,0,1,2.668-.778c-.556,1.271-1.112,2.557-1.668,3.828,1.779.238,2.16,3.256.492,3.923A18.816,18.816,0,0,1,22.6,141.009c-.048-.683,1.08-.842,1.541-.334a4.184,4.184,0,0,1,.635,1.938c.6,2.494,3.24,3.828,5.607,4.844l19.774,8.529a7.981,7.981,0,0,1,6.115,2.859c.016-.826.032-1.668.048-2.494a8.3,8.3,0,0,0,5.766,2.351c.191-.683.381-1.366.556-2.065a32.906,32.906,0,0,0,9.307,3.24c-.6-.858-1.191-1.731-1.795-2.589.635,1.318,4.94,3.288,6.321,3.78a3.909,3.909,0,0,0,1.588-2.4c.81,2.446,6.067-2.811,6.385-.238,1.906-.191,3.812-.4,5.718-.588.715.413,1.445.826,2.16,1.223.143-.842.3-1.684.445-2.525,1.144-.191,2.287-.4,3.447-.588a1.331,1.331,0,0,0,.921-1.207c-.127-.032-.254-.079-.365-.111.254-.159.349-.064.365.111,2.017.667,5.559,1.4,7.274,2.287a4.8,4.8,0,0,0,1.334-3.764l7.814,1.1c.111-.985.222-1.97.334-2.97l6.687-.762a2.945,2.945,0,0,1,1.35-2.8c2.875.334,5.75.651,8.624.985.206-1.557.4-3.129.6-4.686,1.827.524,3.605-2.033,2.478-3.574a4.981,4.981,0,0,1,3.034.365,10.185,10.185,0,0,1,1.4-4.828l2.859,1.525a4.157,4.157,0,0,1-1.223-2.668c.064-1,1.366-1.858,2.1-1.175.1-1.239.206-2.494.3-3.733a1.986,1.986,0,0,0,2.224.635c.921-1.207,1.842-2.4,2.764-3.605.889.619,1.763,1.255,2.652,1.874a12.892,12.892,0,0,0-.461-6.5.408.408,0,0,1-.143-.476c.064.159.1.318.143.476a1.063,1.063,0,0,0,1.445-.3c.365-.7.159-1.588.461-2.319s1.668-.969,1.684-.175C152.552,117.852,152.282,114.231,152.472,114.326Z" transform="translate(-11.24 -101.54)" fill="#f4f4f4"/>
        <path id="Path_1420" data-name="Path 1420" d="M16.53,105.65a3.223,3.223,0,0,0,.286.413c.032-.1.064-.175.1-.27Q16.7,105.721,16.53,105.65Z" transform="translate(-8.128 -99.122)" fill="#f4f4f4"/>
        <path id="Path_1421" data-name="Path 1421" d="M83.384,103.691c-.048-.159-.079-.318-.127-.461A.463.463,0,0,0,83.384,103.691Z" transform="translate(31.117 -100.546)" fill="#f4f4f4"/>
      </g>
      <path id="Path_1422" data-name="Path 1422" d="M54.5,131.436c13.183,3.653,17.6-4.622,22.633-14.279-4.479.191-9.053.365-13.374-.969-2.065-.635-4.082-1.62-6.21-1.588-2.414.048-4.622,1.382-6.7,2.684-2.1,1.318-4.654,2.478-6.321,4.3-1.017,1.128,3.812,5.7,4.527,6.337A15.136,15.136,0,0,0,54.5,131.436Z" transform="translate(26.108 67.416)" fill="#333535"/>
      <path id="Path_1423" data-name="Path 1423" d="M65.11,135.07c.111.032.238.079.365.111C65.475,135.006,65.364,134.911,65.11,135.07Z" transform="translate(38.302 79.411)" fill="#fff"/>
      <path id="Path_1424" data-name="Path 1424" d="M45.675,89.378a6.6,6.6,0,0,1,3.764-2.462,11.342,11.342,0,0,1,.889,4.4,10.811,10.811,0,0,1,4.145-3.923c.334.921.683,1.842,1.017,2.748a35.817,35.817,0,0,1,9.641-8.45c0,1.414,0,2.843.016,4.257a3.963,3.963,0,0,1,3.939-3.733c0,.794.016,1.588.016,2.382.619-.651,1.239-1.287,1.842-1.938a2.339,2.339,0,0,1,1.017,3.3c1-2.446,3.59-3.542,6.194-4.384a36.28,36.28,0,0,1-.111-9.99,7.372,7.372,0,0,1,.747-1.985,4.968,4.968,0,0,1-.318.477,7.938,7.938,0,0,1-2.319-6.4,6.25,6.25,0,0,1-2.827,3.59,6.057,6.057,0,0,0-1.271,4.114c.111-1.3-2.255-.4-2.24.921s.715,2.907-.286,3.764a25.176,25.176,0,0,0-6.56-18.488,29.194,29.194,0,0,1,2.192,19.854,32.619,32.619,0,0,0-3.415-15.756q-1.644,8.339-3.3,16.677c-.524-2.573-1.048-5.146-1.572-7.7-.445,1.89-.889,3.8-1.334,5.686a14.24,14.24,0,0,1-1-9.022A11.073,11.073,0,0,0,51.107,77.1l-2.049-4.336c-.1,1.557-.191,3.1-.27,4.654-.858-1.287-1.731-2.589-2.589-3.875a10.892,10.892,0,0,0,.27,6.131,4.462,4.462,0,0,0-2.859-3.494A59.605,59.605,0,0,1,45.373,87.17,1.728,1.728,0,0,1,45.675,89.378Z" transform="translate(25.653 33.871)" fill="#f4f4f4"/>
      <g id="Group_737" data-name="Group 737" transform="translate(40.213 111.927)">
        <path id="Path_1425" data-name="Path 1425" d="M39.281,72.2A11.385,11.385,0,0,1,51.193,82.7a2.349,2.349,0,0,1,.349.016,11.407,11.407,0,0,0-11.928-12.23,14.976,14.976,0,0,0-8.2,3.272c-2.367,1.811-4.257,4.813-6.1,7.163.111.27.27.524.4.778,1.62-2.16,3.32-4.638,5.384-6.226A14.833,14.833,0,0,1,39.281,72.2Z" transform="translate(-25.32 -70.472)" fill="#b0ac9f"/>
        <path id="Path_1426" data-name="Path 1426" d="M50.819,83.744c.318.1.651.191.969.286a15,15,0,0,1-13.644,7.116A15.027,15.027,0,0,1,25.66,82.14c1.842-2.351,3.733-5.337,6.1-7.163a14.928,14.928,0,0,1,8.2-3.272,11.407,11.407,0,0,1,11.928,12.23C51.534,83.871,50.8,84.11,50.819,83.744Z" transform="translate(-25.12 -69.754)" fill="#231815"/>
        <path id="Path_1427" data-name="Path 1427" d="M50.813,83.733c.222.064.429.127.651.191a1.263,1.263,0,0,1,.429.016A11.4,11.4,0,0,0,41.029,71.71,9.291,9.291,0,0,1,45.016,74.2a9.5,9.5,0,0,1,2.494,7.243,1.231,1.231,0,0,0-.349-.016,1.736,1.736,0,0,0,.27.079,11.957,11.957,0,0,1-20.743-.731c-.334.461-.683.921-1.017,1.35a15.005,15.005,0,0,0,12.484,9.006A14.969,14.969,0,0,0,51.8,84.019l-.334-.1C51.131,83.94,50.813,83.972,50.813,83.733Z" transform="translate(-25.114 -69.743)" fill="#333535"/>
        <circle id="Ellipse_559" data-name="Ellipse 559" cx="1.731" cy="1.731" r="1.731" transform="translate(19.361 8.05)" fill="#fff"/>
      </g>
      <g id="Group_738" data-name="Group 738" transform="translate(107.732 110.13)">
        <path id="Path_1428" data-name="Path 1428" d="M82.009,71.294A11.373,11.373,0,0,0,68.7,79.95a.924.924,0,0,0-.349-.032,11.425,11.425,0,0,1,13.6-10.372,14.876,14.876,0,0,1,7.624,4.431c2.081,2.144,3.526,5.368,4.987,7.973a7.307,7.307,0,0,1-.508.715c-1.287-2.382-2.6-5.067-4.431-6.941A14.705,14.705,0,0,0,82.009,71.294Z" transform="translate(-67.524 -69.34)" fill="#b0ac9f"/>
        <path id="Path_1429" data-name="Path 1429" d="M68.91,81.036l-1,.143A14.656,14.656,0,0,0,94.037,83.1c-1.477-2.589-2.922-5.829-4.987-7.973A14.812,14.812,0,0,0,81.426,70.7a11.425,11.425,0,0,0-13.6,10.372C68.2,81.052,68.878,81.4,68.91,81.036Z" transform="translate(-67.83 -68.664)" fill="#231815"/>
        <path id="Path_1430" data-name="Path 1430" d="M68.91,81.032l-.667.1a1.371,1.371,0,0,0-.413-.048,11.427,11.427,0,0,1,12.532-10.53,9.324,9.324,0,0,0-4.3,1.89,9.458,9.458,0,0,0-3.526,6.8,1.425,1.425,0,0,1,.349.032c-.1.016-.191.032-.27.048A11.947,11.947,0,0,0,93.227,81.6q.405.762.81,1.477a14.656,14.656,0,0,1-26.128-1.922l.334-.048C68.561,81.191,68.894,81.27,68.91,81.032Z" transform="translate(-67.83 -68.659)" fill="#333535"/>
        <circle id="Ellipse_560" data-name="Ellipse 560" cx="1.731" cy="1.731" r="1.731" transform="translate(4.527 7.147)" fill="#fff"/>
      </g>
      <path id="Path_1431" data-name="Path 1431" d="M35.137,90.835c1.128-.762,2.255-1.541,3.383-2.3a32.707,32.707,0,0,0-3.685,5.591c.508-.381,1-.762,1.509-1.144a23.248,23.248,0,0,0-4.034,12.135,42.265,42.265,0,0,0,5.162-9.006c.731-1.731,1.334-3.51,2.192-5.178,1.922-3.812,4.956-6.417,8.307-8.91C43.206,83.227,38.457,87.2,35.137,90.835Z" transform="translate(19.006 48.249)" fill="#f4f4f4"/>
      <path id="Path_1432" data-name="Path 1432" d="M80.052,90.609c-1.08-.842-2.16-1.668-3.224-2.51a31.421,31.421,0,0,1,3.32,5.813l-1.429-1.239a23.379,23.379,0,0,1,3.272,12.373,42.4,42.4,0,0,1-4.59-9.323c-.619-1.763-1.112-3.59-1.858-5.3C73.841,86.5,70.983,83.7,67.79,81,72.476,82.493,76.955,86.766,80.052,90.609Z" transform="translate(39.879 47.649)" fill="#f4f4f4"/>
      <path id="Path_1433" data-name="Path 1433" d="M90.234,65.7a63.269,63.269,0,0,0,6.591,38.1c2.986,5.575,6.846,10.61,8.942,16.677a32.185,32.185,0,0,1-2.891,26.842c-4.813,7.672-13.151,12.373-21.506,12.119-5.353-.175-9.975-1.954-12.643-7.163-.826,2.6-3.256,4.114-5.607,4.971a23.5,23.5,0,0,1-24.968-6.306c-6.5-6.925-9.244-17.98-6.909-27.684,2.7-11.229,11.213-19.409,15.994-29.733,2.017-4.368,3.383-9.323,2.748-14.2.858,1.541,2.494,1.62,3.351,3.161l1.525-4.431a2.8,2.8,0,0,0,2.176,2.208,5.3,5.3,0,0,1,.651-3.351,9.748,9.748,0,0,0,2.6,4.94,27.733,27.733,0,0,1-.206-10.912C61.6,74.02,63.122,77.1,64.63,80.183c.1-1.652.191-3.32.286-4.971.715,1.89,1.445,3.8,2.16,5.686.492-1.89,1-3.8,1.493-5.686.54,1.906,1.08,3.812,1.6,5.734a26.765,26.765,0,0,1,4.32-11.785,32.3,32.3,0,0,0,1.731,10.006c.985-2.986,1.954-5.956,2.938-8.942a14.164,14.164,0,0,0,.874,6.464c.7-2.478,1.382-4.94,2.081-7.417a9.4,9.4,0,0,0,1.588,6.814A25.34,25.34,0,0,1,87.55,61.52c.032,4.225.159,8.434.381,12.659C88.6,70.955,89.583,68.874,90.234,65.7Z" transform="translate(17.895 36.189)" fill="#fff"/>
      <g id="Group_744" data-name="Group 744" transform="translate(30.477 149.789)">
        <g id="Group_739" data-name="Group 739" transform="translate(26.62 3.733)">
          <circle id="Ellipse_561" data-name="Ellipse 561" cx="0.683" cy="0.683" r="0.683" transform="translate(10.086)" fill="#c6c8c8"/>
          <circle id="Ellipse_562" data-name="Ellipse 562" cx="0.683" cy="0.683" r="0.683" transform="translate(10.769 6.846)" fill="#c6c8c8"/>
          <circle id="Ellipse_563" data-name="Ellipse 563" cx="0.683" cy="0.683" r="0.683" transform="translate(0 15.565)" fill="#c6c8c8"/>
          <circle id="Ellipse_564" data-name="Ellipse 564" cx="0.683" cy="0.683" r="0.683" transform="translate(4.797 8.895)" fill="#c6c8c8"/>
          <circle id="Ellipse_565" data-name="Ellipse 565" cx="0.683" cy="0.683" r="0.683" transform="translate(4.114 3.065)" fill="#c6c8c8"/>
          <circle id="Ellipse_566" data-name="Ellipse 566" cx="0.683" cy="0.683" r="0.683" transform="translate(0.683 6.846)" fill="#c6c8c8"/>
          <circle id="Ellipse_567" data-name="Ellipse 567" cx="0.683" cy="0.683" r="0.683" transform="translate(13.501 12.818)" fill="#c6c8c8"/>
          <circle id="Ellipse_568" data-name="Ellipse 568" cx="0.683" cy="0.683" r="0.683" transform="translate(6.417 14.184)" fill="#c6c8c8"/>
          <circle id="Ellipse_569" data-name="Ellipse 569" cx="0.683" cy="0.683" r="0.683" transform="translate(2.049 22.697)" fill="#c6c8c8"/>
          <circle id="Ellipse_570" data-name="Ellipse 570" cx="0.683" cy="0.683" r="0.683" transform="translate(14.882 18.345)" fill="#c6c8c8"/>
          <circle id="Ellipse_571" data-name="Ellipse 571" cx="0.683" cy="0.683" r="0.683" transform="translate(9.403 20.616)" fill="#c6c8c8"/>
        </g>
        <g id="Group_740" data-name="Group 740" transform="translate(76.159 1.033)">
          <circle id="Ellipse_572" data-name="Ellipse 572" cx="0.683" cy="0.683" r="0.683" transform="translate(4.813 24.555)" fill="#c6c8c8"/>
          <circle id="Ellipse_573" data-name="Ellipse 573" cx="0.683" cy="0.683" r="0.683" transform="translate(4.447 15.756)" fill="#c6c8c8"/>
          <circle id="Ellipse_574" data-name="Ellipse 574" cx="0.683" cy="0.683" r="0.683" transform="translate(13.516 9.689)" fill="#c6c8c8"/>
          <circle id="Ellipse_575" data-name="Ellipse 575" cx="0.683" cy="0.683" r="0.683" transform="translate(10.086 15.677)" fill="#c6c8c8"/>
          <circle id="Ellipse_576" data-name="Ellipse 576" cx="0.683" cy="0.683" r="0.683" transform="translate(10.769 21.506)" fill="#c6c8c8"/>
          <circle id="Ellipse_577" data-name="Ellipse 577" cx="0.683" cy="0.683" r="0.683" transform="translate(14.215 17.725)" fill="#c6c8c8"/>
          <circle id="Ellipse_578" data-name="Ellipse 578" cx="0.683" cy="0.683" r="0.683" transform="translate(0 20.171)" fill="#c6c8c8"/>
          <circle id="Ellipse_579" data-name="Ellipse 579" cx="0.683" cy="0.683" r="0.683" transform="translate(7.449 9.006)" fill="#c6c8c8"/>
          <circle id="Ellipse_580" data-name="Ellipse 580" cx="0.683" cy="0.683" r="0.683" transform="translate(12.834 1.874)" fill="#c6c8c8"/>
          <circle id="Ellipse_581" data-name="Ellipse 581" cx="0.683" cy="0.683" r="0.683" transform="translate(4.447)" fill="#c6c8c8"/>
          <circle id="Ellipse_582" data-name="Ellipse 582" cx="0.683" cy="0.683" r="0.683" transform="translate(8.831 3.637)" fill="#c6c8c8"/>
        </g>
        <path id="Path_1434" data-name="Path 1434" d="M47.139,97.916c4.225-3.86,10.61-3.78,16.328-3.478,2.748.143,5.511.286,8.259.445,4.4.238,9.276.683,12.262,3.923,10.118,10.975-9.26,30.972-20.807,30.448C50.554,128.681,35.56,108.478,47.139,97.916Z" transform="translate(-5.192 -94.31)" fill="#d2d2d3"/>
        <path id="Path_1435" data-name="Path 1435" d="M48.455,98.932c3.653-3.335,9.149-3.256,14.088-3l7.116.381c3.8.206,7.989.588,10.578,3.383,8.72,9.466-7.973,26.715-17.932,26.255C51.409,125.457,38.48,108.049,48.455,98.932Z" transform="translate(-4.077 -93.42)" fill="#040000"/>
        <g id="Group_741" data-name="Group 741" transform="translate(0 14.121)">
          <path id="Path_1436" data-name="Path 1436" d="M19.84,113.159s13.278-8.847,28.383-9.959" transform="translate(-18.808 -103.2)" fill="none" stroke="#bfbebe" stroke-linecap="round" stroke-linejoin="round" stroke-miterlimit="10" stroke-width="0.25"/>
          <path id="Path_1437" data-name="Path 1437" d="M19.19,125.31S35.311,109.665,50.1,106.33" transform="translate(-19.19 -101.359)" fill="none" stroke="#bfbebe" stroke-linecap="round" stroke-linejoin="round" stroke-miterlimit="10" stroke-width="0.25"/>
          <path id="Path_1438" data-name="Path 1438" d="M24.83,131.214S32.946,115.172,47.5,109.47" transform="translate(-15.872 -99.511)" fill="none" stroke="#bfbebe" stroke-linecap="round" stroke-linejoin="round" stroke-miterlimit="10" stroke-width="0.25"/>
        </g>
        <g id="Group_742" data-name="Group 742" transform="translate(88.818 14.121)">
          <path id="Path_1439" data-name="Path 1439" d="M104.883,113.159S91.6,104.312,76.5,103.2" transform="translate(-74.292 -103.2)" fill="none" stroke="#bfbebe" stroke-linecap="round" stroke-linejoin="round" stroke-miterlimit="10" stroke-width="0.25"/>
          <path id="Path_1440" data-name="Path 1440" d="M106.478,125.31S90.357,109.665,75.57,106.33" transform="translate(-74.839 -101.359)" fill="none" stroke="#bfbebe" stroke-linecap="round" stroke-linejoin="round" stroke-miterlimit="10" stroke-width="0.25"/>
          <path id="Path_1441" data-name="Path 1441" d="M97.775,131.214S89.659,115.172,75.11,109.47" transform="translate(-75.11 -99.511)" fill="none" stroke="#bfbebe" stroke-linecap="round" stroke-linejoin="round" stroke-miterlimit="10" stroke-width="0.25"/>
        </g>
        <g id="Group_743" data-name="Group 743" transform="translate(40.87 2.443)">
          <path id="Path_1442" data-name="Path 1442" d="M70.538,117.691c0-2.382,2.414-4.3,5.368-4.3a6.089,6.089,0,0,1,3.717,1.207c3.288-5.019,4.415-10.705.556-14.882-2.573-2.8-6.766-3.177-10.546-3.367l-7.1-.381c-4.924-.27-10.419-.334-14.056,2.986-4.606,4.209-4.288,10.165-1.588,15.422a6.19,6.19,0,0,1,3.383-.985c2.97,0,5.368,1.922,5.368,4.3a4.348,4.348,0,0,1-3.05,3.86c2.954,2.525,6.4,4.209,9.673,4.368,3.32.159,7.37-1.668,10.991-4.495A4.249,4.249,0,0,1,70.538,117.691Z" transform="translate(-44.922 -95.848)" fill="#1f2020"/>
        </g>
      </g>
      <path id="Path_1443" data-name="Path 1443" d="M47.513,56.92c1.541-2.78-.3-6.163-2.1-8.783Q36.911,35.653,28.39,23.184c-3.78-5.543-8.434-11.611-15.1-12.214a2.769,2.769,0,0,0-1.954.365,3.21,3.21,0,0,0-.937,2.224c-.6,4.32-1.207,8.625-1.811,12.945Q6.725,39.846,4.851,53.2c-.445,3.224-.905,6.544-.111,9.72,1.017,4.114,3.987,7.417,6.846,10.546a6.177,6.177,0,0,1,2.065-3.463A3.482,3.482,0,0,0,14.7,72.882a10.1,10.1,0,0,1,1.541-2.922,5.275,5.275,0,0,0,1.112,1.97A32.454,32.454,0,0,1,20.973,65.5,4.791,4.791,0,0,0,22.4,68.673a2.292,2.292,0,0,1,.826-1.795c-.238-.222-.349.476-.016.492.334.032.588-.286.889-.429s.794.191.556.429a24.186,24.186,0,0,1,5.114-8.942,9.228,9.228,0,0,0-.524,5.877c.429-.619.858-1.223,1.287-1.842a2.074,2.074,0,0,1,.079,1.35A1.552,1.552,0,0,1,31.2,62.8c.349-.206.921.079.81.461a1.616,1.616,0,0,1,.476-1.175c.349-.254,1.017.064.858.461a45.652,45.652,0,0,1,3.605-5.67c-.064,1.128-.127,2.255-.191,3.367l2.017-2.351c.016.7.016,1.4.032,2.112a8.3,8.3,0,0,1,2.478-2.4c-.079.619-.159,1.255-.238,1.874l2.859-3.907a6.993,6.993,0,0,0,1.048,2.478,6.366,6.366,0,0,1,.476-2.176,2.111,2.111,0,0,0,2.255,1.445C47.545,57.524,47.7,56.761,47.513,56.92Z" transform="translate(2.532 6.434)" fill="#f4f4f4"/>
      <path id="Path_1444" data-name="Path 1444" d="M111.972,82.132A151.227,151.227,0,0,0,105.38,4.94c-7.56,7.417-15.28,15.073-19.647,24.7-3.526,7.767-5.162,17.154-12.1,22.109,2.065-.683,3.177-.651,5-1.811-.286.921-.572,1.858-.874,2.78a3.5,3.5,0,0,0,2.843-.334c.064.969.127,1.954.191,2.922a4.966,4.966,0,0,0,3.653-2.97,6.153,6.153,0,0,1,1.4,6.036,2.726,2.726,0,0,0,1.382-1.318c.445.778.874,1.572,1.318,2.351l2.144-2.478c.4,1.636.794,3.272,1.207,4.908l1.477-.858a2.91,2.91,0,0,1,.413,2.367c.1-.731,1.35-.619,1.62.064a2.564,2.564,0,0,1-.445,2.081A3.841,3.841,0,0,0,97.6,62.4a10.842,10.842,0,0,1,.731,7.37c.651-.762,1.287-1.525,1.938-2.3a3.318,3.318,0,0,1,.572,2.8c.842-1.048,1.7-2.081,2.541-3.129a14.619,14.619,0,0,1,.826,7.91c.4-.635.81-1.271,1.207-1.906a8.474,8.474,0,0,1,.492,3.145,5.408,5.408,0,0,0,1.509-4.193,7.035,7.035,0,0,1,.6,6.21,3.138,3.138,0,0,0,1.287-1.287,28.623,28.623,0,0,1,1.763,4.765C111.082,81.925,111.94,82,111.972,82.132Z" transform="translate(43.314 2.903)" fill="#f4f4f4"/>
      <g id="Group_746" data-name="Group 746" transform="translate(6.84 17.377)">
        <g id="Group_745" data-name="Group 745" clip-path="url(#clip-path)">
          <path id="Path_1445" data-name="Path 1445" d="M20.92,45.7c.143-.064.286-.143.429-.206-.127.032-.254.048-.381.079A1.094,1.094,0,0,1,20.92,45.7Z" transform="translate(5.465 9.382)" fill="#e0e0df"/>
          <path id="Path_1446" data-name="Path 1446" d="M22.937,45.02c-.588.238-1.175.492-1.747.762A3.674,3.674,0,0,0,22.937,45.02Z" transform="translate(5.624 9.106)" fill="#e0e0df"/>
          <path id="Path_1447" data-name="Path 1447" d="M20.97,24.51a46.042,46.042,0,0,1,5.67,9.911c-.635-.381-1.255-.762-1.89-1.159.3,1.08.6,2.176.905,3.256a24.7,24.7,0,0,1-4.971-4.447c1.35,2.525,2.716,5.051,4.066,7.576.572,1.048,1.144,2.24.762,3.351-.381-.191-.778-.365-1.159-.556-.016.445-.016.905-.032,1.35a7.645,7.645,0,0,1-2.367-1.445,11.569,11.569,0,0,0,1.525,3.971,12.709,12.709,0,0,1-3.7-2.8c.286.588,1.366,2.7,2.446,5.146-.254-.191-.492-.365-.715-.54.222.762-.079,1.747.1,2.478a29.45,29.45,0,0,1-2.827-1.922,7.4,7.4,0,0,1-.889,3.065,7.8,7.8,0,0,1-2.668-2.319,37.446,37.446,0,0,1,2.049,11.658c2.462-2.033,12.8-5.051,13.945-5.019a15.548,15.548,0,0,0,2.97.079c1.874-.318,3.351-1.969,5.257-1.858A58.217,58.217,0,0,0,20.97,24.51Z" transform="translate(2.112 -2.961)" fill="#e0e0df"/>
        </g>
      </g>
      <g id="Group_748" data-name="Group 748" transform="translate(116.944 7.843)">
        <g id="Group_747" data-name="Group 747" clip-path="url(#clip-path-2)">
          <path id="Path_1449" data-name="Path 1449" d="M98.319,61.932c-.286.318.524.381.794.048,4.685-5.956,5.543-13.961,6.21-21.506-.81,1.048-1.6,2.081-2.414,3.129a24.963,24.963,0,0,0-.651-8.2c-.6,2.4-1.223,4.781-1.827,7.179a.809.809,0,0,0,.286-1.382.794.794,0,0,0-1.159.778c-.222-.747-.445-1.477-.683-2.224a2.4,2.4,0,0,1-1.6,1.207c-.048-.874-.079-1.747-.127-2.621-.429.318-.858.635-1.3.937a68.918,68.918,0,0,1,1-15.962,72.218,72.218,0,0,1-4.924,12.675,3.779,3.779,0,0,1-1.048-2.255c-.588.651-1.159,1.3-1.747,1.938a3.649,3.649,0,0,1-.286-2.319,4.471,4.471,0,0,1-2.065,1.954,11.829,11.829,0,0,1,1.017-6A37.843,37.843,0,0,1,76.67,44.016c2.351.492,3.717,3,5.607,4.479,3.32,2.557,6.623,5.13,9.943,7.687a24.616,24.616,0,0,1,6.147,6.02C98.1,61.963,98.589,62.186,98.319,61.932Z" transform="translate(-71.842 5.873)" fill="#e0e0df"/>
        </g>
      </g>
    </g>
  </g>
</svg>
