<svg xmlns="http://www.w3.org/2000/svg" xmlns:xlink="http://www.w3.org/1999/xlink" width="275.67" height="180.572" viewBox="0 0 275.67 180.572">
  <defs>
    <radialGradient id="radial-gradient" cx="0.5" cy="0.5" r="0.529" gradientTransform="translate(0 -0.009) scale(1 1.041)" gradientUnits="objectBoundingBox">
      <stop offset="0.141" stop-color="#3e3a39"/>
      <stop offset="0.559" stop-color="#424242"/>
      <stop offset="0.863" stop-color="#3e3a39"/>
    </radialGradient>
    <radialGradient id="radial-gradient-2" cx="0.5" cy="0.5" r="0.529" xlink:href="#radial-gradient"/>
  </defs>
  <g id="Group_699" data-name="Group 699" transform="translate(-716.33 -4270.395)">
    <g id="Group_697" data-name="Group 697" transform="translate(756.004 4405.322)">
      <path id="Path_1309" data-name="Path 1309" d="M3.993,22.224a.721.721,0,0,0,.234.324c.108.072.306.036.324-.09A27.587,27.587,0,0,0,5.2,19.017c0-.036-2.252-.234-2.45-.216C2.732,19.827,3.561,21.251,3.993,22.224Z" transform="translate(2.208 15.075)" fill="#231815"/>
      <path id="Path_1310" data-name="Path 1310" d="M12.833,22.224a.721.721,0,0,0,.234.324c.108.072.306.036.324-.09a27.587,27.587,0,0,0,.649-3.441c0-.036-2.252-.234-2.45-.216C11.572,19.827,12.4,21.251,12.833,22.224Z" transform="translate(9.295 15.075)" fill="#231815"/>
      <path id="Path_1311" data-name="Path 1311" d="M22.9,22.224a.721.721,0,0,0,.234.324c.108.072.306.036.324-.09a27.588,27.588,0,0,0,.649-3.441c0-.036-2.252-.234-2.45-.216C21.642,19.827,22.471,21.251,22.9,22.224Z" transform="translate(17.367 15.075)" fill="#231815"/>
      <path id="Path_1312" data-name="Path 1312" d="M45.261,24.957c-.973-8.053-3.405-16.683-10-21.4A21.274,21.274,0,0,0,20.867.113,34.331,34.331,0,0,0,9.877,3.085C1.139,7.121-1.2,20.039.526,28.543a7.254,7.254,0,0,0,3.91,5.351c2.684,1.135,5.891-.162,7.855-2.324a10.787,10.787,0,0,0,1.225-1.64,11.182,11.182,0,0,0,2.775,3.045,10.221,10.221,0,0,0,6.036,2.108,11.219,11.219,0,0,0,6.684-2.5A12.438,12.438,0,0,0,32.4,28.651a12.636,12.636,0,0,0,2.576,3.892c2.09,2.072,5.621,3.009,8.017,1.3C45.622,31.984,45.658,28.146,45.261,24.957Z" transform="translate(0 0)" fill="#94582d"/>
    </g>
    <g id="Group_698" data-name="Group 698" transform="translate(912.004 4405.322)">
      <path id="Path_1309-2" data-name="Path 1309" d="M3.993,22.224a.721.721,0,0,0,.234.324c.108.072.306.036.324-.09A27.587,27.587,0,0,0,5.2,19.017c0-.036-2.252-.234-2.45-.216C2.732,19.827,3.561,21.251,3.993,22.224Z" transform="translate(2.208 15.075)" fill="#231815"/>
      <path id="Path_1310-2" data-name="Path 1310" d="M12.833,22.224a.721.721,0,0,0,.234.324c.108.072.306.036.324-.09a27.587,27.587,0,0,0,.649-3.441c0-.036-2.252-.234-2.45-.216C11.572,19.827,12.4,21.251,12.833,22.224Z" transform="translate(9.295 15.075)" fill="#231815"/>
      <path id="Path_1311-2" data-name="Path 1311" d="M22.9,22.224a.721.721,0,0,0,.234.324c.108.072.306.036.324-.09a27.588,27.588,0,0,0,.649-3.441c0-.036-2.252-.234-2.45-.216C21.642,19.827,22.471,21.251,22.9,22.224Z" transform="translate(17.367 15.075)" fill="#231815"/>
      <path id="Path_1312-2" data-name="Path 1312" d="M45.261,24.957c-.973-8.053-3.405-16.683-10-21.4A21.274,21.274,0,0,0,20.867.113,34.331,34.331,0,0,0,9.877,3.085C1.139,7.121-1.2,20.039.526,28.543a7.254,7.254,0,0,0,3.91,5.351c2.684,1.135,5.891-.162,7.855-2.324a10.787,10.787,0,0,0,1.225-1.64,11.182,11.182,0,0,0,2.775,3.045,10.221,10.221,0,0,0,6.036,2.108,11.219,11.219,0,0,0,6.684-2.5A12.438,12.438,0,0,0,32.4,28.651a12.636,12.636,0,0,0,2.576,3.892c2.09,2.072,5.621,3.009,8.017,1.3C45.622,31.984,45.658,28.146,45.261,24.957Z" transform="translate(0 0)" fill="#94582d"/>
    </g>
    <g id="Group_696" data-name="Group 696" transform="translate(716.33 4270.355)">
      <g id="Group_686" data-name="Group 686" transform="translate(50.91 3.778)">
        <path id="Path_1267" data-name="Path 1267" d="M144.37,86.625c-.073.922-.146,1.859-.22,2.781a.905.905,0,0,0,.249.161C145.248,89.9,145.248,86.333,144.37,86.625Z" transform="translate(15.941 36.368)" fill="#b47c4a"/>
        <path id="Path_1268" data-name="Path 1268" d="M144.173,88.525l-.015-.015c-.015.366-.044.717-.059,1.083C144.115,89.242,144.144,88.876,144.173,88.525Z" transform="translate(15.918 37.25)" fill="#b47c4a"/>
        <path id="Path_1269" data-name="Path 1269" d="M208.382,59.441c.732.805,1.464,1.61,2.2,2.43A26.862,26.862,0,0,0,207.518,50.8a3.709,3.709,0,0,0,2.869-.864c-1.376-.966-2.752-1.932-4.113-2.9,1.083.073,1.566-1.537.937-2.415a4.327,4.327,0,0,0-2.84-1.361c.615-.981,1.215-1.961,1.83-2.942-.981-.132-1.961-.278-2.957-.41.981-1.3,1.961-2.591,2.928-3.894-1.23,1.625-5.665-2.181-6.265-3.1-1.464-2.21-.5-5.226-2.02-7.363-1.713-2.4-5.445-2.81-7.977-3.908-4.084-1.771-8.109-3.689-12.149-5.562-8.3-3.864-16.672-7.655-25.557-9.968a109.843,109.843,0,0,0-48.6-1.493,99.557,99.557,0,0,0-23.552,7.714c-6.06,2.884-12.076,5.9-18.18,8.724C57.015,23.3,50.5,23.417,47.339,28.57c-2.4,3.923-1.786,10.437-8.153,9.69.981,1.3,1.961,2.591,2.928,3.894-.981.132-1.961.278-2.957.41.615.981,1.215,1.961,1.83,2.942a4.3,4.3,0,0,0-2.84,1.361c-.629.878-.132,2.488.937,2.415-1.376.966-2.752,1.932-4.113,2.9a3.709,3.709,0,0,0,2.869.864A26.862,26.862,0,0,0,34.78,64.11c.732-.805,1.464-1.61,2.2-2.43-1.01,6.031,1.932,11.461,5.109,16.936C45.07,91.175,55.214,105.959,62.24,116.5a26.774,26.774,0,0,0,7.8,18.136c11.9,11.842,26.67,8.021,43.342,6.119s32.774-7.114,49.2-10.568c9.163-1.932,18.59-1.171,19.248-.732,5.006-13.6,16.35-30.856,20.741-45.157,1.581-5.167,3.513-10.363,4.582-15.618A17.348,17.348,0,0,0,208.382,59.441Z" transform="translate(-34.78 -2.594)" fill="#b47c4a"/>
      </g>
      <path id="Path_1270" data-name="Path 1270" d="M142.6,79.936c3.6,7.143,3.762,15.3,4.962,23.1s3.908,16.043,10.92,20.683a1.324,1.324,0,0,1-.351-2.225,1.638,1.638,0,0,1,2.43.542,5.681,5.681,0,0,1-.966-3.981c1.918.586,3.82,1.156,5.738,1.742-.234-2.02-.483-4.025-.717-6.045,2.181.161,4.362.337,6.543.5l-.659-1.976c2.81.483,5.606.981,8.417,1.464a18.477,18.477,0,0,1-3.059-4.2,17.718,17.718,0,0,0,11.286.132c-1.259-1.888-2.518-3.762-3.777-5.65a11.265,11.265,0,0,1,5.445-.293l-1.757-2.371a13.1,13.1,0,0,0,7.1-3.923,8.169,8.169,0,0,1-4.347-6.587,26.865,26.865,0,0,0,7.436.468c-.805-1.23-1.61-2.459-2.4-3.674,1.244.966,3.484.015,3.952-1.434s-.4-2.986-1.6-4a11.791,11.791,0,0,0,8.285-6.338,6.405,6.405,0,0,1-4.611-2.43c2.035-.878,4.055-1.771,6.089-2.649-2.679-.688-5.343-1.361-8.021-2.049,3.542-1.171,5.782-3.162,8.285-5.723a6.525,6.525,0,0,1-4.025-4.362,6.611,6.611,0,0,0,4.406-.22c-1.434-.512-2.884-1.025-4.318-1.537a12.949,12.949,0,0,0,7.29-.717c-2.371-1.493-4.728-2.971-7.1-4.464a9.755,9.755,0,0,0,6.075-2.049c-9.368.79-17.931-3.981-25.235-9.061S169.752,29.787,160.6,28.119c-.585-.1-1.3-.337-1.317-.864s1.259-.278.776.059c-1.127-.278-2.254-.571-3.381-.849.951.351,2.166-.659,1.859-1.537-2.327-.234-4.669-.483-7-.717l3.162-3.6a26.755,26.755,0,0,0-14.345,1.859,23.826,23.826,0,0,0,8.958,11.783c1.244.82,2.664,1.639,3.059,2.971a5.262,5.262,0,0,1-.263,2.8,43.985,43.985,0,0,0-1.3,15.047,16.053,16.053,0,0,1,.015,5.226c-.439,1.918-1.669,3.63-2.679,5.372A29.112,29.112,0,0,0,144.473,76.1c-.176,1.259-.337,2.635-1.391,3.5S142.453,81.195,142.6,79.936Z" transform="translate(65.093 9.408)" fill="#b47c4a"/>
      <path id="Path_1271" data-name="Path 1271" d="M70.495,83.272c-2.62,7.553-1.713,15.648-1.874,23.552s-1.757,16.409-8.109,21.942a1.328,1.328,0,0,0,.059-2.254,1.653,1.653,0,0,0-2.342.849,5.7,5.7,0,0,0,.439-4.069c-1.815.82-3.645,1.654-5.46,2.474-.029-2.035-.059-4.055-.073-6.089l-6.411,1.361c.132-.688.263-1.361.4-2.049-2.708.849-5.431,1.713-8.139,2.562a18.95,18.95,0,0,0,2.474-4.567,17.662,17.662,0,0,1-11.168,1.61c1-2.035,1.991-4.055,3-6.089a11.253,11.253,0,0,0-5.445.424c.468-.864.951-1.727,1.42-2.576a12.957,12.957,0,0,1-7.553-2.957,8.15,8.15,0,0,0,3.44-7.1,26.29,26.29,0,0,1-7.3,1.434c.629-1.317,1.259-2.649,1.9-3.967-1.1,1.127-3.44.468-4.1-.908s-.015-3,1.054-4.172a11.782,11.782,0,0,1-9.046-5.2A6.367,6.367,0,0,0,11.9,84.472c-2.122-.615-4.26-1.215-6.382-1.83q3.842-1.537,7.67-3.089c-3.674-.688-6.162-2.371-8.973-4.582a6.526,6.526,0,0,0,3.411-4.845,6.564,6.564,0,0,1-4.391.351c1.361-.7,2.723-1.391,4.084-2.093A12.846,12.846,0,0,1,0,68.634q3.228-2.679,6.441-5.357a9.766,9.766,0,0,1-6.294-1.23c9.4-.454,17.258-6.309,23.815-12.31s13.013-12.647,21.854-15.5a2.4,2.4,0,0,0,.893-.307c.4-.337-.015-.761-.454-.571,1.054-.454,2.152-.864,3.22-1.288-.908.468-2.24-.366-2.049-1.273l6.85-1.625c-1.2-1.054-2.4-2.093-3.615-3.147a26.811,26.811,0,0,1,14.462-.059,23.844,23.844,0,0,1-7.333,12.866c-1.112.981-2.43,1.976-2.635,3.352a5.227,5.227,0,0,0,.629,2.737,43.4,43.4,0,0,1,3.264,14.74,16.274,16.274,0,0,0,.673,5.182,20.162,20.162,0,0,0,3.367,4.977,28.739,28.739,0,0,1,5.006,9.866c.337,1.215.688,2.576,1.844,3.293S70.817,84.5,70.495,83.272Z" transform="translate(0 11.576)" fill="#b47c4a"/>
      <path id="Path_1272" data-name="Path 1272" d="M138.209,54.532c.7,1.1,1.42,2.2,2.122,3.293A37.354,37.354,0,0,1,158.35,37a19.854,19.854,0,0,0-10.715,3.7c1.083-1.449,2.152-2.9,3.235-4.362A13.264,13.264,0,0,0,144.781,39a13.637,13.637,0,0,1,4.45-4.9l-3.7.659a20.521,20.521,0,0,1,6.675-6.733,26.1,26.1,0,0,0-15.926,6.806,3.927,3.927,0,0,0,1.083-4.23,10.067,10.067,0,0,0-5.343,2.576,2.916,2.916,0,0,0,.644-3.952c-1.112.908-2.21,1.83-3.323,2.737.586-2.049,1.186-4.113,1.771-6.162a12.6,12.6,0,0,0-5.621,2.488A26,26,0,0,1,131.71,17.47a24.982,24.982,0,0,0-15.6,13.452c-.278-1.01-.556-2.005-.82-3.015-.542,1.3-1.1,2.605-1.639,3.908a8.572,8.572,0,0,1-.82-3.908,11.027,11.027,0,0,0-4.084,6.016,19.271,19.271,0,0,1-.761-12.749A26.206,26.206,0,0,0,97.941,35.489l-2.415-3.381c-.4,1.171-.79,2.342-1.186,3.528-1.215-1.654-2.43-3.293-3.645-4.948-.117,1.844-.234,3.7-.366,5.548a38.477,38.477,0,0,0-14.682-12.31c1.244,3.615,2.474,7.246,3.718,10.861a3.166,3.166,0,0,0-4.435.79l-3.82-2.2c.571.937,1.156,1.888,1.727,2.825-5.328-.834-9.295.615-14.638-.2A23.271,23.271,0,0,1,75.824,48.063a2.705,2.705,0,0,1-2.108-1.947c2.62,3.25,6.528,9.134,7.89,13.071A36.495,36.495,0,0,0,91.266,57.9a60.425,60.425,0,0,1,7.3-1.961,33.08,33.08,0,0,1,7.977.088,178.112,178.112,0,0,1,20.873,2.708c5.079,1.069,11.286,2.254,14.682-1.669C141.371,56.669,138.253,53.771,138.209,54.532Z" transform="translate(26.991 8.083)" fill="#a56d42"/>
      <path id="Path_1273" data-name="Path 1273" d="M195.133,72.694a43.693,43.693,0,0,0-12.354-24.05c2.488,1.391,4.962,2.767,7.451,4.157a12.2,12.2,0,0,0-4.567-7.831,12.627,12.627,0,0,1,6.206,2.327c-1.742-3.879-6.148-6.7-10.846-6.968a5.577,5.577,0,0,0,3.074-4.64c0,.132-.6.088-.6.22-5.914,4.362-16.1,2.825-20.039-3.03a21.649,21.649,0,0,1-5.621,5.2c-2.3,1.3-5.372,1.815-7.758.644-.82-.4-1.522-.966-2.357-1.3a4.718,4.718,0,0,0-5.577,1.757c-1.932-1.947-5.592-1.815-8.065-.424s-4.04,8.563-5.533,10.8c-.5-1.8-3.323-2.386-5.167-1.508a5.985,5.985,0,0,0-2.283,2.02,6.284,6.284,0,0,0-2.415-2.02c-1.947-.878-4.933-.293-5.46,1.508-1.566-2.24-3.235-9.412-5.84-10.8s-6.484-1.522-8.534.424a5.193,5.193,0,0,0-5.9-1.757c-.893.337-1.639.908-2.5,1.3-2.532,1.156-5.767.644-8.2-.644a22.359,22.359,0,0,1-5.943-5.2c-4.172,5.84-14.93,7.377-21.181,3.03,0-.132-.644-.088-.644-.22a5.572,5.572,0,0,0,3.25,4.64c-4.977.263-9.632,3.089-11.476,6.968a13.859,13.859,0,0,1,6.558-2.327,12.044,12.044,0,0,0-4.83,7.831c2.62-1.391,5.255-2.767,7.875-4.157A42.9,42.9,0,0,0,42.8,72.694,35.426,35.426,0,0,1,57.584,59.506a24.433,24.433,0,0,0-6.323,10.817,26.8,26.8,0,0,1,5.431-3.352L50.675,77.993a34.947,34.947,0,0,1,18.443-7.26A27.173,27.173,0,0,0,62.37,80.774,31.887,31.887,0,0,1,83.2,76.339c4.64.6,9.046,2.2,13.686,2.84,8.914,1.23,15.867-2.854,21.737-8.475.044.146.073.307.132.454a4.531,4.531,0,0,0,2.327-1.434,4.9,4.9,0,0,0,2.459,1.434c.029-.088.044-.161.073-.249,5.518,5.5,12.017,9.471,20.361,8.256,4.391-.644,8.548-2.24,12.94-2.84a28.772,28.772,0,0,1,19.7,4.435,27.164,27.164,0,0,0-6.382-10.041,31.972,31.972,0,0,1,17.448,7.26C185.795,74.3,183.892,70.63,182,66.956a25.448,25.448,0,0,1,5.138,3.352,24.944,24.944,0,0,0-5.987-10.817A34.23,34.23,0,0,1,195.133,72.694Z" transform="translate(19.849 15.23)" fill="#94582d"/>
      <g id="Group_688" data-name="Group 688" transform="translate(157.618 64.094)">
        <circle id="Ellipse_477" data-name="Ellipse 477" cx="14.052" cy="14.052" r="14.052" fill="#040000"/>
        <g id="Group_687" data-name="Group 687" transform="translate(1.727 1.727)">
          <path id="Path_1274" data-name="Path 1274" d="M121.185,44.98A12.325,12.325,0,1,0,133.51,57.3,12.325,12.325,0,0,0,121.185,44.98Zm0,22.893a11.456,11.456,0,1,1,10.993-11.447A11.223,11.223,0,0,1,121.185,67.873Z" transform="translate(-108.86 -44.98)" fill="url(#radial-gradient)"/>
          <ellipse id="Ellipse_478" data-name="Ellipse 478" cx="2.532" cy="1.83" rx="2.532" ry="1.83" transform="translate(9.793 1.361)" fill="#fff"/>
        </g>
      </g>
      <g id="Group_690" data-name="Group 690" transform="translate(92.671 64.094)">
        <circle id="Ellipse_479" data-name="Ellipse 479" cx="14.052" cy="14.052" r="14.052" fill="#040000"/>
        <g id="Group_689" data-name="Group 689" transform="translate(1.727 1.727)">
          <path id="Path_1275" data-name="Path 1275" d="M76.815,44.98A12.325,12.325,0,1,0,89.14,57.3,12.325,12.325,0,0,0,76.815,44.98Zm0,22.893A11.456,11.456,0,1,1,87.808,56.427,11.223,11.223,0,0,1,76.815,67.873Z" transform="translate(-64.49 -44.98)" fill="url(#radial-gradient-2)"/>
          <ellipse id="Ellipse_480" data-name="Ellipse 480" cx="2.532" cy="1.83" rx="2.532" ry="1.83" transform="translate(9.793 1.361)" fill="#fff"/>
        </g>
      </g>
      <path id="Path_1276" data-name="Path 1276" d="M121.177,68.792c-.146-.015-.132.263.015.293s.278-.1.381-.22a19.361,19.361,0,0,0,4.494-13.525,8.9,8.9,0,0,1-1.742,3.264.715.715,0,0,1-.278-.82c-.161.22-.337.454-.5.673a1.434,1.434,0,0,0-.263-1.025A5.734,5.734,0,0,1,121.543,60a47.312,47.312,0,0,1,.937-9.851,20.805,20.805,0,0,1-1.947,5.987,9.389,9.389,0,0,1-4.494,4.318,8.582,8.582,0,0,0-.981-7.685,45.96,45.96,0,0,1-.088,4.918,1.976,1.976,0,0,1-.644,1.6c-.5.322-1.376-.2-1.083-.717-.337.22-.688.454-1.025.673.073-.424.132-.834.2-1.259l-1.669,1.361a8.691,8.691,0,0,0-.6-6.675,8.172,8.172,0,0,1-1.991,5.387,5.742,5.742,0,0,1-.732-2.723l-.747.747c-.044-.615-.073-1.23-.117-1.83L104.593,55.6c-.19.132-.468.278-.659.132a.572.572,0,0,1-.176-.483c-.044-.776-.673-1.2-.717-1.976l-1.42,1.288c.176-.615.351-1.23.512-1.844a7.185,7.185,0,0,0-2.313,3.4A11.593,11.593,0,0,1,101.9,47.89c-3.5,2.108-7.348,4.743-7.9,8.783a.7.7,0,0,0-.19-1.186c-.263.908-.527,1.8-.79,2.708-.146-.893-.278-1.786-.424-2.679a8.573,8.573,0,0,0-1.083,3.63,13.649,13.649,0,0,1-1.566-8.2A10.4,10.4,0,0,0,89.37,59.6,3.858,3.858,0,0,1,87.2,57.99c-.015.527-.029,1.039-.044,1.566a4.913,4.913,0,0,1-2.635-2.62c.132.615.263,1.244.41,1.859a9.914,9.914,0,0,1-4.874-6.543,26.971,26.971,0,0,0,4.947,14.477c3.308-1.786,7.816-.454,11.491.366C104.315,68.807,113.214,68.924,121.177,68.792Z" transform="translate(37.129 22.191)" fill="#94592f"/>
      <g id="Group_691" data-name="Group 691" transform="translate(62.942 78.19)">
        <path id="Path_1277" data-name="Path 1277" d="M144.07,90.814a7.037,7.037,0,0,0,.776-.1A1.992,1.992,0,0,0,144.07,90.814Z" transform="translate(3.872 -36.142)" fill="#a36428"/>
        <path id="Path_1278" data-name="Path 1278" d="M144.639,101.17c-.688.088-1.376.176-2.079.263A4.8,4.8,0,0,0,144.639,101.17Z" transform="translate(3.172 -31.29)" fill="#a36428"/>
        <path id="Path_1279" data-name="Path 1279" d="M78.16,118.31a12.541,12.541,0,0,0,1,1.156A1.381,1.381,0,0,0,78.16,118.31Z" transform="translate(-26.694 -23.341)" fill="#a36428"/>
        <path id="Path_1280" data-name="Path 1280" d="M194.485,119.255a11.393,11.393,0,0,1-5.8.834,11.391,11.391,0,0,0,6.572-5.621,28.007,28.007,0,0,1-8.973,1.625c3.059-1.771,4.728-4.508,6.836-7.348a1.84,1.84,0,0,0-1.405-.732,7.044,7.044,0,0,1-.776.1,1.752,1.752,0,0,1,.776-.1,6.732,6.732,0,0,0,3.162-1.449c-1.405-.512-2.8-1.025-4.2-1.522.717-.922,1.434-1.859,2.152-2.781-.937-.1-1.874-.19-2.8-.293.454-.351.922-.7,1.376-1.054a8.958,8.958,0,0,1-2.752-3.586,4.574,4.574,0,0,0,3.6-1.683c-2.108,0-3.908-1.6-4.962-3.411a45.984,45.984,0,0,1-2.327-5.855,26.491,26.491,0,0,0-4.567-7.187,40.657,40.657,0,0,0-17.141-11.754c1.508.132.922-1.713,1.493-3.089-2.137,5.109-11.286,2.108-14.8.629-2.181-.922-5.182-4.274-7.026-4.772-1.215-.322-9.91.424-9.91,3.469a19.285,19.285,0,0,0-.278-3.308,49.349,49.349,0,0,1-6.792,3.981,2.744,2.744,0,0,1,1.7-3.1c-1.625.717-3.25,1.434-4.889,2.152-.483-2.971-1.669-7.919,1.522-9.968-8.182,2.122-11.4,4.86-16.423,11.154a19.861,19.861,0,0,0,1.1-5.3l-5.533,3.425a5.06,5.06,0,0,1,.454-3A11.823,11.823,0,0,0,100.731,64a18.236,18.236,0,0,0-10.144-6.367c.1.161.176.322.293.483a13.315,13.315,0,0,1,2.664,2.547,9.185,9.185,0,0,0,1.464.747A9.12,9.12,0,0,0,93.792,61c.249.351.5.7.717,1.069a2.078,2.078,0,0,1,.366,1.727c-.468,1.259-2.386.7-3.411-.161s-2.547-1.874-3.528-.951a3.239,3.239,0,0,1-.366,2.415,16.74,16.74,0,0,1-5.152-1.742,2.282,2.282,0,0,0,.512,2.386c-4.713.893-9.427,1.8-14.14,2.693,1.01,1.215,2.02,2.43,3.03,3.63A32.009,32.009,0,0,0,55.544,80.89c.922.586,1.83,1.186,2.752,1.771a14.462,14.462,0,0,0-8.2,3.981c1.23.629,2.474,1.273,3.7,1.9-.981,1.844-1.961,3.674-2.957,5.518-.527.981-.1,2.913.79,2.254-1.7,2.459-3.411,4.9-5.109,7.363a2.3,2.3,0,0,0,3.147.849c0,2.854-3.835,6.06-6.675,6.382a7.213,7.213,0,0,0,6.119,1.478c-.864,1.347-1.727,2.679-2.605,4.025a5.437,5.437,0,0,0,3.454.542c-1.537,1.654-3.089,4.289-1.522,5.9-.893.41-1.771.82-2.664,1.215a19.18,19.18,0,0,1,9.236,6.821c-.644.688-1.288,1.361-1.932,2.049a20.29,20.29,0,0,0,11.974,1.566c-1.874,1.23-3.864,2.62-5.738,3.85a13.443,13.443,0,0,0,6.982,1.1,3.894,3.894,0,0,0-.659,3.045c.688-.381,1.391-.747,2.079-1.127.22.732.439,1.478.659,2.21,1.1-1.127,2.723.732,3.176,2.24a9.8,9.8,0,0,0,2.2-4.552,14.836,14.836,0,0,0,6.4,5.826c-.512-1-1.039-1.976-1.552-2.971a12.641,12.641,0,0,0,5.431,4.552,2.294,2.294,0,0,1,.849-2.152,16.808,16.808,0,0,0,3.776,3.777,2.811,2.811,0,0,0,.512-3.162,9.152,9.152,0,0,0,1.786,3.718,3.091,3.091,0,0,0,3.762.761,2.063,2.063,0,0,0,.761-2.122,10.639,10.639,0,0,1-1-1.156,1.424,1.424,0,0,1,1,1.156,12.213,12.213,0,0,0,7.114,3.615c-.015-1.025-.015-2.035-.029-3.059,2.122,2.752,4.962,5.27,8.417,5.694s7.377-2.108,7.333-5.577c2.854,1.273,6.441,2.283,8.724,4.421-.2-2.093,3.147-3.352,4.377-1.625a5.882,5.882,0,0,0,4.743-4.055,16.393,16.393,0,0,1,5.518,4.64,39.736,39.736,0,0,0,6.528-8.446c.673,1.1,1.347,2.21,2.035,3.308a8.749,8.749,0,0,1,2.079-2.869c.5.864,1,1.727,1.478,2.591.424-1.537,2.386-1.888,3.923-2.313s3.22-2.108,2.21-3.367c2.079,1.918,5.855,2.825,8.68,2.825a4.424,4.424,0,0,1-.776-3.25,8.688,8.688,0,0,1,3.5.7,2.866,2.866,0,0,0-.556-2.854,5.946,5.946,0,0,1,2.8.6c.088-1.23.176-2.474.249-3.7a16.58,16.58,0,0,0,14.4-5.2,9.378,9.378,0,0,1-5.445-.542,12.061,12.061,0,0,0,7.641-3.132,9.762,9.762,0,0,0-4.1.586,25.5,25.5,0,0,0,7.494-5.635l-3.015.4a4.969,4.969,0,0,1-2.079.263c.688-.088,1.376-.176,2.079-.263A5.353,5.353,0,0,0,194.485,119.255Z" transform="translate(-43 -53.43)" fill="#a36428"/>
      </g>
      <path id="Path_1281" data-name="Path 1281" d="M89.9,40.58a26.882,26.882,0,0,1,1.259,16.189A13.735,13.735,0,0,0,90.4,41.253" transform="translate(41.692 18.801)" fill="#a56d42"/>
      <path id="Path_1282" data-name="Path 1282" d="M104.384,57.345c-.893-1.376-.922-4.991-1.054-6.719-.234-2.942.307-6.4-2.02-10.056C101.354,45.049,101.881,53.51,104.384,57.345Z" transform="translate(46.984 18.796)" fill="#a56d42"/>
      <path id="Path_1283" data-name="Path 1283" d="M52.354,88.272c.908.688,1.8,1.376,2.708,2.064C54.7,85.93,51.724,82.27,49.28,78.6A59.879,59.879,0,0,1,40.746,33C35.813,37.406,30.632,43.788,29.08,50.214a38.584,38.584,0,0,1,5.474-7.977,28.6,28.6,0,0,0-1.991,13.32c.512,5.782,2.723,11.915.2,17.141a17.567,17.567,0,0,0,4.04-15.267l1.976,11.242c1.127,6.367,2.24,12.779,2.122,19.234a15.876,15.876,0,0,0,2.21-16.7C46.074,78.464,46.133,83.529,52.354,88.272Z" transform="translate(13.486 15.286)" fill="#94582d"/>
      <path id="Path_1284" data-name="Path 1284" d="M147.508,86.192c-.908.688-1.8,1.376-2.708,2.064.366-4.406,3.337-8.065,5.782-11.739a59.879,59.879,0,0,0,8.534-45.6c4.933,4.406,10.115,10.788,11.666,17.214a38.583,38.583,0,0,0-5.474-7.977,28.6,28.6,0,0,1,1.991,13.32c-.512,5.782-2.723,11.915-.2,17.141a17.567,17.567,0,0,1-4.04-15.267l-1.976,11.242c-1.127,6.367-2.24,12.779-2.122,19.234a15.876,15.876,0,0,1-2.21-16.7C153.788,76.37,153.714,81.434,147.508,86.192Z" transform="translate(67.152 14.321)" fill="#94582d"/>
      <path id="Path_1285" data-name="Path 1285" d="M16.377,64.116c1.7-2.767,2.679-5.914,4.084-8.841A32.813,32.813,0,0,1,30.487,43.17c-4.172,4.1-5.928,9.983-8.358,15.3-2.24,4.9-6,10.685-11.739,11.622C12.483,68.186,14.84,66.634,16.377,64.116Z" transform="translate(4.818 20.002)" fill="#a56d42"/>
      <path id="Path_1286" data-name="Path 1286" d="M26.984,54.13a86.452,86.452,0,0,0-3.147,10.993c-.776,3.645-1.376,7.451-3.454,10.554A8.935,8.935,0,0,1,12.8,79.8c3.308-3.557,5.4-7.743,7.187-12.5C21.7,62.708,25.462,58.346,26.984,54.13Z" transform="translate(5.936 25.085)" fill="#a56d42"/>
      <path id="Path_1287" data-name="Path 1287" d="M27.347,86.942c.059,4.86-.673,10.232-4.347,13.408,5.3-2.971,6.5-9.924,7.055-15.97a4.641,4.641,0,0,0,1.932,4.113c.117-4.318-1.361-8.475-2.342-12.691S28.24,66.962,30.3,63.17c-.732.6-1.464,1.186-2.2,1.786,2.21-1.8,1.054-9.675.073-11.666C23.41,63.273,27.216,76.359,27.347,86.942Z" transform="translate(10.666 24.695)" fill="#a56d42"/>
      <path id="Path_1288" data-name="Path 1288" d="M37.9,75.3a8.747,8.747,0,0,1,1.61,7.2,17.112,17.112,0,0,0,3.03-8.285c-.7,7.934-2.3,13.159-8.314,18.795A21.069,21.069,0,0,0,37.9,75.3Z" transform="translate(15.875 34.402)" fill="#a56d42"/>
      <g id="Group_692" data-name="Group 692" transform="translate(220.94 56.087)">
        <path id="Path_1289" data-name="Path 1289" d="M180.841,59.276c-1.7-2.767-2.679-5.914-4.084-8.841A32.813,32.813,0,0,0,166.73,38.33c4.172,4.1,5.928,9.983,8.358,15.3,2.24,4.9,6,10.685,11.739,11.622C184.734,63.331,182.378,61.794,180.841,59.276Z" transform="translate(-143.617 -38.33)" fill="#a56d42"/>
        <path id="Path_1290" data-name="Path 1290" d="M168.36,49.29a86.446,86.446,0,0,1,3.147,10.993c.776,3.645,1.376,7.451,3.454,10.554a8.935,8.935,0,0,0,7.582,4.128c-3.308-3.557-5.4-7.743-7.187-12.5C173.644,57.853,169.882,53.506,168.36,49.29Z" transform="translate(-142.861 -33.247)" fill="#a56d42"/>
        <path id="Path_1291" data-name="Path 1291" d="M166.352,82.092c-.059,4.86.673,10.232,4.347,13.408-5.3-2.971-6.5-9.924-7.055-15.97a4.641,4.641,0,0,1-1.932,4.113c-.117-4.318,1.361-8.475,2.342-12.691s1.405-8.841-.659-12.632c.732.6,1.464,1.186,2.2,1.786-2.21-1.8-1.054-9.675-.073-11.666C170.29,58.437,166.469,71.509,166.352,82.092Z" transform="translate(-145.947 -33.641)" fill="#a56d42"/>
        <path id="Path_1292" data-name="Path 1292" d="M155.58,70.463a8.748,8.748,0,0,0-1.61,7.2,17.112,17.112,0,0,1-3.03-8.285c.7,7.934,2.3,13.159,8.314,18.795A21.029,21.029,0,0,1,155.58,70.463Z" transform="translate(-150.94 -23.93)" fill="#a56d42"/>
      </g>
      <path id="Path_1293" data-name="Path 1293" d="M97,4.774a10.942,10.942,0,0,1-3.25-3.454c-.278.864-.571,1.727-.849,2.591-.468-.146-.937-.278-1.405-.424a4.954,4.954,0,0,1-1.2,2.166c-.337-.424-.659-.849-1-1.273A4.807,4.807,0,0,1,87.8,6.048,5.733,5.733,0,0,0,85.873,3C85.009,4.35,84.16,5.7,83.3,7.058c-.615-.146-1.215-.278-1.83-.424a2.535,2.535,0,0,1-.717,2.005c-.468-.307-.908-.615-1.347-.922a5.19,5.19,0,0,0-.776,1.991c-.673-.527-1.332-1.054-2.005-1.581-.527.747-1.054,1.508-1.581,2.269L71.908,7.351c-.22,1.552-.439,3.089-.659,4.64a1.975,1.975,0,0,0-1.961,1.039,3.474,3.474,0,0,0-1.522-1.142c-.059.673-.117,1.347-.19,2.02-.468-.293-.937-.6-1.42-.893a1.114,1.114,0,0,1-.146,1.786A2.666,2.666,0,0,1,64.385,13c-.293.6-.586,1.215-.893,1.815a7.372,7.372,0,0,1-3.25-2.767A13.952,13.952,0,0,1,57.3,18.856c1.888,1.625,4.128,1.7,6.6,1.434A28.244,28.244,0,0,0,71.059,18.2c3.352-1.332,6.719-2.649,10.071-3.981,4.142-1.639,8.446-3.381,11.417-6.7a17.144,17.144,0,0,1,2.342-2.488C95.358,4.687,96.47,4.95,97,4.774Z" transform="translate(26.573 0.594)" fill="#b47c4a"/>
      <path id="Path_1294" data-name="Path 1294" d="M155.8,24.382c-.571-.293-.849.908-.249,1.156s1.23-.2,1.683-.644a18.848,18.848,0,0,0,4.479-6.645c-1.888.293-3.791.571-5.679.864a6.915,6.915,0,0,1,.381-3.923c-.527,1.288-2.5-.381-2.152-1.727s1.522-2.605,1.127-3.938a10.628,10.628,0,0,1-6.353,4.582,1.758,1.758,0,0,1-.4-1.932,9.459,9.459,0,0,1-3.674,2.342c.249-1.054.5-2.108.732-3.147a3.918,3.918,0,0,1-2.928,1.537,6.459,6.459,0,0,0-.512-5.489c-.585.966-1.156,1.918-1.742,2.884a4.466,4.466,0,0,1-1.771-1.947,2.38,2.38,0,0,1-4.611-1.1,3.125,3.125,0,0,1-2.9.951c-.263-.849-.527-1.683-.776-2.532-.893,1.771-4.084,1.42-4.567-.5-.849.351-1.683.688-2.532,1.039a3.831,3.831,0,0,1,1.464-3.542,16.285,16.285,0,0,0-9.017,2.693c.19-.761.381-1.522.571-2.269-1.23.527-2.444,1.054-3.674,1.581.029-.7.044-1.391.073-2.093-.864.644-1.727,1.3-2.591,1.947.673-1.493,1.332-3,2.005-4.494-3.4,1.23-6.792,2.474-10.2,3.7-.5-.351-1.01-.7-1.508-1.054L98.153,4.051a7.646,7.646,0,0,1-2.225-2.913A9.064,9.064,0,0,1,87.38,4.431c8.109,7.26,18.956,9.851,29.626,11.988s21.605,3.206,31.91,6.66C151.346,23.855,153.308,24.982,155.8,24.382Z" transform="translate(40.523 0)" fill="#b47c4a"/>
      <path id="Path_1295" data-name="Path 1295" d="M137.09,15.438a15.265,15.265,0,0,0,5.8-2.488,3.168,3.168,0,0,0-.424,2.928,1.463,1.463,0,0,0,1.844-.864,1.629,1.629,0,0,0,.234,2.3,5.624,5.624,0,0,0,3.659-2.225,11.566,11.566,0,0,1-3.118,7.6,1.309,1.309,0,0,1-.834.512,1.392,1.392,0,0,1-.922-.454c-2.664-2.254-5.518-4.86-5.84-8.329" transform="translate(63.577 5.987)" fill="#b47c4a"/>
      <path id="Path_1296" data-name="Path 1296" d="M49.754,23.655a18.262,18.262,0,0,0,.22-8.065,4.686,4.686,0,0,0,3.367,2.283,1.783,1.783,0,0,0-.015-2.605,2.377,2.377,0,0,0,2.957,1.156,6.965,6.965,0,0,0-.673-5.5,16.715,16.715,0,0,1,7.582,8.212,1.612,1.612,0,0,1,.146,1.259,1.709,1.709,0,0,1-1.083.761c-4.274,1.61-9.1,3.206-13.554,1.42" transform="translate(22.585 5.046)" fill="#b47c4a"/>
      <path id="Path_1297" data-name="Path 1297" d="M137.517,119.039c-3.5-3.074-8.226-4.157-12.486-6.031-7.553-3.293-14.813-8.856-18.517-16.218.468,4.948-5.4,10.524-8.856,14.1-6.455,6.689-17.711,6.953-21.737,13.964-.981,1.7.644,3.981,0,5.811.044.044.073.1.117.146a3.091,3.091,0,0,0,3.762.761,2.063,2.063,0,0,0,.761-2.122,10.64,10.64,0,0,1-1-1.156,1.425,1.425,0,0,1,1,1.156,12.213,12.213,0,0,0,7.114,3.615c-.015-1.025-.015-2.035-.029-3.059,2.122,2.752,4.962,5.27,8.417,5.694s7.377-2.108,7.333-5.577c2.854,1.273,6.441,2.283,8.724,4.421-.2-2.093,3.147-3.352,4.377-1.625a5.882,5.882,0,0,0,4.743-4.055,16.393,16.393,0,0,1,5.518,4.64,39.735,39.735,0,0,0,6.528-8.446c.673,1.1,1.347,2.21,2.035,3.308a8.749,8.749,0,0,1,2.079-2.869c.5.864,1,1.727,1.478,2.591.322-1.186,1.566-1.669,2.825-2.02A13.889,13.889,0,0,0,137.517,119.039Z" transform="translate(35.06 44.869)" fill="#894f24"/>
      <path id="Path_1298" data-name="Path 1298" d="M108.147,107.563A32.072,32.072,0,0,1,98.808,96.79h-.044c.293,3.747-3,7.831-6.1,11.139a10.705,10.705,0,0,0,7.568,2.854A10.42,10.42,0,0,0,108.147,107.563Z" transform="translate(42.972 44.869)" fill="#3a1708"/>
      <g id="Group_695" data-name="Group 695" transform="translate(93.768 92.842)">
        <path id="Path_1299" data-name="Path 1299" d="M142.843,94.428a8.274,8.274,0,0,1,5.606,5.3A14.891,14.891,0,0,0,144.072,86.7a7.543,7.543,0,0,1,6.338,3.967A13.829,13.829,0,0,0,142.682,77.8a20.4,20.4,0,0,1,8.241-1.786,14.123,14.123,0,0,0-7.743-1.844c.527-.864,1.069-1.727,1.6-2.605a7.025,7.025,0,0,0-3.63,1.815c.644-1.757-.937-3.894.556-5.109.747.117,1.478.234,2.225.337a13.7,13.7,0,0,0-6.455,1.112,4.551,4.551,0,0,1,1.61-3.059c-2.2.761-4.377,1.537-6.572,2.3.059-2.371.307-4.04,2.459-5.226A59,59,0,0,0,116.8,68.095a2.538,2.538,0,0,1,1.932-3.777,30.867,30.867,0,0,0-12.647,3.923l2.371-3.25a7.743,7.743,0,0,0-4.962,2.591A2.747,2.747,0,0,1,104.9,63.44a13.719,13.719,0,0,0-6.4,4.552A25.1,25.1,0,0,0,93.338,65.4l1.581,4.128c-4.406-2.122-9.544.937-14.477,1.142-3.762.161-7.363-1.361-10.685-3.059,1.508,3.952,3.835,7.89,7.773,9.822-3.162.5-6.323.981-9.5,1.478a14.2,14.2,0,0,1,5.094.307c-.659.234-1.317.454-1.976.688a23.845,23.845,0,0,1,5.518,2.327,11.957,11.957,0,0,0-8.358,10.729.752.752,0,0,1,.732-1.1,37.9,37.9,0,0,1,9.7-4.084A5.824,5.824,0,0,0,75.1,94.34a6.049,6.049,0,0,1,.322,1.61,5.275,5.275,0,0,1-.454,1.625c-1.317,3.542-.424,7.553,1.478,10.861s4.743,6,7.538,8.665c-1.932-3.85-3.908-8.095-2.766-12.222.732-2.649,2.737-5.109,2.313-7.831q2.481,8.1,4.947,16.218a35.023,35.023,0,0,1,1.8,8.241,17.253,17.253,0,0,1-1.522,8.021,22.988,22.988,0,0,0,4.2-19.614,11.544,11.544,0,0,1,2.723,5.753,2.8,2.8,0,0,1,1.786-1.639c.849-.161,1.83.688,1.434,1.405a5.491,5.491,0,0,1,2.518-1.478c.542,1.683,1.083,3.352,1.61,5.035A5.508,5.508,0,0,1,107,115.038a10.047,10.047,0,0,1,1.859,7.934,18.829,18.829,0,0,0,4.274-11.754l.966,2.679a3.149,3.149,0,0,0,2.152-1.069,2.228,2.228,0,0,1,.893,1.478,1.605,1.605,0,0,1,1.757.19,6.379,6.379,0,0,1,1.581-3.425,14.3,14.3,0,0,1,5.167,6.294,12.723,12.723,0,0,0,1.508-11.271c3.572.908,5.313,4.64,6.572,7.934,1.186,3.1,2.269,6.88.088,9.456,2.576.322,4.6-2.313,4.786-4.772s-.79-4.845-1.083-7.29c-.146-1.259-.117-2.518-.293-3.777a11.652,11.652,0,0,0-2.5-5.679,9.083,9.083,0,0,1,6.382,5.2,7.859,7.859,0,0,1-1.23-4.069,5.739,5.739,0,0,0,4.025,1.786,4.162,4.162,0,0,1,1.7,4.245c.176-1.947.366-3.879.542-5.826C146.473,99.829,145.785,96.477,142.843,94.428Z" transform="translate(-62.219 -63.44)" fill="#945724"/>
        <path id="Path_1300" data-name="Path 1300" d="M84.664,76.452a9.337,9.337,0,0,0-.424,3.118A23.57,23.57,0,0,0,95.818,99.594a14.776,14.776,0,0,0,4.874,1.874c6.514,1.127,12.588-3.7,16.511-9.031,3.674-4.977,6.4-11.666,3.689-17.228C116.048,65.283,88.514,65.4,84.664,76.452Z" transform="translate(-54.701 -61.346)" fill="#2e261e"/>
        <path id="Path_1301" data-name="Path 1301" d="M84.859,80.322a30.365,30.365,0,0,1,5.284-.381c2.122.029,4.728.7,5.182,2.766a3.521,3.521,0,0,1-1.244,3.22c-.893.82-2.605,1.273-3.718,1.727a1.99,1.99,0,0,1-1.376.19,1.889,1.889,0,0,1-.688-.586c-1.669-2.049-2.474-4.347-3.469-6.806" transform="translate(-54.428 -55.789)" fill="#231815"/>
        <path id="Path_1302" data-name="Path 1302" d="M112.823,80.031a34.326,34.326,0,0,0-5.592-.571c-2.122.029-4.728.7-5.182,2.767a3.521,3.521,0,0,0,1.244,3.22c.893.82,2.605,1.273,3.718,1.727.439.176,1.288.732,1.625.4a5.83,5.83,0,0,0,.527-.7,25.015,25.015,0,0,0,3.689-6.719" transform="translate(-46.471 -56.011)" fill="#231815"/>
        <g id="Group_693" data-name="Group 693" transform="translate(0 26.421)">
          <path id="Path_1303" data-name="Path 1303" d="M64.72,90.668s12.237-8.153,26.157-9.178" transform="translate(-63.754 -81.49)" fill="none" stroke="#bfbebe" stroke-linecap="round" stroke-linejoin="round" stroke-miterlimit="10" stroke-width="0.25"/>
          <path id="Path_1304" data-name="Path 1304" d="M64.06,102.112S78.917,87.694,92.545,84.62" transform="translate(-64.06 -80.038)" fill="none" stroke="#bfbebe" stroke-linecap="round" stroke-linejoin="round" stroke-miterlimit="10" stroke-width="0.25"/>
          <path id="Path_1305" data-name="Path 1305" d="M69.71,107.8S77.19,93.015,90.6,87.76" transform="translate(-61.44 -78.582)" fill="none" stroke="#bfbebe" stroke-linecap="round" stroke-linejoin="round" stroke-miterlimit="10" stroke-width="0.25"/>
        </g>
        <g id="Group_694" data-name="Group 694" transform="translate(70.597 21.137)">
          <path id="Path_1306" data-name="Path 1306" d="M139.837,87.058S127.6,78.9,113.68,77.88" transform="translate(-111.645 -77.88)" fill="none" stroke="#bfbebe" stroke-linecap="round" stroke-linejoin="round" stroke-miterlimit="10" stroke-width="0.25"/>
          <path id="Path_1307" data-name="Path 1307" d="M141.235,98.5S126.378,84.084,112.75,81.01" transform="translate(-112.077 -76.428)" fill="none" stroke="#bfbebe" stroke-linecap="round" stroke-linejoin="round" stroke-miterlimit="10" stroke-width="0.25"/>
          <path id="Path_1308" data-name="Path 1308" d="M133.178,104.189S125.7,89.4,112.29,84.15" transform="translate(-112.29 -74.972)" fill="none" stroke="#bfbebe" stroke-linecap="round" stroke-linejoin="round" stroke-miterlimit="10" stroke-width="0.25"/>
        </g>
      </g>
    </g>
  </g>
</svg>
