<svg xmlns="http://www.w3.org/2000/svg" xmlns:xlink="http://www.w3.org/1999/xlink" width="234.182" height="181.549" viewBox="0 0 234.182 181.549">
  <defs>
    <radialGradient id="radial-gradient" cx="0.5" cy="0.5" r="0.58" gradientUnits="objectBoundingBox">
      <stop offset="0.052" stop-color="#8d603c"/>
      <stop offset="0.995" stop-color="#261201"/>
    </radialGradient>
    <radialGradient id="radial-gradient-2" cx="0.5" cy="0.499" r="0.72" gradientTransform="translate(0.218) scale(0.564 1)" xlink:href="#radial-gradient"/>
    <radialGradient id="radial-gradient-3" cx="0.5" cy="0.499" r="0.58" gradientTransform="matrix(-1, 0, 0, 1, -280.739, 0)" xlink:href="#radial-gradient"/>
    <radialGradient id="radial-gradient-4" cx="0.5" cy="0.5" r="0.72" gradientTransform="matrix(-0.564, 0, 0, 1, -266.06, 0)" xlink:href="#radial-gradient"/>
  </defs>
  <g id="Group_711" data-name="Group 711" transform="translate(-1101.233 -4269.779)">
    <g id="Group_709" data-name="Group 709" transform="translate(1117.411 4414.005)">
      <path id="Path_1151" data-name="Path 1151" d="M3.982,22.193a.714.714,0,0,0,.232.321c.107.071.3.036.321-.089a27.34,27.34,0,0,0,.643-3.41c0-.036-2.232-.232-2.428-.214C2.732,19.818,3.554,21.229,3.982,22.193Z" transform="translate(2.164 14.772)" fill="#231815"/>
      <path id="Path_1152" data-name="Path 1152" d="M12.822,22.193a.714.714,0,0,0,.232.321c.107.071.3.036.321-.089a27.34,27.34,0,0,0,.643-3.41c0-.036-2.232-.232-2.428-.214C11.572,19.818,12.394,21.229,12.822,22.193Z" transform="translate(9.108 14.772)" fill="#231815"/>
      <path id="Path_1153" data-name="Path 1153" d="M22.892,22.193a.714.714,0,0,0,.232.321c.107.071.3.036.321-.089a27.34,27.34,0,0,0,.643-3.41c0-.036-2.232-.232-2.428-.214C21.642,19.818,22.464,21.229,22.892,22.193Z" transform="translate(17.018 14.772)" fill="#231815"/>
      <path id="Path_1154" data-name="Path 1154" d="M44.856,24.734c-.964-7.981-3.375-16.534-9.91-21.212A21.084,21.084,0,0,0,20.68.111,34.024,34.024,0,0,0,9.788,3.058c-8.66,4-10.981,16.8-9.267,25.23A7.19,7.19,0,0,0,4.4,33.59c2.66,1.125,5.839-.161,7.785-2.3A10.691,10.691,0,0,0,13.4,29.662a11.082,11.082,0,0,0,2.75,3.018,10.129,10.129,0,0,0,5.982,2.089,11.118,11.118,0,0,0,6.624-2.482,12.327,12.327,0,0,0,3.357-3.892,12.523,12.523,0,0,0,2.553,3.857c2.071,2.053,5.571,2.982,7.946,1.286C45.213,31.7,45.249,27.894,44.856,24.734Z" transform="translate(0 0)" fill="#ebe9e7"/>
    </g>
    <g id="Group_710" data-name="Group 710" transform="translate(1273.411 4414.005)">
      <path id="Path_1151-2" data-name="Path 1151" d="M3.982,22.193a.714.714,0,0,0,.232.321c.107.071.3.036.321-.089a27.34,27.34,0,0,0,.643-3.41c0-.036-2.232-.232-2.428-.214C2.732,19.818,3.554,21.229,3.982,22.193Z" transform="translate(2.164 14.772)" fill="#231815"/>
      <path id="Path_1152-2" data-name="Path 1152" d="M12.822,22.193a.714.714,0,0,0,.232.321c.107.071.3.036.321-.089a27.34,27.34,0,0,0,.643-3.41c0-.036-2.232-.232-2.428-.214C11.572,19.818,12.394,21.229,12.822,22.193Z" transform="translate(9.108 14.772)" fill="#231815"/>
      <path id="Path_1153-2" data-name="Path 1153" d="M22.892,22.193a.714.714,0,0,0,.232.321c.107.071.3.036.321-.089a27.34,27.34,0,0,0,.643-3.41c0-.036-2.232-.232-2.428-.214C21.642,19.818,22.464,21.229,22.892,22.193Z" transform="translate(17.018 14.772)" fill="#231815"/>
      <path id="Path_1154-2" data-name="Path 1154" d="M44.856,24.734c-.964-7.981-3.375-16.534-9.91-21.212A21.084,21.084,0,0,0,20.68.111,34.024,34.024,0,0,0,9.788,3.058c-8.66,4-10.981,16.8-9.267,25.23A7.19,7.19,0,0,0,4.4,33.59c2.66,1.125,5.839-.161,7.785-2.3A10.691,10.691,0,0,0,13.4,29.662a11.082,11.082,0,0,0,2.75,3.018,10.129,10.129,0,0,0,5.982,2.089,11.118,11.118,0,0,0,6.624-2.482,12.327,12.327,0,0,0,3.357-3.892,12.523,12.523,0,0,0,2.553,3.857c2.071,2.053,5.571,2.982,7.946,1.286C45.213,31.7,45.249,27.894,44.856,24.734Z" transform="translate(0 0)" fill="#ebe9e7"/>
    </g>
    <g id="Group_708" data-name="Group 708" transform="translate(1101.234 4269.781)">
      <path id="Path_1313" data-name="Path 1313" d="M144,147.8l2.923,2.037c10.436-3.735,17.521-13.9,20.488-24.592s2.436-21.994,1.889-33.065c-.635-12.857,7.056-21.832,6.421-34.689-.31-6.318-.635-12.739-2.657-18.747C161.049,3.086,110.227-5.21,79.627,2.806,62.784,7.219,46.916,16.711,36.834,30.911c-4.177,5.89-7.307,12.458-10.407,18.983-3.188,6.7-6.406,13.536-7.351,20.887-1.668,12.96,3.912,25.684,10.067,37.2a314.608,314.608,0,0,0,19.618,31.958c9.7,13.875,31.707,13.108,48.476,15.4S128.412,154.432,144,147.8Z" transform="translate(8.941 0)" fill="#b6895d"/>
      <path id="Path_1314" data-name="Path 1314" d="M120.6,78.937c2.48-20.356-10.126-41.848-1.7-60.536,13.905-.266,25.684,9.949,34.792,20.459,11.558,13.329,21.787,29.891,19.765,47.413-1.388,12.06-8.281,22.275-14.112,32.578-4.576,8.089-8.34,21.168-14.865,29.729a70.861,70.861,0,0,1-6.185,7.809c-2.864,3.174-6.126,6.259-7.262,10.377-4.738-1.727-7.425-6.288-9.3-11.159-6.51-2.495-12.267-23.175-12.65-26.614C107.078,111.855,118.518,96.06,120.6,78.937Z" transform="translate(51.826 8.76)" fill="#b6895d"/>
      <path id="Path_1315" data-name="Path 1315" d="M53.271,76.352C50.792,56,63.4,34.5,54.969,15.8c-13.905-.266-25.684,9.949-34.792,20.459C8.634,49.59-1.6,66.152.412,83.673c1.388,12.06,8.281,22.275,14.112,32.578,4.591,8.089,8.34,21.167,14.864,29.744a70.86,70.86,0,0,0,6.185,7.809c2.864,3.174,6.126,6.259,7.262,10.377,4.738-1.727,7.425-6.288,9.3-11.159,6.51-2.495,12.267-23.175,12.65-26.614C66.778,109.269,55.353,93.475,53.271,76.352Z" transform="translate(0.076 7.522)" fill="#b6895d"/>
      <path id="Path_1316" data-name="Path 1316" d="M64.85,126.306c.044-.428.059-.856.089-1.284-.768-4.3-1.919-8.561-3.041-12.783-2.081-7.794-4.089-15.632-5.683-23.529a68.083,68.083,0,0,1-2.908-12.458,51.56,51.56,0,0,1-.162-9.669c-.8-12.739.251-20.607,4.561-32.563-.059-1.55-1.2-4.827-1.432-6.347-3.159,2.391-6.155,6.672-10.362,6.938-.59-3.9,2.436-10.731,4.03-14.584A35.937,35.937,0,0,1,52.51,15.76c-12.827.915-23.736,10.51-32.3,20.385C8.684,49.489-1.546,66.051.462,83.588c1.388,12.06,8.281,22.275,14.112,32.578,4.576,8.089,8.34,21.168,14.864,29.729a70.859,70.859,0,0,0,6.185,7.809c2.14,2.377,4.517,4.709,6.052,7.454a27.034,27.034,0,0,0,6.288-.723,25.955,25.955,0,0,0,4.236-7.513C58.709,150.426,64.466,129.746,64.85,126.306Z" transform="translate(0.1 7.505)" fill="#a57950"/>
      <path id="Path_1317" data-name="Path 1317" d="M108.969,128.819c-.044-.428-.059-.856-.089-1.284.768-4.3,1.919-8.561,3.041-12.783,2.081-7.794,4.089-15.632,5.683-23.529a68.083,68.083,0,0,0,2.908-12.458,51.559,51.559,0,0,0,.162-9.669c.8-12.739-.251-20.607-4.561-32.563.059-1.55,1.771-6.554,2.008-8.074,3.159,2.391,5.58,8.414,9.787,8.68a24.862,24.862,0,0,0-1.638-12.517c-.605-1.447-.753-4.473-1.594-5.89,12.237,2.7,20.385,10.067,28.947,19.942C165.179,52,175.409,68.564,173.386,86.085c-1.388,12.06-8.281,22.275-14.112,32.578-4.576,8.089-8.34,21.167-14.864,29.729a70.859,70.859,0,0,1-6.185,7.809,74.077,74.077,0,0,0-7.189,10.392c-2.14,0-3.041-1.668-5.137-3.661a25.955,25.955,0,0,1-4.236-7.513C115.124,152.938,109.367,132.258,108.969,128.819Z" transform="translate(51.84 8.919)" fill="#a57950"/>
      <path id="Path_1318" data-name="Path 1318" d="M38.189,72.711c-2.362-19.795,9.226-31.648,2.244-49.981-3.6,12.163-.458,17.212-5.211,27.677-1.7,9.491-3.72,19.116-2.6,28.5,2.037,17.123,13.27,32.917,11.322,50.055a80.4,80.4,0,0,1-7.041,20.488.16.16,0,0,1,.074-.015c6.421-2.288,12.148-23.219,12.532-26.673C51.445,105.629,40.226,89.834,38.189,72.711Z" transform="translate(15.379 10.823)" fill="#936e4c"/>
      <path id="Path_1319" data-name="Path 1319" d="M51.842,122.74a5.379,5.379,0,0,1-2.8,1.993,11.5,11.5,0,0,1,2.111-8.886,3.159,3.159,0,0,1-4.192.487,9.373,9.373,0,0,1,1.21-7.617,3.648,3.648,0,0,1-3.262,2.111q-2.458-6.133-4.915-12.252a45.213,45.213,0,0,1-1.048,16.71A66.422,66.422,0,0,1,24.858,54.661a7.857,7.857,0,0,1-5.845,4.177c-1.506.207,3.129-20.016.59-28.829C8.222,43.236-1.727,59.606.251,76.906c1.388,12.06,8.281,22.275,14.112,32.578,4.576,8.089,8.34,21.168,14.864,29.729a70.86,70.86,0,0,0,6.185,7.809c2.864,3.174,6.126,6.259,7.262,10.377,4.738-1.727,7.425-6.288,9.3-11.159a8.885,8.885,0,0,0,3.6-3.159C53.126,135.877,48.712,128.747,51.842,122.74Z" transform="translate(0 14.289)" fill="#77593c"/>
      <path id="Path_1320" data-name="Path 1320" d="M120.385,75.3c2.362-19.795-9.226-31.648-2.244-49.981,3.6,12.163.458,17.212,5.211,27.677,1.7,9.491,3.72,19.116,2.6,28.5-2.037,17.123-13.27,32.917-11.322,50.055a80.4,80.4,0,0,0,7.041,20.488.16.16,0,0,0-.074-.015c-6.421-2.288-12.148-23.219-12.532-26.673C107.114,108.233,118.348,92.424,120.385,75.3Z" transform="translate(51.819 12.056)" fill="#936e4c"/>
      <path id="Path_1321" data-name="Path 1321" d="M75.775,127.178a33.761,33.761,0,0,0,5.329.3c5.048-.089,10.229-1,14.245-3.41s6.672-6.495,5.727-10.421c-10.569-1.845-23.751-.472-33.921,2.318C56.143,118.985,69.369,126.248,75.775,127.178Z" transform="translate(29.959 53.707)" fill="#e4e6e8"/>
      <path id="Path_1322" data-name="Path 1322" d="M77.609,122.5l4.561-.221a28.231,28.231,0,0,0,6.775-.871c2.185-.649,4.605-3.188,5.786-5.137a19.1,19.1,0,0,0-3.572-.679c-2.2-.517-3.956-2.244-6.141-2.746a11.369,11.369,0,0,0-5.152.443l-8.945,2.17c-2.524.62-7.2,2.185-3.174,4.709A18.894,18.894,0,0,0,77.609,122.5Z" transform="translate(31.506 53.658)" fill="#b9babe"/>
      <g id="Group_700" data-name="Group 700" transform="translate(52.344 78.036)">
        <path id="Path_1323" data-name="Path 1323" d="M74.4,67.545c-3.292-1.609-4.03-5.86-5.949-8.975a12.344,12.344,0,0,0-12.5-5.506C47.933,54.614,43.283,63.678,35.46,65.98c7.041,1.092,12.163,8.03,19.16,9.359a17.9,17.9,0,0,0,10.908-1.816A49.458,49.458,0,0,0,74.4,67.545Z" transform="translate(-35.46 -52.865)" fill="#040000"/>
        <path id="Path_1324" data-name="Path 1324" d="M45.185,63.16a10.642,10.642,0,0,1,4.989-8.99,10.106,10.106,0,0,0,3.4,19.677,10.842,10.842,0,0,0,1.21-.118A10.68,10.68,0,0,1,45.185,63.16Z" transform="translate(-31.722 -52.244)" fill="#fff"/>
        <path id="Path_1325" data-name="Path 1325" d="M58.146,54.67a10.228,10.228,0,0,1-11.4,16.975,10.231,10.231,0,1,0,11.4-16.975Z" transform="translate(-30.085 -52.005)" fill="#fff"/>
        <circle id="Ellipse_481" data-name="Ellipse 481" cx="10.259" cy="10.259" r="10.259" transform="translate(12.104 1.1)" fill="#030309"/>
        <path id="Path_1326" data-name="Path 1326" d="M53.919,53.61a6.953,6.953,0,1,1-6.952,6.952,6.955,6.955,0,0,1,6.952-6.952A10.259,10.259,0,1,0,64.178,63.869,10.256,10.256,0,0,0,53.919,53.61Z" transform="translate(-31.556 -52.51)" fill="url(#radial-gradient)"/>
        <circle id="Ellipse_482" data-name="Ellipse 482" cx="2.022" cy="2.022" r="2.022" transform="translate(20.341 2.93)" fill="#fff"/>
        <circle id="Ellipse_483" data-name="Ellipse 483" cx="0.827" cy="0.827" r="0.827" transform="translate(25.537 8.997)" fill="#fff"/>
      </g>
      <path id="Path_1327" data-name="Path 1327" d="M58.692,51.451a13.412,13.412,0,0,1,6.79,8.266c-3.218-5.432-10.348-10.333-16.872-9.344C51.872,50.226,55.385,49.783,58.692,51.451Z" transform="translate(23.144 23.906)" fill="url(#radial-gradient-2)"/>
      <path id="Path_1328" data-name="Path 1328" d="M72.9,77.178c.531,1.447-1,2.775-2.391,3.454a27.324,27.324,0,0,1-15.4,2.613,6.582,6.582,0,0,0,3.469-1.875,16.18,16.18,0,0,1-3.941.561,3.274,3.274,0,0,0,2.244-2.288c-3.764,1.476-7.868-.768-11.292-2.937-1.875-1.2-3.764-2.377-5.639-3.572,8.621,5.654,20.931,4.975,29.626-.561-.8-.605-1.609-1.21-2.406-1.816a4.813,4.813,0,0,0,3.366,1.107c-.133-.576-.266-1.137-.4-1.712L71.952,71.3a29.155,29.155,0,0,0-3.912-10.5A29.048,29.048,0,0,0,72.2,65.266a5.547,5.547,0,0,0-1.166-4.546c.487.413.989.827,1.476,1.24a41.124,41.124,0,0,0-3.749-8.4,22.259,22.259,0,0,1,7.927,13.182,12.348,12.348,0,0,1-.177,6.141C75.879,74.875,74.875,76.558,72.9,77.178Z" transform="translate(19.021 25.502)" fill="#a2744c"/>
      <g id="Group_701" data-name="Group 701" transform="translate(130.4 74.36)">
        <path id="Path_1329" data-name="Path 1329" d="M88.34,65.055c3.292-1.609,4.03-5.86,5.949-8.975a12.344,12.344,0,0,1,12.5-5.506c8.015,1.55,12.665,10.613,20.488,12.916-7.041,1.092-12.163,8.03-19.16,9.359a17.9,17.9,0,0,1-10.909-1.816A48.692,48.692,0,0,1,88.34,65.055Z" transform="translate(-88.34 -50.375)" fill="#040000"/>
        <path id="Path_1330" data-name="Path 1330" d="M108.695,60.68a10.642,10.642,0,0,0-4.989-8.99,10.106,10.106,0,0,1-3.4,19.677,10.842,10.842,0,0,1-1.21-.118A10.7,10.7,0,0,0,108.695,60.68Z" transform="translate(-83.217 -49.749)" fill="#fff"/>
        <path id="Path_1331" data-name="Path 1331" d="M97.281,52.19a10.228,10.228,0,0,0,11.4,16.975,10.231,10.231,0,1,1-11.4-16.975Z" transform="translate(-86.402 -49.511)" fill="#fff"/>
        <circle id="Ellipse_484" data-name="Ellipse 484" cx="10.259" cy="10.259" r="10.259" transform="translate(6.318 1.1)" fill="#030309"/>
        <path id="Path_1332" data-name="Path 1332" d="M102.879,51.13a6.953,6.953,0,1,0,6.953,6.952,6.955,6.955,0,0,0-6.953-6.952A10.259,10.259,0,1,1,92.62,61.389,10.256,10.256,0,0,1,102.879,51.13Z" transform="translate(-86.302 -50.015)" fill="url(#radial-gradient-3)"/>
        <circle id="Ellipse_485" data-name="Ellipse 485" cx="2.022" cy="2.022" r="2.022" transform="translate(14.555 2.93)" fill="#fff"/>
        <circle id="Ellipse_486" data-name="Ellipse 486" cx="0.827" cy="0.827" r="0.827" transform="translate(11.735 8.997)" fill="#fff"/>
      </g>
      <path id="Path_1333" data-name="Path 1333" d="M96.93,48.961a13.412,13.412,0,0,0-6.79,8.266c3.218-5.432,10.348-10.333,16.872-9.344C103.75,47.736,100.237,47.293,96.93,48.961Z" transform="translate(42.918 22.72)" fill="url(#radial-gradient-4)"/>
      <path id="Path_1334" data-name="Path 1334" d="M89.23,74.688c-.531,1.447,1,2.775,2.391,3.454a27.324,27.324,0,0,0,15.4,2.613,6.583,6.583,0,0,1-3.469-1.875,16.18,16.18,0,0,0,3.941.561,3.274,3.274,0,0,1-2.244-2.288c3.764,1.476,7.868-.768,11.292-2.937,1.875-1.2,3.764-2.377,5.639-3.572-8.621,5.654-20.931,4.975-29.626-.561.8-.605,1.609-1.21,2.406-1.816a4.813,4.813,0,0,1-3.366,1.107c.133-.576.266-1.137.4-1.712l-1.816,1.151a29.154,29.154,0,0,1,3.912-10.5,29.049,29.049,0,0,1-4.163,4.458,5.547,5.547,0,0,1,1.166-4.546c-.487.413-.989.827-1.476,1.24a41.124,41.124,0,0,1,3.749-8.4,22.259,22.259,0,0,0-7.927,13.182,12.348,12.348,0,0,0,.177,6.141C86.249,72.4,87.252,74.068,89.23,74.688Z" transform="translate(40.536 24.316)" fill="#a2744c"/>
      <path id="Path_1335" data-name="Path 1335" d="M141.612,126.756c-4.118-10.392-12.193-18.791-21.271-25.315-3.484-2.509-7.454-5.462-9.58-9a11.1,11.1,0,0,1-.871-1.9c-1.506-4.458.266-9.418,2.923-13.3a30.654,30.654,0,0,1,5.934-6.495,19.649,19.649,0,0,0-11,7.056,29.678,29.678,0,0,1,7.587-14.333c-2.7,1-4.665,2.923-6.643,5.019.251.266-.207.768-.5.546a23.967,23.967,0,0,1,3.174-10.849c-1.2.782-2.406,1.579-3.6,2.362a13.439,13.439,0,0,1,3.543-6.79c-1.21.812-2.436,1.638-3.646,2.45a22.943,22.943,0,0,1,9.211-11.233c-2.642.635-4.989-.03-6.392,1.373,2.554-4.915,6.008-9.373,8.178-14.481a31.7,31.7,0,0,0,2.436-14.023c-1.4,1.653-1.948,2.657-3.72,3.9a12.367,12.367,0,0,0-.694-10.761,7.082,7.082,0,0,1-2.214,6.79c-.133-2.583-.133-5.225-1.329-7.513a18.668,18.668,0,0,1-2.6,5.166,17.166,17.166,0,0,1-.546-4.665c-.915.871-1.816,1.742-2.731,2.613a1.9,1.9,0,0,1-.59.428,1.282,1.282,0,0,1-1.55-.93,5.676,5.676,0,0,1,.369-2.45c-.974.723-1.963,1.432-2.937,2.155a6.761,6.761,0,0,1-.472-3.616,5.415,5.415,0,0,0-3.557,2.273A3.321,3.321,0,0,1,98.48,7.25c-1.653,1.4-3.306,2.79-4.96,4.192-.325-.679-.664-1.358-.989-2.022-.59.561-1.137,1.181-1.683,1.786-.074-.738-.133-1.461-.207-2.2A17.579,17.579,0,0,0,87.5,13.081c-.915-1.21-.959-3.1-.959-4.605a9.026,9.026,0,0,0-2.436,4.96,7.993,7.993,0,0,0-4.074-2.864c.148.812.31,1.638.458,2.45A9.825,9.825,0,0,0,75.2,9.317a10.143,10.143,0,0,1,.221,5.019c-1.535-1.181-3.07-2.362-4.591-3.543.28,2.214.561,4.414.841,6.628a1.975,1.975,0,0,1-1.712-1.742c-.207,1.033-.413,2.067-.635,3.1a1.639,1.639,0,0,1-1.565-1.343l-2.037,3.853A9.97,9.97,0,0,1,63.3,14.321c.221.03.177-.4-.044-.413s-.384.177-.5.369c-3.129,4.886-1.786,11.351.413,16.71a62.39,62.39,0,0,0,9.167,15.455c1.668,2.067,3.159,3.218,3.321,5.875a24.039,24.039,0,0,0-8.488-5.594q4.561,5.292,8.709,10.923a10.2,10.2,0,0,0-6.111-2.6,24.157,24.157,0,0,1,7.189,9.226l-4.605-2.834c1.55,2.111,3.115,4.236,4.665,6.347a5.907,5.907,0,0,1-3.129-1.255A9.767,9.767,0,0,0,76.309,70.9a10.9,10.9,0,0,0-4.355-2.022,14.271,14.271,0,0,1,3.572,6.731,15.808,15.808,0,0,0-11.6-4.753A20.284,20.284,0,0,1,75.571,86.739a15.256,15.256,0,0,1-.1,4.177c-1.565,4.532-6.48,8.148-10.687,11.13-9.108,6.465-17.256,14.805-21.448,25.153s-3.867,22.939,2.672,32c7.543,10.421,21.817,14.245,34.556,12.429a25.406,25.406,0,0,0,10.082-3.306,16.833,16.833,0,0,0,2.17-1.653c.384.3.768.576,1.181.841a25.378,25.378,0,0,0,10.052,3.38c12.724,1.919,27.028-1.8,34.644-12.178C145.317,149.725,145.731,137.133,141.612,126.756Z" transform="translate(19.314 3.453)" fill="#fff"/>
      <g id="Group_707" data-name="Group 707" transform="translate(56.846 127.138)">
        <g id="Group_702" data-name="Group 702" transform="translate(24.74 3.484)">
          <circle id="Ellipse_487" data-name="Ellipse 487" cx="0.635" cy="0.635" r="0.635" transform="translate(9.373)" fill="#c6c8c8"/>
          <circle id="Ellipse_488" data-name="Ellipse 488" cx="0.635" cy="0.635" r="0.635" transform="translate(10.023 6.347)" fill="#c6c8c8"/>
          <circle id="Ellipse_489" data-name="Ellipse 489" cx="0.635" cy="0.635" r="0.635" transform="translate(0 14.451)" fill="#c6c8c8"/>
          <circle id="Ellipse_490" data-name="Ellipse 490" cx="0.635" cy="0.635" r="0.635" transform="translate(4.473 8.266)" fill="#c6c8c8"/>
          <circle id="Ellipse_491" data-name="Ellipse 491" cx="0.635" cy="0.635" r="0.635" transform="translate(3.823 2.834)" fill="#c6c8c8"/>
          <circle id="Ellipse_492" data-name="Ellipse 492" cx="0.635" cy="0.635" r="0.635" transform="translate(0.635 6.347)" fill="#c6c8c8"/>
          <circle id="Ellipse_493" data-name="Ellipse 493" cx="0.635" cy="0.635" r="0.635" transform="translate(12.562 11.897)" fill="#c6c8c8"/>
          <circle id="Ellipse_494" data-name="Ellipse 494" cx="0.635" cy="0.635" r="0.635" transform="translate(5.978 13.182)" fill="#c6c8c8"/>
          <circle id="Ellipse_495" data-name="Ellipse 495" cx="0.635" cy="0.635" r="0.635" transform="translate(1.919 21.094)" fill="#c6c8c8"/>
          <circle id="Ellipse_496" data-name="Ellipse 496" cx="0.635" cy="0.635" r="0.635" transform="translate(13.831 17.034)" fill="#c6c8c8"/>
          <circle id="Ellipse_497" data-name="Ellipse 497" cx="0.635" cy="0.635" r="0.635" transform="translate(8.739 19.145)" fill="#c6c8c8"/>
        </g>
        <g id="Group_703" data-name="Group 703" transform="translate(70.795 0.975)">
          <circle id="Ellipse_498" data-name="Ellipse 498" cx="0.635" cy="0.635" r="0.635" transform="translate(4.458 22.821)" fill="#c6c8c8"/>
          <circle id="Ellipse_499" data-name="Ellipse 499" cx="0.635" cy="0.635" r="0.635" transform="translate(4.133 14.643)" fill="#c6c8c8"/>
          <circle id="Ellipse_500" data-name="Ellipse 500" cx="0.635" cy="0.635" r="0.635" transform="translate(12.562 9.004)" fill="#c6c8c8"/>
          <circle id="Ellipse_501" data-name="Ellipse 501" cx="0.635" cy="0.635" r="0.635" transform="translate(9.373 14.555)" fill="#c6c8c8"/>
          <circle id="Ellipse_502" data-name="Ellipse 502" cx="0.635" cy="0.635" r="0.635" transform="translate(10.008 19.972)" fill="#c6c8c8"/>
          <circle id="Ellipse_503" data-name="Ellipse 503" cx="0.635" cy="0.635" r="0.635" transform="translate(13.196 16.473)" fill="#c6c8c8"/>
          <circle id="Ellipse_504" data-name="Ellipse 504" cx="0.635" cy="0.635" r="0.635" transform="translate(0 18.732)" fill="#c6c8c8"/>
          <circle id="Ellipse_505" data-name="Ellipse 505" cx="0.635" cy="0.635" r="0.635" transform="translate(6.923 8.355)" fill="#c6c8c8"/>
          <circle id="Ellipse_506" data-name="Ellipse 506" cx="0.635" cy="0.635" r="0.635" transform="translate(11.927 1.727)" fill="#c6c8c8"/>
          <circle id="Ellipse_507" data-name="Ellipse 507" cx="0.635" cy="0.635" r="0.635" transform="translate(4.133)" fill="#c6c8c8"/>
          <circle id="Ellipse_508" data-name="Ellipse 508" cx="0.635" cy="0.635" r="0.635" transform="translate(8.192 3.366)" fill="#c6c8c8"/>
        </g>
        <path id="Path_1336" data-name="Path 1336" d="M66.165,89.481c3.926-3.587,9.86-3.513,15.174-3.233,2.554.133,5.122.266,7.676.413,4.089.221,8.621.635,11.4,3.646,9.4,10.2-8.606,28.784-19.337,28.3C69.339,118.073,55.4,99.312,66.165,89.481Z" transform="translate(-27.181 -86.13)" fill="#d2d2d3"/>
        <path id="Path_1337" data-name="Path 1337" d="M67.533,90.542c3.4-3.1,8.5-3.026,13.093-2.79l6.613.354c3.528.192,7.425.546,9.831,3.144,8.1,8.8-7.41,24.828-16.665,24.4C70.264,115.179,58.263,99,67.533,90.542Z" transform="translate(-26.275 -85.405)" fill="#040000"/>
        <g id="Group_704" data-name="Group 704" transform="translate(0 13.123)">
          <path id="Path_1338" data-name="Path 1338" d="M39.17,104.275s12.34-8.222,26.378-9.255" transform="translate(-38.196 -95.02)" fill="none" stroke="#bfbebe" stroke-linecap="round" stroke-linejoin="round" stroke-miterlimit="10" stroke-width="0.25"/>
          <path id="Path_1339" data-name="Path 1339" d="M38.51,115.79s14.983-14.54,28.725-17.64" transform="translate(-38.51 -93.53)" fill="none" stroke="#bfbebe" stroke-linecap="round" stroke-linejoin="round" stroke-miterlimit="10" stroke-width="0.25"/>
          <path id="Path_1340" data-name="Path 1340" d="M44.16,121.508S51.7,106.6,65.224,101.3" transform="translate(-35.82 -92.03)" fill="none" stroke="#bfbebe" stroke-linecap="round" stroke-linejoin="round" stroke-miterlimit="10" stroke-width="0.25"/>
        </g>
        <g id="Group_705" data-name="Group 705" transform="translate(82.559 13.123)">
          <path id="Path_1341" data-name="Path 1341" d="M122.208,104.275s-12.34-8.222-26.378-9.255" transform="translate(-93.778 -95.02)" fill="none" stroke="#bfbebe" stroke-linecap="round" stroke-linejoin="round" stroke-miterlimit="10" stroke-width="0.25"/>
          <path id="Path_1342" data-name="Path 1342" d="M123.625,115.79S108.643,101.25,94.9,98.15" transform="translate(-94.221 -93.53)" fill="none" stroke="#bfbebe" stroke-linecap="round" stroke-linejoin="round" stroke-miterlimit="10" stroke-width="0.25"/>
          <path id="Path_1343" data-name="Path 1343" d="M115.5,121.508S107.961,106.6,94.44,101.3" transform="translate(-94.44 -92.03)" fill="none" stroke="#bfbebe" stroke-linecap="round" stroke-linejoin="round" stroke-miterlimit="10" stroke-width="0.25"/>
        </g>
        <g id="Group_706" data-name="Group 706" transform="translate(37.983 2.27)">
          <path id="Path_1344" data-name="Path 1344" d="M88.049,107.968c0-2.214,2.244-4,4.989-4a5.659,5.659,0,0,1,3.454,1.122c3.056-4.665,4.1-9.949.517-13.831-2.391-2.6-6.288-2.952-9.8-3.129l-6.6-.354c-4.576-.251-9.683-.31-13.064,2.775C63.265,94.461,63.56,100,66.07,104.883a5.753,5.753,0,0,1,3.144-.915c2.76,0,4.989,1.786,4.989,4a4.041,4.041,0,0,1-2.834,3.587,15.619,15.619,0,0,0,8.99,4.059c3.085.148,6.849-1.55,10.215-4.177A3.973,3.973,0,0,1,88.049,107.968Z" transform="translate(-64.242 -87.668)" fill="#1f2020"/>
        </g>
      </g>
      <path id="Path_1345" data-name="Path 1345" d="M144.686,28.17c-.782,7.041.915,14.082,2.067,21.064,3.557,21.463,1.432,45.361-12.695,61.894.782-4.487,1.55-9.034,1.107-13.566s-2.258-9.122-5.831-11.942c4.576,6.8.251,15.735-1.594,23.721a37.359,37.359,0,0,0,.325,18.053c-1.122-1.181-2.244-2.362-3.351-3.557a19.439,19.439,0,0,0,1.86,7.336,3.169,3.169,0,0,0-2.524-2.008,7.8,7.8,0,0,1,.413,8.311A39.271,39.271,0,0,0,140.1,157.153c.605.384,1.4.768,2.008.384s0-1.668-.546-1.2c2.687-10.48,5.432-20.474,10.982-29.773,3.9-6.524,9.019-12.237,13.123-18.629,9.669-15.056,13.093-35.191,4.694-50.985-3.9-7.322-9.949-13.2-15.913-18.953C151.166,34.842,147.948,31.329,144.686,28.17Z" transform="translate(59.063 13.413)" fill="none"/>
      <path id="Path_1346" data-name="Path 1346" d="M138.539,144.323c6.524-8.561,10.274-21.64,14.865-29.729,5.831-10.3,12.724-20.518,14.112-32.578,2.008-17.521-8.222-34.084-19.765-47.413-1.579-1.816-3.247-3.631-4.975-5.373-.354,8.9,2.052,17.891,2.008,26.88-.03,5.137-.871,10.229-1.033,15.352-.384,11.883,2.731,24.592-2.716,35.161-1.107,2.155-3.218,4.384-5.535,3.72.768-4.842,1.52-9.742,1.048-14.614s-2.332-9.8-6.052-13c6.023,9.846-.089,22.068.664,33.582.266,3.986,1.078,8.65-1.816,11.4-1.3-1.594-2.583-3.174-3.882-4.768a47.807,47.807,0,0,1,1.86,11.174l-4-3.823c.9,2.8,1.8,5.594,2.7,8.4-.472-.694-.945-1.388-1.432-2.081a46.089,46.089,0,0,0,4.207,19.5c1.137-1.358,2.391-2.657,3.572-3.971A73.639,73.639,0,0,0,138.539,144.323Z" transform="translate(58.715 13.918)" fill="#77593c"/>
    </g>
  </g>
</svg>
