<svg xmlns="http://www.w3.org/2000/svg" width="232.407" height="178.936" viewBox="0 0 232.407 178.936"><g transform="translate(-1280 -4752)"><g transform="translate(1293.411 4870.966)"><path d="M3.982,22.193a.714.714,0,0,0,.232.321c.107.071.3.036.321-.089a27.34,27.34,0,0,0,.643-3.41c0-.036-2.232-.232-2.428-.214C2.732,19.818,3.554,21.229,3.982,22.193Z" transform="translate(2.164 14.772)" fill="#231815"/><path d="M12.822,22.193a.714.714,0,0,0,.232.321c.107.071.3.036.321-.089a27.34,27.34,0,0,0,.643-3.41c0-.036-2.232-.232-2.428-.214C11.572,19.818,12.394,21.229,12.822,22.193Z" transform="translate(9.108 14.772)" fill="#231815"/><path d="M22.892,22.193a.714.714,0,0,0,.232.321c.107.071.3.036.321-.089a27.34,27.34,0,0,0,.643-3.41c0-.036-2.232-.232-2.428-.214C21.642,19.818,22.464,21.229,22.892,22.193Z" transform="translate(17.018 14.772)" fill="#231815"/><path d="M44.856,24.734c-.964-7.981-3.375-16.534-9.91-21.212A21.084,21.084,0,0,0,20.68.111,34.024,34.024,0,0,0,9.788,3.058c-8.66,4-10.981,16.8-9.267,25.23A7.19,7.19,0,0,0,4.4,33.59c2.66,1.125,5.839-.161,7.785-2.3A10.691,10.691,0,0,0,13.4,29.662a11.082,11.082,0,0,0,2.75,3.018,10.129,10.129,0,0,0,5.982,2.089,11.118,11.118,0,0,0,6.624-2.482,12.327,12.327,0,0,0,3.357-3.892,12.523,12.523,0,0,0,2.553,3.857c2.071,2.053,5.571,2.982,7.946,1.286C45.213,31.7,45.249,27.894,44.856,24.734Z" transform="translate(0 0)" fill="#ecd6c1"/></g><g transform="translate(1449.411 4870.966)"><path d="M3.982,22.193a.714.714,0,0,0,.232.321c.107.071.3.036.321-.089a27.34,27.34,0,0,0,.643-3.41c0-.036-2.232-.232-2.428-.214C2.732,19.818,3.554,21.229,3.982,22.193Z" transform="translate(2.164 14.772)" fill="#231815"/><path d="M12.822,22.193a.714.714,0,0,0,.232.321c.107.071.3.036.321-.089a27.34,27.34,0,0,0,.643-3.41c0-.036-2.232-.232-2.428-.214C11.572,19.818,12.394,21.229,12.822,22.193Z" transform="translate(9.108 14.772)" fill="#231815"/><path d="M22.892,22.193a.714.714,0,0,0,.232.321c.107.071.3.036.321-.089a27.34,27.34,0,0,0,.643-3.41c0-.036-2.232-.232-2.428-.214C21.642,19.818,22.464,21.229,22.892,22.193Z" transform="translate(17.018 14.772)" fill="#231815"/><path d="M44.856,24.734c-.964-7.981-3.375-16.534-9.91-21.212A21.084,21.084,0,0,0,20.68.111,34.024,34.024,0,0,0,9.788,3.058c-8.66,4-10.981,16.8-9.267,25.23A7.19,7.19,0,0,0,4.4,33.59c2.66,1.125,5.839-.161,7.785-2.3A10.691,10.691,0,0,0,13.4,29.662a11.082,11.082,0,0,0,2.75,3.018,10.129,10.129,0,0,0,5.982,2.089,11.118,11.118,0,0,0,6.624-2.482,12.327,12.327,0,0,0,3.357-3.892,12.523,12.523,0,0,0,2.553,3.857c2.071,2.053,5.571,2.982,7.946,1.286C45.213,31.7,45.249,27.894,44.856,24.734Z" transform="translate(0 0)" fill="#ecd6c1"/></g><g transform="translate(1280 4752)"><path d="M231.05,29.529c-1.515-4.922-4.821-9.05-7.116-13.611-1.992-3.955-3.637-8.862-6.495-12.3-2.021-2.439-10.421-.592-13-.318-3.017.318-6.062,1.054-9.107,1.01-2.887-.043-5.7-.837-8.6-.678-4.835.274-9.151,2.93-12.557,6.221-8.386,8.126-12.312,6.567-13.466,5.73a4.45,4.45,0,0,1-.39-.346c-1.977-2.05-45.248-30.786-88.822-3.637a12.382,12.382,0,0,1-4.85,3.608c-2.6,1.227-5.355,2.858-8.1,1.068-2.858-1.847-4.287-5.918-5.456-8.92C50.476.649,32.073-.694,28.9,5.4S3.308,23.179,3.308,23.179s-7.448,2.179-.014,21.275c.462,1.876.866,3.767,1.241,5.658.548,2.872-.144,6.351,1.2,9.021.115.231,4.922-4.359,5.3-4.691,1.934-1.732,4.157-3.551,6.942-3.161,5.456.765,5.08,9.54,8.761,11.431C29.36,64.068,34.3,74.07,37.139,83.048c-.115.159-.216.318-.332.476a8,8,0,0,1,1.025,1.862,40.888,40.888,0,0,1,1.4,6.87c.447,5.687.231,12.283,3.2,16.93,0,0,1.833,32.619,17.522,40.3s28.607,24.955,36,25.922,28.621,7.693,46.172-8.617c0,0,26.788-10.536,30.483-19.167,7.419-17.334,16.05-34.394,19.774-53.013,1.371-6.87,1.732-16.367,5.326-22.545a66.768,66.768,0,0,1,9.872-13.351,38.812,38.812,0,0,0,9.843-17.536c1.6-7.4,8.111,1.718,13.524,0C233.807,40.282,231.67,31.507,231.05,29.529Z" transform="translate(0.006 -0.002)" fill="#f5e7da"/><path d="M174.079,27.227c-1.515-4.922-4.821-9.05-7.116-13.611-1.386-2.757-2.511-5.629-3.955-8.357.3.577-.462,2.555-.4,3.32A7.857,7.857,0,0,0,163.932,12a37.78,37.78,0,0,1,2.656,6c.361,1.054.346,3.854,1.472,4.373-1.126-.534-2.252-1.054-3.363-1.588,2.728,2.771,3.074,5.268,4.979,8.66a45.858,45.858,0,0,1-9.67-6.177c-.014.707-.029,1.414-.058,2.122l-6.755-4.287a2.87,2.87,0,0,1,.751,2.757c-3.753-4.012-10.637-5.889-16.006-4.878-8.314,1.559-9.237,3.392-9.468,2.944,2.353,4.647,3.911.289,8.126,3.349,7.577,5.513,13.827,9.223,21.765,14.217.231-.722,1.948.087,2.107-.606,1.6-7.4,8.111,1.718,13.524,0C176.836,37.98,174.685,29.2,174.079,27.227Z" transform="translate(56.963 2.329)" fill="#edded1" opacity="0.8"/><path d="M43.562,14.18c-1.775,1.039-4.1.216-6.033.318a20.607,20.607,0,0,0-6.87,1.689,62.341,62.341,0,0,0-10.854,6.336c-1.241.837-4.59,2.468-4.72,4.171a2.87,2.87,0,0,1,.794-1.819,17.863,17.863,0,0,0-4.518,5.889,7.414,7.414,0,0,1-.606-6.379,5.179,5.179,0,0,0-1.544,1.2,4.078,4.078,0,0,1,.144-2.713,3.17,3.17,0,0,1-.967,1.126,6.13,6.13,0,0,1,1.458-4.128L7.1,22.349a27.122,27.122,0,0,1,1.082-5.788c.159-.52.779-1.689,1.227-2.771-3.536,2.021-6.105,3.363-6.105,3.363s-7.448,2.179-.014,21.275c.462,1.876.866,3.767,1.241,5.658.548,2.872-.144,6.351,1.2,9.021a20.489,20.489,0,0,0,3.132-2.67C16.3,33.693,30.442,26.289,43.562,14.18Z" transform="translate(0.006 6.11)" fill="#edded1" opacity="0.8"/><path d="M10.56,42.4c3.334-3.854,7.231-7.2,10.406-11.171,2.916-3.652,5.182-7.78,8.2-11.345s7.043-6.61,11.691-7.015c.621-.058,1.414.058,1.6.649.159.52-.274,1.025-.678,1.4A112.89,112.89,0,0,0,18.253,46.648a13.513,13.513,0,0,1-2.93,4.4c-1.2,1.025-9.944,4.763-10.839,3.984C2.145,52.97,9.275,43.905,10.56,42.4Z" transform="translate(1.79 5.699)" fill="none"/><path d="M43.072,17.994c.39-.375-.433-1.155-.592-1.674-.188-.592-.534-1.977-1.155-1.92A15.2,15.2,0,0,0,30.3,20.188c-3.017,3.565-6.452,6.726-9.353,10.363-3.175,3.984-7.072,7.318-10.406,11.171-1.068,1.241-6.134,7.664-6.509,11,.722-.4,4.835-4.344,5.182-4.662,1.934-1.732,4.157-3.551,6.942-3.161a4.584,4.584,0,0,1,2.151.895C24.193,34.03,33.488,27.044,43.072,17.994Z" transform="translate(1.796 6.38)" fill="#dec1ac"/><path d="M40.415,25.661a3.863,3.863,0,0,0,1.7.751A15.294,15.294,0,0,1,40.631,20.8c.26-3.709-.722-6.914-4.835-6.336C26.905,15.716,13.93,45.81,13.93,45.81a7.721,7.721,0,0,1,3.522,3.32c.837,1.588,1.386,3.507,2.944,4.4.375-.924.606-1.891.953-2.829,1.559-4.2,5.153-7.332,7.448-11.128a73.192,73.192,0,0,0,6.423-6.206,3.007,3.007,0,0,1-.736,3.291c2.151-.433,3.175-2.742,3.724-4.777a3.572,3.572,0,0,0,.1,2.021,7.237,7.237,0,0,0,.289-4.388,2.108,2.108,0,0,0,1.876.967,9.817,9.817,0,0,0-.722-2.771l1.342.909C40.848,27.653,40.631,26.657,40.415,25.661Z" transform="translate(6.185 6.378)" fill="#f1d8c4"/><path d="M173.678,34.044a1.8,1.8,0,0,0,1.1-1.2c-3.984.115-7.852-1.761-11.272-3.9-2.959-1.847-5.932-3.695-8.876-5.586-2.54-1.631-4.936-3.623-7.779-4.734a34.049,34.049,0,0,0-6.437-1.674,31.938,31.938,0,0,0-6.841-.621c-1.328.043-3.377.13-4.229,1.342a2.683,2.683,0,0,0-.159.274c1.285,1.27,8.314.779,10.031,1.4a47.846,47.846,0,0,1,18.056,11.431c1.111,1.169,2.454,1,3.464,1.5C163.416,28.228,168.727,35.617,173.678,34.044Z" transform="translate(57.277 7.232)" fill="#dec1ac"/><path d="M158.581,28.81c-.563-.491-1.082-.895-1.386-1.2-5.052-4.893-11.056-8.083-17.609-10.637a15.936,15.936,0,0,0-9.295.058,4.171,4.171,0,0,0-.909.419,5.716,5.716,0,0,0-1.963,1.386c-1.111,1.313-1.227,3.507-.866,5.874a12.407,12.407,0,0,1-2.194,4.6,1.887,1.887,0,0,0,1.5-.577,2.8,2.8,0,0,1-1.27,2.28,5.363,5.363,0,0,0,1.79-1.01,4.588,4.588,0,0,1-.678,1.775,4.291,4.291,0,0,0,1.342-.924,18.729,18.729,0,0,1-.014,4.922c.4-.548.823-1.111,1.227-1.66a23.36,23.36,0,0,1-.433,3.738c.26-.2.534-.4.794-.621a4.367,4.367,0,0,1-.2,3.406,4.738,4.738,0,0,0,1.718-3.045c.144.808.289,1.631.433,2.439a4.4,4.4,0,0,0,.808-1.515,1.914,1.914,0,0,0,.26,1.068c.1-.491.2-.981.318-1.443-.346,1.357,3.464,1.371,4.142,1.414.491.029.967.072,1.443.13a12.731,12.731,0,0,1,4.575,3.017,15.069,15.069,0,0,1,4.215,9.6,31.216,31.216,0,0,1,4.922-6.437c1.386-1.472,2.814-2.916,4.157-4.417,2.612-2.973,6.278-5.311,7.448-9.151C162.247,31.451,159.26,29.4,158.581,28.81Z" transform="translate(55.141 7.227)" fill="#f1d8c4"/><path d="M108.18,121.035c-6.7-.173-16.6.433-20.105-7.015-3.334,5.369-9.266,6.206-14.924,6.495a64.582,64.582,0,0,1-12.73-.563c4.012,3.406,7.419,5.918,10.1,6.264,6.8.88,25.3,6.625,41.885-5.138C110.965,121.092,109.551,121.063,108.18,121.035Z" transform="translate(26.795 50.545)" fill="#e5cebf"/><path d="M54.35,45.082a61.393,61.393,0,0,1,6.7,3.666,47.183,47.183,0,0,0-3.478-4.3c1.775,1.169,3.536,2.338,5.311,3.493a36.247,36.247,0,0,0-6.7-10.19,19.74,19.74,0,0,1,9.511,11.243c-.216-1.039-.419-2.064-.635-3.1a4.27,4.27,0,0,1,1.487,1.429c-.072-.866-.159-1.718-.231-2.584.159,1.66,1.559,3.738,1.977,5.427a26.322,26.322,0,0,1,.765,6.278c.014,2.627-.029,6.856-1.761,8.963-1.645-1.948-1.544-5.8-2.526-8.227C62.837,52.371,58.42,48.2,54.35,45.082Z" transform="translate(24.104 16.732)" fill="#eddbcc"/><path d="M107.382,44.623a60.5,60.5,0,0,0-6.711,3.666A47.46,47.46,0,0,1,104.149,44c-1.775,1.169-3.536,2.324-5.311,3.493a36.33,36.33,0,0,1,6.711-10.175,19.719,19.719,0,0,0-9.526,11.243c.217-1.039.419-2.064.635-3.1a4.27,4.27,0,0,0-1.487,1.429c.087-.866.159-1.718.245-2.584-.159,1.66-1.559,3.724-1.977,5.427a27.1,27.1,0,0,0-.779,6.278c-.014,2.627.029,6.856,1.746,8.963,1.645-1.948,1.559-5.8,2.54-8.227C98.9,51.9,103.312,47.741,107.382,44.623Z" transform="translate(41.087 16.542)" fill="#eddbcc"/><g transform="translate(61.395 35.286)"><path d="M95.48,60.82c.014.029.014.072.029.1C95.538,60.849,95.509,60.82,95.48,60.82Z" transform="translate(-19.057 -8.326)" fill="#f2e1d2"/><path d="M140.4,116.808a98.581,98.581,0,0,0-7.779-11.4c-1.92-2.54-3.825-5.095-5.542-7.794-3.911-6.134-5.759-13.6-7.707-20.567a.268.268,0,0,0-.029-.1c-.837-4.647-1.992-9.454-2.511-14.231a34.742,34.742,0,0,1-.188-7.549c.245-2.266,1.212-4.388,1.414-6.668a14.353,14.353,0,0,1,.909-1.746c-.274.072-.534.2-.808.3.231-3.608,1.371-8.054,4.806-8.761a3.484,3.484,0,0,0-2.786.577c.433-.664.852-1.342,1.285-2.006a6.761,6.761,0,0,0-3.132,1.92,7.111,7.111,0,0,1,2.713-4.1,7.175,7.175,0,0,0-3.695,1.328c.274-.722.548-1.458.823-2.179-.852.88-1.7,1.761-2.555,2.656l.043-2.555-2.353,2.05a3.766,3.766,0,0,1,.678-2.9c-1,1.025-2.006,2.05-3,3.074-.072-.722-.159-1.429-.231-2.151a1.507,1.507,0,0,1-1.212,1.01,3.562,3.562,0,0,1-.058-2.324c-.491.548-.981,1.082-1.472,1.631a13.513,13.513,0,0,1,2.05-9.872,16.77,16.77,0,0,0-8.1,9.815,3.113,3.113,0,0,1-.043-3.377,4.52,4.52,0,0,0-2.136,3.782,2.84,2.84,0,0,1-.072-3.9c-1.487.981-2.9,1.645-3.782,3.233-.1-1.068-.216-2.122-.318-3.19-.462.924-.938,1.847-1.4,2.771-.173-.419-.346-.837-.534-1.241-.2.433-.419.866-.621,1.285-.058-.823-.115-1.645-.173-2.454-.491.823-1,1.645-1.487,2.483a17.656,17.656,0,0,1-.635-8.184,14.7,14.7,0,0,0-3.377,8.848c-.2-.895-.39-1.8-.592-2.7-.361.981-.707,1.977-1.068,2.959a14,14,0,0,1-.808-6.221A24.432,24.432,0,0,0,80.4,36.025c-.231-.433-.462-.88-.707-1.313-.173.678-.346,1.342-.52,2.021-.3-.548-.606-1.111-.909-1.66a2.646,2.646,0,0,1-.433,1.645,2.611,2.611,0,0,0-.361-1.544c-.26,1.01-.505,2.035-.765,3.045A5.375,5.375,0,0,0,75.5,36.141c-.072.794-.13,1.573-.2,2.367a48.688,48.688,0,0,0-4.027-8.328A47.7,47.7,0,0,0,75,41.741a3.332,3.332,0,0,0-2.757-2.035c.115.678.231,1.371.346,2.05l-1.6-1.342c-.043.678-.087,1.371-.144,2.05-.649-.447-1.3-.895-1.934-1.328a5.482,5.482,0,0,1,.548,2.439,15.986,15.986,0,0,0-7.505-3.81c1.3.26,3.19,2.93,4.012,3.94a26.874,26.874,0,0,1,3.2,4.979C72.666,55.741,72.7,63.261,71.613,70.9A60.039,60.039,0,0,1,68.87,82.472a.183.183,0,0,1,.087-.014A137.157,137.157,0,0,1,55.3,106.734c-7.245,9.7-15.631,23.108-11.821,35.621,4.85,15.905,22.588,18.734,36.429,18.042,5.658-.289,11.59-1.111,14.924-6.452,3.522,7.39,13.408,6.8,20.105,6.971,7.808.2,17.435.2,23.266-5.557C149.393,144.318,147.416,129.538,140.4,116.808Z" transform="translate(-42.531 -24.45)" fill="#f2e1d2"/></g><path d="M53.175,73.792c.953-.26,1.905-.534,2.872-.794-1.212,1.515-2.41,3.045-3.623,4.561a1.123,1.123,0,0,0,1.6-.981,14.913,14.913,0,0,1-7.476,8.5,9.709,9.709,0,0,0,6.235-1.5c-3.017,3.017-1.732,8.819-5.066,11.474A9.54,9.54,0,0,0,54.7,86.479a2.424,2.424,0,0,1,.606,2.136,11.671,11.671,0,0,0,1.8-5.542,1.214,1.214,0,0,1,.462,2.093,9.362,9.362,0,0,0,1.746-6.957,2.232,2.232,0,0,1,1.588,1.862,5.112,5.112,0,0,0-.707-4.633,3.67,3.67,0,0,0,2.627-4.546A5.257,5.257,0,0,1,57.721,73.5c2.511.3,2.742-4.734,1.631-5.773C57.649,70.184,56.1,72.536,53.175,73.792Z" transform="translate(20.646 30.023)" fill="#eddbcc"/><path d="M108.692,73.822c-.953-.26-1.905-.534-2.872-.794,1.212,1.53,2.41,3.045,3.623,4.575a1.123,1.123,0,0,1-1.6-.981,14.96,14.96,0,0,0,7.462,8.516,9.719,9.719,0,0,1-6.235-1.515c3,3.017,1.732,8.819,5.052,11.474a9.51,9.51,0,0,1-6.971-8.588,2.424,2.424,0,0,0-.606,2.136,11.671,11.671,0,0,1-1.8-5.542,1.209,1.209,0,0,0-.462,2.093,9.363,9.363,0,0,1-1.746-6.957,2.269,2.269,0,0,0-1.6,1.862,5.112,5.112,0,0,1,.707-4.633,3.67,3.67,0,0,1-2.627-4.546,5.257,5.257,0,0,0,5.109,2.612c-2.511.3-2.728-4.734-1.617-5.773C104.233,70.2,105.762,72.552,108.692,73.822Z" transform="translate(43.833 30.037)" fill="#eddbcc"/><g transform="translate(56.962 60.934)"><path d="M41.481,50.808a20.763,20.763,0,0,1,8.068-8.588c-2.6,2.151-5.441,6.351-6.076,9.656s.1,5.788,1.718,8.732a17.694,17.694,0,0,1,1.241,2.656c.029.707-.895.981-1.544.693-.794-.346-2.454-2.107-4.734-5.542C38.493,55.9,40.167,53.29,41.481,50.808Z" transform="translate(-39.46 -42.22)" fill="#ddc5b6"/><path d="M71.881,53.356C68.417,43.4,58.487,42.473,52.049,45.879S39.94,57.57,39.94,57.57s8.646,14.679,19.037,10.666C58.977,68.251,75.763,64.513,71.881,53.356Z" transform="translate(-39.247 -41.391)" fill="#ddc5b6"/><path d="M42.91,57.424s.693-6.177,5.21-9.815,10.118-4.965,15.545-1.169c5.326,3.738,5.874,6.74,6.509,7.375s-.26,6.553-5.21,10.45C61.933,66.661,49.621,74.931,42.91,57.424Z" transform="translate(-37.93 -41.36)" fill="#403034"/><path d="M43.8,56.956s.635-5.6,4.734-8.905,9.18-4.5,14.1-1.054c4.835,3.392,5.326,6.12,5.9,6.7s-.245,5.946-4.72,9.483C61.048,65.328,49.876,72.833,43.8,56.956Z" transform="translate(-37.535 -41.022)" fill="#070606"/><path d="M68.412,51.2A13.4,13.4,0,0,1,62.956,57.4c-2.858,1.689-13.87,7.116-18.345-6.524a15.591,15.591,0,0,0-.592,1.674c3.926,16.555,15.992,10.594,19.009,8.8,4.922-2.9,6.437-8.126,5.946-8.775A11.511,11.511,0,0,1,68.412,51.2Z" transform="translate(-37.438 -38.381)" fill="#252934"/><circle cx="1.617" cy="1.617" r="1.617" transform="translate(19.24 5.412)" fill="#fff"/></g><g transform="translate(137.54 60.833)"><path d="M95.926,52.878c3.637-9.887,13.582-10.652,19.947-7.13S127.78,57.656,127.78,57.656s-8.891,14.52-19.225,10.334C108.57,67.99,91.856,63.963,95.926,52.878Z" transform="translate(-95.287 -41.404)" fill="#ddc5b6"/><path d="M123.252,57.429s-.592-6.192-5.037-9.9-10.031-5.153-15.516-1.443c-5.4,3.652-5.99,6.639-6.639,7.26s.144,6.567,5.023,10.536C104.071,66.32,116.238,74.807,123.252,57.429Z" transform="translate(-95.032 -41.365)" fill="#403034"/><path d="M121.581,56.936s-.534-5.615-4.575-8.992-9.093-4.676-14.072-1.3c-4.893,3.305-5.427,6.019-6.019,6.6s.13,5.946,4.561,9.569C104.189,65,115.216,72.712,121.581,56.936Z" transform="translate(-94.645 -41.031)" fill="#070606"/><path d="M97.69,49.72a13.3,13.3,0,0,0,4.46,6.942c2.569,2.093,12.644,9.107,19.11-3.709a13.317,13.317,0,0,1,.332,1.732c-6.365,15.776-17.406,8.068-20.105,5.86-4.431-3.608-5.153-8.992-4.561-9.569A9.355,9.355,0,0,0,97.69,49.72Z" transform="translate(-94.641 -38.794)" fill="#252934"/><circle cx="1.617" cy="1.617" r="1.617" transform="translate(10.886 5.138)" fill="#fff"/><path d="M119.418,50.752a20.8,20.8,0,0,0-8.068-8.6c2.6,2.151,5.441,6.351,6.076,9.656s-.1,5.788-1.718,8.732a17.694,17.694,0,0,0-1.241,2.656c-.029.707.895.981,1.544.693.794-.346,2.454-2.107,4.734-5.528C122.391,55.862,120.717,53.249,119.418,50.752Z" transform="translate(-88.167 -42.15)" fill="#ddc5b6"/></g><g transform="translate(80.994 127.745)"><circle cx="0.635" cy="0.635" r="0.635" transform="translate(9.41)" fill="#f8f4f1"/><circle cx="0.635" cy="0.635" r="0.635" transform="translate(10.046 6.379)" fill="#f8f4f1"/><circle cx="0.635" cy="0.635" r="0.635" transform="translate(0 14.505)" fill="#f8f4f1"/><circle cx="0.635" cy="0.635" r="0.635" transform="translate(4.489 8.299)" fill="#f8f4f1"/><circle cx="0.635" cy="0.635" r="0.635" transform="translate(3.839 2.843)" fill="#f8f4f1"/><circle cx="0.635" cy="0.635" r="0.635" transform="translate(0.635 6.365)" fill="#f8f4f1"/><circle cx="0.635" cy="0.635" r="0.635" transform="translate(12.6 11.951)" fill="#f8f4f1"/><circle cx="0.635" cy="0.635" r="0.635" transform="translate(5.99 13.235)" fill="#f8f4f1"/><circle cx="0.635" cy="0.635" r="0.635" transform="translate(1.92 21.159)" fill="#f8f4f1"/><circle cx="0.635" cy="0.635" r="0.635" transform="translate(13.885 17.103)" fill="#f8f4f1"/><circle cx="0.635" cy="0.635" r="0.635" transform="translate(8.761 19.225)" fill="#f8f4f1"/></g><g transform="translate(127.209 125.249)"><circle cx="0.635" cy="0.635" r="0.635" transform="translate(4.474 22.906)" fill="#f8f4f1"/><circle cx="0.635" cy="0.635" r="0.635" transform="translate(4.142 14.693)" fill="#f8f4f1"/><circle cx="0.635" cy="0.635" r="0.635" transform="translate(12.6 9.035)" fill="#f8f4f1"/><circle cx="0.635" cy="0.635" r="0.635" transform="translate(9.396 14.621)" fill="#f8f4f1"/><circle cx="0.635" cy="0.635" r="0.635" transform="translate(10.046 20.062)" fill="#f8f4f1"/><circle cx="0.635" cy="0.635" r="0.635" transform="translate(13.25 16.54)" fill="#f8f4f1"/><circle cx="0.635" cy="0.635" r="0.635" transform="translate(0 18.806)" fill="#f8f4f1"/><circle cx="0.635" cy="0.635" r="0.635" transform="translate(6.942 8.4)" fill="#f8f4f1"/><circle cx="0.635" cy="0.635" r="0.635" transform="translate(11.965 1.746)" fill="#f8f4f1"/><circle cx="0.635" cy="0.635" r="0.635" transform="translate(4.157)" fill="#f8f4f1"/><circle cx="0.635" cy="0.635" r="0.635" transform="translate(8.227 3.392)" fill="#f8f4f1"/></g><path d="M84.254,116.312a28.274,28.274,0,0,1-17.233-8.645c-.014-.014-8.371-9.584-3.045-15.934S75.161,85.237,81.41,85.9s21.029-1.963,23.945,7.736C108.747,104.866,95.136,117.438,84.254,116.312Z" transform="translate(27.584 37.962)" fill="#d8c2b2"/><g transform="translate(92.801 125.726)"><path d="M83.3,113.551A24.416,24.416,0,0,1,68.447,106.1c-.014-.014-7.217-8.27-2.627-13.74s9.641-5.6,15.039-5.023,18.128-1.689,20.64,6.668C104.414,103.679,92.68,114.518,83.3,113.551Z" transform="translate(-64.29 -87.111)" fill="#040000"/><path d="M76.054,99.891c.534-1.443-.346-2.526-2.28-3.161-2.194-.722-8.573.779-8.573.779a20.477,20.477,0,0,0,3.507,5.109C70.887,103.1,75.4,101.623,76.054,99.891Z" transform="translate(-63.887 -82.933)" fill="#2a292a"/><path d="M82.838,100.039c-.693-1.371.058-2.54,1.905-3.392,2.093-.953,8.6-.188,8.6-.188a20.827,20.827,0,0,1-2.916,5.47C88.337,102.651,83.675,101.7,82.838,100.039Z" transform="translate(-56.18 -83.095)" fill="#2a292a"/></g><g transform="translate(56.154 137.43)"><path d="M39.58,104.486s12.384-8.241,26.471-9.266" transform="translate(-38.599 -95.22)" fill="none" stroke="#fff" stroke-linecap="round" stroke-linejoin="round" stroke-miterlimit="10" stroke-width="0.25"/><path d="M38.9,116.111S53.939,101.519,67.738,98.43" transform="translate(-38.9 -93.797)" fill="none" stroke="#fff" stroke-linecap="round" stroke-linejoin="round" stroke-miterlimit="10" stroke-width="0.25"/><path d="M44.7,121.929s7.577-14.953,21.159-20.279" transform="translate(-36.329 -92.369)" fill="none" stroke="#fff" stroke-linecap="round" stroke-linejoin="round" stroke-miterlimit="10" stroke-width="0.25"/></g><g transform="translate(139.001 137.459)"><path d="M124.2,104.535S111.831,96.279,97.73,95.24" transform="translate(-95.666 -95.24)" fill="none" stroke="#fff" stroke-linecap="round" stroke-linejoin="round" stroke-miterlimit="10" stroke-width="0.25"/><path d="M125.589,116.16S110.564,101.553,96.78,98.45" transform="translate(-96.087 -93.817)" fill="none" stroke="#fff" stroke-linecap="round" stroke-linejoin="round" stroke-miterlimit="10" stroke-width="0.25"/><path d="M117.43,121.963S109.867,107.01,96.3,101.67" transform="translate(-96.3 -92.389)" fill="none" stroke="#fff" stroke-linecap="round" stroke-linejoin="round" stroke-miterlimit="10" stroke-width="0.25"/></g></g></g></svg>