<svg id="Group_598" data-name="Group 598" xmlns="http://www.w3.org/2000/svg" width="393.476" height="243.173" viewBox="0 0 393.476 243.173">
  <g id="Group_181" data-name="Group 181" transform="translate(49.923 18.62)">
    <path id="Path_252" data-name="Path 252" d="M824.19,427.65c-31.2-14.96-67.47-5.4-99.88-15.38-38.22-11.76-43.92-44.15-43.73-79.58.07-12.15-9.49-19-17.31-27.64-2.32-2.56-5.06-5.32-8.52-5.32-6.83,0-8.28,8.49-14.44,10.06-13.58,3.46-27.83,1.84-41.48,5.04-2.14.5-4.05-1.29-5.86-2.53a11.128,11.128,0,0,0-10.46-1.36c-9.16,3.97-5.41,22.22-2.58,29.01,3,7.21,11.06,10.67,18.37,13.42q8.22,3.105,16.45,6.21a22.1,22.1,0,0,1,6.62,3.4c7.11,6,4.57,15.95,3.89,23.92-1.07,12.56.89,27.23-5.2,38.7-2.99,5.63-7.4,10.64-8.94,16.83-1.91,7.65.85,15.42,1.06,23.04.14,5.13-.83,10.13.52,15.22,2.64,9.91,10.85,13.94,20.48,15.32a495.878,495.878,0,0,0,90.22,4.59c6.21-.25,12.55-.65,18.3-3.01,6.13-2.51,11.86-7.27,18.46-6.62,16.17,1.59,31.01,13.21,47.24,12.48,8.07-.36,35.71-1.53,42.21-8.15C863.8,472.99,845.95,438.08,824.19,427.65Z" transform="translate(-576.713 -299.73)"/>
    <path id="Path_253" data-name="Path 253" d="M849.62,495.29c-.36.56-.72,1.11-1.12,1.65.58-.79,1.15-1.58,1.73-2.37A5.066,5.066,0,0,1,849.62,495.29Z" transform="translate(-576.713 -299.73)"/>
    <path id="Path_254" data-name="Path 254" d="M623.28,383.73c-.03-.01-.06-.01-.09-.02C623.16,383.84,623.2,383.84,623.28,383.73Z" transform="translate(-576.713 -299.73)"/>
    <path id="Path_255" data-name="Path 255" d="M774.09,477.37c-11.5-5.64-24.6-11.41-36.67-7.11-2.55.91-5.05,2.27-7.76,2.24-2.51-.03-4.84-1.24-7.29-1.78-8.62-1.9-16.54,4.54-23.83,9.51a90.477,90.477,0,0,1-23.58,11.24c-2.46.78-8.51,1.05-8.66,4.42-.07,1.72,1.26,2.97,2.95,3.86a494,494,0,0,0,54.69.81c6.21-.25,12.55-.65,18.3-3.01,6.13-2.51,11.86-7.27,18.46-6.62,16.17,1.59,31.01,13.21,47.24,12.48.3-.01.63-.03.98-.04C801.14,490.91,787.28,483.84,774.09,477.37Z" transform="translate(-576.713 -299.73)" fill="#666"/>
  </g>
  <path id="Path_256" data-name="Path 256" d="M739.52,422.71q-2.655-4.14-5.5-8.17a98.092,98.092,0,0,1-9.94-2.46c-22.09-6.8-33.32-20.49-38.82-37.68a87.582,87.582,0,0,1-2.75-11.25,139.541,139.541,0,0,1-1.94-18.57,38.771,38.771,0,0,0-5.57,24.7c.44-.29.89-.58,1.32-.89a8.985,8.985,0,0,1,.75-1c-.01.15,0,.3,0,.45a14.814,14.814,0,0,0,1.55,6.67c.41-.97.81-1.94,1.22-2.91.2,2.08.4,4.15.59,6.23.1,1.07.2,2.14.31,3.21.44-1.17.88-2.35,1.31-3.52a87.946,87.946,0,0,0,11.14,24.95c-.22-1.37-.44-2.74-.65-4.11a11.765,11.765,0,0,1,4.22,5.14c-.04-.73-.08-1.47-.12-2.2q6.945,8.955,13.89,17.9c.05-1.98.1-3.95.15-5.93,1.2,1.11,2.4,2.21,3.59,3.32a.929.929,0,0,1,.56-1.04c.78-.21,1.52.37,2.12.92q4.7,3.39,9.39,6.79a14.7,14.7,0,0,1-.31-6.33,31.245,31.245,0,0,1,9.95,7.53c-.12-1.16-.23-2.32-.35-3.48C736.9,421.55,738.21,422.13,739.52,422.71Z" transform="translate(-526.79 -281.11)" fill="#212121"/>
  <path id="Path_257" data-name="Path 257" d="M554.72,491.2c-6.78.68-14.8,1.99-19.44,7.4a24.817,24.817,0,0,0,6.36,1.15c9.22.53,18.17-2.24,27.14-4.73C564.81,491.68,560,490.03,554.72,491.2Z" transform="translate(-526.79 -281.11)" fill="#161616"/>
  <path id="Path_258" data-name="Path 258" d="M620.33,466.61c-2.37-5.94-11.6,2.42-15.81,4.07a84.4,84.4,0,0,1-19.18,4.75c-11.25,1.56-22.65,1.6-33.94,2.72-9.48.94-20.18,3.54-24.61,11.97.96,4.45,4.33,7.1,8.48,8.47,4.65-5.41,12.67-6.72,19.44-7.4,5.28-1.17,10.1.48,14.06,3.82,2.39-.66,4.77-1.31,7.17-1.87a233.517,233.517,0,0,1,34.65-5.68c1.84-.14,6.62.51,8.1-.47a3.254,3.254,0,0,0,.97-1.09,19.818,19.818,0,0,0,1.73-5.38A23.8,23.8,0,0,0,620.33,466.61Z" transform="translate(-526.79 -281.11)"/>
  <path id="Path_259" data-name="Path 259" d="M673.46,488.74a13.531,13.531,0,0,0-5.01-4.48c-18.14-10.43-32.06,5.19-49.04,9.15-18.09,4.22-37.32,1.84-54.97,8.27-5.51,2.01-10.96,5.09-13.97,10.13a16.538,16.538,0,0,0,9.1,8.51,18.509,18.509,0,0,0,15.58-.63c4.29-2.32,9.31-3.28,14.23-4.32,2.2-.46,4.38-.94,6.46-1.57,9.66-2.89,21.4.15,31.48-.05,6.23-.12,12.33-1.34,18.47-2.3,4.96-.77,12.58.07,17.08-1.54,6.76-2.43,9.34-10.58,11.69-17.03A7.533,7.533,0,0,0,673.46,488.74Z" transform="translate(-526.79 -281.11)"/>
  <path id="Path_260" data-name="Path 260" d="M674.51,493.28l-.58,1.94A5.257,5.257,0,0,0,674.51,493.28Z" transform="translate(-526.79 -281.11)"/>
  <path id="Path_261" data-name="Path 261" d="M674.96,491.78c-.13.36-.27.73-.41,1.1-.01.13-.03.26-.04.4Z" transform="translate(-526.79 -281.11)"/>
  <path id="Path_262" data-name="Path 262" d="M837.33,492.46c5.37,5.8,8.09,17.63,4.36,24.9-5.39,10.51-18.66,5.93-28.19,5.93-7.44-.15-14.87.34-22.32.2-4.53-.09-11.97-.69-15.46-3.19a6.267,6.267,0,0,1-2.24-7.61c1.51-3.25,5.72-4.96,9.73-5.41s8.1.02,12.11-.4a10.869,10.869,0,0,0,4.13-1.11c6.17-3.41,1.65-8.44.68-12.86-.62-2.8-.34-6.13,2.25-7.9a9.619,9.619,0,0,1,3.95-1.35c5.66-.87,11.44.35,17.02,1.55a30.3,30.3,0,0,1,7.26,2.22A24.036,24.036,0,0,1,837.33,492.46Z" transform="translate(-526.79 -281.11)"/>
  <path id="Path_263" data-name="Path 263" d="M920.11,458.83c1.15,8.16-4.24,15.83-10.37,21.34a68.259,68.259,0,0,1-64.1,14.31,26.207,26.207,0,0,0,8.48-20.26,21.588,21.588,0,0,0,14.79,9.49c6.08,1,12.34,0,18.21-1.85C900.15,477.73,912.16,469.93,920.11,458.83Z" transform="translate(-526.79 -281.11)"/>
  <path id="Path_264" data-name="Path 264" d="M666.21,311.43c3.9-.6,7.1-3.47,9.37-6.71a28.246,28.246,0,0,0,3.97-23.61c-.52,1.72-2.11,2.88-3.64,3.82-8.81,5.45-19.42,8.73-25.86,16.85C652.8,307.77,659.7,312.42,666.21,311.43Z" transform="translate(-526.79 -281.11)"/>
  <g id="Group_183" data-name="Group 183" transform="translate(105.898 33.042)">
    <path id="Path_265" data-name="Path 265" d="M635.9,322.08c3.21.19,7.13-4.65,4.19-7.16-2.11-1.8-5.85-.16-6.88,2.09a3.487,3.487,0,0,0-.01,2.88A3.107,3.107,0,0,0,635.9,322.08Z" transform="translate(-632.688 -314.152)" fill="#1b1c1a"/>
    <g id="Group_182" data-name="Group 182" transform="translate(0 0.168)">
      <path id="Path_266" data-name="Path 266" d="M637.21,314.32s-.18.05-.49.14a4.45,4.45,0,0,0-.55.16c-.2.08-.42.18-.67.28a6.48,6.48,0,0,0-.72.45,4.172,4.172,0,0,0-1.18,1.47l-.18.47-.1.5a3.422,3.422,0,0,0-.02,1.01,5.218,5.218,0,0,0,.2.97,6.635,6.635,0,0,0,.39.85,3.742,3.742,0,0,0,.48.7,5.207,5.207,0,0,0,.5.53,2.671,2.671,0,0,0,.43.37c.25.2.4.31.4.31s-.17-.08-.46-.21a3.064,3.064,0,0,1-.51-.29,2.58,2.58,0,0,1-.6-.48,4.074,4.074,0,0,1-.6-.69,5.18,5.18,0,0,1-.52-.9,4.847,4.847,0,0,1-.28-1.09,4.1,4.1,0,0,1,0-1.16l.13-.58.22-.54a3.394,3.394,0,0,1,.65-.92,3.786,3.786,0,0,1,.81-.66,6.9,6.9,0,0,1,.83-.4,7.513,7.513,0,0,1,.75-.19,3.354,3.354,0,0,1,.58-.06C637.03,314.33,637.21,314.32,637.21,314.32Z" transform="translate(-632.688 -314.32)" fill="#565756"/>
      <path id="Path_267" data-name="Path 267" d="M636.01,316.43c-.62.34-1.23.42-1.36.18s.27-.71.89-1.05,1.23-.42,1.36-.18S636.63,316.09,636.01,316.43Z" transform="translate(-632.688 -314.32)" fill="#f5f5f5"/>
    </g>
  </g>
  <path id="Path_268" data-name="Path 268" d="M585.74,321.13c2.96-1.48,6.25-4.62,6.96-8.08a11.089,11.089,0,0,0-10.28-1.25c-3.74,1.62-5.32,5.62-5.7,10.25C579.77,322.47,582.91,323.02,585.74,321.13Z" transform="translate(-526.79 -281.11)" fill="#444"/>
  <path id="Path_269" data-name="Path 269" d="M677.38,284.87a28.326,28.326,0,0,1-1.7,19.68,28.245,28.245,0,0,0,3.86-23.44c-.52,1.72-2.11,2.88-3.64,3.82-8.81,5.45-19.42,8.73-25.86,16.85.14.31.3.61.46.9,6.46-6.12,15.54-9.23,23.24-13.99C675.28,287.75,676.86,286.59,677.38,284.87Z" transform="translate(-526.79 -281.11)" fill="#212121"/>
  <path id="Path_270" data-name="Path 270" d="M675.09,330l2.44,2.05a37.815,37.815,0,0,0,16.01-19.68c2.86-8.14,1.23-17.63-1.77-25.72.57-.36-7.36,9.52-12.77,13.13s-10.92,7.94-12.87,14.14C669.59,318.99,670.4,326.05,675.09,330Z" transform="translate(-526.79 -281.11)"/>
  <path id="Path_271" data-name="Path 271" d="M679.01,304.21c5.1-3.4,12.44-12.38,12.78-13.09a.06.06,0,0,1-.01-.04c.03-.02.03,0,.01.04a51.148,51.148,0,0,1,3.13,13.69c.51-6.35-.94-13.03-3.13-18.96-.34.71-7.68,9.69-12.78,13.09-5.41,3.61-10.92,7.94-12.87,14.14a22.462,22.462,0,0,1,1.31,2.23C669.99,310.69,674.53,307.2,679.01,304.21Z" transform="translate(-526.79 -281.11)" fill="#212121"/>
  <g id="Group_186" data-name="Group 186" transform="translate(60.15 37.5)">
    <g id="Group_184" data-name="Group 184">
      <ellipse id="Ellipse_171" data-name="Ellipse 171" cx="0.37" cy="0.36" rx="0.37" ry="0.36" transform="translate(2.49 12.4)" fill="#232323"/>
      <ellipse id="Ellipse_172" data-name="Ellipse 172" cx="0.37" cy="0.36" rx="0.37" ry="0.36" transform="translate(4.2 8.04)" fill="#232323"/>
      <ellipse id="Ellipse_173" data-name="Ellipse 173" cx="0.37" cy="0.36" rx="0.37" ry="0.36" transform="translate(10.03 6.97)" fill="#232323"/>
      <ellipse id="Ellipse_174" data-name="Ellipse 174" cx="0.37" cy="0.36" rx="0.37" ry="0.36" transform="translate(7.03 9.17)" fill="#232323"/>
      <ellipse id="Ellipse_175" data-name="Ellipse 175" cx="0.37" cy="0.36" rx="0.37" ry="0.36" transform="translate(6.13 12.16)" fill="#232323"/>
      <ellipse id="Ellipse_176" data-name="Ellipse 176" cx="0.37" cy="0.36" rx="0.37" ry="0.36" transform="translate(8.65 11.03)" fill="#232323"/>
      <ellipse id="Ellipse_177" data-name="Ellipse 177" cx="0.37" cy="0.36" rx="0.37" ry="0.36" transform="translate(1.03 9.26)" fill="#232323"/>
      <ellipse id="Ellipse_178" data-name="Ellipse 178" cx="0.37" cy="0.36" rx="0.37" ry="0.36" transform="translate(7.14 5.37)" fill="#232323"/>
      <ellipse id="Ellipse_179" data-name="Ellipse 179" cx="0.37" cy="0.36" rx="0.37" ry="0.36" transform="translate(11.36 3.02)" fill="#232323"/>
      <ellipse id="Ellipse_180" data-name="Ellipse 180" cx="0.37" cy="0.36" rx="0.37" ry="0.36" transform="translate(7.57 0.36)" fill="#232323"/>
      <ellipse id="Ellipse_181" data-name="Ellipse 181" cx="0.37" cy="0.36" rx="0.37" ry="0.36" transform="translate(8.98 3.05)" fill="#232323"/>
      <ellipse id="Ellipse_182" data-name="Ellipse 182" cx="0.37" cy="0.36" rx="0.37" ry="0.36" transform="translate(0 6.06)" fill="#232323"/>
      <ellipse id="Ellipse_183" data-name="Ellipse 183" cx="0.37" cy="0.36" rx="0.37" ry="0.36" transform="translate(4.23 3.7)" fill="#232323"/>
      <ellipse id="Ellipse_184" data-name="Ellipse 184" cx="0.37" cy="0.36" rx="0.37" ry="0.36" transform="translate(4.6)" fill="#232323"/>
      <ellipse id="Ellipse_185" data-name="Ellipse 185" cx="0.37" cy="0.36" rx="0.37" ry="0.36" transform="translate(1.84 3.73)" fill="#232323"/>
    </g>
    <g id="Group_185" data-name="Group 185" transform="translate(6.91 8.79)">
      <path id="Path_272" data-name="Path 272" d="M609.15,338.17s-4.74-7.08-12.06-10.77" transform="translate(-593.85 -327.4)" fill="none" stroke="#8c8c8c" stroke-linecap="round" stroke-linejoin="round" stroke-miterlimit="10" stroke-width="0.25"/>
      <path id="Path_273" data-name="Path 273" d="M606.68,345.21s-4.71-10.98-11.39-15.69" transform="translate(-593.85 -327.4)" fill="none" stroke="#8c8c8c" stroke-linecap="round" stroke-linejoin="round" stroke-miterlimit="10" stroke-width="0.25"/>
      <path id="Path_274" data-name="Path 274" d="M600.53,347.11s-.62-9.5-6.68-15.32" transform="translate(-593.85 -327.4)" fill="none" stroke="#8c8c8c" stroke-linecap="round" stroke-linejoin="round" stroke-miterlimit="10" stroke-width="0.25"/>
    </g>
  </g>
  <path id="Path_275" data-name="Path 275" d="M625.74,381.39c-.23,2.79-.47,6.33-.69,8.91a33.573,33.573,0,0,0-.2,7.02,32.84,32.84,0,0,0,8.11.17c1.17-.1,2.33-.22,3.5-.36-.4-5.09-1.07-10.17-1.27-15.26A43.122,43.122,0,0,1,625.74,381.39Z" transform="translate(-526.79 -281.11)" fill="#06429a"/>
  <path id="Path_276" data-name="Path 276" d="M648.57,380.59a135.164,135.164,0,0,0,1.23,14.01,103.629,103.629,0,0,0,16.5-5.83c-1.06-3.66-2.34-7.43-3.4-11.08A89.4,89.4,0,0,1,648.57,380.59Z" transform="translate(-526.79 -281.11)" fill="#06429a"/>
  <path id="Path_277" data-name="Path 277" d="M669.85,375.07a51.4,51.4,0,0,1-6.94,2.61c1.06,3.66,2.34,7.43,3.4,11.08A105.4,105.4,0,0,0,678,382.55c-1.13-3.38-2.13-6.76-3.25-10.15A45.668,45.668,0,0,1,669.85,375.07Z" transform="translate(-526.79 -281.11)" fill="#053d7f"/>
  <path id="Path_278" data-name="Path 278" d="M683.26,365.61a46.953,46.953,0,0,1-8.52,6.8c1.12,3.38,2.12,6.76,3.25,10.15q4.17-2.565,8.07-5.51A90.146,90.146,0,0,1,683.26,365.61Z" transform="translate(-526.79 -281.11)" fill="#06429a"/>
  <path id="Path_279" data-name="Path 279" d="M642.21,381.32c-2.31.24-4.66.45-7.01.55.19,5.09.87,10.17,1.27,15.26a100.41,100.41,0,0,0,13.33-2.53,132.462,132.462,0,0,1-1.23-14.01C646.45,380.87,644.33,381.1,642.21,381.32Z" transform="translate(-526.79 -281.11)" fill="#053d7f"/>
  <path id="Path_280" data-name="Path 280" d="M625.24,397.13c-5.93,2.05-10.24,7.4-8.21,13.04a2.75,2.75,0,0,0,1.94,2,2.569,2.569,0,0,0,1.64-.47C625.32,408.88,624.51,397.38,625.24,397.13Z" transform="translate(-526.79 -281.11)" fill="#c99b09"/>
  <path id="Path_281" data-name="Path 281" d="M636.4,471.66a15.825,15.825,0,0,1,1.65-3.06c-1.14.99-2.29,1.97-3.44,2.96l2.37-5.79c-.23.57-1.95,1.39-3.3,2.05a70.139,70.139,0,0,1,6.63-11.87l-6.3,5.88a60.9,60.9,0,0,1,7-23.43q-2.8,4.335-5.61,8.68a54.227,54.227,0,0,1,2.15-9.83c-1.33,2.3-2.67,4.6-4,6.9a98.811,98.811,0,0,1,.72-17.02q-2.64,10.56-6.08,20.88a19.322,19.322,0,0,1-.45-11.77,51.82,51.82,0,0,0-5.72,15.8c.41-2.19-2.31-7.38-2.35-10.14-3.5,10.75-7.3,36.9,8.07,41.51.1-.27.19-.53.28-.79a52.644,52.644,0,0,1,12.36-12.47,21.135,21.135,0,0,0,3.42-2.75A31.492,31.492,0,0,0,636.4,471.66Z" transform="translate(-526.79 -281.11)" fill="#212121"/>
  <path id="Path_282" data-name="Path 282" d="M818.7,437.4a5.882,5.882,0,0,1,1.6-3.37,62.771,62.771,0,0,1,4.17,6.53c.56-1.08,1.12-2.15,1.68-3.23a27.527,27.527,0,0,1,7.16,20.78c1.02-2.57,2.05-5.14,3.07-7.71a8.642,8.642,0,0,1,1.35,4.12l2.14-2.74c.61,2.3,1.22,4.61,1.83,6.91a3.262,3.262,0,0,1,2.3-2.25,47.389,47.389,0,0,1,1.91,15.53c3.94-2.13,5.2-6.94,5.83-11.49-4.99-14.2-15.68-27.13-27.52-32.8a80.454,80.454,0,0,0-14.37-5.22C813.97,427.31,819.19,433.34,818.7,437.4Z" transform="translate(-526.79 -281.11)" fill="#212121"/>
</svg>
