<svg xmlns="http://www.w3.org/2000/svg" width="247.582" height="178.715" viewBox="0 0 247.582 178.715">
  <g id="Group_788" data-name="Group 788" transform="translate(-367.872 -4493.259)">
    <g id="Group_722" data-name="Group 722" transform="translate(394.411 4623.005)">
      <path id="Path_1151" data-name="Path 1151" d="M3.982,22.193a.714.714,0,0,0,.232.321c.107.071.3.036.321-.089a27.34,27.34,0,0,0,.643-3.41c0-.036-2.232-.232-2.428-.214C2.732,19.818,3.554,21.229,3.982,22.193Z" transform="translate(2.164 14.772)" fill="#231815"/>
      <path id="Path_1152" data-name="Path 1152" d="M12.822,22.193a.714.714,0,0,0,.232.321c.107.071.3.036.321-.089a27.34,27.34,0,0,0,.643-3.41c0-.036-2.232-.232-2.428-.214C11.572,19.818,12.394,21.229,12.822,22.193Z" transform="translate(9.108 14.772)" fill="#231815"/>
      <path id="Path_1153" data-name="Path 1153" d="M22.892,22.193a.714.714,0,0,0,.232.321c.107.071.3.036.321-.089a27.34,27.34,0,0,0,.643-3.41c0-.036-2.232-.232-2.428-.214C21.642,19.818,22.464,21.229,22.892,22.193Z" transform="translate(17.018 14.772)" fill="#231815"/>
      <path id="Path_1154" data-name="Path 1154" d="M44.856,24.734c-.964-7.981-3.375-16.534-9.91-21.212A21.084,21.084,0,0,0,20.68.111,34.024,34.024,0,0,0,9.788,3.058c-8.66,4-10.981,16.8-9.267,25.23A7.19,7.19,0,0,0,4.4,33.59c2.66,1.125,5.839-.161,7.785-2.3A10.691,10.691,0,0,0,13.4,29.662a11.082,11.082,0,0,0,2.75,3.018,10.129,10.129,0,0,0,5.982,2.089,11.118,11.118,0,0,0,6.624-2.482,12.327,12.327,0,0,0,3.357-3.892,12.523,12.523,0,0,0,2.553,3.857c2.071,2.053,5.571,2.982,7.946,1.286C45.213,31.7,45.249,27.894,44.856,24.734Z" transform="translate(0 0)"/>
    </g>
    <g id="Group_723" data-name="Group 723" transform="translate(544.411 4623.005)">
      <path id="Path_1151-2" data-name="Path 1151" d="M3.982,22.193a.714.714,0,0,0,.232.321c.107.071.3.036.321-.089a27.34,27.34,0,0,0,.643-3.41c0-.036-2.232-.232-2.428-.214C2.732,19.818,3.554,21.229,3.982,22.193Z" transform="translate(2.164 14.772)" fill="#231815"/>
      <path id="Path_1152-2" data-name="Path 1152" d="M12.822,22.193a.714.714,0,0,0,.232.321c.107.071.3.036.321-.089a27.34,27.34,0,0,0,.643-3.41c0-.036-2.232-.232-2.428-.214C11.572,19.818,12.394,21.229,12.822,22.193Z" transform="translate(9.108 14.772)" fill="#231815"/>
      <path id="Path_1153-2" data-name="Path 1153" d="M22.892,22.193a.714.714,0,0,0,.232.321c.107.071.3.036.321-.089a27.34,27.34,0,0,0,.643-3.41c0-.036-2.232-.232-2.428-.214C21.642,19.818,22.464,21.229,22.892,22.193Z" transform="translate(17.018 14.772)" fill="#231815"/>
      <path id="Path_1154-2" data-name="Path 1154" d="M44.856,24.734c-.964-7.981-3.375-16.534-9.91-21.212A21.084,21.084,0,0,0,20.68.111,34.024,34.024,0,0,0,9.788,3.058c-8.66,4-10.981,16.8-9.267,25.23A7.19,7.19,0,0,0,4.4,33.59c2.66,1.125,5.839-.161,7.785-2.3A10.691,10.691,0,0,0,13.4,29.662a11.082,11.082,0,0,0,2.75,3.018,10.129,10.129,0,0,0,5.982,2.089,11.118,11.118,0,0,0,6.624-2.482,12.327,12.327,0,0,0,3.357-3.892,12.523,12.523,0,0,0,2.553,3.857c2.071,2.053,5.571,2.982,7.946,1.286C45.213,31.7,45.249,27.894,44.856,24.734Z" transform="translate(0 0)"/>
    </g>
    <g id="Group_721" data-name="Group 721" transform="translate(367.871 4493.263)">
      <path id="Path_1347" data-name="Path 1347" d="M35.927,72.268s0,5.792,8.36,9.653,2.781,19.306,8.36,27.993c0,0,1.865,32.82,17.653,40.542s28.811,25.1,36.239,26.063,28.811,7.722,46.465-8.688c0,0,26.946-10.618,30.66-19.306s20.435-39.577,21.367-63.709c0,0,2.781-4.826,10.225-6.757,7.428-1.931.933,9.653,9.293,4.826s9.064-24.492,17.768-30.644c0,0,11.845-13.4,0-23.527s-37.973-23.9-37.973-23.9S191.453,1.2,185.187,9.884s-11.845,7.608-13.939,5.432-50.178-34.03-96.185,1.08c0,0-7.673.72-9.064-4.712S52.763-1.339,42.308,4.453L4.335,30.875s-9.751,8.328,0,19.911,15.33,25.343,16.721,27.142c1.391,1.816,4.532,6.152,9.064-1.44S35.927,72.268,35.927,72.268Z" transform="translate(0 0)" fill="#252526"/>
      <path id="Path_1348" data-name="Path 1348" d="M102.354,39.556a58.548,58.548,0,0,0-6.741,3.7,49.221,49.221,0,0,1,3.5-4.319c-1.783,1.178-3.567,2.34-5.35,3.518A36.587,36.587,0,0,1,100.5,32.21a19.807,19.807,0,0,0-9.571,11.305c.213-1.047.425-2.078.638-3.125a4.371,4.371,0,0,0-1.505,1.44l.245-2.6c-.147,1.669-1.571,3.747-2,5.464a27.357,27.357,0,0,0-.785,6.315c-.016,2.65.033,6.9,1.767,9.015,1.669-1.963,1.554-5.841,2.552-8.279C93.813,46.886,98.263,42.7,102.354,39.556Z" transform="translate(55.674 20.49)" fill="#040000"/>
      <path id="Path_1349" data-name="Path 1349" d="M53.53,39.976a58.547,58.547,0,0,1,6.741,3.7,49.224,49.224,0,0,0-3.5-4.319c1.783,1.178,3.567,2.34,5.35,3.518A36.587,36.587,0,0,0,55.379,32.63,19.807,19.807,0,0,1,64.95,43.935c-.213-1.047-.425-2.078-.638-3.125a4.371,4.371,0,0,1,1.505,1.44l-.245-2.6c.147,1.669,1.571,3.747,2,5.464a27.356,27.356,0,0,1,.785,6.315c.016,2.65-.033,6.9-1.767,9.015-1.669-1.963-1.554-5.841-2.552-8.279C62.07,47.306,57.62,43.117,53.53,39.976Z" transform="translate(34.048 20.758)" fill="#040000"/>
      <g id="Group_713" data-name="Group 713" transform="translate(66.08 61)">
        <path id="Path_1350" data-name="Path 1350" d="M66.06,38.538a12.536,12.536,0,0,0-11.7.393c-5.5,3.37-7.8,11.387-13.972,13.17,2.421,2.716,4.843,5.415,7.264,8.131,1.849,2.061,3.812,4.2,6.4,5.072,4.4,1.472,9.031-1.162,12.909-3.763,3.747-2.5,9.751-5.17,9.26-10.291C75.746,46.146,70.33,40.517,66.06,38.538Z" transform="translate(-40.39 -37.283)" fill="#535354"/>
        <path id="Path_1351" data-name="Path 1351" d="M53.31,66.734a27.629,27.629,0,0,0,4.5-7.019,7.575,7.575,0,0,0,.834-4.745c-.376-1.587-2.012-2.961-3.518-2.438,2.176-2.765,6.4-2.454,9.309-4.352.965-.638,1.751-1.636,2.618-2.291.916,4.172-1.472,9.424-3.812,12.81C60.558,62.627,56.059,63.592,53.31,66.734Z" transform="translate(-32.172 -31.808)" fill="#535354"/>
        <g id="Group_712" data-name="Group 712" transform="translate(7.591 3.239)">
          <path id="Path_1352" data-name="Path 1352" d="M57.937,39.291a10.012,10.012,0,0,0-8.066,3.681,23.867,23.867,0,0,0-4.336,8.213,6.009,6.009,0,0,0-.425,1.931,5.516,5.516,0,0,0,.72,2.307c1.391,2.765,3.272,5.464,6.021,6.757,2.487,1.178,5.366,1.063,8.082.72a16.178,16.178,0,0,0,4.4-1.063C77.013,56.355,68.719,40.24,57.937,39.291Z" transform="translate(-44.978 -39.263)" fill="#040000"/>
          <path id="Path_1353" data-name="Path 1353" d="M46.159,45.66c.115.262.213.524.344.769,1.391,2.765,3.272,5.464,6.021,6.757,2.487,1.178,5.366,1.063,8.082.72a16.177,16.177,0,0,0,4.4-1.063,10.42,10.42,0,0,0,5.53-4.941c.573,4.041-1.1,8.066-6.283,10.307a16.325,16.325,0,0,1-4.4,1.063c-2.716.344-5.6.458-8.082-.72-2.749-1.309-4.63-3.992-6.021-6.757a5.516,5.516,0,0,1-.72-2.307,5.253,5.253,0,0,1,.425-1.931C45.668,46.936,45.914,46.3,46.159,45.66Z" transform="translate(-45.029 -35.194)" fill="#352b22"/>
          <path id="Path_1354" data-name="Path 1354" d="M45.986,49.452c1.391,2.765,3.272,5.464,6.021,6.757,2.487,1.178,5.366,1.063,8.082.72a16.178,16.178,0,0,0,4.4-1.063c3.665-1.587,5.563-4.074,6.168-6.822-.2,3.289-2.078,6.364-6.364,8.229a16.325,16.325,0,0,1-4.4,1.063c-2.716.344-5.6.458-8.082-.72-2.749-1.309-4.63-3.992-6.021-6.757a5.516,5.516,0,0,1-.72-2.307,4.967,4.967,0,0,1,.213-1.293A5.843,5.843,0,0,0,45.986,49.452Z" transform="translate(-45.004 -34.176)" fill="#d0d0d0"/>
          <ellipse id="Ellipse_509" data-name="Ellipse 509" cx="1.652" cy="1.702" rx="1.652" ry="1.702" transform="translate(12.664 1.991)" fill="#fff"/>
        </g>
      </g>
      <g id="Group_715" data-name="Group 715" transform="translate(142.604 61)">
        <path id="Path_1355" data-name="Path 1355" d="M97.351,38.538a12.536,12.536,0,0,1,11.7.393c5.5,3.37,7.8,11.387,13.972,13.17-2.421,2.716-4.843,5.415-7.264,8.131-1.849,2.061-3.812,4.2-6.4,5.072-4.4,1.472-9.031-1.162-12.909-3.763-3.747-2.5-9.751-5.17-9.26-10.291C87.665,46.146,93.081,40.517,97.351,38.538Z" transform="translate(-87.163 -37.283)" fill="#535354"/>
        <path id="Path_1356" data-name="Path 1356" d="M101.581,66.734a27.629,27.629,0,0,1-4.5-7.019,7.575,7.575,0,0,1-.834-4.745c.376-1.587,2.012-2.961,3.518-2.438-2.176-2.765-6.4-2.454-9.309-4.352-.965-.638-1.751-1.636-2.618-2.291-.916,4.172,1.472,9.424,3.812,12.81C94.333,62.627,98.832,63.592,101.581,66.734Z" transform="translate(-86.861 -31.808)" fill="#535354"/>
        <g id="Group_714" data-name="Group 714" transform="translate(2.511 3.239)">
          <path id="Path_1357" data-name="Path 1357" d="M101.5,39.291a10.012,10.012,0,0,1,8.066,3.681,23.867,23.867,0,0,1,4.336,8.213,6.009,6.009,0,0,1,.425,1.931,5.516,5.516,0,0,1-.72,2.307c-1.391,2.765-3.272,5.464-6.021,6.757-2.487,1.178-5.366,1.063-8.082.72a16.178,16.178,0,0,1-4.4-1.063C82.419,56.355,90.714,40.24,101.5,39.291Z" transform="translate(-88.697 -39.263)" fill="#040000"/>
          <path id="Path_1358" data-name="Path 1358" d="M113.269,45.66c-.115.262-.213.524-.344.769-1.391,2.765-3.272,5.464-6.021,6.757-2.487,1.178-5.366,1.063-8.082.72a16.178,16.178,0,0,1-4.4-1.063,10.42,10.42,0,0,1-5.53-4.941c-.573,4.041,1.1,8.066,6.283,10.307a16.325,16.325,0,0,0,4.4,1.063c2.716.344,5.6.458,8.082-.72,2.749-1.309,4.63-3.992,6.021-6.757a5.516,5.516,0,0,0,.72-2.307,5.253,5.253,0,0,0-.425-1.931C113.76,46.936,113.515,46.3,113.269,45.66Z" transform="translate(-88.642 -35.194)" fill="#352b22"/>
          <path id="Path_1359" data-name="Path 1359" d="M113.432,49.452c-1.391,2.765-3.272,5.464-6.021,6.757-2.487,1.178-5.366,1.063-8.082.72a16.178,16.178,0,0,1-4.4-1.063c-3.665-1.587-5.563-4.074-6.168-6.822.2,3.289,2.078,6.364,6.364,8.229a16.325,16.325,0,0,0,4.4,1.063c2.716.344,5.6.458,8.082-.72,2.749-1.309,4.63-3.992,6.021-6.757a5.516,5.516,0,0,0,.72-2.307,4.966,4.966,0,0,0-.213-1.293A5.843,5.843,0,0,1,113.432,49.452Z" transform="translate(-88.657 -34.176)" fill="#d0d0d0"/>
          <ellipse id="Ellipse_510" data-name="Ellipse 510" cx="1.652" cy="1.702" rx="1.652" ry="1.702" transform="translate(9.788 1.991)" fill="#fff"/>
        </g>
      </g>
      <path id="Path_1360" data-name="Path 1360" d="M107.011,107.351c-6.741-.164-16.688.442-20.238-7.051-3.354,5.4-9.309,6.25-15,6.544a64.2,64.2,0,0,1-12.81-.556c4.025,3.419,7.477,5.955,10.176,6.3,6.839.883,25.457,6.659,42.145-5.186C109.809,107.417,108.386,107.384,107.011,107.351Z" transform="translate(37.502 63.801)" fill="#040000"/>
      <path id="Path_1361" data-name="Path 1361" d="M75.394,112.1c12.042,3.812,16.393-3.681,21.351-12.418-4.139.033-8.36.033-12.3-1.342-1.881-.654-3.714-1.636-5.677-1.669-2.225-.049-4.3,1.129-6.266,2.258-1.98,1.145-4.385,2.127-5.972,3.763-.982,1,3.321,5.383,3.976,5.988A13.777,13.777,0,0,0,75.394,112.1Z" transform="translate(42.223 61.491)" fill="#aa3e25"/>
      <path id="Path_1362" data-name="Path 1362" d="M65.3,64.011,59.507,68.87A9.415,9.415,0,0,0,64.1,66.5a27.481,27.481,0,0,1-9.277,8.655c1.62-.442,3.223-.867,4.843-1.309a57.484,57.484,0,0,1-17.8,11.273c7.264-.54,14.856-1.211,20.974-5.17,8.017-5.2,11.992-16.279,8.753-25.326.851,4.974-6.561,6.986-9.358,10.307A22.627,22.627,0,0,0,65.3,64.011Z" transform="translate(26.632 34.745)" fill="#151515"/>
      <path id="Path_1363" data-name="Path 1363" d="M96.108,64.011,101.9,68.87A9.415,9.415,0,0,1,97.3,66.5a27.481,27.481,0,0,0,9.277,8.655c-1.62-.442-3.223-.867-4.843-1.309a57.484,57.484,0,0,0,17.8,11.273c-7.264-.54-14.856-1.211-20.974-5.17-8.017-5.2-11.992-16.279-8.753-25.326-.851,4.974,6.561,6.986,9.358,10.307A24.126,24.126,0,0,1,96.108,64.011Z" transform="translate(56.406 34.745)" fill="#151515"/>
      <path id="Path_1364" data-name="Path 1364" d="M31.919,26.652c-2.405,3.5-4.368,7.722-3.485,11.878-.294-1.063-.589-2.127-.9-3.207a11.125,11.125,0,0,0-.7,9.1c-.933-.54-1.849-1.1-2.781-1.636a4.688,4.688,0,0,1,.9,3.19c-.245,1.113-1.832,1.849-2.552.965a6.376,6.376,0,0,1-.638,4.974c-.753-1.849-1.505-3.681-2.241-5.53-.245,1.178-.491,2.372-.736,3.55a42.041,42.041,0,0,1-3.174-18.095,8.665,8.665,0,0,1-2.6,4.516c-.622-1.636-1.243-3.256-1.865-4.892-.393-2.143-.8-4.287-1.194-6.43a1.521,1.521,0,0,1-2.487.376c-.753-1.1-.262-2.552.082-3.828a4.41,4.41,0,0,0,.18-1.031L4.335,22.905s-9.751,8.328,0,19.911,15.33,25.343,16.721,27.142c1.391,1.816,4.532,6.152,9.064-1.456s5.808-4.221,5.808-4.221a5.124,5.124,0,0,0,.18,1.145c5.1-18.226,13.367-34.7,18.471-52.927C46.742,15.821,36.729,19.65,31.919,26.652Z" transform="translate(0 7.953)" fill="#343535"/>
      <path id="Path_1365" data-name="Path 1365" d="M90.05,53.07a.208.208,0,0,1,.016.1C90.1,53.1,90.083,53.086,90.05,53.07Z" transform="translate(57.278 33.759)" fill="#1c1d1d"/>
      <path id="Path_1366" data-name="Path 1366" d="M141.489,113.713a97.128,97.128,0,0,0-7.837-11.469c-1.931-2.552-3.845-5.121-5.579-7.837-3.927-6.168-5.808-13.678-7.771-20.7,0-.016-.016-.065-.016-.1-.851-4.679-2.012-9.506-2.536-14.316a34.673,34.673,0,0,1-.2-7.591c.245-2.274,1.227-4.417,1.423-6.708a11.88,11.88,0,0,1,.916-1.751,6.773,6.773,0,0,0-.8.311c.229-3.632,1.374-8.1,4.843-8.818a3.484,3.484,0,0,0-2.8.589c.425-.671.851-1.342,1.292-2.029a6.775,6.775,0,0,0-3.141,1.931,7.108,7.108,0,0,1,2.732-4.123,7.116,7.116,0,0,0-3.714,1.342c.278-.736.556-1.472.834-2.192l-2.569,2.667c.016-.851.033-1.718.033-2.569-.785.687-1.571,1.374-2.372,2.061a3.809,3.809,0,0,1,.687-2.929c-1.014,1.031-2.012,2.061-3.027,3.092-.082-.72-.164-1.44-.229-2.16a1.509,1.509,0,0,1-1.211,1.014,3.584,3.584,0,0,1-.065-2.34c-.491.54-.982,1.1-1.489,1.636A13.6,13.6,0,0,1,110.96,20.8a16.847,16.847,0,0,0-8.148,9.882,3.129,3.129,0,0,1-.049-3.4,4.56,4.56,0,0,0-2.143,3.812,2.847,2.847,0,0,1-.065-3.927c-1.505,1-2.912,1.652-3.8,3.256-.115-1.063-.213-2.143-.327-3.207-.474.933-.933,1.865-1.407,2.8-.18-.425-.36-.834-.54-1.26-.213.425-.425.867-.622,1.292-.049-.818-.115-1.652-.164-2.47-.491.834-1,1.669-1.489,2.487a17.532,17.532,0,0,1-.638-8.229,14.694,14.694,0,0,0-3.387,8.9c-.2-.9-.393-1.816-.589-2.716-.36,1-.72,1.98-1.08,2.978a14.24,14.24,0,0,1-.818-6.25,24.913,24.913,0,0,0-4.548,7.706c-.229-.442-.474-.883-.7-1.325-.18.671-.344,1.358-.524,2.029-.311-.556-.605-1.113-.916-1.669a2.644,2.644,0,0,1-.425,1.652,2.579,2.579,0,0,0-.36-1.554c-.262,1.031-.507,2.045-.769,3.076a5.588,5.588,0,0,0-1.211-2.094c-.065.8-.131,1.587-.2,2.389a48.24,48.24,0,0,0-4.057-8.377,48.115,48.115,0,0,0,3.763,11.632,3.315,3.315,0,0,0-2.781-2.045l.344,2.061-1.6-1.358c-.049.687-.1,1.374-.131,2.061-.654-.442-1.309-.9-1.947-1.342a5.5,5.5,0,0,1,.556,2.454,15.936,15.936,0,0,0-7.559-3.828c1.309.262,3.223,2.945,4.041,3.959a26.39,26.39,0,0,1,3.223,5.006c3.518,7.1,3.55,14.659,2.47,22.349a61.556,61.556,0,0,1-2.749,11.649.148.148,0,0,1,.082-.016,137.99,137.99,0,0,1-13.727,24.427c-7.281,9.767-15.723,23.249-11.878,35.846,4.892,16,22.725,18.848,36.664,18.144,5.694-.294,11.665-1.129,15-6.5,3.534,7.428,13.5,6.839,20.238,7,7.87.2,17.539.2,23.412-5.612C150.553,141.4,148.557,126.507,141.489,113.713Z" transform="translate(27.434 13.233)" fill="#1c1d1d"/>
      <g id="Group_716" data-name="Group 716" transform="translate(91.063 125.751)">
        <circle id="Ellipse_511" data-name="Ellipse 511" cx="0.638" cy="0.638" r="0.638" transform="translate(9.473)" fill="#040000"/>
        <circle id="Ellipse_512" data-name="Ellipse 512" cx="0.638" cy="0.638" r="0.638" transform="translate(10.111 6.413)" fill="#040000"/>
        <circle id="Ellipse_513" data-name="Ellipse 513" cx="0.638" cy="0.638" r="0.638" transform="translate(0 14.594)" fill="#040000"/>
        <circle id="Ellipse_514" data-name="Ellipse 514" cx="0.638" cy="0.638" r="0.638" transform="translate(4.516 8.344)" fill="#040000"/>
        <circle id="Ellipse_515" data-name="Ellipse 515" cx="0.638" cy="0.638" r="0.638" transform="translate(3.861 2.863)" fill="#040000"/>
        <circle id="Ellipse_516" data-name="Ellipse 516" cx="0.638" cy="0.638" r="0.638" transform="translate(0.638 6.413)" fill="#040000"/>
        <circle id="Ellipse_517" data-name="Ellipse 517" cx="0.638" cy="0.638" r="0.638" transform="translate(12.68 12.025)" fill="#040000"/>
        <circle id="Ellipse_518" data-name="Ellipse 518" cx="0.638" cy="0.638" r="0.638" transform="translate(6.037 13.318)" fill="#040000"/>
        <circle id="Ellipse_519" data-name="Ellipse 519" cx="0.638" cy="0.638" r="0.638" transform="translate(1.931 21.302)" fill="#040000"/>
        <circle id="Ellipse_520" data-name="Ellipse 520" cx="0.638" cy="0.638" r="0.638" transform="translate(13.972 17.211)" fill="#040000"/>
        <circle id="Ellipse_521" data-name="Ellipse 521" cx="0.638" cy="0.638" r="0.638" transform="translate(8.818 19.338)" fill="#040000"/>
      </g>
      <g id="Group_717" data-name="Group 717" transform="translate(137.577 123.215)">
        <circle id="Ellipse_522" data-name="Ellipse 522" cx="0.638" cy="0.638" r="0.638" transform="translate(4.499 23.052)" fill="#040000"/>
        <circle id="Ellipse_523" data-name="Ellipse 523" cx="0.638" cy="0.638" r="0.638" transform="translate(4.172 14.79)" fill="#040000"/>
        <circle id="Ellipse_524" data-name="Ellipse 524" cx="0.638" cy="0.638" r="0.638" transform="translate(12.68 9.097)" fill="#040000"/>
        <circle id="Ellipse_525" data-name="Ellipse 525" cx="0.638" cy="0.638" r="0.638" transform="translate(9.457 14.708)" fill="#040000"/>
        <circle id="Ellipse_526" data-name="Ellipse 526" cx="0.638" cy="0.638" r="0.638" transform="translate(10.095 20.189)" fill="#040000"/>
        <circle id="Ellipse_527" data-name="Ellipse 527" cx="0.638" cy="0.638" r="0.638" transform="translate(13.318 16.639)" fill="#040000"/>
        <circle id="Ellipse_528" data-name="Ellipse 528" cx="0.638" cy="0.638" r="0.638" transform="translate(0 18.929)" fill="#040000"/>
        <circle id="Ellipse_529" data-name="Ellipse 529" cx="0.638" cy="0.638" r="0.638" transform="translate(6.986 8.459)" fill="#040000"/>
        <circle id="Ellipse_530" data-name="Ellipse 530" cx="0.638" cy="0.638" r="0.638" transform="translate(12.025 1.751)" fill="#040000"/>
        <circle id="Ellipse_531" data-name="Ellipse 531" cx="0.638" cy="0.638" r="0.638" transform="translate(4.172)" fill="#040000"/>
        <circle id="Ellipse_532" data-name="Ellipse 532" cx="0.638" cy="0.638" r="0.638" transform="translate(8.262 3.419)" fill="#040000"/>
      </g>
      <g id="Group_718" data-name="Group 718" transform="translate(66.08 135.502)">
        <path id="Path_1367" data-name="Path 1367" d="M40.99,92.162s12.451-8.295,26.635-9.342" transform="translate(-40.008 -82.82)" fill="none" stroke="#fff" stroke-linecap="round" stroke-linejoin="round" stroke-miterlimit="10" stroke-width="0.25"/>
        <path id="Path_1368" data-name="Path 1368" d="M40.39,103.47S55.524,88.779,69.4,85.67" transform="translate(-40.39 -81.007)" fill="none" stroke="#fff" stroke-linecap="round" stroke-linejoin="round" stroke-miterlimit="10" stroke-width="0.25"/>
        <path id="Path_1369" data-name="Path 1369" d="M45.54,108.938S53.148,93.886,66.809,88.52" transform="translate(-37.114 -79.194)" fill="none" stroke="#fff" stroke-linecap="round" stroke-linejoin="round" stroke-miterlimit="10" stroke-width="0.25"/>
      </g>
      <g id="Group_719" data-name="Group 719" transform="translate(149.438 135.502)">
        <path id="Path_1370" data-name="Path 1370" d="M119.245,92.162S106.795,83.867,92.61,82.82" transform="translate(-90.532 -82.82)" fill="none" stroke="#fff" stroke-linecap="round" stroke-linejoin="round" stroke-miterlimit="10" stroke-width="0.25"/>
        <path id="Path_1371" data-name="Path 1371" d="M120.768,103.47S105.634,88.779,91.76,85.67" transform="translate(-91.073 -81.007)" fill="none" stroke="#fff" stroke-linecap="round" stroke-linejoin="round" stroke-miterlimit="10" stroke-width="0.25"/>
        <path id="Path_1372" data-name="Path 1372" d="M112.609,108.938S105,93.886,91.34,88.52" transform="translate(-91.34 -79.194)" fill="none" stroke="#fff" stroke-linecap="round" stroke-linejoin="round" stroke-miterlimit="10" stroke-width="0.25"/>
      </g>
      <path id="Path_1373" data-name="Path 1373" d="M82.723,105.978a28.462,28.462,0,0,1-17.342-8.688c-.016-.016-8.442-9.653-3.076-16.034,5.366-6.4,11.256-6.544,17.539-5.874,6.3.671,21.154-1.98,24.1,7.771C107.362,94.444,93.668,107.107,82.723,105.978Z" transform="translate(38.493 47.782)" fill="#262727"/>
      <g id="Group_720" data-name="Group 720" transform="translate(102.043 125.025)">
        <path id="Path_1374" data-name="Path 1374" d="M81.511,103.025a24.485,24.485,0,0,1-14.954-7.493c-.016-.016-7.264-8.311-2.65-13.825,4.63-5.514,9.7-5.644,15.117-5.055,5.432.589,18.242-1.7,20.778,6.708C102.748,93.078,90.952,104.007,81.511,103.025Z" transform="translate(-62.371 -76.416)" fill="#040000"/>
        <path id="Path_1375" data-name="Path 1375" d="M74.1,88.16c.54-1.456-.344-2.536-2.291-3.174-2.209-.72-8.622.785-8.622.785a20.646,20.646,0,0,0,3.534,5.137C68.9,91.383,73.448,89.91,74.1,88.16Z" transform="translate(-61.85 -71.089)" fill="#2a292a"/>
        <path id="Path_1376" data-name="Path 1376" d="M78.88,88.35c-.7-1.374.065-2.552,1.914-3.4,2.111-.965,8.655-.18,8.655-.18a21.017,21.017,0,0,1-2.929,5.514C84.394,90.968,79.715,90.019,78.88,88.35Z" transform="translate(-52.034 -71.296)" fill="#2a292a"/>
      </g>
      <path id="Path_1377" data-name="Path 1377" d="M40.121,29.374c1.423-3.109,2.323-6.1,5.514-7.64.474-.229,5.3-2,5.432-1.342,0-.016-1.407-6.692-6.086-7.739-4.663-1.031-16.606,21.793-17.9,32.182C25.789,55.207,13.7,71.6,15.04,72.6h0c1.472.164,3.272-.736,5.366-4.139,4.532-7.313,5.808-4.057,5.808-4.057,3.256-4.712,4.417-10.831,6.283-16.164Q35.859,38.618,40.121,29.374Z" transform="translate(9.5 8.029)" fill="#2c2d2d"/>
      <path id="Path_1378" data-name="Path 1378" d="M47.2,25.642a4.391,4.391,0,0,0,2.094.344,18.856,18.856,0,0,1-3.338-5.972c-.834-4.336-2.879-7.722-7.231-5.775C29.314,18.444,23.98,56.5,23.98,56.5c8.769.213,16.328-13.4,19.8-20.353a3.743,3.743,0,0,1,.18,4.008c2.241-1.162,2.683-4.123,2.667-6.642a4.215,4.215,0,0,0,.72,2.291,8.78,8.78,0,0,0-1.014-5.137,2.351,2.351,0,0,0,2.356.524,11.035,11.035,0,0,0-1.636-2.945c.589.213,1.178.425,1.751.638C48.276,27.8,47.736,26.722,47.2,25.642Z" transform="translate(15.252 8.701)" fill="#040000"/>
      <path id="Path_1379" data-name="Path 1379" d="M120.665,12.235c-2.994-1.816-4.745,4.057-4.745,4.057s22.692,26.8,24.492,37.057c1.031,5.824,2.012,7.935,2.258,13.661,4.581-.344,1.849,6.053,5.072,5.939C150.065,45.824,123.593,14,120.665,12.235Z" transform="translate(73.733 7.564)" fill="#2c2d2d"/>
      <path id="Path_1380" data-name="Path 1380" d="M131.777,26.012a40.765,40.765,0,0,0-7.1-9.26c-5.448-5.448-9.342,0-9.342,0-1.194,1.685-1.113,4.287-.458,7.084a14.934,14.934,0,0,1-2.176,5.694,2.219,2.219,0,0,0,1.734-.834,3.422,3.422,0,0,1-1.276,2.847,6.617,6.617,0,0,0,2.045-1.374,5.4,5.4,0,0,1-.638,2.176,5.221,5.221,0,0,0,1.505-1.227,22.033,22.033,0,0,1,.458,5.857c.425-.7.867-1.407,1.292-2.111a29.267,29.267,0,0,1-.147,4.483c.294-.262.589-.54.883-.8a5.183,5.183,0,0,1,.082,4.074,5.646,5.646,0,0,0,1.751-3.779c.245.949.507,1.914.753,2.863a5.31,5.31,0,0,0,.818-1.9c-.2.818,2.192,3.894,2.65,4.663A45.455,45.455,0,0,0,128,49.342a28.225,28.225,0,0,0,9.227,7.051c.605.311,6.61,3.223,6.544,1.849C143.344,47.51,136.39,34.486,131.777,26.012Z" transform="translate(71.685 9.117)" fill="#040000"/>
    </g>
  </g>
</svg>
