<svg xmlns="http://www.w3.org/2000/svg" xmlns:xlink="http://www.w3.org/1999/xlink" width="208.707" height="189.139" viewBox="0 0 208.707 189.139">
  <defs>
    <linearGradient id="linear-gradient" x1="0.551" y1="-0.572" x2="0.097" y2="0.659" gradientUnits="objectBoundingBox">
      <stop offset="0.071" stop-color="#000c2a"/>
      <stop offset="0.515" stop-color="#003764"/>
      <stop offset="1" stop-color="#000323"/>
    </linearGradient>
    <linearGradient id="linear-gradient-2" x1="0.437" y1="1.766" x2="-0.013" y2="3.176" xlink:href="#linear-gradient"/>
  </defs>
  <g id="Group_786" data-name="Group 786" transform="translate(-751.458 -4737.791)">
    <g id="Group_784" data-name="Group 784" transform="translate(766.411 4879.005)">
      <path id="Path_1151" data-name="Path 1151" d="M3.982,22.193a.714.714,0,0,0,.232.321c.107.071.3.036.321-.089a27.34,27.34,0,0,0,.643-3.41c0-.036-2.232-.232-2.428-.214C2.732,19.818,3.554,21.229,3.982,22.193Z" transform="translate(2.164 14.772)" fill="#231815"/>
      <path id="Path_1152" data-name="Path 1152" d="M12.822,22.193a.714.714,0,0,0,.232.321c.107.071.3.036.321-.089a27.34,27.34,0,0,0,.643-3.41c0-.036-2.232-.232-2.428-.214C11.572,19.818,12.394,21.229,12.822,22.193Z" transform="translate(9.108 14.772)" fill="#231815"/>
      <path id="Path_1153" data-name="Path 1153" d="M22.892,22.193a.714.714,0,0,0,.232.321c.107.071.3.036.321-.089a27.34,27.34,0,0,0,.643-3.41c0-.036-2.232-.232-2.428-.214C21.642,19.818,22.464,21.229,22.892,22.193Z" transform="translate(17.018 14.772)" fill="#231815"/>
      <path id="Path_1154" data-name="Path 1154" d="M44.856,24.734c-.964-7.981-3.375-16.534-9.91-21.212A21.084,21.084,0,0,0,20.68.111,34.024,34.024,0,0,0,9.788,3.058c-8.66,4-10.981,16.8-9.267,25.23A7.19,7.19,0,0,0,4.4,33.59c2.66,1.125,5.839-.161,7.785-2.3A10.691,10.691,0,0,0,13.4,29.662a11.082,11.082,0,0,0,2.75,3.018,10.129,10.129,0,0,0,5.982,2.089,11.118,11.118,0,0,0,6.624-2.482,12.327,12.327,0,0,0,3.357-3.892,12.523,12.523,0,0,0,2.553,3.857c2.071,2.053,5.571,2.982,7.946,1.286C45.213,31.7,45.249,27.894,44.856,24.734Z" transform="translate(0 0)" fill="#d6b594"/>
    </g>
    <g id="Group_785" data-name="Group 785" transform="translate(900.411 4879.005)">
      <path id="Path_1151-2" data-name="Path 1151" d="M3.982,22.193a.714.714,0,0,0,.232.321c.107.071.3.036.321-.089a27.34,27.34,0,0,0,.643-3.41c0-.036-2.232-.232-2.428-.214C2.732,19.818,3.554,21.229,3.982,22.193Z" transform="translate(2.164 14.772)" fill="#231815"/>
      <path id="Path_1152-2" data-name="Path 1152" d="M12.822,22.193a.714.714,0,0,0,.232.321c.107.071.3.036.321-.089a27.34,27.34,0,0,0,.643-3.41c0-.036-2.232-.232-2.428-.214C11.572,19.818,12.394,21.229,12.822,22.193Z" transform="translate(9.108 14.772)" fill="#231815"/>
      <path id="Path_1153-2" data-name="Path 1153" d="M22.892,22.193a.714.714,0,0,0,.232.321c.107.071.3.036.321-.089a27.34,27.34,0,0,0,.643-3.41c0-.036-2.232-.232-2.428-.214C21.642,19.818,22.464,21.229,22.892,22.193Z" transform="translate(17.018 14.772)" fill="#231815"/>
      <path id="Path_1154-2" data-name="Path 1154" d="M44.856,24.734c-.964-7.981-3.375-16.534-9.91-21.212A21.084,21.084,0,0,0,20.68.111,34.024,34.024,0,0,0,9.788,3.058c-8.66,4-10.981,16.8-9.267,25.23A7.19,7.19,0,0,0,4.4,33.59c2.66,1.125,5.839-.161,7.785-2.3A10.691,10.691,0,0,0,13.4,29.662a11.082,11.082,0,0,0,2.75,3.018,10.129,10.129,0,0,0,5.982,2.089,11.118,11.118,0,0,0,6.624-2.482,12.327,12.327,0,0,0,3.357-3.892,12.523,12.523,0,0,0,2.553,3.857c2.071,2.053,5.571,2.982,7.946,1.286C45.213,31.7,45.249,27.894,44.856,24.734Z" transform="translate(0 0)" fill="#d6b594"/>
    </g>
    <g id="Group_783" data-name="Group 783" transform="translate(751.461 4737.791)">
      <g id="Group_768" data-name="Group 768" transform="translate(-0.003)">
        <path id="Path_1479" data-name="Path 1479" d="M207.6,49.575c-1.077-5.793-4.944-11.45-10.57-12.693a12.964,12.964,0,0,1,6.93,1.456,30.769,30.769,0,0,0-10.6-9.6,8.43,8.43,0,0,1,7.689,1.335c.561-3.715-1.8-7.264-4.732-9.539C190.976,16.363,180.6,19.2,180.6,19.2c3.351-2.608,6.688-5.2,10.039-7.81a23.536,23.536,0,0,0-24.825,1c.94-2.578,1.82-3.458,4.337-5.323-4.4.288-7.006,2.76-10.873,4.747a5.409,5.409,0,0,1,2.5-3.943A36.068,36.068,0,0,1,152.411,9.9c.864-2.639,1.729-5.293,2.593-7.931a19.415,19.415,0,0,1-14.983,7.112c-5.99-.045-11.571-2.9-17.41-4.277-8.8-2.062-21.337-1.092-29.178,3.533A34.13,34.13,0,0,0,77.222,4.11c2.442,1.926.758,2.942,1.911,3.852a31.529,31.529,0,0,1-9.766-1.608,19.2,19.2,0,0,0,3.928,3.988C64.711,11.616,58.584.318,49.895,0A39.2,39.2,0,0,1,61.056,11.237,110.345,110.345,0,0,0,40.765,8.583l4.868,5.5A21.591,21.591,0,0,1,31.045,12c.743,1.562-.485,3.518-2.078,4.125a8.906,8.906,0,0,1-5.035-.106l-1.183,2.244a1.04,1.04,0,0,0-.789-1.608c-3.564.864-7.234,1.759-10.252,3.9s-5.293,5.823-4.732,9.539a8.43,8.43,0,0,1,7.689-1.335,30.9,30.9,0,0,0-10.6,9.6A12.964,12.964,0,0,1,11,36.9C5.385,38.125,1.518,43.782.426,49.575-.65,55.368.5,61.328,1.639,67.106c.834,4.216,3.154,9.554,7.294,8.872a10.74,10.74,0,0,1,3.715-12.208.467.467,0,0,0,.015.152c4.883,1.471,10.039,9.8,6.157,13.163A25.632,25.632,0,0,1,7.463,82.8,16.964,16.964,0,0,0,17.684,87.73a27.561,27.561,0,0,0-7.795,1.683,11.9,11.9,0,0,0,7.992,3.094l-6.642,3.549a10.33,10.33,0,0,0,8.447,3.928c-2.624,1.183-5.262,2.366-7.886,3.549a10.189,10.189,0,0,0,8.856,2.108,18.194,18.194,0,0,1-14.331,8.614,23.4,23.4,0,0,0,16.8,3.685c-2.335,1.107-4.656,2.214-6.991,3.321a21.5,21.5,0,0,0,9.266,2.669q-4.049,2.684-8.083,5.368a9.265,9.265,0,0,0,9.524,1.668l-6.051,5.55a20.673,20.673,0,0,0,9.342.045,25.485,25.485,0,0,0-5.778,5.641,34.644,34.644,0,0,0,12.147-1.35c-1.319,1.213-2.624,2.426-3.943,3.624a8.668,8.668,0,0,0,8.326-1.016c-2.078,2.169-4.14,4.337-6.218,6.506a12.052,12.052,0,0,0,12.39-2.108c-1.88,2.017-3.746,4.034-5.626,6.036a10.825,10.825,0,0,0,7.522-3.109,16.347,16.347,0,0,0-3.412,7.6,14.428,14.428,0,0,0,7.128-1.956c-.773,1.577-1.547,3.139-2.305,4.716,1.471-.47,2.927-.94,4.4-1.41-1.183,2.062-2.366,4.11-3.533,6.172a22.93,22.93,0,0,0,6.233-1.714c-.561,1.183-1.107,2.366-1.668,3.564,1.107.046,4.11-.485,4.838.152,13.482,9.888,31.24,14.725,47.8,15.271,14.665.485,14.665.485,22.9-2.062A84.607,84.607,0,0,0,160.6,164.678a.8.8,0,0,1-.789-.591c-.182-.91.607-1.7,1.335-2.26,2.244-1.774,4.489-3.564,6.733-5.338-2.017.273-4.034.561-6.051.834a50.684,50.684,0,0,0,19.381-8.978q-3.571,1.274-7.128,2.548a109.687,109.687,0,0,0,16.833-13.36,6.616,6.616,0,0,1-6.809.258,47.647,47.647,0,0,0,12.845-12,10.514,10.514,0,0,1-6.506,1.35q5.323-6.6,10.631-13.178a9.929,9.929,0,0,1-6.976.758c1.714-1.85,3.442-3.685,5.156-5.535a17.7,17.7,0,0,1-7.947.864,47.5,47.5,0,0,1,8.8-11.283,8.7,8.7,0,0,1-6.005.834,16.564,16.564,0,0,1,6.961-7.416c-2.305-.045-4.625-.076-6.93-.121a16.31,16.31,0,0,1,4.6-7.006,6.332,6.332,0,0,1-6.2-.364c1.987-2.457,3.958-4.914,5.945-7.355-1.789-.713-3.594-1.426-5.384-2.138a10.432,10.432,0,0,1,1.107-12.193c.273.136.531.273.789.425a10.7,10.7,0,0,1,4.14,12.526c4.14.682,6.46-4.671,7.294-8.872C207.521,61.328,208.674,55.368,207.6,49.575Z" transform="translate(0.003)" fill="#040000"/>
      </g>
      <g id="Group_769" data-name="Group 769" transform="translate(86.17 88.625)">
        <path id="Path_1480" data-name="Path 1480" d="M96.173,73.514,95.612,69.9s-.167-.152-.44-.409c.091.015.167.015.258.03.015-.8.046-1.592.061-2.4a.477.477,0,0,1-.591.5.538.538,0,0,1-.182-.789.954.954,0,0,1-.8.7,1.57,1.57,0,0,1-.182-1.4,1.627,1.627,0,0,1-1.3,1.183.015.015,0,0,1-.015-.015,6.9,6.9,0,0,1,.379-4.064c-.622.864-1.259,1.714-1.88,2.578a4.731,4.731,0,0,1-.425-2.381,1.1,1.1,0,0,1-1.274.834l-.091-1.729a3.82,3.82,0,0,1-1.365,1.532,2.5,2.5,0,0,1-.546-1.85,1.294,1.294,0,0,1-1.046.88c-.3-.986-.591-1.971-.895-2.972a4.756,4.756,0,0,1-1.683,2.153L82.54,59.335l-1.319,1.956c-.531-.591-1.046-1.183-1.577-1.774-.379.622-.773,1.244-1.153,1.865a1.671,1.671,0,0,0-.273-.03c-.379-.425-.773-.834-1.153-1.259a2.72,2.72,0,0,1-.5,1.107c-.227-.015-.44-.015-.667-.03-.546-.91-1.092-1.82-1.623-2.73-.364.955-.728,1.911-1.092,2.881-.349.045-.7.106-1.062.167-.288-.273-.561-.546-.849-.8-.318.409-.637.8-.955,1.213-.121.03-.258.061-.379.091-.379-.379-.758-.773-1.153-1.153a9.912,9.912,0,0,1-1.137,1.987c-.091.045-.182.076-.273.121-.44-.516-.88-1.016-1.3-1.532a8.285,8.285,0,0,0-.364,2.366l-.5.273c-.531-.3-1.046-.622-1.577-.925a4.964,4.964,0,0,0-.652,2.426l-.273.227c-.243-.182-.485-.364-.728-.561,0,.379-.015.773-.015,1.153-.061.046-.106.076-.167.121l-1.865-.864a1.963,1.963,0,0,1,.106,1.7,6.952,6.952,0,0,0-3.215-.7c.728.971,1.35,1.971,2.047,2.73-.152.167-.3.318-.455.485L62.143,87.39l3.033,5.475L88.2,92.486l8.674-7.112Z" transform="translate(-56.82 -58.44)" fill="#1c1d1d"/>
        <path id="Path_1481" data-name="Path 1481" d="M76.86,61.14a1.336,1.336,0,0,0,.091-.5A1.935,1.935,0,0,0,76.86,61.14Z" transform="translate(-46.469 -57.304)" fill="#1c1d1d"/>
      </g>
      <path id="Path_1482" data-name="Path 1482" d="M22.284,37.085c2.836-4.459,3.913-9.948,7.9-13.6,4.959-4.55,13.982-4.6,19-.091l-7.552,2.366a8.975,8.975,0,0,0,5.808,3.5A10.072,10.072,0,0,1,40.6,31.444a9.94,9.94,0,0,0,5.854,3.594c-2.972.061-5.945.106-8.917.167a9.38,9.38,0,0,0,7.037,4.125A48.035,48.035,0,0,1,33.506,41.6a7.923,7.923,0,0,0,5.641,5.353A48.693,48.693,0,0,1,28.153,45.5,10.336,10.336,0,0,1,26.2,57.528,13.263,13.263,0,0,0,21.48,47.155a9.621,9.621,0,0,1-1.562,11.435c.531-3-2.684-5.384-5.657-6.718C11.638,50.7,9.545,49.93,8.15,47.685,13.427,44.728,18.963,42.287,22.284,37.085Z" transform="translate(4.211 10.351)" fill="#262727"/>
      <path id="Path_1483" data-name="Path 1483" d="M125.333,36c-2.836-4.459-3.913-9.948-7.9-13.6-4.959-4.55-13.982-4.6-19-.091l7.552,2.366a8.975,8.975,0,0,1-5.808,3.5,10.072,10.072,0,0,0,6.839,2.184,9.94,9.94,0,0,1-5.854,3.594c2.972.061,5.945.106,8.917.167a9.38,9.38,0,0,1-7.037,4.125,48.035,48.035,0,0,0,11.071,2.275,7.923,7.923,0,0,1-5.641,5.353,48.693,48.693,0,0,0,10.995-1.456,10.336,10.336,0,0,0,1.956,12.026,13.263,13.263,0,0,1,4.716-10.373A9.621,9.621,0,0,0,127.7,57.5c-.531-3,2.684-5.384,5.657-6.718,2.624-1.168,4.716-1.941,6.112-4.186C134.174,43.638,128.639,41.2,125.333,36Z" transform="translate(50.842 9.788)" fill="#262727"/>
      <path id="Path_1484" data-name="Path 1484" d="M204.482,65.176a10.51,10.51,0,0,1-4.246-6.036,5.859,5.859,0,0,1-9.16.273,13.609,13.609,0,0,1-5.793,17.364c.409,1.092.819,2.169,1.228,3.261a14.369,14.369,0,0,1-8.432,3.124c.713,1.562,1.41,3.124,2.123,4.7a22.668,22.668,0,0,1-6.93,1.562c1.062,1.365,2.138,2.715,3.2,4.079a24.345,24.345,0,0,1-17.758,2.472l1.82,7.188a15.706,15.706,0,0,1-12.754-6.445c-6.642,14.528-24.734,22.717-40.036,18.107-.682-.2-1.486-.637-1.41-1.335s1.517-.167.925.212h-1.865c-.591-.379.849-.925.925-.212.076.7-.743,1.137-1.41,1.335-15.3,4.61-33.394-3.579-40.036-18.107a15.748,15.748,0,0,1-12.754,6.445l1.82-7.188A24.41,24.41,0,0,1,36.18,93.5c1.062-1.365,2.138-2.715,3.2-4.079a22.33,22.33,0,0,1-6.93-1.562c.713-1.562,1.41-3.124,2.123-4.7a14.47,14.47,0,0,1-8.432-3.124c.409-1.092.819-2.169,1.228-3.261a13.594,13.594,0,0,1-5.793-17.364,5.878,5.878,0,0,1-9.16-.273A10.442,10.442,0,0,1,8.17,65.176" transform="translate(4.222 30.546)" fill="none"/>
      <path id="Path_1485" data-name="Path 1485" d="M181.384,72.761c2.624,5.55.182,13.027-5.156,15.848.364.986.728,1.987,1.092,2.972-2.123,1.744-5.945,2.76-8.659,2.851.622,1.426,1.259,2.851,1.88,4.292a19.676,19.676,0,0,1-6.172,1.426c.955,1.244,1.9,2.487,2.851,3.715a21.184,21.184,0,0,1-15.8,2.26c.546,2.184,1.077,4.383,1.623,6.566a13.835,13.835,0,0,1-11.344-5.884c-5.914,13.269-19.821,13.5-33.439,9.3a5.055,5.055,0,0,0-2.517,0C92.123,120.3,71,117.316,65.083,104.047a13.875,13.875,0,0,1-11.343,5.884c.546-2.184,1.077-4.383,1.623-6.566a21.184,21.184,0,0,1-15.8-2.26c.955-1.244,1.9-2.487,2.851-3.715a19.773,19.773,0,0,1-6.172-1.426c.622-1.426,1.259-2.851,1.88-4.292a12.77,12.77,0,0,1-7.507-2.851c.364-.986.728-1.987,1.092-2.972-5.353-2.821-7.78-10.3-5.156-15.848-1.911,2.624-4.61,1.547-9.038,3.913A18.157,18.157,0,0,1,4.18,81.087a23.4,23.4,0,0,0,16.8,3.685c-2.335,1.107-4.656,2.214-6.991,3.321a21.5,21.5,0,0,0,9.266,2.669q-4.049,2.684-8.083,5.368A9.265,9.265,0,0,0,24.7,97.8l-6.051,5.55a20.673,20.673,0,0,0,9.342.046,25.485,25.485,0,0,0-5.778,5.641,34.644,34.644,0,0,0,12.147-1.35c-1.319,1.213-2.624,2.426-3.943,3.624a8.668,8.668,0,0,0,8.326-1.016c-2.078,2.169-4.14,4.337-6.218,6.506a12.052,12.052,0,0,0,12.39-2.108c-1.88,2.017-3.746,4.034-5.626,6.036a10.825,10.825,0,0,0,7.522-3.109,16.347,16.347,0,0,0-3.412,7.6,14.428,14.428,0,0,0,7.128-1.956c-.773,1.577-1.547,3.139-2.305,4.716,1.471-.47,2.927-.94,4.4-1.41-1.183,2.062-2.366,4.11-3.533,6.172a22.93,22.93,0,0,0,6.233-1.714c-.561,1.183-1.107,2.366-1.668,3.564,1.107.045,2.335-.425,4.5.152C66.251,145.554,68.8,156,106.711,156c36.26,0,43.812-17.394,51.728-24.492a.8.8,0,0,1-.789-.591c-.182-.91.607-1.7,1.335-2.26,2.244-1.774,4.489-3.564,6.733-5.338-2.017.273-4.034.561-6.051.834a50.685,50.685,0,0,0,19.381-8.978q-3.571,1.274-7.128,2.548a109.686,109.686,0,0,0,16.833-13.36,6.616,6.616,0,0,1-6.809.258,47.647,47.647,0,0,0,12.845-12,10.514,10.514,0,0,1-6.506,1.35q5.323-6.6,10.631-13.178a9.929,9.929,0,0,1-6.976.758c1.714-1.85,3.442-3.685,5.156-5.535a17.7,17.7,0,0,1-7.947.864,47.5,47.5,0,0,1,8.8-11.283,8.7,8.7,0,0,1-6.005.834,17.685,17.685,0,0,1,1.3-2.275C191.742,63.814,183.3,75.385,181.384,72.761Z" transform="translate(2.161 33.137)" fill="#c99f83"/>
      <path id="Path_1486" data-name="Path 1486" d="M70.661,121.254c12.451,3.943,16.939-3.806,22.08-12.845-4.277.03-8.644.045-12.724-1.38-1.941-.682-3.837-1.683-5.884-1.729-2.305-.046-4.459,1.153-6.491,2.335-2.047,1.183-4.534,2.2-6.172,3.882-1.016,1.031,3.442,5.566,4.11,6.2A14.528,14.528,0,0,0,70.661,121.254Z" transform="translate(31.675 54.388)" fill="#2e1807"/>
      <g id="Group_770" data-name="Group 770" transform="translate(59.32 98.71)">
        <path id="Path_1487" data-name="Path 1487" d="M128.081,96.891c-6.43-10.388-17.137-18.046-22.429-29.269a10.681,10.681,0,0,1-.895-2.533A5.324,5.324,0,0,0,102.012,69a7.032,7.032,0,0,0,1.865,5.869,8.342,8.342,0,0,0-2.988.8,14.117,14.117,0,0,0,2.7,3.564c-3.321.667-4.064-.622-5.869-.576.364.88,3.822,4.459,5.156,6.263-1.38.212-3.276-.758-3.928-1a8.328,8.328,0,0,1-3.245-2.29c.925,1.168,1.7,4.641,2.214,6.081C94.46,85.2,89.88,83.258,86.15,83.364c-5.626.152-10.494,4.352-11.556,4.747.682-1.577,2.624-4.17,1.335-4.049a7.974,7.974,0,0,1-4.4-1.517c.773-.561,1.532-1.137,2.305-1.7a5.457,5.457,0,0,1-3.791-1.35,6.981,6.981,0,0,0,3.5-2.214A3.088,3.088,0,0,1,70.5,75.9c.455.667,1.577-.8,1.789-1.153,1.82-3-3.306-5.459-4.368-8.492-.243.349-.546.789-.895,1.319-4.974,7.31-20.488,30.1-23.1,33.394-3.109,3.943-12.678,26.069,8.856,34.652,0,0,18.562,10.206,34.531-4.565,0,0,20.7,14.331,33.758,6.9,11.783-6.7,14.7-21.186,10.676-33.378A37.374,37.374,0,0,0,128.081,96.891Z" transform="translate(-39.115 -65.09)" fill="#ac8053"/>
      </g>
      <g id="Group_771" data-name="Group 771" transform="translate(79.3 133.271)">
        <circle id="Ellipse_607" data-name="Ellipse 607" cx="0.667" cy="0.667" r="0.667" transform="translate(9.797)" fill="#5f432a"/>
        <circle id="Ellipse_608" data-name="Ellipse 608" cx="0.667" cy="0.667" r="0.667" transform="translate(10.464 6.627)" fill="#5f432a"/>
        <circle id="Ellipse_609" data-name="Ellipse 609" cx="0.667" cy="0.667" r="0.667" transform="translate(0 15.104)" fill="#5f432a"/>
        <circle id="Ellipse_610" data-name="Ellipse 610" cx="0.667" cy="0.667" r="0.667" transform="translate(4.671 8.629)" fill="#5f432a"/>
        <circle id="Ellipse_611" data-name="Ellipse 611" cx="0.667" cy="0.667" r="0.667" transform="translate(4.004 2.972)" fill="#5f432a"/>
        <circle id="Ellipse_612" data-name="Ellipse 612" cx="0.667" cy="0.667" r="0.667" transform="translate(0.667 6.627)" fill="#5f432a"/>
        <circle id="Ellipse_613" data-name="Ellipse 613" cx="0.667" cy="0.667" r="0.667" transform="translate(13.118 12.435)" fill="#5f432a"/>
        <circle id="Ellipse_614" data-name="Ellipse 614" cx="0.667" cy="0.667" r="0.667" transform="translate(6.248 13.77)" fill="#5f432a"/>
        <circle id="Ellipse_615" data-name="Ellipse 615" cx="0.667" cy="0.667" r="0.667" transform="translate(2.002 22.035)" fill="#5f432a"/>
        <circle id="Ellipse_616" data-name="Ellipse 616" cx="0.667" cy="0.667" r="0.667" transform="translate(14.452 17.804)" fill="#5f432a"/>
        <circle id="Ellipse_617" data-name="Ellipse 617" cx="0.667" cy="0.667" r="0.667" transform="translate(9.129 20.003)" fill="#5f432a"/>
      </g>
      <g id="Group_772" data-name="Group 772" transform="translate(118.365 129.753)">
        <circle id="Ellipse_618" data-name="Ellipse 618" cx="0.667" cy="0.667" r="0.667" transform="translate(4.656 23.824)" fill="#5f432a"/>
        <circle id="Ellipse_619" data-name="Ellipse 619" cx="0.667" cy="0.667" r="0.667" transform="translate(4.322 15.286)" fill="#5f432a"/>
        <circle id="Ellipse_620" data-name="Ellipse 620" cx="0.667" cy="0.667" r="0.667" transform="translate(13.118 9.402)" fill="#5f432a"/>
        <circle id="Ellipse_621" data-name="Ellipse 621" cx="0.667" cy="0.667" r="0.667" transform="translate(9.781 15.195)" fill="#5f432a"/>
        <circle id="Ellipse_622" data-name="Ellipse 622" cx="0.667" cy="0.667" r="0.667" transform="translate(10.449 20.867)" fill="#5f432a"/>
        <circle id="Ellipse_623" data-name="Ellipse 623" cx="0.667" cy="0.667" r="0.667" transform="translate(13.785 17.197)" fill="#5f432a"/>
        <circle id="Ellipse_624" data-name="Ellipse 624" cx="0.667" cy="0.667" r="0.667" transform="translate(0 19.563)" fill="#5f432a"/>
        <circle id="Ellipse_625" data-name="Ellipse 625" cx="0.667" cy="0.667" r="0.667" transform="translate(7.219 8.735)" fill="#5f432a"/>
        <circle id="Ellipse_626" data-name="Ellipse 626" cx="0.667" cy="0.667" r="0.667" transform="translate(12.451 1.805)" fill="#5f432a"/>
        <circle id="Ellipse_627" data-name="Ellipse 627" cx="0.667" cy="0.667" r="0.667" transform="translate(4.322)" fill="#5f432a"/>
        <circle id="Ellipse_628" data-name="Ellipse 628" cx="0.667" cy="0.667" r="0.667" transform="translate(8.553 3.518)" fill="#5f432a"/>
      </g>
      <g id="Group_773" data-name="Group 773" transform="translate(44.405 142.81)">
        <path id="Path_1488" data-name="Path 1488" d="M29.95,103.83s12.875-8.583,27.54-9.66" transform="translate(-28.934 -94.17)" fill="none" stroke="#414041" stroke-linecap="round" stroke-linejoin="round" stroke-miterlimit="10" stroke-width="0.25"/>
        <path id="Path_1489" data-name="Path 1489" d="M29.28,115.77s15.65-15.18,30-18.41" transform="translate(-29.28 -92.522)" fill="none" stroke="#414041" stroke-linecap="round" stroke-linejoin="round" stroke-miterlimit="10" stroke-width="0.25"/>
        <path id="Path_1490" data-name="Path 1490" d="M35.03,121.65s7.871-15.559,22-21.11" transform="translate(-26.31 -90.88)" fill="none" stroke="#414041" stroke-linecap="round" stroke-linejoin="round" stroke-miterlimit="10" stroke-width="0.25"/>
      </g>
      <g id="Group_774" data-name="Group 774" transform="translate(136.427 142.81)">
        <path id="Path_1491" data-name="Path 1491" d="M118.92,103.83s-12.875-8.583-27.54-9.66" transform="translate(-89.227 -94.17)" fill="none" stroke="#414041" stroke-linecap="round" stroke-linejoin="round" stroke-miterlimit="10" stroke-width="0.25"/>
        <path id="Path_1492" data-name="Path 1492" d="M120.427,115.77s-15.65-15.18-30-18.41" transform="translate(-89.717 -92.522)" fill="none" stroke="#414041" stroke-linecap="round" stroke-linejoin="round" stroke-miterlimit="10" stroke-width="0.25"/>
        <path id="Path_1493" data-name="Path 1493" d="M111.965,121.65s-7.871-15.559-22-21.11" transform="translate(-89.96 -90.88)" fill="none" stroke="#414041" stroke-linecap="round" stroke-linejoin="round" stroke-miterlimit="10" stroke-width="0.25"/>
      </g>
      <g id="Group_775" data-name="Group 775" transform="translate(90.067 127.411)">
        <path id="Path_1494" data-name="Path 1494" d="M93.724,90.695c-5.217-11.389-28.192-4.762-28.207-4.762-7.067,1.228-7.476,8.235-3.988,12.83.485.637,1,1.289,1.532,1.941a33.058,33.058,0,0,0,5.793,5.672,13.594,13.594,0,0,0,8.083,2.972,11.492,11.492,0,0,0,5.1-1.274C87.87,105.177,96.56,96.867,93.724,90.695Z" transform="translate(-59.39 -84.016)" fill="#8d613c"/>
        <path id="Path_1495" data-name="Path 1495" d="M91.62,90.845C86.873,80.5,66.006,86.523,66.006,86.523,59.591,87.63,59.212,94,62.381,98.17c.44.576.91,1.168,1.4,1.759a3.87,3.87,0,1,1,5.277,5.156,12.349,12.349,0,0,0,7.34,2.7,10.615,10.615,0,0,0,4.625-1.153C86.312,104.009,94.2,96.457,91.62,90.845Z" transform="translate(-58.847 -83.621)" fill="#202224"/>
        <path id="Path_1496" data-name="Path 1496" d="M69.955,97.242a3.871,3.871,0,0,0-7.325-1.759,30.772,30.772,0,0,0,5.262,5.156A3.81,3.81,0,0,0,69.955,97.242Z" transform="translate(-57.716 -79.189)" fill="#040000"/>
        <path id="Path_1497" data-name="Path 1497" d="M74.353,97.052a3.875,3.875,0,0,1,4.155-3.579,3.651,3.651,0,0,1,3.215,2.26,29.844,29.844,0,0,1-5.581,4.868A3.9,3.9,0,0,1,74.353,97.052Z" transform="translate(-51.666 -79.136)" fill="#040000"/>
      </g>
      <g id="Group_782" data-name="Group 782" transform="translate(45.724 54.625)">
        <g id="Group_778" data-name="Group 778" transform="translate(0 2.061)">
          <path id="Path_1498" data-name="Path 1498" d="M63.316,50.18c.167.334.607-.167.576-.546a12.711,12.711,0,0,0-5.839-9.524A16.234,16.234,0,0,0,32.94,51.09,16.536,16.536,0,0,1,40.8,43.765a14.324,14.324,0,0,0-4.883,8.219,19.079,19.079,0,0,1,26.645-1.153c.334-.273.652-.546.986-.834C63.6,49.725,63.528,50,63.316,50.18Z" transform="translate(-28.709 -37.379)" fill="#1c1d1d"/>
          <line id="Line_13" data-name="Line 13" transform="translate(34.637 5.43)" fill="#ac8053"/>
          <line id="Line_14" data-name="Line 14" transform="translate(22.793 5.43)" fill="#ac8053"/>
          <path id="Path_1499" data-name="Path 1499" d="M46.7,42.83a1.529,1.529,0,0,0,1.062,2.184,30.33,30.33,0,0,1,4.974,2.335,25.058,25.058,0,0,1,2.775,1.744c.728.546,1.911,2.487,3.018,2.214.91-.227.637-1.577.758-2.26C59.927,45.029,51.9,34.185,46.7,42.83Z" transform="translate(-21.681 -36.247)" fill="#ac8053"/>
          <g id="Group_777" data-name="Group 777" transform="translate(0 8.374)">
            <path id="Path_1500" data-name="Path 1500" d="M48.606,43.565c-4.019,1.319-7.279,4.292-10.07,7.492-2.79,3.185-5.247,6.688-8.386,9.524,3.185.394,5.914,2.351,8.629,4.049s5.854,3.245,9.008,2.669c-2.29-1.486-4.7-3.5-4.807-6.248a8.046,8.046,0,0,1,.7-3.2,29.577,29.577,0,0,1,5.368-8.826c.895-1,3.685-3.033,3.882-4.383C53.231,42.549,49.789,43.186,48.606,43.565Z" transform="translate(-30.15 -42.763)" fill="#343535"/>
            <g id="Group_776" data-name="Group 776" transform="translate(7.552)">
              <path id="Path_1501" data-name="Path 1501" d="M57.906,50.041A12.54,12.54,0,0,0,51.492,44.2a18.893,18.893,0,0,0-5.2-1.153c7.78,1.911,13.542,15.8,9.766,21.459a10.871,10.871,0,0,1-3.4,3.26c3.033-1.653,5.9-3.64,6.809-7.188A14.738,14.738,0,0,0,57.906,50.041Z" transform="translate(-29.366 -42.824)" fill="#515359"/>
              <path id="Path_1502" data-name="Path 1502" d="M52.054,43.127a7.218,7.218,0,0,0-3.806.061c-.091.03-.2.03-.288.061-6.278,2.093-10.267,5.7-12.132,10.828a11.336,11.336,0,0,0-.47,1.729,9.718,9.718,0,0,0,1.062,6.961C40,68.983,50.2,71.759,57.135,68.544c.44-.227.864-.455,1.3-.7a11.035,11.035,0,0,0,3.4-3.261C65.6,58.929,59.834,45.038,52.054,43.127Z" transform="translate(-35.13 -42.901)" fill="#040000"/>
            </g>
            <path id="Path_1503" data-name="Path 1503" d="M59.622,59.15c-.44.243-.864.47-1.3.7C51.387,63.062,41.2,60.3,37.6,54.07a9.513,9.513,0,0,1-1.259-4.55c-.182.394-.364.789-.516,1.2a11.336,11.336,0,0,0-.47,1.729,9.718,9.718,0,0,0,1.062,6.961C40,65.625,50.2,68.4,57.135,65.186c.44-.227.864-.455,1.3-.7a11.035,11.035,0,0,0,3.4-3.261,8.825,8.825,0,0,0,1.153-5.308A11.01,11.01,0,0,1,59.622,59.15Z" transform="translate(-27.578 -39.482)" fill="#1b1b1b"/>
            <path id="Path_1504" data-name="Path 1504" d="M62.058,59.172a10.87,10.87,0,0,1-3.4,3.26c-.44.243-.864.47-1.3.7-6.93,3.215-17.121.455-20.716-5.778a9.6,9.6,0,0,1-1.168-6.172c-.03.136-.091.273-.106.394a9.718,9.718,0,0,0,1.062,6.961c3.579,6.218,13.785,8.993,20.716,5.778.44-.227.864-.455,1.3-.7a11.035,11.035,0,0,0,3.4-3.261,7.554,7.554,0,0,0,1.092-3.336A6.842,6.842,0,0,1,62.058,59.172Z" transform="translate(-27.573 -38.625)" fill="url(#linear-gradient)"/>
            <circle id="Ellipse_629" data-name="Ellipse 629" cx="1.456" cy="1.456" r="1.456" transform="translate(19.927 5.109)" fill="#f7f7f7"/>
            <circle id="Ellipse_630" data-name="Ellipse 630" cx="2.457" cy="2.457" r="2.457" transform="translate(17.303 14.056)" fill="#151515"/>
          </g>
        </g>
        <g id="Group_781" data-name="Group 781" transform="translate(79.219)">
          <g id="Group_780" data-name="Group 780" transform="translate(0 9.498)">
            <path id="Path_1505" data-name="Path 1505" d="M96.828,42.719c4.019,1.319,7.279,4.292,10.07,7.492s5.247,6.688,8.386,9.524c-3.185.394-5.914,2.351-8.629,4.049s-5.854,3.245-9.008,2.669c2.29-1.486,4.7-3.5,4.807-6.248a8.045,8.045,0,0,0-.7-3.2,29.577,29.577,0,0,0-5.368-8.826c-.895-1-3.685-3.033-3.882-4.383C92.2,41.688,95.646,42.324,96.828,42.719Z" transform="translate(-77.171 -42.269)" fill="#343535"/>
            <g id="Group_779" data-name="Group 779">
              <path id="Path_1506" data-name="Path 1506" d="M85.348,47.831a12.578,12.578,0,0,1,7.082-5,18.843,18.843,0,0,1,5.308-.5c-7.947.94-15.393,14-12.344,20.079a11.073,11.073,0,0,0,2.957,3.655c-2.806-2.017-5.414-4.352-5.869-7.977A14.731,14.731,0,0,1,85.348,47.831Z" transform="translate(-82.388 -42.271)" fill="#515359"/>
              <path id="Path_1507" data-name="Path 1507" d="M96.952,42.339a7.275,7.275,0,0,1,3.776.531c.091.045.182.045.273.091,5.975,2.851,9.478,6.93,10.707,12.253a12.518,12.518,0,0,1,.258,1.774,9.65,9.65,0,0,1-1.926,6.779c-4.322,5.732-14.786,7.219-21.262,3.17-.409-.273-.8-.561-1.213-.849a10.921,10.921,0,0,1-2.957-3.655C81.56,56.336,89.006,43.279,96.952,42.339Z" transform="translate(-81.602 -42.283)" fill="#040000"/>
            </g>
            <path id="Path_1508" data-name="Path 1508" d="M87.042,56.7c.394.288.8.576,1.213.849,6.475,4.049,16.939,2.563,21.262-3.17a9.451,9.451,0,0,0,1.8-4.352c.121.409.273.819.364,1.259a12.518,12.518,0,0,1,.258,1.774,9.65,9.65,0,0,1-1.926,6.779c-4.322,5.732-14.786,7.219-21.261,3.17-.409-.273-.8-.561-1.213-.849a10.921,10.921,0,0,1-2.957-3.655,8.8,8.8,0,0,1-.5-5.4A11.566,11.566,0,0,0,87.042,56.7Z" transform="translate(-81.61 -38.282)" fill="#1b1b1b"/>
            <path id="Path_1509" data-name="Path 1509" d="M84.522,56.391a11.073,11.073,0,0,0,2.957,3.655c.394.288.8.576,1.213.849,6.476,4.049,16.939,2.563,21.262-3.17a9.61,9.61,0,0,0,1.911-5.975c.015.136.045.273.061.409A9.65,9.65,0,0,1,110,58.938c-4.322,5.732-14.786,7.219-21.261,3.17-.409-.273-.8-.561-1.213-.849A10.921,10.921,0,0,1,84.568,57.6a7.425,7.425,0,0,1-.667-3.458A6.737,6.737,0,0,0,84.522,56.391Z" transform="translate(-81.607 -37.394)" fill="url(#linear-gradient-2)"/>
            <circle id="Ellipse_631" data-name="Ellipse 631" cx="1.198" cy="1.198" r="1.198" transform="translate(16.442 5.53)" fill="#f7f7f7"/>
            <circle id="Ellipse_632" data-name="Ellipse 632" cx="2.457" cy="2.457" r="2.457" transform="translate(18.565 14.356)" fill="#151515"/>
          </g>
          <path id="Path_1510" data-name="Path 1510" d="M85.237,49.471c-.152.349-.607-.152-.607-.531a12.627,12.627,0,0,1,5.414-9.766,16.236,16.236,0,0,1,25.584,9.842,16.568,16.568,0,0,0-8.174-6.961,14.393,14.393,0,0,1,5.247,7.992,19.079,19.079,0,0,0-26.675.045c-.334-.258-.682-.516-1.016-.789C84.918,49.032,85.024,49.3,85.237,49.471Z" transform="translate(-81.23 -36.02)" fill="#1c1d1d"/>
          <path id="Path_1511" data-name="Path 1511" d="M94.995,41.984a1.536,1.536,0,0,1-.971,2.229,29.072,29.072,0,0,0-4.853,2.563,27.326,27.326,0,0,0-2.684,1.865c-.713.576-1.789,2.563-2.912,2.351-.925-.182-.895-1.532-.849-2.229C82.863,45.29,88.762,33.643,94.995,41.984Z" transform="translate(-82.222 -34.462)" fill="#ac8053"/>
        </g>
      </g>
    </g>
  </g>
</svg>
