<svg xmlns="http://www.w3.org/2000/svg" width="196.043" height="206.695" viewBox="0 0 196.043 206.695">
  <g id="Group_787" data-name="Group 787" transform="translate(-759.407 -4465.357)">
    <g id="Group_734" data-name="Group 734" transform="translate(759.411 4623.005)">
      <path id="Path_1151" data-name="Path 1151" d="M3.982,22.193a.714.714,0,0,0,.232.321c.107.071.3.036.321-.089a27.34,27.34,0,0,0,.643-3.41c0-.036-2.232-.232-2.428-.214C2.732,19.818,3.554,21.229,3.982,22.193Z" transform="translate(2.164 14.772)" fill="#231815"/>
      <path id="Path_1152" data-name="Path 1152" d="M12.822,22.193a.714.714,0,0,0,.232.321c.107.071.3.036.321-.089a27.34,27.34,0,0,0,.643-3.41c0-.036-2.232-.232-2.428-.214C11.572,19.818,12.394,21.229,12.822,22.193Z" transform="translate(9.108 14.772)" fill="#231815"/>
      <path id="Path_1153" data-name="Path 1153" d="M22.892,22.193a.714.714,0,0,0,.232.321c.107.071.3.036.321-.089a27.34,27.34,0,0,0,.643-3.41c0-.036-2.232-.232-2.428-.214C21.642,19.818,22.464,21.229,22.892,22.193Z" transform="translate(17.018 14.772)" fill="#231815"/>
      <path id="Path_1154" data-name="Path 1154" d="M44.856,24.734c-.964-7.981-3.375-16.534-9.91-21.212A21.084,21.084,0,0,0,20.68.111,34.024,34.024,0,0,0,9.788,3.058c-8.66,4-10.981,16.8-9.267,25.23A7.19,7.19,0,0,0,4.4,33.59c2.66,1.125,5.839-.161,7.785-2.3A10.691,10.691,0,0,0,13.4,29.662a11.082,11.082,0,0,0,2.75,3.018,10.129,10.129,0,0,0,5.982,2.089,11.118,11.118,0,0,0,6.624-2.482,12.327,12.327,0,0,0,3.357-3.892,12.523,12.523,0,0,0,2.553,3.857c2.071,2.053,5.571,2.982,7.946,1.286C45.213,31.7,45.249,27.894,44.856,24.734Z" transform="translate(0 0)" fill="#f2dfce"/>
    </g>
    <g id="Group_735" data-name="Group 735" transform="translate(910.411 4623.005)">
      <path id="Path_1151-2" data-name="Path 1151" d="M3.982,22.193a.714.714,0,0,0,.232.321c.107.071.3.036.321-.089a27.34,27.34,0,0,0,.643-3.41c0-.036-2.232-.232-2.428-.214C2.732,19.818,3.554,21.229,3.982,22.193Z" transform="translate(2.164 14.772)" fill="#231815"/>
      <path id="Path_1152-2" data-name="Path 1152" d="M12.822,22.193a.714.714,0,0,0,.232.321c.107.071.3.036.321-.089a27.34,27.34,0,0,0,.643-3.41c0-.036-2.232-.232-2.428-.214C11.572,19.818,12.394,21.229,12.822,22.193Z" transform="translate(9.108 14.772)" fill="#231815"/>
      <path id="Path_1153-2" data-name="Path 1153" d="M22.892,22.193a.714.714,0,0,0,.232.321c.107.071.3.036.321-.089a27.34,27.34,0,0,0,.643-3.41c0-.036-2.232-.232-2.428-.214C21.642,19.818,22.464,21.229,22.892,22.193Z" transform="translate(17.018 14.772)" fill="#231815"/>
      <path id="Path_1154-2" data-name="Path 1154" d="M44.856,24.734c-.964-7.981-3.375-16.534-9.91-21.212A21.084,21.084,0,0,0,20.68.111,34.024,34.024,0,0,0,9.788,3.058c-8.66,4-10.981,16.8-9.267,25.23A7.19,7.19,0,0,0,4.4,33.59c2.66,1.125,5.839-.161,7.785-2.3A10.691,10.691,0,0,0,13.4,29.662a11.082,11.082,0,0,0,2.75,3.018,10.129,10.129,0,0,0,5.982,2.089,11.118,11.118,0,0,0,6.624-2.482,12.327,12.327,0,0,0,3.357-3.892,12.523,12.523,0,0,0,2.553,3.857c2.071,2.053,5.571,2.982,7.946,1.286C45.213,31.7,45.249,27.894,44.856,24.734Z" transform="translate(0 0)" fill="#f2dfce"/>
    </g>
    <g id="Group_733" data-name="Group 733" transform="translate(768.734 4465.357)">
      <path id="Path_1381" data-name="Path 1381" d="M161.166,162.276c.749-6.01-.216-12.078-.807-18.1-.605-6.212-1.5-12.453-1.1-18.708.4-6.327,2.767-11.314,5.261-17.007a63.338,63.338,0,0,0,4.4-16.993c.922-7.379-.2-14.831-.216-22.268-.014-4.353.36-8.705.721-13.044q.757-9.037,1.528-18.059c.591-7.048,1.182-14.211-.317-21.129S165.562,3.142,159.221,0a38.611,38.611,0,0,0-28.667,16.546c-7.336,10.781-8.749,24.257-16.46,34.778a.869.869,0,0,1-.649.937c-.951-.908-1.917-1.816-2.868-2.724A6.478,6.478,0,0,1,108.4,51.6c-.894-.937-1.787-1.859-2.681-2.8.072,1.557-2.623,2.162-3.229.721-.389.317-.778.649-1.167.966a5.291,5.291,0,0,1-1.038-1.917l-1.859,1.3a1.924,1.924,0,0,1-.072-2.738l-4.8,2.854c.476-1.456.937-2.9,1.412-4.353L91.076,49c.1-1.24.187-2.479.288-3.733-1.845.98-3.589,1.744-4.944,3.329.49.115-.014.951-.461.764s-.548-.793-.577-1.283a7.069,7.069,0,0,0-3.834,2.22,7.393,7.393,0,0,1,.159-3.5,10.9,10.9,0,0,0-4.3,2.522,1.89,1.89,0,0,1-.577-2.566,3.446,3.446,0,0,0-2.191,2.811,14.172,14.172,0,0,0-6.428,1.441c-.749-.3-1.513-.605-2.263-.908-.519,1.557-3.69,5.3-4.093,3.7A88.964,88.964,0,0,0,43.47,18.189a48.451,48.451,0,0,0-13.4-11.545c-5.2-2.839-12.121-5.765-17.555-3.4-3.632,1.542-6.169,4.843-7.985,8.3C-3.055,26.1.26,43.772,4.512,59.626c.894,3.315,1.83,6.673,1.773,10.089a60.306,60.306,0,0,1-1.254,8.619C4.4,82.168,6.991,96.682,9.11,99.925c4.886,17.007,8,21.951,7.293,34.966-.98,17.814.519,29.647,10.276,44.752,4.353,6.731,9.484,13.087,16.157,17.641a42.547,42.547,0,0,0,34.433,5.895c3.214-.85,7.48-.793,10.147,1.2a3.7,3.7,0,0,1,4.929-.807,28.493,28.493,0,0,1,6.342-.98c.735.721,1.47,1.456,2.205,2.176a12.927,12.927,0,0,1,4.756-3.675c1.9-.692,4.382-.259,5.39,1.485.778-.591,1.542-1.2,2.32-1.787l2.162,1.3c3.661-3.286,10.276-3.834,15.134-3.027,2.508.418,4.929,1.427,7.466,1.557,4.8.245,9.3-2.738,12.136-6.616s4.338-8.547,5.78-13.116l2.378-7.524A65.239,65.239,0,0,0,161.166,162.276Z" transform="translate(0)" fill="#fdf0e5"/>
      <path id="Path_1382" data-name="Path 1382" d="M110.287,80c.822-.072,1.225.98,1.283,1.8.375,4.857-1.528,9.556-3.012,14.2s-2.537,9.83-.562,14.283L91.046,86.844c-2.551-3.531-5.592-7.351-9.916-7.884a51.449,51.449,0,0,0,8.547,1.167,42.212,42.212,0,0,1,5.217.605c1.643.36,3.214,1.009,4.843,1.412a16.536,16.536,0,0,0,9.167-.4C109.841,81.425,110.619,80.935,110.287,80Z" transform="translate(35.803 34.845)" fill="#eddcd1"/>
      <path id="Path_1383" data-name="Path 1383" d="M108.976,81.827c.216.1.259.36.288.591a11.437,11.437,0,0,1-1.052,5.909,4.737,4.737,0,0,0-.692-1.34,8.38,8.38,0,0,0-.577,2.032,10.628,10.628,0,0,0-1.11-3.3l-1.167,1.47a2.088,2.088,0,0,0-.36-.865c-.447.519-.894,1.038-1.355,1.557-.231-.577-.461-1.139-.692-1.715a.42.42,0,0,0-.216-.274c-.115-.043-.764,0-.692.1.13,0,.274-.014.4-.014-.159.259-.317.533-.476.793-.2-.245-.4-.5-.605-.749-.072.332-.144.649-.231.98a2.975,2.975,0,0,0-1.528-1.758,5.509,5.509,0,0,1-.461,1.859c-.187-.317-.36-.62-.548-.937-.2.3-.389.62-.591.922-.3-.519-.764-1.2-1.067-1.715a.323.323,0,0,1-.4.259.566.566,0,0,0-.548-.649.546.546,0,0,0-.49.677,1.563,1.563,0,0,0-.649-.649.562.562,0,0,0-.764.288,3.99,3.99,0,0,1-.649-1.052,1.127,1.127,0,0,0-.778.894c-.245-.144-.36-.432-.548-.649s-.62-.259-.706.014c-.043.13.029.274.014.4a.413.413,0,0,1-.5.288,1.2,1.2,0,0,1-.548-.331A27.8,27.8,0,0,1,86.29,81.25c2.306,1.456,5.246,1.268,7.97,1.254,4.3-.029,8.576-.072,12.871-.1A2.8,2.8,0,0,0,108.976,81.827Z" transform="translate(38.08 35.855)" fill="#dac5ba"/>
      <g id="Group_725" data-name="Group 725" transform="translate(115.506 92.657)">
        <g id="Group_724" data-name="Group 724" transform="translate(0.13 4.187)">
          <path id="Path_1384" data-name="Path 1384" d="M111.939,88.733a3.172,3.172,0,0,0,.072-.836c0-.49.029-.966.029-1.456,0-1.124-.029-2.234-.115-3.358a29.5,29.5,0,0,0-1.139-6.543,21.312,21.312,0,0,0-1.225-3.1,11.23,11.23,0,0,0-4.713-5.174c-3.113-1.6-7.091-1.081-10.19.548A25.457,25.457,0,0,0,87.033,75.7a53.716,53.716,0,0,1-6.8,7.668c2.7,1.975,5.621,3.992,8.95,4.756a51.384,51.384,0,0,0,9.426.98c.764.029,1.542.072,2.306.1,3.142.13,6.27.259,9.412.4a1.943,1.943,0,0,0,1.369-.447A1.1,1.1,0,0,0,111.939,88.733Z" transform="translate(-80.23 -67.146)" fill="#6e4d31"/>
          <path id="Path_1385" data-name="Path 1385" d="M86.538,84.888a44.2,44.2,0,0,1,.822-7.048h0c.49-2.205,1.023-4.771,2.32-6.6.159-.216.332-.432.5-.649a42.465,42.465,0,0,0-3.142,3.517,53.716,53.716,0,0,1-6.8,7.668,29.63,29.63,0,0,0,7.365,4.281A3.236,3.236,0,0,1,86.538,84.888Z" transform="translate(-80.226 -65.693)" fill="#b2825f"/>
          <path id="Path_1386" data-name="Path 1386" d="M106.845,86.773c2.565-3.113,2.609-8.489,1.513-11.963-1.254-3.964-4.972-7.379-9.325-7.509a11.315,11.315,0,0,0-3.113.389,14.529,14.529,0,0,0-8,5.3c-2.364,3.156-3.171,9.628-3.3,13.5.13,1.686,4.266,1.816,7.149,2.248,3.7.562,8.518,1.412,12.265.058A6.845,6.845,0,0,0,106.845,86.773Z" transform="translate(-78.293 -67.146)" fill="#0f0604"/>
          <path id="Path_1387" data-name="Path 1387" d="M107.524,73.6c-.043-.086-.086-.187-.13-.274a11.23,11.23,0,0,0-4.713-5.174,9.492,9.492,0,0,0-4.771-.951,13.137,13.137,0,0,0-5.419,1.5,18.515,18.515,0,0,0-3.733,2.666,14.1,14.1,0,0,0-1.268,1.513c-1.3,1.83-1.845,4.41-2.32,6.6a35.862,35.862,0,0,1,2.7-4.857A15.688,15.688,0,0,1,95.3,69.25c2.983-.865,6.529-.245,8.561,2.1a57.475,57.475,0,0,1,3.4,4.713,11.832,11.832,0,0,1,2.148,4.122A16.58,16.58,0,0,0,107.524,73.6Z" transform="translate(-78.05 -67.192)" fill="#1f0704"/>
          <circle id="Ellipse_533" data-name="Ellipse 533" cx="1.657" cy="1.657" r="1.657" transform="translate(15.451 4.984)" fill="#fff"/>
          <circle id="Ellipse_534" data-name="Ellipse 534" cx="0.692" cy="0.692" r="0.692" transform="translate(19.544 4.018)" fill="#fff"/>
        </g>
        <path id="Path_1388" data-name="Path 1388" d="M113.708,82.423l-1.167-6.01c-.634-3.286-1.369-6.774-3.661-9.21-3.762-3.978-10.507-3.589-15.1-.62s-7.552,7.841-10.349,12.539c-1.1,1.845-2.191,3.675-3.286,5.52,3.171-2.248,5.03-5.4,7.307-8.547s4.727-6.327,8.1-8.287,7.884-2.407,11.026-.115c2.047,1.5,3.2,3.892,4.165,6.241A79.979,79.979,0,0,1,113.708,82.423Z" transform="translate(-80.14 -64.287)" fill="#ceae99"/>
      </g>
      <path id="Path_1389" data-name="Path 1389" d="M106.3,137.431c-4.7,5.3-11.343,8.547-18.117,10.608-15.883,4.843-34.822,3.171-46.727-8.417,4.684-5.563,10.233-11.876,16.4-15.725a35.2,35.2,0,0,1,27.068-4.137C94.01,122.125,101.764,129.23,106.3,137.431Z" transform="translate(18.297 52.373)" fill="#efd6c7"/>
      <path id="Path_1390" data-name="Path 1390" d="M80.535,136.644a23.071,23.071,0,0,0,7.106-2.7,31.65,31.65,0,0,0,5.29-4.439c.159-.159.332-.317.49-.476a31.181,31.181,0,0,0-10.968-5.491,35.137,35.137,0,0,0-27.068,4.137,42.725,42.725,0,0,0-5.4,4.064A42.833,42.833,0,0,0,80.535,136.644Z" transform="translate(22.057 54.039)" fill="#e3bfae"/>
      <path id="Path_1391" data-name="Path 1391" d="M144.656,131.713a187.515,187.515,0,0,0-15.278-32.977c-3.935-6.7-8.547-13.39-15.335-17.166-8.187-4.54-18.1-4.108-27.442-3.546q-9.253.562-18.506,1.11A49.888,49.888,0,0,0,56.665,80.72c-8.158,2.465-14.471,8.965-19.4,15.912A90.526,90.526,0,0,0,20.69,148.374c-.014,5.16,4.324,9.613,7.149,13.937,2.753,4.209,6.342,8.259,11.184,9.613,5.895,1.658,12.237-1.11,16.892-5.117s8.129-9.167,12.41-13.548,10.983-7.812,15.97-8.057c8.187-.389,18.247,4.612,24.949,10.824,5.506,5.1,10.233,12.078,17.627,13.447,8.143,1.513,16.128-5.059,18.766-12.914C148.245,148.706,144.858,132.246,144.656,131.713Z" transform="translate(9.131 34.281)" fill="#f7e6db"/>
      <path id="Path_1392" data-name="Path 1392" d="M28.988,115.922c1.7-12.683,14.989-21.418,20.856-32.789,2.493-4.828-.317-3.56-.807-5.29A31.011,31.011,0,0,1,35.3,80.451c-2.263-.086-4.828-5.592-7.091-5.318-8.215.98-5.52,12.828-4.5,18.463.649,3.589,2.724,8.345,3.373,11.948C27.633,108.427,29.377,113.025,28.988,115.922Z" transform="translate(9.913 33.152)" fill="#eddcd1"/>
      <g id="Group_730" data-name="Group 730" transform="translate(37.316 131.325)">
        <path id="Path_1393" data-name="Path 1393" d="M49.519,101.744a11.173,11.173,0,0,0-.447,3.791,28.566,28.566,0,0,0,14.384,24.012,18.228,18.228,0,0,0,5.924,2.176c7.913,1.24,15.162-4.713,19.818-11.228,4.353-6.082,7.524-14.24,4.137-20.913C87.28,87.648,53.958,88.3,49.519,101.744Z" transform="translate(-15.662 -91.116)" fill="#e4c7ba"/>
        <path id="Path_1394" data-name="Path 1394" d="M51.4,102.169a9.956,9.956,0,0,0-.389,3.329,25.078,25.078,0,0,0,12.64,21.086,15.859,15.859,0,0,0,5.2,1.917c6.947,1.1,13.318-4.151,17.411-9.858,3.819-5.347,6.616-12.51,3.632-18.377C84.565,89.788,55.307,90.351,51.4,102.169Z" transform="translate(-14.806 -90.359)" fill="#2e261e"/>
        <path id="Path_1395" data-name="Path 1395" d="M51.734,106.41a31.791,31.791,0,0,1,5.607-.49c2.248,0,5.03.663,5.549,2.868a3.763,3.763,0,0,1-1.268,3.445c-.937.879-2.738,1.4-3.92,1.9a2.006,2.006,0,0,1-1.456.216,1.908,1.908,0,0,1-.735-.62c-1.816-2.148-2.71-4.583-3.791-7.178" transform="translate(-14.491 -84.583)" fill="#231815"/>
        <path id="Path_1396" data-name="Path 1396" d="M81.722,105.631a35.962,35.962,0,0,0-5.953-.519c-2.248.072-5.016.822-5.463,3.027a3.756,3.756,0,0,0,1.369,3.4c.951.85,2.782,1.312,3.978,1.773.476.187,1.384.764,1.73.4a6.511,6.511,0,0,0,.548-.764,26.708,26.708,0,0,0,3.819-7.192" transform="translate(-6.314 -84.943)" fill="#231815"/>
        <g id="Group_726" data-name="Group 726" transform="translate(0 29.509)">
          <path id="Path_1397" data-name="Path 1397" d="M26.46,121.766S39.331,112.9,54.118,111.59" transform="translate(-25.638 -111.59)" fill="none" stroke="#a3a2a2" stroke-linecap="round" stroke-linejoin="round" stroke-miterlimit="10" stroke-width="0.25"/>
          <path id="Path_1398" data-name="Path 1398" d="M25.89,134s15.552-15.58,29.993-19.054" transform="translate(-25.89 -110.107)" fill="none" stroke="#a3a2a2" stroke-linecap="round" stroke-linejoin="round" stroke-miterlimit="10" stroke-width="0.25"/>
          <path id="Path_1399" data-name="Path 1399" d="M32.07,139.968s7.7-15.825,21.879-21.648" transform="translate(-23.163 -108.62)" fill="none" stroke="#a3a2a2" stroke-linecap="round" stroke-linejoin="round" stroke-miterlimit="10" stroke-width="0.25"/>
        </g>
        <g id="Group_727" data-name="Group 727" transform="translate(83.84 25.171)">
          <path id="Path_1400" data-name="Path 1400" d="M113.421,117.905s-13.13-8.46-27.961-9.325" transform="translate(-83.442 -108.58)" fill="none" stroke="#a3a2a2" stroke-linecap="round" stroke-linejoin="round" stroke-miterlimit="10" stroke-width="0.25"/>
          <path id="Path_1401" data-name="Path 1401" d="M115.075,130.1S99.048,115.007,84.52,111.98" transform="translate(-83.857 -107.08)" fill="none" stroke="#a3a2a2" stroke-linecap="round" stroke-linejoin="round" stroke-miterlimit="10" stroke-width="0.25"/>
          <path id="Path_1402" data-name="Path 1402" d="M106.6,136.326s-8.187-15.58-22.542-20.956" transform="translate(-84.06 -105.584)" fill="none" stroke="#a3a2a2" stroke-linecap="round" stroke-linejoin="round" stroke-miterlimit="10" stroke-width="0.25"/>
        </g>
        <g id="Group_728" data-name="Group 728" transform="translate(26.405 21.755)">
          <circle id="Ellipse_535" data-name="Ellipse 535" cx="0.447" cy="0.447" r="0.447" transform="translate(6.543)" fill="#dac5ba"/>
          <circle id="Ellipse_536" data-name="Ellipse 536" cx="0.447" cy="0.447" r="0.447" transform="translate(6.99 4.425)" fill="#dac5ba"/>
          <circle id="Ellipse_537" data-name="Ellipse 537" cx="0.447" cy="0.447" r="0.447" transform="translate(0 10.075)" fill="#dac5ba"/>
          <circle id="Ellipse_538" data-name="Ellipse 538" cx="0.447" cy="0.447" r="0.447" transform="translate(3.113 5.765)" fill="#dac5ba"/>
          <circle id="Ellipse_539" data-name="Ellipse 539" cx="0.447" cy="0.447" r="0.447" transform="translate(2.666 1.989)" fill="#dac5ba"/>
          <circle id="Ellipse_540" data-name="Ellipse 540" cx="0.447" cy="0.447" r="0.447" transform="translate(0.447 4.425)" fill="#dac5ba"/>
          <circle id="Ellipse_541" data-name="Ellipse 541" cx="0.447" cy="0.447" r="0.447" transform="translate(8.763 8.302)" fill="#dac5ba"/>
          <circle id="Ellipse_542" data-name="Ellipse 542" cx="0.447" cy="0.447" r="0.447" transform="translate(4.165 9.181)" fill="#dac5ba"/>
          <circle id="Ellipse_543" data-name="Ellipse 543" cx="0.447" cy="0.447" r="0.447" transform="translate(1.34 14.701)" fill="#dac5ba"/>
          <circle id="Ellipse_544" data-name="Ellipse 544" cx="0.447" cy="0.447" r="0.447" transform="translate(9.642 11.876)" fill="#dac5ba"/>
          <circle id="Ellipse_545" data-name="Ellipse 545" cx="0.447" cy="0.447" r="0.447" transform="translate(6.097 13.346)" fill="#dac5ba"/>
        </g>
        <g id="Group_729" data-name="Group 729" transform="translate(75.509 18.671)">
          <circle id="Ellipse_546" data-name="Ellipse 546" cx="0.447" cy="0.447" r="0.447" transform="translate(3.099 15.912)" fill="#dac5ba"/>
          <circle id="Ellipse_547" data-name="Ellipse 547" cx="0.447" cy="0.447" r="0.447" transform="translate(2.868 10.204)" fill="#dac5ba"/>
          <circle id="Ellipse_548" data-name="Ellipse 548" cx="0.447" cy="0.447" r="0.447" transform="translate(8.749 6.284)" fill="#dac5ba"/>
          <circle id="Ellipse_549" data-name="Ellipse 549" cx="0.447" cy="0.447" r="0.447" transform="translate(6.529 10.147)" fill="#dac5ba"/>
          <circle id="Ellipse_550" data-name="Ellipse 550" cx="0.447" cy="0.447" r="0.447" transform="translate(6.961 13.923)" fill="#dac5ba"/>
          <circle id="Ellipse_551" data-name="Ellipse 551" cx="0.447" cy="0.447" r="0.447" transform="translate(9.195 11.487)" fill="#dac5ba"/>
          <circle id="Ellipse_552" data-name="Ellipse 552" cx="0.447" cy="0.447" r="0.447" transform="translate(0 13.058)" fill="#dac5ba"/>
          <circle id="Ellipse_553" data-name="Ellipse 553" cx="0.447" cy="0.447" r="0.447" transform="translate(4.814 5.837)" fill="#dac5ba"/>
          <circle id="Ellipse_554" data-name="Ellipse 554" cx="0.447" cy="0.447" r="0.447" transform="translate(8.302 1.211)" fill="#dac5ba"/>
          <circle id="Ellipse_555" data-name="Ellipse 555" cx="0.447" cy="0.447" r="0.447" transform="translate(2.868)" fill="#dac5ba"/>
          <circle id="Ellipse_556" data-name="Ellipse 556" cx="0.447" cy="0.447" r="0.447" transform="translate(5.708 2.364)" fill="#dac5ba"/>
        </g>
      </g>
      <path id="Path_1403" data-name="Path 1403" d="M26.472,97.828c.461-.634.922-1.283,1.369-1.917a3.057,3.057,0,0,0,1.11,1.2,3.454,3.454,0,0,1,1.009-1.744c.187.259.375.533.562.793a4.613,4.613,0,0,0,.461-1.557,1.849,1.849,0,0,1,1.153.951,3.422,3.422,0,0,1,2.782-3.2,1.324,1.324,0,0,0-.1,1.268c1.182-1.139,2.349-2.292,3.531-3.43a2.165,2.165,0,0,1,.187,1.47,14.445,14.445,0,0,1,1.989-3.027c.187.3.36.605.548.922.591-2.292,2.609-3.863,4.309-5.506s3.272-3.935,2.609-6.212c-5.419-1.3-10.766,2.191-16.3,2.9a39.85,39.85,0,0,0-4.353.519C19.942,82.969,24.281,93.26,26.472,97.828Z" transform="translate(10.239 34.223)" fill="#dac5ba"/>
      <path id="Path_1404" data-name="Path 1404" d="M33.594,121.21c.706.533,1.427,1.067,2.133,1.6q3.524-7.156,7.062-14.312c2.594-5.261,5.217-10.579,9.023-15.119s8.95-8.331,14.946-9.5c-10.507,2.681-16.171,13.2-20.567,22.643l-9.642,20.711c-1.081-.749-2.162-1.5-3.257-2.248.043.029-10.9,19.573-11.992,21.043C22.237,137.323,28.1,128.041,33.594,121.21Z" transform="translate(9.4 37.016)" fill="#edd9cc"/>
      <path id="Path_1405" data-name="Path 1405" d="M82.371,83.412a21.733,21.733,0,0,0-12.5-.663,22.939,22.939,0,0,1-3.776.822,25.549,25.549,0,0,1-2.969-.1,18.692,18.692,0,0,0-7.74,1.312,11.935,11.935,0,0,1,6.486-.159,20.094,20.094,0,0,0,2.911.476A15.816,15.816,0,0,0,69.7,84.032,26.049,26.049,0,0,1,82.371,83.412Z" transform="translate(24.444 36.244)" fill="#edd9cc"/>
      <path id="Path_1406" data-name="Path 1406" d="M116.763,121.782A107.251,107.251,0,0,0,101.7,100.71C95.576,94.166,87.577,88.963,78.67,87.94a54,54,0,0,1,22.066,14.024l-1.686-.3c6.471,5.506,9.931,8.014,13.923,15.364A26.171,26.171,0,0,0,116.763,121.782Z" transform="translate(34.717 38.808)" fill="#edd9cc"/>
      <path id="Path_1407" data-name="Path 1407" d="M54.333,51.194c.389-.072.85.274.749.663s-.822.346-.793-.043c.274-3.661-1.946-6.99-4.021-10.017C41.779,29.445,33.261,16.142,19.929,9.267c-2.234-1.153-5.073-2.061-7.134-.62a7.682,7.682,0,0,0-2.306,3.531C7.462,19.6,4.377,27.211,4.032,35.225c-.346,7.509,1.744,14.889,3.863,22.1,1.456,4.972,3.214,10.32,7.48,13.26.389.274.317.086.778.014a10.7,10.7,0,0,0,1.153-3.69c.389.288.793.562,1.182.85.245-1.11.476-2.234.721-3.344a2.754,2.754,0,0,1,1.744,1.8,13.953,13.953,0,0,1,1.528-3.964,2.177,2.177,0,0,0,2.349,1.24,7.3,7.3,0,0,0-.865-6.2,16.276,16.276,0,0,1,3.574,3.387,3.469,3.469,0,0,1,1.124-2.364,5.59,5.59,0,0,1,1.946,1.859c.331-.634.663-1.254,1.009-1.888a1.771,1.771,0,0,0,1.715.879c-.317-.764-.62-1.528-.937-2.292a7.592,7.592,0,0,1,4.454,2.364,7.623,7.623,0,0,0,.447-3.315l1.528,1.312a1.249,1.249,0,0,1,1.73-.418A18.077,18.077,0,0,0,35.8,48.4c2.349,1.845,4.7,3.7,7.048,5.549.029-.562.043-1.139.072-1.7L44.489,53.9a1.322,1.322,0,0,0,.894-1.153c.418.245.836.49,1.24.721.058-1.24.13-2.465.187-3.7a7.2,7.2,0,0,1,2.421,2.753,1.708,1.708,0,0,0,.274-1.672c.533.721,1.052,1.441,1.585,2.162A3.552,3.552,0,0,1,52.4,51.554C53.036,51.915,53.684,50.848,54.333,51.194Z" transform="translate(1.763 3.489)" fill="#eddcd1"/>
      <path id="Path_1408" data-name="Path 1408" d="M125.361,67.831a1.608,1.608,0,0,0,.36,1.859c2.047-9.556-1.629-19.6.1-29.229.908-5,3.243-9.743,3.416-14.817.259-7.668-5.419-14.413-9.988-20.567a.368.368,0,0,0,.649,0,.378.378,0,0,0-.461-.461C109.694,8.854,99.893,15.4,96.708,25.529A83,83,0,0,1,83.16,51.386c1.585-.735,3.1-1.182,4.684-1.917a3.2,3.2,0,0,0,.187,3.056,1.03,1.03,0,0,0,1.211-1.153,4.718,4.718,0,0,1,.951,2.969c.3-.4.591-.822.894-1.225a2.8,2.8,0,0,0,.577,1.917A5.46,5.46,0,0,0,94.143,51.8,19.216,19.216,0,0,1,96.074,57.4a4.5,4.5,0,0,0,1.067-2.349c.375,1.023.764,2.032,1.139,3.056a1.272,1.272,0,0,1,.879-1.139,3.609,3.609,0,0,0,.778,1.874,15.538,15.538,0,0,0,1.917-4.727c1.139,2.825,2.522,5.318,2.652,8.36a7.641,7.641,0,0,1,1.557-2.666,5.294,5.294,0,0,1,1.412,3.156l1.686-2.681a7.638,7.638,0,0,0,.576,3.1,11.518,11.518,0,0,0,1.384-3.445,15.074,15.074,0,0,1,2,6.111,7.725,7.725,0,0,0,2.292-3.762,20.644,20.644,0,0,1,1.052,4.454,6.451,6.451,0,0,0,1.384-3.041,9.285,9.285,0,0,0,1.312,3.978,8.752,8.752,0,0,0,2.306-4.439c.259,1.528.5,3.056.764,4.583a7.323,7.323,0,0,0,1.1-2.8c.677,1.657,1.369,3.315,2.047,4.972A18.051,18.051,0,0,0,125.361,67.831Z" transform="translate(36.699 2.028)" fill="#eddcd1"/>
      <path id="Path_1409" data-name="Path 1409" d="M26.3,96.96A40.348,40.348,0,0,1,14.856,66.88a88.071,88.071,0,0,0,4.093,15.595c.072-.5.13-1.009.2-1.513.432,1.211.865,2.436,1.3,3.646.259-.49.533-.98.793-1.485.937,5.189,2.032,10.68,5.664,14.5C26.329,96.989,25.565,95.893,26.3,96.96Z" transform="translate(6.534 29.514)" fill="#eddcd1"/>
      <path id="Path_1410" data-name="Path 1410" d="M102.524,91.615a40.29,40.29,0,0,0,6.933-31.435,87.719,87.719,0,0,1-1.773,16.013c-.144-.49-.274-.98-.418-1.47-.245,1.268-.5,2.537-.749,3.805-.332-.447-.677-.894-1.009-1.34-.173,5.261-.447,10.867-3.488,15.162C102.51,91.658,103.1,90.462,102.524,91.615Z" transform="translate(45.022 26.557)" fill="#eddcd1"/>
      <g id="Group_732" data-name="Group 732" transform="translate(29.241 99.929)">
        <g id="Group_731" data-name="Group 731" transform="translate(3.261 2.637)">
          <path id="Path_1411" data-name="Path 1411" d="M28.784,94.345a8.584,8.584,0,0,0,5.78-2.811c1.571-1.542,4.886-4.165,6.414-5.751,1.773-1.83,2.638-1.355,4.3-2.926.735-.706,1.874-1.268,2.537-2.032,2.09-2.45.476-1.023-.288-1.686-3.113-.749-5.477-3.416-8.46-4.554s-6.428-1.744-9.311-.36c-3.3,1.571-6.356,6.241-6.4,9.931C23.293,86.85,25.642,94.345,28.784,94.345Z" transform="translate(-22.197 -70.164)" fill="#6e4d31"/>
          <path id="Path_1412" data-name="Path 1412" d="M49.2,80.3c-.922-.85-3.574-1.8-6.27-4.108-3.344-2.854-7.034-5.535-11.4-4.944-4.569.634-8.114,4.857-8.821,9.412s1.009,9.224,3.747,12.928c-3.488-4.713-1.153-15.624,4.252-18.059C36.934,72.744,43.117,80.787,49.2,80.3Z" transform="translate(-22.55 -71.163)" fill="#1f0704"/>
          <path id="Path_1413" data-name="Path 1413" d="M44.491,82.792c-.533,1.585-2.061,2.032-3.344,2.825-1.557.98-2.883,2.537-4.367,3.69C29.8,94.726,23.016,84.853,25.164,78.367a8.1,8.1,0,0,1,7.452-5.607,10.151,10.151,0,0,1,3.445.778C39.5,74.922,45.717,79.188,44.491,82.792Z" transform="translate(-21.574 -70.458)" fill="#0f0604"/>
          <circle id="Ellipse_557" data-name="Ellipse 557" cx="1.456" cy="1.456" r="1.456" transform="translate(13.736 4.262)" fill="#fff"/>
          <circle id="Ellipse_558" data-name="Ellipse 558" cx="0.634" cy="0.634" r="0.634" transform="translate(10.349 4.392)" fill="#fff"/>
        </g>
        <path id="Path_1414" data-name="Path 1414" d="M40.585,72.341a25.473,25.473,0,0,0-5.607-2.71c-4.093-1.1-8.6.937-11.213,4.266s-3.546,7.74-3.474,11.977a19.661,19.661,0,0,0,1.326,6.515c.029-5.232-.331-11.876,2.335-16.388a10.624,10.624,0,0,1,4.482-4.324,11.965,11.965,0,0,1,7.841-.389C41.046,72.413,50.212,81.1,50.212,81.1S42.92,73.854,40.585,72.341Z" transform="translate(-20.287 -69.333)" fill="#ceae99"/>
      </g>
      <path id="Path_1415" data-name="Path 1415" d="M19.518,17.88c1.715,3.185,1.931,7.452,2.609,11a8.855,8.855,0,0,0-3.4-2.955,12.553,12.553,0,0,1,2.292,3.964A1.421,1.421,0,0,1,19,29.756c.014.62.591,1.052,1.1,1.4s1.052.85.98,1.456a.722.722,0,0,1-.807.533,5.174,5.174,0,0,1,1.24,2.335,7.021,7.021,0,0,1-4.237-.461,15.738,15.738,0,0,1,4.54,7.538c-1.211-.85-2.421-1.715-3.618-2.566.908,1.7,1.8,3.4,2.71,5.1a4.224,4.224,0,0,1-2.854.13c2.479,2.753,3.43,6.371,3.776,10.132a3.429,3.429,0,0,1,.951-1.5,5.59,5.59,0,0,1,1.946,1.859c.331-.62.663-1.254,1.009-1.888a1.771,1.771,0,0,0,1.715.879c-.317-.764-.62-1.528-.937-2.292a7.592,7.592,0,0,1,4.454,2.364,7.623,7.623,0,0,0,.447-3.315l1.528,1.312a1.249,1.249,0,0,1,1.73-.418,18.077,18.077,0,0,0-4.756-8.417c2.349,1.845,4.7,3.7,7.048,5.549.029-.562.043-1.139.072-1.7L38.6,49.444a1.322,1.322,0,0,0,.894-1.153c.331.187.649.375.98.562a59.489,59.489,0,0,0-2.22-6.861A56.093,56.093,0,0,0,19.518,17.88Z" transform="translate(7.622 7.89)" fill="#e0cec5"/>
      <path id="Path_1416" data-name="Path 1416" d="M107.653,49.546a3.932,3.932,0,0,1-.115-3.2,5.772,5.772,0,0,1-1.11,2.018,34.315,34.315,0,0,1,.245-7.495,2,2,0,0,1-1.8,1.167c-.014-1.715-.014-3.416-.029-5.131a2.535,2.535,0,0,1-1.254,1.167,23.563,23.563,0,0,1,.605-6.356,1.453,1.453,0,0,1-1.254,1.24,22.154,22.154,0,0,1,.692-4.569l-2.724,2.94a83.079,83.079,0,0,1-.476-8.878c-.951,2.839-1.888,5.679-2.839,8.5-.1.288-.231.62-.533.706a.376.376,0,0,1-.432-.317c-.1.259-.2.533-.317.793-.115-.432-.216-.865-.332-1.3-.49.764-.98,1.542-1.47,2.306-.115-1.081-.245-2.148-.36-3.229-1.283,5.39-4.569,10.464-6.2,15.753a6.225,6.225,0,0,1,.072.894c.3-.4.591-.822.894-1.225a2.8,2.8,0,0,0,.577,1.917,5.46,5.46,0,0,0,2.479-3.229A19.217,19.217,0,0,1,93.9,49.618a4.5,4.5,0,0,0,1.067-2.349c.375,1.023.764,2.032,1.139,3.056a1.272,1.272,0,0,1,.879-1.139,3.609,3.609,0,0,0,.778,1.874,15.538,15.538,0,0,0,1.917-4.727c1.139,2.825,2.522,5.318,2.652,8.36a7.641,7.641,0,0,1,1.557-2.666,5.294,5.294,0,0,1,1.412,3.156L106.99,52.5a7.638,7.638,0,0,0,.577,3.1,11.873,11.873,0,0,0,1.124-2.594l.259-3.978A1.233,1.233,0,0,1,107.653,49.546Z" transform="translate(38.813 9.907)" fill="#e0cec5"/>
      <path id="Path_1417" data-name="Path 1417" d="M107,68.573c-.259.029-.187.49.058.562a.858.858,0,0,0,.706-.259,54.832,54.832,0,0,0,15.076-18.218c-1.182.721-2.378,1.456-3.56,2.176a5.49,5.49,0,0,1,.461-2.493,1.277,1.277,0,0,1-1.355.706c-.014-1.355-.865-2.623-.879-3.978a25.957,25.957,0,0,0-5.3,6.255,4.664,4.664,0,0,0-.807-4.108c-1.167,1.1-2.335,2.176-3.5,3.272a33.666,33.666,0,0,0-.043-4.67,17.861,17.861,0,0,0-3.589,2.811,9.045,9.045,0,0,1,1.34-5.736c-1.9,1.859-4.367,2.883-6.27,4.742a13.649,13.649,0,0,1-1.1-9.354,22.429,22.429,0,0,0-6.471,6.9,3.987,3.987,0,0,0-.519-3.416,11.415,11.415,0,0,0-3.229,5.506c-.533-1.11-1.081-2.22-1.614-3.344a9.741,9.741,0,0,0-2.263,3.185c-.346-1.038-.706-2.09-1.052-3.128a6.373,6.373,0,0,0-2.609,2.666c-.995-1.571-2.075-3.142-1.456-4.9a16.687,16.687,0,0,0-4.742,5.535A8.891,8.891,0,0,1,72.6,45.714c-.749,1.124-1.5,2.248-2.234,3.373a28.68,28.68,0,0,1-.994-6.068,32.418,32.418,0,0,0-2.782,5.736c-.389-.793-.793-1.571-1.182-2.364a5.824,5.824,0,0,0-1.6,3.733c-.562-.98-1.11-1.975-1.672-2.955a8.558,8.558,0,0,0-1.34,3.344c-.62-1.917-2.205-3.373-3.387-5q-1.643,3.092-3,6.313c-.937-.894-1.874-1.8-2.811-2.7a6.877,6.877,0,0,0-.5,3.445,11.122,11.122,0,0,1-3.834-3.488,5.192,5.192,0,0,0-.086,4.569c-2.061-1.9-4.309-2.292-7.019-2.983a27.076,27.076,0,0,1,2.277,4.958c-1.946-1.283-3.863-2.623-5.722-4.021a5.657,5.657,0,0,0-.677,3.1,1.824,1.824,0,0,0-1.7-.36c-.058.577-.1,1.139-.159,1.715-.577-.245-1.153-.49-1.73-.749.5.49-.029,1.412-.721,1.513a2.693,2.693,0,0,1-1.888-.749c-.1,1.11-.216,2.22-.317,3.344-1.24-.778-2.378-.865-3.618-1.643A39.748,39.748,0,0,0,37.358,72.1c-.245-.331-.476-.649-.721-.98-1.557-2.1-.836-4.727.346-7.048.749.663,1.5,1.34,2.263,2a4.387,4.387,0,0,1-.778-3.618c.692.317,1.4.634,2.09.951.058-1.182.13-2.364.187-3.546a2.855,2.855,0,0,1,3.113.346c.577.5,1.384.231,2.018.663a1.857,1.857,0,1,1,3.358-1.585c.346-.721.706-1.441,1.052-2.176.649.3,1.3.605,1.931.908a1.47,1.47,0,0,1,2.58-.749c.3-.418.591-.836.894-1.254A2.9,2.9,0,0,1,57.1,57.475c.62-1.5,2.393-2.45,3.474-3.675.677,1.485,1.355,2.955,2.032,4.439a6.657,6.657,0,0,1,.663-2.349c.173-.36.447-.735.836-.764.476-.043.822.4,1.052.822A11.76,11.76,0,0,1,66.285,58.7a9.048,9.048,0,0,1,2.277-3.517,6.791,6.791,0,0,1,2.565,4.007,11,11,0,0,1,1.6-2.94,10.689,10.689,0,0,1,1.182,4.3,9.282,9.282,0,0,1,3.7-5.39c.274.692,1.052.966,1.326,1.657a15.514,15.514,0,0,1,5.434-4.7,3.765,3.765,0,0,1,.663,2.94,6.549,6.549,0,0,1,2.321-2.724c.375,1.1.749,2.191,1.139,3.286A9.369,9.369,0,0,1,93.136,50.7c.36,1.427.721,2.868,1.081,4.3.62-.692,1.24-1.384,1.845-2.075a1.181,1.181,0,0,1,.706-.476c.5-.043.807.548.966,1.023.389,1.182.778,2.364,1.153,3.531a3.4,3.4,0,0,1,2.407-2.8c.231,1.081.476,2.162.706,3.243a15.2,15.2,0,0,1,2.638-2.263,3.713,3.713,0,0,1-.591,4.54c1.686-1.384,3.964-2.234,5.65-3.618-.029,1.167-.072,2.335-.1,3.517a2.7,2.7,0,0,1,2.018-1.931,3.556,3.556,0,0,1-.187,2.378c.649-.634,1.312-1.268,1.96-1.9A46.839,46.839,0,0,0,106.44,68.76C106.007,68.342,106.814,69.149,107,68.573Z" transform="translate(11.43 17.775)" fill="#fff7f2"/>
    </g>
  </g>
</svg>
