<svg xmlns="http://www.w3.org/2000/svg" xmlns:xlink="http://www.w3.org/1999/xlink" width="179.45" height="225.225" viewBox="0 0 179.45 225.225">
  <defs>
    <linearGradient id="linear-gradient" x1="-0.001" y1="0.5" x2="1" y2="0.5" gradientUnits="objectBoundingBox">
      <stop offset="0.078" stop-color="#1e0400"/>
      <stop offset="0.518" stop-color="#5a3307"/>
      <stop offset="0.998" stop-color="#1e0200"/>
    </linearGradient>
    <linearGradient id="linear-gradient-2" x1="-38.634" y1="0.5" x2="-37.634" y2="0.5" xlink:href="#linear-gradient"/>
  </defs>
  <g id="Group_767" data-name="Group 767" transform="translate(-417 -4712.705)">
    <g id="Group_766" data-name="Group 766" transform="translate(417.411 4884.005)">
      <path id="Path_1151" data-name="Path 1151" d="M3.982,22.193a.714.714,0,0,0,.232.321c.107.071.3.036.321-.089a27.34,27.34,0,0,0,.643-3.41c0-.036-2.232-.232-2.428-.214C2.732,19.818,3.554,21.229,3.982,22.193Z" transform="translate(2.164 14.772)" fill="#231815"/>
      <path id="Path_1152" data-name="Path 1152" d="M12.822,22.193a.714.714,0,0,0,.232.321c.107.071.3.036.321-.089a27.34,27.34,0,0,0,.643-3.41c0-.036-2.232-.232-2.428-.214C11.572,19.818,12.394,21.229,12.822,22.193Z" transform="translate(9.108 14.772)" fill="#231815"/>
      <path id="Path_1153" data-name="Path 1153" d="M22.892,22.193a.714.714,0,0,0,.232.321c.107.071.3.036.321-.089a27.34,27.34,0,0,0,.643-3.41c0-.036-2.232-.232-2.428-.214C21.642,19.818,22.464,21.229,22.892,22.193Z" transform="translate(17.018 14.772)" fill="#231815"/>
      <path id="Path_1154" data-name="Path 1154" d="M44.856,24.734c-.964-7.981-3.375-16.534-9.91-21.212A21.084,21.084,0,0,0,20.68.111,34.024,34.024,0,0,0,9.788,3.058c-8.66,4-10.981,16.8-9.267,25.23A7.19,7.19,0,0,0,4.4,33.59c2.66,1.125,5.839-.161,7.785-2.3A10.691,10.691,0,0,0,13.4,29.662a11.082,11.082,0,0,0,2.75,3.018,10.129,10.129,0,0,0,5.982,2.089,11.118,11.118,0,0,0,6.624-2.482,12.327,12.327,0,0,0,3.357-3.892,12.523,12.523,0,0,0,2.553,3.857c2.071,2.053,5.571,2.982,7.946,1.286C45.213,31.7,45.249,27.894,44.856,24.734Z" transform="translate(0 0)"/>
    </g>
    <g id="Group_765" data-name="Group 765" transform="translate(551.411 4884.005)">
      <path id="Path_1151-2" data-name="Path 1151" d="M3.982,22.193a.714.714,0,0,0,.232.321c.107.071.3.036.321-.089a27.34,27.34,0,0,0,.643-3.41c0-.036-2.232-.232-2.428-.214C2.732,19.818,3.554,21.229,3.982,22.193Z" transform="translate(2.164 14.772)" fill="#231815"/>
      <path id="Path_1152-2" data-name="Path 1152" d="M12.822,22.193a.714.714,0,0,0,.232.321c.107.071.3.036.321-.089a27.34,27.34,0,0,0,.643-3.41c0-.036-2.232-.232-2.428-.214C11.572,19.818,12.394,21.229,12.822,22.193Z" transform="translate(9.108 14.772)" fill="#231815"/>
      <path id="Path_1153-2" data-name="Path 1153" d="M22.892,22.193a.714.714,0,0,0,.232.321c.107.071.3.036.321-.089a27.34,27.34,0,0,0,.643-3.41c0-.036-2.232-.232-2.428-.214C21.642,19.818,22.464,21.229,22.892,22.193Z" transform="translate(17.018 14.772)" fill="#231815"/>
      <path id="Path_1154-2" data-name="Path 1154" d="M44.856,24.734c-.964-7.981-3.375-16.534-9.91-21.212A21.084,21.084,0,0,0,20.68.111,34.024,34.024,0,0,0,9.788,3.058c-8.66,4-10.981,16.8-9.267,25.23A7.19,7.19,0,0,0,4.4,33.59c2.66,1.125,5.839-.161,7.785-2.3A10.691,10.691,0,0,0,13.4,29.662a11.082,11.082,0,0,0,2.75,3.018,10.129,10.129,0,0,0,5.982,2.089,11.118,11.118,0,0,0,6.624-2.482,12.327,12.327,0,0,0,3.357-3.892,12.523,12.523,0,0,0,2.553,3.857c2.071,2.053,5.571,2.982,7.946,1.286C45.213,31.7,45.249,27.894,44.856,24.734Z" transform="translate(0 0)"/>
    </g>
    <g id="Group_764" data-name="Group 764" transform="translate(416.991 4712.725)">
      <path id="Path_1451" data-name="Path 1451" d="M9.084,102.725a22.26,22.26,0,0,1-3.75,7.093,4.463,4.463,0,0,1,2.873-.56c-.817,1.558-1.618,3.13-2.435,4.688a2.181,2.181,0,0,0,2.631-.227c-.484,1.164-.953,2.329-1.437,3.493a1.531,1.531,0,0,0,1.754-.62,13.113,13.113,0,0,1-3.448,6.715,7.432,7.432,0,0,0,4.809-.877,7.685,7.685,0,0,0-1.195,5.55c.968-.5,1.951-.983,2.919-1.482-.575,1.754-1.149,3.509-1.724,5.248.907-.408,1.815-.8,2.722-1.21a7.624,7.624,0,0,1-2.586,5.656,5.987,5.987,0,0,0,5.081-1.316l.091,5.716,2.45-.953c-.56,2.329-1.119,4.658-1.664,6.972a5.232,5.232,0,0,1,3.085-.393,18.1,18.1,0,0,1-3.221,6.9,8.659,8.659,0,0,0,5.611-2.465,7.09,7.09,0,0,1-.877,3.1,6.261,6.261,0,0,1,2.253.318c-.7.817-1.391,1.648-2.087,2.465a7.232,7.232,0,0,1,2.934,1.27,12.35,12.35,0,0,1-3.07,1.6,12.385,12.385,0,0,0,5.293,2.238c-.756.8-1.512,1.588-2.284,2.389a9.393,9.393,0,0,0,3.312,1.164,1.829,1.829,0,0,0-1.376,1.361c.892.333,1.8.65,2.692.983l-2.9,2.223a13.687,13.687,0,0,1,4.854,3.75c.922,1.149,1.24,3.191-.348,3.524l2.767,1.588c-.2-.227-.681.03-.665.3s.287.5.544.681c1.361.953,2.707,1.905,4.068,2.858-.983.529-1.981,1.074-2.964,1.6,1.588.62,3.161,1.24,4.749,1.845a7.791,7.791,0,0,1-2.268,2.4c1.059.272,2.132.56,3.191.832-.469.393-.938.786-1.406,1.164.711.393,1.422.786,2.147,1.164l-1.361,1.588a9.176,9.176,0,0,0,4.975,3.887c-.544.423-1.074.847-1.618,1.285l4.174,1.769c-.635.333-1.255.681-1.89,1.013,4.718,4.219,6.9,10.646,13.006,13.293.983.423,1.951,1.028,2.147,1.966a2.249,2.249,0,0,1,1.437-.968,2.7,2.7,0,0,0,.756,1.951,1.1,1.1,0,0,1,1.346-.665l.681,1.361c-.121-.393.469-.726.938-.635a1.858,1.858,0,0,1,1.043.8,9.391,9.391,0,0,1,1.452,2.979c.938-.6,1.86-1.21,2.8-1.815,1.285.439,2.51,1.134,2.737,2.284.423-.106.091-.726.378-1.028.3-.3.862.015,1.149.318.5.529,1,1.043,1.5,1.573a2.507,2.507,0,0,0,.575-1.149c.469.439.938.892,1.406,1.331.333-.469.65-.922.983-1.391.968,1.331,1.936,2.646,2.9,3.977.348-.514.681-1.028,1.028-1.543.272.439,1.24.484,1.739.741a1.329,1.329,0,0,0,1.588-.2c.272-.393.2-1.059.726-1.164l1.664,1.573c.242-.408.469-.832.711-1.24.484.439.953.892,1.437,1.331.242-.227.484-.469.726-.7.242.151.484.287.726.439a2.135,2.135,0,0,1,1.467-2.1.179.179,0,0,1,.151.015c.892.469,2.344.408,2.979,1.119a3.778,3.778,0,0,0,.756-1.467,2.583,2.583,0,0,1,1.8.544c.257-.348.514-.681.771-1.028.469.287.923.575,1.391.862.151-.454.318-.892.469-1.346.181.423.922.469,1.316.166a1.446,1.446,0,0,0,.5-1.225c.287-.408,1.225-.045,1.043.408s-1.195.242-1.119-.227c.529-3.372,7.894-4.174,11.433-5.777a42.931,42.931,0,0,0,10.5-6.306,17.455,17.455,0,0,0,6.049-9.467c.408.333,1.21.272,1.6.6.257-1.149.514-2.284.771-3.433.529-.015,1.074-.045,1.6-.06a3.191,3.191,0,0,1,.514-1.618,2.036,2.036,0,0,1,1,.983c.151-1,.318-2,.469-3.009.575.333,1.134.665,1.709,1.013a17.5,17.5,0,0,1,3.841-8.514c.318.318.65.62.968.938.151-.938.287-1.89.439-2.828a2.181,2.181,0,0,1,1.6,1.089,6.066,6.066,0,0,1,.544-2.616c.333.318.65.635.983.938.333-8,7.879-15.062,7.108-23.047l1.452,2.359c.2-.635.393-1.27.575-1.905-.3-.045-.227.469.091.454.3-.015.484-.287.6-.529a16.993,16.993,0,0,0,1.6-9.013,5.376,5.376,0,0,0,4.25-2.072,1.641,1.641,0,0,1-1.406-.181c.726-.59,1.467-1.18,2.193-1.769a1.844,1.844,0,0,0-1.5-.106,1.6,1.6,0,0,0,1.588-1.558c.59-.469,1.18-.953,1.769-1.422,0,.318-.665-.015-.5-.287.166-.287.6-.363.862-.59s0-.771-.3-.575a2.1,2.1,0,0,0,.907-1.059.747.747,0,0,0-.8-.892,4.969,4.969,0,0,0,1.875-2.435,4.917,4.917,0,0,0-2.783-.938,8,8,0,0,0,4.2-3.992,2.378,2.378,0,0,1-1.618.076,5.647,5.647,0,0,0,2.193-2.435,1.466,1.466,0,0,1-1.316.408,5.94,5.94,0,0,0,2.692-3.645,5.553,5.553,0,0,1-2.843.756,26.942,26.942,0,0,0,3.357-16.65c-.03-.212-.106-.454-.333-.514s-.393.348-.151.333a3.7,3.7,0,0,0,.983-2.132c-.726.287-1.437.575-2.163.862a17.736,17.736,0,0,0,1.981-3.478c-.484.272-.953.529-1.437.8.439-.726.892-1.452,1.331-2.178-.56.136-1.119.257-1.664.393a10.938,10.938,0,0,1,1-4.008c-.65.439-1.285.877-1.936,1.316a10.184,10.184,0,0,0,1.21-3.357,2.164,2.164,0,0,1-1.422.726l.771-2.631c-.423.923-2.253.711-2.783-.181a2.859,2.859,0,0,1,.333-2.858c1.785-3.176,1.921-6.9,3.372-10.193-1.059.257-2.117.529-3.176.786.711-.8,1.406-1.6,2.117-2.4-.6.257-1.195.529-1.8.786l1.815-3.04a1.119,1.119,0,0,1-1.618-.862c-.015-.681.575-1.24,1.134-1.724,4.31-3.72,9.769-7.456,10.026-12.658a9.511,9.511,0,0,1-2.707.8c.544-.786,1.089-1.573,1.633-2.344-.65.181-1.285.363-1.936.544.378-1.18.771-2.359,1.149-3.539-1.074.56-2.208-.65-2.631-1.664a31.225,31.225,0,0,1-2.132-15.894,40.218,40.218,0,0,0-2.919-20.628c-2.51-5.837-6.367-11.312-7.667-17.437-.363-1.679-.6-3.539-2.072-4.7a36.348,36.348,0,0,0-17.951,6.412c-5.006,3.6-9.089,8.015-13.142,12.4q-6.851,7.418-13.7,14.82a60.015,60.015,0,0,0-6.079,7.319,26.108,26.108,0,0,0-4.371,16.635c.348-.091.076.2-.212.378A47.927,47.927,0,0,0,86.695,54.74c-6.185.2-12.4,1.951-17.074,5.384-1.028-2.964-1.391-5.913-.227-8.832a5.16,5.16,0,0,0-2.3,1.346c.439-1.013.892-2.026,1.331-3.04-.5.151-.983.287-1.482.439.59-4.6-2.767-8.817-5.974-12.552Q55.459,31.02,49.931,24.57a50.928,50.928,0,0,0-11.206-9.376c-4.461-2.964-8.045-6.775-12.34-9.905S16.676-.338,11.035.146C8.162,3.912,4.85,7.935,2.9,12.093S-.02,20.88,1.084,25.265c.711,2.813,2.238,5.429,3.146,8.212a19.351,19.351,0,0,1-.408,13.081c-.8,2.042-1.951,3.977-2.692,6.034C-.489,57.114-.02,61.954.479,66.657a1.232,1.232,0,0,0,.242-1.195c-1.3,3.191-.6,8.272,1.467,11.161C3.534,78.5,5.3,80.146,6.574,82.052a12.271,12.271,0,0,1,.318,13.006c.575-.242,1.134-.5,1.709-.741-.257.665-.514,1.346-.771,2.011.544-.091,1.074-.166,1.618-.257a13.425,13.425,0,0,1-2.9,4.945,6.336,6.336,0,0,0,2.843-.771A11.469,11.469,0,0,1,9.084,102.725Z" transform="translate(0)" fill="#040000"/>
      <path id="Path_1452" data-name="Path 1452" d="M70.68,138.193c3.025-2.178,5.414-5.112,8.076-7.713q-10.163,1.679-20.34,3.342c-3.524.575-6.019-.847-9.255-1.089,1.149,3.025,5.6,5.217,8.318,6.624C62.045,141.731,66.491,141.187,70.68,138.193Z" transform="translate(25.18 66.854)" fill="#39393a"/>
      <path id="Path_1453" data-name="Path 1453" d="M36.43,64.172c2.465,1.27,4.915,2.526,7.38,3.8-.56-.923-1.134-1.845-1.694-2.767,1.1.877,2.208,1.739,3.312,2.616-.363-.575-.711-1.134-1.074-1.709a9.772,9.772,0,0,0,3.04,1.951,7.592,7.592,0,0,1-1.588-4.718c5.989,5.263,9.875,12.537,12.718,19.977,1.316,3.463,2.647,7.879.62,11.3C56.574,81.971,46.29,71.718,36.43,64.172Z" transform="translate(18.658 32.459)" fill="#222"/>
      <path id="Path_1454" data-name="Path 1454" d="M87.247,64.892c-2.465,1.27-4.915,2.526-7.38,3.8.56-.922,1.134-1.845,1.694-2.767-1.1.877-2.208,1.739-3.312,2.616.363-.575.711-1.134,1.074-1.709a9.772,9.772,0,0,1-3.04,1.951,7.592,7.592,0,0,0,1.588-4.718C71.882,69.323,68,76.6,65.153,84.037c-1.316,3.463-2.647,7.879-.62,11.3C67.1,82.691,77.387,72.438,87.247,64.892Z" transform="translate(32.521 32.828)" fill="#222"/>
      <g id="Group_753" data-name="Group 753" transform="translate(39.149 62.059)">
        <path id="Path_1455" data-name="Path 1455" d="M119.576,111.291a14.6,14.6,0,0,1-2.586,4.794,21.737,21.737,0,0,1-3.221,2.767,45.431,45.431,0,0,0-7.743,8.741,6.155,6.155,0,0,1-.151-2.571,11.3,11.3,0,0,0-1.905,2.163,6.042,6.042,0,0,1,.454-4.265c-1.1.59-4.522,1.966-4.1,2.888-4.1-3.085-6.881-7.667-8.62-12.492a74.7,74.7,0,0,1-3.176-15.032,59.5,59.5,0,0,1,.2-10.858c.817-2.767,1.739-5.5,2.783-8.166l.015-.015h-.015a55.063,55.063,0,0,1,10.6-17.588,17.889,17.889,0,0,0-10.616,4.113,12.868,12.868,0,0,0,1.361-5.006,6.68,6.68,0,0,0-3.962,3.312c.2-1.739.408-3.478.6-5.217A6.982,6.982,0,0,0,86.866,62.7a28.654,28.654,0,0,1,5.217-17.225,24.178,24.178,0,0,0-10.389,7.516,1.161,1.161,0,0,0-1.921.877L79.546,50.6a5.6,5.6,0,0,0-1.27,2.238c-.136-1.1-.257-2.208-.393-3.312A8.9,8.9,0,0,0,75.6,52.947l-.5-4.038A5.968,5.968,0,0,0,72.227,53.2a25.168,25.168,0,0,1,.832-12.174,18.032,18.032,0,0,0-7.365,10.843c-.5-1.1-1.013-2.208-1.512-3.312-.408,1.119-.817,2.238-1.21,3.357-.6-1.769-1.21-3.539-1.83-5.308a17.692,17.692,0,0,0-.968,6.578,28.954,28.954,0,0,1-3.932-9.376A28.65,28.65,0,0,0,56.65,63.23c-.953-.8-1.921-1.588-2.873-2.389.907,2.435,1.815,4.885,2.722,7.319a8.215,8.215,0,0,0-3.735-2.223c.877,1.89,1.769,3.766,2.647,5.656-3.251-4.416-7.682-6.533-13.142-7.168,6.866,4.658,11.448,11.9,15.577,19.115l-2.344-2.3c6.457,6.518,7.4,17,4.718,25.785-2.223,7.229-6.5,13.58-11.07,19.66-1.452,1.452-1.905,2.843-3.917,4.764a1.465,1.465,0,0,1-.771.363,1.121,1.121,0,0,1-.318.015c-.045,0-.091-.03-.136-.03a2.57,2.57,0,0,1-1.164-.968c-.771-.983-1.543-1.981-2.329-2.964-.136-.333-.272-.665-.378-1-.015.151-.045.287-.06.439-.076.5-.151.983-.227,1.482a6.049,6.049,0,0,1-1.664-2.45c-.136.59-.272,1.195-.408,1.785-.363-.514-.726-1.043-1.1-1.558a.235.235,0,0,1-.136.227.594.594,0,0,1-.5-.091,21.133,21.133,0,0,1-6.306-4.87,20.379,20.379,0,0,1-3.841-6.624,52.035,52.035,0,0,0,6.276,12.068,24.087,24.087,0,0,0,1.951,2.828c2.284,2.888,5.384,5.9,4.824,9.527.635.257,1.285.514,1.921.786-.454.635-.892,1.285-1.346,1.921.665.2,1.331.408,2,.6-1.074.711-.2,2.344.6,3.357,4.688,5.989,3.735,14.654,6.957,21.55,9.376,20.129,41.255,18.556,52.008.938a38.652,38.652,0,0,0,4.144-10.087c.393-1.437.968-9.391,1.921-9.981-.454.287-.922.575-1.376.847,3.085-6.578,3.07-14.276,6.095-20.87C114.54,122.8,119.576,117.688,119.576,111.291Z" transform="translate(-25.89 -41.03)" fill="#171818"/>
        <path id="Path_1456" data-name="Path 1456" d="M32.96,97.43c.045.06.076.106.121.166C33.081,97.506,33.051,97.43,32.96,97.43Z" transform="translate(-22.268 -12.137)" fill="#171818"/>
      </g>
      <g id="Group_759" data-name="Group 759" transform="translate(49.84 174.129)">
        <g id="Group_754" data-name="Group 754" transform="translate(17.785 2.501)">
          <circle id="Ellipse_583" data-name="Ellipse 583" cx="0.454" cy="0.454" r="0.454" transform="translate(6.73)" fill="#373838"/>
          <circle id="Ellipse_584" data-name="Ellipse 584" cx="0.454" cy="0.454" r="0.454" transform="translate(7.183 4.552)" fill="#373838"/>
          <circle id="Ellipse_585" data-name="Ellipse 585" cx="0.454" cy="0.454" r="0.454" transform="translate(0 10.374)" fill="#373838"/>
          <circle id="Ellipse_586" data-name="Ellipse 586" cx="0.454" cy="0.454" r="0.454" transform="translate(3.206 5.928)" fill="#373838"/>
          <circle id="Ellipse_587" data-name="Ellipse 587" cx="0.454" cy="0.454" r="0.454" transform="translate(2.737 2.026)" fill="#373838"/>
          <circle id="Ellipse_588" data-name="Ellipse 588" cx="0.454" cy="0.454" r="0.454" transform="translate(0.454 4.552)" fill="#373838"/>
          <circle id="Ellipse_589" data-name="Ellipse 589" cx="0.454" cy="0.454" r="0.454" transform="translate(9.013 8.544)" fill="#373838"/>
          <circle id="Ellipse_590" data-name="Ellipse 590" cx="0.454" cy="0.454" r="0.454" transform="translate(4.295 9.467)" fill="#373838"/>
          <circle id="Ellipse_591" data-name="Ellipse 591" cx="0.454" cy="0.454" r="0.454" transform="translate(1.376 15.153)" fill="#373838"/>
          <circle id="Ellipse_592" data-name="Ellipse 592" cx="0.454" cy="0.454" r="0.454" transform="translate(9.936 12.234)" fill="#373838"/>
          <circle id="Ellipse_593" data-name="Ellipse 593" cx="0.454" cy="0.454" r="0.454" transform="translate(6.276 13.747)" fill="#373838"/>
        </g>
        <g id="Group_755" data-name="Group 755" transform="translate(50.873 0.687)">
          <circle id="Ellipse_594" data-name="Ellipse 594" cx="0.454" cy="0.454" r="0.454" transform="translate(3.191 16.408)" fill="#373838"/>
          <circle id="Ellipse_595" data-name="Ellipse 595" cx="0.454" cy="0.454" r="0.454" transform="translate(2.964 10.526)" fill="#373838"/>
          <circle id="Ellipse_596" data-name="Ellipse 596" cx="0.454" cy="0.454" r="0.454" transform="translate(9.013 6.473)" fill="#373838"/>
          <circle id="Ellipse_597" data-name="Ellipse 597" cx="0.454" cy="0.454" r="0.454" transform="translate(6.73 10.465)" fill="#373838"/>
          <circle id="Ellipse_598" data-name="Ellipse 598" cx="0.454" cy="0.454" r="0.454" transform="translate(7.183 14.367)" fill="#373838"/>
          <circle id="Ellipse_599" data-name="Ellipse 599" cx="0.454" cy="0.454" r="0.454" transform="translate(9.482 11.841)" fill="#373838"/>
          <circle id="Ellipse_600" data-name="Ellipse 600" cx="0.454" cy="0.454" r="0.454" transform="translate(0 13.475)" fill="#373838"/>
          <circle id="Ellipse_601" data-name="Ellipse 601" cx="0.454" cy="0.454" r="0.454" transform="translate(4.96 6.019)" fill="#373838"/>
          <circle id="Ellipse_602" data-name="Ellipse 602" cx="0.454" cy="0.454" r="0.454" transform="translate(8.56 1.255)" fill="#373838"/>
          <circle id="Ellipse_603" data-name="Ellipse 603" cx="0.454" cy="0.454" r="0.454" transform="translate(2.964)" fill="#373838"/>
          <circle id="Ellipse_604" data-name="Ellipse 604" cx="0.454" cy="0.454" r="0.454" transform="translate(5.883 2.435)" fill="#373838"/>
        </g>
        <path id="Path_1457" data-name="Path 1457" d="M52.419,117.547c2.828-2.571,7.093-2.526,10.9-2.329,1.845.091,3.675.2,5.52.287,2.934.151,6.185.454,8.181,2.616,6.76,7.319-6.185,20.688-13.883,20.34C54.7,138.083,44.691,124.594,52.419,117.547Z" transform="translate(-24.411 -115.136)" fill="#373838"/>
        <g id="Group_756" data-name="Group 756" transform="translate(0 9.428)">
          <path id="Path_1458" data-name="Path 1458" d="M33.42,128.009s8.862-5.913,18.949-6.639" transform="translate(-32.724 -121.37)" fill="none" stroke="#bfbebe" stroke-linecap="round" stroke-linejoin="round" stroke-miterlimit="10" stroke-width="0.25"/>
          <path id="Path_1459" data-name="Path 1459" d="M32.96,136.233S43.727,125.783,53.6,123.56" transform="translate(-32.96 -120.248)" fill="none" stroke="#bfbebe" stroke-linecap="round" stroke-linejoin="round" stroke-miterlimit="10" stroke-width="0.25"/>
          <path id="Path_1460" data-name="Path 1460" d="M36.92,140.288s5.414-10.707,15.138-14.518" transform="translate(-30.931 -119.116)" fill="none" stroke="#bfbebe" stroke-linecap="round" stroke-linejoin="round" stroke-miterlimit="10" stroke-width="0.25"/>
        </g>
        <g id="Group_757" data-name="Group 757" transform="translate(59.312 9.428)">
          <path id="Path_1461" data-name="Path 1461" d="M92.109,128.009S83.247,122.1,73.16,121.37" transform="translate(-71.678 -121.37)" fill="none" stroke="#bfbebe" stroke-linecap="round" stroke-linejoin="round" stroke-miterlimit="10" stroke-width="0.25"/>
          <path id="Path_1462" data-name="Path 1462" d="M93.143,136.233S82.375,125.783,72.5,123.56" transform="translate(-72.016 -120.248)" fill="none" stroke="#bfbebe" stroke-linecap="round" stroke-linejoin="round" stroke-miterlimit="10" stroke-width="0.25"/>
          <path id="Path_1463" data-name="Path 1463" d="M87.318,140.288S81.9,129.581,72.18,125.77" transform="translate(-72.18 -119.116)" fill="none" stroke="#bfbebe" stroke-linecap="round" stroke-linejoin="round" stroke-miterlimit="10" stroke-width="0.25"/>
        </g>
        <g id="Group_758" data-name="Group 758" transform="translate(27.281 1.607)">
          <path id="Path_1464" data-name="Path 1464" d="M68.12,130.794c0-1.588,1.6-2.873,3.584-2.873a4.056,4.056,0,0,1,2.48.8c2.193-3.342,2.949-7.153.378-9.936-1.724-1.86-4.522-2.117-7.047-2.253-1.588-.091-3.161-.166-4.749-.257-3.282-.181-6.957-.227-9.391,2-3.07,2.813-2.873,6.79-1.059,10.3a4.131,4.131,0,0,1,2.268-.665c1.981,0,3.584,1.285,3.584,2.873a2.877,2.877,0,0,1-2.026,2.571,11.313,11.313,0,0,0,6.457,2.919c2.208.106,4.915-1.119,7.335-3.009A2.78,2.78,0,0,1,68.12,130.794Z" transform="translate(-50.999 -116.199)" fill="#040000"/>
        </g>
      </g>
      <g id="Group_761" data-name="Group 761" transform="translate(36.565 106.474)">
        <path id="Path_1465" data-name="Path 1465" d="M33.631,86.657c0,.529-1.285.333-.877.665-2.072-1.679-8.166-5.414-8.544-8.544-.423-3.539,4.174-3.917,6.427-5.369A21.71,21.71,0,0,1,35.2,70.975a11.694,11.694,0,0,1,8.771.635c3.735,1.8,4.6,4.794,5.883,7.35a65.281,65.281,0,0,0-5.323-4.008c-2.087-1.285-4.4-2.465-6.881-2.4a7.162,7.162,0,0,0-6.82,6.926C30.894,82.514,33.691,87.02,33.631,86.657Z" transform="translate(-24.182 -70.399)" fill="#767777"/>
        <g id="Group_760" data-name="Group 760" transform="translate(5.23 0.847)">
          <path id="Path_1466" data-name="Path 1466" d="M47.421,74.818c.469,1.422,4.008,4.295,2.344,9.18-.892,2.631-2.389,5.248-2.344,8.015a4.741,4.741,0,0,0-3.206-2.51,30.4,30.4,0,0,0-4.234-.62c-5.006-.7-9.512-2.858-12.34-7.682,3.75,3.327,9.149,4.476,14.2,3.8,2.147-.287,4.371-1.074,5.611-2.767a9.831,9.831,0,0,0,1.255-2.783C48.706,79.385,47.33,74.183,47.421,74.818Z" transform="translate(-27.64 -69.011)" fill="#343535"/>
          <path id="Path_1467" data-name="Path 1467" d="M35.955,89.365C31.614,88.23,27.5,83.5,27.713,79.232c.181-3.63,3.448-7.834,8.953-8.242a11.5,11.5,0,0,1,10.722,5.777c1.512,2.45,3.781,6.911.922,9.754C45.195,89.637,39.509,90.3,35.955,89.365Z" transform="translate(-27.607 -70.96)" fill="#040000"/>
          <ellipse id="Ellipse_605" data-name="Ellipse 605" cx="1.588" cy="1.437" rx="1.588" ry="1.437" transform="translate(10.583 4.182) rotate(-2.631)" fill="#fff"/>
          <path id="Path_1468" data-name="Path 1468" d="M47.222,74.852c-.045-.076-.106-.136-.151-.212.756,2.132.953,4.522-.8,6.276-3.115,3.115-8.8,3.766-12.355,2.843a11.764,11.764,0,0,1-6.064-4.234A11.96,11.96,0,0,0,35.8,87.449c3.554.922,9.24.272,12.355-2.843C50.988,81.763,48.735,77.3,47.222,74.852Z" transform="translate(-27.532 -69.074)" fill="url(#linear-gradient)"/>
          <path id="Path_1469" data-name="Path 1469" d="M48.345,82.814c-3.115,3.115-8.8,3.766-12.355,2.843-4.1-1.074-7.955-5.354-8.181-9.437a2.294,2.294,0,0,0-.045.318c-.212,4.28,3.9,9,8.242,10.132,3.554.922,9.24.272,12.355-2.843a4.722,4.722,0,0,0,1.331-3.932A4.618,4.618,0,0,1,48.345,82.814Z" transform="translate(-27.581 -68.265)" fill="#040000"/>
        </g>
      </g>
      <g id="Group_763" data-name="Group 763" transform="translate(111.554 106.474)">
        <path id="Path_1470" data-name="Path 1470" d="M91.407,86.657c0,.529,1.285.333.862.665,1.512-1.754,2.979-2.994,4.492-4.749,1.316-1.527,4.628-2.45,3.932-4.915-.514-1.83-4.824-3.282-6.321-4.25A21.709,21.709,0,0,0,89.8,70.975a11.694,11.694,0,0,0-8.771.635c-3.735,1.8-4.6,4.794-5.883,7.35a65.28,65.28,0,0,1,5.323-4.008c2.087-1.285,4.4-2.465,6.881-2.4a7.162,7.162,0,0,1,6.82,6.926C94.144,82.514,91.331,87.02,91.407,86.657Z" transform="translate(-73.06 -70.399)" fill="#767777"/>
        <g id="Group_762" data-name="Group 762" transform="translate(0 0.847)">
          <path id="Path_1471" data-name="Path 1471" d="M76.554,74.818c-.469,1.422-4.008,4.295-2.344,9.18.892,2.631,2.389,5.248,2.344,8.015A4.741,4.741,0,0,1,79.76,89.5a30.73,30.73,0,0,1,4.234-.62c5.006-.7,9.512-2.858,12.34-7.682-3.75,3.327-9.149,4.476-14.2,3.8-2.147-.287-4.371-1.074-5.611-2.767a9.831,9.831,0,0,1-1.255-2.783C75.268,79.385,76.644,74.183,76.554,74.818Z" transform="translate(-73.768 -69.011)" fill="#343535"/>
          <path id="Path_1472" data-name="Path 1472" d="M87.819,89.365c4.34-1.134,8.454-5.868,8.242-10.132-.181-3.63-3.448-7.834-8.953-8.242a11.5,11.5,0,0,0-10.722,5.777c-1.512,2.45-3.781,6.911-.922,9.754C78.579,89.637,84.265,90.3,87.819,89.365Z" transform="translate(-73.601 -70.96)" fill="#040000"/>
          <ellipse id="Ellipse_606" data-name="Ellipse 606" cx="1.437" cy="1.588" rx="1.437" ry="1.588" transform="translate(8.663 6.932) rotate(-87.369)" fill="#fff"/>
          <path id="Path_1473" data-name="Path 1473" d="M76.448,74.852c.045-.076.106-.136.151-.212-.756,2.132-.953,4.522.8,6.276,3.115,3.115,8.8,3.766,12.355,2.843a11.764,11.764,0,0,0,6.064-4.234,11.96,11.96,0,0,1-7.955,7.924c-3.554.922-9.24.272-12.355-2.843C72.667,81.763,74.935,77.3,76.448,74.852Z" transform="translate(-73.571 -69.074)" fill="url(#linear-gradient-2)"/>
          <path id="Path_1474" data-name="Path 1474" d="M75.424,82.814c3.115,3.115,8.8,3.766,12.355,2.843,4.1-1.074,7.955-5.354,8.181-9.437a2.294,2.294,0,0,1,.045.318c.212,4.28-3.9,9-8.242,10.132-3.554.922-9.24.272-12.355-2.843a4.722,4.722,0,0,1-1.331-3.932A4.618,4.618,0,0,0,75.424,82.814Z" transform="translate(-73.621 -68.265)" fill="#040000"/>
        </g>
      </g>
      <path id="Path_1475" data-name="Path 1475" d="M120.6,72.307c.544.726,1.074,1.452,1.618,2.178,3.206-4.885,9.437-8.6,9.164-14.442-.166-3.6-2.873-6.518-4.053-9.921-1.739-5.066.06-10.813-1.573-15.909-1.27-3.917-4.4-6.941-6.155-10.677-2.178-4.673-2.011-10.042-2.662-15.168-.121-.968-.423-2.1-1.346-2.4a2.58,2.58,0,0,0-2.329.892C107.908,11.5,103.9,17.487,98.9,22.493c-5.369,5.369-11.871,9.558-16.953,15.2-5.1,5.641-8.741,13.459-6.684,20.764,1.134-1.043,2.389-1.527,3.509-2.571a4.588,4.588,0,0,1,.953,3.463c.514-.393,1.028-.786,1.527-1.18A3.081,3.081,0,0,1,82,60.043a3.354,3.354,0,0,1,2.011-1.437c.2.892.393,1.8.59,2.692a45.615,45.615,0,0,1,5.036-4.31,2.838,2.838,0,0,1,1.558-.681,1.875,1.875,0,0,1,1.618,1.482,5.513,5.513,0,0,1-.076,2.329c.242-.681.877-1.316,1.588-1.164s.862,1.406.151,1.512c.7,0,.892.953.862,1.648a2.688,2.688,0,0,1,1.845-.741c.03.439.045.892.076,1.331a32.354,32.354,0,0,0,7.289-3.947,10.571,10.571,0,0,1,1.043,8.484c1.255-1.391,2.662-2.9,3.8-4.386.121,1.149.242,2.3.363,3.433A2.841,2.841,0,0,1,111.22,64.5c.06.62.106,1.255.166,1.875a2.024,2.024,0,0,1,1.527-.726c-.121.786-.227,1.558-.348,2.344a9.747,9.747,0,0,0,2.48-1.966,8.582,8.582,0,0,1-.59,7.319,18.837,18.837,0,0,0,4.673-3.72,12.227,12.227,0,0,1-.862,4.824C118.978,73.094,119.447,73.381,120.6,72.307Z" transform="translate(38.25 3.03)" fill="#262727"/>
      <path id="Path_1476" data-name="Path 1476" d="M54.316,53.975a18.739,18.739,0,0,0-.272-2.435c-.8-4.325-2.888-8.272-5.142-12.053A136.168,136.168,0,0,0,38,23.865c-3.251-4.023-6.866-7.955-11.554-10.147-.151-.076-.318-.136-.469-.2C21.8,10.179,15.738,5.7,13.469,6c-3.72.514-4.779,4.945-4.945,9.437-.076.121-.166.227-.242.348-3.267,5.7,2.238,15.773,1.664,21.989-.393,4.325-2.6,8.333-3.07,12.643C6.361,55,7.828,59.555,9.25,63.941q3.108,9.5,6.216,18.994a13.369,13.369,0,0,1-.015,1.346c.091-.166.181-.333.287-.5.076.242.151.469.227.711.5-.817,1.013-1.633,1.512-2.45a2.659,2.659,0,0,1,.363.907c.333-.7.65-1.391.983-2.087a1.593,1.593,0,0,1,.892,1.24c.2-.62.393-1.24.59-1.875.348.227.711.454,1.059.681A10.429,10.429,0,0,1,22.1,77.96a4.324,4.324,0,0,1,.484,1.119c.2-.348.393-.7.6-1.043a2.207,2.207,0,0,1,.575,1.664c.363-.771.756-1.543,1.164-2.284A2.57,2.57,0,0,1,26.2,76.1c.59-.212,1.406.227,1.3.847a3.855,3.855,0,0,1,.8-2.662c.681-.665,2.147-.439,2.208.5.469-1.769.938-3.554,1.406-5.323A20.3,20.3,0,0,0,33.25,66.92a10.6,10.6,0,0,1,2.662,3.8.63.63,0,0,1,.681-.711c.227.378.439.756.665,1.149a1.045,1.045,0,0,0,.272-.681.764.764,0,0,1,.832.469c1.5-1.21,1.406-3.493,1.195-5.414a12.515,12.515,0,0,1,3.584,2.888c.151-.59.318-1.195.469-1.785.378.242.771.5,1.149.741A.586.586,0,0,1,45.7,67c-.181-.242-.348-.484-.529-.726.983-1.285,2.677-2.147,2.647-3.766.484.877.968,1.769,1.452,2.647a2,2,0,0,1,.348-1.3c.454.378.907.756,1.346,1.134-.56-.62.907-1.5,1.195-.726l.136-1.588a12.272,12.272,0,0,0,.907-1.845,9.469,9.469,0,0,1,2.314,1.24A20.489,20.489,0,0,0,54.316,53.975Z" transform="translate(3.464 3.079)" fill="#262727"/>
      <path id="Path_1477" data-name="Path 1477" d="M109.775,42.725c.423.529.847,1.074,1.255,1.6a31.471,31.471,0,0,1,1.618-5.338c-.862.5-1.739,1-2.6,1.5.106-1.028.227-2.072.333-3.1l-2.722,1.588a12.832,12.832,0,0,1,1.089-3.887l-2.223,1.633a5.824,5.824,0,0,1,1.437-4.491L104.467,34c-.136.06-.287.166-.272.318s.151-.257.106-.408a3.83,3.83,0,0,1,.287-2.556c-.544.272-1.089.544-1.618.817-.045-.318-.091-.62-.121-.938-.3.212-.6.408-.907.62a3,3,0,0,1,.257-1.664c-.65.348-1.3.7-1.951,1.028a8.5,8.5,0,0,0,.318-2.616L99.28,29.8a12.11,12.11,0,0,1,1.5-5.354c-.242.318-.469.65-.711.968a16.9,16.9,0,0,1,3.1-6.73A77.278,77.278,0,0,0,89.919,30.461c-2.42,2.707-4.7,5.716-5.429,9.27.287-.03.242.272.529.242a29.269,29.269,0,0,1,9.8.665,37.281,37.281,0,0,1,3.826,1.18,49.853,49.853,0,0,1,12.9,7C111.439,47.308,109.881,44.3,109.775,42.725Z" transform="translate(43.279 9.58)" fill="#040000"/>
      <path id="Path_1478" data-name="Path 1478" d="M30.568,21.885A14.394,14.394,0,0,0,22.16,17.62a13.512,13.512,0,0,1,3.932,7.319,4.663,4.663,0,0,1-.166,2.767,2.059,2.059,0,0,1-2.268,1.225,6.942,6.942,0,0,1,1.785,2.3c-.484.166-.983.348-1.467.514.454.439.922.862,1.376,1.3-.983.439-.892,1.875-.469,2.843.439.983,1.059,2.072.635,3.055-.907.166-1.83.348-2.737.514a13.556,13.556,0,0,1,4.4,6.805c-.56-.121-1.119-.257-1.679-.378A8.591,8.591,0,0,1,28,49.877a1.94,1.94,0,0,1-1.588-.091,2.1,2.1,0,0,1,1.013,2.057,40.353,40.353,0,0,1,6-3.675,13.519,13.519,0,0,1,4.9-1.8,5.869,5.869,0,0,1,4.854,1.482A60.555,60.555,0,0,0,30.629,21.31C30.462,21.522,30.75,21.688,30.568,21.885Z" transform="translate(11.348 9.037)" fill="#040000"/>
    </g>
  </g>
</svg>
