<svg xmlns="http://www.w3.org/2000/svg" xmlns:xlink="http://www.w3.org/1999/xlink" width="1920" height="309.9" viewBox="0 0 1920 309.9"><defs><linearGradient id="a" x1="0.499" y1="0.078" x2="0.502" y2="0.934" gradientUnits="objectBoundingBox"><stop offset="0" stop-color="#fff"/><stop offset="1" stop-color="#b4b4b5"/></linearGradient></defs><g transform="translate(1286)"><g transform="translate(-1286)"><rect width="377.506" height="49.76" transform="translate(0 75.07)" fill="#aaa9a9"/><rect width="377.076" height="49.76" transform="translate(0.42 206.21)" fill="#aaa9a9"/><rect width="377.506" height="49.76" transform="translate(0 77.97)" fill="#e2e1e1"/><rect width="377.076" height="49.76" transform="translate(0.42 209.11)" fill="#e2e1e1"/><g transform="translate(27.14)"><path d="M54.58,0,27.14,40.62V309.89H82.01V40.62L59.88,0Z" transform="translate(-27.14)" fill="#bfbebd"/><path d="M59.88.01,32.46,40.63V309.89H87.31V40.63L63.5,5.37Z" transform="translate(-27.14)" fill="#fff"/><path d="M59.88.01,32.46,40.63V309.89h7.99a116.063,116.063,0,0,0,3.95-11.8c9.13-33.04,5.71-69.42,4.97-103.02C47.94,131.4,49.85,68.05,63.5,5.37Z" transform="translate(-27.14)" fill="#bfbebd" opacity="0.3"/></g><g transform="translate(116.716 0.01)"><path d="M156.17.01,128.73,40.63V309.9H183.6V40.63L161.47.01Z" transform="translate(-128.73 -0.01)" fill="#bfbebd"/><path d="M161.47.01,134.05,40.63V309.9H188.9V40.63L165.09,5.38Z" transform="translate(-128.73 -0.01)" fill="#fff"/><path d="M161.47.01,134.05,40.63V309.9h7.99a115.238,115.238,0,0,0,3.95-11.81c9.13-33.04,5.71-69.42,4.97-103.01-1.43-63.68.48-127.02,14.13-189.7Z" transform="translate(-128.73 -0.01)" fill="#bfbebd" opacity="0.3"/></g><g transform="translate(208.825 0.01)"><path d="M257.76.01,230.32,40.63V309.9h54.87V40.63L263.06.01Z" transform="translate(-230.32 -0.01)" fill="#bfbebd"/><path d="M263.06.02,235.64,40.64V309.9h54.85V40.64L266.68,5.38Z" transform="translate(-230.32 -0.01)" fill="#fff"/><path d="M263.06.02,235.64,40.64V309.9h7.99a115.241,115.241,0,0,0,3.95-11.8c9.13-33.04,5.71-69.42,4.97-103.01-1.43-63.67.48-127.03,14.13-189.7Z" transform="translate(-230.32 -0.01)" fill="#bfbebd" opacity="0.3"/></g><g transform="translate(299.246 0.01)"><path d="M359.35.01,331.91,40.64V309.9h54.87V40.64L364.66.01Z" transform="translate(-331.91 -0.01)" fill="#bfbebd"/><path d="M364.66.02,337.23,40.64V309.9h54.85V40.64L368.27,5.39Z" transform="translate(-331.91 -0.01)" fill="#fff"/><path d="M364.66.02,337.24,40.64V309.9h7.99a116.064,116.064,0,0,0,3.95-11.8c9.13-33.05,5.71-69.42,4.97-103.02-1.43-63.67.48-127.02,14.12-189.7Z" transform="translate(-331.91 -0.01)" fill="#bfbebd" opacity="0.3"/></g><path d="M360.857,40.64,338.943,5.39,335.648.07l-.028-.06h-4.887L305.479,40.63V75.06H267.357V40.64L245.443,5.38,242.148.07l-.028-.06h-4.887L211.979,40.64V75.08H173.857V40.63L151.943,5.38l-3.3-5.33-.018-.04h-4.887L118.479,40.63V75.07H80.357V40.63L58.443,5.37,55.139.04,55.111,0H50.224L24.979,40.62V75.07H0v52.66H24.979v78.48H.387v52.65H24.979v51.02H80.357V258.86h38.122v51.03h55.378V258.86h38.122v51.03h55.378V258.86h38.122V309.9h55.378V258.86h16.649V206.21H360.857V127.73h16.649V75.07H360.857V40.64ZM118.479,206.21H80.357V127.73h38.122Zm93.5,0H173.857V127.73h38.122v78.48Zm93.5,0H267.357V127.73h38.122v78.48Z" opacity="0.3" fill="url(#a)"/></g><g transform="translate(-908.494)"><rect width="385.623" height="49.76" transform="translate(0 75.07)" fill="#aaa9a9"/><rect width="385.193" height="49.76" transform="translate(0.42 206.21)" fill="#aaa9a9"/><rect width="385.623" height="49.76" transform="translate(0 77.97)" fill="#e2e1e1"/><rect width="385.193" height="49.76" transform="translate(0.42 209.11)" fill="#e2e1e1"/><g transform="translate(27.14)"><path d="M54.58,0,27.14,40.62V309.89H82.01V40.62L59.88,0Z" transform="translate(-27.14)" fill="#bfbebd"/><path d="M59.88.01,32.46,40.63V309.89H87.31V40.63L63.5,5.37Z" transform="translate(-27.14)" fill="#fff"/><path d="M59.88.01,32.46,40.63V309.89h7.99a116.063,116.063,0,0,0,3.95-11.8c9.13-33.04,5.71-69.42,4.97-103.02C47.94,131.4,49.85,68.05,63.5,5.37Z" transform="translate(-27.14)" fill="#bfbebd" opacity="0.3"/></g><g transform="translate(119.702 0.01)"><path d="M156.17.01,128.73,40.63V309.9H183.6V40.63L161.47.01Z" transform="translate(-128.73 -0.01)" fill="#bfbebd"/><path d="M161.47.01,134.05,40.63V309.9H188.9V40.63L165.09,5.38Z" transform="translate(-128.73 -0.01)" fill="#fff"/><path d="M161.47.01,134.05,40.63V309.9h7.99a115.238,115.238,0,0,0,3.95-11.81c9.13-33.04,5.71-69.42,4.97-103.01-1.43-63.68.48-127.02,14.13-189.7Z" transform="translate(-128.73 -0.01)" fill="#bfbebd" opacity="0.3"/></g><g transform="translate(214.167 0.01)"><path d="M257.76.01,230.32,40.63V309.9h54.87V40.63L263.06.01Z" transform="translate(-230.32 -0.01)" fill="#bfbebd"/><path d="M263.06.02,235.64,40.64V309.9h54.85V40.64L266.68,5.38Z" transform="translate(-230.32 -0.01)" fill="#fff"/><path d="M263.06.02,235.64,40.64V309.9h7.99a115.241,115.241,0,0,0,3.95-11.8c9.13-33.04,5.71-69.42,4.97-103.01-1.43-63.67.48-127.03,14.13-189.7Z" transform="translate(-230.32 -0.01)" fill="#bfbebd" opacity="0.3"/></g><g transform="translate(307.363 0.01)"><path d="M359.35.01,331.91,40.64V309.9h54.87V40.64L364.66.01Z" transform="translate(-331.91 -0.01)" fill="#bfbebd"/><path d="M364.66.02,337.23,40.64V309.9h54.85V40.64L368.27,5.39Z" transform="translate(-331.91 -0.01)" fill="#fff"/><path d="M364.66.02,337.24,40.64V309.9h7.99a116.064,116.064,0,0,0,3.95-11.8c9.13-33.05,5.71-69.42,4.97-103.02-1.43-63.67.48-127.02,14.12-189.7Z" transform="translate(-331.91 -0.01)" fill="#bfbebd" opacity="0.3"/></g><path d="M368.616,40.64,346.231,5.39,342.865.07l-.028-.06h-4.992l-25.8,40.62V75.06H273.106V40.64L250.721,5.38,247.355.07l-.028-.06h-4.992l-25.8,40.63V75.08H177.6V40.63L155.21,5.38,151.835.05l-.019-.04h-4.992l-25.8,40.62V75.07H82.085V40.63L59.7,5.37,56.325.04,56.3,0H51.3L25.516,40.62V75.07H0v52.66H25.516v78.48H.395v52.65H25.516v51.02H82.085V258.86h38.941v51.03H177.6V258.86h38.941v51.03h56.569V258.86h38.941V309.9h56.569V258.86h17.007V206.21H368.616V127.73h17.007V75.07H368.616V40.64ZM121.026,206.21H82.085V127.73h38.941Zm95.51,0H177.6V127.73h38.941v78.48Zm95.51,0H273.106V127.73h38.941v78.48Z" opacity="0.3" fill="url(#a)"/></g><g transform="translate(-522.87)"><rect width="385.623" height="49.76" transform="translate(0 75.07)" fill="#aaa9a9"/><rect width="385.193" height="49.76" transform="translate(0.42 206.21)" fill="#aaa9a9"/><rect width="385.623" height="49.76" transform="translate(0 77.97)" fill="#e2e1e1"/><rect width="385.193" height="49.76" transform="translate(0.42 209.11)" fill="#e2e1e1"/><g transform="translate(27.14)"><path d="M54.58,0,27.14,40.62V309.89H82.01V40.62L59.88,0Z" transform="translate(-27.14)" fill="#bfbebd"/><path d="M59.88.01,32.46,40.63V309.89H87.31V40.63L63.5,5.37Z" transform="translate(-27.14)" fill="#fff"/><path d="M59.88.01,32.46,40.63V309.89h7.99a116.063,116.063,0,0,0,3.95-11.8c9.13-33.04,5.71-69.42,4.97-103.02C47.94,131.4,49.85,68.05,63.5,5.37Z" transform="translate(-27.14)" fill="#bfbebd" opacity="0.3"/></g><g transform="translate(119.702 0.01)"><path d="M156.17.01,128.73,40.63V309.9H183.6V40.63L161.47.01Z" transform="translate(-128.73 -0.01)" fill="#bfbebd"/><path d="M161.47.01,134.05,40.63V309.9H188.9V40.63L165.09,5.38Z" transform="translate(-128.73 -0.01)" fill="#fff"/><path d="M161.47.01,134.05,40.63V309.9h7.99a115.238,115.238,0,0,0,3.95-11.81c9.13-33.04,5.71-69.42,4.97-103.01-1.43-63.68.48-127.02,14.13-189.7Z" transform="translate(-128.73 -0.01)" fill="#bfbebd" opacity="0.3"/></g><g transform="translate(214.167 0.01)"><path d="M257.76.01,230.32,40.63V309.9h54.87V40.63L263.06.01Z" transform="translate(-230.32 -0.01)" fill="#bfbebd"/><path d="M263.06.02,235.64,40.64V309.9h54.85V40.64L266.68,5.38Z" transform="translate(-230.32 -0.01)" fill="#fff"/><path d="M263.06.02,235.64,40.64V309.9h7.99a115.241,115.241,0,0,0,3.95-11.8c9.13-33.04,5.71-69.42,4.97-103.01-1.43-63.67.48-127.03,14.13-189.7Z" transform="translate(-230.32 -0.01)" fill="#bfbebd" opacity="0.3"/></g><g transform="translate(307.363 0.01)"><path d="M359.35.01,331.91,40.64V309.9h54.87V40.64L364.66.01Z" transform="translate(-331.91 -0.01)" fill="#bfbebd"/><path d="M364.66.02,337.23,40.64V309.9h54.85V40.64L368.27,5.39Z" transform="translate(-331.91 -0.01)" fill="#fff"/><path d="M364.66.02,337.24,40.64V309.9h7.99a116.064,116.064,0,0,0,3.95-11.8c9.13-33.05,5.71-69.42,4.97-103.02-1.43-63.67.48-127.02,14.12-189.7Z" transform="translate(-331.91 -0.01)" fill="#bfbebd" opacity="0.3"/></g><path d="M368.616,40.64,346.231,5.39,342.865.07l-.028-.06h-4.992l-25.8,40.62V75.06H273.106V40.64L250.721,5.38,247.355.07l-.028-.06h-4.992l-25.8,40.63V75.08H177.6V40.63L155.21,5.38,151.835.05l-.019-.04h-4.992l-25.8,40.62V75.07H82.085V40.63L59.7,5.37,56.325.04,56.3,0H51.3L25.516,40.62V75.07H0v52.66H25.516v78.48H.395v52.65H25.516v51.02H82.085V258.86h38.941v51.03H177.6V258.86h38.941v51.03h56.569V258.86h38.941V309.9h56.569V258.86h17.007V206.21H368.616V127.73h17.007V75.07H368.616V40.64ZM121.026,206.21H82.085V127.73h38.941Zm95.51,0H177.6V127.73h38.941v78.48Zm95.51,0H273.106V127.73h38.941v78.48Z" opacity="0.3" fill="url(#a)"/></g><g transform="translate(-137.247)"><rect width="385.623" height="49.76" transform="translate(0 75.07)" fill="#aaa9a9"/><rect width="385.193" height="49.76" transform="translate(0.42 206.21)" fill="#aaa9a9"/><rect width="385.623" height="49.76" transform="translate(0 77.97)" fill="#e2e1e1"/><rect width="385.193" height="49.76" transform="translate(0.42 209.11)" fill="#e2e1e1"/><g transform="translate(27.14)"><path d="M54.58,0,27.14,40.62V309.89H82.01V40.62L59.88,0Z" transform="translate(-27.14)" fill="#bfbebd"/><path d="M59.88.01,32.46,40.63V309.89H87.31V40.63L63.5,5.37Z" transform="translate(-27.14)" fill="#fff"/><path d="M59.88.01,32.46,40.63V309.89h7.99a116.063,116.063,0,0,0,3.95-11.8c9.13-33.04,5.71-69.42,4.97-103.02C47.94,131.4,49.85,68.05,63.5,5.37Z" transform="translate(-27.14)" fill="#bfbebd" opacity="0.3"/></g><g transform="translate(119.702 0.01)"><path d="M156.17.01,128.73,40.63V309.9H183.6V40.63L161.47.01Z" transform="translate(-128.73 -0.01)" fill="#bfbebd"/><path d="M161.47.01,134.05,40.63V309.9H188.9V40.63L165.09,5.38Z" transform="translate(-128.73 -0.01)" fill="#fff"/><path d="M161.47.01,134.05,40.63V309.9h7.99a115.238,115.238,0,0,0,3.95-11.81c9.13-33.04,5.71-69.42,4.97-103.01-1.43-63.68.48-127.02,14.13-189.7Z" transform="translate(-128.73 -0.01)" fill="#bfbebd" opacity="0.3"/></g><g transform="translate(214.167 0.01)"><path d="M257.76.01,230.32,40.63V309.9h54.87V40.63L263.06.01Z" transform="translate(-230.32 -0.01)" fill="#bfbebd"/><path d="M263.06.02,235.64,40.64V309.9h54.85V40.64L266.68,5.38Z" transform="translate(-230.32 -0.01)" fill="#fff"/><path d="M263.06.02,235.64,40.64V309.9h7.99a115.241,115.241,0,0,0,3.95-11.8c9.13-33.04,5.71-69.42,4.97-103.01-1.43-63.67.48-127.03,14.13-189.7Z" transform="translate(-230.32 -0.01)" fill="#bfbebd" opacity="0.3"/></g><g transform="translate(307.363 0.01)"><path d="M359.35.01,331.91,40.64V309.9h54.87V40.64L364.66.01Z" transform="translate(-331.91 -0.01)" fill="#bfbebd"/><path d="M364.66.02,337.23,40.64V309.9h54.85V40.64L368.27,5.39Z" transform="translate(-331.91 -0.01)" fill="#fff"/><path d="M364.66.02,337.24,40.64V309.9h7.99a116.064,116.064,0,0,0,3.95-11.8c9.13-33.05,5.71-69.42,4.97-103.02-1.43-63.67.48-127.02,14.12-189.7Z" transform="translate(-331.91 -0.01)" fill="#bfbebd" opacity="0.3"/></g><path d="M368.616,40.64,346.231,5.39,342.865.07l-.028-.06h-4.992l-25.8,40.62V75.06H273.106V40.64L250.721,5.38,247.355.07l-.028-.06h-4.992l-25.8,40.63V75.08H177.6V40.63L155.21,5.38,151.835.05l-.019-.04h-4.992l-25.8,40.62V75.07H82.085V40.63L59.7,5.37,56.325.04,56.3,0H51.3L25.516,40.62V75.07H0v52.66H25.516v78.48H.395v52.65H25.516v51.02H82.085V258.86h38.941v51.03H177.6V258.86h38.941v51.03h56.569V258.86h38.941V309.9h56.569V258.86h17.007V206.21H368.616V127.73h17.007V75.07H368.616V40.64ZM121.026,206.21H82.085V127.73h38.941Zm95.51,0H177.6V127.73h38.941v78.48Zm95.51,0H273.106V127.73h38.941v78.48Z" opacity="0.3" fill="url(#a)"/></g><g transform="translate(248.377)"><rect width="385.623" height="49.76" transform="translate(0 75.07)" fill="#aaa9a9"/><rect width="385.193" height="49.76" transform="translate(0.42 206.21)" fill="#aaa9a9"/><rect width="385.623" height="49.76" transform="translate(0 77.97)" fill="#e2e1e1"/><rect width="385.193" height="49.76" transform="translate(0.42 209.11)" fill="#e2e1e1"/><g transform="translate(27.14)"><path d="M54.58,0,27.14,40.62V309.89H82.01V40.62L59.88,0Z" transform="translate(-27.14)" fill="#bfbebd"/><path d="M59.88.01,32.46,40.63V309.89H87.31V40.63L63.5,5.37Z" transform="translate(-27.14)" fill="#fff"/><path d="M59.88.01,32.46,40.63V309.89h7.99a116.063,116.063,0,0,0,3.95-11.8c9.13-33.04,5.71-69.42,4.97-103.02C47.94,131.4,49.85,68.05,63.5,5.37Z" transform="translate(-27.14)" fill="#bfbebd" opacity="0.3"/></g><g transform="translate(119.702 0.01)"><path d="M156.17.01,128.73,40.63V309.9H183.6V40.63L161.47.01Z" transform="translate(-128.73 -0.01)" fill="#bfbebd"/><path d="M161.47.01,134.05,40.63V309.9H188.9V40.63L165.09,5.38Z" transform="translate(-128.73 -0.01)" fill="#fff"/><path d="M161.47.01,134.05,40.63V309.9h7.99a115.238,115.238,0,0,0,3.95-11.81c9.13-33.04,5.71-69.42,4.97-103.01-1.43-63.68.48-127.02,14.13-189.7Z" transform="translate(-128.73 -0.01)" fill="#bfbebd" opacity="0.3"/></g><g transform="translate(214.167 0.01)"><path d="M257.76.01,230.32,40.63V309.9h54.87V40.63L263.06.01Z" transform="translate(-230.32 -0.01)" fill="#bfbebd"/><path d="M263.06.02,235.64,40.64V309.9h54.85V40.64L266.68,5.38Z" transform="translate(-230.32 -0.01)" fill="#fff"/><path d="M263.06.02,235.64,40.64V309.9h7.99a115.241,115.241,0,0,0,3.95-11.8c9.13-33.04,5.71-69.42,4.97-103.01-1.43-63.67.48-127.03,14.13-189.7Z" transform="translate(-230.32 -0.01)" fill="#bfbebd" opacity="0.3"/></g><g transform="translate(307.363 0.01)"><path d="M359.35.01,331.91,40.64V309.9h54.87V40.64L364.66.01Z" transform="translate(-331.91 -0.01)" fill="#bfbebd"/><path d="M364.66.02,337.23,40.64V309.9h54.85V40.64L368.27,5.39Z" transform="translate(-331.91 -0.01)" fill="#fff"/><path d="M364.66.02,337.24,40.64V309.9h7.99a116.064,116.064,0,0,0,3.95-11.8c9.13-33.05,5.71-69.42,4.97-103.02-1.43-63.67.48-127.02,14.12-189.7Z" transform="translate(-331.91 -0.01)" fill="#bfbebd" opacity="0.3"/></g><path d="M368.616,40.64,346.231,5.39,342.865.07l-.028-.06h-4.992l-25.8,40.62V75.06H273.106V40.64L250.721,5.38,247.355.07l-.028-.06h-4.992l-25.8,40.63V75.08H177.6V40.63L155.21,5.38,151.835.05l-.019-.04h-4.992l-25.8,40.62V75.07H82.085V40.63L59.7,5.37,56.325.04,56.3,0H51.3L25.516,40.62V75.07H0v52.66H25.516v78.48H.395v52.65H25.516v51.02H82.085V258.86h38.941v51.03H177.6V258.86h38.941v51.03h56.569V258.86h38.941V309.9h56.569V258.86h17.007V206.21H368.616V127.73h17.007V75.07H368.616V40.64ZM121.026,206.21H82.085V127.73h38.941Zm95.51,0H177.6V127.73h38.941v78.48Zm95.51,0H273.106V127.73h38.941v78.48Z" opacity="0.3" fill="url(#a)"/></g></g></svg>