<svg xmlns="http://www.w3.org/2000/svg" width="115" height="114" viewBox="0 0 115 114">
  <g id="Group_651" data-name="Group 651" transform="translate(-375 -2520.5)">
    <ellipse id="Ellipse_473" data-name="Ellipse 473" cx="57.5" cy="57" rx="57.5" ry="57" transform="translate(375 2520.5)" fill="#f08300"/>
    <g id="Element_1_" transform="translate(402.005 2544.844)">
      <path id="Path_1190" data-name="Path 1190" d="M54.522,32.6a5.591,5.591,0,0,0-1.741,10.9c-.142,4.12-1.082,10.364-5.067,14.474-2.732,2.82-6.579,4.23-11.457,4.16-4.787-.058-8.434-1.607-10.845-4.6-4.579-5.69-3.843-15.191-3.341-18.9a4.224,4.224,0,0,0,2.918-2.878,19.8,19.8,0,0,0,10.933-7.884c4.674-6.455,6.2-14.6,4.933-18.452-2.091-6.357-6.765-7.836-10.168-8.007A3.43,3.43,0,0,0,27.921-.006h-1.49a3.432,3.432,0,0,0,0,6.863h1.49a3.431,3.431,0,0,0,3.118-2.026c2.313.244,5.173,1.457,6.557,5.665.871,2.645-.4,9.771-4.452,15.366A16.632,16.632,0,0,1,24.5,32.326a4.214,4.214,0,0,0-3.541-1.953h-.641a4.209,4.209,0,0,0-3.541,1.953,16.637,16.637,0,0,1-8.641-6.466c-4.051-5.6-5.322-12.721-4.452-15.366,1.384-4.208,4.244-5.421,6.557-5.665a3.438,3.438,0,0,0,3.118,2.026h1.49a3.432,3.432,0,0,0,0-6.863h-1.49A3.425,3.425,0,0,0,10.6,1.411C7.192,1.586,2.518,3.065.427,9.422-.837,13.269.685,21.415,5.36,27.87a19.8,19.8,0,0,0,10.933,7.884,4.23,4.23,0,0,0,2.335,2.681c-.576,4.353-1.224,14.6,4.1,21.232,3.086,3.84,7.621,5.822,13.487,5.894h.342c5.69,0,10.27-1.749,13.618-5.2,4.783-4.936,5.876-12.179,6.033-16.845A5.588,5.588,0,0,0,54.522,32.6Zm0,7.752a2.16,2.16,0,1,1,2.16-2.16A2.163,2.163,0,0,1,54.522,40.351Z" transform="translate(-0.001 0.01)" fill="#fff"/>
    </g>
  </g>
</svg>
