<svg id="Group_681" data-name="Group 681" xmlns="http://www.w3.org/2000/svg" width="118.678" height="76.859" viewBox="0 0 118.678 76.859">
  <path id="Path_1257" data-name="Path 1257" d="M20.827,53.191H72.8c.581,0,.794-.391.462-.877L54.042,24.087a.674.674,0,0,0-1.2,0L42.453,39.338a.674.674,0,0,1-1.2,0l-5.427-7.975a.674.674,0,0,0-1.2,0L20.364,52.314C20.033,52.788,20.246,53.191,20.827,53.191Z" transform="translate(3.738 4.389)" fill="#0076c1"/>
  <path id="Path_1258" data-name="Path 1258" d="M26.608,29.816a6.778,6.778,0,1,0-6.778-6.778A6.767,6.767,0,0,0,26.608,29.816Z" transform="translate(3.669 3.008)" fill="#0076c1"/>
  <path id="Path_1259" data-name="Path 1259" d="M9.48,67.379V9.48H91.648v3.839a19.041,19.041,0,0,1,9.48-2.512V9.48A9.508,9.508,0,0,0,91.648,0H9.48A9.508,9.508,0,0,0,0,9.48v57.9a9.508,9.508,0,0,0,9.48,9.48H88.449a23,23,0,0,1-4.835-9.48Z" fill="#009fe5"/>
  <path id="Path_1260" data-name="Path 1260" d="M102.276,22.672a2.377,2.377,0,0,0-2.37,2.37V57.95c0,10.049-6.624,11.127-9.468,11.127-8.888,0-9.847-7.785-9.847-11.127v-30.7c0-6.115,3.674-7.406,6.766-7.406,3.294,0,5.771,3.188,5.771,7.406V50.413c0,1.623-.273,4.349-2.086,4.349-.77,0-2.382,0-2.382-4.349V31.026a2.37,2.37,0,0,0-4.74,0V50.413c0,8.2,4.989,9.089,7.122,9.089,3.294,0,6.826-2.394,6.826-9.089V27.246c0-6.814-4.622-12.146-10.511-12.146-6.992,0-11.506,4.764-11.506,12.146v30.7c0,7.323,3.816,15.867,14.587,15.867,10.487,0,14.208-8.544,14.208-15.867V25.042A2.362,2.362,0,0,0,102.276,22.672Z" transform="translate(14.033 2.794)" fill="#009fe5"/>
</svg>
