<svg xmlns="http://www.w3.org/2000/svg" width="115" height="115.09" viewBox="0 0 115 115.09">
  <g id="Group_671" data-name="Group 671" transform="translate(-0.086 -0.086)">
    <g id="Medicine_x5F_129_1_" transform="translate(0.086 0.563)">
      <circle id="Ellipse_475" data-name="Ellipse 475" cx="57.5" cy="57.5" r="57.5" transform="translate(0 -0.477)" fill="#267b8a"/>
      <path id="Path_1238" data-name="Path 1238" d="M105.773,47.568c0-1.867-.1-3.733-.278-5.551L85.143,25.808l-2.751-.295L72.159,15.28l-7.3,15.44-23.528-1.8-11.15-11.15L13.87,75.419l29.177,29.193c1.785.164,3.586.262,5.42.262A57.306,57.306,0,0,0,105.773,47.568Z" transform="translate(8.84 9.738)" fill="#0d6468"/>
      <g id="Group_672" data-name="Group 672" transform="translate(20.467 25.018)">
        <rect id="Rectangle_132" data-name="Rectangle 132" width="68.604" height="39.885" transform="translate(2.243 19.173)" fill="#fff"/>
        <path id="Path_1239" data-name="Path 1239" d="M83.15,20.42H15.529A3.033,3.033,0,0,0,12.5,23.449V67.3a5.689,5.689,0,0,0,5.665,6.025H80.514a5.622,5.622,0,0,0,5.665-5.665V23.449A3.022,3.022,0,0,0,83.15,20.42ZM80.138,67.264h-61.6V35.516h61.6V67.264Z" transform="translate(-12.5 -12.004)" fill="#decba0"/>
        <rect id="Rectangle_133" data-name="Rectangle 133" width="7.941" height="7.941" transform="translate(32.877 25.87)" fill="#666"/>
        <path id="Path_1240" data-name="Path 1240" d="M46.331,31.08H38.39v7.941h7.941Zm-1.064,6.877H39.454V32.128h5.812Z" transform="translate(4 -5.21)" fill="#666"/>
        <path id="Path_1241" data-name="Path 1241" d="M52.141,31.08H44.2v7.941h7.941Zm-1.048,6.877H45.281V32.128h5.812Z" transform="translate(7.703 -5.21)" fill="#664e29"/>
        <rect id="Rectangle_134" data-name="Rectangle 134" width="7.941" height="7.941" transform="translate(13.835 35.383)" fill="#664e29"/>
        <rect id="Rectangle_135" data-name="Rectangle 135" width="7.941" height="7.941" transform="translate(23.348 35.383)" fill="#664e29"/>
        <rect id="Rectangle_136" data-name="Rectangle 136" width="7.941" height="7.941" transform="translate(32.877 35.383)" fill="#664e29"/>
        <path id="Path_1242" data-name="Path 1242" d="M46.331,36.89H38.39v7.941h7.941Zm-1.064,6.877H39.454V37.954h5.812Z" transform="translate(4 -1.507)" fill="#664e29"/>
        <path id="Path_1243" data-name="Path 1243" d="M52.141,36.89H44.2v7.941h7.941Zm-1.048,6.877H45.281V37.954h5.812Z" transform="translate(7.703 -1.507)" fill="#666"/>
        <rect id="Rectangle_137" data-name="Rectangle 137" width="7.941" height="7.941" transform="translate(13.835 44.912)" fill="#666"/>
        <rect id="Rectangle_138" data-name="Rectangle 138" width="7.941" height="7.941" transform="translate(23.348 44.912)" fill="#666"/>
        <rect id="Rectangle_139" data-name="Rectangle 139" width="7.941" height="7.941" transform="translate(32.877 44.912)" fill="#666"/>
        <path id="Path_1244" data-name="Path 1244" d="M46.331,42.71H38.39v7.941h7.941Zm-1.064,6.877H39.454V43.774h5.812Z" transform="translate(4 2.202)" fill="#666"/>
        <path id="Path_1245" data-name="Path 1245" d="M18.98,26.622a4.912,4.912,0,1,1,4.912,4.912A4.905,4.905,0,0,1,18.98,26.622Z" transform="translate(-8.37 -11.182)" fill="#664e29"/>
        <path id="Path_1246" data-name="Path 1246" d="M23.169,32.357c1.67,0,3.013-.819,3.013-2.489v-12.1c0-1.67-1.359-2.489-3.013-2.489-1.67,0-3.029.819-3.029,2.489V29.852C20.14,31.522,21.5,32.357,23.169,32.357Z" transform="translate(-7.631 -15.28)" fill="#fff"/>
        <path id="Path_1247" data-name="Path 1247" d="M45.02,26.622a4.912,4.912,0,1,1,4.912,4.912A4.905,4.905,0,0,1,45.02,26.622Z" transform="translate(8.226 -11.182)" fill="#664e29"/>
        <path id="Path_1248" data-name="Path 1248" d="M49.2,32.357c1.67,0,3.013-.819,3.013-2.489v-12.1c0-1.67-1.359-2.489-3.013-2.489-1.67,0-3.029.819-3.029,2.489V29.852C46.17,31.522,47.529,32.357,49.2,32.357Z" transform="translate(8.959 -15.28)" fill="#fff"/>
      </g>
    </g>
  </g>
</svg>
