<svg xmlns="http://www.w3.org/2000/svg" width="115" height="114" viewBox="0 0 115 114">
  <g id="Group_651" data-name="Group 651" transform="translate(-375 -2520.5)">
    <ellipse id="Ellipse_473" data-name="Ellipse 473" cx="57.5" cy="57" rx="57.5" ry="57" transform="translate(375 2520.5)" fill="#f08300"/>
    <g id="Group_657" data-name="Group 657" transform="translate(395 2557.5)">
      <g id="Group_656" data-name="Group 656">
        <path id="Path_1196" data-name="Path 1196" d="M49.25,28.34,41.37,22.3l7.89-6.04a2.651,2.651,0,0,0,.54-.57H40.85l-4.05,3.1-4.05-3.1H23.8a2.9,2.9,0,0,0,.54.57l7.89,6.04-7.89,6.04a2.782,2.782,0,0,0,3.38,4.42L36.8,25.8l9.08,6.96a2.779,2.779,0,1,0,3.37-4.42Z" fill="#fff"/>
        <g id="Group_654" data-name="Group 654">
          <path id="Path_1197" data-name="Path 1197" d="M52.04,27.45a6.73,6.73,0,1,0,6.73,6.73A6.726,6.726,0,0,0,52.04,27.45Zm0,9.67a2.94,2.94,0,1,1,2.94-2.94A2.945,2.945,0,0,1,52.04,37.12Z" fill="#fff"/>
        </g>
        <g id="Group_655" data-name="Group 655">
          <path id="Path_1198" data-name="Path 1198" d="M21.47,27.45a6.73,6.73,0,1,0,6.73,6.73A6.732,6.732,0,0,0,21.47,27.45Zm0,9.67a2.94,2.94,0,1,1,2.94-2.94A2.945,2.945,0,0,1,21.47,37.12Z" fill="#fff"/>
        </g>
      </g>
      <path id="Path_1199" data-name="Path 1199" d="M45.27,15.56H29.71A7.78,7.78,0,1,1,29.71,0H45.27a7.78,7.78,0,0,1,0,15.56ZM29.71,3.42a4.365,4.365,0,1,0,0,8.73H45.27a4.365,4.365,0,1,0,0-8.73H29.71Z" fill="#fff"/>
      <path id="Path_1200" data-name="Path 1200" d="M74.4,8.53a5.582,5.582,0,0,0-5.58-5.58h-7.4a5.571,5.571,0,0,0-5.56,5.38H3.93a3.925,3.925,0,1,0,0,7.85H70.74a3.931,3.931,0,0,0,3.93-3.93C74.67,11.52,74.4,9.13,74.4,8.53Z" fill="#fff"/>
    </g>
  </g>
</svg>
