<svg xmlns="http://www.w3.org/2000/svg" width="115.207" height="126.349" viewBox="0 0 115.207 126.349">
  <g id="Group_628" data-name="Group 628" transform="translate(-542.5 -1341.5)">
    <path id="Path_1161" data-name="Path 1161" d="M131.207,58.891v44.357a16.855,16.855,0,0,1-2.312,8.409,16.272,16.272,0,0,1-5.465,5.886L83.908,140.036a32.282,32.282,0,0,1-3.994,1.682,16,16,0,0,1-4.415.631,14.545,14.545,0,0,1-4.2-.631,28.129,28.129,0,0,1-3.784-1.471c-3.364-1.892-39.1-22.073-39.1-22.494a16.009,16.009,0,0,1-6.306-6.1,19.133,19.133,0,0,1-2.1-8.409V58.891a19.136,19.136,0,0,1,2.1-8.409,18.283,18.283,0,0,1,5.676-5.676l.63-.42L67.3,22.1a22.762,22.762,0,0,1,3.994-1.682A28.536,28.536,0,0,1,75.5,20a31.3,31.3,0,0,1,4.415.42,18.2,18.2,0,0,1,3.574,1.471C87.061,23.784,122.8,43.965,122.8,44.385a16.959,16.959,0,0,1,8.409,14.505Z" transform="translate(524.5 1323.5)" fill="#7c7be9" stroke="#adacf1" stroke-miterlimit="10" stroke-width="4"/>
    <g id="Group_635" data-name="Group 635" transform="translate(567.039 1382.366)">
      <g id="Group_630" data-name="Group 630" transform="translate(0.91 0.91)">
        <path id="Path_1164" data-name="Path 1164" d="M50.338,34.23l1.547,1.121a2.757,2.757,0,0,1,.63,3.618c-.737,1.195-1.792,1.1-2.881.3a2.748,2.748,0,0,1,.63,3.609,2.264,2.264,0,0,1-3.307.72l-1.121-.818a2.633,2.633,0,0,1,1.031,1.858,2.829,2.829,0,0,1-.393,1.752,2.264,2.264,0,0,1-3.307.72l-2.03-1.49a2.633,2.633,0,0,1,1.031,1.858,2.111,2.111,0,0,1-.352,1.506,2.021,2.021,0,0,1-2.889.786l-16.3-13.308a8.05,8.05,0,0,0-2.144-1.252" transform="translate(-4.463 -6.959)" fill="none" stroke="#fff" stroke-linecap="round" stroke-linejoin="round" stroke-miterlimit="10" stroke-width="2"/>
        <path id="Path_1165" data-name="Path 1165" d="M29.23,19.59a3.075,3.075,0,0,0,1.072.188c1.94-.156,4.739-.458,6.99-.409" transform="translate(-6.051 -4.26)" fill="none" stroke="#fff" stroke-linecap="round" stroke-linejoin="round" stroke-miterlimit="10" stroke-width="2"/>
        <line id="Line_8" data-name="Line 8" x1="4.33" y1="3.02" transform="translate(40.85 29.293)" fill="none" stroke="#fff" stroke-linecap="round" stroke-linejoin="round" stroke-miterlimit="10" stroke-width="2"/>
        <line id="Line_9" data-name="Line 9" x1="3.331" y1="2.439" transform="translate(38.059 33.385)" fill="none" stroke="#fff" stroke-linecap="round" stroke-linejoin="round" stroke-miterlimit="10" stroke-width="2"/>
        <line id="Line_10" data-name="Line 10" x1="0.753" y1="0.63" transform="translate(35.931 38.034)" fill="none" stroke="#fff" stroke-linecap="round" stroke-linejoin="round" stroke-miterlimit="10" stroke-width="2"/>
        <g id="Group_629" data-name="Group 629">
          <path id="Path_1166" data-name="Path 1166" d="M1.131,21,14.349,29.99a1.445,1.445,0,0,0,2.046-.507l7.4-12.563a1.613,1.613,0,0,0-.483-2.153L.91.91Z" transform="translate(-0.91 -0.91)" fill="none" stroke="#fff" stroke-linecap="round" stroke-linejoin="round" stroke-miterlimit="10" stroke-width="2"/>
        </g>
      </g>
      <path id="Path_1167" data-name="Path 1167" d="M47.577,17.9c-.417-.065-1.375.606-2.521.581-3.012-.057-4.731-.827-8.365,1.007l-7.022,3.978a2.812,2.812,0,0,0-.712,3.937h0a2.846,2.846,0,0,0,3.953.712l8.34-4.886L54.73,33.515" transform="translate(-4.999 -3.083)" fill="none" stroke="#fff" stroke-linecap="round" stroke-linejoin="round" stroke-miterlimit="10" stroke-width="2"/>
      <g id="Group_633" data-name="Group 633" transform="translate(16.96 30.669)">
        <path id="Path_1168" data-name="Path 1168" d="M39.541,50.776l-1.089.949a2.179,2.179,0,0,1-2.775-.352,2.337,2.337,0,0,1-.63-1.4A2.308,2.308,0,0,1,35.7,48.14l.319-.27" transform="translate(-23.156 -39.194)" fill="none" stroke="#fff" stroke-linecap="round" stroke-linejoin="round" stroke-miterlimit="10" stroke-width="2"/>
        <path id="Path_1169" data-name="Path 1169" d="M22.943,37.27l-1.76,1.637a2.343,2.343,0,0,0-.025,3.241A2.18,2.18,0,0,0,24.3,42.2l2.177-2.038" transform="translate(-20.52 -37.27)" fill="none" stroke="#fff" stroke-linecap="round" stroke-linejoin="round" stroke-miterlimit="10" stroke-width="2"/>
        <g id="Group_631" data-name="Group 631" transform="translate(7.128 5.778)">
          <path id="Path_1170" data-name="Path 1170" d="M34.959,47.219l-.311.278-1.637,1.645a2.173,2.173,0,0,1-3.143-.049,2.341,2.341,0,0,1,.025-3.241l1.5-1.522" transform="translate(-29.229 -44.33)" fill="none" stroke="#fff" stroke-linecap="round" stroke-linejoin="round" stroke-miterlimit="10" stroke-width="2"/>
        </g>
        <g id="Group_632" data-name="Group 632" transform="translate(3.11 2.93)">
          <path id="Path_1171" data-name="Path 1171" d="M30.606,43.682,29,45.221l-.9.908a2.173,2.173,0,0,1-3.143-.049,2.343,2.343,0,0,1,.025-3.241l2.185-1.989" transform="translate(-24.32 -40.85)" fill="none" stroke="#fff" stroke-linecap="round" stroke-linejoin="round" stroke-miterlimit="10" stroke-width="2"/>
          <line id="Line_11" data-name="Line 11" x1="0.008" y1="0.008" transform="translate(6.286 2.832)" fill="none" stroke="#fff" stroke-linecap="round" stroke-linejoin="round" stroke-miterlimit="10" stroke-width="2"/>
        </g>
        <line id="Line_12" data-name="Line 12" x1="2.177" y2="2.046" transform="translate(3.773 2.881)" fill="none" stroke="#fff" stroke-linecap="round" stroke-linejoin="round" stroke-miterlimit="10" stroke-width="2"/>
      </g>
      <g id="Group_634" data-name="Group 634" transform="translate(42.118 0.91)">
        <path id="Path_1172" data-name="Path 1172" d="M74.144,20.913,60.926,29.9a1.445,1.445,0,0,1-2.046-.507l-7.4-12.563a1.613,1.613,0,0,1,.483-2.153L74.234.91Z" transform="translate(-51.258 -0.91)" fill="none" stroke="#fff" stroke-linecap="round" stroke-linejoin="round" stroke-miterlimit="10" stroke-width="2"/>
      </g>
    </g>
  </g>
</svg>
