<svg xmlns="http://www.w3.org/2000/svg" width="115.207" height="126.349" viewBox="0 0 115.207 126.349">
  <g id="Group_636" data-name="Group 636" transform="translate(-542.5 -1341.5)">
    <path id="Path_1161" data-name="Path 1161" d="M131.207,58.891v44.357a16.855,16.855,0,0,1-2.312,8.409,16.272,16.272,0,0,1-5.465,5.886L83.908,140.036a32.282,32.282,0,0,1-3.994,1.682,16,16,0,0,1-4.415.631,14.545,14.545,0,0,1-4.2-.631,28.129,28.129,0,0,1-3.784-1.471c-3.364-1.892-39.1-22.073-39.1-22.494a16.009,16.009,0,0,1-6.306-6.1,19.133,19.133,0,0,1-2.1-8.409V58.891a19.136,19.136,0,0,1,2.1-8.409,18.283,18.283,0,0,1,5.676-5.676l.63-.42L67.3,22.1a22.762,22.762,0,0,1,3.994-1.682A28.536,28.536,0,0,1,75.5,20a31.3,31.3,0,0,1,4.415.42,18.2,18.2,0,0,1,3.574,1.471C87.061,23.784,122.8,43.965,122.8,44.385a16.959,16.959,0,0,1,8.409,14.505Z" transform="translate(524.5 1323.5)" fill="#dc3856" stroke="#f79aab" stroke-miterlimit="10" stroke-width="4"/>
    <g id="Group_637" data-name="Group 637" transform="translate(569.825 1376.749)">
      <path id="Path_1173" data-name="Path 1173" d="M38.363,15.436,35.892,9.482l-3.628,1.206A15.52,15.52,0,0,0,28.675,7.1l1.206-3.628L23.928,1,22.216,4.424a15.338,15.338,0,0,0-5.078,0L15.436,1,9.473,3.471,10.679,7.1A15.291,15.291,0,0,0,7.1,10.689L3.471,9.473,1,15.436l3.424,1.712a15.338,15.338,0,0,0,0,5.078L1,23.928l2.471,5.953L7.1,28.675a15.52,15.52,0,0,0,3.589,3.589L9.482,35.892l5.953,2.471,1.712-3.424a15.338,15.338,0,0,0,5.078,0l1.712,3.414,5.953-2.471-1.206-3.628a15.52,15.52,0,0,0,3.589-3.589L35.9,29.871l2.471-5.953-3.424-1.712a15.338,15.338,0,0,0,0-5.078Z" transform="translate(0 0)" fill="none" stroke="#fff" stroke-linejoin="round" stroke-miterlimit="10" stroke-width="2"/>
      <path id="Path_1174" data-name="Path 1174" d="M25.746,22.4A6.191,6.191,0,1,1,22.4,14.317,6.189,6.189,0,0,1,25.746,22.4Z" transform="translate(-0.35 -0.35)" fill="none" stroke="#fff" stroke-miterlimit="10" stroke-width="2"/>
      <path id="Path_1175" data-name="Path 1175" d="M44.39,18.626a4.265,4.265,0,1,1,6.07,5.331" transform="translate(-1.182 -0.409)" fill="none" stroke="#fff" stroke-linejoin="round" stroke-miterlimit="10" stroke-width="2"/>
      <path id="Path_1176" data-name="Path 1176" d="M60.054,39.593l-1.693-4.076-3.152,1.3a9.828,9.828,0,0,0-2.267-2.266l1.3-3.152L50.17,29.71l-1.3,3.152a9.553,9.553,0,0,0-3.2,0l-1.3-3.152L40.287,31.4l1.3,3.152a9.828,9.828,0,0,0-2.266,2.266l-3.152-1.3L34.48,39.593l3.152,1.3a9.553,9.553,0,0,0,0,3.2L34.48,45.4l1.693,4.076,3.152-1.3a9.828,9.828,0,0,0,2.266,2.267l-1.3,3.152,4.076,1.693,1.3-3.152a9.553,9.553,0,0,0,3.2,0l1.3,3.152,4.076-1.693-1.3-3.152a9.828,9.828,0,0,0,2.267-2.266l3.152,1.3L60.054,45.4,56.9,44.1a9.552,9.552,0,0,0,0-3.2Z" transform="translate(-0.912 -0.782)" fill="none" stroke="#fff" stroke-linejoin="round" stroke-miterlimit="10" stroke-width="2"/>
      <path id="Path_1177" data-name="Path 1177" d="M55.727,25.964l3.016,1.469,1.9-3.9-3.016-1.469a9.682,9.682,0,0,0,.195-3.142l3.171-1.1-1.42-4.1-3.171,1.1a9.714,9.714,0,0,0-2.091-2.354l1.469-3.016-3.9-1.9-1.469,3.016a9.682,9.682,0,0,0-3.142-.195L46.165,7.2l-4.1,1.42,1.1,3.171" transform="translate(-1.119 -0.169)" fill="none" stroke="#fff" stroke-linejoin="round" stroke-miterlimit="10" stroke-width="2"/>
      <path id="Path_1178" data-name="Path 1178" d="M51.469,41.1a4.287,4.287,0,1,1-5.6-2.315A4.294,4.294,0,0,1,51.469,41.1Z" transform="translate(-1.151 -1.021)" fill="none" stroke="#fff" stroke-miterlimit="10" stroke-width="2"/>
    </g>
  </g>
</svg>
