<svg xmlns="http://www.w3.org/2000/svg" width="173" height="118.473" viewBox="0 0 173 118.473">
  <g id="Group_803" data-name="Group 803" transform="translate(-1083 -1375.527)">
    <path id="Path_1516" data-name="Path 1516" d="M0,0H173V118H0Z" transform="translate(1083 1376)" fill="#fff"/>
    <g id="Group_639" data-name="Group 639" transform="translate(1101.15 1375.531)">
      <path id="Path_1179" data-name="Path 1179" d="M136.071,114.6H124.327V99.513h3.664a1.929,1.929,0,0,0,1.93-1.93V80.217a1.929,1.929,0,0,0-1.93-1.93h-7.157V18.175a1.929,1.929,0,0,0-1.93-1.93H91.056a17.584,17.584,0,0,0-34.977,0H28.226a1.929,1.929,0,0,0-1.93,1.93V84.261H19.139a1.929,1.929,0,0,0-1.93,1.93V98.935a1.929,1.929,0,0,0,1.93,1.93H22.8v13.743H7.21a1.93,1.93,0,1,0,0,3.861H136.092a1.929,1.929,0,0,0,1.93-1.93A1.961,1.961,0,0,0,136.071,114.6Z" transform="translate(-1.531 0)" fill="#ffec6c"/>
      <path id="Path_1180" data-name="Path 1180" d="M130.578,112.872H115.509V97.457h3.541a1.865,1.865,0,0,0,1.862-1.862V83.285a1.865,1.865,0,0,0-1.862-1.862h-6.919V17.58a1.865,1.865,0,0,0-1.862-1.862H83.36a16.986,16.986,0,0,0-33.787,0H22.664A1.865,1.865,0,0,0,20.8,17.58V81.416H13.89a1.865,1.865,0,0,0-1.862,1.862V95.588A1.865,1.865,0,0,0,13.89,97.45h3.541v15.415H2.362a1.862,1.862,0,0,0,0,3.725H130.571a1.859,1.859,0,0,0,.007-3.718Z" transform="translate(0 -0.003)" fill="#fff"/>
      <g id="Group_638" data-name="Group 638" transform="translate(0.5 0.497)">
        <path id="Path_1181" data-name="Path 1181" d="M90.731,30.158h5.587V24.388h5.764V18.8H96.318V13.03H90.731V18.8H84.96v5.587h5.771Z" transform="translate(-27.554 -4.514)" fill="#172466"/>
        <path id="Path_1182" data-name="Path 1182" d="M130.578,112.872H115.509V97.457h3.541a1.865,1.865,0,0,0,1.862-1.862V83.285a1.865,1.865,0,0,0-1.862-1.862h-6.919V17.58a1.865,1.865,0,0,0-1.862-1.862H83.36a16.986,16.986,0,0,0-33.787,0H22.664A1.865,1.865,0,0,0,20.8,17.58V81.416H13.89a1.865,1.865,0,0,0-1.862,1.862V95.588A1.865,1.865,0,0,0,13.89,97.45h3.541v15.415H2.362a1.862,1.862,0,0,0,0,3.725H130.571a1.859,1.859,0,0,0,.007-3.718ZM90.232,19.443h18.182V37.624H90.232Zm0,21.9h18.182V59.517H90.232Zm0,21.9h18.182V81.423H90.232Zm-6.872-43.8h3.147V37.624H68.332V34.477A16.993,16.993,0,0,0,83.36,19.443ZM68.332,59.524V41.342H86.507V59.517H68.332Zm18.175,3.718V81.423H68.332V63.242ZM66.47,4.225A13.356,13.356,0,1,1,53.114,17.58,13.371,13.371,0,0,1,66.47,4.225ZM46.426,19.443h3.147A17,17,0,0,0,64.608,34.477v3.147H46.426Zm0,21.9H64.608V59.517H46.426Zm0,21.9H64.608V81.423H46.426Zm-21.9-43.8H42.708V37.624H24.527Zm0,21.9H42.708V59.517H24.527Zm0,21.9H42.708V81.423H24.527Zm-.347,49.63H21.156V97.457H24.18Zm15.15,0H27.9V97.457H39.33v15.415Zm6.749,0H43.055V97.457H46.08Zm15.157,0H49.8V97.457H61.23v15.415Zm6.742,0H64.954V97.457h3.025Zm15.157,0H71.71V97.457H83.136Zm6.749,0H86.861V97.457h3.025Zm15.15,0H93.61V97.457h11.425Zm6.749,0H108.76V97.457h3.025ZM106.9,93.732H15.752V85.141H117.188v8.591H106.9Z" transform="translate(-0.5 -0.5)" fill="#172466" stroke="#172466" stroke-miterlimit="10" stroke-width="1"/>
      </g>
    </g>
  </g>
</svg>
