<svg xmlns="http://www.w3.org/2000/svg" width="105" height="100" viewBox="0 0 105 100">
  <g id="Group_796" data-name="Group 796" transform="translate(-1096 -288)">
    <rect id="Rectangle_146" data-name="Rectangle 146" width="105" height="100" transform="translate(1096 288)" fill="#fff"/>
    <g id="Group_567" data-name="Group 567" transform="translate(1112.002 296.003)">
      <path id="Path_1135" data-name="Path 1135" d="M55.554,85.26c.024-.456.024-.919.006-1.393.006-2.981-.059-20.233-.059-24.465-1.511,1.535-2.868,2.94-4.255,4.3a1.587,1.587,0,0,0-.48,1.245q.027,7.61-.006,15.219a7.914,7.914,0,0,1-.267,1.9,6.072,6.072,0,0,1-5.636,4.208c-1.28.006-24.038.071-34.137.047a5.506,5.506,0,0,1-2.2-.468A5.884,5.884,0,0,1,4.8,80.039c.006-11.4-.006-46.671.006-48.686a5.824,5.824,0,0,1,2.258-4.67,6.232,6.232,0,0,1,4.154-1.322H23.664c6.875,0,13.75.053,20.624-.024a6.123,6.123,0,0,1,6.5,6.507c-.077,1.037-.012,2.086-.012,3.129,0,.172.03.344.065.676,1.588-1.6,3.07-3.088,4.534-4.593a1.034,1.034,0,0,0,.172-.658c.012-1.778.036-3.556,0-5.334a6.968,6.968,0,0,0-3.633-6.152,8.353,8.353,0,0,0-4.735-.9c-.871.024-1.126.225-1.061,1.114a3.483,3.483,0,0,1-3.556,3.586q-14.757,0-29.514-.018a3.918,3.918,0,0,1-1.825-.462,3.424,3.424,0,0,1-1.808-3.283c.018-.676-.249-.96-.913-.936-.593.024-1.185-.006-1.778.024A7.174,7.174,0,0,0,.005,25.112c-.012,5.737-.012,48.153.024,60.314a6.472,6.472,0,0,0,.587,2.525,7.01,7.01,0,0,0,7.005,4.38c8.066-.012,37.77-.053,39.53-.047,2.631.166,4.848-.385,6.65-2.4a6.665,6.665,0,0,0,1.553-3.111,5.678,5.678,0,0,0,.2-1.393A.8.8,0,0,0,55.554,85.26Z" transform="translate(0 -7.334)" fill="#1564a5"/>
      <path id="Path_1136" data-name="Path 1136" d="M77.39,49.28c3.123,3.129,6.282,6.288,9.5,9.512-.794.812-1.618,1.671-2.46,2.507Q75.114,70.607,65.8,79.9c-.711.711-.705.717-1.458-.041q-4.392-4.418-8.759-8.8C56.783,69.845,71.931,54.738,77.39,49.28Z" transform="translate(-22.641 -20.075)" fill="#1564a5"/>
      <path id="Path_1137" data-name="Path 1137" d="M35.806,13.126H21.447c-1.464,0-1.754-.29-1.76-1.731-.006-1.043-.053-2.092.024-3.123a2.258,2.258,0,0,1,.557-1.292A23.535,23.535,0,0,1,30.449.775a18.5,18.5,0,0,1,9.891-.2,23.811,23.811,0,0,1,11.035,6.4,1.72,1.72,0,0,1,.569,1.375c-.036,1.09-.006,2.181-.012,3.271-.006,1.132-.373,1.5-1.559,1.5q-6.472.009-12.938.006C36.9,13.132,36.352,13.132,35.806,13.126Zm3.224-7.4a3.224,3.224,0,0,0-6.448.065,3.224,3.224,0,1,0,6.448-.065Z" transform="translate(-8.012 0)" fill="#1564a5"/>
      <path id="Path_1138" data-name="Path 1138" d="M106.034,50.621,96.51,41.062a1.91,1.91,0,0,1,.219-.29c1.381-1.387,2.791-2.744,4.143-4.154a4.143,4.143,0,0,1,6,0c1.144,1.28,2.43,2.436,3.651,3.657a3.921,3.921,0,0,1,.107,5.755C109.133,47.6,107.557,49.1,106.034,50.621Z" transform="translate(-39.314 -14.394)" fill="#1564a5"/>
      <path id="Path_1139" data-name="Path 1139" d="M57.535,99.679c-4.623,1.565-9.287,3.147-14.135,4.783,1.624-4.806,3.212-9.506,4.789-14.182C51.3,93.415,54.394,96.527,57.535,99.679Z" transform="translate(-17.68 -36.777)" fill="#1564a5"/>
      <path id="Path_1140" data-name="Path 1140" d="M26.09,43.309c-2.341,2.519-4.635,4.99-6.987,7.515-1.256-1.464-2.448-2.845-3.627-4.232-.646-.765-.646-.77.107-1.428.338-.3.682-.575,1.1-.93.83.954,1.636,1.879,2.5,2.874,1.713-1.837,3.4-3.639,5.115-5.488C24.922,42.213,25.491,42.746,26.09,43.309Z" transform="translate(-6.113 -16.955)" fill="#1564a5"/>
      <path id="Path_1141" data-name="Path 1141" d="M24.171,69.13c.64.593,1.185,1.1,1.8,1.665-2.317,2.5-4.623,4.99-6.987,7.539-1.44-1.683-2.839-3.319-4.279-5.008.634-.545,1.215-1.043,1.855-1.6.824.954,1.618,1.867,2.489,2.88C20.763,72.775,22.446,70.979,24.171,69.13Z" transform="translate(-5.989 -28.161)" fill="#1564a5"/>
      <path id="Path_1142" data-name="Path 1142" d="M24.171,96.51c.628.581,1.179,1.09,1.8,1.665-2.317,2.5-4.623,4.99-6.981,7.544-1.428-1.671-2.827-3.307-4.285-5.008.634-.545,1.233-1.055,1.861-1.6.836.96,1.63,1.879,2.489,2.874C20.769,100.149,22.44,98.359,24.171,96.51Z" transform="translate(-5.989 -39.314)" fill="#1564a5"/>
      <path id="Path_1143" data-name="Path 1143" d="M47.908,7.464A3.224,3.224,0,1,1,44.684,4.27,3.262,3.262,0,0,1,47.908,7.464Z" transform="translate(-16.889 -1.741)" fill="#1564a5"/>
      <rect id="Rectangle_107" data-name="Rectangle 107" width="21.78" height="2.222" transform="translate(21.015 29.098)" fill="#1564a5"/>
      <g id="Group_566" data-name="Group 566" transform="translate(21.015 46.066)">
        <path id="Path_1144" data-name="Path 1144" d="M35.46,77.73v2.222H47.106l2.258-2.222Z" transform="translate(-35.46 -77.73)" fill="#1564a5"/>
      </g>
    </g>
  </g>
</svg>
