<svg xmlns="http://www.w3.org/2000/svg" width="105" height="100" viewBox="0 0 105 100">
  <g id="Group_798" data-name="Group 798" transform="translate(-1440 -288)">
    <rect id="Rectangle_148" data-name="Rectangle 148" width="105" height="100" transform="translate(1440 288)" fill="#fff"/>
    <path id="Path_1147" data-name="Path 1147" d="M16.141,0H46.506A16.3,16.3,0,0,1,58.073,4.756,15.441,15.441,0,0,1,62.658,15.68V69.32a15.441,15.441,0,0,1-4.584,10.925A16.3,16.3,0,0,1,46.506,85H16.141A16.3,16.3,0,0,1,4.573,80.244,15.432,15.432,0,0,1,0,69.33V15.68A15.441,15.441,0,0,1,4.584,4.756,16.29,16.29,0,0,1,16.141,0ZM12.457,12.8h4.595a1.623,1.623,0,0,1,1.617,1.617v4.595a1.623,1.623,0,0,1-1.617,1.617H12.457a1.623,1.623,0,0,1-1.617-1.617V14.417A1.637,1.637,0,0,1,12.457,12.8Zm22.1,0h4.595a1.623,1.623,0,0,1,1.617,1.617v4.595a1.623,1.623,0,0,1-1.617,1.617H34.553a1.623,1.623,0,0,1-1.617-1.617V14.417A1.63,1.63,0,0,1,34.553,12.8Zm0,11.043h4.595a1.623,1.623,0,0,1,1.617,1.617v4.595a1.623,1.623,0,0,1-1.617,1.617H34.553a1.623,1.623,0,0,1-1.617-1.617V25.459a1.63,1.63,0,0,1,1.617-1.617Zm0,11.053h4.595a1.623,1.623,0,0,1,1.617,1.617v4.595a1.623,1.623,0,0,1-1.617,1.617H34.553a1.623,1.623,0,0,1-1.617-1.617V36.513A1.623,1.623,0,0,1,34.553,34.9ZM23.51,12.8H28.1a1.623,1.623,0,0,1,1.617,1.617v4.595A1.623,1.623,0,0,1,28.1,20.629H23.51a1.623,1.623,0,0,1-1.617-1.617V14.417A1.623,1.623,0,0,1,23.51,12.8Zm0,11.043H28.1a1.623,1.623,0,0,1,1.617,1.617v4.595A1.623,1.623,0,0,1,28.1,31.671H23.51a1.623,1.623,0,0,1-1.617-1.617V25.459a1.623,1.623,0,0,1,1.617-1.617ZM45.606,12.8H50.2a1.623,1.623,0,0,1,1.617,1.617v4.595A1.623,1.623,0,0,1,50.2,20.629H45.606a1.623,1.623,0,0,1-1.617-1.617V14.417A1.623,1.623,0,0,1,45.606,12.8Zm0,11.043H50.2a1.623,1.623,0,0,1,1.617,1.617v4.595A1.623,1.623,0,0,1,50.2,31.671H45.606a1.623,1.623,0,0,1-1.617-1.617V25.459a1.623,1.623,0,0,1,1.617-1.617Zm0,11.053H50.2a1.623,1.623,0,0,1,1.617,1.617v4.595A1.623,1.623,0,0,1,50.2,42.725H45.606a1.623,1.623,0,0,1-1.617-1.617V36.513A1.616,1.616,0,0,1,45.606,34.9ZM4.852,63.632H57.806V15.68A11.886,11.886,0,0,0,54.325,7.23a11.048,11.048,0,0,0-7.808-3.3H16.141a11.048,11.048,0,0,0-7.808,3.3A11.93,11.93,0,0,0,4.852,15.68V63.632ZM31.329,69.18a4.391,4.391,0,1,0,4.391,4.391,4.391,4.391,0,0,0-4.391-4.391Z" transform="translate(1461 296)" fill="#1564a5"/>
  </g>
</svg>
