<svg xmlns="http://www.w3.org/2000/svg" width="150" height="90" viewBox="0 0 150 90">
  <g id="Group_816" data-name="Group 816" transform="translate(-367 -4307)">
    <rect id="Rectangle_156" data-name="Rectangle 156" width="150" height="90" transform="translate(367 4307)" fill="#fff"/>
    <g id="Group_819" data-name="Group 819" transform="translate(394.75 4321.747)">
      <path id="Path_1521" data-name="Path 1521" d="M86.141,34.391H77.372a1.517,1.517,0,0,1-.248-.028c-1.267-.22-12.321-2.4-12.321-9.155,0-4.185-1.831-9.761-17.732-9.761s-17.732,5.562-17.732,9.761c0,6.76-11.055,8.921-12.321,9.155a1.517,1.517,0,0,1-.248.028H8.028c-5.947,0-7.7-4.268-7.778-6.525V23.088A14.2,14.2,0,0,1,6.087,11.634C23.1-.7,45.3.208,47.085.3c1.79-.1,23.982-1,41,11.33a14.185,14.185,0,0,1,5.837,11.454V27.81C93.837,30.123,92.089,34.391,86.141,34.391ZM77.5,31.582h8.646c4.777,0,4.97-3.676,4.97-3.827V23.088a11.367,11.367,0,0,0-4.681-9.182C69.9,1.915,47.388,3.1,47.167,3.112H47c-.22-.014-22.729-1.2-39.263,10.793a11.367,11.367,0,0,0-4.681,9.182V27.81c.014.33.344,3.772,4.97,3.772h8.646c2.7-.509,9.885-2.671,9.885-6.374,0-8.453,6.718-12.555,20.526-12.555s20.526,4.1,20.526,12.555C67.611,28.911,74.811,31.073,77.5,31.582Z" transform="translate(0 0)" fill="#04439c" stroke="#04439c" stroke-miterlimit="10" stroke-width="0.5"/>
      <path id="Path_1522" data-name="Path 1522" d="M70.994,55.45H15.6a1.042,1.042,0,0,1-.207-.014c-1.762-.275-5.08-1.721-5.08-5.273V38.71a11.2,11.2,0,0,1,3.7-8.315c7.2-6.484,8.549-8.37,8.8-8.783,0-1.528-.041-2.781-.041-2.795a1.4,1.4,0,0,1,2.795-.1s.055,1.418.055,3.084c0,.8,0,1.9-9.719,10.669A8.411,8.411,0,0,0,13.118,38.7V50.15c0,1.845,2.148,2.382,2.616,2.478H70.87c.468-.1,2.616-.633,2.616-2.478V38.7a8.389,8.389,0,0,0-2.781-6.223C60.986,23.7,60.986,22.6,60.986,21.8c0-1.666.055-3.084.055-3.084a1.373,1.373,0,0,1,1.446-1.349,1.4,1.4,0,0,1,1.349,1.446c0,.014-.041,1.267-.041,2.795.248.413,1.6,2.3,8.8,8.783a11.2,11.2,0,0,1,3.7,8.315V50.164c0,3.552-3.318,5-5.08,5.273C71.132,55.436,71.063,55.45,70.994,55.45Z" transform="translate(3.789 6.447)" fill="#04439c" stroke="#04439c" stroke-miterlimit="10" stroke-width="0.5"/>
      <path id="Path_1523" data-name="Path 1523" d="M37.491,33.937c-6.594,0-11.771-3.414-11.771-7.778s5.163-7.778,11.771-7.778,11.771,3.414,11.771,7.778S44.085,33.937,37.491,33.937Zm0-12.748c-4.86,0-8.962,2.272-8.962,4.97s4.1,4.97,8.962,4.97,8.962-2.272,8.962-4.97S42.35,21.188,37.491,21.188Z" transform="translate(9.594 6.828)" fill="#04439c" stroke="#04439c" stroke-miterlimit="10" stroke-width="0.5"/>
    </g>
  </g>
</svg>
