<svg xmlns="http://www.w3.org/2000/svg" width="173" height="118" viewBox="0 0 173 118">
  <g id="Group_805" data-name="Group 805" transform="translate(-1435 -1376)">
    <path id="Path_1518" data-name="Path 1518" d="M0,0H173V118H0Z" transform="translate(1435 1376)" fill="#fff"/>
    <g id="Group_641" data-name="Group 641" transform="translate(1478.039 1376.257)">
      <path id="Path_1187" data-name="Path 1187" d="M26.239,109.1H1v8.642H85.077V109.1H64.061v-.014H57.629l-10.851-11.9a36.582,36.582,0,0,0,18.9-11.053H80.03V77.487H37.075v8.642H55.708a30.364,30.364,0,0,1-17.3,5.487C21.359,91.609,7.5,77.524,7.5,60.212A31.511,31.511,0,0,1,21.965,33.8a13.049,13.049,0,0,0,1.206,2.924L37,61.056l-7.472,4.375L34.3,73.806l3.8-2.231,1.769,3.1a3.118,3.118,0,0,0,4.288,1.155l1.581-.931a3.22,3.22,0,0,0,1.141-4.353l-1.762-3.09,4.194-2.462,1.762,3.075a3.118,3.118,0,0,0,4.288,1.155l1.581-.931a3.22,3.22,0,0,0,1.141-4.353l-1.747-3.068,4.194-2.462,1.747,3.054a3.118,3.118,0,0,0,4.288,1.155l1.581-.931a3.22,3.22,0,0,0,1.141-4.353l-1.74-3.047L71.5,51.967l-4.736-8.382-7.486,4.389L45.406,23.7a12.775,12.775,0,0,0-12.388-6.432L27.842,8.153l3.5-2.058L28.448,1.02,12.334,10.477l2.859,5.082,3.523-2.036L23.9,22.613a12.9,12.9,0,0,0-1.79,3.509,38.1,38.1,0,0,0,7.876,71.089v11.876H26.239v.014Z" fill="#ffec6c"/>
      <path id="Path_1188" data-name="Path 1188" d="M24.239,103.173H1v8.136H78.406v-8.136H59.058v-.014h-5.92L43.147,91.947a33.525,33.525,0,0,0,17.4-10.41H73.757V73.4H34.216v8.136H51.369A27.551,27.551,0,0,1,35.436,86.7c-15.688,0-28.459-13.269-28.459-29.57A29.851,29.851,0,0,1,20.3,32.257a12.12,12.12,0,0,0,1.112,2.758L34.144,57.922l-6.88,4.122,4.389,7.891,3.5-2.1,1.632,2.917a2.836,2.836,0,0,0,3.949,1.09l1.458-.874a3.065,3.065,0,0,0,1.047-4.1l-1.624-2.909,3.862-2.317,1.617,2.9a2.836,2.836,0,0,0,3.949,1.09l1.458-.874a3.065,3.065,0,0,0,1.047-4.1L51.94,57.77,55.8,55.453l1.61,2.881a2.836,2.836,0,0,0,3.949,1.09l1.458-.874a3.065,3.065,0,0,0,1.047-4.1l-1.6-2.866,3.631-2.18-4.361-7.891L54.64,45.649,41.89,22.742a11.7,11.7,0,0,0-11.407-6.057L25.719,8.1l3.227-1.942L26.282,1.38,11.439,10.3l2.635,4.786,3.241-1.92,4.772,8.562a12.107,12.107,0,0,0-1.646,3.306A36.055,36.055,0,0,0,1,57.128C1,73.761,12.168,88.265,27.69,91.976v11.183H24.239v.014Z" transform="translate(0 -0.1)" fill="#f2f2f2"/>
      <path id="Path_1189" data-name="Path 1189" d="M24.239,103.173H1v8.136H78.406v-8.136H59.058v-.014h-5.92L43.147,91.947a33.525,33.525,0,0,0,17.4-10.41H73.757V73.4H34.216v8.136H51.369A27.551,27.551,0,0,1,35.436,86.7c-15.688,0-28.459-13.269-28.459-29.57A29.851,29.851,0,0,1,20.3,32.257a12.12,12.12,0,0,0,1.112,2.758L34.144,57.922l-6.88,4.122,4.389,7.891,3.5-2.1,1.632,2.917a2.836,2.836,0,0,0,3.949,1.09l1.458-.874a3.065,3.065,0,0,0,1.047-4.1l-1.624-2.909,3.862-2.317,1.617,2.9a2.836,2.836,0,0,0,3.949,1.09l1.458-.874a3.065,3.065,0,0,0,1.047-4.1L51.94,57.77,55.8,55.453l1.61,2.881a2.836,2.836,0,0,0,3.949,1.09l1.458-.874a3.065,3.065,0,0,0,1.047-4.1l-1.6-2.866,3.631-2.18-4.361-7.891L54.64,45.649,41.89,22.742a11.7,11.7,0,0,0-11.407-6.057L25.719,8.1l3.227-1.942L26.282,1.38,11.439,10.3l2.635,4.786,3.241-1.92,4.772,8.562a12.107,12.107,0,0,0-1.646,3.306A36.055,36.055,0,0,0,1,57.128C1,73.761,12.168,88.265,27.69,91.976v11.183H24.239v.014ZM14.9,11.891l-.4-.736L25.459,4.571l.419.744ZM57.47,54.45l3.09-1.855,1.6,2.873a1,1,0,0,1-.347,1.343l-1.458.874a.93.93,0,0,1-1.292-.354ZM47.153,60.637l3.09-1.855,1.617,2.888a1,1,0,0,1-.347,1.343l-1.458.874a.93.93,0,0,1-1.292-.354ZM36.837,66.824l3.09-1.855,1.624,2.909A1,1,0,0,1,41.2,69.22l-1.458.874a.93.93,0,0,1-1.292-.354ZM60.7,44.7l2.115,3.833L32.476,66.751,30.332,62.9ZM36.454,79.2v-3.48H71.519v3.357Zm13.63,23.954H29.928V90.084l-.9-.188C14.081,86.763,3.238,72.982,3.238,57.128a33.715,33.715,0,0,1,18.6-30.22l.462-.231.137-.513a9.874,9.874,0,0,1,1.848-3.61l.5-.628-5.544-9.941,4.519-2.736L29.3,19.226l.772-.137A9.43,9.43,0,0,1,39.941,23.9L52.662,46.775,36.086,56.753,23.351,33.845a10.182,10.182,0,0,1-1.17-3.6l-.231-1.682-1.429.837A32.161,32.161,0,0,0,4.74,57.128c0,17.594,13.775,31.9,30.7,31.9A29.968,29.968,0,0,0,55.2,81.414h2.289a31.111,31.111,0,0,1-16.72,8.642l-2.058.354ZM76.168,105.5v3.48H3.245V105.5Z" transform="translate(0 -0.1)" fill="#2a5082" stroke="#172466" stroke-miterlimit="10" stroke-width="1.5"/>
    </g>
  </g>
</svg>
