<svg xmlns="http://www.w3.org/2000/svg" width="115.207" height="126.349" viewBox="0 0 115.207 126.349">
  <g id="Group_627" data-name="Group 627" transform="translate(-542.5 -1341.5)">
    <path id="Path_1161" data-name="Path 1161" d="M131.207,58.891v44.357a16.855,16.855,0,0,1-2.312,8.409,16.272,16.272,0,0,1-5.465,5.886L83.908,140.036a32.282,32.282,0,0,1-3.994,1.682,16,16,0,0,1-4.415.631,14.545,14.545,0,0,1-4.2-.631,28.129,28.129,0,0,1-3.784-1.471c-3.364-1.892-39.1-22.073-39.1-22.494a16.009,16.009,0,0,1-6.306-6.1,19.133,19.133,0,0,1-2.1-8.409V58.891a19.136,19.136,0,0,1,2.1-8.409,18.283,18.283,0,0,1,5.676-5.676l.63-.42L67.3,22.1a22.762,22.762,0,0,1,3.994-1.682A28.536,28.536,0,0,1,75.5,20a31.3,31.3,0,0,1,4.415.42,18.2,18.2,0,0,1,3.574,1.471C87.061,23.784,122.8,43.965,122.8,44.385a16.959,16.959,0,0,1,8.409,14.505Z" transform="translate(524.5 1323.5)" fill="#04b8a3" stroke="#86e7db" stroke-miterlimit="10" stroke-width="4"/>
    <g id="Group_625" data-name="Group 625" transform="translate(575.5 1374.95)">
      <rect id="Rectangle_111" data-name="Rectangle 111" width="39.423" height="52.203" transform="translate(5.291 2.05)" stroke-width="2" stroke="#fff" stroke-linecap="round" stroke-linejoin="round" stroke-miterlimit="10" fill="none"/>
      <rect id="Rectangle_112" data-name="Rectangle 112" width="5.338" height="5.355" transform="translate(9.552 18.361)" stroke-width="2" stroke="#fff" stroke-linecap="round" stroke-linejoin="round" stroke-miterlimit="10" fill="none"/>
      <rect id="Rectangle_113" data-name="Rectangle 113" width="5.338" height="5.355" transform="translate(18.075 18.361)" stroke-width="2" stroke="#fff" stroke-linecap="round" stroke-linejoin="round" stroke-miterlimit="10" fill="none"/>
      <rect id="Rectangle_114" data-name="Rectangle 114" width="5.338" height="5.355" transform="translate(26.597 18.361)" stroke-width="2" stroke="#fff" stroke-linecap="round" stroke-linejoin="round" stroke-miterlimit="10" fill="none"/>
      <rect id="Rectangle_115" data-name="Rectangle 115" width="5.338" height="5.355" transform="translate(35.116 18.361)" stroke-width="2" stroke="#fff" stroke-linecap="round" stroke-linejoin="round" stroke-miterlimit="10" fill="none"/>
      <rect id="Rectangle_116" data-name="Rectangle 116" width="5.338" height="5.355" transform="translate(9.552 27.033)" stroke-width="2" stroke="#fff" stroke-linecap="round" stroke-linejoin="round" stroke-miterlimit="10" fill="none"/>
      <rect id="Rectangle_117" data-name="Rectangle 117" width="5.338" height="5.355" transform="translate(18.075 27.033)" stroke-width="2" stroke="#fff" stroke-linecap="round" stroke-linejoin="round" stroke-miterlimit="10" fill="none"/>
      <rect id="Rectangle_118" data-name="Rectangle 118" width="5.338" height="5.355" transform="translate(26.597 27.033)" stroke-width="2" stroke="#fff" stroke-linecap="round" stroke-linejoin="round" stroke-miterlimit="10" fill="none"/>
      <rect id="Rectangle_119" data-name="Rectangle 119" width="5.338" height="5.355" transform="translate(35.116 27.033)" stroke-width="2" stroke="#fff" stroke-linecap="round" stroke-linejoin="round" stroke-miterlimit="10" fill="none"/>
      <rect id="Rectangle_120" data-name="Rectangle 120" width="5.338" height="5.355" transform="translate(9.552 35.71)" stroke-width="2" stroke="#fff" stroke-linecap="round" stroke-linejoin="round" stroke-miterlimit="10" fill="none"/>
      <rect id="Rectangle_121" data-name="Rectangle 121" width="5.338" height="5.355" transform="translate(18.075 35.71)" stroke-width="2" stroke="#fff" stroke-linecap="round" stroke-linejoin="round" stroke-miterlimit="10" fill="none"/>
      <rect id="Rectangle_122" data-name="Rectangle 122" width="5.338" height="5.355" transform="translate(26.597 35.71)" stroke-width="2" stroke="#fff" stroke-linecap="round" stroke-linejoin="round" stroke-miterlimit="10" fill="none"/>
      <rect id="Rectangle_123" data-name="Rectangle 123" width="5.338" height="5.355" transform="translate(35.116 35.71)" stroke-width="2" stroke="#fff" stroke-linecap="round" stroke-linejoin="round" stroke-miterlimit="10" fill="none"/>
      <g id="Group_623" data-name="Group 623" transform="translate(9.552 44.386)">
        <rect id="Rectangle_124" data-name="Rectangle 124" width="5.338" height="5.355" fill="none" stroke="#fff" stroke-linecap="round" stroke-linejoin="round" stroke-miterlimit="10" stroke-width="2"/>
        <rect id="Rectangle_125" data-name="Rectangle 125" width="5.338" height="5.355" transform="translate(25.563)" stroke-width="2" stroke="#fff" stroke-linecap="round" stroke-linejoin="round" stroke-miterlimit="10" fill="none"/>
      </g>
      <g id="Group_624" data-name="Group 624" transform="translate(9.552 9.72)">
        <rect id="Rectangle_126" data-name="Rectangle 126" width="5.338" height="5.355" fill="none" stroke="#fff" stroke-linecap="round" stroke-linejoin="round" stroke-miterlimit="10" stroke-width="2"/>
        <rect id="Rectangle_127" data-name="Rectangle 127" width="5.338" height="5.355" transform="translate(25.563)" stroke-width="2" stroke="#fff" stroke-linecap="round" stroke-linejoin="round" stroke-miterlimit="10" fill="none"/>
      </g>
      <path id="Path_1162" data-name="Path 1162" d="M54.162,108.322H48.1v-6.409a2.844,2.844,0,0,1,2.842-2.842h.378a2.844,2.844,0,0,1,2.842,2.842Z" transform="translate(-26.128 -54.399)" fill="none" stroke="#fff" stroke-linecap="round" stroke-linejoin="round" stroke-miterlimit="10" stroke-width="2"/>
      <rect id="Rectangle_128" data-name="Rectangle 128" width="47.01" height="3.611" transform="translate(1.5 54.477)" stroke-width="2" stroke="#fff" stroke-linecap="round" stroke-linejoin="round" stroke-miterlimit="10" fill="none"/>
      <path id="Path_1163" data-name="Path 1163" d="M53.849,15.316H51.292V12.75H48.037v2.566H45.48V18.58h2.557v2.561h3.255V18.58h2.557Z" transform="translate(-24.659 -5.999)" fill="none" stroke="#fff" stroke-linecap="round" stroke-linejoin="round" stroke-miterlimit="10" stroke-width="2"/>
    </g>
  </g>
</svg>
