<svg xmlns="http://www.w3.org/2000/svg" width="115" height="114" viewBox="0 0 115 114">
  <g id="Group_651" data-name="Group 651" transform="translate(-375 -2520.5)">
    <ellipse id="Ellipse_473" data-name="Ellipse 473" cx="57.5" cy="57" rx="57.5" ry="57" transform="translate(375 2520.5)" fill="#f08300"/>
    <g id="Group_660" data-name="Group 660" transform="translate(409 2547.5)">
      <g id="Group_658" data-name="Group 658">
        <path id="Path_1201" data-name="Path 1201" d="M38.68,8.1H34.75a3.474,3.474,0,0,1-3.46,3.32H16.46A3.467,3.467,0,0,1,13,8.1H9.06a3.658,3.658,0,0,0-3.65,3.65V50.39a3.658,3.658,0,0,0,3.65,3.65H38.68a3.658,3.658,0,0,0,3.65-3.65V11.75A3.651,3.651,0,0,0,38.68,8.1Z" fill="none"/>
        <path id="Path_1202" data-name="Path 1202" d="M39.86,2.33H27.52a3.9,3.9,0,0,0-7.14,0H7.88A7.883,7.883,0,0,0,0,10.21V51.92A7.883,7.883,0,0,0,7.88,59.8H39.86a7.883,7.883,0,0,0,7.88-7.88V10.21A7.876,7.876,0,0,0,39.86,2.33Zm-15.87.23a2.37,2.37,0,1,1-2.37,2.37A2.369,2.369,0,0,1,23.99,2.56ZM42.33,50.39a3.658,3.658,0,0,1-3.65,3.65H9.06a3.658,3.658,0,0,1-3.65-3.65V11.75A3.658,3.658,0,0,1,9.06,8.1H13a3.467,3.467,0,0,0,3.46,3.32H31.29A3.46,3.46,0,0,0,34.75,8.1h3.93a3.658,3.658,0,0,1,3.65,3.65Z" fill="#fff"/>
      </g>
      <g id="Group_659" data-name="Group 659">
        <path id="Path_1203" data-name="Path 1203" d="M32.6,28.92H27.29V23.61a1.566,1.566,0,0,0-1.57-1.57h-3.7a1.573,1.573,0,0,0-1.57,1.57v5.31H15.14a1.566,1.566,0,0,0-1.57,1.57v3.7a1.573,1.573,0,0,0,1.57,1.57h5.31v5.31a1.558,1.558,0,0,0,1.57,1.56h3.7a1.564,1.564,0,0,0,1.57-1.56V35.76H32.6a1.566,1.566,0,0,0,1.57-1.57v-3.7A1.566,1.566,0,0,0,32.6,28.92Z" fill="#fff"/>
      </g>
    </g>
  </g>
</svg>
