<svg xmlns="http://www.w3.org/2000/svg" width="113" height="83" viewBox="0 0 113 83">
  <g id="Group_789" data-name="Group 789" transform="translate(-562 -3591)">
    <rect id="Rectangle_141" data-name="Rectangle 141" width="113" height="83" transform="translate(562 3591)" fill="#fff"/>
    <g id="Group_682" data-name="Group 682" transform="translate(584 3593)">
      <path id="Path_1261" data-name="Path 1261" d="M56.428,71.224A3.126,3.126,0,0,1,53.3,74.241h-38.1a3.126,3.126,0,0,1-3.132-3.017L9.781,11.856H58.715L56.428,71.224ZM27.081,4.619H41.409V8.244H27.081V4.619Zm38.6,3.625H45.028V4.593A3.6,3.6,0,0,0,41.434,1H27.055a3.6,3.6,0,0,0-3.593,3.593V8.238H2.806a1.809,1.809,0,0,0,0,3.619h3.35L8.443,71.365a6.734,6.734,0,0,0,6.751,6.495H53.3a6.734,6.734,0,0,0,6.751-6.495l2.287-59.508h3.35a1.806,1.806,0,1,0,0-3.612Z" fill="#0076c1" stroke="#0076c1" stroke-miterlimit="10" stroke-width="2"/>
      <path id="Path_1262" data-name="Path 1262" d="M31.872,40.79h-.038a1.81,1.81,0,0,0-1.774,1.845l.57,29.52a1.81,1.81,0,0,0,1.806,1.774h.038a1.81,1.81,0,0,0,1.774-1.845l-.57-29.52a1.806,1.806,0,0,0-1.806-1.774Z" transform="translate(-10.447 -14.305)" fill="#0076c1" stroke="#0076c1" stroke-miterlimit="10" stroke-width="2"/>
      <path id="Path_1263" data-name="Path 1263" d="M51.9,40.79A1.8,1.8,0,0,0,50.09,42.6v29.52a1.806,1.806,0,1,0,3.612,0V42.6A1.8,1.8,0,0,0,51.9,40.79Z" transform="translate(-17.648 -14.305)" fill="#0076c1" stroke="#0076c1" stroke-miterlimit="10" stroke-width="2"/>
      <path id="Path_1264" data-name="Path 1264" d="M70.994,73.919h.038a1.81,1.81,0,0,0,1.806-1.774l.57-29.52a1.81,1.81,0,1,0-3.619-.07l-.57,29.52a1.81,1.81,0,0,0,1.774,1.845Z" transform="translate(-24.525 -14.301)" fill="#0076c1" stroke="#0076c1" stroke-miterlimit="10" stroke-width="2"/>
    </g>
  </g>
</svg>
