<svg xmlns="http://www.w3.org/2000/svg" width="115.207" height="126.349" viewBox="0 0 115.207 126.349">
  <g id="Group_626" data-name="Group 626" transform="translate(-388.5 -1341.5)">
    <path id="Path_1157" data-name="Path 1157" d="M131.207,58.891v44.357a16.855,16.855,0,0,1-2.312,8.409,16.272,16.272,0,0,1-5.465,5.886L83.908,140.036a32.282,32.282,0,0,1-3.994,1.682,16,16,0,0,1-4.415.631,14.545,14.545,0,0,1-4.2-.631,28.129,28.129,0,0,1-3.784-1.471c-3.364-1.892-39.1-22.073-39.1-22.494a16.009,16.009,0,0,1-6.306-6.1,19.133,19.133,0,0,1-2.1-8.409V58.891a19.136,19.136,0,0,1,2.1-8.409,18.283,18.283,0,0,1,5.676-5.676l.63-.42L67.3,22.1a22.762,22.762,0,0,1,3.994-1.682A28.536,28.536,0,0,1,75.5,20a31.3,31.3,0,0,1,4.415.42,18.2,18.2,0,0,1,3.574,1.471C87.061,23.784,122.8,43.965,122.8,44.385a16.959,16.959,0,0,1,8.409,14.505Z" transform="translate(370.5 1323.5)" fill="#0e63d7" stroke="#5793e6" stroke-miterlimit="10" stroke-width="4"/>
    <g id="Group_621" data-name="Group 621" transform="translate(419.09 1368.07)">
      <g id="Group_620" data-name="Group 620" transform="translate(7.91 7.93)">
        <path id="Path_1158" data-name="Path 1158" d="M17.5,314.04l-2.638-7.669L7.91,310.55l8-20.421,4.876-1.013a1.956,1.956,0,0,1,1.869.627l2.706,3.086Z" transform="translate(-7.91 -255.77)" fill="none" stroke="#fff" stroke-linecap="round" stroke-linejoin="round" stroke-miterlimit="10" stroke-width="2"/>
        <path id="Path_1159" data-name="Path 1159" d="M184.359,314.04,187,306.371l6.951,4.179-8-20.421-4.876-1.013a1.956,1.956,0,0,0-1.869.627l-2.706,3.086Z" transform="translate(-156.529 -255.77)" fill="none" stroke="#fff" stroke-linecap="round" stroke-linejoin="round" stroke-miterlimit="10" stroke-width="2"/>
        <path id="Path_1160" data-name="Path 1160" d="M31.668,45.548c-1.825,0-3-3.971-4.648-4.505-1.707-.554-4.988,1.947-6.41.913s-.064-4.945-1.109-6.38-5.173-1.316-5.728-3.023c-.535-1.648,2.857-3.989,2.857-5.814s-3.393-4.166-2.857-5.814c.554-1.707,4.693-1.6,5.728-3.023,1.045-1.436-.327-5.335,1.109-6.38s4.7,1.468,6.41.913c1.648-.535,2.823-4.505,4.648-4.505s3,3.971,4.648,4.505c1.707.554,4.988-1.947,6.41-.913s.064,4.945,1.109,6.38,5.173,1.316,5.728,3.023c.535,1.648-2.857,3.989-2.857,5.814s3.393,4.166,2.857,5.814c-.554,1.707-4.693,1.6-5.728,3.023-1.045,1.436.327,5.335-1.109,6.38s-4.7-1.468-6.41-.913C34.669,41.579,33.494,45.548,31.668,45.548Z" transform="translate(-13.028 -7.93)" fill="none" stroke="#fff" stroke-linecap="round" stroke-linejoin="round" stroke-miterlimit="10" stroke-width="2"/>
        <circle id="Ellipse_472" data-name="Ellipse 472" cx="11.775" cy="11.775" r="11.775" transform="translate(1.987 18.808) rotate(-45)" stroke-width="2" stroke="#fff" stroke-linecap="round" stroke-linejoin="round" stroke-miterlimit="10" fill="none"/>
      </g>
    </g>
  </g>
</svg>
