<svg xmlns="http://www.w3.org/2000/svg" width="115" height="114" viewBox="0 0 115 114">
  <g id="Group_651" data-name="Group 651" transform="translate(-375 -2520.5)">
    <ellipse id="Ellipse_473" data-name="Ellipse 473" cx="57.5" cy="57" rx="57.5" ry="57" transform="translate(375 2520.5)" fill="#f08300"/>
    <g id="Group_653" data-name="Group 653" transform="translate(402 2555.5)">
      <path id="Path_1191" data-name="Path 1191" d="M44.5,12.5v8.08H57.2L54.01,12.5Z" fill="none"/>
      <g id="Group_652" data-name="Group 652">
        <path id="Path_1192" data-name="Path 1192" d="M14,30.28a6.44,6.44,0,1,0,6.43,6.44A6.442,6.442,0,0,0,14,30.28Zm0,9.5a3.07,3.07,0,1,1,3.07-3.07A3.071,3.071,0,0,1,14,39.78Z" fill="#fff"/>
        <path id="Path_1193" data-name="Path 1193" d="M47.34,30.28a6.44,6.44,0,1,0,6.43,6.44A6.442,6.442,0,0,0,47.34,30.28Zm0,9.5a3.07,3.07,0,1,1,3.07-3.07A3.071,3.071,0,0,1,47.34,39.78Z" fill="#fff"/>
      </g>
      <path id="Path_1194" data-name="Path 1194" d="M51.83,5.74a1.566,1.566,0,0,0-1.57-1.57H48.48a1.566,1.566,0,0,0-1.57,1.57V8.95h4.92Z" fill="#fff"/>
      <path id="Path_1195" data-name="Path 1195" d="M59.78,19.21l-3.43-6.63c-.7-1.68-1.24-2.78-2.78-2.78H43.31V2.78A2.78,2.78,0,0,0,40.53,0H4.33A2.787,2.787,0,0,0,1.55,2.78V29.17H0v7.84H6.2c0-.11-.03-.21-.03-.33a7.76,7.76,0,0,1,15.52,0c0,.11-.03.22-.03.33H39.58c0-.11-.03-.21-.03-.33a7.76,7.76,0,0,1,15.52,0c0,.11-.03.22-.03.33h3.42a2.78,2.78,0,0,0,2.78-2.78V22.68A5.96,5.96,0,0,0,59.78,19.21ZM33.11,17.38a1.494,1.494,0,0,1-1.49,1.49H26.56v5.06a1.494,1.494,0,0,1-1.49,1.49H21.54a1.494,1.494,0,0,1-1.49-1.49V18.87H14.99a1.494,1.494,0,0,1-1.49-1.49V13.85a1.494,1.494,0,0,1,1.49-1.49h5.06V7.31a1.494,1.494,0,0,1,1.49-1.49h3.53a1.494,1.494,0,0,1,1.49,1.49v5.06h5.06a1.494,1.494,0,0,1,1.49,1.49Zm11.39,3.2V12.5h9.51l3.2,8.08Z" fill="#fff"/>
    </g>
  </g>
</svg>
