<svg xmlns="http://www.w3.org/2000/svg" width="115" height="115" viewBox="0 0 115 115">
  <g id="Group_671" data-name="Group 671" transform="translate(-0.086 -0.086)">
    <g id="Medicine_x5F_17_1_" transform="translate(0.086 0.086)">
      <circle id="Ellipse_476" data-name="Ellipse 476" cx="57.5" cy="57.5" r="57.5" fill="#79cdcd"/>
      <path id="Path_1249" data-name="Path 1249" d="M104.746,56.622l-44-44.012L35.154,40.8,51.008,56.655l-7.376,6.9-5.717-5.717-6.259-1.61L20.171,44.761,15.21,80.115l26.466,26.466c1.971.2,3.992.312,6.046.312A57.483,57.483,0,0,0,104.746,56.622Z" transform="translate(9.778 8.106)" fill="#52bab2"/>
      <g id="Group_673" data-name="Group 673" transform="translate(24.084 15.607)">
        <path id="Path_1250" data-name="Path 1250" d="M42.451,9.5A19.041,19.041,0,1,0,61.491,28.541,19.064,19.064,0,0,0,42.451,9.5Z" transform="translate(-9.035 -9.5)" fill="#3689e6"/>
        <path id="Path_1251" data-name="Path 1251" d="M48.526,22.039H43.894V17.406c0-2.2-1.331-3.976-2.974-3.976H38.949c-1.659,0-2.99,1.774-2.99,3.976v4.633H31.326c-2.185,0-3.976,1.331-3.976,2.99V27c0,1.643,1.774,2.99,3.976,2.99h4.633v4.633c0,2.185,1.331,3.976,2.99,3.976H40.92c1.643,0,2.974-1.774,2.974-3.976V29.99h4.633c2.185,0,3.976-1.331,3.976-2.99V25.029C52.486,23.386,50.711,22.039,48.526,22.039Z" transform="translate(-6.502 -6.974)" fill="#fff"/>
        <path id="Path_1252" data-name="Path 1252" d="M19.18,48.564H37.843A10.79,10.79,0,0,0,27.049,37.77H19.18Z" transform="translate(-11.754 8.674)" fill="#fff"/>
        <path id="Path_1253" data-name="Path 1253" d="M16.09,46.083A3.709,3.709,0,0,1,19.8,42.37H74.51a3.709,3.709,0,0,1,3.713,3.713h0A3.709,3.709,0,0,1,74.51,49.8H19.8a3.709,3.709,0,0,1-3.713-3.713Z" transform="translate(-13.741 11.631)" fill="#24313b"/>
        <path id="Path_1254" data-name="Path 1254" d="M54.533,69.125a3.709,3.709,0,0,1-3.713-3.713V35.463a3.709,3.709,0,0,1,3.713-3.713h0a3.709,3.709,0,0,1,3.713,3.713V65.412a3.709,3.709,0,0,1-3.713,3.713Z" transform="translate(8.586 4.804)" fill="#24313b"/>
        <path id="Path_1255" data-name="Path 1255" d="M18.373,69.125a3.709,3.709,0,0,1-3.713-3.713V35.463a3.709,3.709,0,0,1,3.713-3.713h0a3.709,3.709,0,0,1,3.713,3.713V65.412a3.709,3.709,0,0,1-3.713,3.713Z" transform="translate(-14.66 4.804)" fill="#24313b"/>
        <path id="Path_1256" data-name="Path 1256" d="M63.33,37.852a10.669,10.669,0,0,0-1.265-.082H42.154a10.794,10.794,0,1,0,0,21.587H62.065a10.671,10.671,0,0,0,1.265-.082Z" transform="translate(-3.924 8.674)" fill="#005ea5"/>
      </g>
    </g>
  </g>
</svg>
