<svg xmlns="http://www.w3.org/2000/svg" width="173" height="118" viewBox="0 0 173 118">
  <g id="Group_804" data-name="Group 804" transform="translate(-1257 -1376)">
    <path id="Path_1517" data-name="Path 1517" d="M0,0H173V118H0Z" transform="translate(1257 1376)" fill="#fff"/>
    <g id="Group_640" data-name="Group 640" transform="translate(1270.549 1378.021)">
      <path id="Path_1183" data-name="Path 1183" d="M15.688,60.355c-5.869-9.341-9.834-19.674-8.466-30.6A32.178,32.178,0,0,1,16.762,11.1,37.768,37.768,0,0,1,43.556,0c32.318,0,26.75,21.925,30.913,26.1C78.632,21.925,73.057,0,105.381,0a37.78,37.78,0,0,1,26.794,11.1c36.054,36.054-35.8,90.157-53.772,102.461-4.869,3.332-3.207,3.214-8.3-.3C55.721,103.344,41.769,92.025,30.06,78.83A142.54,142.54,0,0,1,15.688,60.355Z" transform="translate(-0.781)" fill="#ffec6c"/>
      <path id="Path_1184" data-name="Path 1184" d="M12.247,59.015C6.9,50.513,3.289,41.091,4.532,31.133a29.26,29.26,0,0,1,8.694-16.99A34.4,34.4,0,0,1,37.636,4.03C67.085,4.03,62.01,24.006,65.8,27.816c3.8-3.81-1.28-23.786,28.162-23.786a34.4,34.4,0,0,1,24.411,10.113C151.218,46.99,85.752,96.29,69.38,107.5c-4.435,3.038-2.927,2.927-7.568-.272C48.713,98.2,36,87.876,25.331,75.858A131.235,131.235,0,0,1,12.247,59.015Z" transform="translate(-0.076 -1.066)" fill="#fff"/>
      <path id="Path_1185" data-name="Path 1185" d="M12.154,59.037C2.754,43.805-.291,27.6,13.169,14.143A34.4,34.4,0,0,1,37.58,4.03c29.449,0,24.374,19.976,28.162,23.786,3.8-3.81-1.28-23.786,28.162-23.786a34.4,34.4,0,0,1,24.411,10.113C151.162,46.99,85.7,96.29,69.323,107.5c-4.435,3.038-2.927,2.927-7.568-.272A240.556,240.556,0,0,1,30.982,81.882" transform="translate(-0.019 -1.066)" fill="none" stroke="#172466" stroke-linecap="round" stroke-linejoin="round" stroke-miterlimit="22.926" stroke-width="5"/>
      <path id="Path_1186" data-name="Path 1186" d="M4,77.71H30.845l7.024-41.85L46,77.71h11.43L64.45,97.531c6.391-17.049,10.621-27.912,16.041-46.255L88.3,77.71h23.44" transform="translate(0 -9.485)" fill="none" stroke="#172466" stroke-linecap="round" stroke-linejoin="round" stroke-miterlimit="22.926" stroke-width="5"/>
    </g>
  </g>
</svg>
