<svg id="分離模式" xmlns="http://www.w3.org/2000/svg" viewBox="0 0 444.71 268.91"><title>ind_mou_r</title><path d="M27.38,172.14c3,1.48,6.25,2.72,9.52,2.21,3.88-.6,7.58-3.59,11.32-2.42,1.3.41,2.55,1.32,3.89,1.08a7.83,7.83,0,0,0,2.72-1.64,6.51,6.51,0,0,1,6.52-.37l.48-4.72c5.19-1.26,8.83,7,14.12,6.26,1.17-4.81-1.77-9.65-1.9-14.6s3-11.61-2.32-14.55l-6.28-7.87c-.86-2.3-3-4-4.15-6.17a37.66,37.66,0,0,1-1.55-4,30.43,30.43,0,0,0-4.38-7,3,3,0,0,0-1.19-1.09c-.45-.17-1-.13-1.41-.26a3.88,3.88,0,0,1-1.88-1.77A79.27,79.27,0,0,0,39.82,102c-2.06-2-4.27-3.91-5.76-6.36-1.34-2.23-2-4.79-3.38-7-2.25-3.72-6.09-6.14-9-9.35a12.92,12.92,0,0,1-2.42-3.55.37.37,0,0,1,.57-.42,6.88,6.88,0,0,0,3.3,1.2,1.23,1.23,0,0,0,1.23-1.66,16.94,16.94,0,0,0-3.44-5.42c-.93-1-3.17-1.4-3.79-2.61s.54-3.4,1.58-4.28A3.37,3.37,0,0,1,17.42,59a.47.47,0,0,1,.77-.22l2.91,2.64a65.29,65.29,0,0,1-3.81-12l.25-.22s12,15,18.61,19.83,16.49,9.35,16.49,9.35c1.43.12,2.57-.78,3.68-1.79.35,1.26-.52,2.86,0,4.16.18.47.53.86.68,1.34.34,1.1-.47,2.21-.62,3.35A5.67,5.67,0,0,0,57.6,89,83.43,83.43,0,0,0,69.48,103.6a6.76,6.76,0,0,0,2.45,1.73,24.51,24.51,0,0,0,3,.38c2.28.44,3.91,2.4,5.39,4.19A117.13,117.13,0,0,0,91,121.17a.45.45,0,0,0,.69-.55l-4.23-7.22c-1-1.77-2.09-3.94-1.29-5.77a.45.45,0,0,1,.4-.27,4.24,4.24,0,0,1,2.5,1.58c.78.78,2,1.5,2.92.92s1.06-2.33,2.19-2.51a2.09,2.09,0,0,1,1.35.46l3.17,2a.44.44,0,0,0,.61-.6C93.55,100.13,85.19,93,77.15,85.86a2.89,2.89,0,0,1-1-1.3,4.89,4.89,0,0,1,0-1.43,6.54,6.54,0,0,0-1.23-3.28c-2-3.35-4.47-7.57-6.57-11.07a25,25,0,0,1,6.4-3.89,9.72,9.72,0,0,1,1-.29,23.77,23.77,0,0,0,2.53,6.65A9.86,9.86,0,0,0,80,73.74c1.3,1.21,3.14,1.65,4.62,2.64,2.82,1.91,4.13,5.74,7.28,7.05a1,1,0,0,0,.56.1c.75-.18.27-1.48.81-2a1.31,1.31,0,0,1,.93-.28,16,16,0,0,1,4.23.55,31.63,31.63,0,0,0,1.74,2.78,23.77,23.77,0,0,0,2.12,1.9,17.84,17.84,0,0,1,3.22,4.67A110,110,0,0,0,112,101.37a7.3,7.3,0,0,0,1.57,1.75c.7.52,1.57.77,2.27,1.3a7.91,7.91,0,0,1,1.93,2.5,37,37,0,0,0,4.37,5.84,2.36,2.36,0,0,0,.8.64,3.84,3.84,0,0,0,1.12.16,5.09,5.09,0,0,1,3.66,2.49c-4.51-7.1-7.49-15-10.43-22.9a37.38,37.38,0,0,1-1.34-4A31.83,31.83,0,0,0,113.06,82a12.86,12.86,0,0,1-1.27-2.86,1.69,1.69,0,0,1-.1-.8.64.64,0,0,1,.54-.54,1,1,0,0,1,.5.18,10.13,10.13,0,0,1,4.06,3.54c.44.82.65,1.75,1.12,2.56a2.08,2.08,0,0,0,.64.68,3.22,3.22,0,0,0,2.24.52c1.66,2.34,2.54,5.13,3.68,7.77,3.52,8.09,9.66,14.73,15.85,21a45.89,45.89,0,0,1,4.27,4.77c1,1.35,1.82,2.8,2.73,4.2,2.34,3.6,5.42,6.53,8.32,9.69,1.2,1.3,1.55,3.44,3.17,4.17,1.16.52,2.51.07,3.71-.35a74.52,74.52,0,0,1,20.89-3.77Q195,140.23,206,148.47a6,6,0,0,0,1.51.93c1.11.41,2.35.18,3.52.39,2.75.51,5,3.49,7.72,2.82.14-1.66-1.68-2.76-2.33-4.28-.27-.64-.33-1.35-.61-2a6.92,6.92,0,0,0-2.41-2.46,30.74,30.74,0,0,1-4.47-4.14,3.11,3.11,0,0,1-1-2.16,13.41,13.41,0,0,1,.77-2.05,4,4,0,0,0-1.71-3.79l-8.83-6.82c-1.31-1-2.62-2-4-2.9s-2.72-1.5-4.07-2.27c-7.24-4.2-12.63-10.91-19.06-16.29a5.9,5.9,0,0,0-2.42-1.42c-.53-.12-1.08-.09-1.61-.23a4.87,4.87,0,0,1-1.89-1.09A23.26,23.26,0,0,1,160.36,95c.62-3.41-1.38-6.78-3.84-9.22s-5.47-4.33-7.73-7c-1.56-1.81-2.73-3.92-4.23-5.77a8.21,8.21,0,0,0-1.82-1.76c-.6-.41-1.28-.69-1.89-1.08a9.89,9.89,0,0,1-2.61-2.59c-2.46-3.27-4.17-7.19-7.3-9.84l5.82,12.33c-2.33-.5-3.92-2.64-5-4.78s-1.85-4.47-3.55-6.14c-.68.69-1.44,1.27-1.27,2.22-2.58-1.94-3.65-5.41-6.22-7.36-1.44-1.09-3.51-2-3.57-3.8a1.58,1.58,0,0,1,.4-1.07c2.81-3.28,4.14,1.68,6.15.8,1-.42.92-1.75.73-2.76q-1.35-7.2-3.28-14.27a8.12,8.12,0,0,1-.42-3.89,2,2,0,0,1,.7-1.22c1.08-.78,2.52.35,3.27,1.45,3.11,4.54,4.54,10.34,8.78,13.84l-2.69-5.07a2.57,2.57,0,0,1-.35-2.53,2.53,2.53,0,0,1,2.72-1.23c1.75.32,2.83,1.89,3.6,3.43.3.61,1,1.34,1.51.85s-.19-1.68.47-1.93,1.26.48,1.54,1.15,1.13,1.42,1.61.87c.15-.16.19-.39.33-.55.43-.48,1.19,0,1.62.51a30.13,30.13,0,0,0,6.54,5.53,7.54,7.54,0,0,0,4.67,1.51c-.13-.6,0-.74.3-1.28,3,.31,4.85,4.46,7.89,4.18.09-.38.19-.75.28-1.12,1,.86,2.55.51,3.88.67,1.72.2,3.18,1.3,4.63,2.25a32.9,32.9,0,0,0,5.57,2.94,1.33,1.33,0,0,0,.95.12c.32-.13.2-.73-.11-.87l-3.11-1.72c-1.41-1.31-3.3-2.09-4.77-3.39a21.8,21.8,0,0,1-2.38-2.69,41.06,41.06,0,0,0-8.95-8.1l-.05,1.4c-1.61.3-2.95-1.15-3.93-2.46L151,29.89c-.35-.46-1-1-1.43-.58A20.24,20.24,0,0,0,153,35.65c-.46.48-1.24.1-1.75-.32a23.82,23.82,0,0,1-5.39-6.23c-1-1.62-1.76-3.39-3.18-4.64-.35-.31-.86-.59-1.28-.36s-.43,1.23-1,1.55c-.88.52-1.56-1.2-2.57-1.27-.6.69-.11,2.19-1,2.4a1.07,1.07,0,0,1-.73-.15c-2.3-1.22-2-4.59-3.25-6.9-.75-1.43-2.18-3-1.33-4.39L133,17.45c.12.17.25.37.46.42.9.24.78-1.94,1.7-1.86a15.16,15.16,0,0,0,2.05,2.67,1.36,1.36,0,0,0,.75.48c.5.07.92-.36,1.4-.48a1.65,1.65,0,0,1,1.64.79,9.06,9.06,0,0,1,.78,1.77,7,7,0,0,0,4.65,4.06,31.47,31.47,0,0,0-4.88-10,2,2,0,0,1,1.76.53c-.52-2.46-3.05-3.9-4.46-6a12.41,12.41,0,0,1-1.61-4.05A37.28,37.28,0,0,1,136.37.4c5.74,6.29,10.82,12.18,16.59,18.49C157.4,23.75,163,31,167.48,35.81c6.2,6.78,12.72,11.81,18.92,18.6l11.33-.59a6.64,6.64,0,0,0,1.54-.21,6.34,6.34,0,0,0,1.55-.85c1.54-.84,6.5-1,6.5-1s5.55-4.44,6.56-5.15a1.27,1.27,0,0,1,1.72.1c1.41-1.71,2.58-1.77,2.58-1.77,2.12,1.36,4.88,2.62,7,4a19.41,19.41,0,0,1,4.24-3.34c2.05-1.34,3.79-3.24,5.85-4.58a1.42,1.42,0,0,1,.54-.26c.6-.1,1.23.77,1.83.74,1.43-1.86,2.74-4.87,4.79-6a1.13,1.13,0,0,1,.32-.13c.59-.11.92.77,1.51.89s1-.44,1.34-.86a1.55,1.55,0,0,1,1.87.1c4.34,4.9,28.59,32.85,32.94,37.75l6,6.74a7,7,0,0,0,2.13,1.84c.36.18.75.29,1.1.48a5.55,5.55,0,0,1,1.56,1.64,34.74,34.74,0,0,0,5.66,5.84c1.33,4.22,5.41,6.94,8.67,10,3.88,3.62,6.84,8.1,9.75,12.53a11.41,11.41,0,0,1,1.61,3.07c.32,1.13.1,2.64-1,3s-2.5-.75-3.58-.17c-.33.17-.57.48-.89.68a2.94,2.94,0,0,1-2.65-.18,27.59,27.59,0,0,1-5.56-3.18A3.8,3.8,0,0,0,302,115a8.29,8.29,0,0,0,1.71,2.51c1.59,2,2.32,4.54,3.35,6.89a28,28,0,0,0,5.23,8c1.55,1.66,3.35,3.19,4.3,5.26.43.94.68,2,1.18,2.87a11.55,11.55,0,0,0,2,2.39l5.54,5.55a2.14,2.14,0,0,1-.17,3.08,5.27,5.27,0,0,1-3.36.73,24.94,24.94,0,0,1-21.28-9.09c-1.94-2.08-3.67-4.51-6.23-5.74-1.82-.87-4-1.08-5.57-2.29-2.67-2-3.06-6.12-5.79-8-1.3-.91-2.55-1.15-3.66-2.3a37.51,37.51,0,0,0-5-4.38,4.29,4.29,0,0,0-1.62-.82,7.43,7.43,0,0,0-1.82.08c-2.3.16-4.44-1.09-6.41-2.3l-9.46-5.82A27,27,0,0,1,250,108c-1.77-1.71-3.6-3.52-5.51-5.08-1.38-1.13-2.87-2.31-4.64-2.51a23.78,23.78,0,0,1-2.4-.16c-1.82-.41-2.92-2.19-4-3.69-4.32-5.85-11.28-9.17-16.25-14.47-2-2.12-3.66-4.56-5.89-6.42A8.59,8.59,0,0,1,209,73.33c-.28-.51-.42-1.09-.69-1.61-.79-1.55-2.5-2.33-4-3.12-6.45-3.27-11.88-8.19-17.22-13a30.05,30.05,0,0,0,9.78,13.69,2.67,2.67,0,0,1,.58.53,2.77,2.77,0,0,1,.34.88,17.42,17.42,0,0,0,3.14,5.54c.47.53,1,1.38.46,1.86a1.3,1.3,0,0,1-.54.23,7.14,7.14,0,0,1-5.19-.85c-1.42-.85-2.55-2.22-4.14-2.72-1.75-.54-3.71.1-5.46-.47s-2.9-2.23-4.2-3.55a11.57,11.57,0,0,0-9.4-3.61c-1.36.17-2.74.63-4.07.3-3.6-.9-7.16-4-10.86-4a3.85,3.85,0,0,0-2.38.66,3.42,3.42,0,0,0-1,1.82c-1.22,4.63,1.88,9.2,5,12.86,6.28,7.47,13.28,14.48,21.63,19.51A5.65,5.65,0,0,0,184,99.38a18.47,18.47,0,0,0,3-1.06c2.25-.64,4.56.59,6.57,1.78a451.74,451.74,0,0,1,52.58,36.7,8.84,8.84,0,0,0,2.42,1.55,17.08,17.08,0,0,0,2,.46c2.82.63,5.14,2.58,7.33,4.46,5,4.28,11.5,8.19,16.94,11.84,1.16.78,2.46,1.59,3.85,1.43,1.07-.13,2.05-.83,3.12-.78a4.53,4.53,0,0,1,2.34,1.1c2.22,1.65,4.4,3.33,6.56,5.06,11.34,9.11,24.36,16.36,36.29,24.7,2.52,1.76,8.8-.29,10.65-2.74,1.19-1.59,1.73-3.6,3-5.13,3.12-3.81,8.95-3.2,13.78-4.17a27.36,27.36,0,0,1,3.68-.68c1.22-.07,2.45.14,3.68,0,3.72-.31,6.77-3.76,7.08-7.48s-4-5.82-6.72-8.39C357.72,153.83,350.06,150,344,145s-12.36-14.22-12.36-14.22c-2.27-3.48-.91-5.75-.91-5.75,4.39.91,9.73,5,9.73,5,3.64,2.93,12.21,11.3,12.61,10.39s-9.18-8.87-11.6-12-7.66-7.36-10.49-9.48S319.7,93.61,320.7,93.41s7.77,8.07,8.38,8.07.4-1.31-3.23-5.75a40.21,40.21,0,0,1-4.78-7.44c.49-.76,1-1.5,1.59-2.24,25.41,29.4,51,59,81.82,82.73,26.59,22.91,40.23,31.61,40.23,31.61v68.52H0V150.63C8.36,158.77,16.94,167,27.38,172.14Z" style="fill:#c1d3d2"/><path d="M243,76.85l6.2,6.28a13,13,0,0,0,2.32,2c1.14.7,2.46,1,3.63,1.68a3.7,3.7,0,0,1,2.16,3.12,12.32,12.32,0,0,0-.14-6.18,4.53,4.53,0,0,0-.49-1.18,13.62,13.62,0,0,0-1.11-1.3,6.65,6.65,0,0,1-1.11-4.33c0-1.31.2-2.76-.61-3.79a11.83,11.83,0,0,0-1.41-1.23c-1.81-1.67-1.73-4.47-1.79-6.93,0-1.11-.21-2.41-1.18-3-.37-.22-.82-.29-1.21-.49-1.52-.75-1.62-2.82-1.58-4.51a107,107,0,0,0-1.15-15.16c0-.36-.44-.38-.79-.3-.32.89.05,1.86,0,2.81s-.82,2-1.69,1.69a1.72,1.72,0,0,1-.69-.65,15,15,0,0,1-1.65-3c-.78-.1-1.34.74-1.52,1.5a4,4,0,0,1-.81,2.17c-1.12,1-3-.13-4.48.48a3.69,3.69,0,0,0-1.54,1.63c-.63,1-1.24,2.1-1.81,3.18a5.17,5.17,0,0,0-.81,2.49,5.29,5.29,0,0,0,.66,2.07l3.41,7.13c-2-.73-2.76-3-3.56-4.9s-2.27-4.05-4.35-3.91c-.21,3.88,3.16,7.08,3.72,10.92.22,1.52,0,3.07.07,4.61a2.55,2.55,0,0,0,.42,1.43,3.66,3.66,0,0,0,1.72.87c3.45,1.23,5,5.09,7.08,8.11.57.84,1.47,1.73,2.45,1.45A5.71,5.71,0,0,1,243,76.85Z" style="fill:#8dacac"/><path d="M236.93,82.17a104.3,104.3,0,0,1-15.29-13.25c.87-.75.74-2.12.45-3.23-1.47-5.63-5.39-10.66-5.45-16.48-.14,2.2-.48,4.4-.44,6.61-.53.25-1.1-.22-1.47-.68a11.53,11.53,0,0,1-2.13-4.29,1.18,1.18,0,0,0-.26-.58c-.41-.37-1.08.1-1.2.63a14.79,14.79,0,0,0,0,1.63C211,54,209.38,54.72,208,55a22.79,22.79,0,0,1-7,.49,1.48,1.48,0,0,0-1,.16,1.3,1.3,0,0,0-.42.81,9.42,9.42,0,0,0-.2,3c7.42,5.24,15.47,10.44,23.14,15.3,5.79,3.66,11.82,7.37,15.76,13a24.88,24.88,0,0,0,2.08,2.81c2.4,2.55,6.09,3.3,9.54,3.93l-7.24-8.12C241.28,84.87,238.54,83.32,236.93,82.17Z" style="fill:#8dacac"/><path d="M275.32,71l9,13.57c1,1.53,2.08,3.23,1.86,5.05-2.31-1.94-3-5.17-4.74-7.65a21.64,21.64,0,0,0-4.94-4.6,5.76,5.76,0,0,0-1.93-1.08,5,5,0,0,1-1.22-.32,2.56,2.56,0,0,1-.83-.84,35.87,35.87,0,0,1-3.51-6.1c-.44-1-2.81-5.59-2.1-6.47C268.75,60.34,274.53,69.81,275.32,71Z" style="fill:#8dacac"/><path d="M138.85,9.8c1.41,2.08,3.94,3.52,4.46,6a2,2,0,0,0-1.76-.53,31.47,31.47,0,0,1,4.88,10.05,7,7,0,0,1-4.65-4.06,9.06,9.06,0,0,0-.78-1.77,1.65,1.65,0,0,0-1.64-.79c-.48.12-.9.55-1.4.48a1.36,1.36,0,0,1-.75-.48A15.16,15.16,0,0,1,135.16,16c-.92-.08-.8,2.1-1.7,1.86-.21-.05-.34-.25-.46-.42l-1.44-2.11c-.85,1.38.58,3,1.33,4.39,1.22,2.31,1,5.68,3.25,6.9a1.07,1.07,0,0,0,.73.15c.89-.21.4-1.71,1-2.4,1,.07,1.69,1.79,2.57,1.27.53-.32.42-1.24,1-1.55s.93,0,1.28.36c1.42,1.25,2.22,3,3.18,4.64a23.82,23.82,0,0,0,5.39,6.23c.51.42,1.29.8,1.75.32a20.24,20.24,0,0,1-3.48-6.34c.43-.39,1.08.12,1.43.58l4.32,5.74c1,1.31,2.32,2.76,3.93,2.46l.05-1.4a41.06,41.06,0,0,1,8.95,8.1,21.8,21.8,0,0,0,2.38,2.69c1.47,1.3,3.36,2.08,4.77,3.39l3.11,1.72c.31.14.43.74.11.87a1.33,1.33,0,0,1-.95-.12,32.9,32.9,0,0,1-5.57-2.94c-1.45-.95-2.91-2-4.63-2.25-1.33-.16-2.86.19-3.88-.67-.09.37-.19.74-.28,1.12-3,.28-4.86-3.87-7.89-4.18-.31.54-.43.68-.3,1.28a7.54,7.54,0,0,1-4.67-1.51,30.13,30.13,0,0,1-6.54-5.53c-.43-.48-1.19-1-1.62-.51-.14.16-.18.39-.33.55-.48.55-1.32-.19-1.61-.87s-.91-1.53-1.54-1.15,0,1.42-.47,1.93-1.21-.24-1.51-.85c-.77-1.54-1.85-3.11-3.6-3.43a2.53,2.53,0,0,0-2.72,1.23,2.57,2.57,0,0,0,.35,2.53l2.69,5.07c-4.24-3.5-5.67-9.3-8.78-13.84-.75-1.1-2.19-2.23-3.27-1.45a2,2,0,0,0-.7,1.22,8.12,8.12,0,0,0,.42,3.89q1.93,7.07,3.28,14.27c.19,1,.22,2.34-.73,2.76-2,.88-3.34-4.08-6.15-.8a1.58,1.58,0,0,0-.4,1.07c.06,1.81,2.13,2.71,3.57,3.8,2.57,2,3.64,5.42,6.22,7.36-.17-.95.59-1.53,1.27-2.22,1.7,1.67,2.5,4,3.55,6.14s2.65,4.28,5,4.78l-5.82-12.33c3.13,2.65,4.84,6.57,7.3,9.84a9.89,9.89,0,0,0,2.61,2.59c.61.39,1.29.67,1.89,1.08a8.21,8.21,0,0,1,1.82,1.76c1.5,1.85,2.67,4,4.23,5.77,2.26,2.62,5.26,4.51,7.73,7S161,91.61,160.36,95a23.26,23.26,0,0,0,4.69,5.71,4.87,4.87,0,0,0,1.89,1.09c.53.14,1.08.11,1.61.23a5.9,5.9,0,0,1,2.42,1.42c6.43,5.38,11.82,12.09,19.06,16.29,1.35.77,2.75,1.46,4.07,2.27s2.72,1.89,4,2.9l8.83,6.82a4,4,0,0,1,1.71,3.79,13.41,13.41,0,0,0-.77,2.05,3.11,3.11,0,0,0,1,2.16,30.74,30.74,0,0,0,4.47,4.14,6.92,6.92,0,0,1,2.41,2.46c.28.63.34,1.34.61,2,.65,1.52,2.47,2.62,2.33,4.28-2.72.67-5-2.31-7.72-2.82-1.17-.21-2.41,0-3.52-.39a6,6,0,0,1-1.51-.93q-11-8.24-22.6-15.67a74.52,74.52,0,0,0-20.89,3.77c-1.2.42-2.55.87-3.71.35-1.62-.73-2-2.87-3.17-4.17-2.9-3.16-6-6.09-8.32-9.69-.91-1.4-1.74-2.85-2.73-4.2a45.89,45.89,0,0,0-4.27-4.77c-6.19-6.3-12.33-12.94-15.85-21-1.14-2.64-2-5.43-3.68-7.77a3.22,3.22,0,0,1-2.24-.52,2.08,2.08,0,0,1-.64-.68c-.47-.81-.68-1.74-1.12-2.56A10.13,10.13,0,0,0,112.73,78a1,1,0,0,0-.5-.18.64.64,0,0,0-.54.54,1.69,1.69,0,0,0,.1.8A12.86,12.86,0,0,0,113.06,82a31.83,31.83,0,0,1,2.87,7.15,37.38,37.38,0,0,0,1.34,4c2.94,7.87,5.92,15.8,10.43,22.9a5.09,5.09,0,0,0-3.66-2.49,3.84,3.84,0,0,1-1.12-.16,2.36,2.36,0,0,1-.8-.64,37,37,0,0,1-4.37-5.84,7.91,7.91,0,0,0-1.93-2.5c-.7-.53-1.57-.78-2.27-1.3a7.3,7.3,0,0,1-1.57-1.75,110,110,0,0,1-6.43-10.25,17.84,17.84,0,0,0-3.22-4.67,23.77,23.77,0,0,1-2.12-1.9,31.63,31.63,0,0,1-1.74-2.78,16,16,0,0,0-4.23-.55,1.31,1.31,0,0,0-.93.28c-.54.55-.06,1.85-.81,2a1,1,0,0,1-.56-.1c-3.15-1.31-4.46-5.14-7.28-7.05-1.48-1-3.32-1.43-4.62-2.64a9.86,9.86,0,0,1-1.79-2.49,23.77,23.77,0,0,1-2.53-6.65c.66-.17,1.34-.32,2-.55C82,62.55,83,59,86.28,55.78c1.19-1.17,2.53-2.16,3.81-3.23a86.65,86.65,0,0,0,7.08-7.26c1.29-1.38,2.75-2.85,4-4.24,2.4-2.58,5.07-5,7.46-7.56,3.24-3.52,6-8,9.27-11.47,2.27-2.47,4.55-4.94,6.78-7.45A84.63,84.63,0,0,0,131.59,6C133,4,134.8,2.08,136,0l.36.4a37.28,37.28,0,0,0,.87,5.35A12.41,12.41,0,0,0,138.85,9.8Z" style="fill:#8dacac"/><path d="M76.16,83.13a4.89,4.89,0,0,0,0,1.43,2.89,2.89,0,0,0,1,1.3c8,7.15,16.4,14.27,22.13,23.34a.44.44,0,0,1-.61.6l-3.17-2a2.09,2.09,0,0,0-1.35-.46c-1.13.18-1.22,1.9-2.19,2.51s-2.14-.14-2.92-.92a4.24,4.24,0,0,0-2.5-1.58.45.45,0,0,0-.4.27c-.8,1.83.26,4,1.29,5.77l4.23,7.22a.45.45,0,0,1-.69.55A117.13,117.13,0,0,1,80.3,109.9c-1.48-1.79-3.11-3.75-5.39-4.19a24.51,24.51,0,0,1-3-.38,6.76,6.76,0,0,1-2.45-1.73A83.43,83.43,0,0,1,57.6,89a5.67,5.67,0,0,1-1.24-3.58c.15-1.14,1-2.25.62-3.35-.15-.48-.5-.87-.68-1.34-.5-1.3.37-2.9,0-4.16.53-.48,1-1,1.58-1.41,1.92-1.55,4.41-2.2,6.5-3.51,1.3-.82,2.62-1.84,4-2.86,2.1,3.5,4.54,7.72,6.57,11.07A6.54,6.54,0,0,1,76.16,83.13Z" style="fill:#8dacac"/><path d="M329.08,101.48c-.61,0-7.37-8.27-8.38-8.07s7.47,23.4,10.29,25.52,8.07,6.35,10.49,9.48,12,11.1,11.6,12-9-7.46-12.61-10.39c0,0-5.34-4.13-9.73-5,0,0-1.36,2.27.91,5.75,0,0,6.3,9.18,12.36,14.22s13.71,8.88,18.15,13.12c2.7,2.57,7,4.67,6.72,8.39s-3.36,7.17-7.08,7.48c-1.23.1-2.46-.11-3.68,0a27.36,27.36,0,0,0-3.68.68c-4.83,1-10.66.36-13.78,4.17-1.26,1.53-1.8,3.54-3,5.13-1.85,2.45-8.13,4.5-10.65,2.74-11.93-8.34-24.95-15.59-36.29-24.7-2.16-1.73-4.34-3.41-6.56-5.06a4.53,4.53,0,0,0-2.34-1.1c-1.07,0-2.05.65-3.12.78-1.39.16-2.69-.65-3.85-1.43-5.44-3.65-12-7.56-16.94-11.84-2.19-1.88-4.51-3.83-7.33-4.46a17.08,17.08,0,0,1-2-.46,8.84,8.84,0,0,1-2.42-1.55,451.74,451.74,0,0,0-52.58-36.7c-2-1.19-4.32-2.42-6.57-1.78a18.47,18.47,0,0,1-3,1.06,5.65,5.65,0,0,1-3.35-1.11c-8.35-5-15.35-12-21.63-19.51-3.08-3.66-6.18-8.23-5-12.86a3.42,3.42,0,0,1,1-1.82,3.85,3.85,0,0,1,2.38-.66c3.7-.07,7.26,3.06,10.86,4,1.33.33,2.71-.13,4.07-.3a11.57,11.57,0,0,1,9.4,3.61c1.3,1.32,2.44,3,4.2,3.55s3.71-.07,5.46.47c1.59.5,2.72,1.87,4.14,2.72a7.14,7.14,0,0,0,5.19.85,1.3,1.3,0,0,0,.54-.23c.53-.48,0-1.33-.46-1.86a17.42,17.42,0,0,1-3.14-5.54,2.77,2.77,0,0,0-.34-.88,2.67,2.67,0,0,0-.58-.53A30.05,30.05,0,0,1,187,55.55c5.34,4.86,10.77,9.78,17.22,13,1.54.79,3.25,1.57,4,3.12.27.52.41,1.1.69,1.61a8.59,8.59,0,0,0,2.37,2.36c2.23,1.86,3.9,4.3,5.89,6.42,5,5.3,11.93,8.62,16.25,14.47,1.1,1.5,2.2,3.28,4,3.69a23.78,23.78,0,0,0,2.4.16c1.77.2,3.26,1.38,4.64,2.51,1.91,1.56,3.74,3.37,5.51,5.08a27,27,0,0,0,4.86,3.5l9.46,5.82c2,1.21,4.11,2.46,6.41,2.3a7.43,7.43,0,0,1,1.82-.08,4.29,4.29,0,0,1,1.62.82,37.51,37.51,0,0,1,5,4.38c1.11,1.15,2.36,1.39,3.66,2.3,2.73,1.92,3.12,6,5.79,8,1.61,1.21,3.75,1.42,5.57,2.29,2.56,1.23,4.29,3.66,6.23,5.74a24.94,24.94,0,0,0,21.28,9.09,5.27,5.27,0,0,0,3.36-.73,2.14,2.14,0,0,0,.17-3.08l-5.54-5.55a11.55,11.55,0,0,1-2-2.39c-.5-.91-.75-1.93-1.18-2.87-.95-2.07-2.75-3.6-4.3-5.26a28,28,0,0,1-5.23-8c-1-2.35-1.76-4.88-3.35-6.89A8.29,8.29,0,0,1,302,115a3.8,3.8,0,0,1,1.13.49,27.59,27.59,0,0,0,5.56,3.18,2.94,2.94,0,0,0,2.65.18c.32-.2.56-.51.89-.68,1.08-.58,2.42.55,3.58.17s1.34-1.89,1-3a11.41,11.41,0,0,0-1.61-3.07c-2.91-4.43-5.87-8.91-9.75-12.53-3.26-3-7.34-5.77-8.67-10,1.35,1.14,2.75,2.22,4.15,3.3,3.06,2.36,6.17,4.64,9.23,7,1.3-1.77,3.6-2.5,5.21-4,.83-.78,1.47-1.76,2.35-2.48a6.1,6.1,0,0,0,1.12-1,5.24,5.24,0,0,0,.63-1.33,15.19,15.19,0,0,1,1.56-3,40.21,40.21,0,0,0,4.78,7.44C329.48,100.17,329.68,101.48,329.08,101.48Z" style="fill:#8dacac"/><path d="M0,64.71v85.92c8.36,8.14,16.94,16.33,27.38,21.51,3,1.48,6.25,2.72,9.52,2.21,3.88-.6,7.58-3.59,11.32-2.42,1.3.41,2.55,1.32,3.89,1.08a7.83,7.83,0,0,0,2.72-1.64,6.51,6.51,0,0,1,6.52-.37l.48-4.72c5.19-1.26,8.83,7,14.12,6.26,1.17-4.81-1.77-9.65-1.9-14.6s3-11.61-2.32-14.55l-6.28-7.87c-.86-2.3-3-4-4.15-6.17a37.66,37.66,0,0,1-1.55-4,30.43,30.43,0,0,0-4.38-7,3,3,0,0,0-1.19-1.09c-.45-.17-1-.13-1.41-.26a3.88,3.88,0,0,1-1.88-1.77A79.27,79.27,0,0,0,39.82,102c-2.06-2-4.27-3.91-5.76-6.36-1.34-2.23-2-4.79-3.38-7-2.25-3.72-6.09-6.14-9-9.35a12.92,12.92,0,0,1-2.42-3.55.37.37,0,0,1,.57-.42,6.88,6.88,0,0,0,3.3,1.2,1.23,1.23,0,0,0,1.23-1.66,16.94,16.94,0,0,0-3.44-5.42c-.93-1-3.17-1.4-3.79-2.61s.54-3.4,1.58-4.28A3.37,3.37,0,0,1,17.42,59a.47.47,0,0,1,.77-.22l2.91,2.64a65.29,65.29,0,0,1-3.81-12c-1.42,1.21-8.95,7.69-10,9.47C6,60.83,0,64.71,0,64.71Z" style="fill:#8dacac"/><path d="M10.29,79a34.31,34.31,0,0,0,5.4,8.3,1.82,1.82,0,0,0,.87.71c.37.09.85-.17.81-.55l3.26,2a1.66,1.66,0,0,0,1.15.36c.81-.18.86-1.33.55-2.09a10.69,10.69,0,0,0-2.2-3l-4.74-5.17c-1.11-1.21-2.48-3-4-3.65C9.24,75.05,9.83,77.86,10.29,79Z" style="fill:#97b8b8"/></svg>