<svg id="分離模式" xmlns="http://www.w3.org/2000/svg" viewBox="0 0 444.71 268.91"><defs><style>.cls-1{fill:#c1d3d2;}.cls-2{fill:#8dacac;}.cls-3{fill:#97b8b8;}</style></defs><title>ind_mou_l</title><path class="cls-1" d="M417.33,172.14c-3,1.48-6.25,2.72-9.52,2.21-3.88-.6-7.58-3.59-11.32-2.42-1.3.41-2.55,1.32-3.89,1.08a7.74,7.74,0,0,1-2.72-1.64,6.52,6.52,0,0,0-6.53-.37l-.47-4.72c-5.19-1.26-8.83,7-14.12,6.26-1.18-4.81,1.77-9.65,1.9-14.6s-3-11.61,2.32-14.55l6.28-7.87c.86-2.3,3-4,4.15-6.17a39.92,39.92,0,0,0,1.55-4,30.43,30.43,0,0,1,4.38-7,3,3,0,0,1,1.19-1.09c.45-.17,1-.13,1.41-.26a3.82,3.82,0,0,0,1.87-1.77A79.81,79.81,0,0,1,404.89,102c2.06-2,4.27-3.91,5.75-6.36,1.35-2.23,2.05-4.79,3.39-7,2.25-3.72,6.09-6.14,9-9.35a12.67,12.67,0,0,0,2.41-3.55.36.36,0,0,0-.56-.42,6.88,6.88,0,0,1-3.3,1.2,1.23,1.23,0,0,1-1.23-1.66,16.94,16.94,0,0,1,3.44-5.42c.93-1,3.17-1.4,3.79-2.61s-.54-3.4-1.58-4.28A3.37,3.37,0,0,0,427.29,59a.47.47,0,0,0-.77-.22l-2.91,2.64a66.06,66.06,0,0,0,3.81-12l-.25-.22s-11.95,15-18.61,19.83a116.1,116.1,0,0,1-16.49,9.35c-1.43.12-2.58-.78-3.68-1.79-.36,1.26.52,2.86,0,4.16-.18.47-.54.86-.68,1.34-.34,1.1.47,2.21.61,3.35A5.66,5.66,0,0,1,387.11,89a83.48,83.48,0,0,1-11.89,14.61,6.73,6.73,0,0,1-2.44,1.73,24.77,24.77,0,0,1-3,.38c-2.28.44-3.91,2.4-5.39,4.19a116,116,0,0,1-10.68,11.27.44.44,0,0,1-.68-.55l4.23-7.22c1-1.77,2.08-3.94,1.29-5.77a.45.45,0,0,0-.4-.27,4.24,4.24,0,0,0-2.5,1.58c-.78.78-2,1.5-2.92.92s-1.06-2.33-2.19-2.51a2.09,2.09,0,0,0-1.35.46l-3.17,2a.44.44,0,0,1-.61-.6c5.73-9.07,14.09-16.19,22.13-23.34a2.89,2.89,0,0,0,1-1.3,4.89,4.89,0,0,0,0-1.43,6.45,6.45,0,0,1,1.23-3.28c2-3.35,4.46-7.57,6.56-11.07A24.9,24.9,0,0,0,370,64.89c-.32-.12-.64-.2-1-.29a24.4,24.4,0,0,1-2.53,6.65,9.86,9.86,0,0,1-1.79,2.49c-1.31,1.21-3.14,1.65-4.62,2.64-2.82,1.91-4.13,5.74-7.28,7.05a1,1,0,0,1-.56.1c-.75-.18-.27-1.48-.81-2a1.31,1.31,0,0,0-.93-.28,15.9,15.9,0,0,0-4.23.55,31.63,31.63,0,0,1-1.74,2.78,23.77,23.77,0,0,1-2.12,1.9,17.84,17.84,0,0,0-3.22,4.67,112.2,112.2,0,0,1-6.44,10.25,7.05,7.05,0,0,1-1.56,1.75c-.71.52-1.58.77-2.28,1.3a8,8,0,0,0-1.92,2.5,37,37,0,0,1-4.37,5.84,2.36,2.36,0,0,1-.8.64,3.86,3.86,0,0,1-1.13.16,5.09,5.09,0,0,0-3.65,2.49c4.5-7.1,7.48-15,10.43-22.9a37.38,37.38,0,0,0,1.34-4A32.28,32.28,0,0,1,331.64,82a12.89,12.89,0,0,0,1.28-2.86,1.69,1.69,0,0,0,.1-.8.64.64,0,0,0-.54-.54.92.92,0,0,0-.5.18c-1.57.93-3.21,1.93-4.06,3.54-.44.82-.65,1.75-1.12,2.56a2.08,2.08,0,0,1-.64.68,3.22,3.22,0,0,1-2.24.52c-1.67,2.34-2.54,5.13-3.68,7.77-3.52,8.09-9.67,14.73-15.85,21a44.77,44.77,0,0,0-4.27,4.77c-1,1.35-1.82,2.8-2.73,4.2-2.34,3.6-5.42,6.53-8.33,9.69-1.2,1.3-1.54,3.44-3.16,4.17-1.16.52-2.51.07-3.71-.35a74.52,74.52,0,0,0-20.89-3.77q-11.56,7.42-22.6,15.67a6,6,0,0,1-1.51.93c-1.11.41-2.36.18-3.52.39-2.76.51-5,3.49-7.72,2.82-.14-1.66,1.68-2.76,2.33-4.28.27-.64.33-1.35.61-2a6.92,6.92,0,0,1,2.41-2.46,31.23,31.23,0,0,0,4.47-4.13,3.15,3.15,0,0,0,1-2.17,12.49,12.49,0,0,0-.78-2.05,4,4,0,0,1,1.72-3.79l8.82-6.82c1.32-1,2.63-2,4-2.9s2.72-1.5,4.06-2.27c7.25-4.2,12.64-10.91,19.06-16.29a6.12,6.12,0,0,1,2.43-1.42c.52-.12,1.08-.09,1.6-.23a4.84,4.84,0,0,0,1.9-1.09A23,23,0,0,0,284.34,95c-.61-3.41,1.39-6.78,3.85-9.22s5.47-4.33,7.73-7c1.56-1.81,2.72-3.92,4.23-5.77A8.39,8.39,0,0,1,302,71.32c.61-.41,1.29-.69,1.9-1.08a10,10,0,0,0,2.61-2.59c2.46-3.27,4.16-7.19,7.29-9.84L308,70.14c2.33-.5,3.92-2.64,5-4.78s1.86-4.47,3.56-6.14c.67.69,1.43,1.27,1.27,2.22,2.58-1.94,3.65-5.41,6.22-7.36,1.44-1.09,3.51-2,3.57-3.8a1.63,1.63,0,0,0-.4-1.07c-2.81-3.28-4.15,1.68-6.16.8-.94-.42-.91-1.75-.72-2.76q1.35-7.2,3.28-14.27a8.25,8.25,0,0,0,.42-3.89,2.1,2.1,0,0,0-.7-1.22c-1.08-.78-2.52.35-3.27,1.45-3.11,4.54-4.54,10.34-8.78,13.84l2.69-5.07a2.62,2.62,0,0,0,.35-2.53,2.53,2.53,0,0,0-2.72-1.23c-1.76.32-2.84,1.89-3.6,3.43-.3.61-1,1.34-1.51.85s.19-1.68-.47-1.93-1.26.48-1.54,1.15-1.13,1.42-1.62.87c-.14-.16-.18-.39-.33-.55-.43-.48-1.19,0-1.61.51a30.37,30.37,0,0,1-6.54,5.53,7.54,7.54,0,0,1-4.67,1.51c.12-.6,0-.74-.3-1.28-3,.31-4.85,4.46-7.89,4.18-.1-.38-.19-.75-.28-1.12-1,.86-2.55.51-3.88.67-1.72.2-3.18,1.3-4.63,2.25a33.28,33.28,0,0,1-5.57,2.94,1.35,1.35,0,0,1-1,.12c-.32-.13-.19-.73.12-.87l3.11-1.72c1.4-1.31,3.29-2.09,4.77-3.39a21.8,21.8,0,0,0,2.38-2.69,40.84,40.84,0,0,1,8.95-8.1l.05,1.4c1.61.3,2.95-1.15,3.93-2.46l4.32-5.74c.35-.46,1-1,1.43-.58a20.45,20.45,0,0,1-3.48,6.34c.46.48,1.24.1,1.75-.32a23.6,23.6,0,0,0,5.38-6.23c1-1.62,1.77-3.39,3.18-4.64.36-.31.87-.59,1.29-.36s.43,1.23,1,1.55c.88.52,1.56-1.2,2.57-1.27.6.69.11,2.19,1,2.4a1.07,1.07,0,0,0,.73-.15c2.3-1.22,2-4.59,3.24-6.9.76-1.43,2.19-3,1.33-4.39l-1.43,2.11a.93.93,0,0,1-.46.42c-.9.24-.78-1.94-1.71-1.86a15.1,15.1,0,0,1-2,2.67,1.35,1.35,0,0,1-.76.48c-.49.07-.91-.36-1.39-.48a1.65,1.65,0,0,0-1.64.79,8.5,8.5,0,0,0-.78,1.77,7,7,0,0,1-4.65,4.06,31.65,31.65,0,0,1,4.87-10,2,2,0,0,0-1.75.53c.52-2.46,3-3.9,4.46-6a12.41,12.41,0,0,0,1.61-4.05A37.28,37.28,0,0,0,308.34.4c-5.74,6.29-10.83,12.18-16.59,18.49C287.3,23.75,281.67,31,277.23,35.81c-6.2,6.78-12.72,11.81-18.92,18.6L247,53.82a6.57,6.57,0,0,1-1.54-.21,6.34,6.34,0,0,1-1.55-.85c-1.54-.84-6.51-1-6.51-1s-5.54-4.44-6.55-5.15a1.27,1.27,0,0,0-1.72.1c-1.41-1.71-2.58-1.77-2.58-1.77-2.12,1.36-4.88,2.62-7,4a19.35,19.35,0,0,0-4.23-3.34c-2.06-1.34-3.79-3.24-5.85-4.58a1.46,1.46,0,0,0-.55-.26c-.59-.1-1.22.77-1.82.74-1.43-1.86-2.75-4.87-4.79-6a1.13,1.13,0,0,0-.32-.13c-.6-.11-.92.77-1.51.89s-1-.44-1.34-.86a1.55,1.55,0,0,0-1.87.1c-4.35,4.9-28.6,32.85-32.94,37.75l-6,6.74a7,7,0,0,1-2.13,1.84c-.36.18-.76.29-1.1.48a5.55,5.55,0,0,0-1.56,1.64,34.74,34.74,0,0,1-5.66,5.84c-1.34,4.22-5.41,6.94-8.67,10-3.88,3.62-6.84,8.1-9.76,12.53a11.67,11.67,0,0,0-1.6,3.07c-.33,1.13-.1,2.64,1,3s2.5-.75,3.58-.17c.33.17.57.48.89.68a2.94,2.94,0,0,0,2.65-.18,27.24,27.24,0,0,0,5.55-3.18,3.86,3.86,0,0,1,1.14-.49A8.29,8.29,0,0,1,141,117.5c-1.59,2-2.33,4.54-3.35,6.89a28.25,28.25,0,0,1-5.23,8c-1.56,1.66-3.35,3.19-4.3,5.26-.44.94-.68,2-1.18,2.87a11.88,11.88,0,0,1-2,2.39l-5.54,5.55a2.14,2.14,0,0,0,.17,3.08,5.24,5.24,0,0,0,3.35.73,29.88,29.88,0,0,0,5.1-.12,30,30,0,0,0,16.19-9c1.94-2.08,3.66-4.51,6.23-5.74,1.82-.87,4-1.08,5.57-2.29,2.66-2,3.06-6.12,5.78-8,1.31-.91,2.56-1.15,3.66-2.3a37.6,37.6,0,0,1,5.05-4.38,4.29,4.29,0,0,1,1.62-.82,7.43,7.43,0,0,1,1.82.08c2.3.16,4.44-1.09,6.41-2.3l9.46-5.82a27,27,0,0,0,4.86-3.5c1.77-1.71,3.6-3.52,5.5-5.08,1.39-1.13,2.88-2.31,4.65-2.51a24,24,0,0,0,2.4-.16c1.81-.41,2.91-2.19,4-3.69,4.32-5.85,11.28-9.17,16.25-14.47,2-2.12,3.66-4.56,5.89-6.42a8.59,8.59,0,0,0,2.37-2.36c.28-.51.42-1.09.69-1.61.79-1.54,2.5-2.33,4-3.12,6.45-3.27,11.88-8.19,17.22-13a30,30,0,0,1-9.79,13.69,2.62,2.62,0,0,0-.57.53,2.8,2.8,0,0,0-.35.88,17.39,17.39,0,0,1-3.13,5.54c-.47.53-1,1.38-.46,1.86a1.3,1.3,0,0,0,.54.23,7.14,7.14,0,0,0,5.19-.84c1.42-.86,2.55-2.23,4.14-2.73,1.75-.54,3.71.1,5.46-.47s2.9-2.23,4.2-3.55a11.57,11.57,0,0,1,9.4-3.61c1.36.17,2.74.63,4.07.3,3.59-.9,7.16-4,10.86-4a3.85,3.85,0,0,1,2.38.66,3.42,3.42,0,0,1,1,1.82c1.22,4.63-1.89,9.2-5,12.86-6.28,7.47-13.28,14.48-21.63,19.51a5.65,5.65,0,0,1-3.35,1.11,18.47,18.47,0,0,1-3-1.06c-2.25-.64-4.56.59-6.57,1.78a450.89,450.89,0,0,0-52.58,36.7,9,9,0,0,1-2.42,1.55,18,18,0,0,1-2,.46c-2.83.63-5.14,2.58-7.33,4.46-5,4.28-11.5,8.19-16.94,11.84-1.17.78-2.46,1.59-3.85,1.43-1.07-.13-2.05-.83-3.13-.78a4.54,4.54,0,0,0-2.33,1.1c-2.22,1.65-4.41,3.33-6.56,5.06-11.35,9.11-24.37,16.36-36.3,24.7-2.52,1.76-8.79-.29-10.64-2.74-1.2-1.59-1.74-3.6-3-5.13-3.12-3.81-9-3.2-13.79-4.17a27.22,27.22,0,0,0-3.67-.68c-1.23-.08-2.46.14-3.68,0-3.72-.31-6.77-3.76-7.08-7.48s4-5.82,6.72-8.39C87,153.83,94.65,150,100.7,145s12.36-14.22,12.36-14.22c2.27-3.48.91-5.75.91-5.75-4.39.91-9.74,5-9.74,5C100.6,133,92,141.32,91.62,140.41s9.18-8.87,11.6-12,7.67-7.36,10.5-9.48S125,93.61,124,93.41s-7.76,8.07-8.37,8.07-.4-1.31,3.23-5.75a40.21,40.21,0,0,0,4.78-7.44c-.5-.76-1-1.5-1.6-2.24-25.4,29.4-51,59-81.81,82.73C13.64,191.69,0,200.39,0,200.39v68.52H444.71V150.63C436.35,158.77,427.77,167,417.33,172.14Z"/><path class="cls-2" d="M201.72,76.85l-6.2,6.28a13,13,0,0,1-2.32,2c-1.14.7-2.46,1-3.63,1.68a3.7,3.7,0,0,0-2.16,3.12,12.32,12.32,0,0,1,.14-6.18,4.19,4.19,0,0,1,.48-1.18c.31-.48.76-.86,1.11-1.3a6.6,6.6,0,0,0,1.12-4.33c0-1.31-.2-2.76.61-3.79a11.83,11.83,0,0,1,1.41-1.23c1.81-1.67,1.73-4.47,1.79-6.93,0-1.12.21-2.41,1.17-3,.38-.22.83-.29,1.22-.49C198,60.77,198.07,58.7,198,57a105.55,105.55,0,0,1,1.15-15.16c0-.36.44-.38.79-.3.32.89,0,1.86,0,2.81s.82,2,1.69,1.69a1.79,1.79,0,0,0,.69-.65,15.48,15.48,0,0,0,1.65-3c.78-.1,1.34.74,1.52,1.5a4.08,4.08,0,0,0,.8,2.17c1.13,1,3.06-.13,4.48.48a3.71,3.71,0,0,1,1.55,1.63c.63,1,1.24,2.1,1.81,3.18a5.17,5.17,0,0,1,.81,2.49,5.52,5.52,0,0,1-.66,2.07l-3.42,7.13c2-.73,2.77-3,3.57-4.9s2.26-4.05,4.34-3.91c.22,3.88-3.15,7.08-3.71,10.92-.22,1.52,0,3.07-.08,4.61a2.4,2.4,0,0,1-.42,1.43,3.62,3.62,0,0,1-1.71.87c-3.45,1.23-5,5.09-7.08,8.11-.57.84-1.47,1.73-2.45,1.45A5.71,5.71,0,0,0,201.72,76.85Z"/><path class="cls-2" d="M207.78,82.17a104.3,104.3,0,0,0,15.29-13.25c-.87-.75-.75-2.12-.46-3.23,1.48-5.63,5.39-10.66,5.46-16.48.14,2.2.48,4.4.44,6.61.52.25,1.1-.22,1.46-.68a11.38,11.38,0,0,0,2.13-4.29,1.2,1.2,0,0,1,.27-.58c.4-.37,1.08.1,1.2.63a14.81,14.81,0,0,1,0,1.63c.15,1.44,1.78,2.19,3.18,2.51a22.88,22.88,0,0,0,7,.49,1.45,1.45,0,0,1,1,.16,1.32,1.32,0,0,1,.43.81,9.13,9.13,0,0,1,.19,3c-7.41,5.24-15.46,10.44-23.13,15.3-5.79,3.66-11.82,7.37-15.76,13a24.88,24.88,0,0,1-2.08,2.81c-2.4,2.55-6.1,3.3-9.54,3.93l7.24-8.12C203.43,84.87,206.17,83.32,207.78,82.17Z"/><path class="cls-2" d="M169.39,71l-9,13.57c-1,1.53-2.08,3.23-1.86,5.05,2.31-1.94,3-5.17,4.74-7.65a21.44,21.44,0,0,1,4.94-4.6,5.76,5.76,0,0,1,1.93-1.08,5,5,0,0,0,1.22-.32,2.56,2.56,0,0,0,.83-.84,35.87,35.87,0,0,0,3.51-6.1c.44-1,2.81-5.59,2.09-6.47C176,60.34,170.18,69.81,169.39,71Z"/><path class="cls-2" d="M305.86,9.8c-1.42,2.08-3.94,3.52-4.46,6a2,2,0,0,1,1.75-.53,31.65,31.65,0,0,0-4.87,10.05,7,7,0,0,0,4.65-4.06,8.5,8.5,0,0,1,.78-1.77,1.65,1.65,0,0,1,1.64-.79c.48.12.9.55,1.39.48a1.35,1.35,0,0,0,.76-.48,15.1,15.1,0,0,0,2-2.67c.93-.08.81,2.1,1.71,1.86a.93.93,0,0,0,.46-.42l1.43-2.11c.86,1.38-.57,3-1.33,4.39-1.21,2.31-.94,5.68-3.24,6.9a1.07,1.07,0,0,1-.73.15c-.89-.21-.4-1.71-1-2.4-1,.07-1.69,1.79-2.57,1.27-.53-.32-.42-1.24-1-1.55s-.93,0-1.29.36c-1.41,1.25-2.21,3-3.18,4.64a23.6,23.6,0,0,1-5.38,6.23c-.51.42-1.29.8-1.75.32a20.45,20.45,0,0,0,3.48-6.34c-.43-.39-1.08.12-1.43.58l-4.32,5.74c-1,1.31-2.32,2.76-3.93,2.46l-.05-1.4a40.84,40.84,0,0,0-8.95,8.1,21.8,21.8,0,0,1-2.38,2.69c-1.48,1.3-3.37,2.08-4.77,3.39l-3.11,1.72c-.31.14-.44.74-.12.87a1.35,1.35,0,0,0,1-.12,33.28,33.28,0,0,0,5.57-2.94c1.45-.95,2.91-2,4.63-2.25,1.33-.16,2.85.19,3.88-.67.09.37.18.74.28,1.12,3,.28,4.86-3.87,7.89-4.18.31.54.42.68.3,1.28a7.54,7.54,0,0,0,4.67-1.51,30.37,30.37,0,0,0,6.54-5.53c.42-.48,1.18-1,1.61-.51.15.16.19.39.33.55.49.55,1.33-.19,1.62-.87s.91-1.53,1.54-1.15,0,1.42.47,1.93,1.21-.24,1.51-.85c.76-1.54,1.84-3.11,3.6-3.43a2.53,2.53,0,0,1,2.72,1.23,2.62,2.62,0,0,1-.35,2.53l-2.69,5.07c4.24-3.5,5.67-9.3,8.78-13.84.75-1.1,2.19-2.23,3.27-1.45a2.1,2.1,0,0,1,.7,1.22,8.25,8.25,0,0,1-.42,3.89q-1.94,7.07-3.28,14.27c-.19,1-.22,2.34.72,2.76,2,.88,3.35-4.08,6.16-.8a1.63,1.63,0,0,1,.4,1.07c-.06,1.81-2.13,2.71-3.57,3.8-2.57,2-3.64,5.42-6.22,7.36.16-.95-.6-1.53-1.27-2.22-1.7,1.67-2.5,4-3.56,6.14s-2.64,4.28-5,4.78l5.81-12.33c-3.13,2.65-4.83,6.57-7.29,9.84a10,10,0,0,1-2.61,2.59c-.61.39-1.29.67-1.9,1.08a8.39,8.39,0,0,0-1.81,1.76c-1.51,1.85-2.67,4-4.23,5.77-2.26,2.62-5.26,4.51-7.73,7s-4.46,5.81-3.85,9.22a23,23,0,0,1-4.68,5.71,4.84,4.84,0,0,1-1.9,1.09c-.52.14-1.08.11-1.6.23a6.12,6.12,0,0,0-2.43,1.42c-6.42,5.38-11.81,12.09-19.06,16.29-1.34.77-2.74,1.46-4.06,2.27s-2.72,1.89-4,2.9l-8.82,6.82a4,4,0,0,0-1.72,3.79,12.49,12.49,0,0,1,.78,2.05,3.15,3.15,0,0,1-1,2.17,31.23,31.23,0,0,1-4.47,4.13,6.92,6.92,0,0,0-2.41,2.46c-.28.63-.34,1.34-.61,2-.65,1.52-2.47,2.62-2.33,4.28,2.72.67,5-2.31,7.72-2.82,1.16-.21,2.41,0,3.52-.39a6,6,0,0,0,1.51-.93q11-8.24,22.6-15.67a74.52,74.52,0,0,1,20.89,3.77c1.2.42,2.55.87,3.71.35,1.62-.73,2-2.87,3.16-4.17,2.91-3.16,6-6.09,8.33-9.69.91-1.4,1.74-2.85,2.73-4.2a44.77,44.77,0,0,1,4.27-4.77c6.18-6.3,12.33-12.94,15.85-21,1.14-2.64,2-5.43,3.68-7.77a3.22,3.22,0,0,0,2.24-.52,2.08,2.08,0,0,0,.64-.68c.47-.81.68-1.74,1.12-2.56.85-1.61,2.49-2.61,4.06-3.54a.92.92,0,0,1,.5-.18.64.64,0,0,1,.54.54,1.69,1.69,0,0,1-.1.8A12.89,12.89,0,0,1,331.64,82a32.28,32.28,0,0,0-2.86,7.15,37.38,37.38,0,0,1-1.34,4c-2.95,7.87-5.93,15.8-10.43,22.9a5.09,5.09,0,0,1,3.65-2.49,3.86,3.86,0,0,0,1.13-.16,2.36,2.36,0,0,0,.8-.64,37,37,0,0,0,4.37-5.84,8,8,0,0,1,1.92-2.5c.7-.53,1.57-.78,2.28-1.3a7.05,7.05,0,0,0,1.56-1.75,112.2,112.2,0,0,0,6.44-10.25,17.84,17.84,0,0,1,3.22-4.67,23.77,23.77,0,0,0,2.12-1.9,31.63,31.63,0,0,0,1.74-2.78,15.9,15.9,0,0,1,4.23-.55,1.31,1.31,0,0,1,.93.28c.54.55.06,1.85.81,2a1,1,0,0,0,.56-.1c3.15-1.31,4.46-5.14,7.28-7.05,1.48-1,3.31-1.43,4.62-2.64a9.86,9.86,0,0,0,1.79-2.49A24.4,24.4,0,0,0,369,64.6c-.66-.17-1.34-.32-2-.55-4.3-1.5-5.33-5.07-8.57-8.27-1.19-1.17-2.53-2.16-3.81-3.23a86.65,86.65,0,0,1-7.08-7.26c-1.3-1.38-2.75-2.85-4-4.24-2.4-2.58-5.07-5-7.46-7.56-3.24-3.52-6-8-9.27-11.47-2.27-2.47-4.55-4.94-6.78-7.45A86.14,86.14,0,0,1,313.11,6c-1.35-2-3.2-3.91-4.41-6l-.36.4a37.28,37.28,0,0,1-.87,5.35A12.41,12.41,0,0,1,305.86,9.8Z"/><path class="cls-2" d="M368.55,83.13a4.89,4.89,0,0,1,0,1.43,2.89,2.89,0,0,1-1,1.3c-8,7.15-16.4,14.27-22.13,23.34a.44.44,0,0,0,.61.6l3.17-2a2.09,2.09,0,0,1,1.35-.46c1.13.18,1.22,1.9,2.19,2.51s2.14-.14,2.92-.92a4.24,4.24,0,0,1,2.5-1.58.45.45,0,0,1,.4.27c.79,1.83-.26,4-1.29,5.77l-4.23,7.22a.44.44,0,0,0,.68.55,116,116,0,0,0,10.68-11.27c1.48-1.79,3.11-3.75,5.39-4.19a24.77,24.77,0,0,0,3-.38,6.73,6.73,0,0,0,2.44-1.73A83.48,83.48,0,0,0,387.11,89a5.66,5.66,0,0,0,1.23-3.58c-.14-1.14-.95-2.25-.61-3.35.14-.48.5-.87.68-1.34.5-1.3-.38-2.9,0-4.16-.53-.48-1.05-1-1.58-1.41-1.93-1.55-4.41-2.2-6.5-3.51-1.3-.82-2.62-1.84-4-2.86-2.1,3.5-4.53,7.72-6.56,11.07A6.45,6.45,0,0,0,368.55,83.13Z"/><path class="cls-2" d="M115.63,101.48c.61,0,7.37-8.27,8.37-8.07s-7.46,23.4-10.28,25.52-8.07,6.35-10.5,9.48-12,11.1-11.6,12,9-7.46,12.61-10.39c0,0,5.35-4.13,9.74-5,0,0,1.36,2.27-.91,5.75,0,0-6.3,9.18-12.36,14.22S87,153.83,82.55,158.07c-2.71,2.57-7,4.67-6.72,8.39s3.36,7.17,7.08,7.48c1.22.1,2.45-.12,3.68,0a27.22,27.22,0,0,1,3.67.68c4.83,1,10.67.36,13.79,4.17,1.25,1.53,1.79,3.54,3,5.13,1.85,2.45,8.12,4.5,10.64,2.74,11.93-8.34,24.95-15.59,36.3-24.7,2.15-1.73,4.34-3.41,6.56-5.06a4.54,4.54,0,0,1,2.33-1.1c1.08,0,2.06.65,3.13.78,1.39.16,2.68-.65,3.85-1.43,5.44-3.65,12-7.56,16.94-11.84,2.19-1.88,4.5-3.83,7.33-4.46a18,18,0,0,0,2-.46,9,9,0,0,0,2.42-1.55,450.89,450.89,0,0,1,52.58-36.7c2-1.19,4.32-2.42,6.57-1.78a18.47,18.47,0,0,0,3,1.06,5.65,5.65,0,0,0,3.35-1.11c8.35-5,15.35-12,21.63-19.51,3.07-3.66,6.18-8.23,5-12.86a3.42,3.42,0,0,0-1-1.82,3.85,3.85,0,0,0-2.38-.66c-3.7-.07-7.27,3.06-10.86,4-1.33.33-2.71-.13-4.07-.3a11.57,11.57,0,0,0-9.4,3.61c-1.3,1.32-2.44,3-4.2,3.55s-3.71-.07-5.46.47c-1.59.5-2.72,1.87-4.14,2.73a7.14,7.14,0,0,1-5.19.84,1.3,1.3,0,0,1-.54-.23c-.53-.48,0-1.33.46-1.86A17.39,17.39,0,0,0,247,70.65a2.8,2.8,0,0,1,.35-.88,2.62,2.62,0,0,1,.57-.53,30,30,0,0,0,9.79-13.69c-5.34,4.86-10.77,9.78-17.22,13-1.54.79-3.25,1.58-4,3.12-.27.52-.41,1.1-.69,1.61a8.59,8.59,0,0,1-2.37,2.36c-2.23,1.86-3.9,4.3-5.89,6.42-5,5.3-11.93,8.62-16.25,14.47-1.11,1.5-2.21,3.28-4,3.69a24,24,0,0,1-2.4.16c-1.77.2-3.26,1.38-4.65,2.51-1.9,1.56-3.73,3.37-5.5,5.08a27,27,0,0,1-4.86,3.5l-9.46,5.82c-2,1.21-4.11,2.46-6.41,2.3a7.43,7.43,0,0,0-1.82-.08,4.29,4.29,0,0,0-1.62.82,37.6,37.6,0,0,0-5.05,4.38c-1.1,1.15-2.35,1.39-3.66,2.3-2.72,1.92-3.12,6-5.78,8-1.61,1.21-3.75,1.42-5.57,2.29-2.57,1.23-4.29,3.66-6.23,5.74a30,30,0,0,1-16.19,9,29.88,29.88,0,0,1-5.1.12,5.24,5.24,0,0,1-3.35-.73,2.14,2.14,0,0,1-.17-3.08l5.54-5.55a11.88,11.88,0,0,0,2-2.39c.5-.91.74-1.93,1.18-2.87,1-2.07,2.74-3.6,4.3-5.26a28.25,28.25,0,0,0,5.23-8c1-2.35,1.76-4.88,3.35-6.89a8.29,8.29,0,0,0,1.71-2.51,3.86,3.86,0,0,0-1.14.49,27.24,27.24,0,0,1-5.55,3.18,2.94,2.94,0,0,1-2.65.18c-.32-.2-.56-.51-.89-.68-1.08-.58-2.43.55-3.58.17s-1.35-1.89-1-3a11.67,11.67,0,0,1,1.6-3.07c2.92-4.43,5.88-8.91,9.76-12.53,3.26-3,7.33-5.77,8.67-10-1.35,1.14-2.76,2.22-4.15,3.3-3.06,2.36-6.17,4.64-9.23,7-1.31-1.77-3.6-2.5-5.21-4-.84-.78-1.47-1.76-2.36-2.48a6.84,6.84,0,0,1-1.12-1,5.21,5.21,0,0,1-.62-1.33,15.75,15.75,0,0,0-1.56-3,40.21,40.21,0,0,1-4.78,7.44C115.23,100.17,115,101.48,115.63,101.48Z"/><path class="cls-2" d="M437.46,58.86c-1.09-1.78-8.63-8.26-10-9.47a66.06,66.06,0,0,1-3.81,12l2.91-2.64a.47.47,0,0,1,.77.22A3.37,3.37,0,0,1,426,62.5c1,.88,2.2,3.06,1.58,4.28s-2.86,1.62-3.79,2.61a16.94,16.94,0,0,0-3.44,5.42,1.23,1.23,0,0,0,1.23,1.66,6.88,6.88,0,0,0,3.3-1.2.36.36,0,0,1,.56.42,12.67,12.67,0,0,1-2.41,3.55c-2.94,3.21-6.78,5.63-9,9.35-1.34,2.23-2,4.79-3.39,7-1.48,2.45-3.69,4.37-5.75,6.36a79.81,79.81,0,0,0-11.08,13.25,3.82,3.82,0,0,1-1.87,1.77c-.46.13-1,.09-1.41.26a3,3,0,0,0-1.19,1.09,30.43,30.43,0,0,0-4.38,7,39.92,39.92,0,0,1-1.55,4c-1.17,2.22-3.29,3.87-4.15,6.17L373,143.39c-5.32,2.94-2.19,9.56-2.32,14.55s-3.08,9.79-1.9,14.6c5.29.78,8.93-7.52,14.12-6.26l.47,4.72a6.52,6.52,0,0,1,6.53.37A7.74,7.74,0,0,0,392.6,173c1.34.24,2.59-.67,3.89-1.08,3.74-1.17,7.44,1.82,11.32,2.42,3.27.51,6.55-.73,9.52-2.21,10.44-5.18,19-13.37,27.38-21.51V64.71S438.67,60.83,437.46,58.86Z"/><path class="cls-3" d="M434.42,79a34.61,34.61,0,0,1-5.4,8.3,1.86,1.86,0,0,1-.87.71c-.37.09-.85-.17-.81-.55l-3.26,2a1.67,1.67,0,0,1-1.16.36c-.8-.18-.85-1.33-.54-2.09a10.86,10.86,0,0,1,2.19-3c1.59-1.72,3.17-3.45,4.75-5.17,1.11-1.21,2.48-3,4-3.65C435.47,75.05,434.88,77.86,434.42,79Z"/></svg>