<svg id="body" xmlns="http://www.w3.org/2000/svg" xmlns:xlink="http://www.w3.org/1999/xlink" viewBox="0 0 683.87097 914.72179"><defs><style>.cls-1{fill:url(#未命名漸層_58);}.cls-2{fill:#341909;}.cls-3{fill:#90572d;}.cls-4{fill:#b07a4a;}.cls-5{fill:#824c22;}.cls-6{fill:#a16c42;}.cls-7{fill:#070001;}.cls-8{fill:url(#未命名漸層_125);}.cls-9{fill:#fff;}.cls-10{fill:url(#未命名漸層_125-2);}.cls-11{fill:#91582f;}.cls-12{fill:#9f6329;}.cls-13{fill:#864e24;}.cls-14{fill:#391708;}.cls-15{fill:#905724;}.cls-16{fill:#2e261e;}.cls-17{fill:#231815;}.cls-18,.cls-19{fill:none;}.cls-18{stroke:#c0bebe;stroke-linecap:round;stroke-linejoin:round;stroke-width:0.25px;}.cls-19{stroke:#955324;stroke-miterlimit:10;}</style><radialGradient id="未命名漸層_58" cx="427.92074" cy="781.58569" fx="393.8043681880136" fy="768.7417893621603" r="501.48613" gradientTransform="translate(-34.39468 370.3282) scale(1 0.50142)" gradientUnits="userSpaceOnUse"><stop offset="0" stop-color="#9f9e9f"/><stop offset="0.99577" stop-color="#f6f7f5" stop-opacity="0"/></radialGradient><radialGradient id="未命名漸層_125" cx="459.9685" cy="227.37218" r="35.16812" gradientTransform="translate(37.31657 -4.39191) scale(0.91958 0.95736)" gradientUnits="userSpaceOnUse"><stop offset="0.14085" stop-color="#3e3a39"/><stop offset="0.55943" stop-color="#424242"/><stop offset="0.86298" stop-color="#3e3a39"/></radialGradient><radialGradient id="未命名漸層_125-2" cx="284.75752" cy="227.37218" r="35.16812" xlink:href="#未命名漸層_125"/></defs><title>jimmy</title><ellipse class="cls-1" cx="344.09298" cy="785.02346" rx="330.56563" ry="129.69833"/><path class="cls-2" d="M207.65013,872.832a25.94808,25.94808,0,0,1,6.19116,14.05088,17.80691,17.80691,0,0,0,5.97356-14.28337l-11.57611-.1884" transform="translate(-34.39468 -19.35523)"/><path class="cls-2" d="M171.48524,872.832a25.948,25.948,0,0,1,6.19116,14.05088A17.80691,17.80691,0,0,0,183.65,872.59951l-11.57611-.1884" transform="translate(-34.39468 -19.35523)"/><path class="cls-2" d="M246.94528,872.832a25.94808,25.94808,0,0,1,6.19116,14.05088A17.80691,17.80691,0,0,0,259.11,872.59951l-11.57611-.1884" transform="translate(-34.39468 -19.35523)"/><path class="cls-2" d="M562.8618,884.8436a25.94808,25.94808,0,0,0-6.19116,14.05089,17.80693,17.80693,0,0,1-5.97356-14.28338l11.57611-.18839" transform="translate(-34.39468 -19.35523)"/><path class="cls-2" d="M599.02669,881.55715a25.94793,25.94793,0,0,0-6.19116,14.05088,17.80683,17.80683,0,0,1-5.97356-14.28337l11.5761-.1884" transform="translate(-34.39468 -19.35523)"/><path class="cls-2" d="M523.56665,880.06788a25.94793,25.94793,0,0,0-6.19116,14.05088,17.80683,17.80683,0,0,1-5.97356-14.28337l11.5761-.1884" transform="translate(-34.39468 -19.35523)"/><path class="cls-3" d="M668.0957,768.098c-21.64377-22.85119-41.30293-49.7693-58.3503-79.89383,12.7378-2.353,25.976,1.60434,37.08124,11.085-10.17046-27.53016-26.19321-50.296-45.24487-64.28543a29.00919,29.00919,0,0,0,24.89993-3.29479q-19.55591-22.66877-39.1123-45.338c-.20149-.63982-.43328-1.25767-.64235-1.89269,8.69791,1.58238,17.72052-.889,25.413-7.07664-15.31325-6.456-29.47461-18.272-41.38222-33.8314a60.02017,60.02017,0,0,1,25.67306,16.13108c-5.08724-27.64707-17.79222-52.17-34.67244-66.927,11.66824-.401,23.27992,8.65347,29.49733,23.00092-2.76127-28.27981-13.874-54.63107-29.96394-71.05125l21.24533.38253c-10.578-7.50815-18.72343-21.9099-21.74073-38.44016a60.16838,60.16838,0,0,0,32.07429,3.4925c-30.86989-31.22011-45.2181-93.0172-33.66954-145.01628C461.38408,374.52628,322.466,402.041,213.54425,317.6518c-4.18887,36.25911-18.10481,69.95769-38.15585,92.39707,9.81948,2.4194,20.21869-.50574,28.706-8.0745q-7.79979,20.93716-15.60058,41.87458,10.07374-5.87237,20.149-11.745A464.18334,464.18334,0,0,1,175.951,499.44354c8.91-.54387,17.55538-5.97,24.17628-14.61964-10.677,19.78718-18.45275,42.80376-22.92392,67.09214-6.34718,5.36853-12.52268,10.89309-17.669,17.39859a97.02009,97.02009,0,0,0,15.31375-1.923c-.87413,7.15542-1.54728,14.36311-1.822,21.62357a168.98807,168.98807,0,0,1,8.07525-23.17136,99.67359,99.67359,0,0,0,20.37878-8.13939c-.12827,1.83387-.28986,3.667-.36561,5.49755A488.108,488.108,0,0,1,141.629,636.63074q15.6238-5.11564,31.24712-10.231c-13.97352,28.73329-31.51375,53.69559-51.49561,73.28279q17.51676-6.32345,35.034-12.64691c-19.14761,24.13361-40.396,44.65151-63.06083,60.89292a101.12572,101.12572,0,0,0,55.736-10.18711c-8.93222,26.39368-22.28864,61.64888-36.49823,82.43392,15.87251,12.84133,504.03594,2.25755,504.03594,2.25755,17.67658,0,22.073-.91681,39.5279,3.19531q-17.49555-30.14588-34.99109-60.29173A76.77332,76.77332,0,0,0,668.0957,768.098Z" transform="translate(-34.39468 -19.35523)"/><path class="cls-4" d="M545.73013,411.79495A531.53281,531.53281,0,0,1,609.137,497.58808l-35.04207-18.26587L613.95876,539.716c-12.02063-9.43792-21.72988-16.12341-36.40559-19.06664l26.809,44.70484a28.26015,28.26015,0,0,1-21.12478-13.97151l25.154,48.58528c-11.3118.58347-20.818-2.52068-29.00029-10.86043l56.312,94.56079a74.19289,74.19289,0,0,0-38.164-16.01271q19.13858,32.00911,35.13645,65.9915l-15.59844-10.773a295.46349,295.46349,0,0,1,23.452,57.14914c-11.142-6.29094-23.55382-7.55716-34.697-13.84356,20.6161,11.63054,30.02094,65.35365,25.98824,86.126-8.6318,44.46218-87.148,34.87438-122.73859,30.24673-13.76251-1.78947-36.18361-4.69447-41.187-21.50106-7.71569-25.91714,24.23212-72.45852,37.54506-91.54623-13.76647,11.29405-31.02891,20.43971-44.79537,31.73375a348.64032,348.64032,0,0,1,30.33431-86.55575L460.0039,750.46292c1.99081-24.90384,12.39914-48.94946,28.88656-66.73458-18.17791,10.15683-29.19725,21.6857-42.308,38.509-5.67165-31.83877,1.93889-66.09746,20.40506-91.853L432.07175,650.9258A166.174,166.174,0,0,1,454.50381,605.367L420.41174,629.195c-1.9458-16.61357-7.899-29.37246-4.69413-45.76313-12.059,1.30374-22.61241,12.1805-24.23242,24.9748l-14.97326-24.834-16.27818,36.20544c-7.05988-13.60468-20.1971-17.46284-33.21371-24.49252a108.7614,108.7614,0,0,1,12.99427,63.97411l-15.78606-19.13356q4.45421,26.05469,8.9084,52.10937c-11.382-8.79555-24.21134-11.54956-35.59332-20.34512a471.252,471.252,0,0,1,39.91015,112.28663l-20.79542-14.65669q2.08052,15.52431,4.161,31.04861a124.81773,124.81773,0,0,0-34.90945-19.27286c26.275,9.37555,21.50633,54.82687,9.20374,74.02353-20.47391,31.947-66.93431,17.06622-97.52346,18.91289-12.24037.739-25.43125,1.22377-35.694-5.91989-13.124-9.13526-17.12536-28.47568-13.597-44.74612s13.02637-32.16643,22.30488-45.62689a57.00685,57.00685,0,0,0-22.801,18.21866c8.95887-30.86384,23.89528-58.86443,39.92326-86.29053l-50.93374,47.60286c12.27445-66.47,39.98108-129.6439,79.96463-182.32729l-15.96937,13.46,13.8592-37.83461A47.05738,47.05738,0,0,0,199.103,565.55718a88.97919,88.97919,0,0,1,19.10251-45.929c-20.40117,10.05779-37.12361,28.31953-46.05417,50.29342a244.942,244.942,0,0,1,37.83872-107.5321A87.79349,87.79349,0,0,1,179.99841,481.435a172.96417,172.96417,0,0,0,22.249-48.375l-29.03632,11.6975a147.82231,147.82231,0,0,0,53.49973-53.91339c71.44685,9.84445,142.93486,19.75961,214.96574,21.11985C476.48783,412.62138,512.15744,421.61945,545.73013,411.79495Z" transform="translate(-34.39468 -19.35523)"/><path class="cls-5" d="M513.67083,375.88264c17.37,25.48507,14.45444,44.664,10.52332,76.326l6.46123,13.45984-14.24649-12.85029a37.35624,37.35624,0,0,0,1.12506,19.5655,95.47209,95.47209,0,0,1-20.04519-14.62679,44.25211,44.25211,0,0,0,1.5048,27.65427,105.53255,105.53255,0,0,0-20.049-20.74881c-2.38117-1.86036-8.80256.18818-8.66522,3.41761l1.4741,34.66116-19.704-21.62511c-7.30205,6.82966-10.773,18.33754-8.64818,28.67318l-11.58558-14.06664c-1.71529-2.08262-4.0165-4.36566-6.4549-3.56966-1.66591.54383-2.68823,2.35734-3.521,4.0493a139.97975,139.97975,0,0,0-12.84808,41.74115l-11.2185-32.5561c-11.58574,5.15945-18.5754,20.58689-15.40088,33.99247l-15.7755-27.38358a116.60134,116.60134,0,0,0-13.72756,37.653,133.1383,133.1383,0,0,0-15.87982-41.42057c-1.70225-2.864-3.82067-5.87766-6.86459-6.46989-3.56581-.69378-6.82874,2.19583-9.39581,5.03031a120.06852,120.06852,0,0,0-21.27551,33.41582,227.49178,227.49178,0,0,0-2.13911-36.23409L279.60685,528.372l-1.05322-28.18075-22.38988,29.3996a158.14891,158.14891,0,0,0,5.1534-72.77567l-10.77934,11.1045a43.42344,43.42344,0,0,1-.28483-27.24132l-7.377,12.5846a164.88232,164.88232,0,0,1-5.34814-51.311c19.1885,11.28275,41.7262,8.768,63.41656,9.85841,73.80134,3.71018,153.37081,2.28044,213.46773-45.432C516.79962,368.57676,514.44964,372.54891,513.67083,375.88264Z" transform="translate(-34.39468 -19.35523)"/><path class="cls-4" d="M558.38823,333.88964q-.26859,3.45507-.53769,6.90963a3.48147,3.48147,0,0,0,.60508.40892C560.59377,342.04614,560.57667,333.19277,558.38823,333.88964Z" transform="translate(-34.39468 -19.35523)"/><path class="cls-4" d="M557.85054,340.79927l-.04577-.03119c-.04476.89807-.12172,1.79462-.16095,2.69293Q557.74718,342.13015,557.85054,340.79927Z" transform="translate(-34.39468 -19.35523)"/><path class="cls-4" d="M591.35978,169.78808l5.44723,6.0176a66.3894,66.3894,0,0,0-7.59493-27.47077,9.21169,9.21169,0,0,0,7.11459-2.14921l-10.21695-7.18928c2.6698.18509,3.88951-3.79948,2.33582-5.97812-1.55419-2.17864-4.43222-2.86319-7.05674-3.38955q2.27394-3.64181,4.5479-7.28334-3.66066-.5119-7.32131-1.02356,3.63879-4.83286,7.27859-9.666c-3.03424,4.02993-14.04677-5.42567-15.55668-7.70372C566.69644,98.45907,569.093,91,565.31479,85.70005c-4.2507-5.96281-13.525-6.96856-19.78775-9.68107-10.136-4.39018-20.111-9.13875-30.12482-13.79744-20.58-9.5744-41.37006-19.00677-63.40892-24.73515a272.36612,272.36612,0,0,0-120.54108-3.67364,247.274,247.274,0,0,0-58.429,19.13405c-15.05065,7.15988-29.94651,14.64663-45.08379,21.62736-12.05641,5.56-28.20578,5.84433-36.06577,18.63916-5.97135,9.72043-4.42179,25.88523-20.239,24.03141q3.64028,4.83423,7.28057,9.66795-3.66066.51191-7.32131,1.02355,2.27357,3.64181,4.5474,7.28334c-2.62377.52637-5.5018,1.21092-7.056,3.38981-1.5542,2.17863-.33448,6.163,2.33531,5.97811q-5.10847,3.59427-10.21694,7.189a9.21252,9.21252,0,0,0,7.11459,2.14947,66.388,66.388,0,0,0-7.59493,27.47076q2.72361-3.00879,5.44747-6.0176c-2.491,14.94869,4.79261,28.43573,12.66216,42.00374,7.39249,31.14174,32.58139,67.83353,50.00446,93.98021a66.40169,66.40169,0,0,0,19.33841,44.97482c29.52768,29.36346,66.153,19.90453,107.52673,15.18058,41.37276-4.7242,81.31606-17.63483,122.06111-26.23093,22.728-4.79487,46.12365-2.91525,47.74022-1.82656,12.41555-33.72371,40.57122-76.55237,51.4536-112.01064,3.93327-12.81481,8.73015-25.72419,11.37932-38.73063C591.18274,185.33405,592.69015,177.77281,591.35978,169.78808Z" transform="translate(-34.39468 -19.35523)"/><path class="cls-4" d="M549.66171,241.06215c8.92434,17.705,9.33077,37.935,12.30855,57.31916s9.69961,39.79047,27.10237,51.3044a3.289,3.289,0,0,1-.87325-5.52185c1.86124-1.51036,5.28666-.75494,6.03719,1.33141a14.162,14.162,0,0,1-2.41461-9.8783l14.24064,4.30472-1.7944-15.00592,16.22464,1.24486-1.64442-4.9106,20.86574,3.64067a46.39831,46.39831,0,0,1-7.59053-10.42278,44.1047,44.1047,0,0,0,28.00516.325l-9.35668-14.00143a28.01931,28.01931,0,0,1,13.51586-.72959l-4.35066-5.88491a32.25439,32.25439,0,0,0,17.59529-9.73257A20.138,20.138,0,0,1,666.76433,268.099a66.04341,66.04341,0,0,0,18.45155,1.15347l-5.96494-9.129c3.08423,2.41192,8.62619.038,9.7887-3.56795s-.964-7.39757-3.96029-9.896c9.07177-1.8723,17.04961-7.9835,20.54428-15.73734a15.88658,15.88658,0,0,1-11.43417-6.02691l15.09024-6.58874-19.88732-5.072c8.79281-2.88811,14.36063-7.85255,20.56605-14.19a16.131,16.131,0,0,1-9.97987-10.80515,16.30613,16.30613,0,0,0,10.9215-.55556l-10.71-3.817a32.21866,32.21866,0,0,0,18.07557-1.76185l-17.60159-11.07939a24.116,24.116,0,0,0,15.07437-5.09319c-23.25267,1.96565-44.49429-9.88957-62.60721-22.474s-36.14778-26.839-58.82089-30.98918c-1.4477-.265-3.24532-.8199-3.27672-2.14835s3.12658-.695,1.94041.14107l-8.37195-2.10592c2.37255.86016,5.37883-1.62859,4.611-3.81723l-17.365-1.77555,7.84484-8.91861a66.40894,66.40894,0,0,0-35.581,4.597c3.15165,10.61834,12.42534,22.76217,22.23345,29.24733,3.06888,2.02915,6.618,4.0557,7.58742,7.38246.65563,2.24987-.02926,4.65225-.63752,6.94846a108.09556,108.09556,0,0,0-3.21933,37.32295c.38767,4.31539,1.03519,8.69228.04722,12.96973-1.09908,4.75851-4.1259,8.99528-6.65128,13.33513a71.97508,71.97508,0,0,0-9.10155,25.88268c-.44656,3.105-.85295,6.55443-3.46778,8.69252S549.2764,244.172,549.66171,241.06215Z" transform="translate(-34.39468 -19.35523)"/><path class="cls-4" d="M209.2975,254.71156c-6.5134,18.72659-4.25041,38.83374-4.64783,58.44129s-4.37152,40.72166-20.10524,54.42848a3.289,3.289,0,0,0,.138-5.58878c-2.044-1.25192-5.34-.05169-5.80909,2.11537a14.162,14.162,0,0,0,1.09181-10.11035L166.416,360.14136l-.1987-15.11153-15.9191,3.37206.983-5.08447-20.204,6.35855a46.39771,46.39771,0,0,0,6.15085-11.33215,44.10473,44.10473,0,0,1-27.7181,4.01265l7.43-15.11234a28.01935,28.01935,0,0,0-13.49413,1.05786l3.53721-6.4069a32.25443,32.25443,0,0,1-18.72438-7.329,20.138,20.138,0,0,0,8.5204-17.62195A66.04314,66.04314,0,0,1,78.64031,300.519l4.70992-9.83541c-2.7395,2.79731-8.546,1.17437-10.17351-2.2469s-.01928-7.46009,2.62168-10.33157c-9.23938-.66051-17.953-5.66711-22.43894-12.89281a15.8866,15.8866,0,0,0,10.54024-7.48113l-15.82689-4.54272,19.04552-7.64842c-9.09672-1.70423-15.27019-5.89167-22.25662-11.35607a16.131,16.131,0,0,0,8.469-12.026,16.30618,16.30618,0,0,1-10.89946.88849l10.11359-5.19508a32.21865,32.21865,0,0,1-18.15011.63548l15.98808-13.30226a24.11606,24.11606,0,0,1-15.61409-3.06231c23.30892-1.11568,42.803-15.66669,59.09967-30.52824,16.29643-14.86138,32.29538-31.36805,54.22388-38.4701a6.52665,6.52665,0,0,0,2.2321-.7594c.98756-.82306-.04221-1.88516-1.13451-1.41433,2.62722-1.13249,5.32536-2.12535,7.98434-3.183-2.23851,1.16531-5.54654-.90558-5.07383-3.17631L169.08,120.54246l-8.9517-7.80707a66.409,66.409,0,0,1,35.87645-.13184c-1.7249,10.94106-9.31744,24.201-18.18541,31.92214-2.77472,2.41587-6.02582,4.89244-6.54841,8.31794-.35343,2.31664.64207,4.60782,1.54761,6.80385a108.09522,108.09522,0,0,1,8.10959,36.57323c.18439,4.32884.11929,8.7529,1.66232,12.86285,1.71656,4.57218,5.2753,8.37313,8.35054,12.34234a71.97508,71.97508,0,0,1,12.43295,24.45759c.85184,3.01911,1.70924,6.38487,4.583,8.15974S210.08926,257.74353,209.2975,254.71156Z" transform="translate(-34.39468 -19.35523)"/><path class="cls-6" d="M444.221,174.73917l5.28243,8.153a92.7379,92.7379,0,0,1,44.68616-51.66436,49.31624,49.31624,0,0,0-26.58891,9.179l8.00808-10.8062a33.2416,33.2416,0,0,0-15.10473,6.59223,33.94889,33.94889,0,0,1,11.0308-12.17183l-9.19959,1.64839a50.5533,50.5533,0,0,1,16.55791-16.70283,64.59152,64.59152,0,0,0-39.5,16.86948,9.65872,9.65872,0,0,0,2.67232-10.4913,25.04556,25.04556,0,0,0-13.27249,6.409,7.21812,7.21812,0,0,0,1.60951-9.79016l-8.24139,6.78814,4.38741-15.2901a31.25652,31.25652,0,0,0-13.95735,6.16647,64.353,64.353,0,0,1,15.43554-26.8493A61.949,61.949,0,0,0,389.333,116.13552l-2.04446-7.47346-4.07706,9.7091a21.44236,21.44236,0,0,1-2.04369-9.70664,27.38666,27.38666,0,0,0-10.14065,14.91742,47.74989,47.74989,0,0,1-1.88354-31.63359,65.04331,65.04331,0,0,0-24.91311,35.5144l-6.0075-8.39256-2.93943,8.73655-9.04084-12.257-.89822,13.7661a95.317,95.317,0,0,0-36.42745-30.5409q4.61079,13.47805,9.22156,26.95613a7.85625,7.85625,0,0,0-10.99657,1.94974l-9.46427-5.46281,4.28641,7.00664c-13.23356-2.05227-23.07306,1.54066-36.30661-.5116a57.68564,57.68564,0,0,1,43.70617,29.92113,6.72581,6.72581,0,0,1-5.2414-4.82719c6.48428,8.04707,16.19125,22.67321,19.56,32.44319a89.981,89.981,0,0,0,23.9556-3.20781c6.03592-1.65769,11.92589-3.95215,18.1169-4.875,6.53677-.97438,13.1937-.38788,19.77646.20038,17.34783,1.55028,34.74487,3.10779,51.78411,6.71542,12.59587,2.66685,28.01128,5.59448,36.43245-4.14472C452.08433,180.03269,444.3312,172.84819,444.221,174.73917Z" transform="translate(-34.39468 -19.35523)"/><path class="cls-3" d="M567.73464,237.51222c-3.3219-21.9584-14.12657-42.98982-30.6468-59.65466q9.24633,5.15034,18.4924,10.30094a30.13674,30.13674,0,0,0-11.34386-19.41209,31.46636,31.46636,0,0,1,15.40111,5.75932c-4.30371-9.62092-15.23538-16.641-26.92076-17.288,4.45335-2.39542,7.573-6.89831,7.6148-11.50456,0,.32317-1.49736.22156-1.49736.54473-14.66979,10.81045-39.93727,6.99463-49.71084-7.50691-4.064,4.778-8.25307,9.66015-13.95053,12.8817-5.6977,3.22181-13.31376,4.48529-19.24434,1.61078-2.0187-.97854-3.7595-2.38536-5.86193-3.215-4.92942-1.94526-11.39391.08526-13.82781,4.343-4.811-4.82731-13.87558-4.50138-20.01063-1.03915-6.135,3.46248-10.03637,21.25051-13.71639,26.80034-1.22827-4.45687-8.243-5.91525-12.80425-3.72479a14.9659,14.9659,0,0,0-5.68287,5.01693,15.57578,15.57578,0,0,0-6.00805-5.01693c-4.82278-2.19046-12.23915-.73208-13.53758,3.72479-3.89077-5.54983-8.01542-23.33786-14.5018-26.80034-6.48637-3.46223-16.07006-3.78816-21.15641,1.03915-2.57322-4.25769-9.4079-6.28821-14.61973-4.343-2.22265.82966-4.063,2.23648-6.19742,3.215-6.27009,2.87451-14.32223,1.611-20.34611-1.61078-6.02389-3.22155-10.45259-8.10369-14.74926-12.8817-10.33313,14.50154-37.04742,18.31736-52.55717,7.50691,0-.32317-1.58312-.22182-1.58312-.545.04426,4.6065,3.34252,9.10939,8.05088,11.50481-12.35459.64708-23.912,7.66711-28.46213,17.288a34.44,34.44,0,0,1,16.28283-5.75932c-6.6247,4.97593-10.97493,12.01709-11.99346,19.41209q9.77559-5.15073,19.55142-10.30094c-17.46633,16.66484-28.88966,37.69626-32.40169,59.65466,8.14846-13.529,21.04651-25.03007,36.67346-32.70171a60.96423,60.96423,0,0,0-15.69636,26.82821,65.9196,65.9196,0,0,1,13.47094-8.31142q-7.4556,13.6788-14.91171,27.35785c12.35232-9.9652,28.70984-16.40077,45.77052-18.00753a67.1445,67.1445,0,0,0-16.732,24.92571c14.50556-9.27663,33.6214-13.34621,51.66992-11.00033,11.52846,1.49837,22.43422,5.45553,33.94557,7.04367,22.13143,3.05357,39.35784-7.097,53.94162-21.01432.11971.378.19691.76528.32215,1.142a11.122,11.122,0,0,0,5.77467-3.551,11.87784,11.87784,0,0,0,6.10537,3.551c.07117-.20245.11367-.41118.18308-.61413,13.68295,13.646,29.82972,23.50153,50.49849,20.48644,10.88792-1.58814,21.20294-5.5453,32.1072-7.04367,17.07124-2.34588,35.1517,1.7237,48.87187,11.00033a67.509,67.509,0,0,0-15.82613-24.92571,79.48135,79.48135,0,0,1,43.29187,18.00753q-7.05236-13.6788-14.10419-27.35785a61.87687,61.87687,0,0,1,12.74137,8.31142,61.83044,61.83044,0,0,0-14.84607-26.82821C547.82813,212.48215,560.02755,223.98318,567.73464,237.51222Z" transform="translate(-34.39468 -19.35523)"/><circle class="cls-7" cx="425.89948" cy="193.93054" r="34.87181"/><path class="cls-8" d="M460.294,182.70186a30.58391,30.58391,0,1,0,30.58391,30.5839A30.58383,30.58383,0,0,0,460.294,182.70186Zm.00017,56.79694c-15.06489,0-27.2777-12.7146-27.2777-28.39847,0-15.68424,12.21281-28.39847,27.2777-28.39847,15.06524,0,27.27769,12.71423,27.27769,28.39847C487.57185,226.7842,475.3594,239.4988,460.29416,239.4988Z" transform="translate(-34.39468 -19.35523)"/><ellipse class="cls-9" cx="425.89931" cy="171.27353" rx="6.27404" ry="4.55216"/><circle class="cls-7" cx="264.77907" cy="193.93054" r="34.87181"/><path class="cls-10" d="M299.17357,182.70186a30.58391,30.58391,0,1,0,30.58391,30.5839A30.58382,30.58382,0,0,0,299.17357,182.70186Zm.00017,56.79694c-15.06489,0-27.27769-12.7146-27.27769-28.39847,0-15.68424,12.2128-28.39847,27.27769-28.39847,15.06524,0,27.2777,12.71423,27.2777,28.39847C326.45144,226.7842,314.239,239.4988,299.17374,239.4988Z" transform="translate(-34.39468 -19.35523)"/><ellipse class="cls-9" cx="264.7789" cy="171.27353" rx="6.27404" ry="4.55216"/><path class="cls-11" d="M427.14436,245.10764c-.37306-.05349-.33827.6588.03237.727s.692-.24462.93561-.53215a47.9074,47.9074,0,0,0,11.13973-33.53773c-1.06212,2.88966-2.17882,5.86854-4.31155,8.08883a1.75219,1.75219,0,0,1-.693-2.01864l-1.2308,1.67227a3.557,3.557,0,0,0-.64049-2.54574,14.38952,14.38952,0,0,1-4.31747,6.3427,117.39245,117.39245,0,0,1,2.33149-24.43261,51.14163,51.14163,0,0,1-4.83279,14.85476c-2.506,4.58837-6.29153,8.74495-11.13872,10.704a21.24351,21.24351,0,0,0-2.44516-19.05024,116.20128,116.20128,0,0,1-.21983,12.21049c-.10432,1.47546-.35284,3.15429-1.58745,3.96891s-3.42037-.50051-2.68481-1.78379l-2.55087,1.66644.50239-3.11448-4.144,3.39327a21.68463,21.68463,0,0,0-1.487-16.55441,20.31042,20.31042,0,0,1-4.92557,13.35363,14.36033,14.36033,0,0,1-1.82348-6.74314l-1.84009,1.86632-.294-4.55685-4.90285,3.38119c-.48935.33747-1.14789.67917-1.63435.33755a1.49681,1.49681,0,0,1-.44661-1.18228c-.12661-1.92855-1.66517-2.98456-1.79178-4.91311l-3.5055,3.18183,1.28527-4.57867a17.945,17.945,0,0,0-5.74534,8.40869,28.772,28.772,0,0,1,5.16837-20.407c-8.66148,5.22826-18.21651,11.7529-19.59413,21.77578a1.74317,1.74317,0,0,0-.48665-2.95034l-1.95326,6.705-1.05385-6.63736a21.56043,21.56043,0,0,0-2.69415,8.99245,33.78755,33.78755,0,0,1-3.87492-20.35246,25.7298,25.7298,0,0,0-1.40488,21.47716,9.40164,9.40164,0,0,1-5.361-4.00069l-.12517,3.87067a11.99307,11.99307,0,0,1-6.51938-6.50788l.99884,4.60413a24.60578,24.60578,0,0,1-12.07509-16.21693,66.7882,66.7882,0,0,0,12.26428,35.91624c8.20213-4.4344,19.403-1.10986,28.50722.90318C385.28674,245.16388,407.36794,245.44008,427.14436,245.10764Z" transform="translate(-34.39468 -19.35523)"/><path class="cls-12" d="M557.57131,349.02973a16.21264,16.21264,0,0,0,1.92288-.26A4.33482,4.33482,0,0,0,557.57131,349.02973Z" transform="translate(-34.39468 -19.35523)"/><path class="cls-12" d="M557.23482,386.75239q-2.57121.33461-5.14141.66871A12.48718,12.48718,0,0,0,557.23482,386.75239Z" transform="translate(-34.39468 -19.35523)"/><path class="cls-12" d="M318.23793,448.97525a29.06462,29.06462,0,0,0,2.4847,2.88431A3.55368,3.55368,0,0,0,318.23793,448.97525Z" transform="translate(-34.39468 -19.35523)"/><path class="cls-12" d="M566.37087,376.6705a28.35122,28.35122,0,0,1-14.37,2.08056,28.09556,28.09556,0,0,0,16.2954-13.96185,70.20224,70.20224,0,0,1-22.25868,4.03512c7.58638-4.398,11.7475-11.192,16.96034-18.24242a4.63338,4.63338,0,0,0-3.50373-1.81222,16.21264,16.21264,0,0,1-1.92288.26,4.33482,4.33482,0,0,1,1.92288-.26,16.63715,16.63715,0,0,0,7.83686-3.5832q-5.21259-1.89331-10.42517-3.7864l5.33707-6.9056q-3.4743-.36742-6.94961-.7351l3.40715-2.6293a22.17672,22.17672,0,0,1-6.8304-8.91172,11.30947,11.30947,0,0,0,8.92379-4.16917c-5.21737-.01207-9.70441-3.94735-12.30681-8.46885-2.6029-4.52175-3.80953-9.69209-5.77718-14.52392a65.92411,65.92411,0,0,0-11.327-17.81313,100.73349,100.73349,0,0,0-42.51451-29.17611c3.73385.34175,2.2847-4.23648,3.69155-7.66917-5.31922,12.65654-27.99292,5.24063-36.70231,1.55045-5.42162-2.29714-12.83829-10.59357-17.43831-11.83469-3.02716-.81675-24.577,1.03768-24.60192,8.59842a47.60692,47.60692,0,0,0-.68506-8.20389,126.06109,126.06109,0,0,1-16.84767,9.886,6.82012,6.82012,0,0,1,4.19683-7.71062q-6.05985,2.67043-12.11769,5.3406c-1.20973-7.35447-4.14095-19.66084,3.76137-24.73852-20.28255,5.26913-28.27338,12.055-40.74516,27.6759a48.93918,48.93918,0,0,0,2.71707-13.143q-6.86109,4.24839-13.72016,8.49677a12.36091,12.36091,0,0,1,1.11861-7.44957,29.03877,29.03877,0,0,0-7.81624,10.656,45.16147,45.16147,0,0,0-25.16889-15.77935c.24344.39785.45267.81557.72026,1.19758a32.20271,32.20271,0,0,1,6.6,6.3219,22.33278,22.33278,0,0,0,3.62545,1.86453,20.54166,20.54166,0,0,0-3.02489-1.01148,31.55332,31.55332,0,0,1,1.77952,2.65722c.75748,1.30522,1.43851,2.86721.90536,4.27906-1.17395,3.11091-5.916,1.76117-8.457-.38326-2.541-2.14469-6.32039-4.63794-8.73468-2.35192a8.192,8.192,0,0,1-.90636,5.996,40.66755,40.66755,0,0,1-12.77658-4.33641,5.71012,5.71012,0,0,0,1.27152,5.92883q-17.53524,3.34981-35.07048,6.69938,3.75949,4.51094,7.51949,9.02237a79.40932,79.40932,0,0,0-40.37989,21.89529q3.40943,2.20566,6.81985,4.41084a35.59366,35.59366,0,0,0-20.31921,9.89026q4.59243,2.3577,9.18484,4.71514l-7.32131,13.68069c-1.30724,2.44245-.25753,7.22927,1.9777,5.59284q-6.342,9.135-12.684,18.26983a5.71343,5.71343,0,0,0,7.8102,2.113c.01308,7.09648-9.51126,15.04576-16.56348,15.8392A17.844,17.844,0,0,0,205.67,359.69482q-3.22458,4.99644-6.44915,9.99262a13.55008,13.55008,0,0,0,8.56567,1.35778c-3.80954,4.0907-7.67742,10.63291-3.76125,14.62175l-6.61815,3.02842a47.43459,47.43459,0,0,1,22.91154,16.91607q-2.38863,2.54443-4.77827,5.08911a50.29169,50.29169,0,0,0,29.69266,3.87668c-4.64649,3.049-9.57615,6.51555-14.22314,9.56459a33.483,33.483,0,0,0,17.31141,2.74121,9.72411,9.72411,0,0,0-1.64674,7.56526q2.57422-1.39047,5.14846-2.7812.82085,2.74625,1.64272,5.49274c2.73719-2.79378,6.7449,1.82379,7.86653,5.57071a24.45744,24.45744,0,0,0,5.46282-11.28325c3.85984,6.56358,9.09732,10.99278,15.88,14.45375q-1.92313-3.6814-3.84726-7.36255a31.179,31.179,0,0,0,13.48628,11.28,5.73444,5.73444,0,0,1,2.10395-5.33733,41.78685,41.78685,0,0,0,9.37144,9.3805A6.99742,6.99742,0,0,0,305.07,446.014c.99942,3.29474,2.07025,6.717,4.43424,9.2203,2.36348,2.50356,6.431,3.75949,9.32516,1.8942a5.065,5.065,0,0,0,1.8932-5.26892,29.06462,29.06462,0,0,1-2.4847-2.88431,3.55368,3.55368,0,0,1,2.4847,2.88431A30.3672,30.3672,0,0,0,338.37,460.844q-.037-3.79947-.07343-7.5987c5.26012,6.83921,12.30077,13.07837,20.86544,14.12456,8.56467,1.04594,18.28417-5.21736,18.17854-13.84516,7.096,3.16875,15.974,5.66,21.634,10.98449-.49292-5.20781,7.82529-8.29935,10.85371-4.03412a14.6843,14.6843,0,0,0,11.77616-10.05951A41.13726,41.13726,0,0,1,435.299,461.92511a98.99745,98.99745,0,0,0,16.1933-20.93787q2.51991,4.102,5.0378,8.20379a21.42974,21.42974,0,0,1,5.162-7.1068q1.84164,3.208,3.68228,6.416c1.04116-3.82362,5.9155-4.67189,9.7351-5.72763,3.81909-1.056,7.97165-5.24579,5.501-8.34412,5.16355,4.768,14.51537,7.0233,21.54345,6.9979a11.10051,11.10051,0,0,1-1.93344-8.07728,21.54941,21.54941,0,0,1,8.68438,1.75236,7.1462,7.1462,0,0,0-1.38168-7.08667,14.541,14.541,0,0,1,6.95163,1.4868q.31461-4.58942.62972-9.17855A41.15865,41.15865,0,0,0,550.843,407.41488a23.21245,23.21245,0,0,1-13.49735-1.32836,29.82347,29.82347,0,0,0,18.94457-7.77726,24.36623,24.36623,0,0,0-10.16312,1.46291,63.358,63.358,0,0,0,18.59652-13.994q-3.7444.487-7.48881.97426a12.48718,12.48718,0,0,1-5.14141.66871q2.57121-.33423,5.14141-.66871A13.798,13.798,0,0,0,566.37087,376.6705Z" transform="translate(-34.39468 -19.35523)"/><path class="cls-6" d="M360.85679,166.69948a66.75139,66.75139,0,0,1,3.11578,40.15077,34.13228,34.13228,0,0,0-1.89924-38.50936" transform="translate(-34.39468 -19.35523)"/><path class="cls-6" d="M409.91137,208.30454c-2.21581-3.39758-2.27125-12.39632-2.6069-16.67278-.57328-7.30417.759-15.85178-4.99319-24.93228C402.40128,177.7942,403.71193,198.79874,409.91137,208.30454Z" transform="translate(-34.39468 -19.35523)"/><path class="cls-3" d="M197.72155,276.3236l6.72007,5.13769c-.91577-10.91327-8.27127-20.0057-14.34625-29.11794A148.5223,148.5223,0,0,1,168.94,139.23762c-12.23013,10.915-25.10086,26.755-28.92778,42.6945a96.81138,96.81138,0,0,1,13.57056-19.79267,71.37788,71.37788,0,0,0-4.94736,33.05191c1.2777,14.34669,6.75789,29.56016.5,42.53314a43.47854,43.47854,0,0,0,10.01708-37.87909l4.90823,27.8741c2.77954,15.78507,5.56889,31.6893,5.26575,47.71435a39.41325,39.41325,0,0,0,5.49879-41.44821C182.14,251.97466,182.29432,264.52905,197.72155,276.3236Z" transform="translate(-34.39468 -19.35523)"/><path class="cls-3" d="M566.92284,268.75887l-6.72008,5.13769c.91578-10.91328,8.27127-20.00571,14.34625-29.118a148.52233,148.52233,0,0,0,21.15536-113.10572c12.23012,10.915,25.10086,26.755,28.92777,42.69449a96.81138,96.81138,0,0,0-13.57056-19.79267,71.37777,71.37777,0,0,1,4.94736,33.05191c-1.2777,14.34669-6.75789,29.56017-.49994,42.53315a43.47853,43.47853,0,0,1-10.01709-37.87909l-4.90823,27.87409c-2.77954,15.78508-5.56889,31.6893-5.26575,47.71436a39.41326,39.41326,0,0,1-5.49878-41.44822C582.50436,244.40993,582.35006,256.96432,566.92284,268.75887Z" transform="translate(-34.39468 -19.35523)"/><path class="cls-6" d="M86.98775,228.09542c4.21095-6.87854,6.63481-14.68145,10.13546-21.94726a81.388,81.388,0,0,1,24.87824-30.01852c-10.34685,10.17965-14.70128,24.7546-20.7237,37.96123-5.5526,12.17635-14.87134,26.52619-29.12461,28.84209C77.30933,238.17183,83.16547,234.33889,86.98775,228.09542Z" transform="translate(-34.39468 -19.35523)"/><path class="cls-6" d="M116.06423,215.93878a211.933,211.933,0,0,0-7.80181,27.26166c-1.94227,9.03459-3.41411,18.50178-8.57872,26.16549-4.1811,6.204-11.25629,10.55376-18.81817,10.23714,8.19138-8.834,13.39238-19.20963,17.81779-31.01974C102.95429,237.18536,112.302,226.38448,116.06423,215.93878Z" transform="translate(-34.39468 -19.35523)"/><path class="cls-6" d="M128.6977,296.35022c.14,12.03972-1.68035,25.37177-10.78623,33.24944,13.12973-7.35483,16.11454-24.62241,17.49173-39.60862a11.44547,11.44547,0,0,0,4.80832,10.202c.29722-10.69834-3.37917-21.04321-5.80232-31.46776s-3.47253-21.94184,1.64631-31.3408l-5.45475,4.43127c5.48614-4.45677,2.62055-24.01056.19573-28.92783C118.92376,237.63616,128.39235,270.09009,128.6977,296.35022Z" transform="translate(-34.39468 -19.35523)"/><path class="cls-6" d="M167.81248,291.56831a21.77173,21.77173,0,0,1,4.00432,17.8598,42.54148,42.54148,0,0,0,7.51224-20.551c-1.75517,19.69513-5.71322,32.64048-20.62694,46.63455C168.04569,323.18446,171.69764,306.60623,167.81248,291.56831Z" transform="translate(-34.39468 -19.35523)"/><path class="cls-6" d="M674.84961,210.50637c-4.211-6.87854-6.63481-14.68146-10.13546-21.94726a81.388,81.388,0,0,0-24.87824-30.01853c10.34685,10.17966,14.70128,24.75461,20.7237,37.96124,5.5526,12.17634,14.87134,26.52618,29.12461,28.84209C684.528,220.58277,678.67189,216.74984,674.84961,210.50637Z" transform="translate(-34.39468 -19.35523)"/><path class="cls-6" d="M645.77313,198.34972a211.93315,211.93315,0,0,1,7.80181,27.26167c1.94227,9.03458,3.41411,18.50177,8.57872,26.16549,4.1811,6.204,11.25629,10.55376,18.81816,10.23714-8.19137-8.834-13.39237-19.20964-17.81778-31.01975C658.88307,219.5963,649.53536,208.79543,645.77313,198.34972Z" transform="translate(-34.39468 -19.35523)"/><path class="cls-6" d="M633.13966,278.76116c-.14,12.03973,1.68035,25.37178,10.78622,33.24945-13.12972-7.35484-16.11453-24.62241-17.49172-39.60863a11.44546,11.44546,0,0,1-4.80833,10.202c-.29721-10.69834,3.37918-21.04321,5.80232-31.46775s3.47254-21.94185-1.6463-31.3408l5.45475,4.43127c-5.48614-4.45677-2.62055-24.01056-.19573-28.92783C642.91359,220.04711,633.445,252.501,633.13966,278.76116Z" transform="translate(-34.39468 -19.35523)"/><path class="cls-6" d="M594.02488,273.97926a21.7717,21.7717,0,0,0-4.00432,17.85979,42.5414,42.5414,0,0,1-7.51224-20.551c1.75517,19.69514,5.71321,32.64049,20.62694,46.63455C593.79167,305.59541,590.13972,289.01717,594.02488,273.97926Z" transform="translate(-34.39468 -19.35523)"/><path class="cls-4" d="M340.95138,32.71439a27.51681,27.51681,0,0,1-8.05346-8.56463l-2.10381,6.42851-3.498-1.04556a12.23787,12.23787,0,0,1-2.97627,5.372L321.846,31.749a11.91808,11.91808,0,0,1-3.715,4.13761A14.29659,14.29659,0,0,0,313.3252,28.335l-6.39755,10.041-4.54158-1.0429a6.28379,6.28379,0,0,1-1.79511,4.98027l-3.29952-2.31317a12.52973,12.52973,0,0,0-1.90679,4.95587l-4.96419-3.93862-3.92892,5.653L278.728,39.12672l-1.63509,11.50622a4.84708,4.84708,0,0,0-4.85193,2.57133,8.33059,8.33059,0,0,0-3.77689-2.8176l-.48716,5.00459L264.468,53.159a2.78334,2.78334,0,0,1-.35255,4.44627,6.5531,6.5531,0,0,1-4.02744-4.48265l-2.20167,4.50455a18.41517,18.41517,0,0,1-8.07642-6.85382A34.75368,34.75368,0,0,1,242.52711,67.664c4.68949,4.03332,10.22245,4.2025,16.37416,3.5579s11.99335-2.938,17.74669-5.2091L301.65,56.1432c10.28376-4.05953,20.9637-8.38914,28.319-16.64357,1.88208-2.11217,3.538-4.47421,5.80953-6.16053C336.88938,32.51441,339.6389,33.15207,340.95138,32.71439Z" transform="translate(-34.39468 -19.35523)"/><path class="cls-4" d="M521.44073,79.89381c-1.39995-.735-2.09932,2.25756-.63368,2.85079s3.03251-.51531,4.17513-1.6082a46.945,46.945,0,0,0,11.12467-16.49765l-14.10152,2.12679a17.21842,17.21842,0,0,1,.94672-9.748c-1.30538,3.19874-6.20935-.93452-5.33671-4.27734s3.79344-6.45019,2.78532-9.75467a26.36024,26.36024,0,0,1-15.76611,11.3699,4.31793,4.31793,0,0,1-.972-4.80234,23.5074,23.5074,0,0,1-9.11861,5.81632l1.8283-7.8218a9.69712,9.69712,0,0,1-7.26644,3.82189,15.985,15.985,0,0,0-1.26853-13.62268L483.53378,44.89a11.11943,11.11943,0,0,1-4.40268-4.84491,5.90828,5.90828,0,0,1-11.44157-2.72857,7.79538,7.79538,0,0,1-7.19379,2.36389l-1.93994-6.27287c-2.22285,4.3957-10.13357,3.523-11.34479-1.25151l-6.28376,2.57167a9.46313,9.46313,0,0,1,3.64932-8.802,40.51279,40.51279,0,0,0-22.38584,6.67852l1.42015-5.64274-9.1236,3.91256.18578-5.19078-6.41663,4.82852,4.96552-11.1566-25.29461,9.1991-3.73528-2.60891-5.75742,3.36994a19.25193,19.25193,0,0,1-5.53655-7.20843,22.49931,22.49931,0,0,1-21.18983,8.17618c20.10958,18.00035,47.037,24.43239,73.49832,29.74328s53.59058,7.96348,79.18118,16.53841C510.39327,78.57712,515.28046,81.36578,521.44073,79.89381Z" transform="translate(-34.39468 -19.35523)"/><path class="cls-4" d="M532.22494,72.564a37.74655,37.74655,0,0,0,14.37226-6.18044,7.86707,7.86707,0,0,0-1.03829,7.27286A3.58757,3.58757,0,0,0,550.12454,71.51a4.03908,4.03908,0,0,0,.58145,5.6974,13.99049,13.99049,0,0,0,9.08689-5.53642,28.66324,28.66324,0,0,1-7.734,18.8479,3.32216,3.32216,0,0,1-2.08005,1.26451,3.52753,3.52753,0,0,1-2.29444-1.11337c-6.60382-5.579-13.69964-12.05955-14.499-20.66746" transform="translate(-34.39468 -19.35523)"/><path class="cls-4" d="M213.85246,90.614a45.63443,45.63443,0,0,0,.55218-20.017,11.66521,11.66521,0,0,0,8.35569,5.67447,4.43118,4.43118,0,0,0-.04967-6.47214,5.91632,5.91632,0,0,0,7.33694,2.87414,17.48374,17.48374,0,0,0-1.65413-13.66469A41.43581,41.43581,0,0,1,247.18654,79.395a4.14741,4.14741,0,0,1,.37518,3.1262,4.313,4.313,0,0,1-2.67094,1.89477c-10.60775,3.9827-22.60351,7.96111-33.64366,3.5296" transform="translate(-34.39468 -19.35523)"/><path class="cls-13" d="M462.5198,426.01693c-8.66476-7.60826-20.42659-10.33036-30.99385-14.94516-18.727-8.17814-36.74792-21.982-45.92823-40.23849,1.17344,12.26053-13.41354,26.10081-21.9689,34.96122-16.02053,16.59116-43.9341,17.24618-53.91978,34.63287-2.42062,4.21469,1.61455,9.86216,0,14.42867.10436.12021.1783.2618.2882.37824,2.36348,2.50356,6.43105,3.75949,9.32517,1.8942a5.065,5.065,0,0,0,1.8932-5.26892,29.0633,29.0633,0,0,1-2.4847-2.88431,3.55369,3.55369,0,0,1,2.4847,2.88431,30.36717,30.36717,0,0,0,17.6474,8.9844q-.037-3.79947-.07344-7.5987c5.26012,6.83921,12.30078,13.07837,20.86544,14.12456,8.56467,1.04594,18.28417-5.21736,18.17855-13.84516,7.096,3.16875,15.974,5.66,21.634,10.98449-.49291-5.20781,7.8253-8.29935,10.85371-4.03412a14.68433,14.68433,0,0,0,11.77617-10.05951,41.13722,41.13722,0,0,1,13.69451,11.50959,98.99713,98.99713,0,0,0,16.1933-20.93787q2.51991,4.102,5.03781,8.20379a21.42985,21.42985,0,0,1,5.162-7.1068q1.84166,3.208,3.68229,6.416c.803-2.9492,3.88574-4.12541,7.0067-4.9948A34.12915,34.12915,0,0,0,462.5198,426.01693Z" transform="translate(-34.39468 -19.35523)"/><path class="cls-14" d="M409.28743,397.55888c-9.59174-7.30421-17.85211-16.2539-23.16982-26.7256l-.122.01383c.73887,9.28518-7.43675,19.44277-15.14283,27.65158,4.265,4.28762,11.07552,7.07813,18.77607,7.07813C397.8812,405.57682,405.12053,402.37865,409.28743,397.55888Z" transform="translate(-34.39468 -19.35523)"/><path class="cls-15" d="M467.03521,326.594a20.57905,20.57905,0,0,1,13.92324,13.13777,36.95725,36.95725,0,0,0-10.841-32.33458,18.751,18.751,0,0,1,15.72665,9.84889c.76655-12.92387-7.059-25.95369-19.16735-31.91418a51.12106,51.12106,0,0,1,20.45392-4.446,35.02388,35.02388,0,0,0-19.206-4.575l3.95712-6.45467a17.53921,17.53921,0,0,0-8.99282,4.51272c1.60746-4.35172-2.31036-9.66033,1.37134-12.66993l5.52625.847a34.15207,34.15207,0,0,0-16.00827,2.76592,11.4344,11.4344,0,0,1,3.98983-7.60693l-16.30972,5.69959c.13639-5.87058.75851-10.02255,6.10871-12.97264a145.68375,145.68375,0,0,0-45.07443,10.81627c-2.48665-3.4657.37083-9.05913,4.77823-9.35324a76.20039,76.20039,0,0,0-31.371,9.724l5.8706-8.0587a19.18794,19.18794,0,0,0-12.322,6.44527c-2.639-3.3776-.73487-9,3.48362-10.28623a34.257,34.257,0,0,0-15.86312,11.27587,61.77533,61.77533,0,0,0-12.82487-6.4367l3.9169,10.2411c-10.92288-5.25526-23.66618,2.3115-35.89978,2.84554-9.332.40738-18.27194-3.37349-26.49474-7.58063,3.75387,9.8045,9.51637,19.58838,19.28386,24.37418L281.49461,288.092a35.59347,35.59347,0,0,1,12.64371.75351l-4.90064,1.70377a59.16383,59.16383,0,0,1,13.70507,5.78013c-11.76785,3.69752-20.467,14.8659-20.73976,26.62653a1.8766,1.8766,0,0,1,1.82055-2.73581c8.14082-4.984,14.84473-7.34414,24.078-10.12776-6.5313,2.463-10.587,9.74751-9.05043,16.2556a15.99459,15.99459,0,0,1,.7938,3.97658,12.82594,12.82594,0,0,1-1.14386,4.04691c-3.27022,8.79458-1.05139,18.75517,3.6841,26.92714s11.76449,14.89616,18.7,21.50361c-4.7894-9.5389-9.69837-20.0973-6.874-30.318,1.81772-6.57793,6.78076-12.6868,5.754-19.417L332.256,373.29457c2.04843,6.7044,4.1105,13.48384,4.467,20.45615a42.97373,42.97373,0,0,1-3.79178,19.88519,57.03725,57.03725,0,0,0,10.43087-48.64922,29.076,29.076,0,0,1,6.76936,14.2658c.93031-1.81521,2.33323-3.664,4.41882-4.06066s4.52962,1.69149,3.56819,3.492a13.99069,13.99069,0,0,1,6.24472-3.68036l4.00881,12.48224a13.70887,13.70887,0,0,1,9.83211-9.80846,25.00384,25.00384,0,0,1,4.61463,19.67282,46.87364,46.87364,0,0,0,10.61355-29.16141l2.39628,6.65471a7.84,7.84,0,0,0,5.35488-2.64194,5.57933,5.57933,0,0,1,2.21579,3.67063,3.93886,3.93886,0,0,1,4.35028.47665,15.925,15.925,0,0,1,3.92289-8.48622,35.47619,35.47619,0,0,1,12.80077,15.62221c5.42212-8.25016,7.13578-18.77342,3.73061-27.94393,8.858,2.23534,13.183,11.501,16.31031,19.67708,2.94593,7.70178,5.64224,17.07168.21582,23.44471,6.37562.79875,11.40278-5.73367,11.86774-11.82043s-1.97508-12.01067-2.70538-18.07392c-.37449-3.10919-.29818-6.25842-.74174-9.35942a29.0066,29.0066,0,0,0-6.20863-14.1016c7.894,2.27258,12.34682,5.7904,15.82893,12.887-1.64377-3.189-3.32922-6.56834-3.06725-10.10972a14.1786,14.1786,0,0,0,9.98233,4.42758,10.30362,10.30362,0,0,1,4.2148,10.52234l1.35431-14.43887C476.06041,340.00885,474.35344,331.70152,467.03521,326.594Z" transform="translate(-34.39468 -19.35523)"/><path class="cls-16" d="M341.364,287.20666a23.50378,23.50378,0,0,0-1.04427,7.74971A58.52146,58.52146,0,0,0,369.05556,344.627a37.12875,37.12875,0,0,0,12.08127,4.65084c16.16808,2.79153,31.2275-9.1898,40.97518-22.3876,9.11218-12.33738,15.88668-28.95885,9.14981-42.73768C419.21379,259.5109,350.90226,259.77455,341.364,287.20666Z" transform="translate(-34.39468 -19.35523)"/><path class="cls-17" d="M342.51824,310.60563a74.81612,74.81612,0,0,1,13.1027-.94464c5.25813.0841,11.72271,1.74187,12.8503,6.87837.64061,2.91818-.8695,5.97243-3.0839,7.97807s-6.44578,3.16787-9.214,4.29175a4.705,4.705,0,0,1-3.40629.45641,4.50573,4.50573,0,0,1-1.709-1.4676c-4.15754-5.07845-6.14144-10.78832-8.60146-16.87306" transform="translate(-34.39468 -19.35523)"/><path class="cls-17" d="M431.6349,309.33215a84.455,84.455,0,0,0-13.88414-1.41369c-5.25813.0841-11.72271,1.74187-12.85029,6.87836-.64062,2.91818.8695,5.97244,3.0839,7.97808s6.44578,3.16787,9.214,4.29175c1.08923.44221,3.19074,1.82138,4.02968.99788a13.87078,13.87078,0,0,0,1.30975-1.75637c4.15754-5.07845,6.69874-10.572,9.15876-16.65671" transform="translate(-34.39468 -19.35523)"/><path class="cls-18" d="M269.43044,338.02958s30.34226-20.22817,64.89873-22.7567" transform="translate(-34.39468 -19.35523)"/><path class="cls-18" d="M267.03887,370.02928s36.85587-35.78124,70.66166-43.37805" transform="translate(-34.39468 -19.35523)"/><path class="cls-18" d="M287.55151,387.75718s18.5425-36.66357,51.8347-49.7276" transform="translate(-34.39468 -19.35523)"/><path class="cls-18" d="M512.11777,324.93584s-30.34226-20.22817-64.89873-22.75669" transform="translate(-34.39468 -19.35523)"/><path class="cls-18" d="M514.50934,356.93554s-36.85587-35.78124-70.66166-43.37805" transform="translate(-34.39468 -19.35523)"/><path class="cls-18" d="M493.9967,374.66345s-18.5425-36.66357-51.8347-49.72761" transform="translate(-34.39468 -19.35523)"/><path class="cls-19" d="M204.11779,819.97238c-12.64155,16.2902-23.18973,29.52289-11.379,54.64872" transform="translate(-34.39468 -19.35523)"/><path class="cls-19" d="M252.09545,819.97238c-12.64155,16.2902-23.18974,29.52289-11.37905,54.64872" transform="translate(-34.39468 -19.35523)"/><path class="cls-19" d="M567.50335,830.76683c12.64155,16.2902,23.18974,29.5229,11.37905,54.64873" transform="translate(-34.39468 -19.35523)"/><path class="cls-19" d="M519.5257,829.774c12.64155,16.2902,23.18973,29.52289,11.379,54.64873" transform="translate(-34.39468 -19.35523)"/></svg>