<svg xmlns="http://www.w3.org/2000/svg" xmlns:xlink="http://www.w3.org/1999/xlink" viewBox="0 0 608.80427 899.72278"><defs><style>.cls-1,.cls-27{fill:none;}.cls-2{fill:url(#未命名漸層_58);}.cls-3{fill:#8e603d;}.cls-4{fill:#c8c8c9;}.cls-5{fill:#f1f1f1;}.cls-6{clip-path:url(#clip-path);}.cls-7{fill:#2b2b2b;}.cls-8{clip-path:url(#clip-path-2);}.cls-9{fill:#6e4c36;}.cls-10{fill:#161715;}.cls-11{fill:#b2875c;}.cls-12{fill:#a2774f;}.cls-13{fill:#906d4c;}.cls-14{fill:#76593c;}.cls-15{fill:#e4e6e7;}.cls-16{fill:#b9babd;}.cls-17{fill:#070001;}.cls-18{fill:#fff;}.cls-19{fill:#050409;}.cls-20{fill:url(#未命名漸層_102);}.cls-21{fill:url(#未命名漸層_102-2);}.cls-22{fill:#9f734b;}.cls-23{fill:url(#未命名漸層_102-3);}.cls-24{fill:url(#未命名漸層_102-4);}.cls-25{fill:#c6c8c8;}.cls-26{fill:#d2d2d3;}.cls-27{stroke:#c0bebe;stroke-linecap:round;stroke-linejoin:round;stroke-width:0.25px;}.cls-28{fill:#1e2020;}</style><radialGradient id="未命名漸層_58" cx="316.57293" cy="772.90217" fx="288.19977643526454" fy="762.2204349449605" r="417.06491" gradientTransform="translate(0 385.35399) scale(1 0.50142)" gradientUnits="userSpaceOnUse"><stop offset="0" stop-color="#9f9e9f"/><stop offset="0.99577" stop-color="#f6f7f5" stop-opacity="0"/></radialGradient><clipPath id="clip-path"><path class="cls-1" d="M355.273,330.644c29.88621,27.55314,48.07953,66.60785,60.82133,104.55652,15.1156,45.01855,16.10853,83.17131,6.88759,129.80583-13.8444,70.01749-23.52662,139.99764-37.371,210.01513,7.44595,11.9265,16.79859,22.99233,20.98983,36.41311s1.36113,30.53754-10.91464,37.3924c-1.73059-.84716-4.15646-1.26493-3.64144-3.12163.34193,4.1556-4.48414,6.6653-8.55924,7.54823-28.69511,6.21722-58.63531-11.59164-74.0681-36.56947s-18.86677-55.5414-18.42308-84.899,4.37067-58.72894,2.06871-87.99948c-1.09542-13.9288-3.95245-28.50806-13.14867-39.02666s-26.43778-15.04923-37.44728-6.44678c-8.26823,6.46051-10.65741,17.82472-11.71586,28.26413-2.43334,23.99974-.82935,48.20452.77644,72.2738,1.85983,27.87732,1.054,60.20887.53412,88.14333a71.6029,71.6029,0,0,1-80.96752,69.6539c-3.58955-.47416-7.25914-1.26987-10.21272-3.36416-5.53865-3.92727-7.23245-11.381-7.44826-18.16724a66.5991,66.5991,0,0,1,11.34608-39.173c3.67469-5.42183,8.09643-6.425,7.30436-12.92673a829.80421,829.80421,0,0,0-31.005-144.95209c-13.68221-44.1967-31.2531-88.29967-31.57943-134.56461-.44222-62.69219,31.663-122.35837,76.09654-166.5869,30.46049,2.33642,61.31887-2.21845,90.18574-12.21866,9.38194-3.25014,18.58337-7.13615,28.27028-9.32868a99.64421,99.64421,0,0,1,45.55339.6177C339.2841,318.45556,347.79305,323.748,355.273,330.644Z"/></clipPath><clipPath id="clip-path-2"><path class="cls-1" d="M412.59974,492.02921c29.83834,49.61586,40.28434,110.64494,31.14291,167.81569,11.11318-3.33281,23.18879,3.67434,29.61517,13.33416,9.76325,14.67569,9.38764,33.88509,5.86033,51.15515-8.32678,40.7687-32.8512,79.52481-66.92829,103.40314,0,0-288.73835,6.057-293.73088,1.08443A210.91683,210.91683,0,0,1,59.36031,712.03812c-1.75859-11.56425-2.46521-23.80211,2.10707-34.56867s15.79218-19.47791,27.353-17.69659A250.88217,250.88217,0,0,1,112.9331,512.40255c40.36081,9.84044,84.41526,18.64708,125.85472,21.5797s84.16285-1.39878,121.83993-18.89928c15.85711-7.36541,30.57527-16.9326,45.232-26.46552,2.08241-1.35444,4.82066-2.722,6.88108-1.33437S414.026,494.06309,412.59974,492.02921Z"/></clipPath><radialGradient id="未命名漸層_102" cx="172.11233" cy="201.41101" r="27.41577" gradientUnits="userSpaceOnUse"><stop offset="0.05234" stop-color="#8b5f3c"/><stop offset="0.99492" stop-color="#261306"/></radialGradient><radialGradient id="未命名漸層_102-2" cx="184.74945" cy="177.14924" r="15.77206" xlink:href="#未命名漸層_102"/><radialGradient id="未命名漸層_102-3" cx="-794.42024" cy="192.95271" r="27.41577" gradientTransform="matrix(-1, 0, 0, 1, -455.8202, 0)" xlink:href="#未命名漸層_102"/><radialGradient id="未命名漸層_102-4" cx="-781.78312" cy="168.69093" r="15.77206" gradientTransform="matrix(-1, 0, 0, 1, -455.8202, 0)" xlink:href="#未命名漸層_102"/></defs><title>lafu</title><g id="tail"><ellipse class="cls-2" cx="275.46152" cy="791.85814" rx="274.91752" ry="107.86464"/><path class="cls-3" d="M608.42615,652.08479l.01595-.10444c2.11113-13.886-5.25432-27.08493-15.65586-10.78354q2.09731-2.95982,4.429-5.6982c-52.6995,61.89051-103.97436,110.79729-183.04,126.15447-25.81775,5.01466-52.11154,6.12169-78.30822,7.21766l-54.97985,2.30017c56.53,31.44261,123.62708,41.41,183.747,19.50388,33.00856-12.02748,63.44968-32.257,88.91951-58.42556,16.95332-17.436,35.0304-35.20083,47.58458-56.93384C604.37088,669.71927,607.12742,660.554,608.42615,652.08479Z"/></g><g id="body"><path class="cls-4" d="M412.59974,492.02921c29.83834,49.61586,40.28434,110.64494,31.14291,167.81569,11.11318-3.33281,23.18879,3.67434,29.61517,13.33416,9.76325,14.67569,9.38764,33.88509,5.86033,51.15515-8.32678,40.7687-32.8512,79.52481-66.92829,103.40314,0,0-288.73835,6.057-293.73088,1.08443A210.91683,210.91683,0,0,1,59.36031,712.03812c-1.75859-11.56425-2.46521-23.80211,2.10707-34.56867s15.79218-19.47791,27.353-17.69659A250.88217,250.88217,0,0,1,112.9331,512.40255c40.36081,9.84044,84.41526,18.64708,125.85472,21.5797s84.16285-1.39878,121.83993-18.89928c15.85711-7.36541,30.57527-16.9326,45.232-26.46552,2.08241-1.35444,4.82066-2.722,6.88108-1.33437S414.026,494.06309,412.59974,492.02921Z"/><path class="cls-5" d="M355.273,332.4788c29.88621,27.55315,48.07953,66.60786,60.82133,104.55653,15.1156,45.01854,16.10853,83.17131,6.88759,129.80583-13.8444,70.01748-23.52662,139.99764-37.371,210.01512,7.44295,11.9217,16.79106,22.98343,20.98476,36.3969,6.66036,21.303-8.97678,41.33449-30.26547,43.02641-24.58689,1.95405-38.185-19.36893-49.55085-37.76442C295.566,767.99163,306.769,693.51632,302.27757,636.40578c-1.09543-13.92877-3.95246-28.508-13.14866-39.02657s-35.65239-5.83461-46.66189,2.76784c-8.26823,6.4605-10.65741,17.82471-11.71586,28.26413-2.43334,23.99973-.82935,48.20452.77644,72.27379,1.85983,27.87733,1.054,60.20888.53412,88.14333a71.60292,71.60292,0,0,1-80.96752,69.65391c-3.58955-.47417-7.25914-1.26987-10.21272-3.36416-5.53865-3.92727-7.23245-11.381-7.44826-18.16725a66.59907,66.59907,0,0,1,11.34608-39.173c3.67469-5.42183,8.09643-6.425,7.30436-12.92673a829.804,829.804,0,0,0-31.005-144.95209c-13.68221-44.1967-31.2531-88.29967-31.57943-134.56461-.44222-62.6922,31.663-122.35837,76.09654-166.58691,30.46049,2.33643,61.31887-2.21844,90.18574-12.21865,9.38194-3.25014,18.58337-7.13615,28.27028-9.32868a99.64435,99.64435,0,0,1,45.55339.61769C339.2841,320.29038,347.79305,325.58287,355.273,332.4788Z"/><g class="cls-6"><path class="cls-3" d="M129.56834,505.28839c3.17853-37.878,5.47321-77.58278,25.1524-110.10322q-21.37476,7.232-42.36734,15.534c-11.83914,4.68221-24.087,9.98771-32.07962,19.8976-9.06835,11.24363-11.12013,26.49724-11.75788,40.928C67.46842,495.247,66.992,582.54641,90.81884,596.74114,120.72,614.55462,128.08568,522.957,129.56834,505.28839Z"/><path class="cls-7" d="M110.20846,400.63746C103.077,410.694,95.61851,421.84085,96.44,434.142a159.69162,159.69162,0,0,0,38.22862-16.32631c5.91108-3.4979,11.70645-7.48136,15.84149-12.96567,4.41908-5.861,6.65932-13.0573,8.37273-20.19486,2.607-10.8599,5.40832-23.3797,4.76007-34.61583-.81961-14.20615-1.35144-16.68779-11.61527-8.384C135.48956,355.03508,122.59575,383.16931,110.20846,400.63746Z"/><path class="cls-3" d="M386.96092,503.17819c-3.17853-37.878-5.47321-77.58278-25.1524-110.10322q21.37475,7.232,42.36734,15.534c11.83913,4.68221,24.087,9.98771,32.07962,19.8976,9.06835,11.24363,11.12013,26.49724,11.75787,40.928,1.04748,23.70217,1.5239,111.0016-22.30293,125.19633C395.80926,612.44442,388.44358,520.84682,386.96092,503.17819Z"/><path class="cls-7" d="M406.3208,398.52726c7.13147,10.05655,14.58994,21.20339,13.7685,33.5045a159.69162,159.69162,0,0,1-38.22862-16.32631c-5.91108-3.4979-11.70645-7.48136-15.84149-12.96567-4.41908-5.861-6.65932-13.0573-8.37274-20.19486-2.607-10.8599-5.40831-23.3797-4.76006-34.61583.81961-14.20615,1.35144-16.68779,11.61527-8.384C381.0397,352.92488,393.9335,381.05911,406.3208,398.52726Z"/><path class="cls-3" d="M113.80894,558.13339a22.22956,22.22956,0,0,1,9.44,18.63411,79.90891,79.90891,0,0,0,6.08272-25.8113l4.25011,6.70731a246.41933,246.41933,0,0,0,.03384-46.8024,7.02311,7.02311,0,0,1,3.93214,5.55377c4.038-.37832,4.37456-3.95782,3.75617-7.9661l-3.96671-25.71163a36.88322,36.88322,0,0,1,6.94744,12.026l.56406-22.79163,3.69067,9.52286-2.56871-70.89421c-6.14488,3.70549-8.86362,11.07342-11.00882,17.92092A530.30939,530.30939,0,0,0,111.507,558.37564C111.51077,556.85308,113.80515,559.65594,113.80894,558.13339Z"/><path class="cls-3" d="M402.86864,560.41874a22.22958,22.22958,0,0,0-9.44,18.63412,79.90917,79.90917,0,0,1-6.08272-25.8113l-4.25011,6.70731a246.41933,246.41933,0,0,1-.03384-46.8024,7.02313,7.02313,0,0,0-3.93214,5.55377c-4.038-.37832-4.37456-3.95782-3.75617-7.9661l3.96671-25.71163a36.88322,36.88322,0,0,0-6.94744,12.026l-.56405-22.79164-3.69068,9.52287,2.56871-70.89421c6.14488,3.70549,8.86362,11.07341,11.00882,17.92092A530.30883,530.30883,0,0,1,405.17059,560.661C405.16681,559.13844,402.87243,561.9413,402.86864,560.41874Z"/></g><g class="cls-8"><path class="cls-9" d="M65.62841,656.30592C55.86028,657.47063,48.7295,666.96486,46.941,676.716s.56857,19.7358,2.912,29.36675a11.91765,11.91765,0,0,0,2.10444,5.06141c2.52359,2.95674,7.05939,2.69311,10.89479,2.17945,11.05966-1.48119,22.4842-3.08858,32.00277-8.956s16.65889-17.21859,14.13586-28.17509A38.94005,38.94005,0,0,1,85.21438,666.47c-3.52842-3.13689-6.50658-6.93346-10.419-9.56712s-9.255-3.90315-13.28646-1.45883"/><path class="cls-10" d="M62.158,656.211l-1.13177,5.25914q10.11986-17.23443,20.94354-34.0425a137.53773,137.53773,0,0,1,34.17748,47.58744c1.78069,4.1266,3.09648,9.58642-.26164,12.57352a10.033,10.033,0,0,1-5.26945,2.01275c-20.11543,3.08083-41.51867-9.75836-48.27-28.95579C61.6428,662.05233,62.48894,654.67333,62.158,656.211Z"/><path class="cls-9" d="M466.16765,656.30592c9.76813,1.16471,16.89891,10.65894,18.68744,20.41012s-.56857,19.7358-2.912,29.36675a11.91765,11.91765,0,0,1-2.10444,5.06141c-2.52359,2.95674-7.05939,2.69311-10.89479,2.17945-11.05966-1.48119-22.4842-3.08858-32.00277-8.956s-16.65888-17.21859-14.13586-28.17509A38.94005,38.94005,0,0,0,446.58168,666.47c3.52842-3.13689,6.50658-6.93346,10.419-9.56712s9.255-3.90315,13.28646-1.45883"/><path class="cls-10" d="M469.638,656.211l1.13177,5.25914q-10.11986-17.23443-20.94354-34.0425a137.53773,137.53773,0,0,0-34.17748,47.58744c-1.78069,4.1266-3.09648,9.58642.26164,12.57352a10.033,10.033,0,0,0,5.26946,2.01275c20.11542,3.08083,41.51866-9.75836,48.27-28.95579C470.15326,662.05233,469.30712,654.67333,469.638,656.211Z"/></g><path class="cls-11" d="M352.33283,335.97833l6.7415,4.70565c24.05527-8.61245,40.37589-32.03792,47.186-56.66419s5.60488-50.66194,4.34651-76.18148c-1.4604-29.61695,16.26148-50.31094,14.80107-79.92789-.71819-14.56486-1.47593-29.34666-6.12667-43.1729-27.646-82.1697-144.727-101.2671-215.2284-82.80062C165.23524,12.10442,128.693,33.96419,105.45545,66.6781c-9.63813,13.56862-16.836,28.68592-23.98339,43.71642-7.337,15.42928-14.77248,31.18433-16.95152,48.12973-3.838,29.84648,9.01826,59.15912,23.20555,85.69709a725.00887,725.00887,0,0,0,45.201,73.62863c22.35091,31.96447,73.03033,30.20631,111.67526,35.4845S316.44262,351.24866,352.33283,335.97833Z"/><path class="cls-11" d="M397.22144,197.51031c5.69659-46.89511-23.3425-96.41047-3.92313-139.4743,32.03617-.603,59.16056,22.90809,80.14829,47.1197,26.61765,30.70623,50.181,68.86552,45.54442,109.23708-3.18959,27.77332-19.08059,51.3294-32.52,75.05565-10.55678,18.63738-19.20232,48.76829-34.24246,68.50064a161.91837,161.91837,0,0,1-14.26444,17.98437c-6.58458,7.29453-14.12005,14.43209-16.74,23.903-10.91443-3.97881-17.09764-14.48683-21.42749-25.69694-14.98162-5.74031-28.24326-53.39351-29.15641-61.3118C366.08773,273.35329,392.42982,236.95614,397.22144,197.51031Z"/><path class="cls-11" d="M122.90012,188.68435c-5.69659-46.89512,23.34249-96.41047,3.92313-139.47431-32.03617-.603-59.16056,22.9081-80.1483,47.11971C20.05731,127.036-3.506,165.19527,1.13054,205.56683c3.18959,27.77332,19.08059,51.3294,32.51995,75.05565,10.55678,18.63738,19.20232,48.76829,34.24246,68.50064a161.91917,161.91917,0,0,0,14.26444,17.98436c6.58457,7.29453,14.12,14.4321,16.74,23.903,10.91443-3.97881,17.09764-14.48683,21.42749-25.69694,14.98162-5.74032,28.24326-53.39351,29.15641-61.3118C154.03383,264.52733,127.69173,228.13017,122.90012,188.68435Z"/><path class="cls-12" d="M149.64333,303.746c.11418-.989.12614-1.96786.20226-2.95305-1.776-9.90722-4.4044-19.71284-7.00262-29.44769-4.791-17.95039-9.41464-36.00931-13.09147-54.22047a156.9743,156.9743,0,0,1-6.68932-28.69622,118.88539,118.88539,0,0,1-.37181-22.26672c-1.84423-29.34012.56389-47.47762,10.51452-75.0037-.13022-3.55635-2.7594-11.11937-3.296-14.61289-7.27791,5.52252-14.16653,15.38129-23.87717,15.99553-1.3562-8.97074,5.60333-24.72389,9.29429-33.58626,1.39348-3.3459,3.9379-6.555,5.9048-9.84173C91.69349,51.2055,66.55583,73.32626,46.837,96.07394,20.21937,126.78017-3.34394,164.93946,1.2926,205.311c3.18958,27.77332,19.08059,51.32939,32.52,75.05565C44.36933,299.00405,53.01487,329.135,68.055,348.86731a161.9215,161.9215,0,0,0,14.26444,17.98436c4.93474,5.46665,10.40328,10.84554,13.93667,17.18445a63.622,63.622,0,0,0,14.48652-1.66493c4.18484-4.8473,7.28415-10.94369,9.74428-17.31343C135.46854,359.31745,148.73018,311.66426,149.64333,303.746Z"/><path class="cls-12" d="M370.47823,312.78546c-.11418-.989-.12614-1.96785-.20226-2.953,1.776-9.90722,4.4044-19.71285,7.00262-29.44769,4.791-17.9504,9.41463-36.00931,13.09147-54.22048a156.9743,156.9743,0,0,0,6.68932-28.69622,118.88529,118.88529,0,0,0,.37181-22.26671c1.84423-29.34012-.56389-47.47762-10.51452-75.0037.13022-3.55636,4.08326-15.10568,4.61983-18.5992,7.27792,5.52252,12.84267,19.3676,22.5533,19.98184a57.1183,57.1183,0,0,0-3.79145-28.83614c-1.39348-3.3459-1.71811-10.29024-3.685-13.577,28.19372,6.22113,46.95239,23.19865,66.67121,45.94632C499.90219,135.81966,523.4655,173.979,518.829,214.35051c-3.18958,27.77332-19.08059,51.3294-32.52,75.05565-10.55678,18.63739-19.20232,48.76829-34.24245,68.50064a161.9207,161.9207,0,0,1-14.26444,17.98437c-4.93474,5.46665-13.04454,17.6064-16.57793,23.94531-4.92247-.012-6.9886-3.85819-11.84526-8.4258-4.18484-4.84729-7.28415-10.94368-9.74428-17.31342C384.653,368.357,371.39138,320.70375,370.47823,312.78546Z"/><path class="cls-13" d="M123.40093,187.9061c-5.43792-45.608,21.24224-72.91407,5.18413-115.13364-8.28146,28.02873-1.051,39.63667-12.021,63.758-3.91488,21.854-8.57754,44.03613-5.9986,65.66556,4.70311,39.44582,30.55861,75.843,26.09015,115.31711-.62953,5.56259-7.24685,30.72007-16.22175,47.20715.06114-.02139.12381-.02736.18494-.04907,14.80955-5.28106,27.97071-53.48346,28.87225-61.448C153.95954,263.74908,128.104,227.35192,123.40093,187.9061Z"/><path class="cls-14" d="M119.42528,311.1384a12.46627,12.46627,0,0,1-6.47417,4.59533,26.4357,26.4357,0,0,1,4.86868-20.46809,7.26938,7.26938,0,0,1-9.64866,1.1346,21.61517,21.61517,0,0,1,2.78224-17.55972,8.43029,8.43029,0,0,1-7.51094,4.87089q-5.66152-14.11959-11.323-28.23949A104.48345,104.48345,0,0,1,89.72123,293.953C56.64986,256.68768,44.017,202.32251,57.26859,154.29311a18.04325,18.04325,0,0,1-13.48277,9.62c-3.4579.46492,7.19953-46.12854,1.35573-66.41513C18.93566,128.00386-3.99225,165.69982.58641,205.56683c3.18959,27.77332,19.08059,51.3294,32.52,75.05565,10.55678,18.63738,19.20233,48.76829,34.24246,68.50064a161.92033,161.92033,0,0,0,14.26444,17.98436c6.58458,7.29453,14.12006,14.4321,16.74,23.903,10.91443-3.97881,17.09764-14.48683,21.42749-25.69694,2.85364-1.0934,5.6428-3.72088,8.29827-7.29139C122.39279,341.40425,112.21946,325.00681,119.42528,311.1384Z"/><path class="cls-13" d="M396.72063,196.73206c5.43792-45.60795-21.24224-72.91407-5.18413-115.13364,8.28145,28.02874,1.051,39.63667,12.021,63.758,3.91488,21.854,8.57754,44.03612,5.9986,65.66555-4.70311,39.44583-30.55861,75.843-26.09015,115.31712.62953,5.56259,7.24685,30.72006,16.22174,47.20715-.06113-.02139-.1238-.02737-.18493-.04907-14.80955-5.28107-27.97071-53.48347-28.87225-61.448C366.162,272.575,392.01752,236.17789,396.72063,196.73206Z"/><path class="cls-15" d="M243.60829,412.19664a75.72441,75.72441,0,0,0,12.28488.67268c11.61835-.20037,23.55319-2.30318,32.83333-7.84076s15.36566-14.97811,13.21157-24.0186c-24.34978-4.25352-54.70406-1.07709-78.15357,5.33566C198.34842,393.30164,228.8376,410.02934,243.60829,412.19664Z"/><path class="cls-16" d="M251.3696,401.29271l10.50288-.49375c5.25156-.24688,10.56515-.504,15.60043-2.01585s10.59688-7.33955,13.32223-11.83535c-2.5614-1.14644-5.50976-.92724-8.24329-1.562-5.05336-1.17344-9.09709-5.18528-14.16136-6.31067-3.90912-.8687-7.96678.07974-11.85817,1.02474l-20.61759,5.00684c-5.83149,1.41616-16.59558,5.04455-7.29465,10.8537C234.79579,399.81757,244.48073,401.61656,251.3696,401.29271Z"/><path class="cls-17" d="M210.28945,209.06447c-7.57046-3.71363-9.29418-13.49893-13.71317-20.68053a28.39884,28.39884,0,0,0-28.81-12.67187c-18.462,3.559-29.16637,24.44471-47.20575,29.74493,16.21225,2.50278,28.03169,18.51261,44.14952,21.5649,8.48444,1.60673,17.33628-.45866,25.12439-4.18862S203.45667,214.34467,210.28945,209.06447Z"/><path class="cls-18" d="M151.59438,200.40463a24.50056,24.50056,0,0,1,11.49472-20.70127,23.20062,23.20062,0,0,0,10.60771,45.051A24.64233,24.64233,0,0,1,151.59438,200.40463Z"/><path class="cls-18" d="M185.23971,181.39285a23.55293,23.55293,0,0,1-26.24214,39.09243,23.56005,23.56005,0,1,0,26.24214-39.09243Z"/><circle class="cls-19" cx="172.11233" cy="201.41101" r="23.62174"/><path class="cls-20" d="M172.11251,177.78938a16.01745,16.01745,0,1,1-16.01763,16.01727,16.01731,16.01731,0,0,1,16.01763-16.01727A23.62164,23.62164,0,1,0,195.734,201.41119,23.62169,23.62169,0,0,0,172.11251,177.78938Z"/><circle class="cls-18" cx="172.11233" cy="186.63706" r="4.67152"/><circle class="cls-18" cx="181.33981" cy="197.88037" r="1.90028"/><path class="cls-21" d="M188.54264,169.061a30.85779,30.85779,0,0,1,15.64067,19.03547c-7.42784-12.51307-23.83137-23.80061-38.86771-21.528C172.83121,166.25286,180.90808,165.2157,188.54264,169.061Z"/><path class="cls-22" d="M211.749,232.00758c1.20935,3.33927-2.3279,6.39812-5.51087,7.97355a63.08736,63.08736,0,0,1-35.4825,6.029,15.28432,15.28432,0,0,0,8.00258-4.30525,37.675,37.675,0,0,1-9.0702,1.30132,7.57,7.57,0,0,0,5.17584-5.26679c-8.67957,3.39219-18.14187-1.78155-26.01545-6.76637l-12.99329-8.22613c19.85772,13.03966,48.22165,11.45862,68.26128-1.29972l-5.54645-4.19914a10.972,10.972,0,0,0,7.748,2.54376l-.90679-3.92926,4.19779,2.65544a67.0692,67.0692,0,0,0-9.01415-24.16333,65.98019,65.98019,0,0,0,9.59073,10.26842,12.6705,12.6705,0,0,0-2.70019-10.48049l3.39288,2.86915a94.21722,94.21722,0,0,0-8.63937-19.3335,51.44057,51.44057,0,0,1,18.27515,30.3532c.88576,4.68888,1.09253,9.62344-.39707,14.15679S216.30351,230.58406,211.749,232.00758Z"/><path class="cls-17" d="M300.42292,200.60616c7.57045-3.71363,9.29418-13.49892,13.71317-20.68053a28.39885,28.39885,0,0,1,28.81-12.67187c18.462,3.559,29.16637,24.44472,47.20575,29.74493-16.21225,2.50278-28.03169,18.51261-44.14952,21.5649-8.48445,1.60673-17.33628-.45866-25.12439-4.18862S307.25569,205.88636,300.42292,200.60616Z"/><path class="cls-18" d="M359.118,191.94632a24.50058,24.50058,0,0,0-11.49472-20.70127,23.20062,23.20062,0,0,1-10.60771,45.051A24.64232,24.64232,0,0,0,359.118,191.94632Z"/><path class="cls-18" d="M325.47266,172.93455A23.55292,23.55292,0,0,0,351.7148,212.027a23.56,23.56,0,1,1-26.24214-39.09242Z"/><circle class="cls-19" cx="338.60004" cy="192.95271" r="23.62174"/><path class="cls-23" d="M338.59986,169.33107a16.01746,16.01746,0,1,0,16.01763,16.01727,16.01732,16.01732,0,0,0-16.01763-16.01727,23.62164,23.62164,0,1,1-23.62146,23.62182A23.62169,23.62169,0,0,1,338.59986,169.33107Z"/><circle class="cls-18" cx="338.60004" cy="178.17875" r="4.67152"/><circle class="cls-18" cx="329.37255" cy="189.42207" r="1.90028"/><path class="cls-24" d="M322.16973,160.60266a30.85775,30.85775,0,0,0-15.64067,19.03547c7.42784-12.51307,23.83137-23.80061,38.86771-21.528C337.88116,157.79455,329.80429,156.7574,322.16973,160.60266Z"/><path class="cls-22" d="M298.9634,223.54928c-1.20936,3.33927,2.3279,6.39811,5.51087,7.97355a63.08742,63.08742,0,0,0,35.4825,6.029,15.28422,15.28422,0,0,1-8.00258-4.30525,37.675,37.675,0,0,0,9.0702,1.30133,7.57,7.57,0,0,1-5.17584-5.26679c8.67956,3.39218,18.14187-1.78156,26.01545-6.76637l12.99328-8.22614c-19.85772,13.03966-48.22165,11.45862-68.26127-1.29971l5.54645-4.19914a10.972,10.972,0,0,1-7.748,2.54376l.90679-3.92927-4.19778,2.65545a67.069,67.069,0,0,1,9.01415-24.16334,65.98122,65.98122,0,0,1-9.59073,10.26843,12.67053,12.67053,0,0,1,2.70019-10.4805l-3.39288,2.86916a94.21645,94.21645,0,0,1,8.63937-19.3335,51.44055,51.44055,0,0,0-18.27515,30.35319c-.88576,4.68889-1.09254,9.62344.39707,14.15679S294.40886,222.12575,298.9634,223.54928Z"/><path class="cls-18" d="M370.75466,295.4311c-9.4744-23.93292-28.10612-43.279-48.98785-58.32919-8.03468-5.791-17.17659-12.58409-22.06068-20.73012a25.96448,25.96448,0,0,1-2.02291-4.38773c-3.45916-10.27871.61968-21.682,6.7233-30.64614a71.95391,71.95391,0,0,1,13.66081-14.97943,45.4375,45.4375,0,0,0-25.34307,16.24771,68.62032,68.62032,0,0,1,17.488-33.03393c-6.21026,2.29751-10.75872,6.74783-15.28989,11.57625.58791.61779-.48976,1.78164-1.151,1.24312a55.36955,55.36955,0,0,1,7.29767-25.01184q-4.15542,2.72247-8.31085,5.44463a30.87817,30.87817,0,0,1,8.17559-15.657q-4.205,2.82627-8.40994,5.65287a52.67315,52.67315,0,0,1,21.21422-25.869c-6.103,1.47148-11.50516-.05537-14.71929,3.15215,5.87054-11.318,13.84734-21.60521,18.82612-33.374a72.711,72.711,0,0,0,5.60568-32.29945c-3.22419,3.797-4.49593,6.12911-8.58672,8.97111a28.39294,28.39294,0,0,0-1.61492-24.797A16.3717,16.3717,0,0,1,308.151,44.263c-.28939-5.93943-.30732-12.05218-3.06974-17.31814a42.87529,42.87529,0,0,1-5.991,11.91062,39.77362,39.77362,0,0,1-1.25539-10.74583l-6.27915,6.013a4.32821,4.32821,0,0,1-1.34944.99116c-1.45041.56651-3.10151-.64736-3.58687-2.12671-.48567-1.47935.48787-4.13262.83514-5.65066q-3.38445,2.47428-6.76922,4.94858a15.41522,15.41522,0,0,1-1.09088-8.342,12.654,12.654,0,0,0-8.19761,5.23073,7.68328,7.68328,0,0,1-.118-9.14159Q265.55977,24.86,259.841,29.68813q-1.13759-2.337-2.27486-4.6746-1.88025,2.11664-3.76019,4.233-.23592-2.53092-.47183-5.06245a40.06457,40.06457,0,0,0-7.23666,9.38066c-2.09273-2.775-2.2195-7.14323-2.20157-10.61907a20.81669,20.81669,0,0,0-5.61575,11.42087,18.44983,18.44983,0,0,0-9.4011-6.58175q.52939,2.8225,1.05848,5.64532a22.65357,22.65357,0,0,0-12.17328-8.538,23.31138,23.31138,0,0,1,.51241,11.57279q-5.29585-4.07568-10.592-8.15138.96726,7.6286,1.93483,15.25718a4.5351,4.5351,0,0,1-3.94232-4.02976q-.72474,3.56847-1.44884,7.13693a3.79085,3.79085,0,0,1-3.60795-3.09459q-2.34878,4.44277-4.69693,8.88587A22.95305,22.95305,0,0,1,190.336,36.41394c.50108.05977.4042-.90245-.09846-.95089-.50234-.04845-.88893.41835-1.16165.84332-7.22,11.24-4.11878,26.13731.96506,38.49115a143.37268,143.37268,0,0,0,21.12519,35.60322c3.85613,4.762,7.28415,7.40808,7.6503,13.5246a55.55784,55.55784,0,0,0-19.55432-12.90053q10.48554,12.21669,20.07931,25.16157a23.603,23.603,0,0,0-14.06879-5.9907c7.58015,6.29928,12.46424,12.29,16.57265,21.24882q-5.29964-3.25848-10.59894-6.51664,5.3704,7.31058,10.74017,14.62115a13.4739,13.4739,0,0,1-7.19733-2.90334,22.72786,22.72786,0,0,0,5.57989,10.06922,25.199,25.199,0,0,0-10.04185-4.64409c4.54091,4.54783,6.43327,9.34259,8.21586,15.517a36.388,36.388,0,0,0-26.74127-10.93519,46.72377,46.72377,0,0,1,26.84664,36.5991,35.7599,35.7599,0,0,1-.23151,9.62381c-3.60574,10.442-14.92469,18.76258-24.63343,25.64976-20.99434,14.89292-39.77076,34.09839-49.42508,57.95927-9.65432,23.8612-8.9233,52.85059,6.15616,73.71156,17.36689,24.02476,50.25613,32.82192,79.6038,28.63834,8.12967-1.15882,16.29017-3.2352,23.23082-7.62418a38.05017,38.05017,0,0,0,4.99262-3.80392c.877.68007,1.77912,1.32806,2.713,1.92854,6.90731,4.44089,15.05208,6.5786,23.17263,7.79845,29.3159,4.40408,62.27025-4.14552,79.81707-28.03912C379.28036,348.34742,380.22937,319.36433,370.75466,295.4311Z"/><circle class="cls-25" cx="211.02341" cy="297.84769" r="1.46968"/><circle class="cls-25" cx="212.49309" cy="312.47437" r="1.46968"/><circle class="cls-25" cx="189.42036" cy="331.15348" r="1.46968"/><circle class="cls-25" cx="199.70811" cy="316.88341" r="1.46968"/><circle class="cls-25" cx="198.23844" cy="304.39012" r="1.46968"/><circle class="cls-25" cx="190.89004" cy="312.47437" r="1.46968"/><circle class="cls-25" cx="218.35513" cy="325.27476" r="1.46968"/><circle class="cls-25" cx="203.19044" cy="328.21412" r="1.46968"/><circle class="cls-25" cx="193.8294" cy="346.43894" r="1.46968"/><circle class="cls-25" cx="221.29449" cy="337.11241" r="1.46968"/><circle class="cls-25" cx="209.55373" cy="341.96271" r="1.46968"/><circle class="cls-25" cx="305.7927" cy="344.64231" r="1.46968"/><circle class="cls-25" cx="305.04152" cy="325.79867" r="1.46968"/><circle class="cls-25" cx="324.45639" cy="312.8062" r="1.46968"/><circle class="cls-25" cx="317.108" cy="325.60659" r="1.46968"/><circle class="cls-25" cx="318.57768" cy="338.09988" r="1.46968"/><circle class="cls-25" cx="325.92607" cy="330.01563" r="1.46968"/><circle class="cls-25" cx="295.52162" cy="335.24354" r="1.46968"/><circle class="cls-25" cx="311.45869" cy="311.33652" r="1.46968"/><circle class="cls-25" cx="322.98671" cy="296.05105" r="1.46968"/><circle class="cls-25" cx="305.04152" cy="292.06387" r="1.46968"/><circle class="cls-25" cx="314.39804" cy="299.84128" r="1.46968"/><path class="cls-26" d="M220.776,296.10425c9.05217-8.264,22.73014-8.09606,34.96988-7.44443l17.67955.94123c9.42074.50154,19.85435,1.45677,26.249,8.39292,21.65323,23.48694-19.81461,66.33037-44.53575,65.19772C228.08983,361.95238,195.99558,318.72746,220.776,296.10425Z"/><path class="cls-17" d="M226.01107,300.19148c7.8062-7.12655,19.60149-6.98169,30.15652-6.41976l15.24609.81168c8.124.43251,17.12153,1.25626,22.636,7.23769,18.67281,20.25413-17.08727,57.20046-38.40571,56.22371C232.31822,356.97608,204.64152,319.70076,226.01107,300.19148Z"/><path class="cls-27" d="M133.20489,339.9295s28.41462-18.94308,60.77572-21.311"/><path class="cls-27" d="M130.96526,369.89626s34.51442-33.50806,66.17253-40.62224"/><path class="cls-27" d="M150.17474,386.49791s17.36449-34.33434,48.54164-46.56841"/><path class="cls-27" d="M386.65439,339.9295s-28.41462-18.94308-60.77571-21.311"/><path class="cls-27" d="M388.894,369.89626S354.3796,336.3882,322.7215,329.274"/><path class="cls-27" d="M369.68455,386.49791s-17.36449-34.33434-48.54164-46.56841"/><path class="cls-28" d="M273.31922,340.36938c0-5.08982,5.153-9.21583,11.50957-9.21583a13.07362,13.07362,0,0,1,7.95195,2.57557c7.05484-10.73859,9.44043-22.927,1.20286-31.86285-5.50471-5.97025-14.48463-6.7925-22.59386-7.22406q-7.60782-.40483-15.21691-.81c-10.53507-.56117-22.30824-.70555-30.09976,6.40748-9.85941,9.001-9.1913,21.77-3.39468,33.028a13.21879,13.21879,0,0,1,7.253-2.11412c6.35653,0,11.50956,4.126,11.50956,9.21583,0,3.64946-2.67183,6.77457-6.51443,8.26745,6.33954,5.39682,13.71837,9.02615,20.72351,9.347,7.09133.32493,15.77808-3.56706,23.52683-9.63231C275.69537,346.76648,273.31922,343.805,273.31922,340.36938Z"/><path class="cls-1" d="M469.39943,91.27761c-1.80389,16.21151,2.09282,32.43111,4.76265,48.52268,8.2033,49.44274,3.31515,104.50877-29.25159,142.60452,1.78657-10.33778,3.57967-20.826,2.5632-31.26769s-5.20614-21.01273-13.43416-27.52128c10.53206,15.67958.57669,36.24129-3.67439,54.64514a86.25939,86.25939,0,0,0,.73257,41.57417l-7.73405-8.18041a45.03751,45.03751,0,0,0,4.27441,16.912,7.27575,7.27575,0,0,0-5.82093-4.61445,17.99855,17.99855,0,0,1,.96353,19.14691,90.266,90.266,0,0,0,36.026,45.31532c1.40348.89908,3.23525,1.76581,4.639.8672s-.00693-3.85788-1.245-2.742c6.19677-24.14737,12.5254-47.17778,25.29756-68.5873,8.96821-15.03309,20.76607-28.19041,30.22041-42.92263,22.26907-34.70074,30.16459-81.06312,10.80686-117.46823-8.96461-16.85931-22.93451-30.4172-36.67528-43.67585C484.32371,106.6233,476.92591,98.54,469.39943,91.27761Z"/><path class="cls-14" d="M454.44457,360.0091c15.04013-19.73235,23.68567-49.86325,34.24245-68.50064,13.43936-23.72625,29.33037-47.28233,32.51995-75.05565,4.63654-40.37155-18.92677-78.53085-45.54441-109.23708-3.635-4.19333-7.466-8.35646-11.4627-12.38591-.8191,20.51905,4.72965,41.22557,4.60855,61.9299-.06952,11.81971-2.00215,23.5567-2.37647,35.37076-.86723,27.37352,6.28764,56.65324-6.265,80.99445-2.55293,4.95078-7.41783,10.11546-12.7681,8.566,1.75239-11.14877,3.51012-22.44193,2.41043-33.67374-1.09937-11.23182-5.38958-22.5819-13.92786-29.962,13.87313,22.68319-.20352,50.84907,1.52685,77.3821.598,9.17305,2.4831,19.92045-4.17509,26.25873q-4.47438-5.48741-8.94909-10.97419a109.66262,109.66262,0,0,1,4.28833,25.74664q-4.61453-4.40362-9.229-8.80691,3.10512,9.6669,6.20994,19.33349-1.64338-2.3955-3.28647-4.7913a105.85554,105.85554,0,0,0,9.69427,44.93543c2.63125-3.13579,5.49842-6.13193,8.219-9.14568A161.9207,161.9207,0,0,0,454.44457,360.0091Z"/></g></svg>