<svg xmlns="http://www.w3.org/2000/svg" width="154.297" height="155.779" viewBox="0 0 154.297 155.779">
  <g id="Group_400" data-name="Group 400" transform="translate(-1210.1 -1134.649)">
    <g id="Group_399" data-name="Group 399" transform="matrix(0.985, -0.174, 0.174, 0.985, 1206, 1147.314)">
      <path id="Path_311" data-name="Path 311" d="M157.206,57.839c-2.442,13.047-11.563,22.26-20.374,20.621s-13.943-13.572-11.5-26.588c2.442-13.047,11.563-22.26,20.374-20.59C154.517,32.89,159.68,44.793,157.206,57.839Z" transform="translate(-84.887 -31.087)" fill="#fbfff9"/>
      <path id="Path_312" data-name="Path 312" d="M170.376,60.33C167.934,73.377,158.814,82.59,150,80.92c-8.811-1.639-13.943-13.541-11.5-26.588,2.442-13.016,11.563-22.26,20.374-20.59C167.687,35.38,172.819,47.314,170.376,60.33Z" transform="translate(-57.34 -25.941)" fill="#fbfff9"/>
      <path id="Path_313" data-name="Path 313" d="M179.129,76.546c-6.925,11.315-18.735,16.695-26.372,12-7.636-4.668-8.193-17.653-1.268-28.938s18.735-16.664,26.372-12S186.055,65.262,179.129,76.546Z" transform="translate(-39.041 -0.049)" fill="#fbfff9"/>
      <path id="Path_314" data-name="Path 314" d="M112.4,65.394c2.35,13.047,11.408,22.353,20.219,20.745,8.811-1.577,14.036-13.449,11.686-26.5S132.9,37.321,124.087,38.9,110.051,52.347,112.4,65.394Z" transform="translate(-111.838 -15.113)" fill="#fbfff9"/>
      <path id="Path_315" data-name="Path 315" d="M201.879,81.273c.093-10.883-7.018-29.309-21.951-32.122S152.66,58.271,147.806,71.1s-28.66,3.555-33.081,26.959a27.493,27.493,0,0,0,21.951,32.122c9.584,1.793,19.446-3.092,28.258-1.453,8.811,1.67,16.231,9.8,25.815,11.594a27.493,27.493,0,0,0,32.122-21.951C226.983,96.762,201.786,92.156,201.879,81.273Z" transform="translate(-106.804 5.828)" fill="#fbfff9"/>
    </g>
    <g id="Group_118" data-name="Group 118" transform="translate(-268.452 342.933)">
      <text id="GO" transform="translate(1555.452 888.067)" fill="#a75403" font-size="20" font-family="NotoSans-Bold, Noto Sans" font-weight="700" letter-spacing="0.075em"><tspan x="-15.95" y="0">GO</tspan></text>
      <g id="Group_117" data-name="Group 117" transform="translate(1544.691 893.771)">
        <path id="Path_157" data-name="Path 157" d="M20.172,8.974c.017-.023.033-.047.05-.067s.04-.05.057-.077.033-.057.05-.083.03-.047.043-.073.03-.06.043-.087.023-.05.037-.077.023-.06.033-.09.02-.053.03-.083a.764.764,0,0,0,.023-.093c.007-.027.013-.057.02-.083s.013-.073.017-.11l.01-.07a1.717,1.717,0,0,0,0-.37l-.01-.07c-.007-.037-.01-.073-.017-.11s-.013-.057-.02-.083a.955.955,0,0,0-.023-.093c-.01-.027-.02-.057-.03-.083s-.02-.06-.033-.09A.8.8,0,0,0,20.415,7a.7.7,0,0,0-.043-.087c-.013-.023-.027-.047-.043-.073s-.033-.057-.05-.083a.651.651,0,0,0-.057-.077c-.017-.023-.033-.047-.05-.067-.04-.047-.08-.093-.123-.137L14.122.55a1.863,1.863,0,1,0-2.634,2.634l2.744,2.744H1.864a1.864,1.864,0,0,0,0,3.728H14.232L11.488,12.4a1.863,1.863,0,1,0,2.634,2.634L20.048,9.11C20.092,9.067,20.132,9.02,20.172,8.974Z" transform="translate(0 -0.005)" fill="#a75403"/>
      </g>
    </g>
  </g>
</svg>
