<svg id="圖層_1" data-name="圖層 1" xmlns="http://www.w3.org/2000/svg" viewBox="0 0 161.017 123.9805"><defs><style>.cls-1{fill:#f4e6d9;}.cls-2{fill:#ebddd0;opacity:0.8;}.cls-18,.cls-3{fill:none;}.cls-4{fill:#dbbfab;}.cls-5{fill:#eed6c3;}.cls-6{fill:#e3ccbe;}.cls-7{fill:#ebdacb;}.cls-8{fill:#f0dfd0;}.cls-9{fill:#dbc3b5;}.cls-10{fill:#403034;}.cls-11{fill:#080606;}.cls-12{fill:#262934;}.cls-13{fill:#fff;}.cls-14{fill:#f8f4f1;}.cls-15{fill:#d6c0b1;}.cls-16{fill:#070001;}.cls-17{fill:#2a292a;}.cls-18{stroke:#fff;stroke-linecap:round;stroke-linejoin:round;stroke-width:0.25px;}</style></defs><title>未命名-1</title><path class="cls-1" d="M160.08205,20.459c-1.05337-3.41011-3.34051-6.27392-4.9277-9.43091-1.376-2.73761-2.52291-6.13745-4.49524-8.51967-1.3973-1.687-7.21917-.41058-9.00984-.22208a53.72636,53.72636,0,0,1-6.30936.699c-1.99944-.02792-3.95477-.58442-5.96336-.469a14.01289,14.01289,0,0,0-8.697,4.307c-5.80939,5.62692-8.53,4.55451-9.33309,3.97182a3.097,3.097,0,0,1-.26584-.23755c-1.36786-1.42242-31.35377-21.32919-61.53513-2.51851a8.5291,8.5291,0,0,1-3.3648,2.49729c-1.79814.8496-3.70889,1.97541-5.61439.74257C38.5855,9.99739,37.59146,7.17931,36.78256,5.103,34.97263.4571,22.22411-.47374,20.02117,3.73926S2.29473,16.05988,2.29473,16.05988s-5.15835,1.51362-.00709,14.74464q.47977,1.94661.85607,3.91909c.3845,1.99222-.103,4.39684.82531,6.254a44.34046,44.34046,0,0,0,3.66681-3.24873c1.3399-1.20165,2.88307-2.45758,4.80965-2.18692,3.77754.53076,3.5249,6.60741,6.07378,7.92306,1.82107.93989,5.23621,7.86539,7.20793,14.08646-.08.108-.15069.22174-.2316.32917a6.11968,6.11968,0,0,1,.7146,1.28562,28.20028,28.20028,0,0,1,.9654,4.75812c.31315,3.94379.15763,8.50775,2.22251,11.72892,0,0,1.26872,22.59842,12.14231,27.92078s19.82472,17.29028,24.94268,17.95735,19.83046,5.32666,31.99162-5.96637c0,0,18.557-7.30217,21.119-13.28281,5.14337-12.007,11.12333-23.8283,13.704-36.7332.95188-4.76,1.20371-11.338,3.69226-15.62058a46.37812,46.37812,0,0,1,6.83756-9.2479,26.868,26.868,0,0,0,6.819-12.151c1.113-5.13343,5.61607,1.19371,9.36845.0045C161.99281,27.90717,160.50508,21.82818,160.08205,20.459Z"/><path class="cls-2" d="M160.06778,20.48226c-1.05337-3.4101-3.34051-6.27391-4.9277-9.43091-.9605-1.911-1.74227-3.90394-2.74315-5.79374.21324.40263-.315,1.76816-.27988,2.2967a5.43215,5.43215,0,0,0,.923,2.36625,26.113,26.113,0,0,1,1.84241,4.15778c.24919.72754.24417,2.66718,1.02123,3.03219q-1.16642-.54791-2.33309-1.09567c1.88632,1.92494,2.12614,3.6528,3.45011,6.00033a31.93881,31.93881,0,0,1-6.70178-4.2835q-.01809.73691-.03659,1.47373-2.34152-1.48422-4.68287-2.96851a1.97623,1.97623,0,0,1,.51517,1.91287,12.9447,12.9447,0,0,0-11.09235-3.38324c-5.75963,1.08209-6.40463,2.3498-6.56125,2.04073,1.62966,3.21635,2.71458.20338,5.63093,2.32367,5.25383,3.81958,9.57866,6.39476,15.082,9.84545.15591-.50475,1.35421.05641,1.45827-.4236,1.113-5.13343,5.61606,1.19371,9.36844.0045C161.97854,27.93042,160.4908,21.85142,160.06778,20.48226Z"/><path class="cls-2" d="M30.18137,14.06209c-1.22814.71655-2.84223.1528-4.17711.22338a14.37481,14.37481,0,0,0-4.76,1.16667,43.46427,43.46427,0,0,0-7.51706,4.38919c-.85753.58435-3.18373,1.71053-3.27325,2.88715a1.96933,1.96933,0,0,1,.55045-1.25677,12.382,12.382,0,0,0-3.13316,4.07917A5.11266,5.11266,0,0,1,7.453,21.12656a3.5973,3.5973,0,0,0-1.069.827,2.805,2.805,0,0,1,.10369-1.87785,2.15754,2.15754,0,0,1-.67247.77877,4.23773,4.23773,0,0,1,1.00653-2.85727q-.94987.86135-1.89962,1.72269a18.63994,18.63994,0,0,1,.75358-4.0121c.11039-.36326.54086-1.17164.85351-1.92074-2.44637,1.39721-4.2345,2.33145-4.2345,2.33145s-5.15835,1.51362-.00709,14.74464q.47979,1.94661.85607,3.91909c.3845,1.99222-.103,4.39684.82532,6.254A14.62272,14.62272,0,0,0,6.14041,39.187C11.29149,27.58124,21.09039,22.45143,30.18137,14.06209Z"/><path class="cls-3" d="M8.55411,33.33363c2.3055-2.6699,5.00755-4.98568,7.20868-7.74226,2.01692-2.52587,3.58746-5.3903,5.67729-7.85617s4.88166-4.58226,8.10188-4.86173c.43-.03732.97819.036,1.10546.44836.11137.36083-.191.70592-.46552.96519A78.38265,78.38265,0,0,0,13.882,36.26365a9.29772,9.29772,0,0,1-2.02678,3.04682c-.82812.71207-6.89322,3.2996-7.50989,2.75979C2.7207,40.64815,7.656,34.37375,8.55411,33.33363Z"/><path class="cls-4" d="M31.077,16.88931c.27454-.25922-.2956-.80063-.40695-1.16145-.12728-.4124-.36548-1.3653-.79544-1.328a10.54575,10.54575,0,0,0-7.64174,4.00776c-2.08982,2.46587-4.46606,4.65793-6.483,7.18379-2.20115,2.75658-4.90318,5.07234-7.20866,7.74224C7.797,34.19548,4.29183,38.6439,4.03268,40.955c.49587-.28187,3.3537-3.01394,3.59026-3.22608,1.3399-1.20165,2.88307-2.45758,4.80966-2.18692a3.17559,3.17559,0,0,1,1.48815.62358C18.00466,27.999,24.43815,23.15815,31.077,16.88931Z"/><path class="cls-5" d="M32.28083,22.19894a2.7078,2.7078,0,0,0,1.17831.52278,10.81625,10.81625,0,0,1-1.03334-3.88755c.17684-2.5737-.502-4.79351-3.35022-4.39169-6.15583.86847-15.15483,21.72308-15.15483,21.72308a5.355,5.355,0,0,1,2.43668,2.30476c.58382,1.10081.959,2.4256,2.038,3.04892.25718-.63877.4206-1.31148.65963-1.95727,1.07559-2.90551,3.57431-5.07752,5.16263-7.70926a50.63612,50.63612,0,0,0,4.44612-4.296,2.1011,2.1011,0,0,1-.50694,2.281c1.487-.29639,2.20334-1.89506,2.58335-3.31121a2.47618,2.47618,0,0,0,.06547,1.40495A4.97057,4.97057,0,0,0,31.003,24.889a1.46641,1.46641,0,0,0,1.30166.66894,6.68675,6.68675,0,0,0-.50052-1.91719l.93238.634Q32.50857,23.23685,32.28083,22.19894Z"/><path class="cls-4" d="M160.01273,28.59689a1.261,1.261,0,0,0,.76388-.83379c-2.75886.08194-5.438-1.222-7.80911-2.70316-2.05293-1.28237-4.10926-2.5595-6.14691-3.86611a32.05443,32.05443,0,0,0-5.39006-3.28269,24.199,24.199,0,0,0-4.46193-1.16288,22.26621,22.26621,0,0,0-4.73605-.43476c-.91876.03222-2.34026.09025-2.93385.93444a1.13186,1.13186,0,0,0-.11086.1947c.89411.87544,5.76413.54157,6.94682.97366a33.08629,33.08629,0,0,1,12.50506,7.918c.77363.806,1.70136.68622,2.40334,1.04252C152.904,24.56576,156.57627,29.68594,160.01273,28.59689Z"/><path class="cls-5" d="M148.06632,24.96589c-.39286-.34082-.745-.62138-.96138-.83085a35.60189,35.60189,0,0,0-12.19963-7.37251,11.0723,11.0723,0,0,0-6.44436.04476,3.3,3.3,0,0,0-.62528.29013,3.97032,3.97032,0,0,0-1.35553.95775c-.77107.91335-.84646,2.42762-.59711,4.07145a8.56344,8.56344,0,0,1-1.52355,3.18747,1.29687,1.29687,0,0,0,1.04283-.40186,1.9711,1.9711,0,0,1-.87535,1.58361,3.72,3.72,0,0,0,1.24264-.70052,3.08975,3.08975,0,0,1-.46924,1.22736,2.97146,2.97146,0,0,0,.92963-.64044,13.00275,13.00275,0,0,1-.00714,3.4107q.42417-.57735.84806-1.15492a17.158,17.158,0,0,1-.29717,2.58685q.27423-.213.54833-.426a3.01988,3.01988,0,0,1-.14263,2.36146,3.27956,3.27956,0,0,0,1.18913-2.10621q.14976.846.2998,1.69225a3.115,3.115,0,0,0,.564-1.05494,1.34523,1.34523,0,0,0,.18089.73641c.06644-.34039.13839-.676.22-1.0008-.2367.94248,2.40494.95468,2.87221.97719q.50742.02437.99831.0891a8.84228,8.84228,0,0,1,3.17035,2.08927,10.43688,10.43688,0,0,1,2.92229,6.65305,21.18787,21.18787,0,0,1,3.41333-4.45782c.9602-1.01982,1.95477-2.01591,2.87689-3.06326,1.81454-2.061,4.35172-3.6811,5.15643-6.33768A31.362,31.362,0,0,0,148.06632,24.96589Z"/><path class="cls-6" d="M93.51274,118.87582c-4.64169-.118-11.49614.2952-13.93249-4.86165-2.308,3.72071-6.41552,4.301-10.33576,4.49834a44.93787,44.93787,0,0,1-8.82208-.38506c2.77573,2.36105,5.14373,4.1006,7.001,4.34274,4.70728.61358,17.5306,4.59441,29.02082-3.5567C95.44306,118.91838,94.45823,118.89987,93.51274,118.87582Z"/><path class="cls-7" d="M54.34946,42.82779a41.33789,41.33789,0,0,1,4.64415,2.54367,33.58882,33.58882,0,0,0-2.4062-2.97551l3.6775,2.42467a25.18011,25.18011,0,0,0-4.64119-7.05732,13.66921,13.66921,0,0,1,6.59161,7.79216L61.776,43.40617a3.06486,3.06486,0,0,1,1.03206.98867l-.164-1.78891c.10534,1.14891,1.08146,2.58548,1.36933,3.76354A18.74433,18.74433,0,0,1,64.548,50.7234c.0088,1.82125-.02115,4.75158-1.221,6.21077-1.14346-1.35368-1.07379-4.0193-1.74978-5.69972C60.22641,47.87652,57.16941,44.9927,54.34946,42.82779Z"/><path class="cls-7" d="M102.86133,42.37515a41.33706,41.33706,0,0,0-4.6466,2.53921,33.58593,33.58593,0,0,1,2.40907-2.9732L96.944,44.36229a25.17993,25.17993,0,0,1,4.648-7.05285,13.66923,13.66923,0,0,0-6.5991,7.78582l.44141-2.14887a3.06493,3.06493,0,0,0-1.033.98768l.16575-1.78876c-.10645,1.14881-1.084,2.58445-1.373,3.76223a18.74386,18.74386,0,0,0-.5388,4.35342c-.01055,1.82124.01658,4.75159,1.215,6.21193,1.14477-1.35257,1.07765-4.01826,1.75526-5.698C96.97953,47.41822,100.0393,44.53735,102.86133,42.37515Z"/><path class="cls-8" d="M95.47914,60.81719c.00611.02347.01057.04745.01668.07092C95.51626,60.84267,95.501,60.82344,95.47914,60.81719Z"/><path class="cls-8" d="M110.33974,88.44126a67.50765,67.50765,0,0,0-5.39007-7.90024c-1.32562-1.763-2.64642-3.53024-3.837-5.401C98.40656,70.88772,97.123,65.7189,95.773,60.88825c-.0046-.01645-.01242-.04737-.01667-.07091-.58138-3.219-1.38062-6.54681-1.74-9.86a24.34211,24.34211,0,0,1-.13222-5.22947c.1738-1.57106.84088-3.03768.98127-4.61741a9.3173,9.3173,0,0,1,.63019-1.20854,4.31205,4.31205,0,0,0-.55552.21482c.15934-2.50307.94706-5.57644,3.3318-6.06923a2.43448,2.43448,0,0,0-1.93035.405q.44257-.696.88516-1.39189a4.70558,4.70558,0,0,0-2.16532,1.32511,4.905,4.905,0,0,1,1.87816-2.84152,4.96686,4.96686,0,0,0-2.56062.92324q.28564-.75714.57121-1.51429l-1.7678,1.836.0289-1.77368q-.81552.70871-1.631,1.41755a2.60778,2.60778,0,0,1,.47312-2.01324Q91.01288,31.484,89.97245,32.5483q-.081-.74424-.1621-1.48841a1.048,1.048,0,0,1-.83869.69671,2.45818,2.45818,0,0,1-.0433-1.60679q-.51039.56451-1.0207,1.129a9.3693,9.3693,0,0,1,1.41955-6.84145,11.612,11.612,0,0,0-5.61351,6.79844,2.16986,2.16986,0,0,1-.03263-2.34474,3.144,3.144,0,0,0-1.47769,2.62009,1.963,1.963,0,0,1-.04752-2.69926A6.83715,6.83715,0,0,0,79.5383,31.049q-.11209-1.10529-.22426-2.21044-.484.96033-.96806,1.92074-.18367-.43207-.3675-.86415l-.433.89348-.11676-1.70305q-.51495.85746-1.02985,1.715a12.13682,12.13682,0,0,1-.43972-5.66646,10.17741,10.17741,0,0,0-2.33953,6.131l-.40917-1.87141q-.36951,1.02507-.739,2.05007a9.80555,9.80555,0,0,1-.565-4.3062,17.1187,17.1187,0,0,0-3.13266,5.30506l-.48643-.91173q-.17886.70008-.35787,1.40022-.31346-.574-.62706-1.14809a1.84649,1.84649,0,0,1-.29648,1.141A1.82225,1.82225,0,0,0,66.75932,31.85q-.26371,1.0567-.52736,2.11342a3.745,3.745,0,0,0-.83663-1.44292l-.13589,1.64024a33.6555,33.6555,0,0,0-2.78891-5.77092,32.76419,32.76419,0,0,0,2.59263,8.01074,2.284,2.284,0,0,0-1.90913-1.4082q.11889.7098.23784,1.41959-.553-.46672-1.10592-.93344-.0479.71173-.09571,1.42347-.672-.46242-1.344-.9247a3.87021,3.87021,0,0,1,.3832,1.69446,11.031,11.031,0,0,0-5.20022-2.63826c.90239.18189,2.214,2.03026,2.78086,2.72654a18.416,18.416,0,0,1,2.2153,3.45154c2.42408,4.89464,2.43587,10.0971,1.69307,15.39286a42.33544,42.33544,0,0,1-1.89553,8.0195c.01836-.00609.03706-.00871.05543-.01466a94.87943,94.87943,0,0,1-9.46344,16.819c-5.01563,6.7242-10.82877,16.00676-8.18675,24.67541C46.58691,117.12336,58.87426,119.084,68.473,118.60441c3.92029-.1959,8.02778-.772,10.33574-4.466,2.43642,5.1198,9.29082,4.70958,13.9325,4.82684,5.41449.1367,12.07844.14054,16.12439-3.85474C116.568,107.50471,115.20173,97.2631,110.33974,88.44126Z"/><path class="cls-7" d="M51.1433,71.92926l1.986-.55143L50.6187,74.54174a.77516.77516,0,0,0,1.10946-.67806,10.36365,10.36365,0,0,1-5.17526,5.8914,6.72024,6.72024,0,0,0,4.32-1.04241c-2.08511,2.08689-1.20175,6.10584-3.50526,7.94883a6.59507,6.59507,0,0,0,4.8367-5.94122,1.67642,1.67642,0,0,1,.41912,1.47958,8.11543,8.11543,0,0,0,1.25426-3.83629.83407.83407,0,0,1,.31659,1.44611,6.47623,6.47623,0,0,0,1.21482-4.82063,1.5582,1.5582,0,0,1,1.10456,1.295,3.53952,3.53952,0,0,0-.4891-3.20749A2.54932,2.54932,0,0,0,57.84836,69.926a3.651,3.651,0,0,1-3.53755,1.80857c1.73917.20815,1.89757-3.27916,1.12662-3.99656C54.23864,69.43012,53.17222,71.05654,51.1433,71.92926Z"/><path class="cls-7" d="M105.67217,71.95546l-1.98548-.55333,2.50757,3.16632a.77516.77516,0,0,1-1.1088-.67913,10.36365,10.36365,0,0,0,5.16959,5.89638,6.72029,6.72029,0,0,1-4.319-1.04657c2.0831,2.08889,1.19587,6.107,3.49762,7.9522a6.59506,6.59506,0,0,1-4.831-5.94587,1.67641,1.67641,0,0,0-.42055,1.47917,8.1153,8.1153,0,0,1-1.25057-3.83749.83407.83407,0,0,0-.318,1.44581,6.47625,6.47625,0,0,1-1.21018-4.8218,1.5582,1.5582,0,0,0-1.10581,1.29389,3.53954,3.53954,0,0,1,.49218-3.207,2.54931,2.54931,0,0,1-1.82074-3.15222,3.651,3.651,0,0,0,3.5358,1.812c-1.73936.20648-1.89442-3.281-1.12278-3.99764C102.57923,69.45335,103.64409,71.0808,105.67217,71.95546Z"/><path class="cls-9" d="M40.859,48.16627a14.41063,14.41063,0,0,1,5.5937-5.95126,13.48884,13.48884,0,0,0-4.21237,6.68831,8.3381,8.3381,0,0,0,1.18812,6.055,12.04407,12.04407,0,0,1,.86262,1.8366c.0236.49088-.62306.67555-1.07216.47589-.54916-.24413-1.69651-1.45982-3.27767-3.83709C38.79044,51.70349,39.95484,49.89409,40.859,48.16627Z"/><path class="cls-9" d="M62.066,50.50843c-2.40031-6.89762-9.28141-7.53969-13.7363-5.1788s-8.38851,8.10405-8.38851,8.10405,5.98794,10.16876,13.19117,7.39417C53.13237,60.82785,64.75558,58.23728,62.066,50.50843Z"/><path class="cls-10" d="M42.91072,53.352a11.24715,11.24715,0,0,1,3.61-6.8005c3.13-2.51934,7.00848-3.44387,10.76653-.808a12.88531,12.88531,0,0,1,4.50769,5.11328c.44185.44073-.18191,4.544-3.60941,7.2418C56.089,59.74878,47.5597,65.4817,42.91072,53.352Z"/><path class="cls-11" d="M43.795,53.25924a10.20442,10.20442,0,0,1,3.2753-6.17c2.83981-2.28579,6.35874-3.1246,9.7684-.73309a11.69058,11.69058,0,0,1,4.08978,4.63924c.40089.39987-.165,4.12271-3.27479,6.57042C55.7516,59.063,48.013,64.2644,43.795,53.25924Z"/><path class="cls-12" d="M60.9243,51.0994a9.25786,9.25786,0,0,1-3.77554,4.29787c-1.9791,1.17023-9.61123,4.9277-12.70581-4.5231a10.0317,10.0317,0,0,0-.407,1.15577c2.7228,11.46679,11.08234,7.33655,13.166,6.10463,3.40669-2.01423,4.46087-5.62929,4.11646-6.07864A5.65312,5.65312,0,0,1,60.9243,51.0994Z"/><circle class="cls-13" cx="53.91304" cy="47.09376" r="1.11639"/><path class="cls-9" d="M95.73386,50.098c2.52024-6.85471,9.41149-7.37668,13.82453-4.93846s8.2459,8.2491,8.2459,8.2491-6.16437,10.06279-13.31811,7.163C104.48618,60.5716,92.90991,57.77872,95.73386,50.098Z"/><path class="cls-10" d="M114.83665,53.27517a11.24716,11.24716,0,0,0-3.49083-6.86242c-3.08557-2.57355-6.94735-3.56557-10.7508-.99563A12.88507,12.88507,0,0,0,95.99885,50.451c-.44947.433.10263,4.54645,3.48257,7.30363C101.54882,59.44113,109.97684,65.32192,114.83665,53.27517Z"/><path class="cls-11" d="M113.95408,53.167a10.20442,10.20442,0,0,0-3.1672-6.22623c-2.79952-2.335-6.30329-3.235-9.75413-.90333a11.69055,11.69055,0,0,0-4.17007,4.56721c-.4078.39282.09312,4.125,3.15971,6.62654C101.89813,58.7613,109.54481,64.0969,113.95408,53.167Z"/><path class="cls-12" d="M97.39557,49.71792a9.25784,9.25784,0,0,0,3.08933,4.81481c1.78154,1.45342,8.76489,6.31147,13.23989-2.56932a10.03248,10.03248,0,0,1,.22929,1.20368c-4.40932,10.92973-12.05607,5.59417-13.93171,4.06411-3.06663-2.50169-3.56755-6.23385-3.15972-6.62656A5.65354,5.65354,0,0,0,97.39557,49.71792Z"/><circle class="cls-13" cx="103.94514" cy="46.82598" r="1.11639"/><path class="cls-9" d="M116.93649,48.11308a14.41069,14.41069,0,0,0-5.588-5.95663,13.48879,13.48879,0,0,1,4.20593,6.69235,8.33808,8.33808,0,0,1-1.19394,6.05382,12.04484,12.04484,0,0,0-.86438,1.83577c-.02407.49086.62241.67614,1.0717.47692.54939-.2436,1.69792-1.45819,3.28136-3.83394C119.00161,51.65229,117.83894,49.84177,116.93649,48.11308Z"/><circle class="cls-14" cx="63.07273" cy="88.95211" r="0.44354"/><circle class="cls-14" cx="63.51415" cy="93.3666" r="0.44354"/><circle class="cls-14" cx="56.54819" cy="99.00053" r="0.44354"/><circle class="cls-14" cx="59.65506" cy="94.69537" r="0.44354"/><circle class="cls-14" cx="59.21333" cy="90.92474" r="0.44354"/><circle class="cls-14" cx="56.99444" cy="93.36346" r="0.44354"/><circle class="cls-14" cx="65.28144" cy="97.23055" r="0.44354"/><circle class="cls-14" cx="60.70437" cy="98.11544" r="0.44354"/><circle class="cls-14" cx="57.8766" cy="103.61426" r="0.44354"/><circle class="cls-14" cx="66.16681" cy="100.80353" r="0.44354"/><circle class="cls-14" cx="62.62279" cy="102.26563" r="0.44354"/><circle class="cls-14" cx="91.66693" cy="103.08828" r="0.44354"/><circle class="cls-14" cx="91.44296" cy="97.40124" r="0.44354"/><circle class="cls-14" cx="97.30417" cy="93.48298" r="0.44354"/><circle class="cls-14" cx="95.0846" cy="97.34502" r="0.44354"/><circle class="cls-14" cx="95.52633" cy="101.11565" r="0.44354"/><circle class="cls-14" cx="97.74522" cy="98.67693" r="0.44354"/><circle class="cls-14" cx="88.56852" cy="100.25028" r="0.44354"/><circle class="cls-14" cx="93.38173" cy="93.03755" r="0.44354"/><circle class="cls-14" cx="96.86306" cy="88.42613" r="0.44354"/><circle class="cls-14" cx="91.44785" cy="87.22021" r="0.44354"/><circle class="cls-14" cx="94.27048" cy="89.56876" r="0.44354"/><path class="cls-15" d="M77.48329,106.89057a19.57772,19.57772,0,0,1-11.93544-5.98794c-.00913-.01044-5.80471-6.64487-2.11118-11.03918,3.69644-4.39777,7.74841-4.50337,12.082-4.03635s14.56769-1.35792,16.594,5.36195C94.45046,98.95547,85.01659,107.67462,77.48329,106.89057Z"/><path class="cls-16" d="M77.46344,105.42836a16.87684,16.87684,0,0,1-10.28891-5.16188c-.00787-.009-5.00393-5.72819-1.81994-9.51629,3.18651-3.79108,6.6795-3.88211,10.41528-3.47953s12.558-1.17058,14.30481,4.62226C92.08993,98.58794,83.95749,106.10425,77.46344,105.42836Z"/><path class="cls-17" d="M72.71752,98.85854c.37178-.99728-.23809-1.74561-1.57585-2.18505-1.51953-.49915-5.94138.53817-5.94138.53817a14.35841,14.35841,0,0,0,2.42773,3.54327C69.13942,101.07605,72.26844,100.06344,72.71752,98.85854Z"/><path class="cls-17" d="M82.763,98.85484c-.48023-.94982.04276-1.76125,1.32344-2.34655,1.45469-.66482,5.96439-.125,5.96439-.125a14.35873,14.35873,0,0,1-2.01919,3.791C86.56526,100.66124,83.34314,100.00241,82.763,98.85484Z"/><path class="cls-18" d="M39.58132,101.64094s8.57816-5.71282,18.345-6.42274"/><path class="cls-18" d="M38.90106,110.68446s10.42117-10.10759,19.97649-12.25"/><path class="cls-18" d="M44.696,115.69756s5.24552-10.35944,14.65643-14.04712"/><path class="cls-18" d="M116.07134,101.6777s-8.57267-5.72106-18.33877-6.44038"/><path class="cls-18" d="M116.7429,110.72187s-10.41145-10.1176-19.9647-12.26922"/><path class="cls-18" d="M110.94315,115.72939s-5.23555-10.36448-14.64291-14.06119"/></svg>