<svg xmlns="http://www.w3.org/2000/svg" xmlns:xlink="http://www.w3.org/1999/xlink" width="414" height="736" viewBox="0 0 414 736">
  <defs>
    <clipPath id="clip-iPhone_6_7_8_Plus_2">
      <rect width="414" height="736"/>
    </clipPath>
  </defs>
  <g id="iPhone_6_7_8_Plus_2" data-name="iPhone 6/7/8 Plus – 2" clip-path="url(#clip-iPhone_6_7_8_Plus_2)">
    <rect width="414" height="736" fill="#fff"/>
    <rect id="Rectangle_110" data-name="Rectangle 110" width="414" height="736" fill="#f5f2ed"/>
    <g id="Group_366" data-name="Group 366" transform="translate(-80.636 548.802) rotate(-90)">
      <path id="Path_674" data-name="Path 674" d="M303.394,721.139c-4.73,5.366-8.055,11.816-10.968,18.349-3.543,7.941-6.413,17.688-1.525,24.882a14.015,14.015,0,0,0,12.348,5.979c5.584-.405,10.377-4.154,14.047-8.384s6.612-9.089,10.662-12.955c4.315-4.116,9.731-6.951,13.974-11.142,3.42-3.379,6.1-8.029,5.442-12.794a14.747,14.747,0,0,0-3.588-7.314C332.281,704.109,313.888,709.231,303.394,721.139Z" transform="translate(-166.28 -432.335)" fill="#f8f6f0"/>
      <path id="Path_675" data-name="Path 675" d="M39.562,1001.29a23.254,23.254,0,0,1,9.649,1.452c3.312,1.4,6,3.91,8.618,6.378,7.083,6.675,14.268,13.477,19.15,21.9s7.223,18.839,3.951,28c-1.841,5.157-5.293,9.554-8.687,13.85q-5.832,7.384-11.668,14.768c-3.8,4.806-7.969,9.874-13.841,11.611-9.409,2.787-18.745-3.929-26.274-10.225-4.508-3.771-9.175-7.748-11.481-13.154-1.661-3.888-4.271-6.979-4.546-11.2-.588-9.108-3.793-16.78-4.382-25.888-.4-6.131,1.8-19.374,5.448-24.942C10.9,1005.586,30.65,1001.508,39.562,1001.29Z" transform="translate(0 -597.032)" fill="#f8f6f0"/>
      <path id="Path_676" data-name="Path 676" d="M205.256,984.34a12.721,12.721,0,0,0-5.233,3.61,5.543,5.543,0,0,0-.721,6.011c.959,1.623,2.854,2.4,4.306,3.607,3.477,2.888,4.246,8.1,7.612,11.114,4.087,3.667,10.6,2.831,15.464.3,3.11-1.62,6.179-4.341,6.182-7.846,0-2.528-1.6-4.739-3.129-6.754C223.055,985.593,216.307,979.573,205.256,984.34Z" transform="translate(-135.839 -604.53)" fill="#f8f6f0"/>
      <path id="Path_677" data-name="Path 677" d="M292.591,1076.632c-2.806,2.654-3.97,6.549-5.679,10.013-3.059,6.194-8.3,12.164-7.21,18.988a3.2,3.2,0,0,0,.94,2.028,3.688,3.688,0,0,0,2.129.611,280.507,280.507,0,0,0,31.795.541,6.238,6.238,0,0,0,2.794-.554c1.9-1.047,2.186-3.616,2.158-5.786-.082-6.406-.984-12.933-3.856-18.662C311,1074.522,301.389,1068.315,292.591,1076.632Z" transform="translate(-162.652 -645.881)" fill="#f8f6f0"/>
      <path id="Path_678" data-name="Path 678" d="M222.978,1228.129c-.816,4.8.683,9.988-1.275,14.442-1.724,3.92-6.039,7.333-4.9,11.462a126.968,126.968,0,0,0,16.783-.275h62.368c1.607-6.517-1.234-13.993-6.16-18.552-2.841-2.629-6.406-4.318-9.58-6.536-3.293-2.306-6.16-5.185-9.507-7.406C259.087,1213.557,226.252,1208.863,222.978,1228.129Z" transform="translate(-123.628 -742.843)" fill="#f8f6f0"/>
      <path id="Path_679" data-name="Path 679" d="M464.533,1050.067c-8.57,6.932-9.14,19.963-16.011,28.58-2.968,3.72-7,6.463-10.073,10.1s-5.141,8.8-3.183,13.139a16.835,16.835,0,0,0,4.274,5.147q7.65,7.037,15.3,14.075a8.8,8.8,0,0,0,3.157,2.148,7.247,7.247,0,0,0,3.641-.022c6.852-1.433,12.458-6.283,17.255-11.383,6.248-6.644,11.807-14.224,14.4-22.968s1.873-18.817-3.543-26.154c-2.151-2.914-4.951-5.315-6.985-8.311-2.047-3.018-2.483-6.5-2.506-9.864C474.872,1044.851,468.8,1046.613,464.533,1050.067Z" transform="translate(-250.475 -626.615)" fill="#f8f6f0"/>
      <path id="Path_680" data-name="Path 680" d="M577.145,825.013c-4.543,5.837-6.115,13.427-6.909,20.782a44.817,44.817,0,0,0-.146,10.715,27.377,27.377,0,0,0,5.546,13.189,3.522,3.522,0,0,0,1.344,1.183,3.364,3.364,0,0,0,1.281.177,14.71,14.71,0,0,0,7.115-1.759c3.72-2.082,6.093-5.865,8.592-9.317a81.747,81.747,0,0,1,7.754-9.194c3.293-3.366,7.052-6.739,8.108-11.326C614.113,820.865,588.3,810.688,577.145,825.013Z" transform="translate(-331.468 -499.809)" fill="#f8f6f0"/>
      <path id="Path_681" data-name="Path 681" d="M621.939,955.629c-1.908,2.376-3.347,5.106-5.337,7.416-2.676,3.113-6.232,5.334-9.178,8.194s-5.366,6.8-4.745,10.858c.933,6.1,7.966,9.345,10.4,15.015,2.053,4.787.835,11.218,4.853,14.537,2.05,1.693,4.888,1.977,7.542,2.088,13.8.569,28.656-2.208,38.454-11.946,9.959-9.9,12.629-26.369,6.305-38.906a14.842,14.842,0,0,0-3.448-4.736,18.951,18.951,0,0,0-5.233-2.819C647.732,949.66,633.891,940.782,621.939,955.629Z" transform="translate(-345.503 -576.191)" fill="#f8f6f0"/>
      <path id="Path_682" data-name="Path 682" d="M69.443,787.324c-2.588,1.544-4.866,3.578-7.507,5.033-3.556,1.961-7.621,2.794-11.339,4.432s-7.321,4.451-8.146,8.428c-1.24,5.979,4.16,11.418,4.458,17.514.253,5.147-3.1,10.69-.519,15.154,1.316,2.275,3.847,3.521,6.274,4.54,12.6,5.29,27.331,7.843,39.78,2.2,12.651-5.742,20.811-20.092,19.273-33.9a14.7,14.7,0,0,0-1.563-5.584,18.815,18.815,0,0,0-3.879-4.42C95.42,790.69,85.647,777.681,69.443,787.324Z" transform="translate(-28.891 -477.133)" fill="#f8f6f0"/>
      <path id="Path_683" data-name="Path 683" d="M681.607,1149.232a42.477,42.477,0,0,1-6.312,2.607c-2.841.829-5.824,1.05-8.7,1.746s-5.774,1.974-7.514,4.366-1.908,6.1.263,8.108a9.484,9.484,0,0,0,4.8,1.92,163,163,0,0,0,26.021,2.879c2.718.082,5.552.066,7.985-1.148a11.768,11.768,0,0,0,5.647-7.558,34.942,34.942,0,0,0,.813-9.649C704.458,1134.847,691.671,1144.424,681.607,1149.232Z" transform="translate(-381.535 -693.432)" fill="#f8f6f0"/>
      <path id="Path_684" data-name="Path 684" d="M548.237,1253.473a51.287,51.287,0,0,0-3.977,4.73c-5.188,6.239-13.23,11.01-14.54,19.017,5.571-.253,11.152-.364,16.723-.617h36.445a81.625,81.625,0,0,0-.978-11.88c-.493-3.214-1.224-6.5-3.113-9.146C572.274,1246.44,556.136,1246.01,548.237,1253.473Z" transform="translate(-306.391 -765.881)" fill="#f8f6f0"/>
      <path id="Path_685" data-name="Path 685" d="M735.707,1242.009c-2,2.474-2.759,5.71-3.217,8.855a62.107,62.107,0,0,0,.158,18.922,3.517,3.517,0,0,0,.705,1.873,3.608,3.608,0,0,0,2.515.829c6.255.389,12.528.525,18.792.335h22.927c2.4,0-1.9-30.387-9.611-33.8C760.131,1235.545,741.424,1234.928,735.707,1242.009Z" transform="translate(-424.604 -757.843)" fill="#f8f6f0"/>
      <path id="Path_686" data-name="Path 686" d="M437.237,965.853c-.762-4.167-4.024-7.561-7.836-9.406-3.113-1.506-7.169-1.525-10.538-1.851-4.638-.446-10.276-1.86-14.888-1.4-13.6,1.348-22.095,17.34-23.164,29.4a7.307,7.307,0,0,0,.3,3.531,8.836,8.836,0,0,0,2.879,3.091,34.33,34.33,0,0,1,11.123,16.369,5.531,5.531,0,0,0,1.373,2.68,4.191,4.191,0,0,0,2.528.816c5.6.329,10.756-3.353,14.072-7.878s5.236-9.89,7.764-14.894,5.941-9.915,11.025-12.281a13.981,13.981,0,0,0,3.7-1.977A6.753,6.753,0,0,0,437.237,965.853Z" transform="translate(-219.859 -581.588)" fill="#f8f6f0"/>
      <path id="Path_687" data-name="Path 687" d="M454.988,962.32c-.139.029-.278.057-.418.089.187-.022.373-.044.56-.07Z" transform="translate(-268.581 -596.34)" fill="#f8f6f0"/>
      <path id="Path_688" data-name="Path 688" d="M310.254,932.026c-2.547,1.538-5.416,2.632-7.533,4.72s-3.221,5.672-1.414,8.033c1.05,1.37,2.8,1.993,4.132,3.088,2.765,2.265,3.872,6.6,7.3,7.6,3.16.921,6.318-1.724,7.8-4.666s1.993-6.331,3.762-9.108c1.212-1.9,3.062-3.73,2.863-5.979a6.305,6.305,0,0,0-1.383-3.04c-1.329-1.829-5.445-7.162-8.014-6.957C315.9,925.866,312.174,930.868,310.254,932.026Z" transform="translate(-175.743 -569.268)" fill="#f8f6f0"/>
      <path id="Path_689" data-name="Path 689" d="M444.616,862.2a5.294,5.294,0,0,0,1.737-1.509,6.488,6.488,0,0,0,.816-2.73c1-6.992,5.543-18.223-1.854-22.506-5.85-3.391-18.669-4.22-25.126-3.11a27.223,27.223,0,0,0-21.674,21.943c-1.31,8.222,10.06,10.586,16,11.038,4.043.307,8.061-.3,12.11-.244C432.73,865.175,439.181,865.479,444.616,862.2Z" transform="translate(-230.666 -511.056)" fill="#f8f6f0"/>
      <path id="Path_690" data-name="Path 690" d="M203.286,703.99a138.9,138.9,0,0,1-20.564-7.337c-2.271-1.019-4.679-2.259-5.739-4.508-2.192-4.657,2.661-9.443,7.039-12.145,6.7-4.129,14.357-7.9,22.114-6.584s14.486,10.076,10.921,17.087c-3.35,6.59-13.037,7.64-16.786,14.012" transform="translate(-120.617 -413.791)" fill="#f8f6f0"/>
      <path id="Path_691" data-name="Path 691" d="M519.847,741.511A42.61,42.61,0,0,0,498.48,761.62a44.483,44.483,0,0,0,26.413.535c4.29-1.25,8.6-3.331,11.073-7.055s2.392-9.393-1.136-12.133c-1.895-1.471-4.378-1.882-6.748-2.243-3.812-.585-8.184-1.016-11.079,1.534" transform="translate(-290.127 -456.019)" fill="#f8f6f0"/>
      <path id="Path_692" data-name="Path 692" d="M666.686,716.06c3.815,5.286,11.753,6.7,14.8,12.455,3.917,7.4-2.3,18.134,3.439,24.23,4.537,4.818,12.44,2.42,19.017,3.129,9.9,1.066,17.1,9.545,23.228,17.391l8.665,11.1c2.347,3.009,4.818,6.119,8.254,7.786,7.264,3.521,16.394-.965,20.675-7.808s4.9-15.29,5.157-23.357c.652-20.121-1-42.342-15.084-56.721-12.177-12.43-30.592-15.844-47.771-18.634C694.848,683.648,651.029,694.366,666.686,716.06Z" transform="translate(-372.649 -410.181)" fill="#f8f6f0"/>
      <path id="Path_693" data-name="Path 693" d="M829.967,1093.011c-1.715,2.471-4.236,4.347-5.7,6.976-3.2,5.748.683,14.1,7.14,15.356,2.787.541,5.71-.06,8.479.57,4.3.984,7.428,4.726,11.5,6.428,6.315,2.638,13.948-.294,18.387-5.5s6.213-12.189,6.909-19c.56-5.486.259-11.664-3.638-15.565-3.622-3.625-9.19-4.16-14.211-5.2-5.685-1.183-16.084-8.58-20.9-5.948C832.523,1074.086,833.415,1088.038,829.967,1093.011Z" transform="translate(-475.965 -644.398)" fill="#f8f6f0"/>
      <path id="Path_694" data-name="Path 694" d="M985.79,970.571a9.729,9.729,0,0,0-1,4.265c.266,4.318,5.185,6.422,8.57,9.115,6.6,5.239,8.216,14.759,6.97,23.088s-4.806,16.138-6.7,24.344c-.569,2.468-.952,5.211.3,7.409,1.281,2.243,3.9,3.3,6.349,4.129,7.492,2.556,15.752,4.543,23.205,1.885,11.747-4.186,16.767-17.824,19.523-29.988,2.4-10.611,4.214-21.576,2.661-32.345-2.676-18.558-15.688-34.939-32.545-43.152C1002.048,941.557,989.71,961.187,985.79,970.571Z" transform="translate(-567.359 -554.676)" fill="#f8f6f0"/>
      <path id="Path_695" data-name="Path 695" d="M930.61,1265c-7.162.873-15.508,2.566-18.561,9.1-3.328,7.131,1.794,15.122,3.028,22.892q20.6-.19,41.213-.376c2.591-.022,5.29-.073,7.605-1.234s4.116-3.8,3.445-6.3c-.513-1.911-2.24-3.2-3.86-4.34l-19.32-13.591c-4.85-3.41-10.076-6.954-16.005-7.134" transform="translate(-526.061 -776.652)" fill="#f8f6f0"/>
      <path id="Path_696" data-name="Path 696" d="M360.1,516.112c1.6,6.653,8.32,11,15.056,12.215,6.41,1.155,14.793,1.221,16.964,7.362,1.006,2.847.1,6.071.933,8.975,1.594,5.578,8.76,7.526,14.458,6.451s10.921-4.138,16.679-4.85c4.872-.6,9.8.525,14.7.383,14.673-.427,27.7-13.955,27.581-28.634-.12-14.49-11.547-26.964-24.85-32.706-13.566-5.856-38.135-10.586-51.871-3.676C379.574,486.757,356.9,502.771,360.1,516.112Z" transform="translate(-202.123 -290.122)" fill="#f8f6f0"/>
      <path id="Path_697" data-name="Path 697" d="M312.366,633.24c-2.123,2.464-1.851,6.321-.237,9.146s4.29,4.853,6.894,6.8c3.3,2.471,6.767,5.014,10.826,5.732s8.874-1.022,10.26-4.907c1.889-5.3-3.319-10.424-8.384-12.863a44.721,44.721,0,0,0-20.861-4.369" transform="translate(-181.643 -389.919)" fill="#f8f6f0"/>
      <path id="Path_698" data-name="Path 698" d="M667.609,480.982c3.287,9.251,3.233,19.33,2.648,29.131a10.513,10.513,0,0,0,.484,4.957c2.037,4.54,8.57,3.8,13.442,2.781a77.439,77.439,0,0,1,56.772,10.288c6.584,4.179,13.455,9.621,21.184,8.589,8.706-1.164,14.072-9.962,17.432-18.074,2.8-6.748,5.125-14.259,3.04-21.26-2.347-7.893-9.9-13.281-17.773-15.685s-16.245-2.4-24.449-3.132c-24.452-2.167-47.784-10.858-70.809-19.365-6.8-2.515-15.382-4.942-21.07.424C656.153,465.866,663.933,470.634,667.609,480.982Z" transform="translate(-357.133 -276.188)" fill="#f8f6f0"/>
      <path id="Path_699" data-name="Path 699" d="M1022.352,726.641c-2.36,3.151-4.8,6.5-5.274,10.405s1.848,8.447,5.755,8.937c2.249.282,4.739-.753,6.691.4,1.063.63,1.74,1.819,2.863,2.335a5.167,5.167,0,0,0,2.9.18c5.492-.813,10.988-3.524,13.8-8.314s2.063-11.788-2.518-14.926a18.591,18.591,0,0,0-6.59-2.379c-3.363-.75-6.818-1.5-10.231-1.025s-6.834,2.461-8.033,5.691" transform="translate(-593.304 -444.431)" fill="#f8f6f0"/>
      <path id="Path_700" data-name="Path 700" d="M1022.052,821.8a9.15,9.15,0,0,0,.617,4.163c1.193,2.408,4.242,3.274,6.925,3.164s5.328-.927,8.01-.778c8.251.462,13.224,9.307,20.551,13.132,8.757,4.571,20.266.933,26.584-6.663s8.083-18.159,7-27.976c-.494-4.467-1.819-9.32-5.578-11.791-2.366-1.553-5.3-1.889-8.121-2.18-5.533-.573-11.484-1.063-16.315,1.693-2.392,1.367-4.3,3.426-6.5,5.09-8.153,6.179-16.09,3.265-24.819,5.8C1020.043,808.458,1022.16,809.246,1022.052,821.8Z" transform="translate(-568.194 -484.291)" fill="#f8f6f0"/>
      <path id="Path_701" data-name="Path 701" d="M43.859,704.88,20.84,709.249c-2.651.5-5.445,1.076-7.447,2.885-5.824,5.264-.513,15.246-3.183,22.626,7,3.54,14.217-4.41,21.861-6.153,4.768-1.088,9.966.313,14.527-1.449a11.076,11.076,0,0,0-5-21.364" transform="translate(-6.976 -433.367)" fill="#f8f6f0"/>
      <path id="Path_702" data-name="Path 702" d="M2.456,514.668c-.509,4.439-1.016,8.975-.06,13.341s3.651,8.608,7.824,10.212A51.776,51.776,0,0,1,39.965,535.2c5.252,1.031,10.478,2.895,15.809,2.392,7.571-.712,13.977-6.055,21.443-7.492,4.764-.917,10.2-.357,13.92-3.474,4.2-3.521,4.094-9.978,2.983-15.347-1.37-6.612-3.847-13.234-8.624-18.008-5.878-5.878-14.347-8.165-22.4-10.225q-10.255-2.62-20.507-5.242c-6.982-1.784-14.192-3.584-21.323-2.537C1.608,478.159,4.187,499.6,2.456,514.668Z" transform="translate(-1.266 -289.138)" fill="#f8f6f0"/>
      <path id="Path_703" data-name="Path 703" d="M217.36,459.548c5.331,2.012,11.93,3.48,13.977,8.795,1.275,3.312.231,7.023.471,10.563s3.056,7.6,6.473,6.647c2.12-.588,3.278-2.809,4.182-4.815,3.663-8.121,6.916-18.485,1.05-25.192-2.968-3.391-7.542-4.8-11.873-6.058-4.806-1.4-27.948-11.234-31.219-7.128C195.651,448.342,213.757,458.187,217.36,459.548Z" transform="translate(-136.468 -270.295)" fill="#f8f6f0"/>
      <path id="Path_704" data-name="Path 704" d="M390.072,378.963c17-7.026,36.088.557,54.4,2.287,2.566.244,5.362.459,7.254,2.205,2.417,2.23,2.335,6.3.557,9.061s-4.828,4.445-7.9,5.619c-15.859,6.065-38.891,4.211-55.655,3.834-7.545-.171-11.747,2.787-12.582-6.821C375.509,387.783,384.25,381.367,390.072,378.963Z" transform="translate(-214.93 -231.459)" fill="#f8f6f0"/>
      <path id="Path_705" data-name="Path 705" d="M22.061,379.758a119.652,119.652,0,0,1,35.151.054c2.721.408,5.666.876,8.093-.424,3.531-1.9,4.312-6.913,2.733-10.6s-4.856-6.315-8.045-8.748c-6.694-5.109-24.857-19.827-33.974-13.961C19.735,350.128,22.8,379.651,22.061,379.758Z" transform="translate(-14.999 -211.658)" fill="#f8f6f0"/>
      <path id="Path_706" data-name="Path 706" d="M109.923,293.908c1.487,11.952,12.939,19.729,23.288,25.895,3.186,1.9,6.729,3.869,10.383,3.246,4.856-.826,7.925-6.305,7.352-11.2s-3.955-9.054-7.884-12.022c-2.063-1.557-4.454-3.056-5.264-5.511-.547-1.658-.266-3.524-.943-5.135-1.269-3.012-5.112-3.771-8.362-4.113-3.9-.411-7.938-.807-11.671.4s-7.093,4.486-7.1,8.409" transform="translate(-75.005 -174.631)" fill="#f8f6f0"/>
      <path id="Path_707" data-name="Path 707" d="M231.329,307.248c-.133,2.129-.513,4.625,1.044,6.081a5.3,5.3,0,0,0,2.18,1.085,21.357,21.357,0,0,0,21.427-6.027c2.809-3.11,4.787-7.156,8.453-9.19,3.17-1.756,7.153-1.718,10.165-3.736,4.853-3.259,5.043-10.826,1.784-15.679s-8.884-7.517-14.4-9.466c-9.792-3.461-47.376-15.16-49.41-3.385C210.341,279.87,232.259,292.464,231.329,307.248Z" transform="translate(-122.093 -159.88)" fill="#f8f6f0"/>
      <path id="Path_708" data-name="Path 708" d="M442.209,272.139a85.346,85.346,0,0,1,40.223,6.27c7.552,3.164,16.748,7.276,23.212,2.253,1.417-6.672-3.474-13.224-9.317-16.745s-12.674-5.008-18.811-7.985c-6.685-3.246-12.487-8.232-19.45-10.82C433.281,235.893,443.551,258.814,442.209,272.139Z" transform="translate(-253.792 -148.995)" fill="#f8f6f0"/>
      <path id="Path_709" data-name="Path 709" d="M687.754,367.978a5.115,5.115,0,0,0,.769,2.857c1.465,1.9,4.41.914,6.735.342,6.533-1.61,13.154,1.613,19.317,4.315s13.54,4.9,19.358,1.519c7.564-4.394,7.552-16.176,2.12-23.031s-14.262-9.915-22.687-12.281C691.582,335.572,686.375,347.05,687.754,367.978Z" transform="translate(-397.83 -208.599)" fill="#f8f6f0"/>
      <path id="Path_710" data-name="Path 710" d="M877.673,401.537c-1.253,5.15.614,11.481,5.5,13.531,2.487,1.041,5.29.838,7.979,1.035,6.435.465,12.436,3.271,18.223,6.122,2.939,1.446,5.948,2.942,9.206,3.268s6.878-.775,8.63-3.543c2.471-3.9.253-9.19-3.04-12.427s-7.583-5.4-10.557-8.931c-2-2.366-3.319-5.258-5.441-7.51C897.607,381.869,881.083,387.519,877.673,401.537Z" transform="translate(-507.944 -237.495)" fill="#f8f6f0"/>
      <path id="Path_711" data-name="Path 711" d="M1002.832,386.572c4.546,5.35,9.792,11.142,9.643,18.163-.035,1.61-.357,3.259.095,4.806.762,2.61,3.42,4.081,5.5,5.831,8.988,7.558,7.915,21.3,8.456,33.032.142,3.1.826,6.751,3.651,8.039,3.49,1.588,7.2-1.648,9.45-4.752a69.9,69.9,0,0,0,13.126-37.606c.123-2.774.095-5.628,1.107-8.213,1.338-3.426,4.4-6.1,5.141-9.7,1.424-6.947-6.062-12.136-12.433-15.246q-9.581-4.67-19.162-9.342C1009.795,362.99,980.908,360.772,1002.832,386.572Z" transform="translate(-549.736 -220.399)" fill="#f8f6f0"/>
      <path id="Path_712" data-name="Path 712" d="M1166.766,527.354c-.288,9.143-1.265,19.406-8.3,25.249-4.3,3.569-10.709,5.375-12.519,10.662-2.189,6.406,4.385,12.629,10.908,14.442s13.736,1.354,19.7,4.562c2.841,1.528,5.233,3.815,8.118,5.261a20.654,20.654,0,0,0,12.759,1.462,28.684,28.684,0,0,0,17.112-46.556c-2.2-2.648-4.888-4.932-6.549-7.947-2.294-4.167-2.322-9.162-3.521-13.762-2.414-9.27-14.047-21.586-24.794-20.244C1167.332,502.02,1167.1,516.781,1166.766,527.354Z" transform="translate(-652.672 -301.808)" fill="#f8f6f0"/>
      <path id="Path_713" data-name="Path 713" d="M1234.016,857.066c-3.632,5.369-9.592,8.7-13.835,13.6s-6.232,13.161-1.367,17.444c3.379,2.974,8.447,2.648,12.73,4.037,4.641,1.506,8.387,5.075,13.009,6.641,8.172,2.771,17.745-1.772,21.991-9.285s3.632-17.15-.234-24.863c-2.243-4.47-5.5-8.475-6.9-13.278-1.117-3.841-.965-7.966-2.126-11.8-1.911-6.305-10.288-15.227-16.843-9.905C1234.57,834.427,1238.8,849.992,1234.016,857.066Z" transform="translate(-700.839 -502.648)" fill="#f8f6f0"/>
      <path id="Path_714" data-name="Path 714" d="M26.458,190.377c3.29-5.188,9.285-7.846,14.246-11.475a39.6,39.6,0,0,0,11.152-12.594,3.981,3.981,0,0,0,.687-2.167,3.654,3.654,0,0,0-1.088-2.079c-6.087-6.777-17.922-5.264-24.4,1.136s-8.608,16.011-9.032,25.11c-.282,6.046.332,13.566,6.932,14.714C24.866,199.786,24.3,193.781,26.458,190.377Z" transform="translate(-12.281 -107.768)" fill="#f8f6f0"/>
      <path id="Path_715" data-name="Path 715" d="M100.409,214.9c-6,2.474-12.095,5-17.156,9.064s-9.039,9.95-9.282,16.438A45.607,45.607,0,0,1,99.8,232.964c4.265.089,9.323.452,11.936-2.917,2.585-3.334.81-8.542-2.582-11.054s-7.8-3.043-12-3.493" transform="translate(-50.565 -132.314)" fill="#f8f6f0"/>
      <path id="Path_716" data-name="Path 716" d="M157.988,132.378c3.765,2.67,8.422,4.078,11.687,7.34,1.825,1.825,3.224,4.227,5.578,5.286,1.993.9,4.284.652,6.463.5a62.633,62.633,0,0,1,28.368,4.7c6.343,2.661,14.458,6.093,19.276,1.186,4.091-4.167,2.642-11.993,7.2-15.651,1.2-.962,2.686-1.5,3.907-2.43,3.543-2.7,3.91-8.238,1.737-12.123s-6.258-6.34-10.427-7.9c-7.33-2.737-15.287-3.214-23.107-3.442q-19.067-.55-38.132.683C159.411,111.251,143.223,121.907,157.988,132.378Z" transform="translate(-103.959 -74.983)" fill="#f8f6f0"/>
      <path id="Path_717" data-name="Path 717" d="M484.147,124a11.453,11.453,0,0,0-.133,3.812c.611,3.227,3.869,5.337,7.087,5.989s6.549.231,9.826.465c10.437.74,19.207,7.9,26.711,15.192,2.971,2.885,6.128,5.986,10.193,6.767,5.739,1.1,11.6-3.192,13.518-8.713s.516-11.762-2.395-16.831-7.188-9.19-11.4-13.237c-6.935-6.653-13.939-13.357-22.127-18.39-4.9-3.012-20.08-11.288-25.8-7.27C485.07,94.99,484.979,118.353,484.147,124Z" transform="translate(-277.841 -62.012)" fill="#f8f6f0"/>
      <path id="Path_718" data-name="Path 718" d="M713.211,232.32a9.272,9.272,0,0,0-2.164,4.7c-.155,3.009,2.7,5.438,5.644,6.1s5.992.073,9-.079a31.169,31.169,0,0,1,20.994,6.859c3.2,2.594,6.175,5.976,10.25,6.546,6.232.87,11.437-5.878,11.259-12.167s-4.046-11.826-8.07-16.663c-4.41-5.3-9.295-10.355-15.309-13.718C726.97,203.926,722.338,219.58,713.211,232.32Z" transform="translate(-410.499 -128.998)" fill="#f8f6f0"/>
      <path id="Path_719" data-name="Path 719" d="M650.5,82.646c-4.138,5.078-.668,12.822,4.018,17.4s10.772,8.374,12.768,14.613c8.548,1.408,18.163-4.575,19.118-13.186.9-8.067-5.644-15.464-13.243-18.324s-16-2.249-24.091-1.6" transform="translate(-377.754 -55.379)" fill="#f8f6f0"/>
      <path id="Path_720" data-name="Path 720" d="M1206.805,1067.675c-4.309,4.3-1.411,11.506-1.73,17.58-.512,9.76-10.032,18.46-7.3,27.843a15.578,15.578,0,0,0,17.41-3.508c1.7-1.835,3.211-4.255,5.682-4.609,3.281-.475,6.055,3.053,9.365,2.838,1.715-.114,3.183-1.218,4.515-2.309a118.375,118.375,0,0,0,10.715-9.94c3.54-3.714,7.055-8.343,6.359-13.424-.756-5.524-6.137-9.118-11.244-11.354C1233.035,1067.488,1213.841,1060.658,1206.805,1067.675Z" transform="translate(-688.064 -640.337)" fill="#f8f6f0"/>
      <path id="Path_721" data-name="Path 721" d="M1150.029,1238.141c-2.582.054-5.359-.6-7.615.655-2.075,1.161-3.031,3.588-3.828,5.828q-3.92,10.972-7.836,21.946a15.828,15.828,0,0,0,10.336-.744h77.073c1.408-7.2-5.226-13.888-11.3-18.008-8.89-6.03-15.926-18.121-25.758-20.146C1169.1,1225.205,1161.494,1237.9,1150.029,1238.141Z" transform="translate(-642.579 -751.587)" fill="#f8f6f0"/>
      <path id="Path_722" data-name="Path 722" d="M820.237,108.869a28.4,28.4,0,0,0,5.96,2.234,24.8,24.8,0,0,1,15.7,16.812c1.455,5.483.962,11.288,1.857,16.891s3.8,11.528,9.184,13.3c5.15,1.693,10.586-.927,15.825-2.316,19.058-5.049,39.134,6.425,58.613,3.369a7.977,7.977,0,0,0,4.249-1.645,7.5,7.5,0,0,0,1.968-4.2,24.74,24.74,0,0,0-11.146-25.23c-5.869-3.562-13.455-4.8-17.634-10.244-3.5-4.565-3.572-10.807-5.464-16.239-3.417-9.814-12.822-16.578-22.785-19.536s-20.551-2.7-30.937-2.423c-7.615.206-22.5-.184-27.926,6.463C813.324,91.469,813.726,104.864,820.237,108.869Z" transform="translate(-453.931 -54.334)" fill="#f8f6f0"/>
      <path id="Path_723" data-name="Path 723" d="M1185.151,359.932c.281,5.084,5.612,8.08,8.88,11.984a16.953,16.953,0,0,1,3.458,14.493q12.433.636,24.869,1.269a5.428,5.428,0,0,0,3.126-.465c1.566-.952,1.746-3.129,1.645-4.961-.623-11.184-6.359-27.815-16.742-33.851C1202.867,344.025,1184.474,347.679,1185.151,359.932Z" transform="translate(-679.757 -212.48)" fill="#f8f6f0"/>
      <path id="Path_724" data-name="Path 724" d="M20.894,65.439c3.793-2.325,8.763-3.708,12.617-1.481,1.477.854,2.673,2.18,4.252,2.825,3.278,1.338,7.039-.728,9.285-3.467s3.572-6.137,5.812-8.877A17.132,17.132,0,0,1,69.918,48.8c-3.053-5.457-8.757-9.032-14.743-10.836s-12.316-2.05-18.564-2.281C9.8,34.688,7.493,50.661,10,72.26,13.947,70.431,17.142,67.735,20.894,65.439Z" transform="translate(-6.306 -24.365)" fill="#f8f6f0"/>
      <path id="Path_725" data-name="Path 725" d="M250.2,27.35c18.321-2.335,37.1-4.651,55.1-.516a12.354,12.354,0,0,0,5.008.5,10.958,10.958,0,0,0,4.293-2.221c4.477-3.284,9.184-8.422,7.314-13.648C320.5,7.523,316,5.748,311.955,4.685c-16.381-4.3-35.784-5.941-52.637-3.651C242.266,3.35,249.992,12.177,250.2,27.35Z" transform="translate(-142.132 0)" fill="#f8f6f0"/>
    </g>
    <g id="Group_596" data-name="Group 596" transform="translate(-80.636 1140.802) rotate(-90)">
      <path id="Path_674-2" data-name="Path 674" d="M303.394,721.139c-4.73,5.366-8.055,11.816-10.968,18.349-3.543,7.941-6.413,17.688-1.525,24.882a14.015,14.015,0,0,0,12.348,5.979c5.584-.405,10.377-4.154,14.047-8.384s6.612-9.089,10.662-12.955c4.315-4.116,9.731-6.951,13.974-11.142,3.42-3.379,6.1-8.029,5.442-12.794a14.747,14.747,0,0,0-3.588-7.314C332.281,704.109,313.888,709.231,303.394,721.139Z" transform="translate(-166.28 -432.335)" fill="#f8f6f0"/>
      <path id="Path_675-2" data-name="Path 675" d="M39.562,1001.29a23.254,23.254,0,0,1,9.649,1.452c3.312,1.4,6,3.91,8.618,6.378,7.083,6.675,14.268,13.477,19.15,21.9s7.223,18.839,3.951,28c-1.841,5.157-5.293,9.554-8.687,13.85q-5.832,7.384-11.668,14.768c-3.8,4.806-7.969,9.874-13.841,11.611-9.409,2.787-18.745-3.929-26.274-10.225-4.508-3.771-9.175-7.748-11.481-13.154-1.661-3.888-4.271-6.979-4.546-11.2-.588-9.108-3.793-16.78-4.382-25.888-.4-6.131,1.8-19.374,5.448-24.942C10.9,1005.586,30.65,1001.508,39.562,1001.29Z" transform="translate(0 -597.032)" fill="#f8f6f0"/>
      <path id="Path_676-2" data-name="Path 676" d="M205.256,984.34a12.721,12.721,0,0,0-5.233,3.61,5.543,5.543,0,0,0-.721,6.011c.959,1.623,2.854,2.4,4.306,3.607,3.477,2.888,4.246,8.1,7.612,11.114,4.087,3.667,10.6,2.831,15.464.3,3.11-1.62,6.179-4.341,6.182-7.846,0-2.528-1.6-4.739-3.129-6.754C223.055,985.593,216.307,979.573,205.256,984.34Z" transform="translate(-135.839 -604.53)" fill="#f8f6f0"/>
      <path id="Path_677-2" data-name="Path 677" d="M292.591,1076.632c-2.806,2.654-3.97,6.549-5.679,10.013-3.059,6.194-8.3,12.164-7.21,18.988a3.2,3.2,0,0,0,.94,2.028,3.688,3.688,0,0,0,2.129.611,280.507,280.507,0,0,0,31.795.541,6.238,6.238,0,0,0,2.794-.554c1.9-1.047,2.186-3.616,2.158-5.786-.082-6.406-.984-12.933-3.856-18.662C311,1074.522,301.389,1068.315,292.591,1076.632Z" transform="translate(-162.652 -645.881)" fill="#f8f6f0"/>
      <path id="Path_678-2" data-name="Path 678" d="M222.978,1228.129c-.816,4.8.683,9.988-1.275,14.442-1.724,3.92-6.039,7.333-4.9,11.462a126.968,126.968,0,0,0,16.783-.275h62.368c1.607-6.517-1.234-13.993-6.16-18.552-2.841-2.629-6.406-4.318-9.58-6.536-3.293-2.306-6.16-5.185-9.507-7.406C259.087,1213.557,226.252,1208.863,222.978,1228.129Z" transform="translate(-123.628 -742.843)" fill="#f8f6f0"/>
      <path id="Path_679-2" data-name="Path 679" d="M464.533,1050.067c-8.57,6.932-9.14,19.963-16.011,28.58-2.968,3.72-7,6.463-10.073,10.1s-5.141,8.8-3.183,13.139a16.835,16.835,0,0,0,4.274,5.147q7.65,7.037,15.3,14.075a8.8,8.8,0,0,0,3.157,2.148,7.247,7.247,0,0,0,3.641-.022c6.852-1.433,12.458-6.283,17.255-11.383,6.248-6.644,11.807-14.224,14.4-22.968s1.873-18.817-3.543-26.154c-2.151-2.914-4.951-5.315-6.985-8.311-2.047-3.018-2.483-6.5-2.506-9.864C474.872,1044.851,468.8,1046.613,464.533,1050.067Z" transform="translate(-250.475 -626.615)" fill="#f8f6f0"/>
      <path id="Path_680-2" data-name="Path 680" d="M577.145,825.013c-4.543,5.837-6.115,13.427-6.909,20.782a44.817,44.817,0,0,0-.146,10.715,27.377,27.377,0,0,0,5.546,13.189,3.522,3.522,0,0,0,1.344,1.183,3.364,3.364,0,0,0,1.281.177,14.71,14.71,0,0,0,7.115-1.759c3.72-2.082,6.093-5.865,8.592-9.317a81.747,81.747,0,0,1,7.754-9.194c3.293-3.366,7.052-6.739,8.108-11.326C614.113,820.865,588.3,810.688,577.145,825.013Z" transform="translate(-331.468 -499.809)" fill="#f8f6f0"/>
      <path id="Path_681-2" data-name="Path 681" d="M621.939,955.629c-1.908,2.376-3.347,5.106-5.337,7.416-2.676,3.113-6.232,5.334-9.178,8.194s-5.366,6.8-4.745,10.858c.933,6.1,7.966,9.345,10.4,15.015,2.053,4.787.835,11.218,4.853,14.537,2.05,1.693,4.888,1.977,7.542,2.088,13.8.569,28.656-2.208,38.454-11.946,9.959-9.9,12.629-26.369,6.305-38.906a14.842,14.842,0,0,0-3.448-4.736,18.951,18.951,0,0,0-5.233-2.819C647.732,949.66,633.891,940.782,621.939,955.629Z" transform="translate(-345.503 -576.191)" fill="#f8f6f0"/>
      <path id="Path_682-2" data-name="Path 682" d="M69.443,787.324c-2.588,1.544-4.866,3.578-7.507,5.033-3.556,1.961-7.621,2.794-11.339,4.432s-7.321,4.451-8.146,8.428c-1.24,5.979,4.16,11.418,4.458,17.514.253,5.147-3.1,10.69-.519,15.154,1.316,2.275,3.847,3.521,6.274,4.54,12.6,5.29,27.331,7.843,39.78,2.2,12.651-5.742,20.811-20.092,19.273-33.9a14.7,14.7,0,0,0-1.563-5.584,18.815,18.815,0,0,0-3.879-4.42C95.42,790.69,85.647,777.681,69.443,787.324Z" transform="translate(-28.891 -477.133)" fill="#f8f6f0"/>
      <path id="Path_683-2" data-name="Path 683" d="M681.607,1149.232a42.477,42.477,0,0,1-6.312,2.607c-2.841.829-5.824,1.05-8.7,1.746s-5.774,1.974-7.514,4.366-1.908,6.1.263,8.108a9.484,9.484,0,0,0,4.8,1.92,163,163,0,0,0,26.021,2.879c2.718.082,5.552.066,7.985-1.148a11.768,11.768,0,0,0,5.647-7.558,34.942,34.942,0,0,0,.813-9.649C704.458,1134.847,691.671,1144.424,681.607,1149.232Z" transform="translate(-381.535 -693.432)" fill="#f8f6f0"/>
      <path id="Path_684-2" data-name="Path 684" d="M548.237,1253.473a51.287,51.287,0,0,0-3.977,4.73c-5.188,6.239-13.23,11.01-14.54,19.017,5.571-.253,11.152-.364,16.723-.617h36.445a81.625,81.625,0,0,0-.978-11.88c-.493-3.214-1.224-6.5-3.113-9.146C572.274,1246.44,556.136,1246.01,548.237,1253.473Z" transform="translate(-306.391 -765.881)" fill="#f8f6f0"/>
      <path id="Path_685-2" data-name="Path 685" d="M735.707,1242.009c-2,2.474-2.759,5.71-3.217,8.855a62.107,62.107,0,0,0,.158,18.922,3.517,3.517,0,0,0,.705,1.873,3.608,3.608,0,0,0,2.515.829c6.255.389,12.528.525,18.792.335h22.927c2.4,0-1.9-30.387-9.611-33.8C760.131,1235.545,741.424,1234.928,735.707,1242.009Z" transform="translate(-424.604 -757.843)" fill="#f8f6f0"/>
      <path id="Path_686-2" data-name="Path 686" d="M437.237,965.853c-.762-4.167-4.024-7.561-7.836-9.406-3.113-1.506-7.169-1.525-10.538-1.851-4.638-.446-10.276-1.86-14.888-1.4-13.6,1.348-22.095,17.34-23.164,29.4a7.307,7.307,0,0,0,.3,3.531,8.836,8.836,0,0,0,2.879,3.091,34.33,34.33,0,0,1,11.123,16.369,5.531,5.531,0,0,0,1.373,2.68,4.191,4.191,0,0,0,2.528.816c5.6.329,10.756-3.353,14.072-7.878s5.236-9.89,7.764-14.894,5.941-9.915,11.025-12.281a13.981,13.981,0,0,0,3.7-1.977A6.753,6.753,0,0,0,437.237,965.853Z" transform="translate(-219.859 -581.588)" fill="#f8f6f0"/>
      <path id="Path_687-2" data-name="Path 687" d="M454.988,962.32c-.139.029-.278.057-.418.089.187-.022.373-.044.56-.07Z" transform="translate(-268.581 -596.34)" fill="#f8f6f0"/>
      <path id="Path_688-2" data-name="Path 688" d="M310.254,932.026c-2.547,1.538-5.416,2.632-7.533,4.72s-3.221,5.672-1.414,8.033c1.05,1.37,2.8,1.993,4.132,3.088,2.765,2.265,3.872,6.6,7.3,7.6,3.16.921,6.318-1.724,7.8-4.666s1.993-6.331,3.762-9.108c1.212-1.9,3.062-3.73,2.863-5.979a6.305,6.305,0,0,0-1.383-3.04c-1.329-1.829-5.445-7.162-8.014-6.957C315.9,925.866,312.174,930.868,310.254,932.026Z" transform="translate(-175.743 -569.268)" fill="#f8f6f0"/>
      <path id="Path_689-2" data-name="Path 689" d="M444.616,862.2a5.294,5.294,0,0,0,1.737-1.509,6.488,6.488,0,0,0,.816-2.73c1-6.992,5.543-18.223-1.854-22.506-5.85-3.391-18.669-4.22-25.126-3.11a27.223,27.223,0,0,0-21.674,21.943c-1.31,8.222,10.06,10.586,16,11.038,4.043.307,8.061-.3,12.11-.244C432.73,865.175,439.181,865.479,444.616,862.2Z" transform="translate(-230.666 -511.056)" fill="#f8f6f0"/>
      <path id="Path_690-2" data-name="Path 690" d="M203.286,703.99a138.9,138.9,0,0,1-20.564-7.337c-2.271-1.019-4.679-2.259-5.739-4.508-2.192-4.657,2.661-9.443,7.039-12.145,6.7-4.129,14.357-7.9,22.114-6.584s14.486,10.076,10.921,17.087c-3.35,6.59-13.037,7.64-16.786,14.012" transform="translate(-120.617 -413.791)" fill="#f8f6f0"/>
      <path id="Path_691-2" data-name="Path 691" d="M519.847,741.511A42.61,42.61,0,0,0,498.48,761.62a44.483,44.483,0,0,0,26.413.535c4.29-1.25,8.6-3.331,11.073-7.055s2.392-9.393-1.136-12.133c-1.895-1.471-4.378-1.882-6.748-2.243-3.812-.585-8.184-1.016-11.079,1.534" transform="translate(-290.127 -456.019)" fill="#f8f6f0"/>
      <path id="Path_692-2" data-name="Path 692" d="M666.686,716.06c3.815,5.286,11.753,6.7,14.8,12.455,3.917,7.4-2.3,18.134,3.439,24.23,4.537,4.818,12.44,2.42,19.017,3.129,9.9,1.066,17.1,9.545,23.228,17.391l8.665,11.1c2.347,3.009,4.818,6.119,8.254,7.786,7.264,3.521,16.394-.965,20.675-7.808s4.9-15.29,5.157-23.357c.652-20.121-1-42.342-15.084-56.721-12.177-12.43-30.592-15.844-47.771-18.634C694.848,683.648,651.029,694.366,666.686,716.06Z" transform="translate(-372.649 -410.181)" fill="#f8f6f0"/>
      <path id="Path_693-2" data-name="Path 693" d="M829.967,1093.011c-1.715,2.471-4.236,4.347-5.7,6.976-3.2,5.748.683,14.1,7.14,15.356,2.787.541,5.71-.06,8.479.57,4.3.984,7.428,4.726,11.5,6.428,6.315,2.638,13.948-.294,18.387-5.5s6.213-12.189,6.909-19c.56-5.486.259-11.664-3.638-15.565-3.622-3.625-9.19-4.16-14.211-5.2-5.685-1.183-16.084-8.58-20.9-5.948C832.523,1074.086,833.415,1088.038,829.967,1093.011Z" transform="translate(-475.965 -644.398)" fill="#f8f6f0"/>
      <path id="Path_694-2" data-name="Path 694" d="M985.79,970.571a9.729,9.729,0,0,0-1,4.265c.266,4.318,5.185,6.422,8.57,9.115,6.6,5.239,8.216,14.759,6.97,23.088s-4.806,16.138-6.7,24.344c-.569,2.468-.952,5.211.3,7.409,1.281,2.243,3.9,3.3,6.349,4.129,7.492,2.556,15.752,4.543,23.205,1.885,11.747-4.186,16.767-17.824,19.523-29.988,2.4-10.611,4.214-21.576,2.661-32.345-2.676-18.558-15.688-34.939-32.545-43.152C1002.048,941.557,989.71,961.187,985.79,970.571Z" transform="translate(-567.359 -554.676)" fill="#f8f6f0"/>
      <path id="Path_695-2" data-name="Path 695" d="M930.61,1265c-7.162.873-15.508,2.566-18.561,9.1-3.328,7.131,1.794,15.122,3.028,22.892q20.6-.19,41.213-.376c2.591-.022,5.29-.073,7.605-1.234s4.116-3.8,3.445-6.3c-.513-1.911-2.24-3.2-3.86-4.34l-19.32-13.591c-4.85-3.41-10.076-6.954-16.005-7.134" transform="translate(-526.061 -776.652)" fill="#f8f6f0"/>
      <path id="Path_696-2" data-name="Path 696" d="M360.1,516.112c1.6,6.653,8.32,11,15.056,12.215,6.41,1.155,14.793,1.221,16.964,7.362,1.006,2.847.1,6.071.933,8.975,1.594,5.578,8.76,7.526,14.458,6.451s10.921-4.138,16.679-4.85c4.872-.6,9.8.525,14.7.383,14.673-.427,27.7-13.955,27.581-28.634-.12-14.49-11.547-26.964-24.85-32.706-13.566-5.856-38.135-10.586-51.871-3.676C379.574,486.757,356.9,502.771,360.1,516.112Z" transform="translate(-202.123 -290.122)" fill="#f8f6f0"/>
      <path id="Path_697-2" data-name="Path 697" d="M312.366,633.24c-2.123,2.464-1.851,6.321-.237,9.146s4.29,4.853,6.894,6.8c3.3,2.471,6.767,5.014,10.826,5.732s8.874-1.022,10.26-4.907c1.889-5.3-3.319-10.424-8.384-12.863a44.721,44.721,0,0,0-20.861-4.369" transform="translate(-181.643 -389.919)" fill="#f8f6f0"/>
      <path id="Path_698-2" data-name="Path 698" d="M667.609,480.982c3.287,9.251,3.233,19.33,2.648,29.131a10.513,10.513,0,0,0,.484,4.957c2.037,4.54,8.57,3.8,13.442,2.781a77.439,77.439,0,0,1,56.772,10.288c6.584,4.179,13.455,9.621,21.184,8.589,8.706-1.164,14.072-9.962,17.432-18.074,2.8-6.748,5.125-14.259,3.04-21.26-2.347-7.893-9.9-13.281-17.773-15.685s-16.245-2.4-24.449-3.132c-24.452-2.167-47.784-10.858-70.809-19.365-6.8-2.515-15.382-4.942-21.07.424C656.153,465.866,663.933,470.634,667.609,480.982Z" transform="translate(-357.133 -276.188)" fill="#f8f6f0"/>
      <path id="Path_699-2" data-name="Path 699" d="M1022.352,726.641c-2.36,3.151-4.8,6.5-5.274,10.405s1.848,8.447,5.755,8.937c2.249.282,4.739-.753,6.691.4,1.063.63,1.74,1.819,2.863,2.335a5.167,5.167,0,0,0,2.9.18c5.492-.813,10.988-3.524,13.8-8.314s2.063-11.788-2.518-14.926a18.591,18.591,0,0,0-6.59-2.379c-3.363-.75-6.818-1.5-10.231-1.025s-6.834,2.461-8.033,5.691" transform="translate(-593.304 -444.431)" fill="#f8f6f0"/>
      <path id="Path_700-2" data-name="Path 700" d="M1022.052,821.8a9.15,9.15,0,0,0,.617,4.163c1.193,2.408,4.242,3.274,6.925,3.164s5.328-.927,8.01-.778c8.251.462,13.224,9.307,20.551,13.132,8.757,4.571,20.266.933,26.584-6.663s8.083-18.159,7-27.976c-.494-4.467-1.819-9.32-5.578-11.791-2.366-1.553-5.3-1.889-8.121-2.18-5.533-.573-11.484-1.063-16.315,1.693-2.392,1.367-4.3,3.426-6.5,5.09-8.153,6.179-16.09,3.265-24.819,5.8C1020.043,808.458,1022.16,809.246,1022.052,821.8Z" transform="translate(-568.194 -484.291)" fill="#f8f6f0"/>
      <path id="Path_701-2" data-name="Path 701" d="M43.859,704.88,20.84,709.249c-2.651.5-5.445,1.076-7.447,2.885-5.824,5.264-.513,15.246-3.183,22.626,7,3.54,14.217-4.41,21.861-6.153,4.768-1.088,9.966.313,14.527-1.449a11.076,11.076,0,0,0-5-21.364" transform="translate(-6.976 -433.367)" fill="#f8f6f0"/>
      <path id="Path_702-2" data-name="Path 702" d="M2.456,514.668c-.509,4.439-1.016,8.975-.06,13.341s3.651,8.608,7.824,10.212A51.776,51.776,0,0,1,39.965,535.2c5.252,1.031,10.478,2.895,15.809,2.392,7.571-.712,13.977-6.055,21.443-7.492,4.764-.917,10.2-.357,13.92-3.474,4.2-3.521,4.094-9.978,2.983-15.347-1.37-6.612-3.847-13.234-8.624-18.008-5.878-5.878-14.347-8.165-22.4-10.225q-10.255-2.62-20.507-5.242c-6.982-1.784-14.192-3.584-21.323-2.537C1.608,478.159,4.187,499.6,2.456,514.668Z" transform="translate(-1.266 -289.138)" fill="#f8f6f0"/>
      <path id="Path_703-2" data-name="Path 703" d="M217.36,459.548c5.331,2.012,11.93,3.48,13.977,8.795,1.275,3.312.231,7.023.471,10.563s3.056,7.6,6.473,6.647c2.12-.588,3.278-2.809,4.182-4.815,3.663-8.121,6.916-18.485,1.05-25.192-2.968-3.391-7.542-4.8-11.873-6.058-4.806-1.4-27.948-11.234-31.219-7.128C195.651,448.342,213.757,458.187,217.36,459.548Z" transform="translate(-136.468 -270.295)" fill="#f8f6f0"/>
      <path id="Path_704-2" data-name="Path 704" d="M390.072,378.963c17-7.026,36.088.557,54.4,2.287,2.566.244,5.362.459,7.254,2.205,2.417,2.23,2.335,6.3.557,9.061s-4.828,4.445-7.9,5.619c-15.859,6.065-38.891,4.211-55.655,3.834-7.545-.171-11.747,2.787-12.582-6.821C375.509,387.783,384.25,381.367,390.072,378.963Z" transform="translate(-214.93 -231.459)" fill="#f8f6f0"/>
      <path id="Path_705-2" data-name="Path 705" d="M22.061,379.758a119.652,119.652,0,0,1,35.151.054c2.721.408,5.666.876,8.093-.424,3.531-1.9,4.312-6.913,2.733-10.6s-4.856-6.315-8.045-8.748c-6.694-5.109-24.857-19.827-33.974-13.961C19.735,350.128,22.8,379.651,22.061,379.758Z" transform="translate(-14.999 -211.658)" fill="#f8f6f0"/>
      <path id="Path_706-2" data-name="Path 706" d="M109.923,293.908c1.487,11.952,12.939,19.729,23.288,25.895,3.186,1.9,6.729,3.869,10.383,3.246,4.856-.826,7.925-6.305,7.352-11.2s-3.955-9.054-7.884-12.022c-2.063-1.557-4.454-3.056-5.264-5.511-.547-1.658-.266-3.524-.943-5.135-1.269-3.012-5.112-3.771-8.362-4.113-3.9-.411-7.938-.807-11.671.4s-7.093,4.486-7.1,8.409" transform="translate(-75.005 -174.631)" fill="#f8f6f0"/>
      <path id="Path_707-2" data-name="Path 707" d="M231.329,307.248c-.133,2.129-.513,4.625,1.044,6.081a5.3,5.3,0,0,0,2.18,1.085,21.357,21.357,0,0,0,21.427-6.027c2.809-3.11,4.787-7.156,8.453-9.19,3.17-1.756,7.153-1.718,10.165-3.736,4.853-3.259,5.043-10.826,1.784-15.679s-8.884-7.517-14.4-9.466c-9.792-3.461-47.376-15.16-49.41-3.385C210.341,279.87,232.259,292.464,231.329,307.248Z" transform="translate(-122.093 -159.88)" fill="#f8f6f0"/>
      <path id="Path_708-2" data-name="Path 708" d="M442.209,272.139a85.346,85.346,0,0,1,40.223,6.27c7.552,3.164,16.748,7.276,23.212,2.253,1.417-6.672-3.474-13.224-9.317-16.745s-12.674-5.008-18.811-7.985c-6.685-3.246-12.487-8.232-19.45-10.82C433.281,235.893,443.551,258.814,442.209,272.139Z" transform="translate(-253.792 -148.995)" fill="#f8f6f0"/>
      <path id="Path_709-2" data-name="Path 709" d="M687.754,367.978a5.115,5.115,0,0,0,.769,2.857c1.465,1.9,4.41.914,6.735.342,6.533-1.61,13.154,1.613,19.317,4.315s13.54,4.9,19.358,1.519c7.564-4.394,7.552-16.176,2.12-23.031s-14.262-9.915-22.687-12.281C691.582,335.572,686.375,347.05,687.754,367.978Z" transform="translate(-397.83 -208.599)" fill="#f8f6f0"/>
      <path id="Path_710-2" data-name="Path 710" d="M877.673,401.537c-1.253,5.15.614,11.481,5.5,13.531,2.487,1.041,5.29.838,7.979,1.035,6.435.465,12.436,3.271,18.223,6.122,2.939,1.446,5.948,2.942,9.206,3.268s6.878-.775,8.63-3.543c2.471-3.9.253-9.19-3.04-12.427s-7.583-5.4-10.557-8.931c-2-2.366-3.319-5.258-5.441-7.51C897.607,381.869,881.083,387.519,877.673,401.537Z" transform="translate(-507.944 -237.495)" fill="#f8f6f0"/>
      <path id="Path_711-2" data-name="Path 711" d="M1002.832,386.572c4.546,5.35,9.792,11.142,9.643,18.163-.035,1.61-.357,3.259.095,4.806.762,2.61,3.42,4.081,5.5,5.831,8.988,7.558,7.915,21.3,8.456,33.032.142,3.1.826,6.751,3.651,8.039,3.49,1.588,7.2-1.648,9.45-4.752a69.9,69.9,0,0,0,13.126-37.606c.123-2.774.095-5.628,1.107-8.213,1.338-3.426,4.4-6.1,5.141-9.7,1.424-6.947-6.062-12.136-12.433-15.246q-9.581-4.67-19.162-9.342C1009.795,362.99,980.908,360.772,1002.832,386.572Z" transform="translate(-549.736 -220.399)" fill="#f8f6f0"/>
      <path id="Path_712-2" data-name="Path 712" d="M1166.766,527.354c-.288,9.143-1.265,19.406-8.3,25.249-4.3,3.569-10.709,5.375-12.519,10.662-2.189,6.406,4.385,12.629,10.908,14.442s13.736,1.354,19.7,4.562c2.841,1.528,5.233,3.815,8.118,5.261a20.654,20.654,0,0,0,12.759,1.462,28.684,28.684,0,0,0,17.112-46.556c-2.2-2.648-4.888-4.932-6.549-7.947-2.294-4.167-2.322-9.162-3.521-13.762-2.414-9.27-14.047-21.586-24.794-20.244C1167.332,502.02,1167.1,516.781,1166.766,527.354Z" transform="translate(-652.672 -301.808)" fill="#f8f6f0"/>
      <path id="Path_713-2" data-name="Path 713" d="M1234.016,857.066c-3.632,5.369-9.592,8.7-13.835,13.6s-6.232,13.161-1.367,17.444c3.379,2.974,8.447,2.648,12.73,4.037,4.641,1.506,8.387,5.075,13.009,6.641,8.172,2.771,17.745-1.772,21.991-9.285s3.632-17.15-.234-24.863c-2.243-4.47-5.5-8.475-6.9-13.278-1.117-3.841-.965-7.966-2.126-11.8-1.911-6.305-10.288-15.227-16.843-9.905C1234.57,834.427,1238.8,849.992,1234.016,857.066Z" transform="translate(-700.839 -502.648)" fill="#f8f6f0"/>
      <path id="Path_714-2" data-name="Path 714" d="M26.458,190.377c3.29-5.188,9.285-7.846,14.246-11.475a39.6,39.6,0,0,0,11.152-12.594,3.981,3.981,0,0,0,.687-2.167,3.654,3.654,0,0,0-1.088-2.079c-6.087-6.777-17.922-5.264-24.4,1.136s-8.608,16.011-9.032,25.11c-.282,6.046.332,13.566,6.932,14.714C24.866,199.786,24.3,193.781,26.458,190.377Z" transform="translate(-12.281 -107.768)" fill="#f8f6f0"/>
      <path id="Path_715-2" data-name="Path 715" d="M100.409,214.9c-6,2.474-12.095,5-17.156,9.064s-9.039,9.95-9.282,16.438A45.607,45.607,0,0,1,99.8,232.964c4.265.089,9.323.452,11.936-2.917,2.585-3.334.81-8.542-2.582-11.054s-7.8-3.043-12-3.493" transform="translate(-50.565 -132.314)" fill="#f8f6f0"/>
      <path id="Path_716-2" data-name="Path 716" d="M157.988,132.378c3.765,2.67,8.422,4.078,11.687,7.34,1.825,1.825,3.224,4.227,5.578,5.286,1.993.9,4.284.652,6.463.5a62.633,62.633,0,0,1,28.368,4.7c6.343,2.661,14.458,6.093,19.276,1.186,4.091-4.167,2.642-11.993,7.2-15.651,1.2-.962,2.686-1.5,3.907-2.43,3.543-2.7,3.91-8.238,1.737-12.123s-6.258-6.34-10.427-7.9c-7.33-2.737-15.287-3.214-23.107-3.442q-19.067-.55-38.132.683C159.411,111.251,143.223,121.907,157.988,132.378Z" transform="translate(-103.959 -74.983)" fill="#f8f6f0"/>
      <path id="Path_717-2" data-name="Path 717" d="M484.147,124a11.453,11.453,0,0,0-.133,3.812c.611,3.227,3.869,5.337,7.087,5.989s6.549.231,9.826.465c10.437.74,19.207,7.9,26.711,15.192,2.971,2.885,6.128,5.986,10.193,6.767,5.739,1.1,11.6-3.192,13.518-8.713s.516-11.762-2.395-16.831-7.188-9.19-11.4-13.237c-6.935-6.653-13.939-13.357-22.127-18.39-4.9-3.012-20.08-11.288-25.8-7.27C485.07,94.99,484.979,118.353,484.147,124Z" transform="translate(-277.841 -62.012)" fill="#f8f6f0"/>
      <path id="Path_718-2" data-name="Path 718" d="M713.211,232.32a9.272,9.272,0,0,0-2.164,4.7c-.155,3.009,2.7,5.438,5.644,6.1s5.992.073,9-.079a31.169,31.169,0,0,1,20.994,6.859c3.2,2.594,6.175,5.976,10.25,6.546,6.232.87,11.437-5.878,11.259-12.167s-4.046-11.826-8.07-16.663c-4.41-5.3-9.295-10.355-15.309-13.718C726.97,203.926,722.338,219.58,713.211,232.32Z" transform="translate(-410.499 -128.998)" fill="#f8f6f0"/>
      <path id="Path_719-2" data-name="Path 719" d="M650.5,82.646c-4.138,5.078-.668,12.822,4.018,17.4s10.772,8.374,12.768,14.613c8.548,1.408,18.163-4.575,19.118-13.186.9-8.067-5.644-15.464-13.243-18.324s-16-2.249-24.091-1.6" transform="translate(-377.754 -55.379)" fill="#f8f6f0"/>
      <path id="Path_720-2" data-name="Path 720" d="M1206.805,1067.675c-4.309,4.3-1.411,11.506-1.73,17.58-.512,9.76-10.032,18.46-7.3,27.843a15.578,15.578,0,0,0,17.41-3.508c1.7-1.835,3.211-4.255,5.682-4.609,3.281-.475,6.055,3.053,9.365,2.838,1.715-.114,3.183-1.218,4.515-2.309a118.375,118.375,0,0,0,10.715-9.94c3.54-3.714,7.055-8.343,6.359-13.424-.756-5.524-6.137-9.118-11.244-11.354C1233.035,1067.488,1213.841,1060.658,1206.805,1067.675Z" transform="translate(-688.064 -640.337)" fill="#f8f6f0"/>
      <path id="Path_721-2" data-name="Path 721" d="M1150.029,1238.141c-2.582.054-5.359-.6-7.615.655-2.075,1.161-3.031,3.588-3.828,5.828q-3.92,10.972-7.836,21.946a15.828,15.828,0,0,0,10.336-.744h77.073c1.408-7.2-5.226-13.888-11.3-18.008-8.89-6.03-15.926-18.121-25.758-20.146C1169.1,1225.205,1161.494,1237.9,1150.029,1238.141Z" transform="translate(-642.579 -751.587)" fill="#f8f6f0"/>
      <path id="Path_722-2" data-name="Path 722" d="M820.237,108.869a28.4,28.4,0,0,0,5.96,2.234,24.8,24.8,0,0,1,15.7,16.812c1.455,5.483.962,11.288,1.857,16.891s3.8,11.528,9.184,13.3c5.15,1.693,10.586-.927,15.825-2.316,19.058-5.049,39.134,6.425,58.613,3.369a7.977,7.977,0,0,0,4.249-1.645,7.5,7.5,0,0,0,1.968-4.2,24.74,24.74,0,0,0-11.146-25.23c-5.869-3.562-13.455-4.8-17.634-10.244-3.5-4.565-3.572-10.807-5.464-16.239-3.417-9.814-12.822-16.578-22.785-19.536s-20.551-2.7-30.937-2.423c-7.615.206-22.5-.184-27.926,6.463C813.324,91.469,813.726,104.864,820.237,108.869Z" transform="translate(-453.931 -54.334)" fill="#f8f6f0"/>
      <path id="Path_723-2" data-name="Path 723" d="M1185.151,359.932c.281,5.084,5.612,8.08,8.88,11.984a16.953,16.953,0,0,1,3.458,14.493q12.433.636,24.869,1.269a5.428,5.428,0,0,0,3.126-.465c1.566-.952,1.746-3.129,1.645-4.961-.623-11.184-6.359-27.815-16.742-33.851C1202.867,344.025,1184.474,347.679,1185.151,359.932Z" transform="translate(-679.757 -212.48)" fill="#f8f6f0"/>
      <path id="Path_724-2" data-name="Path 724" d="M20.894,65.439c3.793-2.325,8.763-3.708,12.617-1.481,1.477.854,2.673,2.18,4.252,2.825,3.278,1.338,7.039-.728,9.285-3.467s3.572-6.137,5.812-8.877A17.132,17.132,0,0,1,69.918,48.8c-3.053-5.457-8.757-9.032-14.743-10.836s-12.316-2.05-18.564-2.281C9.8,34.688,7.493,50.661,10,72.26,13.947,70.431,17.142,67.735,20.894,65.439Z" transform="translate(-6.306 -24.365)" fill="#f8f6f0"/>
      <path id="Path_725-2" data-name="Path 725" d="M250.2,27.35c18.321-2.335,37.1-4.651,55.1-.516a12.354,12.354,0,0,0,5.008.5,10.958,10.958,0,0,0,4.293-2.221c4.477-3.284,9.184-8.422,7.314-13.648C320.5,7.523,316,5.748,311.955,4.685c-16.381-4.3-35.784-5.941-52.637-3.651C242.266,3.35,249.992,12.177,250.2,27.35Z" transform="translate(-142.132 0)" fill="#f8f6f0"/>
    </g>
  </g>
</svg>
