<svg xmlns="http://www.w3.org/2000/svg" width="130.362" height="413.45" viewBox="0 0 130.362 413.45">
  <g id="Group_367" data-name="Group 367" transform="translate(3.989 207.479)">
    <g id="Group_375" data-name="Group 375" transform="translate(-3.989 -207.479)">
      <g id="Group_371" data-name="Group 371" transform="translate(1.724 32.014)">
        <g id="Group_370" data-name="Group 370" transform="translate(0 0)">
          <path id="Path_726" data-name="Path 726" d="M31.58,44.961c0,11.444-6.6,20.716-14.75,20.716S2.08,56.4,2.08,44.961L17.1,38.63Z" transform="translate(-2.08 -38.63)" fill="#fff"/>
        </g>
        <path id="Path_727" data-name="Path 727" d="M29.079,43.867,17.1,38.63,2.09,44.961c0,8.378,3.538,15.587,8.626,18.852a10.662,10.662,0,0,0,3.074.456C21.72,64.268,28.25,55.335,29.079,43.867Z" transform="translate(-2.082 -38.63)" fill="#b7ac8f"/>
      </g>
      <g id="Group_373" data-name="Group 373" transform="translate(98.558 32.486)">
        <g id="Group_372" data-name="Group 372">
          <path id="Path_728" data-name="Path 728" d="M148.44,45.531c0,11.444-6.6,20.716-14.75,20.716s-14.75-9.272-14.75-20.716L133.963,39.2Z" transform="translate(-118.94 -39.2)" fill="#fff"/>
        </g>
        <path id="Path_729" data-name="Path 729" d="M145.937,44.437,133.963,39.2,118.94,45.531c0,8.378,3.538,15.587,8.626,18.852a10.662,10.662,0,0,0,3.074.456C138.579,64.838,145.108,55.905,145.937,44.437Z" transform="translate(-118.94 -39.2)" fill="#b7ac8f"/>
      </g>
      <g id="Group_374" data-name="Group 374" transform="translate(0 0)">
        <path id="Path_730" data-name="Path 730" d="M114.245,26.64h-.936a43.355,43.355,0,0,0-3.1-10.35,32.95,32.95,0,0,0-6.671-9.911A22.376,22.376,0,0,0,94.589.844,18.2,18.2,0,0,0,84.753.53a22.044,22.044,0,0,0-9.248,4.988c-.679.638-1.342,1.359-2.022,2.038-.638.746-1.26,1.533-1.881,2.32-.572.845-1.127,1.724-1.69,2.594L68.429,15.3c-.862,1.831-2.146,5.643-2.146,5.643h-2.3s-2.759-7.532-4.98-10.739L57.176,7.813c-.663-.7-1.326-1.425-2.005-2.1-.713-.6-1.425-1.218-2.163-1.782-.762-.489-1.508-1.019-2.27-1.467A18.832,18.832,0,0,0,31.372,2.9a26.984,26.984,0,0,0-8.046,7.8A38.96,38.96,0,0,0,18.1,22.19c-.365,1.3-.655,2.627-.9,3.969H15.91L0,39.244s11.187-3.489,16.415-4.11a12.653,12.653,0,0,1,1.342-.091c4.292,0,16.573,4.2,16.573,4.2L18.205,26.168H17.7c.273-1.243.588-2.461.961-3.646A36.54,36.54,0,0,1,24.039,11.7a24.873,24.873,0,0,1,7.839-7.1,17.274,17.274,0,0,1,18.1.447,27.68,27.68,0,0,1,7.615,7.159,37.877,37.877,0,0,1,5.361,10.54c.423,1.284.787,2.61,1.11,3.961L62.223,380.08h5.618l-1.525-351.8A43.079,43.079,0,0,1,70.095,16.9a33.255,33.255,0,0,1,6.521-9.04,20.66,20.66,0,0,1,8.452-5.1,17.161,17.161,0,0,1,9.264-.108,20.76,20.76,0,0,1,8.643,4.906,30.636,30.636,0,0,1,6.729,9.206,41.166,41.166,0,0,1,3.315,9.886h-1.077L96.031,39.716s13.465-4.2,17.758-4.2,16.573,4.2,16.573,4.2Z" transform="translate(0 0.004)" fill="#3a2523"/>
        <path id="Path_731" data-name="Path 731" d="M81.831,453.638H71.945L70.23,397.63H83.5Z" transform="translate(-12.035 -68.134)" fill="#222438"/>
        <path id="Path_732" data-name="Path 732" d="M86.29,430.04l-2.561,56.944H68.607L65.98,430.04Z" transform="translate(-11.306 -73.688)" fill="#514168"/>
        <path id="Path_733" data-name="Path 733" d="M83.191,486.984H68.607L65.98,430.04H81.467c-2.047,18.636-4.558,44.614-3.174,49.37C79.561,483.761,81.641,485.932,83.191,486.984Z" transform="translate(-11.306 -73.688)" fill="#2d2835"/>
      </g>
    </g>
    <g id="Group_329" data-name="Group 329" transform="translate(-3.856 163.505)">
      <path id="Path_578" data-name="Path 578" d="M126.874,287.385c-5.013-2.456-15.527,7.632-15.527,7.632s-5.967-13.558-11.975,1.6c0,0,1.015-23.483-9.62-22.854s-14,23.4-14,23.4-5.054-10.574-10.635-8.179c-5.561,2.395-.852,10.595-.852,10.595s-10.574-6.414-12.746-5.5,5.744,10.311,5.744,10.311-15.872-11.406-20.58-7.51c-3.8,3.126,4.222,15.567,4.222,15.567s36.493,1.888,37.954,1.969,46.56-2.74,46.235-3.877C124.723,309.407,132.212,290,126.874,287.385Z" transform="translate(-35.657 -272.867)" fill="#719f57"/>
      <path id="Path_579" data-name="Path 579" d="M134.444,315.661s7.124-18.49-6.454-4.709c0,0,7.266-15.75-4.729-7.043l-4.242,2.03s11.528-29.085.507-32.373c-11.021-3.308-20.418,27.38-20.418,27.38s-1.806-13.335-5.967-11.772c-4.161,1.583-3.714,14.451-3.714,14.451s-4.506-5.5-5.622-4.039c-1.116,1.441,1.015,7.753,1.015,7.753s-5.4-5.561-6.759-4.445,0,5.8,0,5.8S60.4,289.377,53.2,291.326s11.467,20.3,11.467,20.3S49.261,301.9,44.41,304.3c-4.831,2.415,1.685,7.591,1.685,7.591s-13.72-3.41-8.1,3.9Z" transform="translate(-34.642 -273.317)" fill="#5a8751"/>
    </g>
  </g>
</svg>
