<svg xmlns="http://www.w3.org/2000/svg" xmlns:xlink="http://www.w3.org/1999/xlink" viewBox="0 0 709.17557 1015.28085"><defs><style>.cls-1,.cls-11{fill:none;}.cls-2{fill:url(#未命名漸層_58);}.cls-3{fill:#070001;}.cls-4{fill:#333;}.cls-5{clip-path:url(#clip-path);}.cls-6{fill:#222323;}.cls-7{fill:#39393a;}.cls-8{fill:#212222;}.cls-9{fill:#171818;}.cls-10{fill:#373838;}.cls-11{stroke:#c0bebe;stroke-linecap:round;stroke-linejoin:round;stroke-width:0.25px;}.cls-12{fill:#767777;}.cls-13{fill:#343535;}.cls-14{fill:#fff;}.cls-15{fill:url(#未命名漸層_81);}.cls-16{fill:url(#未命名漸層_81-2);}.cls-17{fill:#262727;}</style><radialGradient id="未命名漸層_58" cx="359.34158" cy="872.18412" fx="327.0798093518872" fy="860.0384280915964" r="474.22482" gradientTransform="translate(0 434.85405) scale(1 0.50142)" gradientUnits="userSpaceOnUse"><stop offset="0" stop-color="#9f9e9f"/><stop offset="0.99577" stop-color="#f6f7f5" stop-opacity="0"/></radialGradient><clipPath id="clip-path"><path class="cls-1" d="M398.939,384.85389c30.7017,31.19864,49.39145,75.4206,62.48093,118.39019,15.52806,50.97485,16.54808,94.17554,7.07553,146.98017-14.22217,79.28136-24.16859,158.52045-38.39076,237.8018,7.646,13.499,17.24923,26.02432,21.55736,41.2125,6.84211,24.1216-9.22172,46.80338-31.09131,48.71915-25.25778,2.21258-39.227-21.9316-50.90292-42.761-32.06505-57.2082-20.55635-141.53719-25.17037-206.20391-1.12532-15.77165-4.06031-32.27983-13.50745-44.19009s-36.62521-6.60659-47.93513,3.134c-8.49384,7.31528-10.94821,20.18307-12.03554,32.0037-2.49974,27.17509-.852,54.58236.79762,81.83619,1.91058,31.56572,1.08276,68.175.5487,99.8054-.384,22.7451-9.92731,45.11827-25.57347,59.95421s-37.142,21.89464-57.60338,18.91546c-3.6875-.5369-7.45721-1.43788-10.49139-3.80926-5.68978-4.44689-7.4298-12.88677-7.6515-20.57092a81.11369,81.11369,0,0,1,11.65568-44.35585c3.77495-6.13918,8.31735-7.27511,7.50367-14.637a1023.31184,1023.31184,0,0,0-31.851-164.13041c-14.05555-50.04428-32.10589-99.98242-32.44113-152.36858-.45428-70.98687,32.52694-138.54736,78.173-188.62768,31.29165,2.64555,62.99206-2.512,92.6466-13.83528,9.63794-3.68016,19.09044-8.08032,29.04168-10.56294a93.13866,93.13866,0,0,1,46.79639.69942C382.51373,371.05285,391.25486,377.04557,398.939,384.85389Z"/></clipPath><linearGradient id="未命名漸層_81" x1="189.86661" y1="258.67229" x2="236.7919" y2="258.67229" gradientUnits="userSpaceOnUse"><stop offset="0.07799" stop-color="#1e0604"/><stop offset="0.51852" stop-color="#583417"/><stop offset="0.99788" stop-color="#1e0404"/></linearGradient><linearGradient id="未命名漸層_81-2" x1="1169.74684" y1="258.67229" x2="1216.67214" y2="258.67229" gradientTransform="matrix(-1, 0, 0, 1, 1558.18918, 0)" xlink:href="#未命名漸層_81"/></defs><title>neoneo</title><g id="tail"><ellipse class="cls-2" cx="312.59573" cy="893.73807" rx="312.59573" ry="122.64779"/><path class="cls-3" d="M708.71827,742.12385l.01929-.12631c2.55318-16.79355-6.35452-32.75626-18.93405-13.04151q2.53649-3.57957,5.35645-6.89135c-63.73429,74.8498-125.74563,133.99721-221.36687,152.57-31.22375,6.06467-63.02322,7.40351-94.70524,8.729l-66.49212,2.7818c68.36683,38.0264,149.51344,50.08089,222.22185,23.58781C574.73783,895.18738,611.553,870.722,642.356,839.074c20.50319-21.08691,42.36544-42.57155,57.54835-68.85525C703.81387,763.45083,707.14761,752.3664,708.71827,742.12385Z"/></g><g id="body"><path class="cls-3" d="M457.8299,565.51409c30.65253,56.18044,41.38357,125.28415,31.9927,190.019,11.41642-3.77376,23.82153,4.16048,30.42326,15.09838,10.02967,16.6174,9.6438,38.36835,6.02024,57.92338-8.554,46.16273-33.7476,90.04658-68.75453,117.0842,0,0-296.617,6.85836-301.7458,1.22791-32.30892-35.46938-53.95829-82.54418-60.814-132.23507-1.80658-13.09429-2.53249-26.95132,2.16456-39.14238s16.2231-22.055,28.09933-20.038c-7.36658-56.66426,1.40393-115.747,24.77072-166.86858,41.46211,11.14242,86.71865,21.11424,129.28886,24.43486s86.45937-1.58385,125.16452-21.39979c16.28981-8.33991,31.40957-19.17292,46.46626-29.96713,2.13924-1.53363,4.9522-3.08217,7.06884-1.51092S459.29509,567.81707,457.8299,565.51409Z"/><path class="cls-4" d="M398.939,384.85389c30.7017,31.19864,49.39145,75.4206,62.48093,118.39019,15.52806,50.97485,16.54808,94.17554,7.07553,146.98017-14.22217,79.28136-24.16859,158.52045-38.39076,237.8018,7.646,13.499,17.24923,26.02432,21.55736,41.2125,6.84211,24.1216-9.22172,46.80338-31.09131,48.71915-25.25778,2.21258-39.227-21.9316-50.90292-42.761-32.06505-57.2082-20.55635-141.53719-25.17037-206.20391-1.12532-15.77165-4.06031-32.27983-13.50745-44.19009s-36.62521-6.60659-47.93513,3.134c-8.49384,7.31528-10.94821,20.18307-12.03554,32.0037-2.49974,27.17509-.852,54.58236.79762,81.83619,1.91058,31.56572,1.08276,68.175.5487,99.8054-.384,22.7451-9.92731,45.11827-25.57347,59.95421s-37.142,21.89464-57.60338,18.91546c-3.6875-.5369-7.45721-1.43788-10.49139-3.80926-5.68978-4.44689-7.4298-12.88677-7.6515-20.57092a81.11369,81.11369,0,0,1,11.65568-44.35585c3.77495-6.13918,8.31735-7.27511,7.50367-14.637a1023.31184,1023.31184,0,0,0-31.851-164.13041c-14.05555-50.04428-32.10589-99.98242-32.44113-152.36858-.45428-70.98687,32.52694-138.54736,78.173-188.62768,31.29165,2.64555,62.99206-2.512,92.6466-13.83528,9.63794-3.68016,19.09044-8.08032,29.04168-10.56294a93.13866,93.13866,0,0,1,46.79639.69942C382.51373,371.05285,391.25486,377.04557,398.939,384.85389Z"/><g class="cls-5"><path class="cls-6" d="M193.25488,663.1395a83.155,83.155,0,0,0-24.08348,33.61087,168.39126,168.39126,0,0,1,9.186-53.83724L162.677,665.41345a480.18972,480.18972,0,0,1,15.70586-95.938,114.70224,114.70224,0,0,0-20.89077,40.31049c6.1462-43.8143,22.91741-85.76246,48.10752-120.32651l-26.44924,17.04754L213.288,428.47765c9.87756-22.57743,19.77446-49.42583,9.19178-71.6117-55.25757,26.1101-89.7902,90.06273-100.73366,155.223s-1.93963,132.19175,8.12168,197.52452c4.30959,27.98418,6.38881,59.723,15.56374,85.85138C174.95047,769.29091,160.18731,690.43923,193.25488,663.1395Z"/><path class="cls-6" d="M413.95575,622.96163a83.15493,83.15493,0,0,1,24.08348,33.61087,168.39121,168.39121,0,0,0-9.186-53.83724l15.68033,22.50032a480.18961,480.18961,0,0,0-15.70586-95.938A114.70218,114.70218,0,0,1,449.71851,569.608c-6.1462-43.81431-22.91742-85.76246-48.10753-120.32651l26.44925,17.04753-34.13756-78.02927c-9.87755-22.57744-19.77445-49.42583-9.19178-71.61171,55.25757,26.11011,89.79021,90.06274,100.73367,155.223s1.93962,132.19175-8.12169,197.52451c-4.30959,27.98418-6.38881,59.723-15.56373,85.85139C432.26016,729.113,447.02333,650.26136,413.95575,622.96163Z"/></g><path class="cls-3" d="M118.383,222.384a48.23627,48.23627,0,0,1-8.12393,15.36909,9.6798,9.6798,0,0,1,6.212-1.20492l-5.27,10.1508a4.73435,4.73435,0,0,0,5.69288-.48574l-3.10168,7.5563a3.304,3.304,0,0,0,3.8077-1.35836,28.267,28.267,0,0,1-7.46787,14.52488,16.2267,16.2267,0,0,0,10.40165-1.88617,16.68569,16.68569,0,0,0-2.5913,12.02317l6.32831-3.20746-3.7413,11.37613,5.90807-2.6199a16.51717,16.51717,0,0,1-5.58855,12.23379,12.92376,12.92376,0,0,0,11.00581-2.84339l.19373,12.36205,5.29835-2.06405-3.61436,15.11091a11.397,11.397,0,0,1,6.66627-.85393,39.17943,39.17943,0,0,1-6.975,14.92646A18.71491,18.71491,0,0,0,145.561,326.1557a15.35179,15.35179,0,0,1-1.89526,6.70258,13.41664,13.41664,0,0,1,4.87615.68542l-4.52408,5.33611a15.36286,15.36286,0,0,1,6.34333,2.75729,26.3484,26.3484,0,0,1-6.6549,3.46082,27.09842,27.09842,0,0,0,11.44939,4.85463l-4.93594,5.16821a20.539,20.539,0,0,0,7.15735,2.5157,3.96477,3.96477,0,0,0-2.99295,2.95513l5.82779,2.12337-6.30307,4.81364a29.573,29.573,0,0,1,10.5224,8.12875c1.99986,2.4918,2.69108,6.903-.76242,7.63373l5.98165,3.428c-.44063-.48423-1.45732.0569-1.43109.66762s.62749,1.0769,1.18275,1.46772l8.8054,6.19776-6.42388,3.4683,10.26952,4.00931a16.84645,16.84645,0,0,1-4.92586,5.20391l6.91744,1.81213-3.0441,2.53079,4.63434,2.53078-2.93275,3.4455a19.70737,19.70737,0,0,0,10.765,8.41876l-3.50288,2.76865,9.04844,3.84074-4.08742,2.19247c10.23049,9.13553,14.92683,23.0385,28.15664,28.79029,2.13856.92977,4.23347,2.24188,4.65758,4.24434a4.90086,4.90086,0,0,1,3.106-2.10957,5.84972,5.84972,0,0,0,1.64949,4.21781,2.4206,2.4206,0,0,1,2.92291-1.45322l1.475,2.95234c-.25745-.859,1.02963-1.58752,2.04546-1.37185a3.96551,3.96551,0,0,1,2.2603,1.74684,19.86776,19.86776,0,0,1,3.14785,6.46043l6.048-3.941c2.79433.95376,5.43025,2.44077,5.92953,4.955.927-.24466.20821-1.58291.82459-2.21776.64-.6592,1.85821.02826,2.4914.69217l3.24674,3.40424a5.55027,5.55027,0,0,0,1.25426-2.49416l3.03956,2.8959,2.12194-2.999,6.29734,8.60537,2.226-3.32713c.60409.96064,2.67241,1.04287,3.76591,1.61563s2.765.50779,3.42906-.42411c.60509-.8492.42154-2.29248,1.56575-2.50693l3.61432,3.41867,1.53138-2.69078,3.10236,2.87578,1.55607-1.50028,1.57393.945a4.65634,4.65634,0,0,1,3.19155-4.55047.41343.41343,0,0,1,.32928.02036c1.92091,1.02837,5.07558.89177,6.435,2.43325a8.76451,8.76451,0,0,0,1.65283-3.18014A5.64571,5.64571,0,0,1,313.481,481.961l1.66178-2.22781,3.00628,1.85408,1.01093-2.9138c.38182.904,2.00483,1.00169,2.85281.36395a3.23889,3.23889,0,0,0,1.093-2.63932c.63055-.88945,2.6598-.08481,2.2554.89431s-2.58428.53918-2.42282-.489c1.14625-7.29886,17.08716-9.02993,24.76393-12.49744,8.22562-3.71541,16.19678-8.00759,22.726-13.64s11.57119-12.71561,13.081-20.50092c.87776.71512,2.60753.58,3.48529,1.29517l1.67777-7.42221,3.48159-.13317a6.70788,6.70788,0,0,1,1.11656-3.50836,4.43971,4.43971,0,0,1,2.17676,2.12264l1.015-6.504,3.6884,2.17981a37.80542,37.80542,0,0,1,8.33033-18.44555l2.08777,2.01831.94424-6.13687a4.74207,4.74207,0,0,1,3.46853,2.342,13.06371,13.06371,0,0,1,1.17928-5.67985l2.13424,2.04623c.70865-17.31846,17.05258-32.61668,15.37376-49.8872l3.15047,5.0946,1.25326-4.1354c-.65369-.10178-.47528,1.00532.18887.98328s1.05844-.62177,1.30756-1.14315a36.74245,36.74245,0,0,0,3.47734-19.50544c3.3232.33473,7.4699-2.07164,9.21-4.49044a3.49214,3.49214,0,0,1-3.0386-.40589l4.75605-3.84272a4.1441,4.1441,0,0,0-3.24792-.23776c1.94661-.09408,3.6-1.71495,3.42541-3.35806l3.84066-3.08157c-.01561.68461-1.44723-.02861-1.07555-.63686s1.31692-.772,1.87926-1.26438-.0089-1.67025-.639-1.24057a4.63923,4.63923,0,0,0,1.94954-2.27673,1.64455,1.64455,0,0,0-1.7388-1.94728,10.70764,10.70764,0,0,0,4.05216-5.27321,10.44568,10.44568,0,0,0-6.04038-2.01647,17.23173,17.23173,0,0,0,9.10287-8.655,5.13485,5.13485,0,0,1-3.49335.14819,12.16077,12.16077,0,0,0,4.751-5.26143,3.15082,3.15082,0,0,1-2.861.87486,12.84041,12.84041,0,0,0,5.81407-7.89963,12.00043,12.00043,0,0,1-6.162,1.6237,58.34779,58.34779,0,0,0,7.27671-36.04384c-.06054-.44381-.21382-.97863-.7212-1.10231s-.83985.73735-.31283.70987a7.895,7.895,0,0,0,2.1282-4.62881l-4.67755,1.864a40.05444,40.05444,0,0,0,4.29549-7.53463l-3.1187,1.72475,2.87464-4.71734-3.61224.84677a23.365,23.365,0,0,1,2.17083-8.68386l-4.17774,2.83467a21.75452,21.75452,0,0,0,2.60658-7.255,4.7153,4.7153,0,0,1-3.06192,1.56654l1.67133-5.68865c-.93218,1.99832-4.87047,1.5291-6.03891-.37824s-.36921-4.24136.724-6.18037c3.87365-6.87056,4.14827-14.93226,7.30886-22.05936l-6.88095,1.70231,4.56818-5.1978-3.90459,1.70546,3.93063-6.58251c-1.30844.95869-3.48988-.39316-3.509-1.85756s1.24385-2.6901,2.45674-3.73488c9.34483-8.04961,21.14606-16.13139,21.70415-27.40482a20.73335,20.73335,0,0,1-5.84905,1.72864l3.52662-5.0841-4.17871,1.16392,2.49556-7.647c-2.32247,1.22273-4.79479-1.4009-5.69619-3.586a67.27676,67.27676,0,0,1-4.60082-34.40586,87.2163,87.2163,0,0,0-6.32226-44.66233c-5.42248-12.64552-13.78112-24.50636-16.5918-37.74658-.77044-3.62927-1.3001-7.648-4.47958-10.16979A78.49953,78.49953,0,0,0,406.657,13.89075c-10.83748,7.79931-19.67865,17.356-28.43943,26.841L348.568,72.83261c-4.70555,5.09458-9.43074,10.21391-13.1711,15.85224a56.32979,56.32979,0,0,0-9.44918,36.00355c.73953-.20249.15619.4136-.44837.827-12.27819-4.55472-25.62786-7.36276-39.02524-6.94643s-26.84534,4.21869-36.96719,11.65679c-2.23185-6.40716-3.01583-12.79511-.48861-19.12325a10.90442,10.90442,0,0,0-4.96282,2.91506l2.8876-6.58791-3.193.94732c1.281-9.94954-5.99888-19.08311-12.93455-27.19055L206.90476,53.23606c-6.95087-8.1252-14.92256-14.12985-24.2532-20.31695-9.67072-6.41261-17.41486-14.66864-26.72827-21.44934S134.83281-.74558,122.60672.28562c-6.21748,8.15922-13.3946,16.85611-17.61885,25.88234s-6.32956,19.01592-3.93888,28.511c1.53433,6.09387,4.84716,11.76311,6.80258,17.77a41.78883,41.78883,0,0,1-.89941,28.31574c-1.74473,4.41758-4.23482,8.61121-5.82539,13.07027-3.49313,9.79273-2.47472,20.27633-1.42365,30.46663a2.65777,2.65777,0,0,0,.51617-2.5789c-2.822,6.90132-1.299,17.9041,3.16684,24.15327,2.90466,4.06461,6.754,7.61513,9.48117,11.76684a26.50335,26.50335,0,0,1,.6748,28.16432l3.69492-1.61123-1.683,4.36548,3.49647-.55834a28.80416,28.80416,0,0,1-6.28073,10.69177,13.86006,13.86006,0,0,0,6.14449-1.65625A18.68979,18.68979,0,0,1,118.383,222.384Z"/><path class="cls-7" d="M306.27888,443.92474c6.56-4.70331,11.72109-11.05438,17.49931-16.69065l-44.04841,7.23967c-7.625,1.25323-13.02416-1.8279-20.03783-2.34209,2.49,6.53592,12.12447,11.30689,17.99337,14.34543C287.57,451.59476,297.21108,450.426,306.27888,443.92474Z"/><path class="cls-8" d="M218.00479,209.2009l15.98336,8.21768-3.66515-5.99306,7.17118,5.64895-2.32466-3.68387a21.17517,21.17517,0,0,0,6.5713,4.209,16.34219,16.34219,0,0,1-3.42866-10.20009c12.97626,11.38835,21.37056,27.13326,27.52955,43.26234,2.86036,7.49064,5.74405,17.05076,1.33544,24.44877C261.62115,247.74391,239.34666,225.54,218.00479,209.2009Z"/><path class="cls-8" d="M358.04332,211.5438,342.06,219.76148l3.66515-5.99307-7.17118,5.649,2.32466-3.68388a21.1752,21.1752,0,0,1-6.5713,4.209,16.34226,16.34226,0,0,0,3.42866-10.2001c-12.97627,11.38836-21.37057,27.13327-27.52956,43.26234-2.86035,7.49064-5.744,17.05077-1.33543,24.44878C314.427,250.08681,336.70145,227.88293,358.04332,211.5438Z"/><path class="cls-9" d="M386.31123,286.45415a31.307,31.307,0,0,1-5.58565,10.36474c-1.97592,2.34619-4.57582,4.06279-6.97225,5.9782-6.60388,5.2788-11.73,12.13923-16.78057,18.9196a13.30321,13.30321,0,0,1-.34234-5.57292,23.57769,23.57769,0,0,0-4.10944,4.68048,12.87474,12.87474,0,0,1,.9965-9.24389c-2.401,1.28417-9.79274,4.25924-8.866,6.25819-8.88531-6.67513-14.91062-16.59609-18.65133-27.0606-3.74072-10.46471-5.3727-21.54733-6.86918-32.55921a126.03778,126.03778,0,0,1,.4272-23.495c1.7668-5.99626,3.75109-11.90945,6.01658-17.6731.0102-.01125.0187-.02676.02889-.0378l-.01869.01168c5.5044-13.99484,12.72659-27.0758,22.95616-38.08839a38.70725,38.70725,0,0,0-23.00044,8.91048,27.92606,27.92606,0,0,0,2.94644-10.82417,14.41238,14.41238,0,0,0-8.595,7.17534q.65295-5.656,1.30634-11.312a14.97752,14.97752,0,0,0-5.68233,8.313,61.99668,61.99668,0,0,1,11.28442-37.27843,52.18458,52.18458,0,0,0-22.48536,16.28412c-1.33415-1.51664-4.48115-.13547-4.16825,1.90124q-.23993-3.5307-.48027-7.0612a12.07742,12.07742,0,0,0-2.75308,4.83734q-.41834-3.59253-.83624-7.18527a19.52524,19.52524,0,0,0-4.94481,7.38826q-.54126-4.36927-1.08207-8.73855a12.97517,12.97517,0,0,0-6.20747,9.28826,54.95889,54.95889,0,0,1,1.79825-26.36391,38.9184,38.9184,0,0,0-15.93009,23.49111q-1.64238-3.585-3.28476-7.17019-1.31611,3.62871-2.63222,7.25741-1.97546-5.75115-3.95133-11.50251a37.91727,37.91727,0,0,0-2.07929,14.24533,62.79945,62.79945,0,0,1-8.52861-20.30465,61.86993,61.86993,0,0,0,.9,42.02676q-3.11374-2.59077-6.22706-5.18175,2.95017,7.92756,5.90077,15.85534a17.61673,17.61673,0,0,0-8.07708-4.803l5.72224,12.23331c-7.05207-9.56826-16.63294-14.152-28.4383-15.5363,14.85508,10.08949,24.7808,25.768,33.71633,41.38489q-2.53581-2.48686-5.07248-4.97372c13.99284,14.10756,16.02612,36.81962,10.201,55.81682-4.80363,15.66583-14.07381,29.4093-23.97987,42.5735-3.15522,3.15108-4.13335,6.14241-8.47256,10.30652a3.11132,3.11132,0,0,1-1.68607.76959,2.53527,2.53527,0,0,1-.6818.03456,2.36256,2.36256,0,0,1-.29183-.07733,5.50329,5.50329,0,0,1-2.53033-2.10317q-2.51536-3.21484-5.03073-6.42948a18.99037,18.99037,0,0,1-.81925-2.16716q-.06949.47055-.13984.94091l-.47689,3.20822a13.27551,13.27551,0,0,1-3.61541-5.31173q-.43663,1.93991-.87285,3.87958l-2.37772-3.36967a.52522.52522,0,0,1-.28083.48891,1.32827,1.32827,0,0,1-1.09043-.19932,45.94372,45.94372,0,0,1-13.65671-10.53118,43.59584,43.59584,0,0,1-8.30821-14.33562,113.31868,113.31868,0,0,0,13.57766,26.11839,55.67,55.67,0,0,0,4.20835,6.13865c4.94494,6.24639,11.6706,12.7716,10.43123,20.64125q2.07591.84413,4.151,1.68806-1.46062,2.07713-2.92124,4.15467,2.15939.66159,4.31836,1.32318c-2.33608,1.53692-.42778,5.0786,1.29671,7.28,10.15406,12.96327,8.09733,31.71908,15.04572,46.648,20.2905,43.59546,89.31321,40.1704,112.60878,2.02193a83.16526,83.16526,0,0,0,8.97436-21.84986c.83881-3.1192,2.08236-20.33371,4.15716-21.619q-1.48728.92093-2.97329,1.84251c6.66623-14.245,6.646-30.89331,13.20813-45.18669C375.41229,311.39721,386.31941,300.30821,386.31123,286.45415Z"/><path class="cls-9" d="M206.63033,319.003l.25485.36089A.323.323,0,0,0,206.63033,319.003Z"/><circle class="cls-10" cx="260.69084" cy="383.3762" r="0.99237"/><circle class="cls-10" cx="261.68321" cy="393.25261" r="0.99237"/><circle class="cls-10" cx="246.10377" cy="405.86534" r="0.99237"/><circle class="cls-10" cx="253.05039" cy="396.22973" r="0.99237"/><circle class="cls-10" cx="252.05802" cy="387.79386" r="0.99237"/><circle class="cls-10" cx="247.09614" cy="393.25261" r="0.99237"/><circle class="cls-10" cx="265.64145" cy="401.89584" r="0.99237"/><circle class="cls-10" cx="255.40177" cy="403.88059" r="0.99237"/><circle class="cls-10" cx="249.08089" cy="416.18657" r="0.99237"/><circle class="cls-10" cx="267.6262" cy="409.889" r="0.99237"/><circle class="cls-10" cx="259.69847" cy="413.16408" r="0.99237"/><circle class="cls-10" cx="324.6821" cy="414.97343" r="0.99237"/><circle class="cls-10" cx="324.17488" cy="402.2496" r="0.99237"/><circle class="cls-10" cx="337.28442" cy="393.47667" r="0.99237"/><circle class="cls-10" cx="332.32255" cy="402.1199" r="0.99237"/><circle class="cls-10" cx="333.31492" cy="410.55577" r="0.99237"/><circle class="cls-10" cx="338.27679" cy="405.09702" r="0.99237"/><circle class="cls-10" cx="317.74673" cy="408.62708" r="0.99237"/><circle class="cls-10" cx="328.50795" cy="392.48429" r="0.99237"/><circle class="cls-10" cx="336.29204" cy="382.16306" r="0.99237"/><circle class="cls-10" cx="324.17488" cy="379.47079" r="0.99237"/><circle class="cls-10" cx="330.4927" cy="384.72234" r="0.99237"/><path class="cls-10" d="M267.27609,382.199c6.11231-5.58014,15.34811-5.46672,23.61278-5.02672l11.9378.63555c6.36118.33866,13.40629.98366,17.72414,5.66717,14.62095,15.85913-13.37946,44.78839-30.072,44.02358C272.21464,426.66174,250.54357,397.47489,267.27609,382.199Z"/><path class="cls-11" d="M208.14529,411.79119s19.18646-12.791,41.03771-14.38985"/><path class="cls-11" d="M206.633,432.0257s23.30524-22.62571,44.6818-27.42943"/><path class="cls-11" d="M219.60387,443.23567s11.72506-23.18364,32.77687-31.44448"/><path class="cls-11" d="M379.2825,411.79119s-19.18646-12.791-41.03771-14.38985"/><path class="cls-11" d="M380.79477,432.0257S357.48953,409.4,336.113,404.59627"/><path class="cls-11" d="M367.82392,443.23567s-11.72506-23.18364-32.77687-31.44448"/><path class="cls-3" d="M302.755,412.08821c0-3.43681,3.47949-6.22283,7.77162-6.22283a8.82778,8.82778,0,0,1,5.36942,1.73911c4.76365-7.251,6.37447-15.481.8122-21.51481-3.71695-4.0313-9.78048-4.58651-15.25609-4.87792q-5.137-.27336-10.27495-.54692c-7.11362-.37892-15.06323-.47641-20.32432,4.32653-6.65739,6.07776-6.20626,14.69983-2.29219,22.30154a8.92569,8.92569,0,0,1,4.89746-1.42753c4.29213,0,7.77163,2.786,7.77163,6.22283,0,2.46423-1.80411,4.5744-4.39876,5.58244,4.28066,3.64411,9.26309,6.09475,13.99318,6.3114,4.78829.2194,10.65386-2.40859,15.88606-6.504A6.14015,6.14015,0,0,1,302.755,412.08821Z"/><path class="cls-12" d="M198.3297,265.70269c-.00727,1.1301-2.77264.726-1.88476,1.44893-4.48224-3.64932-17.68121-11.72191-18.50233-18.48528-.92889-7.651,9.03434-8.4804,13.93044-11.61715a47.38342,47.38342,0,0,1,9.87211-5.27371,25.30893,25.30893,0,0,1,19.00362,1.375c8.10122,3.90976,9.96026,10.37608,12.73519,15.92111a142.57431,142.57431,0,0,0-11.52585-8.67826c-4.515-2.79446-9.53988-5.34756-14.90351-5.1938-7.93676.22753-14.95771,7.35311-14.783,15.0033C192.42076,256.73237,198.48994,266.48528,198.3297,265.70269Z"/><path class="cls-13" d="M232.03978,244.91846c1.00709,3.06908,8.67149,9.301,5.07794,19.86027-1.94258,5.70808-5.16358,11.34779-5.076,17.35442-1.097-2.79023-3.98354-4.60015-6.95226-5.44749s-6.10667-.91816-9.171-1.34484c-10.82728-1.50758-20.5881-6.18413-26.71691-16.64707,8.111,7.19376,19.82072,9.6818,30.7368,8.2044,4.63629-.62749,9.44834-2.31093,12.15392-5.9931a20.56908,20.56908,0,0,0,2.71152-6.035C234.824,254.80706,231.828,243.53058,232.03978,244.91846Z"/><path class="cls-3" d="M207.28059,272.2018c-9.388-2.44881-18.3012-12.6936-17.83626-21.947.39407-7.84276,7.46046-16.9674,19.369-17.83541,9.91333-.72259,18.29054,4.49394,23.22648,12.499,3.26732,5.29895,8.17276,14.965,1.99828,21.129C227.28873,272.7855,214.98561,274.21155,207.28059,272.2018Z"/><ellipse class="cls-14" cx="215.71186" cy="244.37452" rx="3.42786" ry="3.11953" transform="translate(-10.9828 10.15231) rotate(-2.62918)"/><path class="cls-15" d="M231.83714,244.847c-.10233-.165-.2268-.30984-.33159-.47246,1.64912,4.63029,2.07321,9.78141-1.746,13.59407-6.74951,6.738-19.052,8.16394-26.75745,6.15436a25.63633,25.63633,0,0,1-13.13544-9.15272c2.05894,7.7377,9.42983,15.13047,17.211,17.1602,7.70494,2.00981,20.00794.58364,26.75745-6.15436C240.01,259.812,235.10391,250.146,231.83714,244.847Z"/><path class="cls-3" d="M234.16406,263.83208c-6.74951,6.738-19.052,8.16393-26.75746,6.15412-8.87979-2.31609-17.23316-11.60157-17.72908-20.43141-.02263.23208-.09544.46986-.10725.7-.46492,9.25347,8.44832,19.4981,17.83633,21.94695,7.70543,2.00981,20.00795.58365,26.75746-6.15413a10.29434,10.29434,0,0,0,2.89531-8.50127A9.83022,9.83022,0,0,1,234.16406,263.83208Z"/><path class="cls-12" d="M379.97924,265.70269c.00729,1.13175,2.78072.72487,1.88085,1.45211,3.26859-3.79024,6.456-6.47814,9.73623-10.28184,2.85657-3.30332,10.00985-5.30227,8.5122-10.63708-1.11572-3.97433-10.449-7.12112-13.67259-9.18667a47.384,47.384,0,0,0-9.87215-5.27373,25.30893,25.30893,0,0,0-19.00362,1.375c-8.10122,3.90976-9.96026,10.37608-12.73519,15.92111a142.57431,142.57431,0,0,1,11.52585-8.67826c4.515-2.79446,9.53988-5.34756,14.90351-5.1938,7.93676.22753,14.95771,7.35311,14.783,15.0033C385.88818,256.73237,379.819,266.48528,379.97924,265.70269Z"/><path class="cls-13" d="M346.26916,244.91846c-1.00709,3.06908-8.67149,9.301-5.07794,19.86027,1.94259,5.70808,5.16358,11.34779,5.076,17.35442,1.097-2.79023,3.98354-4.60015,6.95226-5.44749s6.10667-.91816,9.171-1.34484c10.82728-1.50758,20.5881-6.18413,26.71691-16.64707-8.111,7.19376-19.82072,9.6818-30.7368,8.2044-4.63629-.62749-9.44834-2.31093-12.15392-5.9931a20.56908,20.56908,0,0,1-2.71152-6.035C343.485,254.80706,346.48093,243.53058,346.26916,244.91846Z"/><path class="cls-3" d="M371.02836,272.2018c9.388-2.44881,18.3012-12.6936,17.83625-21.947-.39407-7.84276-7.46045-16.9674-19.369-17.83541-9.91333-.72259-18.29054,4.49394-23.22648,12.499-3.26732,5.29895-8.17275,14.965-1.99828,21.129C351.02021,272.7855,363.32333,274.21155,371.02836,272.2018Z"/><ellipse class="cls-14" cx="362.59708" cy="244.37452" rx="3.11953" ry="3.42786" transform="translate(101.84686 595.38003) rotate(-87.37082)"/><path class="cls-16" d="M346.4718,244.847c.10233-.165.2268-.30984.3316-.47246-1.64913,4.63029-2.07322,9.78141,1.746,13.59407,6.74951,6.738,19.052,8.16394,26.75745,6.15436a25.63629,25.63629,0,0,0,13.13544-9.15272c-2.05894,7.7377-9.42982,15.13047-17.211,17.1602-7.70494,2.00981-20.00794.58364-26.75745-6.15436C338.299,259.812,343.205,250.146,346.4718,244.847Z"/><path class="cls-3" d="M344.14488,263.83208c6.74951,6.738,19.052,8.16393,26.75746,6.15412,8.87979-2.31609,17.23316-11.60157,17.72908-20.43141.02263.23208.09544.46986.10725.7.46492,9.25347-8.44832,19.4981-17.83633,21.94695-7.70543,2.00981-20.00795.58365-26.75746-6.15413a10.29434,10.29434,0,0,1-2.89531-8.50127A9.83022,9.83022,0,0,0,344.14488,263.83208Z"/><path class="cls-17" d="M442.64,163.1057l3.49311,4.70828c6.9285-10.58963,20.41553-18.61825,19.84362-31.26014-.35209-7.78282-6.23181-14.11482-8.75987-21.484-3.76415-10.97241.14688-23.4204-3.41946-34.45868-2.74-8.48063-9.53772-15.02652-13.3104-23.10089-4.72892-10.12094-4.36517-21.75434-5.75223-32.83911-.26079-2.0841-.9005-4.55153-2.89961-5.19575-1.79821-.57949-3.627.68826-5.05471,1.92562-11.59479,10.04905-20.26077,23.02564-31.1179,33.86746-11.63593,11.61951-25.69226,20.69113-36.718,32.89114s-18.93279,29.13219-14.481,44.9622c2.44028-2.25307,5.1613-3.30793,7.60158-5.561a9.94769,9.94769,0,0,1,2.07246,7.4915l3.317-2.56789a6.53788,6.53788,0,0,1,1.62129,4.07211,7.23992,7.23992,0,0,1,4.35107-3.12128l1.27789,5.84133a95.7081,95.7081,0,0,1,10.91378-9.32885,5.79291,5.79291,0,0,1,3.361-1.45749,4.05573,4.05573,0,0,1,3.50289,3.21025,11.87308,11.87308,0,0,1-.16919,5.05867c.51215-1.46852,1.91277-2.84372,3.43688-2.534s1.87322,3.04677.33307,3.26311c1.50845-.00886,1.929,2.05508,1.856,3.56179a5.68,5.68,0,0,1,3.98082-1.60541l.16865,2.89089a69.27816,69.27816,0,0,0,15.7883-8.557,22.79539,22.79539,0,0,1,2.24728,18.37174c2.72746-2.99788,5.75094-6.29416,8.23046-9.50013l.77974,7.44864a6.30606,6.30606,0,0,1,3.16474-3.8789l.35708,4.067a4.375,4.375,0,0,1,3.29845-1.56093L425.20727,153.8a20.22429,20.22429,0,0,0,5.36578-4.25432,18.56711,18.56711,0,0,1-1.28547,15.85461,41.10951,41.10951,0,0,0,10.13178-8.04337,26.054,26.054,0,0,1-1.86881,10.42874C439.148,164.80394,440.16972,165.41655,442.64,163.1057Z"/><path class="cls-17" d="M223.80433,123.49661a41.01046,41.01046,0,0,0-.58622-5.266c-1.72934-9.34931-6.2687-17.92529-11.14408-26.08773a291.61668,291.61668,0,0,0-23.60459-33.82516c-7.03758-8.70045-14.86486-17.2144-25-21.95745-.316-.14783-.6716-.28547-1.00634-.42883-9.04558-7.22981-22.15476-16.93807-27.07559-16.26775-8.06431,1.09852-10.35183,10.69188-10.69634,20.42076-.16907.25487-.36915.47853-.52335.74785-7.06732,12.3369,4.84012,34.14928,3.59462,47.607-.86743,9.3729-5.62387,18.03065-6.66249,27.38591-1.10192,9.92534,2.04666,19.7757,5.15446,29.26605q6.73386,20.56158,13.46814,41.12315c.01656.96492.0429,1.929-.01912,2.90071q.30712-.54352.613-1.08726.25168.77.50381,1.53967,1.64459-2.65041,3.28876-5.3006a5.14846,5.14846,0,0,1,.77058,1.949q1.06474-2.25342,2.1278-4.50665a3.44969,3.44969,0,0,1,1.91752,2.697q.64613-2.02245,1.29223-4.04448,1.15395.74329,2.30834,1.48678a23.14785,23.14785,0,0,1,1.59808-6.3972,8.66855,8.66855,0,0,1,1.04244,2.41433q.64993-1.13772,1.29988-2.27457a4.88123,4.88123,0,0,1,1.24422,3.61756q1.168-2.51693,2.52966-4.937a5.67314,5.67314,0,0,1,2.73738-2.8644c1.27778-.44221,3.03643.50232,2.82743,1.83788.09091-2.05155.27272-4.31528,1.74506-5.74684,1.47149-1.43156,4.63877-.95919,4.79636,1.08811q1.51844-5.76882,3.03517-11.53786a44.41838,44.41838,0,0,0,2.88733-5.48963,22.71994,22.71994,0,0,1,5.76022,8.20683,1.3667,1.3667,0,0,1,1.48211-1.54562q.71366,1.23838,1.42816,2.47656a2.26677,2.26677,0,0,0,.58452-1.47638,1.66639,1.66639,0,0,1,1.80708,1.00868c3.25308-2.62672,3.06107-7.5535,2.57468-11.70651a26.98029,26.98029,0,0,1,7.77418,6.26552q.51294-1.93611,1.0246-3.87222,1.24762.80955,2.49525,1.61889a1.26415,1.26415,0,0,1,2.01948-.82346q-.57283-.78565-1.14652-1.57153c2.141-2.7754,5.79463-4.63579,5.73006-8.13993q1.56685,2.86355,3.13456,5.72752a4.19024,4.19024,0,0,1,.76591-2.80832q1.46172,1.22754,2.923,2.45553c-1.19877-1.35255,1.97615-3.25351,2.60187-1.55858q.14974-1.71692.29821-3.43383a27.36065,27.36065,0,0,0,1.96468-3.98776,19.87745,19.87745,0,0,1,5.0181,2.67472A46.61245,46.61245,0,0,0,223.80433,123.49661Z"/><path class="cls-3" d="M430.10048,113.22966l2.73329,3.47626a65.243,65.243,0,0,1,3.50189-11.54237l-5.64421,3.25439.73149-6.71387-5.88352,3.43911a27.94394,27.94394,0,0,1,2.3729-8.43067l-4.80274,3.5271a12.67732,12.67732,0,0,1,3.096-9.70907l-7.56808,3.83889c-.29016.14718-.62626.37339-.59173.69691s.3186-.56757.24338-.88411a8.34668,8.34668,0,0,1,.60858-5.52819l-3.51211,1.76757-.27315-2.033L413.15589,89.717a6.36588,6.36588,0,0,1,.55076-3.61354l-4.23906,2.242a17.1381,17.1381,0,0,0,.67352-5.65618l-2.78635,2.584a26.2013,26.2013,0,0,1,3.23674-11.58165l-1.539,2.10647a36.60106,36.60106,0,0,1,6.71169-14.57229A166.43009,166.43009,0,0,0,387.0881,86.72843c-5.22369,5.85791-10.17807,12.39292-11.73964,20.08471.61553-.07307.52735.60332,1.1439.53943a62.5595,62.5595,0,0,1,21.21772,1.44431,78.97946,78.97946,0,0,1,8.28568,2.55374,107.64608,107.64608,0,0,1,27.94047,15.17517C433.71064,123.13158,430.32607,116.62387,430.10048,113.22966Z"/><path class="cls-3" d="M189.484,66.93842A31.36883,31.36883,0,0,0,171.26371,57.69a29.14655,29.14655,0,0,1,8.5187,15.86141,10.01718,10.01718,0,0,1-.37511,5.97675c-.85785,1.83835-2.9689,3.22017-4.91661,2.65279a15.02873,15.02873,0,0,1,3.87036,4.97748L175.1753,88.281l2.97646,2.80081c-2.12742.935-1.945,4.04408-1.00793,6.17059s2.295,4.481,1.35987,6.60836l-5.9186,1.11942a29.40749,29.40749,0,0,1,9.54364,14.74372l-3.62844-.81586a18.62383,18.62383,0,0,1,5.414,8.63329,4.15814,4.15814,0,0,1-3.43014-.20965,4.57875,4.57875,0,0,1,2.20922,4.4584c4.00164-3.21328,8.4891-5.47043,12.98488-7.94556a29.3718,29.3718,0,0,1,10.61905-3.904c3.77122-.43231,7.86059.506,10.51373,3.2208a130.991,130.991,0,0,0-27.16895-57.45351C189.24969,66.14762,189.87642,66.49867,189.484,66.93842Z"/></g></svg>