<svg xmlns="http://www.w3.org/2000/svg" width="1407.639" height="1368.26" viewBox="0 0 1407.639 1368.26"><g transform="translate(-0.005)"><path d="M336.01,746.06c-14.95,16.96-25.46,37.35-34.67,58-11.2,25.1-20.27,55.91-4.82,78.65a44.3,44.3,0,0,0,39.03,18.9c17.65-1.28,32.8-13.13,44.4-26.5s20.9-28.73,33.7-40.95c13.64-13.01,30.76-21.97,44.17-35.22,10.81-10.68,19.28-25.38,17.2-40.44-1.19-8.62-5.73-16.47-11.34-23.12C427.32,692.23,369.18,708.42,336.01,746.06Z" fill="#f8f6f0"/><path d="M125.04,1001.32c10.36-.26,20.95.56,30.5,4.59,10.47,4.41,18.97,12.36,27.24,20.16,22.39,21.1,45.1,42.6,60.53,69.21s22.83,59.55,12.49,88.52c-5.82,16.3-16.73,30.2-27.46,43.78q-18.435,23.34-36.88,46.68c-12,15.19-25.19,31.21-43.75,36.7-29.74,8.81-59.25-12.42-83.05-32.32-14.25-11.92-29-24.49-36.29-41.58-5.25-12.29-13.5-22.06-14.37-35.4-1.86-28.79-11.99-53.04-13.85-81.83-1.25-19.38,5.68-61.24,17.22-78.84C34.45,1014.9,96.87,1002.01,125.04,1001.32Z" fill="#f8f6f0"/><path d="M219.41,987.97c-6.22,2.68-12.41,6.04-16.54,11.41s-5.73,13.17-2.28,19c3.03,5.13,9.02,7.59,13.61,11.4,10.99,9.13,13.42,25.59,24.06,35.13,12.92,11.59,33.49,8.95,48.88.94,9.83-5.12,19.53-13.72,19.54-24.8.01-7.99-5.06-14.98-9.89-21.35C275.67,991.93,254.34,972.9,219.41,987.97Z" fill="#f8f6f0"/><path d="M320.76,1085.06c-8.87,8.39-12.55,20.7-17.95,31.65-9.67,19.58-26.24,38.45-22.79,60.02.38,2.38,1.11,4.88,2.97,6.41,1.83,1.51,4.37,1.76,6.73,1.93a886.8,886.8,0,0,0,100.5,1.71c3.03-.12,6.18-.29,8.83-1.75,6-3.31,6.91-11.43,6.82-18.29-.26-20.25-3.11-40.88-12.19-58.99C378.95,1078.39,348.57,1058.77,320.76,1085.06Z" fill="#f8f6f0"/><path d="M236.73,1257.44c-2.58,15.16,2.16,31.57-4.03,45.65-5.45,12.39-19.09,23.18-15.49,36.23,17.67.66,35.45.81,53.05-.87H467.4c5.08-20.6-3.9-44.23-19.47-58.64-8.98-8.31-20.25-13.65-30.28-20.66-10.41-7.29-19.47-16.39-30.05-23.41C350.87,1211.38,247.08,1196.54,236.73,1257.44Z" fill="#f8f6f0"/><path d="M529.43,1061.99c-27.09,21.91-28.89,63.1-50.61,90.34-9.38,11.76-22.12,20.43-31.84,31.91s-16.25,27.82-10.06,41.53c2.92,6.47,8.29,11.46,13.51,16.27q24.18,22.245,48.35,44.49c2.99,2.75,6.11,5.58,9.98,6.79,3.7,1.16,7.71.73,11.51-.07,21.66-4.53,39.38-19.86,54.54-35.98,19.75-21,37.32-44.96,45.53-72.6s5.92-59.48-11.2-82.67c-6.8-9.21-15.65-16.8-22.08-26.27-6.47-9.54-7.85-20.54-7.92-31.18C562.11,1045.5,542.93,1051.07,529.43,1061.99Z" fill="#f8f6f0"/><path d="M592.96,839.61c-14.36,18.45-19.33,42.44-21.84,65.69-1.22,11.25-1.95,22.65-.46,33.87a86.538,86.538,0,0,0,17.53,41.69,11.135,11.135,0,0,0,4.25,3.74,10.636,10.636,0,0,0,4.05.56,46.494,46.494,0,0,0,22.49-5.56c11.76-6.58,19.26-18.54,27.16-29.45a258.409,258.409,0,0,1,24.51-29.06c10.41-10.64,22.29-21.3,25.63-35.8C709.81,826.5,628.22,794.33,592.96,839.61Z" fill="#f8f6f0"/><path d="M663.77,973.25c-6.03,7.51-10.58,16.14-16.87,23.44-8.46,9.84-19.7,16.86-29.01,25.9s-16.96,21.49-15,34.32c2.95,19.28,25.18,29.54,32.86,47.46,6.49,15.13,2.64,35.46,15.34,45.95,6.48,5.35,15.45,6.25,23.84,6.6,43.63,1.8,90.58-6.98,121.55-37.76,31.48-31.29,39.92-83.35,19.93-122.98-2.8-5.55-6.17-10.95-10.9-14.97-4.79-4.07-10.72-6.53-16.54-8.91C745.3,954.38,701.55,926.32,663.77,973.25Z" fill="#f8f6f0"/><path d="M128.17,794.64c-8.18,4.88-15.38,11.31-23.73,15.91-11.24,6.2-24.09,8.83-35.84,14.01S45.46,838.63,42.85,851.2C38.93,870.1,56,887.29,56.94,906.56c.8,16.27-9.79,33.79-1.64,47.9,4.16,7.19,12.16,11.13,19.83,14.35,39.84,16.72,86.39,24.79,125.74,6.94,39.99-18.15,65.78-63.51,60.92-107.16-.68-6.11-1.94-12.28-4.94-17.65-3.04-5.43-7.69-9.75-12.26-13.97C210.28,805.28,179.39,764.16,128.17,794.64Z" fill="#f8f6f0"/><path d="M733.17,1164.24c-6.5,3.1-13.03,6.22-19.95,8.24-8.98,2.62-18.41,3.32-27.5,5.52s-18.25,6.24-23.75,13.8-6.03,19.28.83,25.63c4.05,3.75,9.75,5.03,15.17,6.07a515.264,515.264,0,0,0,82.25,9.1c8.59.26,17.55.21,25.24-3.63,9.16-4.58,15.12-14.02,17.85-23.89s2.66-20.26,2.57-30.5C805.4,1118.77,764.98,1149.04,733.17,1164.24Z" fill="#f8f6f0"/><path d="M588.25,1264.73c-4.74,4.48-8.41,9.94-12.57,14.95-16.4,19.72-41.82,34.8-45.96,60.11,17.61-.8,35.25-1.15,52.86-1.95h115.2a258.048,258.048,0,0,0-3.09-37.55c-1.56-10.16-3.87-20.54-9.84-28.91C664.23,1242.5,613.22,1241.14,588.25,1264.73Z" fill="#f8f6f0"/><path d="M744.06,1253.9c-6.32,7.82-8.72,18.05-10.17,27.99a196.314,196.314,0,0,0,.5,59.81c.34,2.11.78,4.34,2.23,5.92,1.94,2.11,5.09,2.44,7.95,2.62,19.77,1.23,39.6,1.66,59.4,1.06h72.47c7.58,0-6.02-96.05-30.38-106.84C821.26,1233.47,762.13,1231.52,744.06,1253.9Z" fill="#f8f6f0"/><path d="M559.33,993.4c-2.41-13.17-12.72-23.9-24.77-29.73-9.84-4.76-22.66-4.82-33.31-5.85-14.66-1.41-32.48-5.88-47.06-4.43-42.99,4.26-69.84,54.81-73.22,92.93-.33,3.76-.53,7.69.96,11.16,1.77,4.14,5.6,6.94,9.1,9.77a108.513,108.513,0,0,1,35.16,51.74c.96,3.07,1.9,6.37,4.34,8.47,2.16,1.85,5.14,2.42,7.99,2.58,17.69,1.04,34-10.6,44.48-24.9s16.55-31.26,24.54-47.08,18.78-31.34,34.85-38.82c4.03-1.87,8.42-3.26,11.71-6.25C559.31,1008.24,560.6,1000.35,559.33,993.4Z" fill="#f8f6f0"/><path d="M455.89,962.32c-.44.09-.88.18-1.32.28.59-.07,1.18-.14,1.77-.22Z" fill="#f8f6f0"/><path d="M331.55,945.67c-8.05,4.86-17.12,8.32-23.81,14.92s-10.18,17.93-4.47,25.39c3.32,4.33,8.84,6.3,13.06,9.76,8.74,7.16,12.24,20.87,23.08,24.03,9.99,2.91,19.97-5.45,24.64-14.75s6.3-20.01,11.89-28.79c3.83-6.02,9.68-11.79,9.05-18.9-.32-3.55-2.27-6.73-4.37-9.61-4.2-5.78-17.21-22.64-25.33-21.99C349.4,926.2,337.62,942.01,331.55,945.67Z" fill="#f8f6f0"/><path d="M544.46,927.72a16.729,16.729,0,0,0,5.49-4.77c1.68-2.52,2.15-5.63,2.58-8.63,3.15-22.1,17.52-57.6-5.86-71.14-18.49-10.72-59.01-13.34-79.42-9.83-34.18,5.88-63.05,35.11-68.51,69.36-4.14,25.99,31.8,33.46,50.58,34.89,12.78.97,25.48-.95,38.28-.77C506.89,937.11,527.28,938.07,544.46,927.72Z" fill="#f8f6f0"/><path d="M261.3,770.63a439.041,439.041,0,0,1-65-23.19c-7.18-3.22-14.79-7.14-18.14-14.25-6.93-14.72,8.41-29.85,22.25-38.39,21.17-13.05,45.38-24.96,69.9-20.81S316.1,705.84,304.83,728c-10.59,20.83-41.21,24.15-53.06,44.29" fill="#f8f6f0"/><path d="M566.02,744.18a134.688,134.688,0,0,0-67.54,63.56,140.606,140.606,0,0,0,83.49,1.69c13.56-3.95,27.18-10.53,35-22.3s7.56-29.69-3.59-38.35c-5.99-4.65-13.84-5.95-21.33-7.09-12.05-1.85-25.87-3.21-35.02,4.85" fill="#f8f6f0"/><path d="M673.9,782.31c12.06,16.71,37.15,21.17,46.79,39.37,12.38,23.38-7.27,57.32,10.87,76.59,14.34,15.23,39.32,7.65,60.11,9.89,31.28,3.37,54.06,30.17,73.42,54.97l27.39,35.1c7.42,9.51,15.23,19.34,26.09,24.61,22.96,11.13,51.82-3.05,65.35-24.68s15.48-48.33,16.3-73.83c2.06-63.6-3.16-133.84-47.68-179.29-38.49-39.29-96.7-50.08-151-58.9C762.92,679.86,624.41,713.74,673.9,782.31Z" fill="#f8f6f0"/><path d="M844.75,1141.52c-5.42,7.81-13.39,13.74-18.01,22.05-10.12,18.17,2.16,44.57,22.57,48.54,8.81,1.71,18.05-.19,26.8,1.8,13.6,3.11,23.48,14.94,36.35,20.32,19.96,8.34,44.09-.93,58.12-17.39s19.64-38.53,21.84-60.05c1.77-17.34.82-36.87-11.5-49.2-11.45-11.46-29.05-13.15-44.92-16.45-17.97-3.74-50.84-27.12-66.05-18.8C852.83,1081.7,855.65,1125.8,844.75,1141.52Z" fill="#f8f6f0"/><path d="M987.98,1038.1c-1.79,4.3-3.46,8.83-3.17,13.48.84,13.65,16.39,20.3,27.09,28.81,20.85,16.56,25.97,46.65,22.03,72.98s-15.19,51.01-21.19,76.95c-1.8,7.8-3.01,16.47.96,23.42,4.05,7.09,12.34,10.42,20.07,13.05,23.68,8.08,49.79,14.36,73.35,5.96,37.13-13.23,53-56.34,61.71-94.79,7.6-33.54,13.32-68.2,8.41-102.24-8.46-58.66-49.59-110.44-102.87-136.4C1039.37,946.39,1000.37,1008.44,987.98,1038.1Z" fill="#f8f6f0"/><path d="M973.11,1267.13c-22.64,2.76-49.02,8.11-58.67,28.77-10.52,22.54,5.67,47.8,9.57,72.36q65.13-.6,130.27-1.19c8.19-.07,16.72-.23,24.04-3.9s13.01-12,10.89-19.92c-1.62-6.04-7.08-10.12-12.2-13.72q-30.54-21.48-61.07-42.96c-15.33-10.78-31.85-21.98-50.59-22.55" fill="#f8f6f0"/><path d="M360.77,598.03c5.05,21.03,26.3,34.78,47.59,38.61,20.26,3.65,46.76,3.86,53.62,23.27,3.18,9,.32,19.19,2.95,28.37,5.04,17.63,27.69,23.79,45.7,20.39s34.52-13.08,52.72-15.33c15.4-1.9,30.97,1.66,46.48,1.21,46.38-1.35,87.57-44.11,87.18-90.51-.38-45.8-36.5-85.23-78.55-103.38-42.88-18.51-120.54-33.46-163.96-11.62C422.31,505.24,350.63,555.86,360.77,598.03Z" fill="#f8f6f0"/><path d="M315.65,634.29c-6.71,7.79-5.85,19.98-.75,28.91s13.56,15.34,21.79,21.5c10.43,7.81,21.39,15.85,34.22,18.12s28.05-3.23,32.43-15.51c5.97-16.74-10.49-32.95-26.5-40.66a141.357,141.357,0,0,0-65.94-13.81" fill="#f8f6f0"/><path d="M708.88,534.05c10.39,29.24,10.22,61.1,8.37,92.08-.32,5.29-.64,10.83,1.53,15.67,6.44,14.35,27.09,12.02,42.49,8.79,61-12.82,126.83-.89,179.45,32.52,20.81,13.21,42.53,30.41,66.96,27.15,27.52-3.68,44.48-31.49,55.1-57.13,8.84-21.33,16.2-45.07,9.61-67.2-7.42-24.95-31.29-41.98-56.18-49.58s-51.35-7.6-77.28-9.9c-77.29-6.85-151.04-34.32-223.82-61.21-21.51-7.95-48.62-15.62-66.6,1.34C672.67,486.27,697.26,501.34,708.88,534.05Z" fill="#f8f6f0"/><path d="M1033.88,736.44c-7.46,9.96-15.17,20.54-16.67,32.89s5.84,26.7,18.19,28.25c7.11.89,14.98-2.38,21.15,1.27,3.36,1.99,5.5,5.75,9.05,7.38,2.83,1.29,6.11,1.03,9.18.57,17.36-2.57,34.73-11.14,43.61-26.28s6.52-37.26-7.96-47.18c-6.13-4.2-13.58-5.9-20.83-7.52-10.63-2.37-21.55-4.75-32.34-3.24s-21.6,7.78-25.39,17.99" fill="#f8f6f0"/><path d="M1022.29,885.27c-.04,4.48-.03,9.15,1.95,13.16,3.77,7.61,13.41,10.35,21.89,10s16.84-2.93,25.32-2.46c26.08,1.46,41.8,29.42,64.96,41.51,27.68,14.45,64.06,2.95,84.03-21.06s25.55-57.4,22.12-88.43c-1.56-14.12-5.75-29.46-17.63-37.27-7.48-4.91-16.76-5.97-25.67-6.89-17.49-1.81-36.3-3.36-51.57,5.35-7.56,4.32-13.6,10.83-20.54,16.09-25.77,19.53-50.86,10.32-78.45,18.33C1015.94,843.11,1022.63,845.6,1022.29,885.27Z" fill="#f8f6f0"/><path d="M116.57,704.88q-36.375,6.9-72.76,13.81c-8.38,1.59-17.21,3.4-23.54,9.12C1.86,744.45,18.65,776,10.21,799.33c22.12,11.19,44.94-13.94,69.1-19.45,15.07-3.44,31.5.99,45.92-4.58,15.6-6.02,25.3-24.36,21.49-40.64s-20.64-28.42-37.29-26.89" fill="#f8f6f0"/><path d="M3.75,600.47C2.14,614.5.54,628.84,3.56,642.64s11.54,27.21,24.73,32.28a163.66,163.66,0,0,1,94.02-9.54c16.6,3.26,33.12,9.15,49.97,7.56,23.93-2.25,44.18-19.14,67.78-23.68,15.06-2.9,32.24-1.13,44-10.98,13.29-11.13,12.94-31.54,9.43-48.51-4.33-20.9-12.16-41.83-27.26-56.92-18.58-18.58-45.35-25.81-70.81-32.32Q163,492.25,130.6,483.96c-22.07-5.64-44.86-11.33-67.4-8.02C1.07,485.07,9.22,552.83,3.75,600.47Z" fill="#f8f6f0"/><path d="M255.68,498.84c16.85,6.36,37.71,11,44.18,27.8,4.03,10.47.73,22.2,1.49,33.39s9.66,24.01,20.46,21.01c6.7-1.86,10.36-8.88,13.22-15.22,11.58-25.67,21.86-58.43,3.32-79.63-9.38-10.72-23.84-15.17-37.53-19.15-15.19-4.41-88.34-35.51-98.68-22.53C187.06,463.42,244.29,494.54,255.68,498.84Z" fill="#f8f6f0"/><path d="M420.23,385.3c53.74-22.21,114.07,1.76,171.96,7.23,8.11.77,16.95,1.45,22.93,6.97,7.64,7.05,7.38,19.9,1.76,28.64s-15.26,14.05-24.97,17.76c-50.13,19.17-122.93,13.31-175.92,12.12-23.85-.54-37.13,8.81-39.77-21.56C374.2,413.18,401.83,392.9,420.23,385.3Z" fill="#f8f6f0"/><path d="M22.31,455.46a378.207,378.207,0,0,1,111.11.17c8.6,1.29,17.91,2.77,25.58-1.34,11.16-5.99,13.63-21.85,8.64-33.49s-15.35-19.96-25.43-27.65C121.05,377,63.64,330.48,34.82,349.02,14.96,361.8,24.64,455.12,22.31,455.46Z" fill="#f8f6f0"/><path d="M110.36,313.88c4.7,37.78,40.9,62.36,73.61,81.85,10.07,6,21.27,12.23,32.82,10.26,15.35-2.61,25.05-19.93,23.24-35.39s-12.5-28.62-24.92-38c-6.52-4.92-14.08-9.66-16.64-17.42-1.73-5.24-.84-11.14-2.98-16.23-4.01-9.52-16.16-11.92-26.43-13-12.33-1.3-25.09-2.55-36.89,1.27s-22.42,14.18-22.45,26.58" fill="#f8f6f0"/><path d="M272.2,405.46c-.42,6.73-1.62,14.62,3.3,19.22a16.761,16.761,0,0,0,6.89,3.43c23.72,7.03,51.15-.69,67.73-19.05,8.88-9.83,15.13-22.62,26.72-29.05,10.02-5.55,22.61-5.43,32.13-11.81,15.34-10.3,15.94-34.22,5.64-49.56s-28.08-23.76-45.51-29.92c-30.95-10.94-149.75-47.92-156.18-10.7C205.86,318.92,275.14,358.73,272.2,405.46Z" fill="#f8f6f0"/><path d="M444.37,335.14a269.77,269.77,0,0,1,127.14,19.82c23.87,10,52.94,23,73.37,7.12,4.48-21.09-10.98-41.8-29.45-52.93s-40.06-15.83-59.46-25.24c-21.13-10.26-39.47-26.02-61.48-34.2C416.15,220.57,448.61,293.02,444.37,335.14Z" fill="#f8f6f0"/><path d="M688.2,428.32c.21,3.16.49,6.53,2.43,9.03,4.63,6,13.94,2.89,21.29,1.08,20.65-5.09,41.58,5.1,61.06,13.64s42.8,15.49,61.19,4.8c23.91-13.89,23.87-51.13,6.7-72.8s-45.08-31.34-71.71-38.82C700.3,325.89,683.84,362.17,688.2,428.32Z" fill="#f8f6f0"/><path d="M878.49,432.67c-3.96,16.28,1.94,36.29,17.4,42.77,7.86,3.29,16.72,2.65,25.22,3.27,20.34,1.47,39.31,10.34,57.6,19.35,9.29,4.57,18.8,9.3,29.1,10.33s21.74-2.45,27.28-11.2c7.81-12.33.8-29.05-9.61-39.28s-23.97-17.07-33.37-28.23c-6.31-7.48-10.49-16.62-17.2-23.74C941.5,370.5,889.27,388.36,878.49,432.67Z" fill="#f8f6f0"/><path d="M1019.88,431.64c14.37,16.91,30.95,35.22,30.48,57.41-.11,5.09-1.13,10.3.3,15.19,2.41,8.25,10.81,12.9,17.39,18.43,28.41,23.89,25.02,67.33,26.73,104.41.45,9.8,2.61,21.34,11.54,25.41,11.03,5.02,22.76-5.21,29.87-15.02a220.94,220.94,0,0,0,41.49-118.87c.39-8.77.3-17.79,3.5-25.96,4.23-10.83,13.91-19.27,16.25-30.67,4.5-21.96-19.16-38.36-39.3-48.19q-30.285-14.76-60.57-29.53C1041.89,357.1,950.58,350.09,1019.88,431.64Z" fill="#f8f6f0"/><path d="M1212.69,585.64c-.91,28.9-4,61.34-26.25,79.81-13.59,11.28-33.85,16.99-39.57,33.7-6.92,20.25,13.86,39.92,34.48,45.65s43.42,4.28,62.27,14.42c8.98,4.83,16.54,12.06,25.66,16.63,12.31,6.15,26.77,7.01,40.33,4.62,31.09-5.47,58.5-28.39,69.39-58.02s4.84-64.85-15.3-89.14c-6.94-8.37-15.45-15.59-20.7-25.12-7.25-13.17-7.34-28.96-11.13-43.5-7.63-29.3-44.4-68.23-78.37-63.99C1214.48,505.56,1213.74,552.22,1212.69,585.64Z" fill="#f8f6f0"/><path d="M1273.01,919.8c-11.48,16.97-30.32,27.49-43.73,42.99s-19.7,41.6-4.32,55.14c10.68,9.4,26.7,8.37,40.24,12.76,14.67,4.76,26.51,16.04,41.12,20.99,25.83,8.76,56.09-5.6,69.51-29.35s11.48-54.21-.74-78.59c-7.09-14.13-17.4-26.79-21.82-41.97-3.53-12.14-3.05-25.18-6.72-37.29-6.04-19.93-32.52-48.13-53.24-31.31C1274.76,848.24,1288.14,897.44,1273.01,919.8Z" fill="#f8f6f0"/><path d="M44.8,261.12c10.4-16.4,29.35-24.8,45.03-36.27a125.188,125.188,0,0,0,35.25-39.81c1.19-2.12,2.35-4.43,2.17-6.85-.18-2.51-1.75-4.69-3.44-6.57-19.24-21.42-56.65-16.64-77.12,3.59s-27.21,50.61-28.55,79.37c-.89,19.11,1.05,42.88,21.91,46.51C39.77,290.86,37.97,271.88,44.8,261.12Z" fill="#f8f6f0"/><path d="M157.54,214.9c-18.97,7.82-38.23,15.8-54.23,28.65S74.74,275,73.97,295.51A144.159,144.159,0,0,1,155.61,272c13.48.28,29.47,1.43,37.73-9.22,8.17-10.54,2.56-27-8.16-34.94s-24.67-9.62-37.93-11.04" fill="#f8f6f0"/><path d="M170.77,181.42c11.9,8.44,26.62,12.89,36.94,23.2,5.77,5.77,10.19,13.36,17.63,16.71,6.3,2.84,13.54,2.06,20.43,1.59a197.974,197.974,0,0,1,89.67,14.87c20.05,8.41,45.7,19.26,60.93,3.75,12.93-13.17,8.35-37.91,22.75-49.47,3.79-3.04,8.49-4.74,12.35-7.68,11.2-8.53,12.36-26.04,5.49-38.32S417.18,126.03,404,121.1c-23.17-8.65-48.32-10.16-73.04-10.88q-60.27-1.74-120.53,2.16C175.27,114.64,124.1,148.32,170.77,181.42Z" fill="#f8f6f0"/><path d="M484.68,195.95c-.59,4-1.18,8.08-.42,12.05,1.93,10.2,12.23,16.87,22.4,18.93s20.7.73,31.06,1.47c32.99,2.34,60.71,24.97,84.43,48.02,9.39,9.12,19.37,18.92,32.22,21.39,18.14,3.49,36.67-10.09,42.73-27.54s1.63-37.18-7.57-53.2-22.72-29.05-36.05-41.84c-21.92-21.03-44.06-42.22-69.94-58.13-15.5-9.52-63.47-35.68-81.55-22.98C487.6,104.24,487.31,178.09,484.68,195.95Z" fill="#f8f6f0"/><path d="M717.9,278.97c-3.22,4.49-6.56,9.33-6.84,14.85-.49,9.51,8.55,17.19,17.84,19.28s18.94.23,28.45-.25a98.523,98.523,0,0,1,66.36,21.68c10.1,8.2,19.52,18.89,32.4,20.69,19.7,2.75,36.15-18.58,35.59-38.46s-12.79-37.38-25.51-52.67c-13.94-16.74-29.38-32.73-48.39-43.36C761.39,189.22,746.75,238.7,717.9,278.97Z" fill="#f8f6f0"/><path d="M654.49,86.19c-13.08,16.05-2.11,40.53,12.7,55s34.05,26.47,40.36,46.19c27.02,4.45,57.41-14.46,60.43-41.68,2.83-25.5-17.84-48.88-41.86-57.92s-50.57-7.11-76.15-5.05" fill="#f8f6f0"/><path d="M1227.38,1074.27c-13.62,13.58-4.46,36.37-5.47,55.57-1.62,30.85-31.71,58.35-23.07,88.01,18.2,8.28,41.46,3.59,55.03-11.09,5.36-5.8,10.15-13.45,17.96-14.57,10.37-1.5,19.14,9.65,29.6,8.97,5.42-.36,10.06-3.85,14.27-7.3a374.077,374.077,0,0,0,33.87-31.42c11.19-11.74,22.3-26.37,20.1-42.43-2.39-17.46-19.4-28.82-35.54-35.89C1310.29,1073.68,1249.62,1052.09,1227.38,1074.27Z" fill="#f8f6f0"/><path d="M1191.69,1261.45c-8.16.17-16.94-1.91-24.07,2.07-6.56,3.67-9.58,11.34-12.1,18.42q-12.39,34.68-24.77,69.37a50.03,50.03,0,0,0,32.67-2.35h243.62c4.45-22.76-16.52-43.9-35.72-56.92-28.1-19.06-50.34-57.28-81.42-63.68C1251.98,1220.56,1227.93,1260.7,1191.69,1261.45Z" fill="#f8f6f0"/><path d="M831.96,172.38c5.73,3.53,12.47,4.9,18.84,7.06a78.4,78.4,0,0,1,49.63,53.14c4.6,17.33,3.04,35.68,5.87,53.39s12,36.44,29.03,42.04c16.28,5.35,33.46-2.93,50.02-7.32,60.24-15.96,123.7,20.31,185.27,10.65,4.81-.76,9.84-1.91,13.43-5.2,3.67-3.36,5.26-8.4,6.22-13.29,5.94-30.36-8.78-63.69-35.23-79.75-18.55-11.26-42.53-15.16-55.74-32.38-11.07-14.43-11.29-34.16-17.27-51.33-10.8-31.02-40.53-52.4-72.02-61.75s-64.96-8.54-97.79-7.66c-24.07.65-71.12-.58-88.27,20.43C810.11,117.38,811.38,159.72,831.96,172.38Z" fill="#f8f6f0"/><path d="M1185.19,388.69c.89,16.07,17.74,25.54,28.07,37.88a53.588,53.588,0,0,1,10.93,45.81q39.3,2.01,78.61,4.01c3.38.17,6.99.29,9.88-1.47,4.95-3.01,5.52-9.89,5.2-15.68-1.97-35.35-20.1-87.92-52.92-107C1241.19,338.41,1183.05,349.96,1185.19,388.69Z" fill="#f8f6f0"/><path d="M46.1,129.83c11.99-7.35,27.7-11.72,39.88-4.68,4.67,2.7,8.45,6.89,13.44,8.93,10.36,4.23,22.25-2.3,29.35-10.96s11.29-19.4,18.37-28.06c12.64-15.47,34.55-22.71,53.92-17.82-9.65-17.25-27.68-28.55-46.6-34.25s-38.93-6.48-58.68-7.21C11.02,32.63,3.74,83.12,11.68,151.39,24.14,145.61,34.24,137.09,46.1,129.83Z" fill="#f8f6f0"/><path d="M254.36,86.45c57.91-7.38,117.26-14.7,174.15-1.63,5.21,1.2,10.58,2.57,15.83,1.58,5.05-.95,9.43-3.98,13.57-7.02C472.06,69,486.94,52.76,481.03,36.24c-4.45-12.46-18.67-18.07-31.47-21.43C397.78,1.22,336.45-3.97,283.18,3.27,229.28,10.59,253.7,38.49,254.36,86.45Z" fill="#f8f6f0"/></g></svg>