<svg xmlns="http://www.w3.org/2000/svg" xmlns:xlink="http://www.w3.org/1999/xlink" viewBox="0 0 673.9064 959.74301"><defs><style>.cls-1,.cls-15{fill:none;}.cls-2{fill:#f4f4f5;}.cls-3{fill:url(#未命名漸層_58);}.cls-4{fill:#ddd;}.cls-5{fill:#e9e8e8;}.cls-6{fill:#313434;}.cls-7{fill:#fff;}.cls-8{clip-path:url(#clip-path);}.cls-9{fill:#333535;}.cls-10{fill:#b0ab9f;}.cls-11{fill:#231815;}.cls-12{fill:#c6c8c8;}.cls-13{fill:#d2d2d3;}.cls-14{fill:#070001;}.cls-15{stroke:#c0bebe;stroke-linecap:round;stroke-linejoin:round;stroke-width:0.25px;}.cls-16{fill:#1e2020;}.cls-17{clip-path:url(#clip-path-2);}.cls-18{fill:#e0e0df;}.cls-19{clip-path:url(#clip-path-3);}.cls-20{fill:#eaeaea;}</style><radialGradient id="未命名漸層_58" cx="307.92863" cy="836.173" fx="280.2827269931482" fy="825.7650613132688" r="406.3749" gradientTransform="translate(0 416.8996) scale(1 0.50142)" gradientUnits="userSpaceOnUse"><stop offset="0" stop-color="#9f9e9f"/><stop offset="0.99577" stop-color="#f6f7f5" stop-opacity="0"/></radialGradient><clipPath id="clip-path"><path class="cls-1" d="M423.81088,698.02477a75.29315,75.29315,0,0,1,15.95088,20.17312,506.95346,506.95346,0,0,0-7.84059-65.49093c5.48532,2.89035,8.88694,5.27326,12.866,10.16569-9.98154-38.86941-9.37616-79.639-12.07044-119.83393-.17648-2.62625-.32174-5.25941-.53086-7.88071-3.36354-42.23507-8.6817-74.19794-28.7432-111.06478-18.63893-24.064-27.2535-16.448-27.86574-16.39162-71.20151,6.51467-130.79867,17.01512-202.07446,11.44362-16.74812-1.30966-33.56366-2.81319-49.805-7.28276C103.96808,446.49083,91.512,485.44432,86.50221,525.40133a308.41714,308.41714,0,0,0,.709,84.09821c6.66816,44.34941,22.88708,90.03273,9.691,132.75545a94.46866,94.46866,0,0,0,16.04929-23.80881,329.63806,329.63806,0,0,1-3.44633,77.60628,43.59379,43.59379,0,0,0,14.37557-18.39163,117.32723,117.32723,0,0,1-6.6076,47.401,33.76657,33.76657,0,0,0,10.04873-12.285c1.76054,13.928-.26283,36.762-5.77062,49.57668-4.09808,9.5351-10.1656,18.497-11.22968,28.89117-3.66753,35.82673,46.7086,23.77617,64.13023,19.98864,2.90861-.63208,5.883-1.29086,8.41475-2.91607,2.76856-1.77853,4.78839-4.57491,6.55745-7.42471,11.31981-18.23039,14.787-49.98471,9.28627-70.94472,2.84284,6.2748,5.50258,8.39459,10.37732,13.111a160.96372,160.96372,0,0,0-14.65733-76.45885,62.19526,62.19526,0,0,1,18.22479,17.357A221.45779,221.45779,0,0,0,199.006,712.53a52.34555,52.34555,0,0,1,7.99081,6.54435q-3.27067-20.15829-6.54183-40.31657c-.76956-4.747-.98034-10.7953,3.06948-13.08919,3.70774-2.09951,8.10342.62664,11.709,2.91113,15.52719,9.84273,34.4075,12.61834,52.52015,11.26219,18.11241-1.35615,35.73039-6.576,53.19957-11.76716a4.96062,4.96062,0,0,0,2.19275-1.366c2.27225,19.14736.03809,39.271-7.11243,57.05728q5.4548-4.935,10.90983-9.86993-7.15632,25.89819-14.31146,51.79539a44.55325,44.55325,0,0,0,12.45771-11.47388,160.86484,160.86484,0,0,1-12.20529,55.92073,54.02543,54.02543,0,0,0,19.63426-24.33456,247.22864,247.22864,0,0,0,2.63727,91.62479c1.58737,7.2338,3.56556,14.53684,7.55861,20.6776,16.30739,25.07446,49.19825,18.6597,72.95519,12.89778,7.8335-1.90019,12.08061-11.44765,10.81828-19.75173-1.26233-8.3021-5.883-15.54282-9.35889-23.12431-12.0203-26.21943-10.38253-56.73382-8.48549-85.73974a58.18841,58.18841,0,0,0,18.44787,18.15522,170.5035,170.5035,0,0,1-8.96122-51.60695,54.91951,54.91951,0,0,0,23.95755,8.63149A127.12687,127.12687,0,0,1,423.81088,698.02477Z"/></clipPath><clipPath id="clip-path-2"><path class="cls-1" d="M172.3892,133.41592c3.31667-5.85859-.65416-12.97619-4.50738-18.51021l-36.5789-52.5348c-8.11687-11.6575-18.10431-24.444-32.44321-25.70753a6.11358,6.11358,0,0,0-4.19181.76633c-1.41405,1.04461-1.7648,2.94781-2.00977,4.667L88.77385,69.35588q-4.0047,28.10423-8.00939,56.20844c-.96854,6.79706-1.92822,13.79418-.23805,20.4542,2.19871,8.6639,8.567,15.6319,14.71844,22.215.51173-2.97315,2.20383-5.21686,4.44624-7.28034a7.20974,7.20974,0,0,0,2.25975,6.05333,20.85752,20.85752,0,0,1,3.32075-6.14616,11.075,11.075,0,0,0,2.399,4.13091,67.09628,67.09628,0,0,1,7.77852-13.5298,10.13235,10.13235,0,0,0,3.06432,6.69662,4.75359,4.75359,0,0,1,1.78-3.795c-.5271-.475-.75315.9901-.03973,1.04854s1.25008-.60337,1.90293-.89141,1.70954.40745,1.1983.89879a50.654,50.654,0,0,1,10.98285-18.83132A19.11294,19.11294,0,0,0,133.2283,148.97l2.76439-3.87764a4.26717,4.26717,0,0,1,.16879,2.85554,3.23605,3.23605,0,0,1,1.24984-2.12962c.74535-.4186,1.98381.16994,1.74579.97912a3.26817,3.26817,0,0,1,1.02684-2.45921c.76149-.5283,2.17207.12168,1.84834.97944a93.0336,93.0336,0,0,1,7.75383-11.9479l-.42622,7.10018,4.34563-4.9596.05268,4.4336a17.48152,17.48152,0,0,1,5.33515-5.04076l-.50683,3.95278,6.15143-8.21522a14.46851,14.46851,0,0,0,2.25358,5.218,13.43232,13.43232,0,0,1,1.00783-4.59152,4.56237,4.56237,0,0,0,4.85677,3.04919C172.45638,134.66355,172.789,133.06869,172.3892,133.41592Z"/></clipPath><clipPath id="clip-path-3"><path class="cls-1" d="M398.40618,179.04046A312.34471,312.34471,0,0,0,384.23757,16.5267c-16.22215,15.60006-32.80245,31.6927-42.19142,51.98011-7.56648,16.34941-11.08339,36.114-25.99113,46.54064,4.427-1.4489,6.80718-1.36846,10.74359-3.82669l-1.86,5.867a7.63952,7.63952,0,0,0,6.09274-.71421l.4088,6.15856a10.65649,10.65649,0,0,0,7.84054-6.24668,12.86343,12.86343,0,0,1,3.01548,12.71319,5.70439,5.70439,0,0,0,2.95167-2.78591l2.82824,4.96519,4.61085-5.23077,2.577,10.33409,3.16869-1.79231a6.0578,6.0578,0,0,1,.89967,4.97782c.2061-1.53687,2.89495-1.29448,3.47883.14605s-.19259,3.0347-.94961,4.39557a8.14794,8.14794,0,0,0,5.66487-6.49647,22.37212,22.37212,0,0,1,1.57075,15.53293l4.16781-4.836a6.84061,6.84061,0,0,1,1.21311,5.89841l5.45766-6.57484a30.271,30.271,0,0,1,1.76284,16.65364l2.589-4.01877a17.51481,17.51481,0,0,1,1.0537,6.6367,11.31782,11.31782,0,0,0,3.2499-8.845,14.45714,14.45714,0,0,1,1.27928,13.0773,6.61656,6.61656,0,0,0,2.76437-2.72041,60.96335,60.96335,0,0,1,3.79629,10.0217C396.50473,178.60616,398.33706,178.7707,398.40618,179.04046Z"/></clipPath></defs><title>shiba</title><g id="tail"><path class="cls-2" d="M673.44,631.02287l.01967-.11689c2.60413-15.53995-6.48131-30.31109-19.31185-12.068q2.5871-3.31237,5.46333-6.37693c-65.006,69.26247-128.25468,123.9947-225.78389,141.18112-31.84677,5.612-64.28075,6.85086-96.59493,8.07738l-67.81887,2.57415c69.731,35.18784,152.49674,46.3425,226.65594,21.827a299.56,299.56,0,0,0,109.68418-65.38482c20.9123-19.51283,43.21077-39.3937,58.69664-63.7154C668.43771,650.75785,671.838,640.50084,673.44,631.02287Z"/></g><g id="body"><ellipse class="cls-3" cx="267.87097" cy="854.64311" rx="267.87097" ry="105.0999"/><path class="cls-4" d="M274.145,818.7896c.62808,1.19238.91776,2.51481.08351,3.448-1.1957,1.33652-2.89814-2.32613-1.22485-1.78984.35711-.572.7738-1.09463,1.14134-1.6582a9.13126,9.13126,0,0,0-.93908-1.43178c-28.99661-36.17681-77.82869-52.12732-122.30769-44.02157-27.86006,5.07715-53.72539,18.88636-75.18762,38.23626a227.37781,227.37781,0,0,0,33.74376,45.5286c5.23083,5.44634,307.76635-1.18784,307.76635-1.18784,22.92587-16.79281,41.69179-40.32051,54.52136-66.81952-21.64969-13.62325-45.69123-22.72156-70.831-25.19477C353.99672,759.28333,300.63931,778.13672,274.145,818.7896Z"/><path class="cls-5" d="M274.22845,822.23767c.83438-.93326.54458-2.25568-.08351-3.44822-.36739.56374-.78423,1.08632-1.14121,1.65835C271.33048,819.91149,273.03283,823.57405,274.22845,822.23767Z"/><path class="cls-5" d="M481.20691,686.62844c-6.73322-10.58006-19.38633-18.25482-31.03-14.60457,1.281-8.37477,2.166-16.82784,2.71321-25.3138,4.31714,6.33271,10.02555,11.0189,16.52787,11.99238-7.37313-7.3509-12.96325-17.48858-15.95443-28.73884.00781-.99927.031-1.99782.02863-2.99709a92.96067,92.96067,0,0,0,26.3547,20.30067,179.64547,179.64547,0,0,1-27.28229-42.92444c-.0052-.06743-.009-.13509-.01443-.20251a25.21779,25.21779,0,0,0,14.43093,10.16986q-8.5807-16.54255-17.16093-33.08556c-.03951-.24792-.07381-.49656-.11379-.74424a68.227,68.227,0,0,0,25.0434,10.41493c-8.35158-1.586-25.23313-31.87337-34.18418-49.58031a262.69534,262.69534,0,0,0-23.02026-53.09619c1.4944,2.22753,2.307-3.67864.14785-5.19836-2.15869-1.51995-5.02779-.022-7.2099,1.46129-15.35686,10.44143-30.7783,20.92024-47.39323,28.98723-39.47741,19.168-84.24212,23.91213-127.66171,20.7-43.41982-3.21189-89.57958-12.85774-131.86884-23.63581a279.51936,279.51936,0,0,0-20.2122,57.40671C74.28814,584.4343,62.692,602.90843,56.219,604.13788A67.56256,67.56256,0,0,0,78.303,595.52039c-.26165,1.95264-.52,3.9048-.74165,5.86288q-6.78692,13.0845-13.5736,26.16947a24.19732,24.19732,0,0,0,12.03354-7.25462c-.035.74306-.03619,1.48731-.06529,2.23061a178.00723,178.00723,0,0,1-24.834,37.98087,92.29561,92.29561,0,0,0,24.71386-18.61654c.05725,1.99262.1611,3.98287.26023,5.97383a62.44568,62.44568,0,0,1-14.54519,24.078c5.99133-.89683,11.33069-4.92252,15.51157-10.50223q.51808,5.26246,1.23229,10.50223c-12.11351-1.951-23.86955,7.59031-28.6603,19.38278s-4.0503,25.19646-2.2079,37.86235a237.193,237.193,0,0,0,28.28416,82.38246c.92971-.83817,1.91313-1.60536,2.85917-2.42247-.15756.72272-.30352,1.44709-.40264,2.17809a18.34444,18.34444,0,0,1,6.54514,10.32079q6.23193-8.272,12.46339-16.5442a9.281,9.281,0,0,1,4.2,7.90707,74.67346,74.67346,0,0,1,9.61155-11.33566,15.79815,15.79815,0,0,1,4.37392,7.47983,90.14484,90.14484,0,0,1,12.10711-17.5049,19.29864,19.29864,0,0,1,4.67744,9.1668,20.82143,20.82143,0,0,1,7.69866-6.82454q1.7377,3.64719,3.47566,7.29484c.58362-2.04514,1.268-4.23506,3.12886-5.57569,1.86061-1.34064,5.27974-1.15848,6.10466.82207a8.22384,8.22384,0,0,1,4.55442-5.29843,22.96906,22.96906,0,0,1,6.46187,13.3439,81.14641,81.14641,0,0,0,16.94566-25.80468,37.03171,37.03171,0,0,1,2.57765,13.35549,14.34386,14.34386,0,0,1,7.58274-6.78811q1.53367,5.47219,3.06711,10.94438a10.38736,10.38736,0,0,1,7.98064-6.521,20.42258,20.42258,0,0,1,2.28053,9.30282,38.60158,38.60158,0,0,1,9.66407-8.43391,27.86569,27.86569,0,0,1,5.96105,19.65248q8.987-9.95683,17.97426-19.91341a81.1115,81.1115,0,0,1,1.5429,18.82093,23.24711,23.24711,0,0,1,7.32937-8.19521q.99218,5.92214,1.98481,11.84452a119.49544,119.49544,0,0,0,7.76774-12.58877A116.71388,116.71388,0,0,1,273.206,817.35774a9.129,9.129,0,0,1,.93894,1.43171A106.95533,106.95533,0,0,1,290.264,799.6191c-.07949.43079-.18.85875-.23893,1.29238a18.34434,18.34434,0,0,1,6.54514,10.32078q6.23159-8.272,12.46339-16.544a9.28037,9.28037,0,0,1,4.2,7.90684,74.674,74.674,0,0,1,9.61155-11.33567,15.7982,15.7982,0,0,1,4.37392,7.47983,90.13537,90.13537,0,0,1,12.10711-17.5049,19.29864,19.29864,0,0,1,4.67744,9.1668,20.82141,20.82141,0,0,1,7.69866-6.82453q1.73771,3.64717,3.47566,7.29483c.58362-2.04514,1.26778-4.23482,3.12863-5.57569,1.86085-1.34063,5.28-1.15847,6.10489.82208a8.22381,8.22381,0,0,1,4.55442-5.29843,22.969,22.969,0,0,1,6.46187,13.3439,81.14652,81.14652,0,0,0,16.94566-25.80468,37.0317,37.0317,0,0,1,2.57765,13.35548,14.34388,14.34388,0,0,1,7.58274-6.7881q1.53331,5.4722,3.06711,10.94462a10.3872,10.3872,0,0,1,7.98041-6.52126,20.42,20.42,0,0,1,2.28076,9.30283,38.59734,38.59734,0,0,1,9.66407-8.43391,27.86571,27.86571,0,0,1,5.96106,19.65247q8.987-9.95682,17.97425-19.91341a81.11158,81.11158,0,0,1,1.5429,18.82094,23.24724,23.24724,0,0,1,7.32937-8.19522q.99217,5.92215,1.98458,11.84453a119.18016,119.18016,0,0,0,8.96666-14.79477c.81475.49584,1.64889.95242,2.457,1.46081a191.021,191.021,0,0,0,15.605-46.43584C491.043,723.742,491.43662,702.70258,481.20691,686.62844Z"/><path class="cls-6" d="M388.78605,415.90718c.23345.42932.46172.86768.69517,1.29791a1.59709,1.59709,0,0,0,.92-1.06743C390.61909,414.9925,388.23268,414.89217,388.78605,415.90718Z"/><path class="cls-7" d="M423.81088,698.02477a75.29315,75.29315,0,0,1,15.95088,20.17312,506.95346,506.95346,0,0,0-7.84059-65.49093c5.48532,2.89035,8.88694,5.27326,12.866,10.16569-9.98154-38.86941-9.37616-79.639-12.07044-119.83393-.17648-2.62625-.32174-5.25941-.53086-7.88071-3.36354-42.23507-8.6817-74.19794-28.7432-111.06478-18.63893-24.064-27.2535-16.448-27.86574-16.39162-71.20151,6.51467-130.79867,17.01512-202.07446,11.44362-16.74812-1.30966-33.56366-2.81319-49.805-7.28276C103.96808,446.49083,91.512,485.44432,86.50221,525.40133a308.41714,308.41714,0,0,0,.709,84.09821c6.66816,44.34941,22.88708,90.03273,9.691,132.75545a94.46866,94.46866,0,0,0,16.04929-23.80881,329.63806,329.63806,0,0,1-3.44633,77.60628,43.59379,43.59379,0,0,0,14.37557-18.39163,117.32723,117.32723,0,0,1-6.6076,47.401,33.76657,33.76657,0,0,0,10.04873-12.285c1.76054,13.928-.26283,36.762-5.77062,49.57668-4.09808,9.5351-10.1656,18.497-11.22968,28.89117-3.66753,35.82673,46.7086,23.77617,64.13023,19.98864,2.90861-.63208,5.883-1.29086,8.41475-2.91607,2.76856-1.77853,4.78839-4.57491,6.55745-7.42471,11.31981-18.23039,14.787-49.98471,9.28627-70.94472,2.84284,6.2748,5.50258,8.39459,10.37732,13.111a160.96372,160.96372,0,0,0-14.65733-76.45885,62.19526,62.19526,0,0,1,18.22479,17.357A221.45779,221.45779,0,0,0,199.006,712.53a52.34555,52.34555,0,0,1,7.99081,6.54435q-3.27067-20.15829-6.54183-40.31657c-.76956-4.747-.98034-10.7953,3.06948-13.08919,3.70774-2.09951,8.10342.62664,11.709,2.91113,15.52719,9.84273,34.4075,12.61834,52.52015,11.26219,18.11241-1.35615,35.73039-6.576,53.19957-11.76716a4.96062,4.96062,0,0,0,2.19275-1.366c2.27225,19.14736.03809,39.271-7.11243,57.05728q5.4548-4.935,10.90983-9.86993-7.15632,25.89819-14.31146,51.79539a44.55325,44.55325,0,0,0,12.45771-11.47388,160.86484,160.86484,0,0,1-12.20529,55.92073,54.02543,54.02543,0,0,0,19.63426-24.33456,247.22864,247.22864,0,0,0,2.63727,91.62479c1.58737,7.2338,3.56556,14.53684,7.55861,20.6776,16.30739,25.07446,49.19825,18.6597,72.95519,12.89778,7.8335-1.90019,12.08061-11.44765,10.81828-19.75173-1.26233-8.3021-5.883-15.54282-9.35889-23.12431-12.0203-26.21943-10.38253-56.73382-8.48549-85.73974a58.18841,58.18841,0,0,0,18.44787,18.15522,170.5035,170.5035,0,0,1-8.96122-51.60695,54.91951,54.91951,0,0,0,23.95755,8.63149A127.12687,127.12687,0,0,1,423.81088,698.02477Z"/><path class="cls-6" d="M388.78605,415.90718c.23345.42932.46172.86768.69517,1.29791a1.59709,1.59709,0,0,0,.92-1.06743C390.61909,414.9925,388.23268,414.89217,388.78605,415.90718Z"/><path class="cls-7" d="M423.81088,698.02477a75.29315,75.29315,0,0,1,15.95088,20.17312,506.95346,506.95346,0,0,0-7.84059-65.49093c5.48532,2.89035,8.88694,5.27326,12.866,10.16569-9.98154-38.86941-9.37616-79.639-12.07044-119.83393-.17648-2.62625-.32174-5.25941-.53086-7.88071-3.36354-42.23507-8.6817-74.19794-28.7432-111.06478-18.63893-24.064-27.2535-16.448-27.86574-16.39162-71.20151,6.51467-130.79867,17.01512-202.07446,11.44362-16.74812-1.30966-33.56366-2.81319-49.805-7.28276C103.96808,446.49083,91.512,485.44432,86.50221,525.40133a308.41714,308.41714,0,0,0,.709,84.09821c6.66816,44.34941,22.88708,90.03273,9.691,132.75545a94.46866,94.46866,0,0,0,16.04929-23.80881,329.63806,329.63806,0,0,1-3.44633,77.60628,43.59379,43.59379,0,0,0,14.37557-18.39163,117.32723,117.32723,0,0,1-6.6076,47.401,33.76657,33.76657,0,0,0,10.04873-12.285c1.76054,13.928-.26283,36.762-5.77062,49.57668-4.09808,9.5351-10.1656,18.497-11.22968,28.89117-3.66753,35.82673,46.7086,23.77617,64.13023,19.98864,2.90861-.63208,5.883-1.29086,8.41475-2.91607,2.76856-1.77853,4.78839-4.57491,6.55745-7.42471,11.31981-18.23039,14.787-49.98471,9.28627-70.94472,2.84284,6.2748,5.50258,8.39459,10.37732,13.111a160.96372,160.96372,0,0,0-14.65733-76.45885,62.19526,62.19526,0,0,1,18.22479,17.357A221.45779,221.45779,0,0,0,199.006,712.53a52.34555,52.34555,0,0,1,7.99081,6.54435q-3.27067-20.15829-6.54183-40.31657c-.76956-4.747-.98034-10.7953,3.06948-13.08919,3.70774-2.09951,8.10342.62664,11.709,2.91113,15.52719,9.84273,34.4075,12.61834,52.52015,11.26219,18.11241-1.35615,35.73039-6.576,53.19957-11.76716a4.96062,4.96062,0,0,0,2.19275-1.366c2.27225,19.14736.03809,39.271-7.11243,57.05728q5.4548-4.935,10.90983-9.86993-7.15632,25.89819-14.31146,51.79539a44.55325,44.55325,0,0,0,12.45771-11.47388,160.86484,160.86484,0,0,1-12.20529,55.92073,54.02543,54.02543,0,0,0,19.63426-24.33456,247.22864,247.22864,0,0,0,2.63727,91.62479c1.58737,7.2338,3.56556,14.53684,7.55861,20.6776,16.30739,25.07446,49.19825,18.6597,72.95519,12.89778,7.8335-1.90019,12.08061-11.44765,10.81828-19.75173-1.26233-8.3021-5.883-15.54282-9.35889-23.12431-12.0203-26.21943-10.38253-56.73382-8.48549-85.73974a58.18841,58.18841,0,0,0,18.44787,18.15522,170.5035,170.5035,0,0,1-8.96122-51.60695,54.91951,54.91951,0,0,0,23.95755,8.63149A127.12687,127.12687,0,0,1,423.81088,698.02477Z"/><g class="cls-8"><path class="cls-2" d="M147.85518,622.20326a75.69412,75.69412,0,0,0-23.94181,30.31409,139.23217,139.23217,0,0,1,9.13193-48.55652l-15.58809,20.29333a396.43756,396.43756,0,0,1,15.61348-86.5278,100.452,100.452,0,0,0-20.76789,36.35657,230.48741,230.48741,0,0,1,47.82453-108.52409l-26.29365,15.3754,33.93674-70.37565c9.81945-20.36289,19.65814-44.57781,9.13771-64.58755C121.97561,369.5201,87.64611,427.19983,76.767,485.96873s-1.92821,119.22551,8.07391,178.15c4.28424,25.23931,6.35123,53.865,15.47218,77.43052C129.65845,717.94264,114.98212,646.82525,147.85518,622.20326Z"/><path class="cls-2" d="M382.067,628.42572a75.694,75.694,0,0,1,23.94181,30.31409,139.23171,139.23171,0,0,0-9.13193-48.55652l15.5881,20.29333a396.43756,396.43756,0,0,0-15.61348-86.5278,100.452,100.452,0,0,1,20.76789,36.35657A230.48737,230.48737,0,0,0,369.79485,471.7813l26.29366,15.3754-33.93674-70.37565c-9.81945-20.36288-19.65814-44.57781-9.13771-64.58755,54.93252,23.54906,89.262,81.22879,100.14111,139.99769s1.92821,119.22551-8.07391,178.15c-4.28424,25.23931-6.35123,53.865-15.47218,77.43052C400.26374,724.1651,414.94007,653.04771,382.067,628.42572Z"/></g><path class="cls-7" d="M425.175,270.25209a28.74572,28.74572,0,0,0-4.00147-10.187c1.83127.93118,3.39646-2.01217,2.61824-3.88513s-2.59451-3.301-2.92887-5.2966c-.33415-1.99564,2.77272-4.02618,3.61362-2.17955a30.99384,30.99384,0,0,0-9.62728-27.31639c1.26685-.54091-2.09568-3.066-.829-3.60693l5.86106-43.10678c1.86312-13.70208,3.73-27.4705,3.40958-41.29015-.37141-16.02553-3.67607-31.8298-6.96844-47.531Q410.46631,57.92371,404.61,29.99508c-1.7103-8.15626-3.56822-16.63461-8.80637-23.189s-17.99624-9.881-22.7722-2.9956C368.66,10.113,361.76029,14.17632,355.52281,18.72524A108.66324,108.66324,0,0,0,312.647,87.88045c-1.905,11.49253-4.11078,26.05863-15.57578,29.09485-.05038-.0547-.15552-.15839-.22277-.2282q.51591-1.75713,1.032-3.514a17.43851,17.43851,0,0,0-2.83248,1.7362c-.41534-.40129-.83027-4.96735.08557-6.589a22.32109,22.32109,0,0,0-7.81058,4.167q.38162-1.13132.76344-2.26242a20.93948,20.93948,0,0,0-6.15857,3.86534,14.75147,14.75147,0,0,1,1.569-3.868q-4.23559,3.02958-8.20178,6.40106l.10868-3.44016a16.556,16.556,0,0,0-4.65188,3.62366,3.20878,3.20878,0,0,0-.85109-1.79111q-.40973,1.15305-.81945,2.30589-.40161-1.01711-.803-2.03442-1.10583,1.29664-2.21164,2.59288a2.74543,2.74543,0,0,1-.81716-2.31467,8.563,8.563,0,0,0-3.48141,4.2799,3.45493,3.45493,0,0,1-.94791-1.84643,6.03427,6.03427,0,0,0-1.98075,2.31773,5.60374,5.60374,0,0,1-2.1319-2.54287q-1.00026,1.37074-2.089,2.67657a3.94475,3.94475,0,0,0-1.05679-1.26572,3.8468,3.8468,0,0,0-.748,1.30144q-.39693-.6246-.794-1.24919a1.90135,1.90135,0,0,0-.42368,1.36574,3.28144,3.28144,0,0,1-.9427-1.34676,2.02687,2.02687,0,0,1-.58523,1.31206q-1.07989-2.72985-2.15938-5.45969a14.92848,14.92848,0,0,1-2.82581,7.4243,1.03308,1.03308,0,0,0-.40494-1.14019,2.82926,2.82926,0,0,1-.26107,1.49086,2.06045,2.06045,0,0,0-.823-1.797l-.79759,1.58475a3.46362,3.46362,0,0,0-.59043-1.81214,6.90436,6.90436,0,0,0-1.10468,2.00911,6.82748,6.82748,0,0,1-.76719-3.64448,25.54368,25.54368,0,0,0-4.844,5.58011q-.19362-1.18949-.38745-2.379-.70764,1.05293-1.4155,2.10606a13.61725,13.61725,0,0,1-.17634-2.90212,5.03814,5.03814,0,0,0-2.46585,2.14485c-1.15713-.79136-2.23974-1.5623-2.37319-2.93926q.1171-.14421.234-.28862a20.59522,20.59522,0,0,0-3.02589,3.4273q-.49029-.47672-.98059-.95363-.3051.45651-.61021.91322a3.63488,3.63488,0,0,0-1.30579-1.31839,1.61073,1.61073,0,0,0-.30126,1.111l-.97122-1.02324q-.06307.48438-.12637.96915-.69423-.876-1.38865-1.75152-.19269.50059-.38537,1.00139-.7214-.81473-1.44257-1.62946-.24984,1.31135-.49987,2.62248a14.90308,14.90308,0,0,1-4.9217-9.16132,13.29811,13.29811,0,0,0-3.29487,5.19127q-.46437-1.00731-.92854-2.01441-.47811,1.11447-.956,2.22914a5.117,5.117,0,0,1-.69745-3.216,14.95138,14.95138,0,0,0-1.9414,3.244,9.14471,9.14471,0,0,1-1.77881-4.36155,20.35529,20.35529,0,0,0-1.86916,4.38114l-1.708-1.52576a2.24252,2.24252,0,0,1-.50424,1.95093,4.82806,4.82806,0,0,1-1.42321-2.07851q-.386.76881-.772,1.538a7.04166,7.04166,0,0,1-2.22767-4.2105,16.22391,16.22391,0,0,1-.96207,4.76263c-1.20793-1.02527-1.80212-1.59027-.462-1.13672a438.51193,438.51193,0,0,0-60.93238-82.82545c-6.34286-6.783-13.05752-13.48432-21.37816-17.75006C84.15918,5.1823,77.39577,42.29486,74.88583,59.80281c-3.38825,23.63449-2.46393,47.93991-8.99823,71.09747-4.4683,15.83563,7.683,31.164,11.29018,47.2095,2.43773,10.84406.90376,22.14962,1.97409,33.20432.996,10.28824,4.8865,23.69334,13.727,29.21936,1.11633-.93342,2.53767-1.53556,3.68149-.7736,1.47859.98527-1.30829,3.60652-1.62953,1.88256a16.88634,16.88634,0,0,1-2.052-1.109,7.42622,7.42622,0,0,0-.89.87668,21.64539,21.64539,0,0,0-4.94875,16.51316q4.04539-2.09546,8.09081-4.19029a5.92778,5.92778,0,0,1,1.89331-.98057q-.94655.49018-1.89331.98057a6.832,6.832,0,0,0-2.19727,8.379l5.88354-1.79173-6.77919,14.37q1.37313,10.2066,2.74628,20.4134-2.10546,5.80444-4.21113,11.60867,4.68715,5.53532,9.37453,11.07062-.64612,4.12507-1.29225,8.25036c4.40495,2.181,5.90478,10.2017,3.13331,14.205q3.68409,8.63012,7.368,17.26-2.6885,5.18536-5.377,10.37092l5.52316-1.42187a7.19253,7.19253,0,0,0-1.4384,7.82926,5.80075,5.80075,0,0,1,5.73156-1.64885q-1.78943,4.03047-3.57884,8.06114c3.81743.497,4.62564,6.87054,1.04867,8.26893a39.43748,39.43748,0,0,1,17.1035,34.13243c-.09348-1.44718,2.318-1.77968,3.30653-.70114.98871,1.07855,1.02744,2.668,1.377,4.077,1.30329,5.24965,6.9724,8.06869,12.03171,10.21027Q166.11,445.662,187.33563,454.64672a17.23266,17.23266,0,0,1,13.122,6.023q.05839-2.62452.117-5.24822a17.93757,17.93757,0,0,0,12.38084,4.947q.60147-2.16771,1.20315-4.33542a72.82518,72.82518,0,0,0,19.977,6.8338q-1.91933-2.73229-3.83867-5.46377c1.37179,2.76944,10.61974,6.90809,13.568,7.96867a8.14933,8.14933,0,0,0,3.39792-5.04165c1.72405,5.16086,13.01438-5.903,13.71662-.51683l12.26926-1.24673q2.32187,1.29571,4.64333,2.58982.47937-2.65637.95894-5.31273,3.69252-.62459,7.385-1.25a2.81569,2.81569,0,0,0,1.97326-2.54492c-.2592-.08327-.549-.16819-.78323-.25065.5336-.33965.76178-.14288.78323.25065,4.34687,1.39861,11.93427,2.93029,15.632,4.83265a9.99379,9.99379,0,0,0,2.87245-7.9401q8.39154,1.14631,16.78289,2.29426.36257-3.1193.72555-6.23859,7.18112-.80831,14.36222-1.61742a6.167,6.167,0,0,1,2.89764-5.88261q9.25284,1.03119,18.50569,2.06075.64425-4.93429,1.28872-9.86817c3.92507,1.09732,7.74583-4.28745,5.33162-7.51391a10.81948,10.81948,0,0,1,6.50251.76829,21.19334,21.19334,0,0,1,2.99715-10.15986q3.07106,1.601,6.14171,3.20156c-1.34618-1.64313-2.7671-3.50753-2.61283-5.60971.15448-2.10219,2.92761-3.91862,4.5053-2.487q.331-3.92973.66185-7.85968a4.3641,4.3641,0,0,0,4.78616,1.349q2.96425-3.79654,5.9281-7.5929,2.84028,1.96962,5.68077,3.939a26.64509,26.64509,0,0,0-.97893-13.69024.85456.85456,0,0,1-.30563-.99752c.12554.325.19321.66807.30563.99752a2.32012,2.32012,0,0,0,3.1077-.62643c.79426-1.478.34956-3.33423.97393-4.88858.62458-1.55413,3.57468-2.03135,3.6286-.36169a50.06446,50.06446,0,0,1-1.03284-11.53213,17.63376,17.63376,0,0,1-5.13322,1.49862c-.49383-2.64064,2.72046-5.167,5.24189-4.11966-.06745.87218-.08723,1.74682-.10867,2.621,4.8686-1.97747,11.00718-5.228,14.00663-5.33231q-2.96613-6.30778-5.93248-12.61558a5.73717,5.73717,0,0,0,5.76717-1.56618q-2.537-5.35741-5.07409-10.715l5.26521,3.88963q-3.20909-8.0144-6.41777-16.02839,3.052,1.74763,6.10423,3.49548a32.95835,32.95835,0,0,1-.09681-27.8822l-5.54627-10.02779a6.90431,6.90431,0,0,0,5.8848,1.45963q-2.02552-4.87734-4.05062-9.75469c2.26661,2.32855,6.63367-.545,6.66136-3.76389.0279-3.2187-2.44481-5.86629-4.75826-8.15034Q421.93256,270.03348,425.175,270.25209Z"/><path class="cls-2" d="M406.57892,366.5059c4.86839-1.97748,10.91954-5.286,13.91919-5.39029-1.97742-4.205-3.93486-8.68-5.9127-12.88521a5.73734,5.73734,0,0,0,5.76738-1.56638q-.86442-1.82541-1.72884-3.651c-.60293.29474-1.21439.59908-1.82461.90219a12.36043,12.36043,0,0,0-2.67861-4.3199,11.3288,11.3288,0,0,1-1.0774,6.20532l-.25671.13063a12.32569,12.32569,0,0,0-.31479-3.57406,32.48413,32.48413,0,0,1-2.40359,4.4489,8.38907,8.38907,0,0,0-1.36783-4.21519l-1.34722,3.4818a3.22041,3.22041,0,0,1-.85359,1.41248,1.15064,1.15064,0,0,1-1.52835.0049,2.09819,2.09819,0,0,1-.39328,1.08978,1.12689,1.12689,0,0,0-.767-1.01609,3.27378,3.27378,0,0,1-1.15943,2.55206c-.47635-.55459-1.21419-.36353-1.79963-.80646a1.33067,1.33067,0,0,1-.40972,1.36267,2.94667,2.94667,0,0,1-1.28622-.62643,2.06568,2.06568,0,0,0-.54963,1.39656l-1.57373-1.65436a3.945,3.945,0,0,1-1.7557,3.60775l-3.90675-6.04632a11.80647,11.80647,0,0,1-.992,7.78008q-.50529-.75778-1.01036-1.51536-.514.83065-1.02806,1.6615l-.7164-1.616a6.42953,6.42953,0,0,0-1.42154,1.98319,42.3225,42.3225,0,0,0-4.16616-5.9859A24.8918,24.8918,0,0,1,379.89,359.8899a4.65143,4.65143,0,0,1-1.73862-1.6315l-.05747,1.55148q-1.55364-1.52505-3.10687-3.0503c.00521,1.55066-.90585,2.65942-1.30849,4.12681A6.31108,6.31108,0,0,0,371.526,357.456a14.41133,14.41133,0,0,1-.81591,4.4634l-1.11571-.923a1.71658,1.71658,0,0,1-.45032.901,1.85455,1.85455,0,0,0-.72139-1.26164q-.30324.861-.60626,1.72172a4.65683,4.65683,0,0,0-1.45923-1.77132,6.68965,6.68965,0,0,1-1.86021,3.22217,12.19765,12.19765,0,0,0-2.16625-8.34812q-1.35472,3.36729-2.70943,6.73479-.29386-.9577-.58752-1.91562a.75107.75107,0,0,0-.67205.92281l-1.32911-2.02565q-.26794,1.00762-.53631,2.01524a7.0421,7.0421,0,0,0-1.66867-2.69392,10.18782,10.18782,0,0,1-1.61454,3.78818,32.864,32.864,0,0,0-3.55073-15.77957.9597.9597,0,0,1-.51528-.30924,43.75378,43.75378,0,0,1,1.88665,15.12457q-.55464-1.20542-1.10905-2.41061a20.25346,20.25346,0,0,0-.70265,3.44527,11.64656,11.64656,0,0,1-1.3745-4.45952,6.745,6.745,0,0,0-.9683,3.23523,12.42906,12.42906,0,0,1-1.31641-8.20585,17.57244,17.57244,0,0,0-4.26318,6.84379,5.57565,5.57565,0,0,0-1.84855-3.48058q-.24077.872-.48155,1.74417a8.07231,8.07231,0,0,1-.99766-2.72188q-.58524,1.30766-1.17067,2.61513-2.24755-9.15949-4.4949-18.319a66.02275,66.02275,0,0,1-2.18083,10.77139,18.86258,18.86258,0,0,1-3.73582,7.606q.87129.80218,1.74674,1.60762c-30.45224,19.11768-74.00131,11.6946-112.86956,15.76385a47.93252,47.93252,0,0,1-29.29115-6.43066,10.27038,10.27038,0,0,1-4.3525,8.31649q-6.28045-9.86921-12.56051-19.7384c-.37038-4.84652-1.54064-9.721-.27232-14.38607a27.63691,27.63691,0,0,0-4.45867,6.985c-.19758.07961-.39952.15615-.59772.23555a10.893,10.893,0,0,1-.50446-3.57978,25.648,25.648,0,0,0-3.6844,4.84428q-.28574-1.13958-.57107-2.27875a4.72863,4.72863,0,0,0-1.4407,2.5192,6.883,6.883,0,0,1,1.24521-5.14617,22.3507,22.3507,0,0,0-7.261,7.52595q-.17737-1.14784-.35455-2.29569-.95967,1.73539-1.91934,3.471a15.47626,15.47626,0,0,1,.17384-4.949c-1.21543,1.21081-1.99053,1.56618-2.72671,3.1044a1.65714,1.65714,0,0,1-.19944,1.49861,5.3021,5.3021,0,0,1-1.89956-.944,1.99125,1.99125,0,0,1-.27794,1.3641,12.87724,12.87724,0,0,1-2.39547-1.90521c-.44075.50028.55108,1.38492.08619,1.86378-.35331.36373-.93958-.09247-1.21752-.51437-.97538-1.47923-2.1-2.43674-2.89222-4.01782q.08026,2.386.16031,4.77223a7.79213,7.79213,0,0,1-2.632-2.40693,9.24744,9.24744,0,0,1-.40306,3.48078,5.71805,5.71805,0,0,1-.696-2.93273.50221.50221,0,0,0-.50175-.47253,7.84682,7.84682,0,0,0-2.03592,3.94453,5.73778,5.73778,0,0,1-.88712-2.60329q-.41034,1.02936-.8209,2.05892a9.25014,9.25014,0,0,1-1.25-4.23193,7.1199,7.1199,0,0,0-.77781,4.44768,4.11423,4.11423,0,0,1-1.42737-.98221q-.20923.40875-.41847.81728l-1.712-1.5425a1.89979,1.89979,0,0,1,.15781,1.70784,17.66414,17.66414,0,0,1-2.77148-2.78782q-.35569.93506-.71118,1.87011a5.23264,5.23264,0,0,1-2.56495-2.41387q-.05527.93046-.11076,1.86092a7.5006,7.5006,0,0,1-3.817-4.296,19.04741,19.04741,0,0,1-.25233,3.69939,3.32843,3.32843,0,0,1-1.79026-2.14423,2.72278,2.72278,0,0,1-.77927,1.09508,5.86306,5.86306,0,0,1-1.19107-2.13771q-.37475.425-.74971.84974a5.06754,5.06754,0,0,1-1.235-1.657l-.23047,1.309q-1.45871-1.39063-2.91742-2.78169.3123.67419.62438,1.34859c-.0304-.02388-.062-.04164-.09244-.06572q1.35471,3.17318,2.70922,6.34616-2.68851,5.18535-5.377,10.37091,2.76157-.71093,5.52295-1.42187a7.19249,7.19249,0,0,0-1.4382,7.82927,5.80052,5.80052,0,0,1,5.73136-1.64885q-1.78911,4.03047-3.57864,8.06094c3.81723.497,4.62565,6.87073,1.04867,8.26893a39.438,39.438,0,0,1,17.10351,34.13263c-.09369-1.44718,2.318-1.77969,3.30653-.70114s1.02722,2.668,1.377,4.077c1.30287,5.24965,6.9724,8.06869,12.0315,10.21068q21.22573,8.985,42.45147,17.97034a17.23156,17.23156,0,0,1,13.122,6.02264q.05808-2.62391.11658-5.24863a17.94055,17.94055,0,0,0,12.38085,4.94776q.6021-2.16769,1.20336-4.33623a72.7889,72.7889,0,0,0,19.97658,6.83379q-1.91872-2.73168-3.83826-5.46376c1.37158,2.76984,10.61953,6.9089,13.568,7.96949a8.14924,8.14924,0,0,0,3.39813-5.04248c1.72384,5.16127,13.01375-5.903,13.71662-.516L272.86315,458.12q2.32093,1.2945,4.64313,2.589.47905-2.65575.95894-5.3119,3.69252-.62521,7.385-1.25a2.81723,2.81723,0,0,0,1.97325-2.54532c-.2594-.08328-.54921-.16778-.78322-.25024.53381-.33965.762-.1437.78322.25024,4.34667,1.39819,11.93407,2.93069,15.632,4.83224a9.99437,9.99437,0,0,0,2.87265-7.9401q8.39124,1.14753,16.78289,2.29426.36226-3.1187.72535-6.23778,7.18141-.8089,14.362-1.61741a6.16658,6.16658,0,0,1,2.89806-5.88262q9.25252,1.03,18.50548,2.06076.64394-4.93429,1.28871-9.86879c3.92487,1.09732,7.74563-4.28725,5.33142-7.5137a10.81978,10.81978,0,0,1,6.50271.76829A21.19113,21.19113,0,0,1,375.722,412.337q3.07106,1.60068,6.1417,3.20155c-1.34618-1.64333-2.76689-3.50752-2.61282-5.60971s2.92761-3.91861,4.5053-2.48694q.331-3.92974.66206-7.85968a4.3639,4.3639,0,0,0,4.786,1.349q2.96426-3.79655,5.9281-7.5929,2.84,1.96931,5.68076,3.939a26.64547,26.64547,0,0,0-.97892-13.69045.85426.85426,0,0,1-.30563-.99731c.12533.325.1932.66787.30563.99731a2.31982,2.31982,0,0,0,3.10749-.62643c.79447-1.4778.34977-3.33423.97435-4.88837s3.57426-2.03136,3.62839-.3619C406.74693,373.92183,406.1388,366.30321,406.57892,366.5059Z"/><path class="cls-2" d="M121.2821,353.307a8.72774,8.72774,0,0,0,.59709.86157q.10587-.27861.212-.55764Q121.68673,353.459,121.2821,353.307Z"/><path class="cls-2" d="M349.1471,346.1972c-.09869-.3227-.16677-.65357-.27294-.974A1.00206,1.00206,0,0,0,349.1471,346.1972Z"/><path class="cls-9" d="M238.01818,418.69578c28.319,7.6802,37.77857-9.74762,48.59523-30.06919-9.622.4033-19.43581.78367-28.715-2.03337-4.418-1.34125-8.76836-3.41279-13.35313-3.33221-5.1796.091-9.91152,2.91076-14.39385,5.65382-4.51152,2.76092-9.996,5.2134-13.56339,9.05574-2.19487,2.364,8.17766,11.991,9.72894,13.32872C230.323,414.7538,234.09532,417.63189,238.01818,418.69578Z"/><path class="cls-7" d="M287.0203,451.62091c.23422.08246.524.16737.78323.25065C287.78208,451.47762,287.5539,451.28126,287.0203,451.62091Z"/><path class="cls-2" d="M218.09828,259.51533a14.02657,14.02657,0,0,1,8.086-5.17413,24.09523,24.09523,0,0,1,1.92433,9.27583,23.09006,23.09006,0,0,1,8.91-8.25566q1.09022,2.89916,2.18041,5.79811a76.77407,76.77407,0,0,1,20.69068-17.78725q.01157,4.48514.0229,8.97047a8.48224,8.48224,0,0,1,8.45953-7.87131l.0331,5.0043q1.98648-2.04126,3.973-4.08272a4.88647,4.88647,0,0,1,2.19623,6.94075c2.14564-5.13514,7.7196-7.46267,13.30793-9.23378a75.58984,75.58984,0,0,1-.2465-21.03841,15.393,15.393,0,0,1,1.59039-4.18029,6.29363,6.29363,0,0,1-.69578.99078,16.57234,16.57234,0,0,1-4.9827-13.47449,13.34119,13.34119,0,0,1-6.0832,7.56085,12.55919,12.55919,0,0,0-2.72734,8.64491c.2361-2.756-4.84486-.83381-4.80385,1.93155s1.525,6.12081-.61979,7.917a52.48673,52.48673,0,0,0-14.071-38.94119,60.34833,60.34833,0,0,1,4.71266,41.80208,67.19221,67.19221,0,0,0-7.33923-33.16207q-3.54107,17.56121-7.08233,35.12239-1.68042-8.11665-3.36065-16.23311l-2.85871,11.98179a29.39016,29.39016,0,0,1-2.15438-19.01031,23.04928,23.04928,0,0,0-7.36068,20.59139q-2.20227-4.56474-4.40433-9.12948l-.594,9.78286q-2.77782-4.07978-5.55523-8.15953a22.68225,22.68225,0,0,0,.56421,12.90848c-.99308-3.86717-2.44378-5.67931-6.13858-7.34673a122.58667,122.58667,0,0,1,3.78454,23.132C218.69226,256.17456,219.20691,257.96507,218.09828,259.51533Z"/><path class="cls-10" d="M181.25487,239.3165a25.14356,25.14356,0,0,1,18.72332,7.23786,24.19428,24.19428,0,0,1,6.84312,14.87111,2.8946,2.8946,0,0,1,.74471.034,24.11327,24.11327,0,0,0-6.90211-18.53567,25.14356,25.14356,0,0,0-18.72332-7.23786c-6.40434.29528-12.49837,3.06614-17.58544,6.89188-5.08728,3.8257-9.1553,10.11841-13.0978,15.07542.24147.57113.57109,1.09818.84939,1.65163,3.4748-4.56233,7.132-9.76459,11.56268-13.09653C168.7565,242.38264,174.85049,239.612,181.25487,239.3165Z"/><path class="cls-11" d="M206.47749,265.13515l2.09035.61715a31.757,31.757,0,0,1-56.111-3.98829c3.9425-4.957,8.01066-11.24965,13.09782-15.07539s11.18107-6.59652,17.58539-6.89193a25.14386,25.14386,0,0,1,18.72348,7.23795,24.113,24.113,0,0,1,6.902,18.5356C208.02228,265.394,206.44828,265.88425,206.47749,265.13515Z"/><path class="cls-9" d="M206.47881,265.12863q.69177.20394,1.38343.40848a3.48631,3.48631,0,0,1,.90449.0265,24.113,24.113,0,0,0-6.90191-18.53564,25.14188,25.14188,0,0,0-16.45034-7.21993,20.29248,20.29248,0,0,1,8.57169,5.24328,19.70107,19.70107,0,0,1,5.359,15.25305,2.8483,2.8483,0,0,0-.739-.03507q.28745.09027.57482.18095a25.93793,25.93793,0,0,1-44.5473-1.51879c-.73192.96856-1.45759,1.923-2.17564,2.82592a31.757,31.757,0,0,0,56.11108,3.98838q-.35332-.10442-.70689-.20865C207.17015,265.57456,206.459,265.63374,206.47881,265.12863Z"/><ellipse class="cls-7" cx="196.58532" cy="256.26439" rx="3.72549" ry="3.65252"/><path class="cls-10" d="M327.399,235.99551a25.25856,25.25856,0,0,0-19.59662,4.49668A24.36444,24.36444,0,0,0,298.83,254.232a2.89334,2.89334,0,0,0-.74186-.0723,24.26193,24.26193,0,0,1,9.57328-17.35713,25.25852,25.25852,0,0,1,19.59661-4.49668c6.29279,1.20355,11.91205,4.81231,16.37883,9.32148,4.467,4.50915,7.56028,11.31413,10.72713,16.77971-.32348.53071-.72764,1.00527-1.08493,1.51326-2.76254-5.00851-5.61076-10.67614-9.50125-14.60332C339.311,240.80781,333.69177,237.19926,327.399,235.99551Z"/><path class="cls-11" d="M298.621,257.95128l-2.15959.31313a31.75686,31.75686,0,0,0,56.10727,4.03912c-3.16685-5.4655-6.26028-12.2705-10.72715-16.77968s-10.086-8.11784-16.37877-9.32151a25.25873,25.25873,0,0,0-19.59678,4.49675,24.26169,24.26169,0,0,0-9.57317,17.35707C297.05418,257.98758,298.53894,258.6966,298.621,257.95128Z"/><path class="cls-9" d="M298.62061,257.94464q-.71464.10334-1.42926.20728a3.48387,3.48387,0,0,0-.89883-.1025,24.26165,24.26165,0,0,1,9.57306-17.35712,25.27324,25.27324,0,0,1,17.345-4.80242,20.43252,20.43252,0,0,0-9.25718,3.96792,19.81845,19.81845,0,0,0-7.56055,14.32886,2.84743,2.84743,0,0,1,.7364.07047q-.29776.04841-.59552.09723a25.93094,25.93094,0,0,0,44.30037,4.83683c.58077,1.06246,1.15745,2.11,1.73421,3.10561a31.75684,31.75684,0,0,1-56.1073-4.039q.365-.053.73029-.10584C297.87057,258.28746,298.56542,258.44722,298.62061,257.94464Z"/><ellipse class="cls-7" cx="309.72169" cy="250.58222" rx="3.72549" ry="3.65252"/><path class="cls-2" d="M181.191,292.866l7.26234-4.84563a66.3224,66.3224,0,0,0-7.90017,11.76926l3.23738-2.41544a48.4836,48.4836,0,0,0-8.67242,25.56558,89.28413,89.28413,0,0,0,11.10236-18.97572c1.56225-3.63871,2.88171-7.384,4.69939-10.90684,4.14013-8.02394,10.64833-13.50968,17.83915-18.76839C198.51366,276.82214,188.338,285.196,181.191,292.866Z"/><path class="cls-2" d="M322.48817,291.10692l-6.9386-5.282a66.1029,66.1029,0,0,1,7.133,12.23119l-3.07675-2.60945a48.38608,48.38608,0,0,1,7.0225,26.04783,89.00771,89.00771,0,0,1-9.86857-19.62009c-1.32678-3.72748-2.40443-7.54643-3.99354-11.17394-3.6195-8.26238-9.76456-14.1369-16.60539-19.82677C306.22421,274.031,315.84505,283.01314,322.48817,291.10692Z"/><path class="cls-7" d="M297.14715,214.53989c-3.95731,27.45853,1.15116,56.39379,14.16186,80.21528,6.40761,11.7318,14.69594,22.35269,19.21766,35.10649,6.52594,18.40684,4.11641,40.34118-6.20673,56.50083s-28.24972,26.05907-46.1772,25.5c-11.4802-.358-21.432-4.10239-27.13948-15.08375-1.78643,5.49732-7.00572,8.65145-12.04158,10.46962-18.27436,6.59788-39.66,1.29522-53.60763-13.29228s-19.86785-37.84318-14.84019-58.29542c5.81246-23.64471,24.07743-40.85428,34.334-62.58836,4.3413-9.19939,7.26287-19.63684,5.90524-29.89711,1.85024,3.241,5.33894,3.41307,7.18918,6.654l3.26924-9.34711a5.92221,5.92221,0,0,0,4.683,4.633,10.97826,10.97826,0,0,1,1.402-7.07024,20.47,20.47,0,0,0,5.5886,10.38925,57.15615,57.15615,0,0,1-.43836-22.99013l9.77022,19.47774.613-10.48206,4.63084,11.97373,3.20966-11.98358,3.45882,12.0563a55.71015,55.71015,0,0,1,9.27966-24.82573,67.21832,67.21832,0,0,0,3.71246,21.07035l6.30025-18.81148a29.18759,29.18759,0,0,0,1.892,13.621l4.45783-15.60788a19.64622,19.64622,0,0,0,3.394,14.35959,52.37152,52.37152,0,0,1,8.25144-30.65579q.08288,13.32887.80949,26.64029C293.64031,225.6029,295.73326,221.21351,297.14715,214.53989Z"/><ellipse class="cls-12" cx="210.65905" cy="324.70658" rx="1.47415" ry="1.44528"/><ellipse class="cls-12" cx="212.1332" cy="339.09042" rx="1.47415" ry="1.44528"/><ellipse class="cls-12" cx="188.99025" cy="357.4594" rx="1.47415" ry="1.44528"/><ellipse class="cls-12" cx="199.30932" cy="343.42626" rx="1.47415" ry="1.44528"/><ellipse class="cls-12" cx="197.83516" cy="331.14039" rx="1.47415" ry="1.44528"/><ellipse class="cls-12" cx="190.4644" cy="339.09042" rx="1.47415" ry="1.44528"/><ellipse class="cls-12" cx="218.01308" cy="351.67829" rx="1.47415" ry="1.44528"/><ellipse class="cls-12" cx="202.80223" cy="354.56885" rx="1.47415" ry="1.44528"/><ellipse class="cls-12" cx="193.41271" cy="372.49109" rx="1.47415" ry="1.44528"/><ellipse class="cls-12" cx="220.96139" cy="363.3194" rx="1.47415" ry="1.44528"/><ellipse class="cls-12" cx="209.18489" cy="368.08917" rx="1.47415" ry="1.44528"/><ellipse class="cls-12" cx="305.71675" cy="370.72428" rx="1.47415" ry="1.44528"/><ellipse class="cls-12" cx="304.96329" cy="352.1935" rx="1.47415" ry="1.44528"/><ellipse class="cls-12" cx="324.43725" cy="339.41674" rx="1.47415" ry="1.44528"/><ellipse class="cls-12" cx="317.06648" cy="352.00461" rx="1.47415" ry="1.44528"/><ellipse class="cls-12" cx="318.54064" cy="364.29048" rx="1.47415" ry="1.44528"/><ellipse class="cls-12" cx="325.9114" cy="356.34044" rx="1.47415" ry="1.44528"/><ellipse class="cls-12" cx="295.41441" cy="361.48156" rx="1.47415" ry="1.44528"/><ellipse class="cls-12" cx="311.39998" cy="337.97146" rx="1.47415" ry="1.44528"/><ellipse class="cls-12" cx="322.96309" cy="322.93978" rx="1.47415" ry="1.44528"/><ellipse class="cls-12" cx="304.96329" cy="319.01879" rx="1.47415" ry="1.44528"/><ellipse class="cls-12" cx="314.34829" cy="326.66707" rx="1.47415" ry="1.44528"/><path class="cls-13" d="M220.4413,322.99209c9.07971-8.12683,22.79931-7.96164,35.0763-7.32084l17.73336.92561c9.44941.49321,19.91477,1.43259,26.32885,8.25357,21.71913,23.097-19.87491,65.22912-44.67128,64.11527C227.77741,387.747,195.58548,345.23969,220.4413,322.99209Z"/><path class="cls-14" d="M225.69232,327.01146c7.83-7.00823,19.66115-6.86578,30.2483-6.31318l15.29248.7982c8.14877.42533,17.17365,1.23541,22.70487,7.11753,18.72965,19.91786-17.13927,56.25079-38.52259,55.29025C232.01867,382.85328,204.25773,346.19684,225.69232,327.01146Z"/><path class="cls-15" d="M132.6037,366.08972s28.5011-18.62857,60.96068-20.95714"/><path class="cls-15" d="M130.35726,395.559s34.61945-32.95173,66.37391-39.9478"/><path class="cls-15" d="M149.62519,411.885s17.41734-33.76429,48.68937-45.79525"/><path class="cls-15" d="M386.82453,366.08972s-28.50109-18.62857-60.96067-20.95714"/><path class="cls-15" d="M389.071,395.559s-34.61946-32.95173-66.37391-39.9478"/><path class="cls-15" d="M369.80305,411.885s-17.41734-33.76429-48.68938-45.79525"/><path class="cls-16" d="M273.14445,366.5223c0-5.00531,5.16872-9.06283,11.54459-9.06283a13.28842,13.28842,0,0,1,7.97615,2.53282c7.07631-10.56031,9.46916-22.54632,1.20652-31.33384-5.52146-5.87113-14.52871-6.67973-22.66261-7.10413q-7.631-.39812-15.26323-.79653c-10.56713-.55185-22.37613-.69384-30.19136,6.3011-9.88942,8.85155-9.21927,21.40859-3.405,32.47961a13.45151,13.45151,0,0,1,7.27508-2.079c6.37587,0,11.54459,4.05752,11.54459,9.06283,0,3.58887-2.68,6.66209-6.53426,8.13018,6.35884,5.30722,13.76012,8.8763,20.78658,9.19182,7.11291.31954,15.8261-3.50783,23.59843-9.47238C275.52783,372.81319,273.14445,369.90083,273.14445,366.5223Z"/><path class="cls-2" d="M172.3892,133.41592c3.31667-5.85859-.65416-12.97619-4.50738-18.51021l-36.5789-52.5348c-8.11687-11.6575-18.10431-24.444-32.44321-25.70753a6.11358,6.11358,0,0,0-4.19181.76633c-1.41405,1.04461-1.7648,2.94781-2.00977,4.667L88.77385,69.35588q-4.0047,28.10423-8.00939,56.20844c-.96854,6.79706-1.92822,13.79418-.23805,20.4542,2.19871,8.6639,8.567,15.6319,14.71844,22.215.51173-2.97315,2.20383-5.21686,4.44624-7.28034a7.20974,7.20974,0,0,0,2.25975,6.05333,20.85752,20.85752,0,0,1,3.32075-6.14616,11.075,11.075,0,0,0,2.399,4.13091,67.09628,67.09628,0,0,1,7.77852-13.5298,10.13235,10.13235,0,0,0,3.06432,6.69662,4.75359,4.75359,0,0,1,1.78-3.795c-.5271-.475-.75315.9901-.03973,1.04854s1.25008-.60337,1.90293-.89141,1.70954.40745,1.1983.89879a50.654,50.654,0,0,1,10.98285-18.83132A19.11294,19.11294,0,0,0,133.2283,148.97l2.76439-3.87764a4.26717,4.26717,0,0,1,.16879,2.85554,3.23605,3.23605,0,0,1,1.24984-2.12962c.74535-.4186,1.98381.16994,1.74579.97912a3.26817,3.26817,0,0,1,1.02684-2.45921c.76149-.5283,2.17207.12168,1.84834.97944a93.0336,93.0336,0,0,1,7.75383-11.9479l-.42622,7.10018,4.34563-4.9596.05268,4.4336a17.48152,17.48152,0,0,1,5.33515-5.04076l-.50683,3.95278,6.15143-8.21522a14.46851,14.46851,0,0,0,2.25358,5.218,13.43232,13.43232,0,0,1,1.00783-4.59152,4.56237,4.56237,0,0,0,4.85677,3.04919C172.45638,134.66355,172.789,133.06869,172.3892,133.41592Z"/><path class="cls-2" d="M398.40618,179.06242A312.34467,312.34467,0,0,0,384.23757,16.54867c-16.22215,15.60006-32.80245,31.69269-42.19142,51.9801-7.56648,16.34941-11.08339,36.11405-25.99113,46.54065,4.427-1.44891,6.80718-1.36847,10.74359-3.8267l-1.86,5.867a7.63956,7.63956,0,0,0,6.09274-.71421l.4088,6.15856a10.6565,10.6565,0,0,0,7.84054-6.24669,12.86344,12.86344,0,0,1,3.01548,12.7132,5.70445,5.70445,0,0,0,2.95167-2.78592l2.82824,4.96519,4.61085-5.23077,2.577,10.3341,3.16869-1.79231a6.05779,6.05779,0,0,1,.89967,4.97782c.2061-1.53688,2.89495-1.29449,3.47883.146s-.19259,3.03471-.94961,4.39558a8.148,8.148,0,0,0,5.66487-6.49648,22.37215,22.37215,0,0,1,1.57075,15.53294l4.16781-4.836a6.84062,6.84062,0,0,1,1.21311,5.89841l5.45766-6.57483a30.27093,30.27093,0,0,1,1.76284,16.65364l2.589-4.01878a17.51485,17.51485,0,0,1,1.0537,6.6367,11.3178,11.3178,0,0,0,3.2499-8.845,14.45714,14.45714,0,0,1,1.27928,13.0773,6.61645,6.61645,0,0,0,2.76437-2.72041,60.96335,60.96335,0,0,1,3.79629,10.0217C396.50473,178.62813,398.33706,178.79267,398.40618,179.06242Z"/><g class="cls-17"><path class="cls-18" d="M136.26681,152.57853c.30709-.1441.621-.28494.93188-.42762-.27357.05634-.54214.11-.8105.15554C136.34218,152.39707,136.31615,152.4879,136.26681,152.57853Z"/><path class="cls-18" d="M140.95054,150.55983c-1.27623.49028-2.52747,1.02935-3.75185,1.59108A8.03966,8.03966,0,0,0,140.95054,150.55983Z"/><path class="cls-18" d="M129.17491,81.97962a95.64615,95.64615,0,0,1,12.18827,20.877l-4.06352-2.42612q.97059,3.4316,1.941,6.863A51.31966,51.31966,0,0,1,128.58093,97.92q4.37269,7.98378,8.74559,15.96756c1.2146,2.2171,2.45668,4.70058,1.62266,7.04628q-1.25292-.5851-2.50582-1.17l-.06933,2.84639a16.1036,16.1036,0,0,1-5.06993-3.05133,24.73394,24.73394,0,0,0,3.25865,8.37283,27.38889,27.38889,0,0,1-7.948-5.88506c.60626,1.22877,2.92595,5.67768,5.24543,10.82445-.53027-.39149-1.04971-.77237-1.54126-1.132.49259,1.62088-.17717,3.66877.2107,5.23291a71.319,71.319,0,0,1-6.07967-4.03026,15.62116,15.62116,0,0,1-1.89393,6.46434,16.52331,16.52331,0,0,1-5.74469-4.89245,77.83064,77.83064,0,0,1,4.415,24.54614c5.27756-4.27064,27.47987-10.63912,29.96549-10.56319,2.13294.06511,4.28379.50477,6.37988.15615,4.036-.67155,7.20162-4.14825,11.30282-3.92188C163.00031,121.07491,149.022,98.9798,129.17491,81.97962Z"/></g><g class="cls-19"><path class="cls-18" d="M372.93963,159.29226c-.59788.67869,1.13242.79133,1.69856.087,10.06943-12.52813,11.898-29.40465,13.34191-45.29208l-5.17461,6.58962a51.42779,51.42779,0,0,0-1.40541-17.26177l-3.9234,15.10847a1.67481,1.67481,0,0,0,.60322-2.8974,1.7176,1.7176,0,0,0-2.504,1.6486l-1.455-4.66616a5.10956,5.10956,0,0,1-3.43553,2.52961l-.27731-5.52883-2.78837,1.98335a141.74758,141.74758,0,0,1,2.13453-33.61712,149.55556,149.55556,0,0,1-10.58654,26.69361,7.99086,7.99086,0,0,1-2.2601-4.74725l-3.74855,4.09377a7.30591,7.30591,0,0,1-.59964-4.8776,9.66217,9.66217,0,0,1-4.445,4.12714,24.30219,24.30219,0,0,1,2.19693-12.63094,79.7823,79.7823,0,0,1-23.88666,30.95448c5.04221,1.02491,7.97823,6.32952,12.0521,9.41747l21.35205,16.18462c4.90331,3.71665,9.9102,7.54337,13.208,12.68823C372.4489,159.36256,373.52755,159.80874,372.93963,159.29226Z"/></g><path class="cls-7" d="M388.78614,415.907c.23326.42937.46155.86773.695,1.298a1.59738,1.59738,0,0,0,.92-1.0674C390.61907,414.99243,388.23257,414.89213,388.78614,415.907Z"/><path class="cls-20" d="M318.83939,668.70008q-1.01877.30234-2.03827.603a1.49769,1.49769,0,0,0,2.0818.34A1.41422,1.41422,0,0,0,318.83939,668.70008Z"/><path class="cls-20" d="M318.88292,669.64305a1.78534,1.78534,0,0,0,.63188-.56493,2.68677,2.68677,0,0,0,.30588-.66854q-.49041.14549-.98129.2905A1.41422,1.41422,0,0,1,318.88292,669.64305Z"/><path class="cls-20" d="M318.451,668.46824c-.14928-1.08514-2.16839-.13531-1.65362.83154l.00379.00332q1.01949-.30127,2.03827-.603A.43236.43236,0,0,0,318.451,668.46824Z"/></g></svg>