<svg xmlns="http://www.w3.org/2000/svg" xmlns:xlink="http://www.w3.org/1999/xlink" viewBox="0 0 736.62279 977.2909"><defs><style>.cls-1,.cls-21{fill:none;}.cls-2{fill:url(#未命名漸層_58);}.cls-3{fill:#f4e6d9;}.cls-4{fill:#ddc6b9;}.cls-5{clip-path:url(#clip-path);}.cls-6{fill:#ebdacb;}.cls-7{fill:#ebddd0;opacity:0.8;}.cls-8{fill:#dbbfab;}.cls-9{fill:#eed6c3;}.cls-10{fill:#e3ccbe;}.cls-11{fill:#f0dfd0;}.cls-12{fill:#dbc3b5;}.cls-13{fill:#403034;}.cls-14{fill:#080606;}.cls-15{fill:#262934;}.cls-16{fill:#fff;}.cls-17{fill:#f8f4f1;}.cls-18{fill:#d6c0b1;}.cls-19{fill:#070001;}.cls-20{fill:#2a292a;}.cls-21{stroke:#fff;stroke-linecap:round;stroke-linejoin:round;stroke-width:0.25px;}</style><radialGradient id="未命名漸層_58" cx="338.35523" cy="850.04814" fx="309.887632356007" fy="839.330856368854" r="418.45317" gradientTransform="translate(0 423.81748) scale(1 0.50142)" gradientUnits="userSpaceOnUse"><stop offset="0" stop-color="#9f9e9f"/><stop offset="0.99577" stop-color="#f6f7f5" stop-opacity="0"/></radialGradient><clipPath id="clip-path"><path class="cls-1" d="M400.23023,338.73845c33.29015,30.69136,53.55563,74.19427,67.74868,116.46518,16.83722,50.146,17.94324,92.64426,7.67206,144.5903-15.42124,77.99225-26.20623,155.94292-41.62747,233.93517,8.29068,13.27955,18.70351,25.60116,23.37486,40.54239,7.419,23.72938-9.99921,46.04236-33.71261,47.927-27.38726,2.17661-42.53417-21.575-55.19454-42.06567-34.76844-56.278-22.28944-139.23581-27.29247-202.85106-1.22019-15.51521-4.40263-31.755-14.64625-43.47157s-39.71308-6.49916-51.97653,3.08308c-9.20995,7.19634-11.87125,19.85489-13.05026,31.48332-2.71049,26.73323-.92381,53.69487.86487,80.50555,2.07167,31.05247,1.174,67.06647.595,98.18258A79.75824,79.75824,0,0,1,172.79607,924.652c-3.99839-.52817-8.08593-1.41451-11.37592-3.74733-6.16948-4.37457-8.0562-12.67722-8.29659-20.23643a74.18457,74.18457,0,0,1,12.63836-43.63464c4.09322-6.03935,9.01859-7.15681,8.13631-14.399a924.31672,924.31672,0,0,0-34.53632-161.46167c-15.24056-49.23056-34.81273-98.35672-35.17623-149.89108-.49259-69.83264,35.26927-136.2946,84.7637-185.56062,33.92984,2.60253,68.30289-2.47112,100.4576-13.61032,10.45052-3.62033,20.7-7.94894,31.49018-10.39119a110.9935,110.9935,0,0,1,50.74178.688C382.42019,325.16181,391.89828,331.05709,400.23023,338.73845Z"/></clipPath></defs><title>shir</title><g id="tail"><ellipse class="cls-2" cx="297.10697" cy="869.06722" rx="275.83262" ry="108.22368"/><path class="cls-3" d="M736.12694,690.19925l.02091-.12426c2.76844-16.52049-6.89027-32.22364-20.53037-12.82946q2.75032-3.52135,5.808-6.77929C652.31782,744.099,585.07833,802.28467,481.39529,820.55551c-33.85621,5.96606-68.33668,7.28313-102.68981,8.587l-72.098,2.73656c74.13082,37.4081,162.11887,49.26659,240.95731,23.20428A318.46139,318.46139,0,0,0,664.1697,785.573c22.2318-20.744,45.93725-41.87934,62.40023-67.73567C730.809,711.17945,734.42385,700.27526,736.12694,690.19925Z"/></g><g id="body"><path class="cls-4" d="M464.08625,516.46114c33.23683,55.26695,44.8726,123.247,34.69,186.92936,12.37894-3.71241,25.82992,4.09283,32.98824,14.85288,10.87526,16.3472,10.45687,37.74449,6.5278,56.98155-9.27517,45.41213-36.59285,88.58243-74.5512,115.18043,0,0-321.62473,6.74684-327.18589,1.20794A234.9396,234.9396,0,0,1,70.614,761.52836c-1.95888-12.88139-2.746-26.5131,2.34707-38.50593s17.59085-21.69638,30.46836-19.71218a279.45683,279.45683,0,0,1,26.85914-164.15532c44.95777,10.96125,94.02988,20.77093,140.18916,24.03756s93.74873-1.5581,135.71711-21.05184c17.66319-8.2043,34.05769-18.86117,50.38381-29.47986,2.31959-1.5087,5.36972-3.03206,7.66481-1.48636S465.675,518.72667,464.08625,516.46114Z"/><path class="cls-3" d="M400.23023,338.73845c33.29015,30.69136,53.55563,74.19427,67.74868,116.46518,16.83722,50.146,17.94324,92.64426,7.67206,144.5903-15.42124,77.99225-26.20623,155.94292-41.62747,233.93517,8.29068,13.27955,18.70351,25.60116,23.37486,40.54239,7.419,23.72938-9.99921,46.04236-33.71261,47.927-27.38726,2.17661-42.53417-21.575-55.19454-42.06567-34.76844-56.278-22.28944-139.23581-27.29247-202.85106-1.22019-15.51521-4.40263-31.755-14.64625-43.47157s-39.71308-6.49916-51.97653,3.08308c-9.20995,7.19634-11.87125,19.85489-13.05026,31.48332-2.71049,26.73323-.92381,53.69487.86487,80.50555,2.07167,31.05247,1.174,67.06647.595,98.18258A79.75824,79.75824,0,0,1,172.79607,924.652c-3.99839-.52817-8.08593-1.41451-11.37592-3.74733-6.16948-4.37457-8.0562-12.67722-8.29659-20.23643a74.18457,74.18457,0,0,1,12.63836-43.63464c4.09322-6.03935,9.01859-7.15681,8.13631-14.399a924.31672,924.31672,0,0,0-34.53632-161.46167c-15.24056-49.23056-34.81273-98.35672-35.17623-149.89108-.49259-69.83264,35.26927-136.2946,84.7637-185.56062,33.92984,2.60253,68.30289-2.47112,100.4576-13.61032,10.45052-3.62033,20.7-7.94894,31.49018-10.39119a110.9935,110.9935,0,0,1,50.74178.688C382.42019,325.16181,391.89828,331.05709,400.23023,338.73845Z"/><g class="cls-5"><path class="cls-6" d="M177.205,612.49917a82.56149,82.56149,0,0,0-26.11394,33.06436,151.86366,151.86366,0,0,1,9.96043-52.96185l-17.00234,22.13447a432.40473,432.40473,0,0,1,17.03-94.3781,109.56561,109.56561,0,0,0-22.65207,39.655,251.39854,251.39854,0,0,1,52.16345-118.37l-28.67917,16.77035,37.01568-76.76053c10.71033-22.21033,21.44164-48.62218,9.96674-70.44731C148.97748,336.89115,111.5334,399.80392,99.6673,463.90467S97.56415,593.947,108.47372,658.21746c4.67293,27.52916,6.92746,58.75189,16.87591,84.45545C157.35735,716.92458,141.3495,639.355,177.205,612.49917Z"/><path class="cls-6" d="M416.51308,572.97459A82.56138,82.56138,0,0,1,442.627,606.039a151.8638,151.8638,0,0,0-9.96043-52.96185l17.00233,22.13446a432.40542,432.40542,0,0,0-17.03-94.3781A109.56567,109.56567,0,0,1,455.291,520.48851a251.39849,251.39849,0,0,0-52.16345-118.37l28.67917,16.77035L394.791,342.12831c-10.71033-22.21033-21.44163-48.62217-9.96673-70.44731,59.91631,25.68556,97.36038,88.59833,109.22648,152.69909s2.10315,130.04232-8.80642,194.31279c-4.67293,27.52916-6.92745,58.75188-16.87591,84.45545C436.36073,677.4,452.36858,599.83043,416.51308,572.97459Z"/></g><path class="cls-3" d="M606.394,77.49916C602.40376,64.5816,593.74,53.73345,587.72773,41.77469c-5.21242-10.37012-9.55685-23.24878-17.02806-32.27266-5.293-6.39043-27.34637-1.55529-34.12945-.84126-7.93017.83485-15.90515,2.75968-23.9,2.648-7.574-.10574-14.98076-2.21377-22.58934-1.77673-12.67455.72812-24.02013,7.67106-32.9443,16.31487-22.00608,21.31486-32.31184,17.25256-35.35392,15.04531a11.73874,11.73874,0,0,1-1.007-.89983C415.59419,34.60425,302.007-40.803,187.6794,30.45223c-2.8394,4.19011-8.27971,7.34967-12.74594,9.4598-6.81137,3.21828-14.04935,7.48286-21.2674,2.81284-7.50342-4.85456-11.26888-15.5295-14.333-23.39459C132.477,1.73152,84.18538-1.79453,75.84059,14.16441,67.4958,30.1236,8.69247,60.83514,8.69247,60.83514s-19.53991,5.73361-.02684,55.853q1.81742,7.37379,3.24281,14.84559c1.45647,7.54657-.39009,16.65531,3.1263,23.69029.312.62368,12.92061-11.43708,13.88992-12.30627,5.07556-4.55186,10.92113-9.30936,18.21907-8.28409,14.3094,2.01054,13.35237,25.029,23.0076,30.01272,6.89823,3.56033,19.83486,29.79423,27.30377,53.35977-.30285.40928-.5708.83995-.87729,1.24689a23.18267,23.18267,0,0,1,2.7069,4.87,106.82567,106.82567,0,0,1,3.657,18.02385c1.18622,14.93915.5971,32.22753,8.41891,44.42938,0,0,4.80591,85.60328,45.99531,105.76448s75.0964,65.49592,94.48336,68.02278c19.38644,2.52712,75.11817,20.1775,121.18486-22.60072,0,0,70.29412-27.66078,79.99919-50.31555,19.48321-45.48264,42.13538-90.26206,51.91089-139.14606,3.60576-18.03114,4.55971-42.94852,13.98638-59.17106,6.99223-12.03305,16.22471-25.449,25.90082-35.03123,12.30722-12.18778,22.57613-31.01915,25.83038-46.02841,4.21611-19.44551,21.27377,4.52181,35.48786.01706C613.632,105.7129,607.99637,82.68556,606.394,77.49916Z"/><path class="cls-7" d="M606.33988,77.58722c-3.99019-12.91756-12.65392-23.76571-18.66622-35.72448-3.63839-7.23877-6.59976-14.7882-10.3911-21.94682.80776,1.52517-1.19338,6.69783-1.06021,8.69994.23514,3.535,1.83227,5.94955,3.49628,8.96341A98.9188,98.9188,0,0,1,586.69772,53.329c.94393,2.75595.92491,10.10334,3.86842,11.486q-4.41837-2.07546-8.83777-4.1504c7.14543,7.29171,8.05387,13.83687,13.06906,22.72935A120.98457,120.98457,0,0,1,569.411,67.168q-.06853,2.79138-.13864,5.58249-8.86965-5.62224-17.73878-11.24475a7.486,7.486,0,0,1,1.95148,7.246C543.621,58.21657,525.57862,53.2848,511.467,55.936c-21.81757,4.099-24.26085,8.90107-24.85412,7.73031,6.17315,12.1836,10.28286.77041,21.33,8.80212,19.90161,14.46865,36.28415,24.22349,57.13083,37.29474.59059-1.912,5.1298.21369,5.524-1.60461,4.21619-19.44553,21.27377,4.5218,35.48785.017C613.57788,105.801,607.94231,82.77362,606.33988,77.58722Z"/><path class="cls-7" d="M114.32761,53.26746c-4.6522,2.71433-10.76642.5788-15.823.84616A54.45266,54.45266,0,0,0,80.47346,58.533C70.33975,62.77716,61.04494,68.99479,51.9987,75.15933c-3.24834,2.21355-12.06,6.47952-12.39913,10.93659a7.45976,7.45976,0,0,1,2.08514-4.76065,46.90285,46.90285,0,0,0-11.86849,15.452,19.36685,19.36685,0,0,1-1.5841-16.7594,13.62656,13.62656,0,0,0-4.04948,3.13288,10.62524,10.62524,0,0,1,.3928-7.11332,8.17314,8.17314,0,0,1-2.54735,2.95A16.05256,16.05256,0,0,1,25.84086,68.174q-3.59817,3.2628-7.19582,6.52559a70.60962,70.60962,0,0,1,2.85458-15.19792c.41817-1.376,2.04878-4.43819,3.23312-7.27579C15.46586,57.5185,8.69236,61.05741,8.69236,61.05741s-19.53991,5.73362-.02684,55.853q1.81741,7.37379,3.24281,14.84559c1.45648,7.54657-.39009,16.65531,3.1263,23.69029.18006.36,4.4544-3.50408,8.22537-7.00511C42.77239,104.47826,79.89081,85.04645,114.32761,53.26746Z"/><path class="cls-1" d="M32.40313,126.26845c8.7333-10.11364,18.96869-18.88588,27.30664-29.32784,7.64011-9.568,13.58934-20.41855,21.50569-29.75932s18.49179-17.35768,30.69006-18.41635c1.62868-.14135,3.70539.13631,4.18751,1.69841.42186,1.36683-.72335,2.67406-1.7634,3.65615a296.91548,296.91548,0,0,0-61.74428,83.2479c-2.07553,4.16536-4.14876,8.50723-7.67745,11.54141-3.13695,2.69734-26.11167,12.499-28.44764,10.45418C10.30607,153.976,29.0009,130.20842,32.40313,126.26845Z"/><path class="cls-8" d="M117.72026,63.977c1.03994-.98193-1.11975-3.03279-1.54155-4.39959-.48213-1.56218-1.38446-5.17178-3.01314-5.03062-12.19808,1.05888-21.03076,5.84075-28.94705,15.1815S67.301,87.37263,59.66091,96.94063c-8.338,10.442-18.57333,19.21412-27.30651,29.32777-2.81916,3.26474-16.09685,20.11544-17.07854,28.86986,1.87838-1.06774,12.7039-11.41687,13.6-12.22046,5.07557-4.55186,10.92113-9.30936,18.21907-8.28409a12.02919,12.02919,0,0,1,5.63717,2.36216C68.202,106.06088,92.5722,87.72354,117.72026,63.977Z"/><path class="cls-9" d="M122.2804,84.09a10.25718,10.25718,0,0,0,4.46348,1.98029,40.972,40.972,0,0,1-3.91431-14.72611c.66988-9.74924-1.9017-18.15792-12.69069-16.63581-23.31844,3.28979-57.40679,82.28747-57.40679,82.28747a20.28448,20.28448,0,0,1,9.23017,8.73046c2.21155,4.16988,3.63282,9.1882,7.72,11.54936.97422-2.41967,1.59324-4.96791,2.49871-7.41418,4.07436-11.00612,13.53956-19.23373,19.55614-29.20283a191.81416,191.81416,0,0,0,16.842-16.27339,7.959,7.959,0,0,1-1.92031,8.64041c5.6326-1.12271,8.34631-7.17852,9.78581-12.54291a9.37944,9.37944,0,0,0,.248,5.322A18.82852,18.82852,0,0,0,117.43992,94.28a5.5548,5.5548,0,0,0,4.93073,2.534,25.32949,25.32949,0,0,0-1.896-7.26236q1.76609,1.201,3.5319,2.40178Q123.14309,88.0216,122.2804,84.09Z"/><path class="cls-8" d="M606.13134,108.32559a4.77691,4.77691,0,0,0,2.8936-3.15843c-10.45059.31039-20.59914-4.629-29.58106-10.23963-7.77655-4.85762-15.566-9.69541-23.2846-14.6449-6.678-4.2822-12.96037-9.51951-20.41768-12.43488a91.66492,91.66492,0,0,0-16.90187-4.405,84.34551,84.34551,0,0,0-17.94026-1.64686c-3.48025.122-8.865.34185-11.11348,3.53966a4.28981,4.28981,0,0,0-.41992.73755c3.38691,3.31616,21.83463,2.05146,26.31469,3.68822C533.28955,76.19384,550.0687,86.23,563.05017,99.755c2.93053,3.05324,6.44479,2.59944,9.1039,3.94908C579.20343,93.05557,593.114,112.45092,606.13134,108.32559Z"/><path class="cls-9" d="M560.87811,94.57126c-1.48814-1.291-2.82219-2.35377-3.64172-3.14725-13.277-12.85143-29.00123-21.20419-46.21242-27.92721-6.47106-2.52743-17.87912-2.14458-24.41137.16954a12.50188,12.50188,0,0,0-2.36857,1.099,15.03877,15.03877,0,0,0-5.13477,3.628c-2.92082,3.45976-3.20643,9.19586-2.26189,15.42272-1.37619,4.22364-2.58721,8.38094-5.77121,12.0742a4.91257,4.91257,0,0,0,3.95025-1.52227,7.46658,7.46658,0,0,1-3.31585,5.99873,14.09075,14.09075,0,0,0,4.70715-2.65358,11.70417,11.70417,0,0,1-1.77749,4.64929,11.25672,11.25672,0,0,0,3.52146-2.426,49.25545,49.25545,0,0,1-.027,12.91979q1.60674-2.187,3.21245-4.37486a64.99352,64.99352,0,0,1-1.1257,9.799q1.03881-.807,2.07711-1.61381a11.4394,11.4394,0,0,1-.54031,8.94528,12.423,12.423,0,0,0,4.50447-7.9784q.5673,3.20464,1.13563,6.41032a11.79921,11.79921,0,0,0,2.1366-3.99616,5.09614,5.09614,0,0,0,.68521,2.78953c.2517-1.28939.52422-2.56079.83319-3.791-.89663,3.57013,9.11,3.61635,10.88,3.70159q1.9221.09234,3.78163.33754a33.49464,33.49464,0,0,1,12.00936,7.91419,39.535,39.535,0,0,1,11.06967,25.20187c3.35871-6.29225,8.02134-11.67385,12.92975-16.88629,3.63727-3.86313,7.40472-7.63633,10.89775-11.60371,6.87348-7.80718,16.48437-13.94406,19.53264-24.00727C570.508,101.50713,562.66668,96.12286,560.87811,94.57126Z"/><path class="cls-10" d="M354.22807,450.30394c-17.58278-.447-43.54758,1.11821-52.77652-18.416-8.74283,14.09412-24.3021,16.29223-39.15206,17.03979a170.22174,170.22174,0,0,1-33.41822-1.45859c10.51451,8.94368,19.48455,15.53314,26.52,16.45037,17.83126,2.32426,66.40627,17.40374,109.93143-13.47284C361.54017,450.46515,357.80962,450.39505,354.22807,450.30394Z"/><path class="cls-6" d="M205.87682,162.2325A156.592,156.592,0,0,1,223.469,171.868a127.231,127.231,0,0,0-9.11475-11.27128l13.93043,9.18469a95.3825,95.3825,0,0,0-17.58092-26.73327A51.77923,51.77923,0,0,1,235.6729,172.565l-1.66425-8.14158a11.60987,11.60987,0,0,1,3.90947,3.74511l-.62131-6.77644c.399,4.3521,4.09659,9.79388,5.18706,14.25638a71.00452,71.00452,0,0,1,2.02514,16.49278c.03332,6.89894-.08012,17.99906-4.625,23.5265-4.33148-5.12774-4.06754-15.22519-6.62823-21.59065C228.1388,181.35718,216.55883,170.43324,205.87682,162.2325Z"/><path class="cls-6" d="M389.64072,160.51789a156.59014,156.59014,0,0,0-17.60139,9.61857,127.2289,127.2289,0,0,1,9.12558-11.26252l-13.93926,9.1713a95.38238,95.38238,0,0,1,17.60661-26.71636,51.77922,51.77922,0,0,0-24.99754,29.49285l1.67208-8.14a11.61,11.61,0,0,0-3.91307,3.74135l.62782-6.77584c-.40321,4.35172-4.106,9.78993-5.20076,14.25138a71.00445,71.00445,0,0,0-2.041,16.49084c-.03995,6.8989.06281,17.99912,4.60242,23.53093,4.33641-5.12358,4.08217-15.22127,6.649-21.58428C367.36037,179.62116,378.95083,168.70835,389.64072,160.51789Z"/><path class="cls-11" d="M361.67687,230.3767c.02314.08893.04.17974.06316.26867C361.81747,230.47321,361.75968,230.40038,361.67687,230.3767Z"/><path class="cls-11" d="M417.9691,335.01722c-5.8944-10.69528-13.1752-20.2944-20.4177-29.92627-5.02146-6.67825-10.02468-13.3726-14.53468-20.4592C372.766,268.52408,367.90385,248.94448,362.79,230.64587c-.01741-.06232-.047-.17941-.06315-.2686-2.20229-12.19369-5.22981-24.79945-6.59125-37.34989-.70341-6.48442-1.22088-13.30042-.50086-19.80934.65834-5.95123,3.18526-11.5068,3.71707-17.49084a35.28722,35.28722,0,0,1,2.38718-4.578,16.33429,16.33429,0,0,0-2.10434.81376c.6036-9.4817,3.58748-21.12368,12.62091-22.99038a9.222,9.222,0,0,0-7.31219,1.53415q1.67651-2.63651,3.353-5.27249a17.82472,17.82472,0,0,0-8.20228,5.01952,18.58029,18.58029,0,0,1,7.11452-10.76371,18.81444,18.81444,0,0,0-9.69967,3.49726q1.082-2.8681,2.16374-5.73619l-6.69648,6.95495.10949-6.71876q-3.08923,2.6846-6.1782,5.36972a9.87845,9.87845,0,0,1,1.7922-7.62621q-3.94118,4.03125-7.88234,8.06277-.30688-2.8192-.614-5.63813a3.96988,3.96988,0,0,1-3.177,2.63915,9.31188,9.31188,0,0,1-.164-6.08653q-1.93333,2.13834-3.86641,4.27669a35.491,35.491,0,0,1,5.37728-25.91553,43.98629,43.98629,0,0,0-21.26409,25.75262,8.21951,8.21951,0,0,1-.12362-8.88192,11.90952,11.90952,0,0,0-5.59749,9.925,7.43579,7.43579,0,0,1-.18-10.22485c-3.913,2.59232-7.59586,4.31653-9.91538,8.47414q-.4246-4.18687-.84948-8.3732-1.83326,3.63777-3.667,7.27581-.69579-1.63673-1.39211-3.27344-.82008,1.69241-1.64014,3.38454-.22114-3.22573-.44228-6.4512-1.95066,3.24805-3.90107,6.49666a45.97466,45.97466,0,0,1-1.66571-21.46469,38.55236,38.55236,0,0,0-8.86215,23.22456q-.775-3.54433-1.54994-7.08893-1.39972,3.883-2.79918,7.76568a37.14407,37.14407,0,0,1-2.14013-16.312,64.84619,64.84619,0,0,0-11.86655,20.09567q-.92118-1.7267-1.84261-3.45365-.67755,2.65191-1.35561,5.30408-1.1874-2.1745-2.37533-4.349a6.99463,6.99463,0,0,1-1.12307,4.32205,6.90269,6.90269,0,0,0-.93464-4.06865q-.99894,4.00286-1.99762,8.00569a14.1859,14.1859,0,0,0-3.16918-5.46581l-.51477,6.21326a127.487,127.487,0,0,0-10.56444-21.86036,124.11174,124.11174,0,0,0,9.82093,30.34482,8.65179,8.65179,0,0,0-7.2318-5.33425q.45034,2.6887.90093,5.37741-2.09475-1.76794-4.18926-3.53589-.1814,2.69605-.36254,5.39212-2.5456-1.75164-5.091-3.50275a14.66073,14.66073,0,0,1,1.45155,6.41864,41.78565,41.78565,0,0,0-19.69852-9.9938c3.41827.689,8.38666,7.69067,10.53394,10.32821a69.76038,69.76038,0,0,1,8.39161,13.0745c9.18246,18.541,9.22711,38.248,6.41338,58.30843a160.369,160.369,0,0,1-7.18031,30.378c.06955-.02307.1404-.033.20995-.05551-13.93136,33.51136-35.84769,63.71064-35.84769,63.71064-18.99931,25.47137-41.0196,60.6339-31.01156,93.47093,12.7229,41.74276,59.26762,49.16949,95.62783,47.353,14.85012-.74209,30.40938-2.92425,39.152-16.91724,9.22923,19.39393,35.19383,17.84,52.77658,18.28417,20.51022.51784,45.75339.53239,61.07951-14.60182C441.562,407.23,436.38639,368.43452,417.9691,335.01722Z"/><path class="cls-6" d="M193.73183,272.46945l7.52305-2.08883-9.51024,11.985a2.93631,2.93631,0,0,0,4.20263-2.56851,39.25769,39.25769,0,0,1-19.604,22.31675,25.45639,25.45639,0,0,0,16.36421-3.94869c-7.89843,7.90519-4.55224,23.12906-13.278,30.11033A24.9822,24.9822,0,0,0,197.751,305.77a6.35038,6.35038,0,0,1,1.58766,5.60467,30.741,30.741,0,0,0,4.75114-14.53193c2.39887.339,3.23705,4.16759,1.19926,5.47791A24.532,24.532,0,0,0,209.89081,284.06a5.90248,5.90248,0,0,1,4.18412,4.9053,13.40793,13.40793,0,0,0-1.85271-12.15006,9.65682,9.65682,0,0,0,6.90848-11.934,13.83,13.83,0,0,1-13.40027,6.85088c6.588.7885,7.188-12.42151,4.26765-15.139C205.457,263.00266,201.41743,269.16358,193.73183,272.46945Z"/><path class="cls-6" d="M400.28825,272.56871l-7.521-2.09606,9.49872,11.9941a2.93632,2.93632,0,0,1-4.20016-2.57255,39.25771,39.25771,0,0,0,19.58252,22.33558,25.45642,25.45642,0,0,1-16.3604-3.96442c7.89082,7.91277,4.53,23.13343,13.24905,30.12308a24.98218,24.98218,0,0,1-18.29987-22.52307,6.35037,6.35037,0,0,0-1.59305,5.60314,30.74087,30.74087,0,0,1-4.73716-14.53649c-2.3992.33671-3.24106,4.16448-1.20454,5.47676a24.53212,24.53212,0,0,1-4.58418-18.26506,5.90248,5.90248,0,0,0-4.18884,4.90128,13.408,13.408,0,0,1,1.86439-12.14828,9.65682,9.65682,0,0,1-6.897-11.94066,13.83006,13.83006,0,0,0,13.39369,6.86376c-6.58874.78216-7.17609-12.42842-4.2531-15.14312C388.57215,263.09065,392.60583,269.25545,400.28825,272.56871Z"/><path class="cls-12" d="M154.77453,182.45476c4.84888-9.26642,12.06161-17.43777,21.189-22.54348C169.152,165.552,161.67,176.56053,160.00706,185.24672s.25421,15.17851,4.50062,22.93631c.46881.85646,3.22071,5.98182,3.2676,6.95708.0894,1.85946-2.36015,2.559-4.06135,1.8027-2.08022-.92478-6.42643-5.52985-12.41586-14.535C146.93893,195.85383,151.34972,188.9998,154.77453,182.45476Z"/><path class="cls-12" d="M235.10725,191.3269c-9.09243-26.1283-35.15816-28.56046-52.03337-19.61737s-31.77581,30.69829-31.77581,30.69829,22.68243,38.51945,49.9684,28.00927C201.26647,230.41709,245.29542,220.604,235.10725,191.3269Z"/><path class="cls-13" d="M162.54664,202.09854s1.8182-16.2171,13.67464-25.76043,26.54826-13.04547,40.78384-3.06071c13.988,9.81114,15.40144,17.6997,17.07519,19.3692s-.68905,17.21265-13.67251,27.43206C212.46623,226.32954,180.15708,248.046,162.54664,202.09854Z"/><path class="cls-14" d="M165.89647,201.74705s1.64964-14.71365,12.4069-23.37224,24.087-11.83606,37.00287-2.777c12.69126,8.90158,13.97362,16.05881,15.4922,17.57354s-.62517,15.61691-12.405,24.8889C211.18815,223.73166,181.87429,243.43479,165.89647,201.74705Z"/><path class="cls-15" d="M230.78245,193.56552a35.069,35.069,0,0,1-14.30181,16.28042c-7.4969,4.43286-36.40753,18.66622-48.12989-17.1336a38.00556,38.00556,0,0,0-1.54157,4.37808c10.314,43.43644,41.98015,27.791,49.873,23.12449,12.90463-7.63,16.89789-21.32388,15.59324-23.026A21.41425,21.41425,0,0,1,230.78245,193.56552Z"/><circle class="cls-16" cx="204.22366" cy="178.39209" r="4.22892"/><path class="cls-12" d="M362.64175,189.772c9.5467-25.96576,35.65089-27.943,52.36757-18.707S446.245,202.31279,446.245,202.31279s-23.35074,38.118-50.44927,27.1336C395.79568,229.44639,351.94456,218.86694,362.64175,189.772Z"/><path class="cls-13" d="M435.00347,201.8074s-1.53511-16.24634-13.22332-25.995-26.31671-13.50646-40.72425-3.77148c-14.157,9.56571-15.70778,17.42841-17.41038,19.06847s.38877,17.222,13.192,27.66633C384.66891,225.16415,416.59443,247.44071,435.00347,201.8074Z"/><path class="cls-14" d="M431.66028,201.39755s-1.39279-14.74019-11.99742-23.58506-23.877-12.25432-36.94881-3.42185c-12.84457,8.67891-14.25155,15.81268-15.79631,17.30069s.35273,15.62544,11.969,25.10145C385.9921,222.589,414.95789,242.80031,431.66028,201.39755Z"/><path class="cls-15" d="M368.93632,188.33244a35.06894,35.06894,0,0,0,11.70243,18.23861c6.74851,5.50558,33.20158,23.908,50.153-9.73263a38.00727,38.00727,0,0,1,.86854,4.55957c-16.70259,41.402-45.66861,21.1908-52.77357,15.39492-11.61647-9.47646-13.51395-23.614-11.9691-25.10156A21.41434,21.41434,0,0,0,368.93632,188.33244Z"/><circle class="cls-16" cx="393.74622" cy="177.37774" r="4.22892"/><path class="cls-12" d="M442.9577,182.25329c-4.84-9.27109-12.04485-17.44936-21.16737-22.56384,6.80615,5.64728,14.27753,16.663,15.93216,25.35076s-.2688,15.17826-4.52267,22.932c-.46963.856-3.22645,5.97873-3.27428,6.95394-.09119,1.85938,2.35769,2.56126,4.05961,1.80661,2.08111-.92278,6.43175-5.52368,12.42983-14.52306C450.78042,195.65988,446.37622,188.80161,442.9577,182.25329Z"/><circle class="cls-17" cx="238.92074" cy="336.95234" r="1.68015"/><circle class="cls-17" cx="240.59285" cy="353.6745" r="1.68015"/><circle class="cls-17" cx="214.20564" cy="375.01594" r="1.68015"/><circle class="cls-17" cx="225.97454" cy="358.70793" r="1.68015"/><circle class="cls-17" cx="224.30125" cy="344.42468" r="1.68015"/><circle class="cls-17" cx="215.89606" cy="353.66263" r="1.68015"/><circle class="cls-17" cx="247.28736" cy="368.31123" r="1.68015"/><circle class="cls-17" cx="229.94933" cy="371.6632" r="1.68015"/><circle class="cls-17" cx="219.2377" cy="392.49284" r="1.68015"/><circle class="cls-17" cx="250.64116" cy="381.84575" r="1.68015"/><circle class="cls-17" cx="237.21635" cy="387.38421" r="1.68015"/><circle class="cls-17" cx="347.23611" cy="390.50042" r="1.68015"/><circle class="cls-17" cx="346.38771" cy="368.95779" r="1.68015"/><circle class="cls-17" cx="368.5901" cy="354.11536" r="1.68015"/><circle class="cls-17" cx="360.18231" cy="368.74483" r="1.68015"/><circle class="cls-17" cx="361.8556" cy="383.02808" r="1.68015"/><circle class="cls-17" cx="370.2608" cy="373.79013" r="1.68015"/><circle class="cls-17" cx="335.49928" cy="379.75002" r="1.68015"/><circle class="cls-17" cx="353.73181" cy="352.42806" r="1.68015"/><circle class="cls-17" cx="366.91915" cy="334.95992" r="1.68015"/><circle class="cls-17" cx="346.40625" cy="330.39188" r="1.68015"/><circle class="cls-17" cx="357.09843" cy="339.28822" r="1.68015"/><path class="cls-18" d="M293.50822,404.90357c-17.278-1.7984-35.28215-11.32151-45.21169-22.68243-.03457-.03955-21.98835-25.17089-7.99718-41.81662,14.00219-16.65884,29.35114-17.05885,45.767-15.2898s55.18267-5.1438,62.85841,20.3112C357.78019,374.84525,322.0445,407.87357,293.50822,404.90357Z"/><path class="cls-19" d="M293.433,399.36471c-14.89442-1.55031-30.41486-9.75967-38.97459-19.55331-.0298-.0341-18.955-21.69849-6.89394-36.04789,12.07054-14.3607,25.30206-14.70553,39.45328-13.18052s47.57-4.43419,54.18689,17.5092C348.83846,373.453,318.03262,401.925,293.433,399.36471Z"/><path class="cls-20" d="M275.4554,374.47808c1.40829-3.77771-.9019-6.61239-5.96937-8.277-5.756-1.89079-22.50607,2.03859-22.50607,2.03859a54.39047,54.39047,0,0,0,9.19629,13.422C261.90148,382.87806,273.75426,379.04228,275.4554,374.47808Z"/><path class="cls-20" d="M313.50792,374.46406c-1.81914-3.59793.16194-6.67165,5.01318-8.88876,5.51042-2.51836,22.59325-.47356,22.59325-.47356a54.39077,54.39077,0,0,1-7.64873,14.36027C327.9109,381.30676,315.70544,378.81109,313.50792,374.46406Z"/><path class="cls-21" d="M149.93481,385.01789s32.49425-21.64029,69.491-24.3295"/><path class="cls-21" d="M147.358,419.27491s39.47559-38.28774,75.67132-46.40334"/><path class="cls-21" d="M169.3093,438.26462s19.8701-39.24177,55.51882-53.21075"/><path class="cls-21" d="M439.68049,385.15712s-32.47343-21.67151-69.46762-24.39627"/><path class="cls-21" d="M442.2244,419.41661s-39.43878-38.32567-75.6267-46.476"/><path class="cls-21" d="M420.25484,438.3852s-19.83238-39.26084-55.46765-53.26407"/></g></svg>