<svg id="Group_380" data-name="Group 380" xmlns="http://www.w3.org/2000/svg" width="37.535" height="32.954" viewBox="0 0 37.535 32.954">
  <path id="Path_735" data-name="Path 735" d="M11.717,32.951q-.646,0-1.31-.053C4.95,32.44.6,29.04.056,24.818c-.431-3.361,1.5-6.5,4.946-8.341C1.555,14.634-.375,11.5.056,8.135.6,3.909,4.95.509,10.413.051A13.385,13.385,0,0,1,21.028,3.558,10.006,10.006,0,0,0,28.14,6.386h8.013a1.25,1.25,0,0,1,1.379,1.065,1.253,1.253,0,0,1-1.379,1.065H28.14A13.079,13.079,0,0,1,18.834,4.85a10.264,10.264,0,0,0-8.128-2.681C6.541,2.52,3.215,5.117,2.8,8.344c-.4,3.121,1.861,5.993,5.624,7.143l3.24.99-3.24.99c-3.762,1.15-6.02,4.018-5.624,7.143.414,3.227,3.74,5.824,7.9,6.171A10.264,10.264,0,0,0,18.834,28.1a13.079,13.079,0,0,1,9.306-3.667h8.013A1.253,1.253,0,0,1,37.531,25.5a1.253,1.253,0,0,1-1.379,1.065H28.14a10,10,0,0,0-7.111,2.828A13.092,13.092,0,0,1,11.717,32.951Z" transform="translate(0.004 0.003)" fill="#4b443d"/>
</svg>
