<svg id="圖層_1" data-name="圖層 1" xmlns="http://www.w3.org/2000/svg" xmlns:xlink="http://www.w3.org/1999/xlink" viewBox="0 0 780.40247 1010.13161"><defs><style>.cls-1,.cls-16{fill:none;}.cls-2{fill:url(#未命名漸層_2);}.cls-3{fill:#070001;}.cls-4{fill:#333;}.cls-5{clip-path:url(#clip-path);}.cls-6{fill:#222323;}.cls-7{fill:#242526;}.cls-8{fill:#545354;}.cls-9{fill:#362b22;}.cls-10{fill:#d0d0d0;}.cls-11{fill:#fff;}.cls-12{fill:#a33e25;}.cls-13{fill:#141515;}.cls-14{fill:#343535;}.cls-15{fill:#1b1d1d;}.cls-16{stroke:#fff;stroke-linecap:round;stroke-linejoin:round;stroke-width:0.25px;}.cls-17{fill:#262727;}.cls-18{fill:#2a292a;}.cls-19{fill:#2c2d2d;}</style><radialGradient id="未命名漸層_2" cx="410.20986" cy="-499.58429" fx="373.38111621138745" fy="-513.4493184813525" r="541.35593" gradientTransform="matrix(1, 0, 0, -0.50142, 0, 595.01569)" gradientUnits="userSpaceOnUse"><stop offset="0" stop-color="#a09e9f"/><stop offset="0.99577" stop-color="#f6f7f5" stop-opacity="0"/></radialGradient><clipPath id="clip-path"><path class="cls-1" d="M443.79306,366.45369c33.31161,30.71114,53.59015,74.2421,67.79235,116.54026,16.84808,50.17833,17.95481,92.704,7.677,144.6835-15.43118,78.04253-26.22312,156.04345-41.6543,234.086,8.296,13.28811,18.71556,25.61767,23.38992,40.56853,7.42374,23.74467-10.00565,46.072-33.73434,47.95787-27.40491,2.178-42.56158-21.5889-55.23011-42.09278-34.79086-56.31429-22.30382-139.32557-27.31007-202.98182-1.221-15.52522-4.40547-31.77544-14.6557-43.4996s-39.73867-6.50335-52.01,3.08507c-9.21589,7.201-11.8789,19.86769-13.05867,31.50362-2.71223,26.75046-.9244,53.72947.86543,80.55744,2.073,31.07248,1.17481,67.1097.59535,98.24586a79.80967,79.80967,0,0,1-90.24761,77.63728c-4.001-.52851-8.09114-1.41542-11.38325-3.74974-6.17346-4.3774-8.06139-12.6854-8.30194-20.24948a74.23238,74.23238,0,0,1,12.64651-43.66276c4.09586-6.04325,9.0244-7.16143,8.14155-14.40833a924.91177,924.91177,0,0,0-34.55858-161.56575c-15.25039-49.26229-34.83517-98.42012-35.1989-149.9877-.49291-69.87765,35.292-136.38246,84.81834-185.68024,33.95171,2.60421,68.34692-2.47271,100.52235-13.61909,10.45726-3.62266,20.7133-7.95406,31.51048-10.39789a111.06507,111.06507,0,0,1,50.77449.68849C425.97154,352.8683,435.45574,358.76739,443.79306,366.45369Z"/></clipPath></defs><title>tree</title><ellipse class="cls-2" cx="356.84668" cy="870.12187" rx="356.84668" ry="140.00974"/><path class="cls-3" d="M779.9063,718.141l.02092-.12434c2.77023-16.53114-6.89471-32.24441-20.5436-12.83773q2.7521-3.52364,5.81178-6.78366c-69.15225,73.68021-136.43509,131.9034-240.185,150.186-33.878,5.96991-68.38073,7.28782-102.756,8.59257l-72.14452,2.73833c74.1786,37.43222,162.22337,49.29835,241.11262,23.21924a318.66693,318.66693,0,0,0,116.68013-69.55523c22.24614-20.75741,45.96686-41.90634,62.44045-67.77933C774.585,739.13478,778.20211,728.22355,779.9063,718.141Z"/><path class="cls-3" d="M507.69024,544.29095c33.25826,55.30257,44.90153,123.32649,34.71235,187.04985,12.38692-3.7148,25.84657,4.09547,33.00951,14.86246,10.88227,16.35773,10.46361,37.76882,6.532,57.01828-9.28115,45.4414-36.61643,88.63954-74.59926,115.25468,0,0-321.832,6.75118-327.3968,1.20871a235.091,235.091,0,0,1-65.98371-130.16879c-1.96015-12.88969-2.74776-26.53019,2.34857-38.53076s17.6022-21.71036,30.488-19.72488a279.637,279.637,0,0,1,26.87645-164.26113c44.98675,10.96831,94.09049,20.78432,140.27953,24.053s93.80917-1.5591,135.80459-21.06541c17.67458-8.20959,34.07965-18.87333,50.41629-29.49887,2.32109-1.50967,5.37318-3.034,7.66976-1.48731S509.28,546.55794,507.69024,544.29095Z"/><path class="cls-4" d="M443.79306,366.45369c33.31161,30.71114,53.59015,74.2421,67.79235,116.54026,16.84808,50.17833,17.95481,92.704,7.677,144.6835-15.43118,78.04253-26.22312,156.04345-41.6543,234.086,8.296,13.28811,18.71556,25.61767,23.38992,40.56853,7.42374,23.74467-10.00565,46.072-33.73434,47.95787-27.40491,2.178-42.56158-21.5889-55.23011-42.09278-34.79086-56.31429-22.30382-139.32557-27.31007-202.98182-1.221-15.52522-4.40547-31.77544-14.6557-43.4996s-39.73867-6.50335-52.01,3.08507c-9.21589,7.201-11.8789,19.86769-13.05867,31.50362-2.71223,26.75046-.9244,53.72947.86543,80.55744,2.073,31.07248,1.17481,67.1097.59535,98.24586a79.80967,79.80967,0,0,1-90.24761,77.63728c-4.001-.52851-8.09114-1.41542-11.38325-3.74974-6.17346-4.3774-8.06139-12.6854-8.30194-20.24948a74.23238,74.23238,0,0,1,12.64651-43.66276c4.09586-6.04325,9.0244-7.16143,8.14155-14.40833a924.91177,924.91177,0,0,0-34.55858-161.56575c-15.25039-49.26229-34.83517-98.42012-35.1989-149.9877-.49291-69.87765,35.292-136.38246,84.81834-185.68024,33.95171,2.60421,68.34692-2.47271,100.52235-13.61909,10.45726-3.62266,20.7133-7.95406,31.51048-10.39789a111.06507,111.06507,0,0,1,50.77449.68849C425.97154,352.8683,435.45574,358.76739,443.79306,366.45369Z"/><g class="cls-5"><path class="cls-6" d="M220.62406,640.39089a82.61456,82.61456,0,0,0-26.13078,33.08567,151.9615,151.9615,0,0,1,9.96685-52.996L187.44684,642.6293a432.68293,432.68293,0,0,1,17.041-94.43893A109.63625,109.63625,0,0,0,181.82116,587.871a251.56049,251.56049,0,0,1,52.19708-118.44632l-28.69766,16.78115,37.03954-76.81c10.71724-22.22464,21.45546-48.65351,9.97316-70.49272-59.95493,25.70212-97.42314,88.65544-109.29689,152.79752s-2.10451,130.12615,8.81209,194.438c4.676,27.54691,6.93192,58.78976,16.88679,84.5099C200.76362,744.88361,184.74545,667.264,220.62406,640.39089Z"/><path class="cls-6" d="M460.08641,600.84082a82.61459,82.61459,0,0,1,26.13078,33.08568,151.9615,151.9615,0,0,0-9.96685-52.996l17.01329,22.14873a432.68313,432.68313,0,0,0-17.041-94.43894,109.63633,109.63633,0,0,1,22.66667,39.68061,251.56053,251.56053,0,0,0-52.19708-118.44632l28.69766,16.78116-37.03954-76.81c-10.71724-22.22465-21.45546-48.65352-9.97316-70.49272,59.95493,25.70212,97.42314,88.65544,109.29689,152.79751s2.10451,130.12616-8.81209,194.438c-4.67595,27.54691-6.93192,58.78976-16.88679,84.50989C479.94685,705.33354,495.965,627.714,460.08641,600.84082Z"/></g><path class="cls-7" d="M103.14679,186.857s0,14.97524,21.62243,24.95873,7.20748,49.91745,21.62243,72.3803c0,0,4.805,84.85966,45.64736,104.82664s74.47727,64.89268,93.69721,67.38855,74.47727,19.967,120.12463-22.46285c0,0,69.67229-27.4546,79.28226-49.91745s52.85483-102.33077,55.25733-164.72758c0,0,7.20747-12.47936,26.42741-17.4711s2.4025,24.95872,24.02493,12.47936,23.4243-63.33276,45.94767-79.24395c0,0,30.63178-34.63023,0-60.83689S538.59857,12.458,538.59857,12.458,505.264,3.09845,489.04716,25.5613s-30.63178,19.655-36.03739,14.03928-129.7346-87.9795-248.658,2.80786c0,0-19.82057,1.8719-23.42431-12.16738S146.692-3.45322,119.66392,11.522L21.462,79.84653s-25.22617,21.52689,0,51.47736,39.64113,65.51665,43.24487,70.19641,11.71215,15.91119,23.4243-3.7438S103.14679,186.857,103.14679,186.857Z"/><path class="cls-3" d="M418.8677,155.23748a155.23512,155.23512,0,0,0-17.44437,9.54364,126.12865,126.12865,0,0,1,9.04118-11.16932l-13.81416,9.09851A94.55628,94.55628,0,0,1,414.09174,136.217a51.3308,51.3308,0,0,0-24.767,29.24933l1.65372-8.07028a11.50963,11.50963,0,0,0-3.8774,3.71082l.61916-6.71745c-.39765,4.31421-4.06577,9.70709-5.14892,14.13042a70.38934,70.38934,0,0,0-2.01546,16.349c-.03631,6.83917.07085,17.84321,4.57378,23.32494,4.29641-5.08127,4.03956-15.09138,6.5811-21.4005C396.78941,174.18591,408.27429,163.36209,418.8677,155.23748Z"/><path class="cls-3" d="M236.69619,157.02478a155.236,155.236,0,0,1,17.44437,9.54364,126.1301,126.1301,0,0,0-9.04118-11.16932l13.81416,9.09851a94.55623,94.55623,0,0,0-17.44139-26.49335,51.33082,51.33082,0,0,1,24.767,29.24932l-1.65372-8.07027a11.5095,11.5095,0,0,1,3.8774,3.71081l-.61917-6.71745c.39765,4.31422,4.06578,9.7071,5.14893,14.13043a70.38871,70.38871,0,0,1,2.01545,16.349c.03632,6.83917-.07084,17.84321-4.57377,23.32494-4.29641-5.08126-4.03956-15.09138-6.5811-21.4005C258.77447,175.97321,247.2896,165.1494,236.69619,157.02478Z"/><path class="cls-8" d="M247.49192,160.98394c-9.56939-4.43191-21.24566-4.53206-30.26312.99494-14.2232,8.71771-20.18661,29.43789-36.11233,34.06717l18.77844,21.01127c4.76853,5.33553,9.84386,10.87928,16.5374,13.11777,11.39291,3.81008,23.334-3.00874,33.38372-9.727,9.68954-6.47746,25.21161-13.3657,23.95734-26.6222C272.52427,180.624,258.53468,166.09824,247.49192,160.98394Z"/><path class="cls-8" d="M235.75924,248.0118a72.09937,72.09937,0,0,0,11.61653-18.12788c1.72083-3.84995,3.13078-8.15206,2.16237-12.27192s-5.20117-7.64872-9.10217-6.31c5.64708-7.13829,16.53687-6.3385,24.09162-11.25751,2.51366-1.63683,4.54341-4.21775,6.78349-5.90708,2.36061,10.78712-3.81552,24.352-9.84143,33.11683C254.49391,237.4006,242.87078,239.91494,235.75924,248.0118Z"/><path class="cls-3" d="M234.24363,166.17032c-7.8487-.685-15.54255,3.53226-20.85274,9.53069s-8.56686,13.60917-11.22933,21.25264a14.65469,14.65469,0,0,0-1.081,4.99231,14.06183,14.06183,0,0,0,1.8667,5.95071c3.59847,7.16152,8.472,14.12085,15.57908,17.4906,6.44066,3.05377,13.87347,2.76961,20.90743,1.86045a41.913,41.913,0,0,0,11.4-2.75493C283.57643,210.28116,262.13327,168.60456,234.24363,166.17032Z"/><path class="cls-9" d="M203.66368,193.167c.28.67255.5552,1.3494.87934,1.99482,3.59858,7.1615,8.47207,14.121,15.57947,17.49069,6.44074,3.05375,13.87319,2.76942,20.9076,1.86058a41.92479,41.92479,0,0,0,11.39958-2.75515c7.24856-3.14633,11.83191-7.64123,14.28722-12.75591,1.47683,10.44238-2.83984,20.85635-16.23775,26.67192a41.92446,41.92446,0,0,1-11.39957,2.75516c-7.03442.90883-14.46686,1.19317-20.90761-1.86058-7.1074-3.36971-11.98089-10.3292-15.57947-17.4907a14.061,14.061,0,0,1-1.86643-5.95052,14.64759,14.64759,0,0,1,1.081-4.9924C202.38685,196.46981,203.01218,194.81253,203.66368,193.167Z"/><path class="cls-10" d="M203.27528,205.58069c3.59854,7.16185,8.47207,14.121,15.57879,17.49059,6.44075,3.05376,13.87314,2.76977,20.90761,1.86058a41.89429,41.89429,0,0,0,11.40026-2.75505c9.47657-4.11328,14.39144-10.53159,15.94689-17.62872-.52,8.51415-5.37916,16.47067-16.45868,21.28a41.90559,41.90559,0,0,1-11.40021,2.7547c-7.03446.90919-14.46691,1.19353-20.90765-1.86023-7.10667-3.36995-11.98021-10.32909-15.57879-17.49059a14.051,14.051,0,0,1-1.86638-5.95087,11.13382,11.13382,0,0,1,.57055-3.346A14.66321,14.66321,0,0,0,203.27528,205.58069Z"/><ellipse class="cls-11" cx="237.7665" cy="175.63126" rx="4.27243" ry="4.40517"/><path class="cls-8" d="M405.3127,160.98394c9.56939-4.43191,21.24566-4.53206,30.26312.99494,14.2232,8.71771,20.18661,29.43789,36.11233,34.06717l-18.77844,21.01127c-4.76853,5.33553-9.84385,10.87928-16.5374,13.11777-11.39291,3.81008-23.334-3.00874-33.38371-9.727-9.68955-6.47746-25.21162-13.3657-23.95735-26.6222C380.28035,180.624,394.26994,166.09824,405.3127,160.98394Z"/><path class="cls-8" d="M417.04538,248.0118a72.09933,72.09933,0,0,1-11.61652-18.12788c-1.72083-3.84995-3.13079-8.15206-2.16238-12.27192s5.20117-7.64872,9.10217-6.31c-5.64708-7.13829-16.53686-6.3385-24.09162-11.25751-2.51366-1.63683-4.5434-4.21775-6.78349-5.90708-2.36061,10.78712,3.81552,24.352,9.84143,33.11683C398.31072,237.4006,409.93384,239.91494,417.04538,248.0118Z"/><path class="cls-3" d="M418.561,166.17032c7.8487-.685,15.54255,3.53226,20.85274,9.53069s8.56686,13.60917,11.22933,21.25264a14.65469,14.65469,0,0,1,1.081,4.99231,14.06169,14.06169,0,0,1-1.8667,5.95071c-3.59847,7.16152-8.472,14.12085-15.57908,17.4906-6.44065,3.05377-13.87347,2.76961-20.90742,1.86045a41.91278,41.91278,0,0,1-11.4-2.75493C369.22819,210.28116,390.67135,168.60456,418.561,166.17032Z"/><path class="cls-9" d="M449.14094,193.167c-.28.67255-.5552,1.3494-.87933,1.99482-3.59859,7.1615-8.47207,14.121-15.57948,17.49069-6.44074,3.05375-13.87318,2.76942-20.9076,1.86058A41.92479,41.92479,0,0,1,400.375,211.758c-7.24855-3.14633-11.83191-7.64123-14.28722-12.75591-1.47683,10.44238,2.83984,20.85635,16.23775,26.67192a41.92444,41.92444,0,0,0,11.39958,2.75516c7.03441.90883,14.46686,1.19317,20.9076-1.86058,7.1074-3.36971,11.98089-10.3292,15.57947-17.4907a14.0609,14.0609,0,0,0,1.86643-5.95052,14.64781,14.64781,0,0,0-1.081-4.9924C450.41777,196.46981,449.79245,194.81253,449.14094,193.167Z"/><path class="cls-10" d="M449.52934,205.58069c-3.59853,7.16185-8.47207,14.121-15.57879,17.49059-6.44075,3.05376-13.87314,2.76977-20.9076,1.86058a41.89411,41.89411,0,0,1-11.40026-2.75505c-9.47658-4.11328-14.39145-10.53159-15.9469-17.62872.52,8.51415,5.37916,16.47067,16.45868,21.28a41.90559,41.90559,0,0,0,11.40021,2.7547c7.03447.90919,14.46691,1.19353,20.90765-1.86023,7.10667-3.36995,11.98021-10.32909,15.57879-17.49059a14.05118,14.05118,0,0,0,1.86639-5.95087,11.13445,11.13445,0,0,0-.57055-3.346A14.6634,14.6634,0,0,1,449.52934,205.58069Z"/><ellipse class="cls-11" cx="415.03812" cy="175.63126" rx="4.27243" ry="4.40517"/><path class="cls-3" d="M383.8998,442.53056c-17.43071-.43478-43.16988,1.12926-52.32819-18.2314-8.6604,13.97621-24.08387,16.1627-38.80485,16.91086a168.74869,168.74869,0,0,1-33.12948-1.43c10.42771,8.86121,19.32319,15.38933,26.29811,16.29526,17.67794,2.29563,65.83942,17.22137,108.9729-13.40852C391.14864,442.68689,387.45037,442.61917,383.8998,442.53056Z"/><path class="cls-12" d="M314.38453,448.85011c31.14371,9.846,42.37023-9.51972,55.22355-32.10951-10.70581.06847-21.62381.10321-31.81625-3.46347-4.85282-1.69817-9.60035-4.22111-14.697-4.31492-5.75785-.106-11.13074,2.898-16.2232,5.82521-5.12562,2.94626-11.31937,5.50374-15.44073,9.71349-2.53567,2.59005,8.59086,13.91731,10.2591,15.49572C305.99814,444.07271,310.07038,447.48621,314.38453,448.85011Z"/><path class="cls-13" d="M247.97292,255.34462l-14.983,12.57153a24.0558,24.0558,0,0,0,11.88418-6.14855,70.67829,70.67829,0,0,1-23.97063,22.35724l12.51864-3.393A149.223,149.223,0,0,1,187.386,309.895c18.76818-1.41294,38.42679-3.11439,54.2175-13.35618,20.71557-13.436,30.98929-42.09823,22.64449-65.4985,2.20862,12.87409-16.97075,18.05-24.2084,26.6705A64.03,64.03,0,0,0,247.97292,255.34462Z"/><path class="cls-13" d="M404.62029,255.34462l14.983,12.57153a24.05571,24.05571,0,0,1-11.88418-6.14855,70.6781,70.6781,0,0,0,23.97063,22.35724l-12.51865-3.393A149.223,149.223,0,0,0,465.20725,309.895c-18.76818-1.41294-38.42678-3.11439-54.2175-13.35618-20.71557-13.436-30.98929-42.09823-22.64449-65.4985-2.20862,12.87409,16.97075,18.05,24.2084,26.6705A64.03,64.03,0,0,1,404.62029,255.34462Z"/><path class="cls-14" d="M92.77322,89.45271c-6.22671,9.04-11.30468,19.97548-9.01369,30.71109q-1.15764-4.13788-2.31526-8.27524A28.81229,28.81229,0,0,0,79.61,135.39877q-3.59451-2.11968-7.189-4.2391c1.45676,2.53783,2.9667,5.39247,2.31294,8.24452s-4.75678,4.77692-6.58973,2.49626a16.55307,16.55307,0,0,1-1.6504,12.85774q-2.90433-7.14021-5.80816-14.28041-.94578,4.593-1.891,9.18591a109.15607,109.15607,0,0,1-8.212-46.76739,22.22548,22.22548,0,0,1-6.72373,11.67777q-2.40318-6.31487-4.80635-12.62923-1.54222-8.30559-3.08418-16.61091c-.395,2.12446-4.81384,3.30829-6.42964.96282-1.94062-2.81668-.69688-6.606.21843-9.90189a14.50423,14.50423,0,0,0,.4756-2.662l-8.77072,6.10225s-25.22619,21.52674,0,51.47718C46.68824,161.263,61.10318,196.829,64.70684,201.50879c3.60393,4.67984,11.71238,15.91119,23.42449-3.74387s15.0155-10.91944,15.0155-10.91944a15.016,15.016,0,0,0,.45985,2.98089C116.82,142.70112,138.14887,100.084,151.36189,52.95875,131.09594,61.45088,105.23746,71.35639,92.77322,89.45271Z"/><path class="cls-15" d="M391.17932,224.50456c.023.08815.03976.17816.06274.26631C391.31874,224.60016,391.26142,224.528,391.17932,224.50456Z"/><path class="cls-15" d="M447.03385,328.212c-5.84845-10.59984-13.07076-20.11235-20.25511-29.65735-4.98116-6.618-9.94424-13.252-14.41855-20.27508-10.16964-15.96328-14.999-35.371-20.07721-53.50867-.0173-.06177-.04672-.17784-.06273-.26625-2.189-12.087-5.19633-24.58217-6.552-37.02326-.70041-6.42792-1.21664-13.18464-.506-19.63753.64979-5.9,3.15218-11.40865,3.67654-17.34112a34.98141,34.98141,0,0,1,2.36431-4.53949,16.19061,16.19061,0,0,0-2.08572.80772c.59386-9.39987,3.54635-20.94244,12.50065-22.79728A9.14214,9.14214,0,0,0,394.37,125.498q1.66073-2.61447,3.32146-5.22842a17.67035,17.67035,0,0,0-8.12885,4.98,18.41943,18.41943,0,0,1,7.04777-10.67388,18.6516,18.6516,0,0,0-9.614,3.47159q1.07126-2.84376,2.14226-5.68753l-6.63517,6.8979.10535-6.66062q-3.0612,2.66282-6.12213,5.32615a9.79286,9.79286,0,0,1,1.773-7.561q-3.90512,3.99822-7.81023,7.99669-.30557-2.79463-.61141-5.589a3.9355,3.9355,0,0,1-3.14821,2.61781,9.23129,9.23129,0,0,1-.1655-6.03374q-1.91558,2.12075-3.83088,4.24149a35.18356,35.18356,0,0,1,5.31836-25.69364,43.60535,43.60535,0,0,0-21.06766,25.53971,8.14833,8.14833,0,0,1-.12678-8.80493,11.80636,11.80636,0,0,0-5.54428,9.84167,7.37138,7.37138,0,0,1-.18332-10.13621c-3.87788,2.57174-7.528,4.28276-9.82546,8.40547q-.42294-4.1504-.84612-8.30028-1.81565,3.60714-3.63181,7.21455-.69056-1.62222-1.38162-3.24443-.81216,1.67814-1.62432,3.356-.22075-3.19768-.44152-6.39511-1.93223,3.22084-3.86419,6.44225a45.57648,45.57648,0,0,1-1.6615-21.278,38.2184,38.2184,0,0,0-8.77434,23.02763q-.76995-3.51327-1.5399-7.0268-1.38574,3.85-2.77123,7.69976a36.82238,36.82238,0,0,1-2.12936-16.16968,64.28456,64.28456,0,0,0-11.7542,19.92728q-.914-1.71129-1.8283-3.42285-.67041,2.62924-1.34134,5.25877-1.17816-2.15509-2.35683-4.31019a6.934,6.934,0,0,1-1.11129,4.28516,6.84288,6.84288,0,0,0-.92848-4.033q-.98838,3.96864-1.9765,7.9373a14.06339,14.06339,0,0,0-3.14433-5.417l-.50736,6.1597a126.38239,126.38239,0,0,0-10.48336-21.666,123.03745,123.03745,0,0,0,9.75033,30.07733,8.57684,8.57684,0,0,0-7.1717-5.28461q.44771,2.6652.89569,5.33041-2.07747-1.75163-4.15467-3.50327-.17855,2.67279-.35683,5.34559-2.5244-1.73526-5.04854-3.47a14.53376,14.53376,0,0,1,1.442,6.36236,41.42362,41.42362,0,0,0-19.53266-9.89786c3.389.68142,8.31769,7.62006,10.44763,10.23374a69.15574,69.15574,0,0,1,8.32515,12.95726c9.11176,18.376,9.16542,37.91235,6.38562,57.80037a158.979,158.979,0,0,1-7.10366,30.11833c.06894-.0229.13917-.03275.20811-.05512-13.79474,33.22774-35.50686,63.17591-35.50686,63.17591-18.82263,25.25982-40.63545,60.12829-30.69844,92.67615,12.63259,41.37516,58.77772,48.7154,94.82215,46.89732,14.72115-.74273,30.1446-2.9134,38.80482-16.78937,9.15854,19.22156,34.89751,17.66872,52.3282,18.10067,20.33282.50359,45.35737.506,60.54354-14.50445C470.45679,399.788,465.30755,361.33107,447.03385,328.212Z"/><circle class="cls-3" cx="271.84698" cy="326.79962" r="1.6656"/><circle class="cls-3" cx="273.51258" cy="343.37615" r="1.6656"/><circle class="cls-3" cx="247.36407" cy="364.54532" r="1.6656"/><circle class="cls-3" cx="259.02327" cy="348.37295" r="1.6656"/><circle class="cls-3" cx="257.35767" cy="334.2142" r="1.6656"/><circle class="cls-3" cx="249.02967" cy="343.37615" r="1.6656"/><circle class="cls-3" cx="280.15608" cy="357.88292" r="1.6656"/><circle class="cls-3" cx="262.96981" cy="361.21412" r="1.6656"/><circle class="cls-3" cx="252.36087" cy="381.86846" r="1.6656"/><circle class="cls-3" cx="283.48728" cy="371.29862" r="1.6656"/><circle class="cls-3" cx="270.18138" cy="376.79551" r="1.6656"/><circle class="cls-3" cx="379.24974" cy="379.83232" r="1.6656"/><circle class="cls-3" cx="378.39843" cy="358.47668" r="1.6656"/><circle class="cls-3" cx="400.40145" cy="343.75221" r="1.6656"/><circle class="cls-3" cx="392.07345" cy="358.25899" r="1.6656"/><circle class="cls-3" cx="393.73905" cy="372.41773" r="1.6656"/><circle class="cls-3" cx="402.06705" cy="363.25578" r="1.6656"/><circle class="cls-3" cx="367.60944" cy="369.18062" r="1.6656"/><circle class="cls-3" cx="385.67104" cy="342.08661" r="1.6656"/><circle class="cls-3" cx="398.73585" cy="324.76348" r="1.6656"/><circle class="cls-3" cx="378.39843" cy="320.24477" r="1.6656"/><circle class="cls-3" cx="389.00224" cy="329.05897" r="1.6656"/><path class="cls-16" d="M183.65466,374.49126s32.20251-21.46834,68.87758-24.15188"/><path class="cls-16" d="M181.11647,408.45281s39.11545-37.97494,74.99383-46.03749"/><path class="cls-16" d="M202.88671,427.26759s19.67931-38.91137,55.01262-52.77633"/><path class="cls-16" d="M470.89091,374.49126s-32.2025-21.46834-68.87758-24.15188"/><path class="cls-16" d="M473.4291,408.45281s-39.11545-37.97494-74.99383-46.03749"/><path class="cls-16" d="M451.65886,427.26759s-19.67931-38.91137-55.01261-52.77633"/><path class="cls-17" d="M323.68422,397.55232c-17.12919-1.77459-34.982-11.20664-44.83092-22.46443-.03429-.0392-21.8099-24.94242-7.94784-41.45065,13.873-16.52123,29.08881-16.92508,45.36332-15.17917s54.70228-5.12553,62.32366,20.10534C387.38521,367.72372,351.97476,400.483,323.68422,397.55232Z"/><path class="cls-3" d="M323.607,392.06147c-14.76616-1.52978-30.15609-9.66065-38.64634-19.36539-.02956-.03379-18.80116-21.50153-6.85141-35.7324,11.95916-14.24207,25.07591-14.59021,39.1053-13.08516s47.15592-4.41844,53.72591,17.33174C378.52026,366.34782,347.99479,394.58785,323.607,392.06147Z"/><path class="cls-18" d="M305.77326,367.399c1.39429-3.74566-.89724-6.55469-5.92161-8.20246-5.70707-1.87167-22.31017,2.03166-22.31017,2.03166a53.91941,53.91941,0,0,0,9.123,13.30133C292.34073,375.73263,304.089,371.92443,305.77326,367.399Z"/><path class="cls-18" d="M343.4962,367.36692c-1.80509-3.5659.15736-6.61394,4.96553-8.81416,5.46149-2.49917,22.39734-.48023,22.39734-.48023a53.91934,53.91934,0,0,1-7.57564,14.23955C357.7777,374.14349,345.67676,371.67526,343.4962,367.36692Z"/><path class="cls-19" d="M138.55593,96.692c3.69068-8.01833,6.01653-15.7937,14.24994-19.73484,1.21663-.58223,13.68656-5.18022,14.0532-3.46811-.0062-.02944-3.65815-17.31605-15.72322-19.99743-12.07592-2.68345-42.93676,56.35453-46.29127,83.18982-3.354,26.83554-34.59284,69.20375-31.1144,71.78961v.00025c3.79448.42835,8.44514-1.90885,13.88434-10.69533,11.71237-18.91971,15.01575-10.511,15.01575-10.511,8.408-12.197,11.43972-28.00027,16.2484-41.7914Q127.54018,120.62966,138.55593,96.692Z"/><path class="cls-3" d="M171.72146,88.78639a11.13515,11.13515,0,0,0,5.43128.87223,48.69376,48.69376,0,0,1-8.623-15.45552c-2.17007-11.2314-7.45907-19.95331-18.71252-14.92668-24.32239,10.864-38.121,109.276-38.121,109.276,22.65581.566,42.20756-34.65939,51.19052-52.61547a9.65047,9.65047,0,0,1,.48414,10.36027c5.77772-2.99529,6.92227-10.67555,6.89024-17.18358a11.33068,11.33068,0,0,0,1.85053,5.9431,22.86807,22.86807,0,0,0-2.61392-13.26307,6.07256,6.07256,0,0,0,6.10278,1.35527,30.1102,30.1102,0,0,0-4.21534-7.63237q2.273.81714,4.54572,1.63428Q173.82607,92.96851,171.72146,88.78639Z"/><path class="cls-19" d="M512.88371,51.18859c-7.75524-4.6961-12.27267,10.47148-12.27267,10.47148s58.67095,69.27669,63.33474,95.81144c2.64936,15.07358,5.20794,20.51581,5.84888,35.34174,11.83321-.89543,4.76737,15.6659,13.11852,15.37671C588.92661,138.03269,520.451,55.77031,512.88371,51.18859Z"/><path class="cls-3" d="M536.31158,90.84218a104.80372,104.80372,0,0,0-18.35581-23.95251c-14.08831-14.08727-24.1508-.00077-24.15183.00026-3.09838,4.338-2.88666,11.09632-1.18565,18.31321-1.21146,5.087-2.237,10.08056-5.62148,14.71779a5.7853,5.7853,0,0,0,4.49057-2.16266,8.79285,8.79285,0,0,1-3.31939,7.355,16.58665,16.58665,0,0,0,5.27034-3.56209,13.77174,13.77174,0,0,1-1.64317,5.62484,13.24775,13.24775,0,0,0,3.90188-3.18229,58.023,58.023,0,0,1,1.19856,15.16344q1.677-2.72,3.353-5.43971a76.55148,76.55148,0,0,1-.3873,11.60548l2.2835-2.0914a13.4698,13.4698,0,0,1,.21844,10.54816,14.62679,14.62679,0,0,0,4.52517-9.79138q.97134,3.70682,1.94372,7.41389a13.89175,13.89175,0,0,0,2.12577-4.89256c-.52121,2.12135,5.66745,10.08866,6.87237,12.06461a109.04776,109.04776,0,0,0,8.77449,12.58621c6.45535,7.846,14.84685,13.687,23.86767,18.21823,1.56107.78413,17.07063,8.35169,16.92462,4.79041C566.2597,146.42905,548.24961,112.741,536.31158,90.84218Z"/></svg>