<svg xmlns="http://www.w3.org/2000/svg" xmlns:xlink="http://www.w3.org/1999/xlink" width="440.25" height="569.874" viewBox="0 0 440.25 569.874">
  <defs>
    <linearGradient id="linear-gradient" y1="0.5" x2="1" y2="0.5" gradientUnits="objectBoundingBox">
      <stop offset="0.058" stop-color="#ffc727"/>
      <stop offset="1" stop-color="#ffaa2e"/>
    </linearGradient>
    <linearGradient id="linear-gradient-2" y1="0.5" x2="1" y2="0.5" gradientUnits="objectBoundingBox">
      <stop offset="0.043" stop-color="#ba532b"/>
      <stop offset="1" stop-color="#b34518"/>
    </linearGradient>
    <linearGradient id="linear-gradient-3" x1="0.5" y1="-0.278" x2="0.5" y2="0.818" xlink:href="#linear-gradient"/>
  </defs>
  <g id="Group_597" data-name="Group 597" transform="translate(-245.67 -101.96)">
    <g id="Group_149" data-name="Group 149" transform="translate(274.55 101.96)">
      <rect id="Rectangle_37" data-name="Rectangle 37" width="388.19" height="428.1" transform="translate(7.63 10.04)" fill="#d4d4d4" opacity="0.35"/>
      <g id="Group_148" data-name="Group 148">
        <rect id="Rectangle_38" data-name="Rectangle 38" width="372.13" height="413.49" transform="translate(7.15 7.14)" fill="#a4d3d8"/>
        <path id="Path_189" data-name="Path 189" d="M285.2,247.1V405.58H556.12l97.71,82.48V247.1Z" transform="translate(-274.55 -239.96)" fill="#b7e3e5"/>
        <g id="Group_145" data-name="Group 145" transform="translate(10.65 10.46)">
          <g id="Group_143" data-name="Group 143" transform="translate(0 236.65)">
            <rect id="Rectangle_39" data-name="Rectangle 39" width="372.13" height="11.38" fill="#efdacf"/>
          </g>
          <rect id="Rectangle_40" data-name="Rectangle 40" width="2.53" height="203.73" transform="translate(31.75)" fill="#d4d4d4" opacity="0.63"/>
          <g id="Group_144" data-name="Group 144" transform="translate(2.34 16.4)" opacity="0.63">
            <rect id="Rectangle_41" data-name="Rectangle 41" width="368.19" height="2.53" transform="translate(0 15.34)" fill="#d4d4d4"/>
            <rect id="Rectangle_42" data-name="Rectangle 42" width="368.19" height="2.53" fill="#d4d4d4"/>
            <rect id="Rectangle_43" data-name="Rectangle 43" width="368.19" height="2.53" transform="translate(0 33.22)" fill="#d4d4d4"/>
            <rect id="Rectangle_44" data-name="Rectangle 44" width="368.19" height="2.53" transform="translate(0 67.55)" fill="#d4d4d4"/>
            <rect id="Rectangle_45" data-name="Rectangle 45" width="368.19" height="2.53" transform="translate(0 85.68)" fill="#d4d4d4"/>
            <rect id="Rectangle_46" data-name="Rectangle 46" width="368.19" height="2.53" transform="translate(0 104.87)" fill="#d4d4d4"/>
            <rect id="Rectangle_47" data-name="Rectangle 47" width="368.19" height="2.53" transform="translate(0 51.01)" fill="#d4d4d4"/>
          </g>
        </g>
        <path id="Path_190" data-name="Path 190" d="M649.89,488.06H295.39V247.1H281.7V660.59h13.69V505.01h354.5Z" transform="translate(-274.55 -239.96)" fill="#d4d4d4" opacity="0.63"/>
        <g id="Group_147" data-name="Group 147">
          <g id="Group_146" data-name="Group 146">
            <path id="Path_191" data-name="Path 191" d="M660.97,667.74H274.55V239.96H660.97ZM288.84,653.45H646.68V254.25H288.84Z" transform="translate(-274.55 -239.96)" fill="#fff"/>
            <rect id="Rectangle_48" data-name="Rectangle 48" width="372.13" height="11.38" transform="translate(7.15 246.14)" fill="#fff"/>
          </g>
          <rect id="Rectangle_49" data-name="Rectangle 49" width="4.88" height="222.6" transform="translate(38.11 7.14)" fill="#fff"/>
          <rect id="Rectangle_50" data-name="Rectangle 50" width="368.19" height="4.88" transform="translate(7.15 21.76)" fill="#fff"/>
          <rect id="Rectangle_51" data-name="Rectangle 51" width="368.19" height="4.88" transform="translate(7.15 37.56)" fill="#fff"/>
          <rect id="Rectangle_52" data-name="Rectangle 52" width="368.19" height="4.88" transform="translate(7.15 55.18)" fill="#fff"/>
          <rect id="Rectangle_53" data-name="Rectangle 53" width="368.19" height="4.88" transform="translate(7.15 73.11)" fill="#fff"/>
          <rect id="Rectangle_54" data-name="Rectangle 54" width="368.19" height="4.88" transform="translate(7.15 89.76)" fill="#fff"/>
          <rect id="Rectangle_55" data-name="Rectangle 55" width="368.19" height="4.88" transform="translate(7.15 107.9)" fill="#fff"/>
          <rect id="Rectangle_56" data-name="Rectangle 56" width="368.19" height="4.88" transform="translate(7.15 127)" fill="#fff"/>
          <rect id="Rectangle_57" data-name="Rectangle 57" width="368.19" height="4.88" transform="translate(7.15 281.08)" fill="#fff"/>
          <rect id="Rectangle_58" data-name="Rectangle 58" width="368.19" height="4.88" transform="translate(7.15 296.87)" fill="#fff"/>
          <rect id="Rectangle_59" data-name="Rectangle 59" width="368.19" height="4.88" transform="translate(7.15 314.5)" fill="#fff"/>
          <rect id="Rectangle_60" data-name="Rectangle 60" width="368.19" height="4.88" transform="translate(7.15 332.42)" fill="#fff"/>
          <rect id="Rectangle_61" data-name="Rectangle 61" width="368.19" height="4.88" transform="translate(7.15 349.08)" fill="#fff"/>
          <rect id="Rectangle_62" data-name="Rectangle 62" width="368.19" height="4.88" transform="translate(7.15 367.22)" fill="#fff"/>
          <rect id="Rectangle_63" data-name="Rectangle 63" width="368.19" height="4.88" transform="translate(7.15 386.31)" fill="#fff"/>
        </g>
      </g>
    </g>
    <g id="Group_174" data-name="Group 174" transform="translate(245.67 456.364)">
      <g id="Group_166" data-name="Group 166" transform="translate(17.75)">
        <path id="Path_205" data-name="Path 205" d="M287.02,732.49a144.258,144.258,0,0,1-3.96-25.22c-.92-13.11-.28-31.68,7.94-45.72,5.76-9.84,14.49-16.3,25.92-19.18l.86,3.42c-10.48,2.64-18.47,8.54-23.74,17.54-14.93,25.48-3.74,67.83-3.63,68.25Z" transform="translate(-263.42 -640.989)" fill="#74b725"/>
        <path id="Path_206" data-name="Path 206" d="M285.71,697.78s-5.49-23.4-22.29-15.55C263.42,682.23,267.65,705.23,285.71,697.78Z" transform="translate(-263.42 -640.989)" fill="#74b725"/>
        <path id="Path_207" data-name="Path 207" d="M311.83,682.65s-21.29-5.6-27.61,11.83C284.22,694.48,304.33,700.69,311.83,682.65Z" transform="translate(-263.42 -640.989)" fill="#74b725"/>
        <path id="Path_208" data-name="Path 208" d="M287.12,673.92s8.53-20.92-7.6-30.05C279.52,643.88,270.58,663.53,287.12,673.92Z" transform="translate(-263.42 -640.989)" fill="#74b725"/>
        <path id="Path_209" data-name="Path 209" d="M289.2,668.2s17.93,11.17,28.51-4.05C317.71,664.15,301.07,652.69,289.2,668.2Z" transform="translate(-263.42 -640.989)" fill="#74b725"/>
        <path id="Path_210" data-name="Path 210" d="M304.82,649.12s17.93,11.17,28.51-4.05C333.33,645.07,316.69,633.6,304.82,649.12Z" transform="translate(-263.42 -640.989)" fill="#74b725"/>
      </g>
      <g id="Group_167" data-name="Group 167" transform="translate(12.332 64.231)">
        <path id="Path_211" data-name="Path 211" d="M311.72,719.39l-10.74-14.17H270.51l-10.74,14.17a8.7,8.7,0,0,0-.6,9.61l7.52,13.01h38.1L312.31,729A8.678,8.678,0,0,0,311.72,719.39Z" transform="translate(-258.002 -705.22)" fill="#8a8a8a"/>
      </g>
      <g id="Group_173" data-name="Group 173" transform="translate(0 101.591)">
        <path id="Path_212" data-name="Path 212" d="M245.67,742.58V856.46H685.92V742.58Zm30.12,53.37v-46.2h380v46.2Zm0,53.36v-46.2h380v46.2Z" transform="translate(-245.67 -742.58)" fill="#fff"/>
        <g id="Group_168" data-name="Group 168" transform="translate(148.12 14.16)">
          <path id="Path_213" data-name="Path 213" d="M401.75,795.86h-7.28a.681.681,0,0,1-.68-.68V757.42a.681.681,0,0,1,.68-.68h7.28a.681.681,0,0,1,.68.68v37.76A.674.674,0,0,1,401.75,795.86Z" transform="translate(-393.79 -756.74)" fill="#586066"/>
          <path id="Path_214" data-name="Path 214" d="M411.84,795.86h-7.28a.681.681,0,0,1-.68-.68V757.42a.681.681,0,0,1,.68-.68h7.28a.681.681,0,0,1,.68.68v37.76A.668.668,0,0,1,411.84,795.86Z" transform="translate(-393.79 -756.74)" fill="#ccc6ac"/>
          <path id="Path_215" data-name="Path 215" d="M421.73,795.86h-7.28a.681.681,0,0,1-.68-.68V757.42a.681.681,0,0,1,.68-.68h7.28a.681.681,0,0,1,.68.68v37.76A.681.681,0,0,1,421.73,795.86Z" transform="translate(-393.79 -756.74)" fill="#8a8a8a"/>
          <path id="Path_216" data-name="Path 216" d="M449.64,791.74l-5.37,3.01a1.248,1.248,0,0,1-1.67-.43l-18.93-31.83a1.161,1.161,0,0,1,.45-1.62l5.37-3.01a1.248,1.248,0,0,1,1.67.43l18.93,31.83A1.18,1.18,0,0,1,449.64,791.74Z" transform="translate(-393.79 -756.74)" fill="#ccc6ac"/>
          <path id="Path_217" data-name="Path 217" d="M461.62,791.74l-5.37,3.01a1.248,1.248,0,0,1-1.67-.43l-18.93-31.83a1.161,1.161,0,0,1,.45-1.62l5.37-3.01a1.248,1.248,0,0,1,1.67.43l18.93,31.83A1.18,1.18,0,0,1,461.62,791.74Z" transform="translate(-393.79 -756.74)" fill="#ccc6ac"/>
        </g>
        <g id="Group_169" data-name="Group 169" transform="translate(41.36 13.88)">
          <path id="Path_218" data-name="Path 218" d="M294.99,795.58h-7.28a.681.681,0,0,1-.68-.68V757.14a.681.681,0,0,1,.68-.68h7.28a.681.681,0,0,1,.68.68V794.9A.674.674,0,0,1,294.99,795.58Z" transform="translate(-287.03 -756.46)" fill="#586066"/>
          <path id="Path_219" data-name="Path 219" d="M305.08,795.58H297.8a.681.681,0,0,1-.68-.68V757.14a.681.681,0,0,1,.68-.68h7.28a.681.681,0,0,1,.68.68V794.9A.674.674,0,0,1,305.08,795.58Z" transform="translate(-287.03 -756.46)" fill="#ccc6ac"/>
          <path id="Path_220" data-name="Path 220" d="M314.96,795.58h-7.28a.681.681,0,0,1-.68-.68V757.14a.681.681,0,0,1,.68-.68h7.28a.681.681,0,0,1,.68.68V794.9A.674.674,0,0,1,314.96,795.58Z" transform="translate(-287.03 -756.46)" fill="#8a8a8a"/>
        </g>
        <g id="Group_170" data-name="Group 170" transform="translate(76.94 13.88)">
          <path id="Path_221" data-name="Path 221" d="M330.57,795.58h-7.28a.681.681,0,0,1-.68-.68V757.14a.681.681,0,0,1,.68-.68h7.28a.681.681,0,0,1,.68.68V794.9A.681.681,0,0,1,330.57,795.58Z" transform="translate(-322.61 -756.46)" fill="#586066"/>
          <path id="Path_222" data-name="Path 222" d="M340.66,795.58h-7.28a.681.681,0,0,1-.68-.68V757.14a.681.681,0,0,1,.68-.68h7.28a.681.681,0,0,1,.68.68V794.9A.674.674,0,0,1,340.66,795.58Z" transform="translate(-322.61 -756.46)" fill="#ccc6ac"/>
          <path id="Path_223" data-name="Path 223" d="M350.54,795.58h-7.28a.681.681,0,0,1-.68-.68V757.14a.681.681,0,0,1,.68-.68h7.28a.681.681,0,0,1,.68.68V794.9A.674.674,0,0,1,350.54,795.58Z" transform="translate(-322.61 -756.46)" fill="#8a8a8a"/>
        </g>
        <g id="Group_171" data-name="Group 171" transform="translate(112.52 13.88)">
          <path id="Path_224" data-name="Path 224" d="M366.15,795.58h-7.28a.681.681,0,0,1-.68-.68V757.14a.681.681,0,0,1,.68-.68h7.28a.681.681,0,0,1,.68.68V794.9A.681.681,0,0,1,366.15,795.58Z" transform="translate(-358.19 -756.46)" fill="#586066"/>
          <path id="Path_225" data-name="Path 225" d="M376.24,795.58h-7.28a.681.681,0,0,1-.68-.68V757.14a.681.681,0,0,1,.68-.68h7.28a.681.681,0,0,1,.68.68V794.9A.681.681,0,0,1,376.24,795.58Z" transform="translate(-358.19 -756.46)" fill="#ccc6ac"/>
          <path id="Path_226" data-name="Path 226" d="M386.12,795.58h-7.28a.681.681,0,0,1-.68-.68V757.14a.681.681,0,0,1,.68-.68h7.28a.681.681,0,0,1,.68.68V794.9A.674.674,0,0,1,386.12,795.58Z" transform="translate(-358.19 -756.46)" fill="#8a8a8a"/>
        </g>
        <g id="Group_172" data-name="Group 172" transform="translate(307.52 80.79)">
          <path id="Path_227" data-name="Path 227" d="M610.46,841.77H553.19v.85h3.17v7.51h-3.17v.85h57.27a4.6,4.6,0,0,0,0-9.21Z" transform="translate(-553.19 -823.37)" fill="url(#linear-gradient)"/>
          <path id="Path_228" data-name="Path 228" d="M581.65,842.62a3.75,3.75,0,0,1,0,7.5H555.03a9.109,9.109,0,0,0,0-7.51h26.62Z" transform="translate(-553.19 -823.37)" fill="#f9f7f6"/>
          <path id="Path_229" data-name="Path 229" d="M555.52,848.77h29.03c.07-.09.14-.18.2-.27H555.59A2.107,2.107,0,0,0,555.52,848.77Zm.32-2.26H585.4c0-.05.01-.09.01-.14s-.01-.09-.01-.14H555.84Zm-.09,1.13h29.43l.09-.27H555.79C555.78,847.46,555.76,847.55,555.75,847.64Zm29-3.39c-.06-.09-.13-.18-.2-.27H555.52c.02.09.05.18.07.27Zm-28.96,1.13h29.48a2.845,2.845,0,0,0-.09-.27H555.75C555.76,845.2,555.78,845.29,555.79,845.38Z" transform="translate(-553.19 -823.37)" fill="#eae5d8"/>
          <path id="Path_230" data-name="Path 230" d="M616.59,832.57H559.32v.85h3.17v7.51h-3.17v.85h57.27a4.6,4.6,0,0,0,0-9.21Z" transform="translate(-553.19 -823.37)" fill="url(#linear-gradient-2)"/>
          <path id="Path_231" data-name="Path 231" d="M587.78,833.42a3.75,3.75,0,0,1,0,7.5H561.16a9.109,9.109,0,0,0,0-7.51h26.62Z" transform="translate(-553.19 -823.37)" fill="#f9f7f6"/>
          <path id="Path_232" data-name="Path 232" d="M561.64,839.57h29.03c.07-.09.14-.18.2-.27H561.71C561.69,839.38,561.67,839.48,561.64,839.57Zm.33-2.26h29.56c0-.05.01-.09.01-.14s-.01-.09-.01-.14H561.97Zm-.09,1.13h29.43l.09-.27H561.92C561.91,838.26,561.89,838.35,561.88,838.44Zm29-3.39c-.06-.09-.13-.18-.2-.27H561.65c.02.09.05.18.07.27Zm-28.96,1.13H591.4a2.845,2.845,0,0,0-.09-.27H561.88C561.89,836,561.91,836.09,561.92,836.18Z" transform="translate(-553.19 -823.37)" fill="#eae5d8"/>
          <path id="Path_233" data-name="Path 233" d="M612.79,823.37H555.51v.85h3.17v7.51h-3.17v.85h57.27a4.6,4.6,0,0,0,.01-9.21Z" transform="translate(-553.19 -823.37)" fill="url(#linear-gradient-3)"/>
          <path id="Path_234" data-name="Path 234" d="M583.98,824.22a3.75,3.75,0,0,1,0,7.5H557.36a9.109,9.109,0,0,0,0-7.51h26.62Z" transform="translate(-553.19 -823.37)" fill="#f9f7f6"/>
          <path id="Path_235" data-name="Path 235" d="M557.84,830.37h29.03c.07-.09.14-.18.2-.27H557.91A2.708,2.708,0,0,1,557.84,830.37Zm.33-2.26h29.56c0-.05.01-.09.01-.14s-.01-.09-.01-.14H558.17Zm-.09,1.13h29.43l.09-.27H558.12A2.5,2.5,0,0,0,558.08,829.24Zm28.99-3.39c-.06-.09-.13-.18-.2-.27H557.84c.02.09.05.18.07.27Zm-28.96,1.13h29.48a2.845,2.845,0,0,0-.09-.27H558.07A2.5,2.5,0,0,1,558.11,826.98Z" transform="translate(-553.19 -823.37)" fill="#eae5d8"/>
        </g>
      </g>
    </g>
  </g>
</svg>
